<svg xmlns="http://www.w3.org/2000/svg" xmlns:xlink="http://www.w3.org/1999/xlink" width="338" height="262" viewBox="0 0 338 262"><defs><clipPath id="a"><rect width="338" height="262" transform="translate(476 982)" fill="#c33636" opacity="0.627"/></clipPath><clipPath id="b"><rect width="310" height="262" fill="none"/></clipPath></defs><g transform="translate(-476 -982)" clip-path="url(#a)"><g transform="translate(490 982)"><g clip-path="url(#b)"><path d="M302.783,72.651,247.624,17.526a3.311,3.311,0,0,0-4.681,0l-32.5,32.479,59.838,59.8,32.5-32.48a3.307,3.307,0,0,0,0-4.678" transform="translate(-0.466 -0.047)" fill="#ea5457"/><path d="M270.282,111.825a2.01,2.01,0,0,1-1.425-.59l-59.838-59.8a2.016,2.016,0,0,1,0-2.852l32.5-32.479a5.327,5.327,0,0,1,7.53,0l55.159,55.125a5.323,5.323,0,0,1,0,7.53l-32.5,32.48A2.01,2.01,0,0,1,270.282,111.825ZM213.3,50.007l56.986,56.951L301.357,75.9a1.291,1.291,0,0,0,0-1.826L246.2,18.952a1.295,1.295,0,0,0-1.83,0Z" transform="translate(-0.466 -0.047)" fill="#121212"/><path d="M256.965,26.766l-9.25-9.245,4.71-4.706a3.311,3.311,0,0,1,4.681,0l4.571,4.568a3.308,3.308,0,0,1,0,4.678Z" transform="translate(-0.549 -0.033)" fill="#ea5457"/><path d="M256.965,28.782a2.01,2.01,0,0,1-1.425-.59l-9.25-9.245a2.016,2.016,0,0,1,0-2.852L251,11.389a5.327,5.327,0,0,1,7.531,0l4.571,4.568a5.33,5.33,0,0,1,0,7.53l-4.71,4.707A2.01,2.01,0,0,1,256.965,28.782Zm-6.4-11.261,6.4,6.394,3.284-3.282a1.293,1.293,0,0,0,0-1.827l-4.57-4.567a1.295,1.295,0,0,0-1.83,0Z" transform="translate(-0.549 -0.033)" fill="#121212"/><path d="M272.3,42.1l-9.25-9.245,4.71-4.706a3.312,3.312,0,0,1,4.682,0l4.57,4.568a3.306,3.306,0,0,1,0,4.678Z" transform="translate(-0.582 -0.077)" fill="#ea5457"/><path d="M272.3,44.113a2.009,2.009,0,0,1-1.425-.59l-9.25-9.245a2.016,2.016,0,0,1,0-2.852l4.71-4.706a5.328,5.328,0,0,1,7.531,0l4.571,4.569a5.322,5.322,0,0,1,0,7.53l-4.709,4.706A2.01,2.01,0,0,1,272.3,44.113Zm-6.4-11.261,6.4,6.394,3.284-3.282a1.29,1.29,0,0,0,0-1.826l-4.569-4.568a1.3,1.3,0,0,0-1.831,0Z" transform="translate(-0.582 -0.077)" fill="#121212"/><path d="M287.628,57.429l-9.25-9.245,4.71-4.706a3.311,3.311,0,0,1,4.681,0l4.571,4.568a3.307,3.307,0,0,1,0,4.678Z" transform="translate(-0.616 -0.12)" fill="#ea5457"/><path d="M287.628,59.445a2.01,2.01,0,0,1-1.425-.59l-9.25-9.245a2.016,2.016,0,0,1,0-2.852l4.71-4.706a5.327,5.327,0,0,1,7.53,0l4.571,4.569a5.323,5.323,0,0,1,0,7.53l-4.709,4.706A2.01,2.01,0,0,1,287.628,59.445Zm-6.4-11.261,6.4,6.394,3.284-3.282a1.291,1.291,0,0,0,0-1.827l-4.57-4.567a1.295,1.295,0,0,0-1.829,0Z" transform="translate(-0.616 -0.12)" fill="#121212"/><path d="M302.959,72.76l-9.25-9.245,4.71-4.706a3.312,3.312,0,0,1,4.682,0l4.57,4.568a3.306,3.306,0,0,1,0,4.678Z" transform="translate(-0.65 -0.163)" fill="#ea5457"/><path d="M302.959,74.776a2.009,2.009,0,0,1-1.425-.59l-9.25-9.245a2.016,2.016,0,0,1,0-2.852l4.71-4.706a5.328,5.328,0,0,1,7.531,0L309.1,61.95a5.322,5.322,0,0,1,0,7.53l-4.709,4.706A2.01,2.01,0,0,1,302.959,74.776Zm-6.4-11.261,6.4,6.394,3.284-3.282a1.29,1.29,0,0,0,0-1.826l-4.569-4.568a1.3,1.3,0,0,0-1.831,0Z" transform="translate(-0.65 -0.163)" fill="#121212"/><path d="M251.131,51.876a4.06,4.06,0,0,1-1.126-1.946,3.96,3.96,0,0,1,.114-2.211,6.173,6.173,0,0,1,3.557-3.555,3.947,3.947,0,0,1,4.169,1,4.809,4.809,0,0,1,1.081,1.6A4.682,4.682,0,0,1,259.3,48.4l-1.678.182a2.666,2.666,0,0,0-.206-1.162,3.166,3.166,0,0,0-.724-1.1,2.185,2.185,0,0,0-1.2-.647,2.479,2.479,0,0,0-1.364.177,4.725,4.725,0,0,0-2.308,2.306,2.483,2.483,0,0,0-.178,1.363,2.186,2.186,0,0,0,.648,1.2,3.55,3.55,0,0,0,.762.606,2.353,2.353,0,0,0,.643.249l1.231-1.23-.967-.966,1.095-1.094,2.171,2.17L254.1,53.572a5.092,5.092,0,0,1-1.555-.607,6.8,6.8,0,0,1-1.419-1.089" transform="translate(-0.553 -0.124)" fill="#121212"/><rect width="9.17" height="1.628" transform="matrix(0.707, -0.707, 0.707, 0.707, 254.063, 54.924)" fill="#121212"/><path d="M258.656,59.3a3.034,3.034,0,0,1-.816-1.38,2.81,2.81,0,0,1,.037-1.569,3.941,3.941,0,0,1,2.431-2.429,2.867,2.867,0,0,1,1.569-.037,3.183,3.183,0,0,1,2.2,2.2,2.883,2.883,0,0,1-.041,1.563,3.947,3.947,0,0,1-2.431,2.429,2.828,2.828,0,0,1-1.565.043,3.039,3.039,0,0,1-1.387-.822m1.04-1.039a1.275,1.275,0,0,0,1.04.392,1.965,1.965,0,0,0,1.213-.656,1.987,1.987,0,0,0,.665-1.222,1.272,1.272,0,0,0-.392-1.04,1.239,1.239,0,0,0-1.031-.382,2.514,2.514,0,0,0-1.879,1.878,1.238,1.238,0,0,0,.383,1.03" transform="translate(-0.571 -0.152)" fill="#121212"/><path d="M263.846,64.48a2.09,2.09,0,0,1-.63-1.668l-.475.365-.994-.993,6.486-6.483,1.149,1.149-2.39,2.388a2.156,2.156,0,0,1,1.459.638,3.159,3.159,0,0,1,.835,1.372,2.7,2.7,0,0,1-.024,1.546,4.164,4.164,0,0,1-2.5,2.5,2.716,2.716,0,0,1-1.547.022,3.141,3.141,0,0,1-1.372-.834m.994-1.085a1.355,1.355,0,0,0,1.058.411,2.313,2.313,0,0,0,1.88-1.879,1.35,1.35,0,0,0-.411-1.057,1.331,1.331,0,0,0-1.054-.406,1.93,1.93,0,0,0-1.235.651,1.906,1.906,0,0,0-.644,1.228,1.331,1.331,0,0,0,.406,1.052" transform="translate(-0.58 -0.157)" fill="#121212"/><path d="M268.291,68.839a2.575,2.575,0,0,1-.889-1.508,1.643,1.643,0,0,1,.525-1.482A1.707,1.707,0,0,1,269,65.33a2.657,2.657,0,0,1,1.24.2,3.5,3.5,0,0,1,1.112.72,1.7,1.7,0,0,1,.369.434,2.561,2.561,0,0,1,.224.488l.292-.291c.255-.256.366-.476.332-.661a1.152,1.152,0,0,0-.351-.579,3.59,3.59,0,0,0-.948-.666,3.856,3.856,0,0,0-1.077-.355l.365-1.4a6.656,6.656,0,0,1,1.341.492,4.814,4.814,0,0,1,1.313.939,2.871,2.871,0,0,1,.939,1.631,2.155,2.155,0,0,1-.821,1.7l-1.915,1.915c-.128.128-.173.229-.133.305a1.226,1.226,0,0,0,.452.324l-.7.7a3.63,3.63,0,0,1-.488-.241,2.651,2.651,0,0,1-.543-.424.921.921,0,0,1-.319-1.049,2.68,2.68,0,0,1-1.4-.666m.958-1.011a2.539,2.539,0,0,0,.958.583.64.64,0,0,0,.711-.173.39.39,0,0,0,.068-.479,1.817,1.817,0,0,0-.433-.525,1.581,1.581,0,0,0-.88-.452.726.726,0,0,0-.652.178.416.416,0,0,0-.1.383.994.994,0,0,0,.328.483" transform="translate(-0.592 -0.179)" fill="#121212"/><rect width="9.17" height="1.628" transform="translate(271.119 71.97) rotate(-45)" fill="#121212"/><path d="M229.118,50.275l6.385-6.382,1.186,1.185-1.46,7.166,4.314-4.312,1.2,1.194-6.385,6.382-1.132-1.13L234.765,47,230.3,51.46Z" transform="translate(-0.507 -0.124)" fill="#121212"/><path d="M236.95,58.22a2.575,2.575,0,0,1-.889-1.509,1.642,1.642,0,0,1,.525-1.481,1.7,1.7,0,0,1,1.077-.52,2.632,2.632,0,0,1,1.24.2,3.481,3.481,0,0,1,1.112.72,1.686,1.686,0,0,1,.37.434,2.624,2.624,0,0,1,.223.488l.292-.291c.255-.256.366-.476.332-.661a1.148,1.148,0,0,0-.351-.579,3.566,3.566,0,0,0-.948-.666A3.834,3.834,0,0,0,238.857,54l.365-1.4a6.7,6.7,0,0,1,1.34.493,4.793,4.793,0,0,1,1.314.938,2.876,2.876,0,0,1,.939,1.632,2.157,2.157,0,0,1-.821,1.7l-1.915,1.915c-.128.128-.173.229-.133.305a1.226,1.226,0,0,0,.452.324l-.7.7a3.574,3.574,0,0,1-.488-.241,2.619,2.619,0,0,1-.543-.424.919.919,0,0,1-.319-1.048,2.68,2.68,0,0,1-1.4-.666m.958-1.011a2.539,2.539,0,0,0,.958.583.639.639,0,0,0,.711-.173.39.39,0,0,0,.068-.479,1.833,1.833,0,0,0-.433-.526,1.589,1.589,0,0,0-.88-.451.728.728,0,0,0-.653.178.416.416,0,0,0-.1.382.992.992,0,0,0,.328.484" transform="translate(-0.523 -0.149)" fill="#121212"/><path d="M241.478,62.635l2.746-6.044,1.176,1.176-1.925,3.966,3.986-1.906,1.113,1.112-5.993,2.8Z" transform="translate(-0.535 -0.16)" fill="#121212"/><path d="M245.006,66.163l4.4-4.394,1.149,1.148-4.4,4.394Zm5.619-4.485a.947.947,0,0,1-.287-.706.975.975,0,0,1,.3-.707.992.992,0,1,1,1.4,1.4.975.975,0,0,1-.706.3.948.948,0,0,1-.707-.287" transform="translate(-0.543 -0.169)" fill="#121212"/><path d="M247.372,72.094a3.538,3.538,0,0,1-.931-1.45,2.977,2.977,0,0,1,0-1.631l1.534.309a1.853,1.853,0,0,0-.052.926,1.709,1.709,0,0,0,.488.807,1.234,1.234,0,0,0,1.037.433,2.291,2.291,0,0,0,1.208-.743l.1-.1A2.117,2.117,0,0,1,249.4,70a3.133,3.133,0,0,1-.8-1.266,2.361,2.361,0,0,1-.006-1.418,3.439,3.439,0,0,1,.916-1.436,3.4,3.4,0,0,1,1.434-.911,2.385,2.385,0,0,1,1.413.009,3.175,3.175,0,0,1,1.269.8,2.125,2.125,0,0,1,.656,1.551l.383-.292.994.994-3.858,3.855a3.732,3.732,0,0,1-2.189,1.195,2.736,2.736,0,0,1-2.234-.984m3.111-3a1.314,1.314,0,0,0,1.016.415,1.64,1.64,0,0,0,1.1-.541,1.59,1.59,0,0,0,.534-1.09,1.331,1.331,0,0,0-.424-1.007,1.2,1.2,0,0,0-.976-.392,1.722,1.722,0,0,0-1.057.565,1.767,1.767,0,0,0-.576,1.066,1.178,1.178,0,0,0,.384.984" transform="translate(-0.545 -0.183)" fill="#121212"/><path d="M253.79,75.059a2.568,2.568,0,0,1-.889-1.509,1.64,1.64,0,0,1,.524-1.482,1.707,1.707,0,0,1,1.077-.52,2.657,2.657,0,0,1,1.24.2,3.468,3.468,0,0,1,1.113.722,1.661,1.661,0,0,1,.369.432,2.625,2.625,0,0,1,.223.488l.292-.291c.255-.256.366-.476.333-.661a1.148,1.148,0,0,0-.352-.578,3.57,3.57,0,0,0-.948-.667,3.83,3.83,0,0,0-1.077-.354l.365-1.4a6.657,6.657,0,0,1,1.341.492,4.819,4.819,0,0,1,1.313.939,2.87,2.87,0,0,1,.939,1.632,2.158,2.158,0,0,1-.82,1.7l-1.916,1.914c-.128.128-.172.23-.132.306a1.223,1.223,0,0,0,.451.323l-.7.7a3.892,3.892,0,0,1-.488-.241,2.659,2.659,0,0,1-.543-.425.921.921,0,0,1-.319-1.048,2.685,2.685,0,0,1-1.395-.666m.957-1.012a2.546,2.546,0,0,0,.958.583.639.639,0,0,0,.711-.173.39.39,0,0,0,.068-.479,1.814,1.814,0,0,0-.432-.524,1.58,1.58,0,0,0-.881-.452.726.726,0,0,0-.652.178.416.416,0,0,0-.1.383.994.994,0,0,0,.328.483" transform="translate(-0.56 -0.196)" fill="#121212"/><path d="M258.662,80.018a3.527,3.527,0,0,1-.648-.839,1.137,1.137,0,0,1-.1-.825,2.049,2.049,0,0,1,.588-.906l2.308-2.306-.82-.821.985-.985.821.821,1.523-1.523,1.14,1.14L262.931,75.3l1.186,1.186-.986.984-1.185-1.185-2.008,2.005a.622.622,0,0,0-.24.525.98.98,0,0,0,.305.506,1.6,1.6,0,0,0,.419.3,2.639,2.639,0,0,0,.392.165l-1.04,1.039a2.693,2.693,0,0,1-.547-.319,4.656,4.656,0,0,1-.566-.484" transform="translate(-0.571 -0.205)" fill="#121212"/><path d="M260.62,81.776l4.4-4.394,1.149,1.148-4.4,4.395Zm5.619-4.485a.946.946,0,0,1-.287-.706.973.973,0,0,1,.3-.706.992.992,0,1,1,1.4,1.4.974.974,0,0,1-.706.3.944.944,0,0,1-.707-.287" transform="translate(-0.577 -0.213)" fill="#121212"/><path d="M264.769,86.13a3.034,3.034,0,0,1-.816-1.38,2.793,2.793,0,0,1,.037-1.569,3.941,3.941,0,0,1,2.431-2.429,2.863,2.863,0,0,1,1.568-.037,3.182,3.182,0,0,1,2.2,2.2,2.883,2.883,0,0,1-.042,1.563,3.945,3.945,0,0,1-2.431,2.43,2.837,2.837,0,0,1-1.565.042,3.045,3.045,0,0,1-1.386-.822m1.04-1.039a1.273,1.273,0,0,0,1.039.392,2.438,2.438,0,0,0,1.879-1.878,1.271,1.271,0,0,0-.391-1.04,1.242,1.242,0,0,0-1.032-.382,2.514,2.514,0,0,0-1.879,1.878,1.239,1.239,0,0,0,.384,1.03" transform="translate(-0.584 -0.228)" fill="#121212"/><path d="M267.86,89.023l4.4-4.394,1.022,1.02-.429.556a2.547,2.547,0,0,1,.89.05,1.77,1.77,0,0,1,.862.5,2.121,2.121,0,0,1,.678,1.555,2.492,2.492,0,0,1-.862,1.727L271.646,92.8,270.5,91.656l2.49-2.488a1.693,1.693,0,0,0,.542-.915.848.848,0,0,0-.259-.753,1.031,1.031,0,0,0-.82-.319,1.645,1.645,0,0,0-1.013.565l-2.427,2.424Z" transform="translate(-0.593 -0.239)" fill="#121212"/><path d="M86.639,47.255H2.016V15.318a3.308,3.308,0,0,1,3.309-3.309H83.331a3.308,3.308,0,0,1,3.309,3.309Z" transform="translate(-0.004 -0.034)" fill="#cacaca"/><path d="M86.639,49.271H2.016A2.016,2.016,0,0,1,0,47.255V15.318A5.324,5.324,0,0,1,5.325,9.993H83.331a5.324,5.324,0,0,1,5.325,5.326V47.255A2.016,2.016,0,0,1,86.639,49.271ZM4.032,45.239H84.623V15.318a1.292,1.292,0,0,0-1.293-1.293H5.325a1.292,1.292,0,0,0-1.293,1.292Z" transform="translate(-0.004 -0.034)" fill="#121212"/><path d="M18.425,11.981H5.343V5.325a3.309,3.309,0,0,1,3.31-3.309h6.464a3.308,3.308,0,0,1,3.309,3.309Z" transform="translate(-0.012 -0.006)" fill="#cacaca"/><path d="M18.425,14H5.343a2.016,2.016,0,0,1-2.016-2.016V5.325A5.331,5.331,0,0,1,8.653,0h6.464a5.324,5.324,0,0,1,5.325,5.326v6.655A2.016,2.016,0,0,1,18.425,14ZM7.359,9.965h9.05V5.325a1.292,1.292,0,0,0-1.293-1.293H8.653A1.3,1.3,0,0,0,7.359,5.325Z" transform="translate(-0.012 -0.006)" fill="#121212"/><path d="M40.107,11.981H27.025V5.325a3.309,3.309,0,0,1,3.31-3.309H36.8a3.308,3.308,0,0,1,3.309,3.309Z" transform="translate(-0.06 -0.006)" fill="#cacaca"/><path d="M40.107,14H27.025a2.016,2.016,0,0,1-2.016-2.016V5.325A5.331,5.331,0,0,1,30.335,0H36.8a5.324,5.324,0,0,1,5.325,5.326v6.655A2.016,2.016,0,0,1,40.107,14ZM29.041,9.965h9.05V5.325A1.292,1.292,0,0,0,36.8,4.032H30.335a1.3,1.3,0,0,0-1.294,1.293Z" transform="translate(-0.06 -0.006)" fill="#121212"/><path d="M61.789,11.981H48.707V5.325a3.309,3.309,0,0,1,3.31-3.309H58.48a3.308,3.308,0,0,1,3.309,3.309Z" transform="translate(-0.108 -0.006)" fill="#cacaca"/><path d="M61.789,14H48.707a2.016,2.016,0,0,1-2.016-2.016V5.325A5.331,5.331,0,0,1,52.017,0H58.48A5.324,5.324,0,0,1,63.8,5.326v6.655A2.016,2.016,0,0,1,61.789,14ZM50.723,9.965h9.05V5.325A1.292,1.292,0,0,0,58.48,4.032H52.017a1.3,1.3,0,0,0-1.294,1.293Z" transform="translate(-0.108 -0.006)" fill="#121212"/><path d="M83.471,11.981H70.389V5.325A3.309,3.309,0,0,1,73.7,2.016h6.464a3.308,3.308,0,0,1,3.309,3.309Z" transform="translate(-0.156 -0.006)" fill="#cacaca"/><path d="M83.471,14H70.389a2.016,2.016,0,0,1-2.016-2.016V5.325A5.331,5.331,0,0,1,73.7,0h6.464a5.324,5.324,0,0,1,5.325,5.326v6.655A2.016,2.016,0,0,1,83.471,14ZM72.4,9.965h9.05V5.325a1.292,1.292,0,0,0-1.293-1.293H73.7A1.3,1.3,0,0,0,72.4,5.325Z" transform="translate(-0.156 -0.006)" fill="#121212"/><path d="M29.762,33.643V24.353h1.726l4.157,6.278V24.353h1.74v9.291H35.738l-4.25-6.49v6.49Z" transform="translate(-0.066 -0.069)" fill="#121212"/><path d="M41.88,33.8a3.182,3.182,0,0,1-2.284-.829,3.308,3.308,0,0,1-.877-2.515,3.84,3.84,0,0,1,.392-1.8A2.815,2.815,0,0,1,40.193,27.5a3.1,3.1,0,0,1,1.594-.4,2.656,2.656,0,0,1,1.534.432,2.735,2.735,0,0,1,.963,1.188,4.305,4.305,0,0,1,.331,1.739v.358h-4.25a1.636,1.636,0,0,0,.485,1.215,1.672,1.672,0,0,0,1.056.325,1.55,1.55,0,0,0,.957-.279,2.426,2.426,0,0,0,.664-.836l1.221.863a3.269,3.269,0,0,1-1.227,1.307,3.342,3.342,0,0,1-1.64.391m-1.448-4.26h2.536q-.239-1.141-1.208-1.141a1.343,1.343,0,0,0-.863.265,1.484,1.484,0,0,0-.465.876" transform="translate(-0.086 -0.077)" fill="#121212"/><path d="M46.98,33.651l-1.819-6.4h1.593l1.022,4.06,1.036-4.06h1.395l1.023,4.06,1.036-4.06h1.593l-1.832,6.4H50.565L49.5,29.55l-1.063,4.1Z" transform="translate(-0.1 -0.077)" fill="#121212"/><path d="M56.92,33.784a4.293,4.293,0,0,1-1.481-.259,3.357,3.357,0,0,1-1.282-.856l1.024-1.129a2.432,2.432,0,0,0,1.832.8,1.409,1.409,0,0,0,.7-.126.514.514,0,0,0,.2-.472.377.377,0,0,0-.1-.258.965.965,0,0,0-.411-.212,8.676,8.676,0,0,0-.937-.219,3.17,3.17,0,0,1-1.494-.637,1.686,1.686,0,0,1-.525-1.353,1.734,1.734,0,0,1,.32-1.042,2.068,2.068,0,0,1,.869-.69,3.021,3.021,0,0,1,1.241-.245,3.482,3.482,0,0,1,2.444.85l-.916,1.194a1.983,1.983,0,0,0-.71-.444,2.327,2.327,0,0,0-.79-.141.929.929,0,0,0-.6.141.418.418,0,0,0-.16.325.388.388,0,0,0,.08.238.78.78,0,0,0,.345.205,7.19,7.19,0,0,0,.823.232,3.7,3.7,0,0,1,1.667.763,1.748,1.748,0,0,1,.564,1.361,1.647,1.647,0,0,1-.763,1.486,3.531,3.531,0,0,1-1.946.492" transform="translate(-0.12 -0.076)" fill="#121212"/><path d="M277.7,210.845H193.078V178.908a3.308,3.308,0,0,1,3.309-3.309h78.006a3.308,3.308,0,0,1,3.309,3.309Z" transform="translate(-0.428 -0.496)" fill="#f9cccd"/><path d="M277.7,212.861H193.078a2.016,2.016,0,0,1-2.016-2.016V178.908a5.324,5.324,0,0,1,5.325-5.325h78.006a5.324,5.324,0,0,1,5.325,5.326v31.936A2.016,2.016,0,0,1,277.7,212.861Zm-82.607-4.032h80.591V178.908a1.292,1.292,0,0,0-1.293-1.293H196.387a1.292,1.292,0,0,0-1.293,1.292Z" transform="translate(-0.428 -0.496)" fill="#121212"/><path d="M209.487,175.571H196.4v-6.656a3.309,3.309,0,0,1,3.31-3.309h6.464a3.308,3.308,0,0,1,3.309,3.309Z" transform="translate(-0.435 -0.468)" fill="#f9cccd"/><path d="M209.487,177.587H196.4a2.016,2.016,0,0,1-2.016-2.016v-6.656a5.331,5.331,0,0,1,5.326-5.325h6.464a5.324,5.324,0,0,1,5.325,5.326v6.655A2.016,2.016,0,0,1,209.487,177.587Zm-11.066-4.032h9.05v-4.64a1.292,1.292,0,0,0-1.293-1.293h-6.464a1.3,1.3,0,0,0-1.294,1.293Z" transform="translate(-0.435 -0.468)" fill="#121212"/><path d="M231.169,175.571H218.087v-6.656a3.309,3.309,0,0,1,3.31-3.309h6.464a3.308,3.308,0,0,1,3.309,3.309Z" transform="translate(-0.483 -0.468)" fill="#f9cccd"/><path d="M231.169,177.587H218.087a2.016,2.016,0,0,1-2.016-2.016v-6.656a5.331,5.331,0,0,1,5.326-5.325h6.464a5.324,5.324,0,0,1,5.325,5.326v6.655A2.016,2.016,0,0,1,231.169,177.587ZM220.1,173.555h9.05v-4.64a1.292,1.292,0,0,0-1.293-1.293H221.4a1.3,1.3,0,0,0-1.294,1.293Z" transform="translate(-0.483 -0.468)" fill="#121212"/><path d="M252.851,175.571H239.769v-6.656a3.309,3.309,0,0,1,3.31-3.309h6.464a3.308,3.308,0,0,1,3.309,3.309Z" transform="translate(-0.531 -0.468)" fill="#f9cccd"/><path d="M252.851,177.587H239.769a2.016,2.016,0,0,1-2.016-2.016v-6.656a5.331,5.331,0,0,1,5.326-5.325h6.464a5.324,5.324,0,0,1,5.325,5.326v6.655A2.016,2.016,0,0,1,252.851,177.587Zm-11.066-4.032h9.05v-4.64a1.292,1.292,0,0,0-1.293-1.293h-6.464a1.3,1.3,0,0,0-1.294,1.293Z" transform="translate(-0.531 -0.468)" fill="#121212"/><path d="M274.533,175.571H261.451v-6.656a3.309,3.309,0,0,1,3.31-3.309h6.464a3.308,3.308,0,0,1,3.309,3.309Z" transform="translate(-0.579 -0.468)" fill="#f9cccd"/><path d="M274.533,177.587H261.451a2.016,2.016,0,0,1-2.016-2.016v-6.656a5.331,5.331,0,0,1,5.326-5.325h6.464a5.324,5.324,0,0,1,5.325,5.326v6.655A2.016,2.016,0,0,1,274.533,177.587Zm-11.066-4.032h9.05v-4.64a1.292,1.292,0,0,0-1.293-1.293h-6.464a1.3,1.3,0,0,0-1.294,1.293Z" transform="translate(-0.579 -0.468)" fill="#121212"/><path d="M218.908,197.233v-9.291h4.3a3.967,3.967,0,0,1,1.521.266,2.016,2.016,0,0,1,1,.862,3.853,3.853,0,0,1,0,3.219,2.046,2.046,0,0,1-1,.877,3.889,3.889,0,0,1-1.521.272h-2.576v3.8Zm1.726-5.4h2.337a1.505,1.505,0,0,0,.943-.266,1.05,1.05,0,0,0,.345-.888,1.034,1.034,0,0,0-.345-.876,1.511,1.511,0,0,0-.943-.265h-2.337Z" transform="translate(-0.485 -0.531)" fill="#121212"/><path d="M227.2,197.232V187.8h1.673v3.756a1.705,1.705,0,0,1,.6-.611,1.777,1.777,0,0,1,.983-.265,2.187,2.187,0,0,1,1.626.637,2.57,2.57,0,0,1,.631,1.885v4.035h-1.672V193.61a1.745,1.745,0,0,0-.272-1.062.876.876,0,0,0-.737-.358,1.061,1.061,0,0,0-.83.365,1.694,1.694,0,0,0-.325,1.148v3.53Z" transform="translate(-0.503 -0.53)" fill="#121212"/><path d="M237.068,197.386a3.135,3.135,0,0,1-1.6-.411,2.911,2.911,0,0,1-1.116-1.169,4.061,4.061,0,0,1,0-3.536,2.956,2.956,0,0,1,1.116-1.169,3.286,3.286,0,0,1,3.207,0,2.962,2.962,0,0,1,1.11,1.169,4.07,4.07,0,0,1,0,3.536,2.917,2.917,0,0,1-1.11,1.169,3.123,3.123,0,0,1-1.606.411m0-1.513a1.313,1.313,0,0,0,1.043-.472,2.03,2.03,0,0,0,.405-1.36,2.055,2.055,0,0,0-.405-1.373,1.313,1.313,0,0,0-1.043-.472,1.275,1.275,0,0,0-1.03.472,2.1,2.1,0,0,0-.391,1.373,2.078,2.078,0,0,0,.391,1.36,1.275,1.275,0,0,0,1.03.472" transform="translate(-0.518 -0.539)" fill="#121212"/><path d="M244.068,197.38a3.668,3.668,0,0,1-1.083-.139,1.175,1.175,0,0,1-.677-.525,2.114,2.114,0,0,1-.232-1.089v-3.357h-1.2v-1.433h1.2v-2.217h1.659v2.217h1.727v1.433h-1.727v2.92a.641.641,0,0,0,.207.557,1.007,1.007,0,0,0,.591.147,1.645,1.645,0,0,0,.525-.087,2.563,2.563,0,0,0,.405-.166v1.513a2.818,2.818,0,0,1-.632.167,5,5,0,0,1-.763.059" transform="translate(-0.533 -0.533)" fill="#121212"/><path d="M249.365,197.386a3.135,3.135,0,0,1-1.6-.411,2.911,2.911,0,0,1-1.116-1.169,4.061,4.061,0,0,1,0-3.536,2.956,2.956,0,0,1,1.116-1.169,3.286,3.286,0,0,1,3.207,0,2.962,2.962,0,0,1,1.11,1.169,4.07,4.07,0,0,1,0,3.536,2.917,2.917,0,0,1-1.11,1.169,3.123,3.123,0,0,1-1.606.411m0-1.513a1.313,1.313,0,0,0,1.043-.472,2.03,2.03,0,0,0,.405-1.36,2.055,2.055,0,0,0-.405-1.373,1.313,1.313,0,0,0-1.043-.472,1.275,1.275,0,0,0-1.03.472,2.1,2.1,0,0,0-.391,1.373,2.078,2.078,0,0,0,.391,1.36,1.275,1.275,0,0,0,1.03.472" transform="translate(-0.545 -0.539)" fill="#121212"/><path d="M277.7,246.346H193.078V214.409a3.308,3.308,0,0,1,3.309-3.309h78.006a3.308,3.308,0,0,1,3.309,3.309Z" transform="translate(-0.428 -0.596)" fill="#ea5457"/><path d="M277.7,248.362H193.078a2.016,2.016,0,0,1-2.016-2.016V214.409a5.324,5.324,0,0,1,5.325-5.325h78.006a5.324,5.324,0,0,1,5.325,5.326v31.936A2.016,2.016,0,0,1,277.7,248.362Zm-82.607-4.032h80.591V214.409a1.292,1.292,0,0,0-1.293-1.293H196.387a1.292,1.292,0,0,0-1.293,1.292Z" transform="translate(-0.428 -0.596)" fill="#121212"/><path d="M225.689,232.733v-7.7h-2.736v-1.593h7.2v1.593h-2.723v7.7Z" transform="translate(-0.494 -0.631)" fill="#121212"/><path d="M233.3,232.886a3.182,3.182,0,0,1-2.284-.829,3.308,3.308,0,0,1-.877-2.515,3.84,3.84,0,0,1,.392-1.8,2.815,2.815,0,0,1,1.082-1.155,3.1,3.1,0,0,1,1.594-.4,2.656,2.656,0,0,1,1.534.432,2.735,2.735,0,0,1,.963,1.188,4.305,4.305,0,0,1,.331,1.739v.358h-4.25a1.636,1.636,0,0,0,.485,1.215,1.672,1.672,0,0,0,1.056.325,1.55,1.55,0,0,0,.957-.279,2.426,2.426,0,0,0,.664-.836l1.221.863a3.269,3.269,0,0,1-1.227,1.307,3.342,3.342,0,0,1-1.64.391m-1.448-4.26h2.536q-.239-1.141-1.208-1.141a1.343,1.343,0,0,0-.863.265,1.484,1.484,0,0,0-.465.876" transform="translate(-0.51 -0.639)" fill="#121212"/><path d="M236.449,232.741l2.483-3.37-2.218-3.026h1.926l1.2,1.765,1.208-1.765h1.846l-2.178,2.973,2.51,3.424h-1.966l-1.448-2.15-1.434,2.15Z" transform="translate(-0.524 -0.639)" fill="#121212"/><path d="M246.61,232.881a3.663,3.663,0,0,1-1.083-.139,1.175,1.175,0,0,1-.676-.525,2.113,2.113,0,0,1-.232-1.089v-3.357h-1.2v-1.433h1.2v-2.217h1.659v2.217H248v1.433h-1.727v2.92a.641.641,0,0,0,.207.557,1.007,1.007,0,0,0,.591.147,1.645,1.645,0,0,0,.525-.087,2.558,2.558,0,0,0,.405-.166v1.513a2.816,2.816,0,0,1-.632.167,5,5,0,0,1-.763.059" transform="translate(-0.539 -0.633)" fill="#121212"/><path d="M86.646,195.051c-6.1-2.567-7.947-6.552-10.907-11.489-1.1-1.841-5.854-8.56-12.113-4.39C58.715,182.445,60.994,189.291,62,191.2c2.289,4.342,10.753,11.52,24.646,8.41Z" transform="translate(-0.134 -0.502)" fill="#fff"/><path d="M80.048,201.978a27.362,27.362,0,0,1-2.967-.159,24.481,24.481,0,0,1-7.8-2.163,21.668,21.668,0,0,1-5.518-3.693,13.8,13.8,0,0,1-4.784-10.211,8.63,8.63,0,0,1,3.75-7.923,8.392,8.392,0,0,1,6.676-1.417c4.215.95,6.971,5.078,7.715,6.32.293.489.577.971.85,1.436,2.49,4.231,4.289,7.288,9.3,9.4a1.613,1.613,0,0,1-1.251,2.974c-6-2.522-8.235-6.327-10.828-10.733-.271-.46-.55-.935-.837-1.414a14.267,14.267,0,0,0-2.077-2.652,7.583,7.583,0,0,0-3.58-2.179,5.226,5.226,0,0,0-4.178.955,4.842,4.842,0,0,0-1.868,2.258,6.949,6.949,0,0,0-.446,2.869,12.381,12.381,0,0,0,1.22,4.8,15.935,15.935,0,0,0,7.232,6.293,21.265,21.265,0,0,0,6.772,1.875,27.141,27.141,0,0,0,8.863-.579,1.613,1.613,0,0,1,.7,3.148A31.839,31.839,0,0,1,80.048,201.978Z" transform="translate(-0.134 -0.502)" fill="#121212"/><path d="M147.083,195.051c6.1-2.567,7.947-6.552,10.907-11.489,1.1-1.841,5.855-8.56,12.113-4.39,4.911,3.273,2.632,10.118,1.627,12.025-2.29,4.342-10.754,11.52-24.647,8.41Z" transform="translate(-0.326 -0.502)" fill="#fff"/><path d="M153.681,201.978a31.832,31.832,0,0,1-6.951-.8,1.613,1.613,0,0,1,.7-3.148,27.14,27.14,0,0,0,8.863.579,21.265,21.265,0,0,0,6.772-1.875,15.94,15.94,0,0,0,7.233-6.293,12.392,12.392,0,0,0,1.219-4.8,6.95,6.95,0,0,0-.446-2.869,4.842,4.842,0,0,0-1.868-2.258,5.225,5.225,0,0,0-4.177-.955,7.584,7.584,0,0,0-3.581,2.179,14.263,14.263,0,0,0-2.077,2.652c-.288.48-.568.956-.839,1.416-2.592,4.4-4.83,8.209-10.827,10.731a1.613,1.613,0,1,1-1.251-2.974c5.01-2.107,6.808-5.163,9.3-9.394.274-.466.558-.948.852-1.438.744-1.242,3.5-5.37,7.716-6.32A8.391,8.391,0,0,1,171,177.83a8.63,8.63,0,0,1,3.75,7.923,13.8,13.8,0,0,1-4.784,10.211,21.672,21.672,0,0,1-5.518,3.693,24.483,24.483,0,0,1-7.8,2.163A27.371,27.371,0,0,1,153.681,201.978Z" transform="translate(-0.326 -0.502)" fill="#121212"/><path d="M101.014,234.672c0,4.717-.845,8.228-1.475,9.485-1.1,2.2-3.586,3.264-5.682,4.564a10.277,10.277,0,0,0-4.689,5.394,4.284,4.284,0,0,0,2.338,5.374c5.7,3.059,21.5,1.59,22.915-4.017.919-3.642-.853-5.35-.692-12.562v-8.238Z" transform="translate(-0.197 -0.663)" fill="#fff"/><path d="M99.947,262.667c-3.777,0-7.107-.632-9.2-1.757a5.891,5.891,0,0,1-3.118-7.267c.739-2.418,2.549-4.536,5.381-6.293.426-.264.864-.517,1.287-.762,1.609-.929,3.129-1.807,3.8-3.154a24,24,0,0,0,1.3-8.763,1.613,1.613,0,0,1,3.226,0c0,4.781-.826,8.572-1.645,10.207-1.108,2.212-3.216,3.429-5.075,4.5-.42.243-.817.472-1.2.709-1.476.916-3.369,2.44-4,4.494a2.7,2.7,0,0,0,1.558,3.481c1.71.917,4.784,1.429,8.222,1.369a25.44,25.44,0,0,0,9.354-1.759c1.71-.755,2.78-1.678,3.013-2.6a9.48,9.48,0,0,0-.109-4.4,36.35,36.35,0,0,1-.632-7.785v-8.22a1.613,1.613,0,0,1,3.226,0v8.238q0,.018,0,.036a33.521,33.521,0,0,0,.585,7.181,12.546,12.546,0,0,1,.059,5.74,5.819,5.819,0,0,1-1.816,2.877,11.207,11.207,0,0,1-3.022,1.884,28.73,28.73,0,0,1-10.6,2.034Q100.246,262.667,99.947,262.667Z" transform="translate(-0.197 -0.663)" fill="#121212"/><path d="M98.032,250.523a.9.9,0,0,1-.741-.391,4.214,4.214,0,0,0-.932-.98.9.9,0,1,1,1.084-1.427,6,6,0,0,1,1.327,1.4.9.9,0,0,1-.739,1.4Z" transform="translate(-0.215 -0.702)" fill="#121212"/><path d="M95.87,252.165a.9.9,0,0,1-.741-.391,4.214,4.214,0,0,0-.932-.98.9.9,0,1,1,1.084-1.427,6,6,0,0,1,1.327,1.4.9.9,0,0,1-.739,1.4Z" transform="translate(-0.21 -0.706)" fill="#121212"/><path d="M99.707,258.262a31.1,31.1,0,0,1-4.685-.34,20.407,20.407,0,0,1-6.475-2.029.9.9,0,1,1,.838-1.584,18.633,18.633,0,0,0,5.907,1.841,31.3,31.3,0,0,0,6.78.239,35.2,35.2,0,0,0,12.226-2.982.9.9,0,0,1,.777,1.615,36.535,36.535,0,0,1-12.883,3.155Q100.928,258.262,99.707,258.262Z" transform="translate(-0.197 -0.718)" fill="#121212"/><path d="M107.8,248.479c-.607,0-1.215-.019-1.817-.056a19.075,19.075,0,0,1-7.846-2.018.9.9,0,1,1,.877-1.563,16.9,16.9,0,0,0,7.081,1.792,26.671,26.671,0,0,0,7.562-.6.9.9,0,0,1,.418,1.743A27.377,27.377,0,0,1,107.8,248.479Z" transform="translate(-0.218 -0.694)" fill="#121212"/><path d="M132.716,234.672c0,4.717.845,8.228,1.475,9.485,1.1,2.2,3.586,3.264,5.682,4.564a10.277,10.277,0,0,1,4.689,5.394,4.284,4.284,0,0,1-2.338,5.374c-5.7,3.059-21.5,1.59-22.915-4.017-.919-3.642.853-5.35.692-12.562v-8.238Z" transform="translate(-0.264 -0.663)" fill="#fff"/><path d="M133.783,262.667q-.3,0-.6-.005a28.73,28.73,0,0,1-10.6-2.034,11.208,11.208,0,0,1-3.022-1.884,5.819,5.819,0,0,1-1.816-2.877,12.546,12.546,0,0,1,.059-5.74,33.52,33.52,0,0,0,.585-7.181q0-.018,0-.036v-8.238a1.613,1.613,0,0,1,3.226,0v8.22a36.35,36.35,0,0,1-.632,7.785,9.48,9.48,0,0,0-.109,4.4c.233.921,1.3,1.845,3.013,2.6a25.44,25.44,0,0,0,9.354,1.759c3.438.06,6.512-.452,8.222-1.369a2.7,2.7,0,0,0,1.558-3.481c-.628-2.054-2.52-3.578-4-4.495-.382-.237-.779-.466-1.2-.709-1.859-1.074-3.966-2.291-5.075-4.5-.819-1.636-1.646-5.427-1.646-10.208a1.613,1.613,0,0,1,3.226,0,24,24,0,0,0,1.3,8.763c.675,1.347,2.195,2.225,3.8,3.154.423.244.861.5,1.287.761,2.832,1.757,4.642,3.875,5.381,6.293a5.891,5.891,0,0,1-3.118,7.266C140.89,262.035,137.56,262.667,133.783,262.667Z" transform="translate(-0.264 -0.663)" fill="#121212"/><path d="M135.752,250.523a.9.9,0,0,1-.739-1.4,6,6,0,0,1,1.327-1.4.9.9,0,1,1,1.084,1.427,4.214,4.214,0,0,0-.932.98A.9.9,0,0,1,135.752,250.523Z" transform="translate(-0.301 -0.702)" fill="#121212"/><path d="M137.914,252.165a.9.9,0,0,1-.739-1.4,6,6,0,0,1,1.327-1.4.9.9,0,0,1,1.084,1.427,4.214,4.214,0,0,0-.932.98A.9.9,0,0,1,137.914,252.165Z" transform="translate(-0.305 -0.706)" fill="#121212"/><path d="M134.023,258.262q-1.22,0-2.485-.085a36.535,36.535,0,0,1-12.883-3.155.9.9,0,0,1,.777-1.615,35.2,35.2,0,0,0,12.226,2.982,31.3,31.3,0,0,0,6.78-.239,18.633,18.633,0,0,0,5.907-1.841.9.9,0,1,1,.838,1.584,20.407,20.407,0,0,1-6.475,2.029A31.1,31.1,0,0,1,134.023,258.262Z" transform="translate(-0.264 -0.718)" fill="#121212"/><path d="M125.95,248.479a27.376,27.376,0,0,1-6.275-.7.9.9,0,0,1,.418-1.743,26.671,26.671,0,0,0,7.562.6,16.9,16.9,0,0,0,7.081-1.792.9.9,0,1,1,.877,1.563,19.075,19.075,0,0,1-7.846,2.018C127.165,248.46,126.557,248.479,125.95,248.479Z" transform="translate(-0.265 -0.694)" fill="#121212"/><path d="M158.624,147.893l-12.547,79.759c-1.172,5.933-13.107,11.239-29.276,11.239s-28.1-5.306-29.276-11.239L74.978,147.893Z" transform="translate(-0.166 -0.418)" fill="#fff"/><path d="M158.624,147.853c0,7.852-18.724,14.218-41.823,14.218S74.978,155.7,74.978,147.853,93.7,133.635,116.8,133.635s41.823,6.366,41.823,14.218" transform="translate(-0.166 -0.377)" fill="#fff"/><path d="M116.8,240.5a67.755,67.755,0,0,1-11.506-.945,46.525,46.525,0,0,1-9.357-2.565c-5.752-2.309-9.3-5.516-10-9.029q-.006-.031-.011-.062L73.385,148.144a1.613,1.613,0,0,1,3.187-.5l12.542,79.725a6.418,6.418,0,0,0,2.264,3.325A20.734,20.734,0,0,0,97.14,234c5.266,2.114,12.248,3.279,19.661,3.279S131.2,236.114,136.462,234a20.734,20.734,0,0,0,5.763-3.307,6.418,6.418,0,0,0,2.264-3.325l12.542-79.725a1.613,1.613,0,0,1,3.187.5L147.671,227.9q0,.031-.011.062c-.694,3.513-4.244,6.72-10,9.029a46.525,46.525,0,0,1-9.357,2.565A67.755,67.755,0,0,1,116.8,240.5Z" transform="translate(-0.166 -0.418)" fill="#121212"/><path d="M41.823-1.613c11.343,0,22.03,1.509,30.093,4.25A31.265,31.265,0,0,1,81.37,7.426a12,12,0,0,1,2.808,3.094,7.113,7.113,0,0,1,1.081,3.7,7.113,7.113,0,0,1-1.081,3.7,12,12,0,0,1-2.808,3.094A31.265,31.265,0,0,1,71.916,25.8c-8.062,2.741-18.749,4.25-30.093,4.25s-22.03-1.509-30.093-4.25a31.265,31.265,0,0,1-9.454-4.789A12,12,0,0,1-.532,17.915a7.113,7.113,0,0,1-1.081-3.7,7.113,7.113,0,0,1,1.081-3.7A12,12,0,0,1,2.276,7.426a31.265,31.265,0,0,1,9.454-4.789C19.793-.1,30.48-1.613,41.823-1.613Zm0,28.435a113.274,113.274,0,0,0,16.05-1.1,73.107,73.107,0,0,0,13-2.978,28.568,28.568,0,0,0,8.472-4.249c1.781-1.432,2.684-2.87,2.684-4.277s-.9-2.845-2.684-4.277a28.568,28.568,0,0,0-8.472-4.249,73.109,73.109,0,0,0-13-2.978,113.274,113.274,0,0,0-16.05-1.1,113.274,113.274,0,0,0-16.05,1.1,73.109,73.109,0,0,0-13,2.978A28.568,28.568,0,0,0,4.3,9.941c-1.781,1.432-2.684,2.87-2.684,4.277s.9,2.845,2.684,4.277a28.568,28.568,0,0,0,8.472,4.249,73.108,73.108,0,0,0,13,2.978A113.274,113.274,0,0,0,41.823,26.822Z" transform="translate(74.812 133.258)" fill="#121212"/><path d="M116.8,167.733a118.291,118.291,0,0,1-14.016-.812,87.059,87.059,0,0,1-12.055-2.256,46.8,46.8,0,0,1-9.32-3.453A16.975,16.975,0,0,1,75.57,156.7.9.9,0,1,1,77,155.617c2.141,2.842,7.182,5.441,14.194,7.317a85.267,85.267,0,0,0,11.8,2.208,119.627,119.627,0,0,0,27.606,0,85.268,85.268,0,0,0,11.8-2.208c7.013-1.876,12.054-4.474,14.194-7.317a.9.9,0,1,1,1.431,1.078,16.974,16.974,0,0,1-5.843,4.516,46.8,46.8,0,0,1-9.32,3.453,87.06,87.06,0,0,1-12.055,2.256A118.291,118.291,0,0,1,116.8,167.733Z" transform="translate(-0.169 -0.441)" fill="#121212"/><path d="M110.541,190.366a2.173,2.173,0,1,1-2.172-2.171,2.172,2.172,0,0,1,2.172,2.171" transform="translate(-0.235 -0.531)" fill="#231815"/><path d="M110.438,184.853a1.606,1.606,0,0,1-.8-.216,3.045,3.045,0,0,0-2.53,0,1.613,1.613,0,0,1-1.61-2.8,6.21,6.21,0,0,1,5.751,0,1.613,1.613,0,0,1-.807,3.011Z" transform="translate(-0.235 -0.516)" fill="#121212"/><path d="M116.884,204.836a10.667,10.667,0,0,1-5.321-1.287,1.613,1.613,0,1,1,1.612-2.795,8.469,8.469,0,0,0,7.417,0,1.613,1.613,0,1,1,1.612,2.795A10.665,10.665,0,0,1,116.884,204.836Z" transform="translate(-0.249 -0.571)" fill="#121212"/><path d="M127.58,190.366a2.173,2.173,0,1,1-2.172-2.171,2.171,2.171,0,0,1,2.172,2.171" transform="translate(-0.273 -0.531)" fill="#231815"/><path d="M127.477,184.853a1.605,1.605,0,0,1-.8-.216,3.045,3.045,0,0,0-2.53,0,1.613,1.613,0,0,1-1.61-2.8,6.21,6.21,0,0,1,5.751,0,1.613,1.613,0,0,1-.807,3.011Z" transform="translate(-0.273 -0.516)" fill="#121212"/><path d="M2.07,1.613H0A1.613,1.613,0,0,1-1.613,0,1.613,1.613,0,0,1,0-1.613H2.07A1.613,1.613,0,0,1,3.683,0,1.613,1.613,0,0,1,2.07,1.613Z" transform="translate(115.6 196.589)" fill="#121212"/><path d="M207.1,120.72a19.3,19.3,0,0,1,1.865,7.136c1.41,18.856-15.7,29.438-34.514,23.088a75.756,75.756,0,0,0-8.195-2.527,10.753,10.753,0,0,0-8.268,1.408l-18.945-14.134c3.442-11.183,18.374-23.9,35.757-26.075a49.987,49.987,0,0,1,17.633.64,25.443,25.443,0,0,0,6.035.5c2.179-.071,4.869-.817,6.631.467,3.047,2.218.1,5.128,2,9.5" transform="translate(-0.308 -0.308)" fill="#f0f0f0"/><path d="M182.246,107.523a45.334,45.334,0,0,1,10.531,1.155,23.9,23.9,0,0,0,4.734.482c.292,0,.6-.005.908-.015.476-.015,1-.069,1.552-.125a22.607,22.607,0,0,1,2.3-.155,5.979,5.979,0,0,1,3.781,1.055,4.825,4.825,0,0,1,2,2.934,9.473,9.473,0,0,1,.054,2.862,8.323,8.323,0,0,0,.464,4.328,21,21,0,0,1,2.008,7.691,26.9,26.9,0,0,1-1.209,10.556,22.594,22.594,0,0,1-4.89,8.293,23.569,23.569,0,0,1-8.476,5.8,28.32,28.32,0,0,1-10.731,2.023,35.437,35.437,0,0,1-11.332-1.932c-.5-.17-1.01-.345-1.5-.514a56.928,56.928,0,0,0-6.518-1.965,10.351,10.351,0,0,0-2.18-.233,8.56,8.56,0,0,0-4.831,1.391,1.613,1.613,0,0,1-1.881-.035l-18.945-14.134a1.613,1.613,0,0,1-.577-1.767,28.854,28.854,0,0,1,4.859-9,45.088,45.088,0,0,1,8.354-8.226,51.657,51.657,0,0,1,11.014-6.442,47.693,47.693,0,0,1,12.872-3.538A61.824,61.824,0,0,1,182.246,107.523Zm15.265,4.863a27.334,27.334,0,0,1-5.376-.547l-.075-.016a42.082,42.082,0,0,0-9.814-1.075,58.591,58.591,0,0,0-7.241.467,44.47,44.47,0,0,0-12,3.3,48.43,48.43,0,0,0-10.326,6.039c-5.651,4.325-9.866,9.568-11.726,14.543l17.134,12.783a11.964,11.964,0,0,1,5.654-1.348,13.583,13.583,0,0,1,2.861.305,60.216,60.216,0,0,1,6.889,2.068c.486.168.989.341,1.482.507a32.22,32.22,0,0,0,10.3,1.763,25.113,25.113,0,0,0,9.515-1.785,20.368,20.368,0,0,0,7.328-5,19.39,19.39,0,0,0,4.194-7.118,23.7,23.7,0,0,0,1.053-9.3,17.776,17.776,0,0,0-1.7-6.545q-.016-.033-.031-.067a11.255,11.255,0,0,1-.735-5.916c.145-1.745.148-2.276-.737-2.921a3.151,3.151,0,0,0-1.882-.437c-.618,0-1.307.07-1.974.138-.584.06-1.187.121-1.774.14C198.179,112.381,197.837,112.387,197.511,112.387Z" transform="translate(-0.308 -0.308)" fill="#121212"/><path d="M116.8,163.725c-11.343,0-22.031-1.509-30.093-4.25a31.266,31.266,0,0,1-9.454-4.789,12.005,12.005,0,0,1-2.808-3.094,7.112,7.112,0,0,1-1.081-3.7,1.613,1.613,0,0,1,3.226,0c0,1.406.9,2.845,2.684,4.277a28.569,28.569,0,0,0,8.472,4.249,73.108,73.108,0,0,0,13,2.978,113.271,113.271,0,0,0,16.05,1.1,106.628,106.628,0,0,0,22-2.161c6.295-1.355,11.335-3.245,14.575-5.465a1.613,1.613,0,1,1,1.824,2.661c-3.583,2.455-9.019,4.516-15.72,5.958A109.892,109.892,0,0,1,116.8,163.725Z" transform="translate(-0.166 -0.418)" fill="#121212"/><path d="M84.1,169.938c.779.364,1.187.54,2.037.884.065.69.1,1.035.162,1.725a30.093,30.093,0,0,1-3.637-1.718c-.434-3.243-.652-4.864-1.086-8.106.69.344,1.05.512,1.8.837.291,2.552.436,3.827.727,6.379" transform="translate(-0.181 -0.46)" fill="#ea5457"/><path d="M92.527,170.6a1.588,1.588,0,0,1-.995.692,3.01,3.01,0,0,1-1.623-.121c-.429-.134-.641-.2-1.058-.339.078,1.1.117,1.647.194,2.745-.825-.282-1.224-.428-2-.729l-.7-8.115c1.234.442,1.88.65,3.223,1.044a5.412,5.412,0,0,1,1.705.818,3.9,3.9,0,0,1,1.119,1.238,3.4,3.4,0,0,1,.426,1.5,2.158,2.158,0,0,1-.291,1.261m-2.06-1.894a1.241,1.241,0,0,0-1-1.169c-.351-.106-.525-.161-.869-.27l.125,1.765c.339.111.511.165.858.272.616.189.918-.013.884-.6" transform="translate(-0.191 -0.465)" fill="#ea5457"/><path d="M96.366,173.844c1.107.233,1.674.343,2.833.545.014.7.02,1.053.034,1.755-2.185-.389-3.233-.613-5.218-1.111-.131-3.275-.2-4.912-.326-8.186.975.223,1.474.33,2.49.529.075,2.587.113,3.88.188,6.467" transform="translate(-0.207 -0.471)" fill="#ea5457"/><path d="M107.643,173.069a2.587,2.587,0,0,1-1.3.877,4.824,4.824,0,0,1-2.084.15c-.55-.064-.822-.1-1.364-.169.01,1.119.015,1.678.026,2.8-1.088-.147-1.621-.227-2.669-.4-.052-3.3-.078-4.955-.131-8.259,1.6.243,2.426.35,4.1.534a6.207,6.207,0,0,1,2.089.562,3.3,3.3,0,0,1,1.315,1.091,2.6,2.6,0,0,1,.445,1.476,2.2,2.2,0,0,1-.433,1.342m-2.483-1.605c0-.605-.405-.946-1.192-1.037-.444-.051-.665-.077-1.1-.133.006.72.009,1.079.016,1.8.437.056.657.083,1.1.135.784.092,1.183-.167,1.18-.764" transform="translate(-0.222 -0.475)" fill="#ea5457"/><path d="M112.225,175.76c1.337.056,2.016.074,3.385.089,0,.712,0,1.068,0,1.779-2.6-.029-3.872-.083-6.339-.256,0-3.336,0-5,0-8.339,1.172.075,1.766.106,2.964.152,0,2.631-.006,3.946-.009,6.576" transform="translate(-0.242 -0.477)" fill="#ea5457"/><path d="M124.909,173.163a3.224,3.224,0,0,1-1.33,1.081,5.637,5.637,0,0,1-2.2.482c-.593.023-.891.033-1.491.049,0,1.129,0,1.693,0,2.822-1.212.033-1.827.041-3.065.04,0-3.346,0-5.018,0-8.363,1.84,0,2.752-.016,4.545-.082a6.156,6.156,0,0,1,2.194.253,2.7,2.7,0,0,1,1.341.9,2.284,2.284,0,0,1,.445,1.41,2.482,2.482,0,0,1-.439,1.409m-2.562-1.229c0-.608-.42-.89-1.267-.861-.478.017-.718.024-1.2.036,0,.726,0,1.089,0,1.815.482-.013.722-.02,1.2-.038.848-.03,1.266-.352,1.265-.952" transform="translate(-0.259 -0.478)" fill="#ea5457"/><path d="M129.348,175.15c1.241-.145,1.85-.226,3.045-.4-.008.7-.013,1.056-.021,1.76-2.256.344-3.428.487-5.85.705.008-3.331.011-5,.016-8.325,1.155-.094,1.724-.149,2.849-.27-.015,2.615-.023,3.921-.039,6.535" transform="translate(-0.28 -0.476)" fill="#ea5457"/><path d="M140.256,170.849a3.748,3.748,0,0,1-1.125,1.235,4.754,4.754,0,0,1-1.834.765c-.494.1-.743.152-1.246.248-.027,1.111-.04,1.667-.066,2.778-1.008.2-1.524.291-2.572.465.051-3.3.076-4.957.127-8.261,1.605-.241,2.39-.376,3.912-.673a4.323,4.323,0,0,1,1.838-.033,1.711,1.711,0,0,1,1.077.71,2.205,2.205,0,0,1,.305,1.326,3.244,3.244,0,0,1-.415,1.44m-2.065-.873c.019-.6-.321-.821-1.038-.68-.4.079-.607.118-1.018.192-.017.715-.025,1.072-.042,1.786.407-.076.61-.115,1.011-.2.711-.142,1.068-.513,1.087-1.1" transform="translate(-0.295 -0.472)" fill="#ea5457"/><path d="M143.679,172.226c.965-.3,1.433-.458,2.333-.783-.055.691-.082,1.037-.137,1.728-1.683.619-2.588.909-4.5,1.439.159-3.267.238-4.9.4-8.168.947-.239,1.409-.365,2.31-.627l-.4,6.411" transform="translate(-0.313 -0.468)" fill="#ea5457"/><path d="M151.881,166.645a5.169,5.169,0,0,1-.874,1.352,3.971,3.971,0,0,1-1.32.976c-.351.161-.53.24-.894.4l-.284,2.736c-.716.317-1.09.472-1.863.771.279-3.247.419-4.869.7-8.116,1.238-.44,1.829-.671,2.949-1.156a2.4,2.4,0,0,1,1.3-.265.814.814,0,0,1,.661.564,2.7,2.7,0,0,1,.059,1.269,5.453,5.453,0,0,1-.43,1.471m-1.306-.605c.071-.59-.144-.767-.667-.539-.294.129-.444.191-.747.317-.073.7-.11,1.055-.183,1.759.3-.126.445-.189.734-.317a1.417,1.417,0,0,0,.862-1.22" transform="translate(-0.325 -0.461)" fill="#ea5457"/><path d="M90.488,225.944a7,7,0,0,0,.893.934c.065.69.1,1.035.161,1.726a5.379,5.379,0,0,1-1.377-1.754c-.434-3.242-.652-4.863-1.086-8.106a5.813,5.813,0,0,0,.681.821c.291,2.552.436,3.827.727,6.379" transform="translate(-0.197 -0.618)" fill="#ea5457"/><path d="M95.169,227.071a1.012,1.012,0,0,1-.665.612,1.364,1.364,0,0,1-1.046-.24c-.268-.163-.4-.245-.645-.41.077,1.1.116,1.647.194,2.745a11.318,11.318,0,0,1-1.1-.842c-.281-3.247-.422-4.869-.7-8.116a15.267,15.267,0,0,0,1.912,1.229,4.173,4.173,0,0,1,1.13.936,4.59,4.59,0,0,1,.787,1.319,4.856,4.856,0,0,1,.319,1.533,2.764,2.764,0,0,1-.187,1.234m-1.413-2.042A1.426,1.426,0,0,0,93.1,223.8c-.222-.13-.328-.2-.536-.326l.125,1.765c.2.132.307.2.525.328.384.231.578.052.544-.533" transform="translate(-0.202 -0.624)" fill="#ea5457"/><path d="M98.014,230.62c.854.324,1.306.48,2.258.772.014.7.02,1.053.034,1.755a27.992,27.992,0,0,1-4.033-1.535c-.131-3.274-.2-4.911-.326-8.186.713.3,1.09.447,1.88.727.075,2.587.113,3.88.188,6.467" transform="translate(-0.212 -0.631)" fill="#ea5457"/><path d="M107.729,230.628a2.238,2.238,0,0,1-1.208.807,3.881,3.881,0,0,1-1.9.025c-.493-.1-.735-.152-1.21-.259l.025,2.8c-.953-.221-1.411-.342-2.288-.6l-.13-8.259c1.348.362,2.062.529,3.568.819a5.833,5.833,0,0,1,1.9.686,3.51,3.51,0,0,1,1.225,1.161,2.836,2.836,0,0,1,.419,1.5,2.2,2.2,0,0,1-.408,1.321m-2.295-1.743c0-.605-.372-.97-1.075-1.111-.4-.08-.593-.121-.978-.205.007.719.01,1.079.016,1.8.384.086.579.128.974.208.7.143,1.066-.093,1.063-.69" transform="translate(-0.224 -0.636)" fill="#ea5457"/><path d="M112.153,233.5c1.325.093,2.01.124,3.416.15,0,.712,0,1.068,0,1.779a53.266,53.266,0,0,1-6.3-.422v-8.339c1.125.125,1.7.176,2.89.256,0,2.631,0,3.946-.008,6.576" transform="translate(-0.242 -0.64)" fill="#ea5457"/><path d="M124.889,230.781a3.246,3.246,0,0,1-1.278,1.136,5.314,5.314,0,0,1-2.162.553c-.589.04-.888.056-1.493.083,0,1.129,0,1.693,0,2.822-1.223.055-1.855.07-3.141.068V227.08c1.913,0,2.842-.029,4.623-.144a6.021,6.021,0,0,1,2.152.182,2.44,2.44,0,0,1,1.289.844,2.267,2.267,0,0,1,.423,1.39,2.653,2.653,0,0,1-.417,1.429m-2.48-1.13c0-.608-.409-.876-1.254-.825-.476.029-.716.042-1.2.063,0,.725,0,1.088,0,1.814.486-.021.726-.034,1.2-.063.844-.052,1.252-.389,1.251-.989" transform="translate(-0.259 -0.641)" fill="#ea5457"/><path d="M129,232.527c1.115-.223,1.65-.348,2.672-.614-.009.7-.013,1.056-.022,1.76a41.589,41.589,0,0,1-5.238,1.078c.006-3.331.009-4.995.016-8.325,1.078-.154,1.6-.241,2.611-.434-.015,2.615-.023,3.922-.039,6.535" transform="translate(-0.28 -0.638)" fill="#ea5457"/><path d="M137.908,227.4a4.107,4.107,0,0,1-.832,1.322,3.573,3.573,0,0,1-1.393.912c-.382.142-.579.211-.98.348-.027,1.112-.04,1.667-.067,2.778-.8.28-1.222.414-2.1.666.051-3.3.076-4.956.127-8.26,1.353-.36,1.99-.557,3.177-.975a2.6,2.6,0,0,1,1.4-.179,1.092,1.092,0,0,1,.781.621,2.739,2.739,0,0,1,.2,1.3,4.589,4.589,0,0,1-.313,1.468m-1.519-.7c.019-.6-.234-.793-.8-.6-.316.112-.478.166-.806.273-.017.715-.025,1.072-.042,1.787.325-.109.485-.165.8-.276a1.193,1.193,0,0,0,.844-1.189" transform="translate(-0.293 -0.633)" fill="#ea5457"/><path d="M140.18,228.51a13.912,13.912,0,0,0,1.377-.931c-.056.691-.083,1.037-.138,1.728a15.206,15.206,0,0,1-2.783,1.753c.159-3.267.237-4.9.4-8.167.659-.311.968-.471,1.547-.794l-.4,6.411" transform="translate(-0.307 -0.627)" fill="#ea5457"/><path d="M144.226,222.674a10.843,10.843,0,0,1-.352,1.333,3,3,0,0,1-.5.973c-.14.164-.215.246-.376.412l-.284,2.736a8.061,8.061,0,0,1-.88.843c.278-3.246.418-4.869.7-8.116a9.744,9.744,0,0,0,1.449-1.242c.232-.239.39-.327.489-.262s.14.259.136.583a10.812,10.812,0,0,1-.121,1.28q-.1.736-.253,1.46m-.321-.63c.071-.59.014-.769-.211-.534-.126.132-.193.2-.332.331-.073.7-.11,1.055-.183,1.759.135-.134.2-.2.32-.332a2.231,2.231,0,0,0,.405-1.224" transform="translate(-0.314 -0.619)" fill="#ea5457"/><path d="M55.77,107.972a12.171,12.171,0,0,1-8.3-6.626,10.284,10.284,0,0,1-9.035-11.4,10.417,10.417,0,0,1,.187-1.093,10.289,10.289,0,0,1,7.562-7.712A8.38,8.38,0,0,1,58.167,69.584,10.85,10.85,0,0,1,74.15,82.489,10.665,10.665,0,0,1,68.6,103.068c-.041-.009-.082-.021-.123-.031a12.192,12.192,0,0,1-12.708,4.936" transform="translate(-0.085 -0.191)" fill="#fff"/><path d="M58.466,110.29a14.192,14.192,0,0,1-12.31-7.115,12.3,12.3,0,0,1-9.724-13.46,12.488,12.488,0,0,1,.223-1.306,12.306,12.306,0,0,1,6.595-8.333,10.4,10.4,0,0,1,9.594-14.413A10.433,10.433,0,0,1,58.3,67.206,12.829,12.829,0,0,1,63.942,65.9a12.866,12.866,0,0,1,10.9,6.013,12.86,12.86,0,0,1,1.73,9.382,12.682,12.682,0,0,1-7.25,23.949A14.21,14.21,0,0,1,58.466,110.29Zm-5.622-40.6a6.36,6.36,0,0,0-5.059,10.223A2.016,2.016,0,0,1,46.668,83.1a8.273,8.273,0,0,0-6.081,6.2,8.434,8.434,0,0,0-.15.882A8.268,8.268,0,0,0,47.7,99.343a2.016,2.016,0,0,1,1.587,1.134,10.174,10.174,0,0,0,17.533,1.41,2.016,2.016,0,0,1,2.133-.809l.085.022.011,0a8.7,8.7,0,0,0,1.913.214,8.649,8.649,0,0,0,2.583-16.9,2.016,2.016,0,0,1-1.29-2.618,8.977,8.977,0,0,0,.318-1.075,8.84,8.84,0,0,0-13.334-9.43,2.016,2.016,0,0,1-2.353-.148A6.386,6.386,0,0,0,52.844,69.694Z" transform="translate(-0.085 -0.191)" fill="#121212"/><path d="M170.38,90.537l-59.838,59.8-22.6-22.583a3.307,3.307,0,0,1,0-4.679L143.1,67.952a3.311,3.311,0,0,1,4.681,0Z" transform="translate(-0.193 -0.189)" fill="#f9cccd"/><path d="M145.441,64.968a5.293,5.293,0,0,1,3.767,1.56l22.6,22.582a2.016,2.016,0,0,1,0,2.852l-59.838,59.8a2.016,2.016,0,0,1-2.85,0l-22.6-22.583a5.323,5.323,0,0,1,0-7.53l55.159-55.125A5.29,5.29,0,0,1,145.441,64.968Zm22.087,25.569L146.358,69.38a1.295,1.295,0,0,0-1.83,0L89.369,124.5a1.291,1.291,0,0,0,0,1.827l21.172,21.159Z" transform="translate(-0.193 -0.189)" fill="#121212"/><path d="M97.192,113.942l-9.25,9.245-4.709-4.707a3.307,3.307,0,0,1,0-4.679l4.571-4.567a3.311,3.311,0,0,1,4.681,0Z" transform="translate(-0.182 -0.306)" fill="#f9cccd"/><path d="M90.142,106.25a5.291,5.291,0,0,1,3.766,1.56l4.709,4.706a2.016,2.016,0,0,1,0,2.852l-9.25,9.245a2.016,2.016,0,0,1-2.85,0l-4.709-4.707a5.323,5.323,0,0,1,0-7.53l4.572-4.568A5.294,5.294,0,0,1,90.142,106.25Zm4.2,7.692-3.283-3.281a1.295,1.295,0,0,0-1.831,0l-4.57,4.567a1.291,1.291,0,0,0,0,1.826l3.284,3.283Z" transform="translate(-0.182 -0.306)" fill="#121212"/><path d="M112.523,98.611l-9.25,9.245-4.709-4.707a3.307,3.307,0,0,1,0-4.679l4.571-4.567a3.311,3.311,0,0,1,4.681,0Z" transform="translate(-0.216 -0.262)" fill="#f9cccd"/><path d="M105.473,90.919a5.291,5.291,0,0,1,3.766,1.56l4.709,4.706a2.016,2.016,0,0,1,0,2.852l-9.25,9.245a2.016,2.016,0,0,1-2.85,0l-4.709-4.707a5.323,5.323,0,0,1,0-7.53l4.572-4.568A5.294,5.294,0,0,1,105.473,90.919Zm4.2,7.692-3.283-3.281a1.295,1.295,0,0,0-1.831,0L99.987,99.9a1.291,1.291,0,0,0,0,1.826l3.284,3.283Z" transform="translate(-0.216 -0.262)" fill="#121212"/><path d="M127.855,83.279l-9.25,9.245L113.9,87.817a3.307,3.307,0,0,1,0-4.679l4.571-4.567a3.311,3.311,0,0,1,4.681,0Z" transform="translate(-0.25 -0.219)" fill="#f9cccd"/><path d="M120.8,75.587a5.291,5.291,0,0,1,3.766,1.56l4.709,4.706a2.016,2.016,0,0,1,0,2.852l-9.25,9.245a2.016,2.016,0,0,1-2.85,0l-4.709-4.707a5.323,5.323,0,0,1,0-7.53l4.572-4.568A5.294,5.294,0,0,1,120.8,75.587Zm4.2,7.692L121.72,80a1.295,1.295,0,0,0-1.831,0l-4.57,4.567a1.291,1.291,0,0,0,0,1.826l3.284,3.283Z" transform="translate(-0.25 -0.219)" fill="#121212"/><path d="M143.186,67.948l-9.25,9.244-4.709-4.707a3.307,3.307,0,0,1,0-4.679L133.8,63.24a3.31,3.31,0,0,1,4.681,0Z" transform="translate(-0.284 -0.176)" fill="#f9cccd"/><path d="M136.136,60.255a5.29,5.29,0,0,1,3.766,1.56l4.709,4.707a2.016,2.016,0,0,1,0,2.852l-9.25,9.244a2.016,2.016,0,0,1-2.85,0L127.8,73.911a5.323,5.323,0,0,1,0-7.53l4.572-4.567A5.292,5.292,0,0,1,136.136,60.255Zm4.2,7.693-3.283-3.282a1.294,1.294,0,0,0-1.83,0l-4.571,4.566a1.291,1.291,0,0,0,0,1.826l3.284,3.283Z" transform="translate(-0.284 -0.176)" fill="#121212"/><path d="M117.418,124.4l-6.573-6.569,2.864-2.862a3.2,3.2,0,0,1,1.123-.746,2.187,2.187,0,0,1,1.225-.108,2.274,2.274,0,0,1,1.163.665,2.4,2.4,0,0,1,.709,1.226,1.707,1.707,0,0,1-.145,1.16,1.677,1.677,0,0,1,.864-.329,2.212,2.212,0,0,1,1,.15,2.768,2.768,0,0,1,.968.648,2.257,2.257,0,0,1,.8,1.914,3.355,3.355,0,0,1-1.052,1.906Zm-2.686-5.123,1.4-1.4a.98.98,0,0,0-.047-1.568.992.992,0,0,0-.75-.347,1.131,1.131,0,0,0-.742.375l-1.4,1.4Zm2.78,2.778,1.56-1.558a1.4,1.4,0,0,0,.469-.865,1.125,1.125,0,0,0-.4-.854,1.027,1.027,0,0,0-.878-.351,1.412,1.412,0,0,0-.831.427l-1.559,1.558Z" transform="translate(-0.245 -0.322)" fill="#121212"/><path d="M124.986,117.054a2.19,2.19,0,0,1-1.6.7,2.569,2.569,0,0,1-1.78-.886l-2.845-2.843,1.182-1.183,2.563,2.562a1.691,1.691,0,0,0,.939.544.882.882,0,0,0,.77-.263,1.058,1.058,0,0,0,.329-.844,1.7,1.7,0,0,0-.583-1.043l-2.488-2.486,1.183-1.183,4.526,4.523-1.052,1.051-.573-.441a2.554,2.554,0,0,1-.051.9,1.849,1.849,0,0,1-.522.9" transform="translate(-0.263 -0.311)" fill="#121212"/><path d="M130.253,111.787a3.643,3.643,0,0,1-.863.666,1.182,1.182,0,0,1-.85.109,2.137,2.137,0,0,1-.935-.606l-2.376-2.374-.845.845-1.014-1.013.845-.846L122.647,107l1.174-1.174,1.568,1.569,1.221-1.221,1.014,1.013-1.22,1.22,2.065,2.066a.646.646,0,0,0,.54.248,1.01,1.01,0,0,0,.521-.314,1.636,1.636,0,0,0,.31-.432,2.589,2.589,0,0,0,.17-.4l1.071,1.07a2.868,2.868,0,0,1-.329.563,4.993,4.993,0,0,1-.5.581" transform="translate(-0.272 -0.299)" fill="#121212"/><path d="M133.9,108.145a3.677,3.677,0,0,1-.863.667,1.182,1.182,0,0,1-.85.108,2.114,2.114,0,0,1-.935-.606l-2.376-2.373-.845.844-1.014-1.013.845-.845-1.569-1.568,1.174-1.174,1.568,1.569,1.22-1.221,1.015,1.013-1.22,1.22,2.065,2.066a.646.646,0,0,0,.54.248,1.007,1.007,0,0,0,.521-.314,1.619,1.619,0,0,0,.31-.432,2.478,2.478,0,0,0,.169-.4l1.072,1.07a2.839,2.839,0,0,1-.329.563,4.912,4.912,0,0,1-.5.581" transform="translate(-0.28 -0.289)" fill="#121212"/><path d="M137.645,104.4a3.125,3.125,0,0,1-1.423.84,2.892,2.892,0,0,1-1.614-.038,4.062,4.062,0,0,1-2.5-2.5,2.948,2.948,0,0,1-.038-1.615,3.279,3.279,0,0,1,2.267-2.266,2.975,2.975,0,0,1,1.611.042,4.067,4.067,0,0,1,2.5,2.5,2.9,2.9,0,0,1,.043,1.609,3.121,3.121,0,0,1-.845,1.426m-1.071-1.07a1.312,1.312,0,0,0,.4-1.07,2.031,2.031,0,0,0-.676-1.247,2.052,2.052,0,0,0-1.258-.685,1.311,1.311,0,0,0-1.071.4,1.272,1.272,0,0,0-.394,1.06,2.1,2.1,0,0,0,.7,1.249,2.074,2.074,0,0,0,1.238.684,1.273,1.273,0,0,0,1.062-.394" transform="translate(-0.292 -0.279)" fill="#121212"/><path d="M140.622,101.213,136.1,96.69l1.052-1.051.572.442a2.62,2.62,0,0,1,.052-.915,1.807,1.807,0,0,1,.512-.887,2.192,2.192,0,0,1,1.6-.7,2.579,2.579,0,0,1,1.779.886l2.854,2.853L143.334,98.5l-2.563-2.562a1.747,1.747,0,0,0-.944-.559.879.879,0,0,0-.774.268,1.067,1.067,0,0,0-.328.845,1.688,1.688,0,0,0,.583,1.041l2.5,2.5Z" transform="translate(-0.301 -0.264)" fill="#121212"/><path d="M66.06,188.385H22.687V156.448A3.308,3.308,0,0,1,26,153.139H62.751a3.308,3.308,0,0,1,3.309,3.309Z" transform="translate(-0.05 -0.432)" fill="#ea5457"/><path d="M66.06,190.4H22.687a2.016,2.016,0,0,1-2.016-2.016V156.448A5.324,5.324,0,0,1,26,151.123H62.751a5.324,5.324,0,0,1,5.325,5.326v31.936A2.016,2.016,0,0,1,66.06,190.4ZM24.7,186.369H64.044V156.448a1.292,1.292,0,0,0-1.293-1.293H26a1.292,1.292,0,0,0-1.293,1.292Z" transform="translate(-0.05 -0.432)" fill="#121212"/><path d="M39.649,153.111H26.567v-6.656a3.309,3.309,0,0,1,3.31-3.309H36.34a3.308,3.308,0,0,1,3.309,3.309Z" transform="translate(-0.059 -0.404)" fill="#ea5457"/><path d="M39.649,155.127H26.567a2.016,2.016,0,0,1-2.016-2.016v-6.656a5.331,5.331,0,0,1,5.326-5.325H36.34a5.324,5.324,0,0,1,5.325,5.326v6.655A2.016,2.016,0,0,1,39.649,155.127Zm-11.066-4.032h9.05v-4.64a1.292,1.292,0,0,0-1.293-1.293H29.877a1.3,1.3,0,0,0-1.294,1.293Z" transform="translate(-0.059 -0.404)" fill="#121212"/><path d="M61.331,153.111H48.249v-6.656a3.309,3.309,0,0,1,3.31-3.309h6.464a3.309,3.309,0,0,1,3.309,3.309Z" transform="translate(-0.107 -0.404)" fill="#ea5457"/><path d="M61.331,155.127H48.249a2.016,2.016,0,0,1-2.016-2.016v-6.656a5.331,5.331,0,0,1,5.326-5.325h6.464a5.325,5.325,0,0,1,5.325,5.326v6.655A2.016,2.016,0,0,1,61.331,155.127Zm-11.066-4.032h9.05v-4.64a1.293,1.293,0,0,0-1.293-1.293H51.559a1.3,1.3,0,0,0-1.294,1.293Z" transform="translate(-0.107 -0.404)" fill="#121212"/><path d="M35.567,175a4.321,4.321,0,0,1-2.258-.6,4.123,4.123,0,0,1-1.56-1.693,6.211,6.211,0,0,1,0-5.175,4.174,4.174,0,0,1,1.56-1.7,4.5,4.5,0,0,1,4.509,0,4.181,4.181,0,0,1,1.554,1.7,5.6,5.6,0,0,1,.566,2.6,5.716,5.716,0,0,1-.492,2.427l1.367,1.036L39.724,175,38.4,173.99a3.921,3.921,0,0,1-1.275.75,4.567,4.567,0,0,1-1.554.259m0-1.672a2.352,2.352,0,0,0,1.408-.439l-1.181-.915,1.062-1.353,1.1.837a4.633,4.633,0,0,0,.187-1.327,4.2,4.2,0,0,0-.312-1.687,2.6,2.6,0,0,0-.891-1.121,2.51,2.51,0,0,0-2.734,0,2.654,2.654,0,0,0-.9,1.121,4.126,4.126,0,0,0-.318,1.687,4.081,4.081,0,0,0,.318,1.671,2.645,2.645,0,0,0,.9,1.122,2.3,2.3,0,0,0,1.36.4" transform="translate(-0.069 -0.467)" fill="#121212"/><path d="M43.77,175a3.078,3.078,0,0,1-2.171-.7,2.555,2.555,0,0,1-.75-1.97,2.217,2.217,0,0,1,.272-1.116,3.072,3.072,0,0,1,.71-.843,6.792,6.792,0,0,1,.943-.657,6.562,6.562,0,0,1-.73-1.041,2.4,2.4,0,0,1-.265-1.175,2.051,2.051,0,0,1,.371-1.248,2.341,2.341,0,0,1,.963-.763,3.145,3.145,0,0,1,1.268-.258,2.962,2.962,0,0,1,1.382.3,2.21,2.21,0,0,1,.882.81,2.131,2.131,0,0,1,.312,1.135,2.082,2.082,0,0,1-.272,1.075,2.912,2.912,0,0,1-.7.81,9.574,9.574,0,0,1-.923.65l1.368,1.593q.319-.4.644-.864t.684-1.061l1.181,1.061q-.371.558-.73,1.089t-.743,1l1.66,1.95H47.01l-.665-.8a4.99,4.99,0,0,1-1.2.743A3.4,3.4,0,0,1,43.77,175m.12-1.554a1.7,1.7,0,0,0,.717-.173,3.48,3.48,0,0,0,.743-.478L43.7,170.832a3.61,3.61,0,0,0-.75.663,1.268,1.268,0,0,0-.3.837,1.029,1.029,0,0,0,.318.882,1.537,1.537,0,0,0,.917.232m.226-4.512a4.167,4.167,0,0,0,.8-.65,1.123,1.123,0,0,0,.325-.8.75.75,0,0,0-.265-.63.916.916,0,0,0-.571-.205,1.17,1.17,0,0,0-.69.226.759.759,0,0,0-.319.663,1.285,1.285,0,0,0,.213.73,7.411,7.411,0,0,0,.5.663" transform="translate(-0.09 -0.467)" fill="#121212"/><path d="M49.46,174.774l3.492-9.29h1.527l3.493,9.29H56.019L55.4,172.93H51.982l-.624,1.844Zm3.08-3.437h2.311l-1.142-3.37Z" transform="translate(-0.11 -0.467)" fill="#121212"/><path d="M163.22,135.753v-.11a8.55,8.55,0,0,0-8.73-8.365,8.649,8.649,0,0,0-8.552,6.693,9.406,9.406,0,0,0-1.35-.1,8.534,8.534,0,1,0-.7,17.055q.349.015.7,0a9.181,9.181,0,0,0,3.448-.665,7.191,7.191,0,0,0,12.526.722,8.548,8.548,0,0,0,1.316.1,7.705,7.705,0,0,0,1.34-15.343" transform="translate(-0.3 -0.359)" fill="#fff"/><path d="M154.673,125.26A10.571,10.571,0,0,1,165.1,134.09a9.721,9.721,0,0,1-2.813,19.026c-.152,0-.306,0-.458-.011q-.162,0-.325-.007a9.208,9.208,0,0,1-14.355-.445,11.174,11.174,0,0,1-2.516.291c-.274.011-.551.01-.825,0a10.55,10.55,0,0,1,.429-21.092c.091,0,.183,0,.274,0a10.661,10.661,0,0,1,9.856-6.593h.12Zm6.531,10.406a6.534,6.534,0,0,0-6.531-6.374l-.182,0h-.127a6.632,6.632,0,0,0-6.462,5.133,2.016,2.016,0,0,1-2.253,1.54,7.417,7.417,0,0,0-1.061-.077l-.082,0c-.091,0-.182-.006-.273-.006a6.518,6.518,0,0,0-.26,13.032c.182.008.355.008.529,0l.09,0h.012a7.131,7.131,0,0,0,2.679-.519,2.016,2.016,0,0,1,2.567.987,5.175,5.175,0,0,0,9.014.52,2.016,2.016,0,0,1,2.014-.907,6.553,6.553,0,0,0,1.006.08l.1,0c.1.005.2.008.3.008a5.689,5.689,0,0,0,.824-11.318,2.016,2.016,0,0,1-1.875-1.677v-.006a2.016,2.016,0,0,1-.027-.4Z" transform="translate(-0.3 -0.359)" fill="#121212"/></g></g></g></svg>