<svg xmlns="http://www.w3.org/2000/svg" width="986" height="578" viewBox="0 0 986 578"><path d="M64.228,578A102.318,102.318,0,0,1,3.315,557.83L2.209,557A5.463,5.463,0,0,1,0,552.632V533.479a9.279,9.279,0,0,1,9.365-9.168H86.009a34.828,34.828,0,0,1-4.8-17.662V35.621C81.212,15.98,97.536,0,117.6,0H868.4c20.065,0,36.389,15.98,36.389,35.621V506.649a34.828,34.828,0,0,1-4.8,17.662h76.645A9.28,9.28,0,0,1,986,533.479v19.152a5.393,5.393,0,0,1-.437,2.126,5.506,5.506,0,0,1-1.775,2.249l-1.168.872A102.32,102.32,0,0,1,921.772,578ZM11.238,549.9A90.9,90.9,0,0,0,64.228,567H921.772a90.907,90.907,0,0,0,52.989-17.1V535.312H585.122v5.922a12.991,12.991,0,0,1-13.112,12.835H413.988a12.99,12.99,0,0,1-13.111-12.835v-5.922H11.238Zm400.877-8.664a1.855,1.855,0,0,0,1.873,1.833H572.009a1.856,1.856,0,0,0,1.874-1.833v-5.922H412.115ZM92.45,35.621V506.649A24.279,24.279,0,0,0,100.1,524.31H885.9a24.279,24.279,0,0,0,7.651-17.662V35.621c0-13.6-11.261-24.62-25.151-24.62H117.6C103.711,11,92.45,22.024,92.45,35.621Zm32.213,475.854a11.121,11.121,0,0,1-11.238-11V41.8a11.122,11.122,0,0,1,11.238-11H861.336a11.122,11.122,0,0,1,11.238,11v458.68a11.121,11.121,0,0,1-11.238,11Z" fill="#121212"/></svg>