<svg xmlns="http://www.w3.org/2000/svg" xmlns:xlink="http://www.w3.org/1999/xlink" width="280" height="190" viewBox="0 0 280 190"><defs><clipPath id="a"><rect width="280" height="190" fill="none"/></clipPath><clipPath id="c"><rect width="95.541" height="136.762" transform="translate(150.705 28.284)" fill="none"/></clipPath><clipPath id="e"><rect width="95.541" height="136.762" transform="translate(33.754 28.284)" fill="none"/></clipPath></defs><g clip-path="url(#a)"><g clip-path="url(#a)"><g opacity="0.2"><g clip-path="url(#c)"><path d="M188.965,94.181l-14.82,5.409a25.649,25.649,0,0,0-16.057,17.741l-5.215,29.857a8.549,8.549,0,0,0,5.58,10.229l17.184,5.729h45.677l17.184-5.729a8.55,8.55,0,0,0,5.58-10.229l-5.215-29.857A25.649,25.649,0,0,0,222.806,99.59l-14.82-5.409Z" fill="#fff"/><path d="M188.965,92.281h19.021a1.9,1.9,0,0,1,.651.115l14.82,5.409A27.536,27.536,0,0,1,240.7,116.86q.018.071.031.144l5.2,29.788A10.45,10.45,0,0,1,239.1,159.22l-17.184,5.729a1.9,1.9,0,0,1-.6.1H175.637a1.9,1.9,0,0,1-.6-.1l-17.184-5.729a10.449,10.449,0,0,1-6.839-12.427l5.2-29.788q.013-.072.031-.144a27.536,27.536,0,0,1,17.246-19.055l14.82-5.409A1.9,1.9,0,0,1,188.965,92.281Zm18.685,3.8H189.3l-14.5,5.294a23.737,23.737,0,0,0-14.85,16.357l-5.2,29.783q-.013.072-.031.144a6.649,6.649,0,0,0,4.34,7.956l16.892,5.632h45.06l16.891-5.631a6.65,6.65,0,0,0,4.34-7.956q-.018-.071-.031-.144L237,117.732a23.737,23.737,0,0,0-14.85-16.357Z" fill="#fff"/><path d="M207.986,95.036V87.505H188.965v7.531L199.1,121l.051,1.758Z" fill="#fff"/><path d="M188.965,85.605h19.021a1.9,1.9,0,0,1,1.9,1.9v7.531a1.9,1.9,0,0,1-.09.577l-8.836,27.725a1.9,1.9,0,0,1-3.709-.522l-.041-1.429L187.2,95.727a1.9,1.9,0,0,1-.13-.691V87.505A1.9,1.9,0,0,1,188.965,85.605Zm17.121,3.8H190.865v5.273l8.39,21.5,6.831-21.435Z" fill="#fff"/><path d="M198.476,90.654c9.246,0,14.969-8.235,17.29-15.5,2.253-5.079-3.306-8.508-3.306-8.508.25-4.518-.367-11.576-2.735-15.433s-6.816-5.951-11.249-3.086c-4.433-2.865-8.881-.77-11.249,3.086s-2.985,10.915-2.735,15.433c0,0-6.336,4.948-3.306,8.508C183.507,82.419,189.23,90.654,198.476,90.654Z" fill="#fff"/><path d="M198.476,91.129c-9.318,0-15.252-8.117-17.714-15.746a3.732,3.732,0,0,1-.85-2.826c.284-2.79,3.284-5.459,4.093-6.132a41.806,41.806,0,0,1,.4-7.818,20.96,20.96,0,0,1,2.414-7.647,8.972,8.972,0,0,1,7.433-4.644,8.087,8.087,0,0,1,4.221,1.246,8.087,8.087,0,0,1,4.221-1.246,8.972,8.972,0,0,1,7.433,4.644,20.96,20.96,0,0,1,2.414,7.647,41.828,41.828,0,0,1,.4,7.789,10.736,10.736,0,0,1,2.391,2.312,6.326,6.326,0,0,1,.872,6.611C213.762,82.967,207.82,91.129,198.476,91.129Zm-4.221-43.863a8.037,8.037,0,0,0-6.623,4.191c-1.548,2.522-3.043,8.341-2.665,15.158l.014.248-.2.153c-.036.028-3.648,2.883-3.927,5.638a2.789,2.789,0,0,0,.691,2.187l.062.073.029.091c2.342,7.335,8,15.173,16.838,15.173s14.5-7.838,16.838-15.173l.008-.025.01-.024a5.353,5.353,0,0,0-.739-5.661,9.746,9.746,0,0,0-2.383-2.251l-.24-.149.015-.282c.377-6.817-1.117-12.636-2.666-15.158a8.037,8.037,0,0,0-6.623-4.191,7.257,7.257,0,0,0-3.963,1.256l-.258.167-.258-.167A7.257,7.257,0,0,0,194.255,47.266Z" fill="#fff"/><path d="M215.315,32.222c-5.567-5.236-18.918-3.567-21.669-1.283l14.362,13.509s12.874-6.99,7.307-12.226" fill="#fff"/><path d="M203.757,28.284h0c3.011,0,8.559.467,11.882,3.592a4.3,4.3,0,0,1,1.51,3.8c-.6,4.619-8.577,9-8.916,9.185l-.3.164-15-14.113.413-.343C194.941,29.247,199.321,28.284,203.757,28.284Zm4.322,15.579a33.045,33.045,0,0,0,3.767-2.548c1.839-1.452,4.088-3.629,4.363-5.756a3.358,3.358,0,0,0-1.219-2.99c-3.084-2.9-8.36-3.334-11.231-3.334-3.3,0-7.486.652-9.361,1.76Z" fill="#fff"/><path d="M194.188,69.373a1.5,1.5,0,1,1-1.5-1.5,1.5,1.5,0,0,1,1.5,1.5" fill="#fff"/><path d="M192.685,67.4a1.978,1.978,0,1,1-1.979,1.978A1.98,1.98,0,0,1,192.685,67.4Zm0,3.006a1.028,1.028,0,1,0-1.029-1.028A1.029,1.029,0,0,0,192.685,70.4Z" fill="#fff"/><path d="M205.932,63.615a3.873,3.873,0,0,0-3.155,1.471" fill="#fff"/><path d="M202.775,66.986A1.9,1.9,0,0,1,201.221,64a5.022,5.022,0,0,1,2.149-1.739l0,0,0,0a5.091,5.091,0,0,1,2.718-.531,1.9,1.9,0,0,1-.331,3.786,1.348,1.348,0,0,0-.783.19h0a1.347,1.347,0,0,0-.647.477A1.9,1.9,0,0,1,202.775,66.986Z" fill="#fff"/><path d="M191,63.615a3.873,3.873,0,0,1,3.155,1.471" fill="#fff"/><path d="M194.16,66.986a1.9,1.9,0,0,1-1.558-.81,1.347,1.347,0,0,0-.647-.477l-.005,0a1.343,1.343,0,0,0-.781-.189,1.9,1.9,0,1,1-.331-3.786,5.091,5.091,0,0,1,2.718.531l0,0,0,0A5.021,5.021,0,0,1,195.714,64a1.9,1.9,0,0,1-1.555,2.99Z" fill="#fff"/><path d="M205.77,69.373a1.5,1.5,0,1,1-1.5-1.5,1.5,1.5,0,0,1,1.5,1.5" fill="#fff"/><path d="M204.267,67.4a1.978,1.978,0,1,1-1.979,1.978A1.98,1.98,0,0,1,204.267,67.4Zm0,3.006a1.028,1.028,0,1,0-1.029-1.028A1.029,1.029,0,0,0,204.267,70.4Z" fill="#fff"/><path d="M201.546,80.6c0,1.27-1.374,2.3-3.07,2.3s-3.07-1.03-3.07-2.3,1.375-2.3,3.07-2.3,3.07,1.03,3.07,2.3" fill="#fff"/><path d="M3.07-.95a4.584,4.584,0,0,1,2.74.863A3.008,3.008,0,0,1,7.09,2.3,3.008,3.008,0,0,1,5.81,4.687a4.584,4.584,0,0,1-2.74.863A4.584,4.584,0,0,1,.33,4.687,3.008,3.008,0,0,1-.95,2.3,3.008,3.008,0,0,1,.33-.087,4.584,4.584,0,0,1,3.07-.95Zm0,4.6c1.129,0,2.12-.631,2.12-1.35S4.2.95,3.07.95.95,1.581.95,2.3,1.941,3.65,3.07,3.65Z" transform="translate(195.406 78.302)" fill="#fff"/><line x2="1.741" transform="translate(197.605 74.103)" fill="#fff"/><path d="M1.741.95H0A.95.95,0,0,1-.95,0,.95.95,0,0,1,0-.95H1.741a.95.95,0,0,1,.95.95A.95.95,0,0,1,1.741.95Z" transform="translate(197.605 74.103)" fill="#fff"/><path d="M198.476,91.907c9.246,0,14.969-8.235,17.29-15.5,2.652-7.464,3.03-10.672,3.03-10.672l-6.336,2.164c.25-4.518-.367-11.576-2.735-15.433s-6.816-5.951-11.249-3.086c-4.433-2.865-8.881-.77-11.249,3.086s-2.985,10.915-2.735,15.433l-6.336-2.164a88.611,88.611,0,0,0,3.03,10.672c2.321,7.269,8.043,15.5,17.289,15.5Z" fill="#fff"/><path d="M198.476,93.807h0c-10.115,0-16.495-8.683-19.095-16.813a89.754,89.754,0,0,1-3.093-10.918,1.9,1.9,0,0,1,2.482-2.143l3.777,1.29A43.7,43.7,0,0,1,183,59.651a22.027,22.027,0,0,1,2.609-8.183,10.378,10.378,0,0,1,8.647-5.323,9.264,9.264,0,0,1,4.221,1.042,9.264,9.264,0,0,1,4.221-1.042,10.378,10.378,0,0,1,8.647,5.323,22.027,22.027,0,0,1,2.609,8.183,43.691,43.691,0,0,1,.452,5.572l3.777-1.29a1.9,1.9,0,0,1,2.5,2.02c-.016.139-.433,3.5-3.116,11.057C214.963,85.136,208.585,93.807,198.476,93.807ZM180.81,68.645c.462,1.725,1.161,4.121,2.178,7.154l.009.026a25.174,25.174,0,0,0,5.6,9.733,13.454,13.454,0,0,0,9.877,4.449h0a13.456,13.456,0,0,0,9.878-4.449,25.172,25.172,0,0,0,5.6-9.733q.009-.029.02-.058c1.111-3.126,1.812-5.486,2.249-7.15l-3.15,1.076a1.9,1.9,0,0,1-2.511-1.9,39.14,39.14,0,0,0-.368-7.579,18.678,18.678,0,0,0-2.089-6.755,6.638,6.638,0,0,0-5.409-3.512,5.86,5.86,0,0,0-3.19,1.027,1.9,1.9,0,0,1-2.063,0,5.861,5.861,0,0,0-3.19-1.027,6.638,6.638,0,0,0-5.409,3.512,18.679,18.679,0,0,0-2.089,6.754,39.14,39.14,0,0,0-.368,7.579,1.9,1.9,0,0,1-2.511,1.9Z" fill="#fff"/><path d="M221.648,50.971C218.183,42.7,207.1,31.417,198.475,31.417S178.766,42.7,175.3,50.971l3.314,5.09a44.052,44.052,0,0,0-1.226,11.144c0,14.955,13.242,24.7,21.084,24.7h0c7.819,0,20.358-9.53,20.358-24.7a48.911,48.911,0,0,0-.942-11.144Zm-23.617,21.1-13.16,3c.239-8.038.949-18.862,2.379-21.383,2.1-3.707,7.268-5.723,11.206-2.968,3.938-2.755,9.1-.739,11.206,2.968,1.437,2.534,2.147,13.448,2.383,21.5Z" fill="#fff"/><path d="M198.475,29.517a16.884,16.884,0,0,1,7.641,2.1,34.335,34.335,0,0,1,7.151,5.06A41,41,0,0,1,223.4,50.237a1.9,1.9,0,0,1-.224,1.862l-3.265,4.424a49.133,49.133,0,0,1,.822,10.142q0,.268,0,.54a27.724,27.724,0,0,1-7.777,19.358c-4.295,4.469-9.843,7.245-14.481,7.245a17.342,17.342,0,0,1-7.44-1.95,27.963,27.963,0,0,1-7.391-5.352,28.372,28.372,0,0,1-5.795-8.349,26.41,26.41,0,0,1-2.36-10.952,45.1,45.1,0,0,1,1.1-10.773l-2.88-4.424a1.9,1.9,0,0,1-.16-1.771,41,41,0,0,1,10.133-13.558,34.334,34.334,0,0,1,7.151-5.06A16.886,16.886,0,0,1,198.475,29.517Zm20.984,21.22A39.022,39.022,0,0,0,210.725,39.5,31,31,0,0,0,204.377,35a11.2,11.2,0,0,0-11.805,0,31,31,0,0,0-6.348,4.505,38.933,38.933,0,0,0-8.766,11.3l2.749,4.222a1.9,1.9,0,0,1,.262,1.452,42.269,42.269,0,0,0-1.18,10.729,22.635,22.635,0,0,0,2.023,9.386,24.585,24.585,0,0,0,5.024,7.232,24.121,24.121,0,0,0,6.369,4.621,13.779,13.779,0,0,0,5.767,1.563c3.586,0,8.195-2.386,11.743-6.078a23.924,23.924,0,0,0,6.717-16.725q0-.274,0-.544a45.6,45.6,0,0,0-.907-10.237,1.9,1.9,0,0,1,.336-1.491Zm-25.049-3.2a8.892,8.892,0,0,1,4.046.969,8.894,8.894,0,0,1,4.045-.969,9.973,9.973,0,0,1,5.11,1.452,10.381,10.381,0,0,1,3.7,3.759c.506.893,1.251,2.841,1.881,9.438.464,4.863.668,10.2.749,12.942a1.9,1.9,0,0,1-2.311,1.911l-13.6-3.017-12.744,2.9a1.9,1.9,0,0,1-2.321-1.909c.081-2.738.287-8.052.751-12.885.628-6.552,1.371-8.49,1.875-9.379a10.381,10.381,0,0,1,3.7-3.759A9.975,9.975,0,0,1,194.41,47.532Zm4.046,5.08a1.9,1.9,0,0,1-1.089-.343,5.066,5.066,0,0,0-2.956-.937,6.56,6.56,0,0,0-5.508,3.286c-.181.32-.819,1.833-1.4,7.866-.276,2.879-.5,6.426-.65,10.179l10.754-2.447a1.9,1.9,0,0,1,.833,0l11.619,2.579c-.111-2.836-.309-6.68-.65-10.251-.58-6.079-1.221-7.6-1.4-7.924a6.559,6.559,0,0,0-5.508-3.285,5.067,5.067,0,0,0-2.956.937A1.9,1.9,0,0,1,198.456,52.612Z" fill="#fff"/><path d="M216.411,48.781H205.167c-.459,0-.83.719-.83,1.606v4.122c0,.888.371,1.607.83,1.607h12.316c.459,0,.83-.719.83-1.607v-.275s-1.444-5.453-1.9-5.453" fill="#fff"/><path d="M205.167,46.881h11.244a2.107,2.107,0,0,1,1.872,1.208,6.99,6.99,0,0,1,.388.853c.194.5.422,1.172.679,2.009.424,1.383.784,2.74.8,2.8a1.9,1.9,0,0,1,.063.486v.275a4.394,4.394,0,0,1-.455,2.008,2.583,2.583,0,0,1-2.275,1.5H205.167a2.583,2.583,0,0,1-2.275-1.5,4.394,4.394,0,0,1-.455-2.008V50.387a4.391,4.391,0,0,1,.455-2.008A2.584,2.584,0,0,1,205.167,46.881Zm10.1,3.8h-9.03v3.535h10.1C215.99,52.932,215.57,51.539,215.267,50.681Z" fill="#fff"/><path d="M180.538,48.781h11.244c.459,0,.83.719.83,1.606v4.122c0,.888-.371,1.607-.83,1.607H179.466c-.459,0-.83-.719-.83-1.607v-.275s1.444-5.453,1.9-5.453" fill="#fff"/><path d="M180.538,46.881h11.244a2.584,2.584,0,0,1,2.275,1.5,4.391,4.391,0,0,1,.455,2.008v4.122a4.394,4.394,0,0,1-.455,2.008,2.583,2.583,0,0,1-2.275,1.5H179.466a2.583,2.583,0,0,1-2.275-1.5,4.394,4.394,0,0,1-.455-2.008v-.275a1.9,1.9,0,0,1,.063-.486c.015-.057.375-1.415.8-2.8.257-.837.485-1.512.679-2.009a6.991,6.991,0,0,1,.388-.853A2.107,2.107,0,0,1,180.538,46.881Zm10.174,3.8h-9.03c-.3.858-.723,2.251-1.074,3.535h10.1Z" fill="#fff"/><path d="M207.957,47.866H188.991a2.063,2.063,0,0,0-2.1,2.007v5.15a2,2,0,0,0,2.067,2.007h19.042a1.912,1.912,0,0,0,2.067-2.007v-5.15a2.063,2.063,0,0,0-2.1-2.007" fill="#fff"/><path d="M188.991,45.966h18.966a3.961,3.961,0,0,1,4.005,3.907v5.15a3.808,3.808,0,0,1-3.967,3.907H188.953a3.9,3.9,0,0,1-3.967-3.907v-5.15A3.961,3.961,0,0,1,188.991,45.966Zm19.164,9.15a.531.531,0,0,0,.007-.093v-5.15a.21.21,0,0,0-.205-.107H188.991a.21.21,0,0,0-.205.107v5.15c0,.045,0,.107.167.107h19.042A.768.768,0,0,0,208.155,55.116Z" fill="#fff"/><path d="M200.837,124.076h.237a7.459,7.459,0,0,0,7.459-7.459v-4.672a7.46,7.46,0,0,0-7.459-7.459h-.237a7.459,7.459,0,0,0-7.459,7.459v4.672a7.458,7.458,0,0,0,7.459,7.459" fill="#fff"/><path d="M7.459-1.457H7.7a8.926,8.926,0,0,1,8.916,8.915v4.672A8.926,8.926,0,0,1,7.7,21.046H7.459a8.926,8.926,0,0,1-8.916-8.915V7.459A8.926,8.926,0,0,1,7.459-1.457ZM7.7,18.133a6.009,6.009,0,0,0,6-6V7.459a6.009,6.009,0,0,0-6-6H7.459a6.009,6.009,0,0,0-6,6v4.672a6.009,6.009,0,0,0,6,6Z" transform="translate(193.378 104.486)" fill="#fff"/><line x1="4.098" transform="translate(193.747 115.948)" fill="#fff"/><path d="M4.1.95H0A.95.95,0,0,1-.95,0,.95.95,0,0,1,0-.95H4.1a.95.95,0,0,1,.95.95A.95.95,0,0,1,4.1.95Z" transform="translate(193.747 115.948)" fill="#fff"/><line x1="4.098" transform="translate(193.747 119.283)" fill="#fff"/><path d="M4.1.95H0A.95.95,0,0,1-.95,0,.95.95,0,0,1,0-.95H4.1a.95.95,0,0,1,.95.95A.95.95,0,0,1,4.1.95Z" transform="translate(193.747 119.283)" fill="#fff"/><path d="M203.634,104.575l-.079-4.325a6.367,6.367,0,0,0-3.284-5.155,2.43,2.43,0,0,0,.027-.272V88.568a2.379,2.379,0,0,0-4.757,0v5.825l-1.168.078a6.379,6.379,0,0,0-5.939,6.788l.079,4.325a6.377,6.377,0,0,0,6.788,5.938l2.394-.159a6.378,6.378,0,0,0,5.939-6.788" fill="#fff"/><path d="M194.87,112.993h0a7.835,7.835,0,0,1-7.809-7.312q0-.035,0-.071l-.078-4.292a7.845,7.845,0,0,1,7.106-8.286V88.568a3.835,3.835,0,0,1,7.67,0v5.744a7.8,7.8,0,0,1,3.254,5.841q0,.035,0,.07l.078,4.292a7.845,7.845,0,0,1-7.3,8.3l-2.395.159C195.223,112.987,195.045,112.993,194.87,112.993Zm-4.9-7.473a4.931,4.931,0,0,0,4.9,4.56h0c.11,0,.223,0,.334-.011l2.395-.159a4.928,4.928,0,0,0,4.582-5.238q0-.035,0-.07l-.078-4.287a4.9,4.9,0,0,0-2.533-3.945,1.457,1.457,0,0,1-.743-1.436c0-.037.009-.074.014-.11l0-.031V88.568a.922.922,0,0,0-1.844,0v5.825a1.456,1.456,0,0,1-1.359,1.453l-1.168.078a4.928,4.928,0,0,0-4.583,5.238q0,.035,0,.07Z" fill="#fff"/><line y1="0.273" x2="4.089" transform="translate(199.06 102.853)" fill="#fff"/><path d="M0,1.223A.95.95,0,0,1-.948.336.95.95,0,0,1-.063-.675L4.026-.948a.95.95,0,0,1,1.011.885A.95.95,0,0,1,4.152.948L.063,1.221Z" transform="translate(199.06 102.853)" fill="#fff"/><line y1="0.273" x2="4.089" transform="translate(199.282 106.18)" fill="#fff"/><path d="M0,1.223A.95.95,0,0,1-.948.336.95.95,0,0,1-.063-.675L4.026-.948a.95.95,0,0,1,1.011.885A.95.95,0,0,1,4.152.948L.063,1.221Z" transform="translate(199.282 106.18)" fill="#fff"/><path d="M188.965,94.181l-14.82,5.409a25.649,25.649,0,0,0-16.057,17.741l-5.215,29.857a8.549,8.549,0,0,0,5.58,10.229l17.184,5.729h45.677l17.184-5.729a8.55,8.55,0,0,0,5.58-10.229l-5.215-29.857A25.649,25.649,0,0,0,222.806,99.59l-14.82-5.409Z" fill="#121212"/><path d="M188.965,92.281h19.021a1.9,1.9,0,0,1,.651.115l14.82,5.409A27.536,27.536,0,0,1,240.7,116.86q.018.071.031.144l5.2,29.788A10.45,10.45,0,0,1,239.1,159.22l-17.184,5.729a1.9,1.9,0,0,1-.6.1H175.637a1.9,1.9,0,0,1-.6-.1l-17.184-5.729a10.449,10.449,0,0,1-6.839-12.427l5.2-29.788q.013-.072.031-.144a27.536,27.536,0,0,1,17.246-19.055l14.82-5.409A1.9,1.9,0,0,1,188.965,92.281Zm18.685,3.8H189.3l-14.5,5.294a23.737,23.737,0,0,0-14.85,16.357l-5.2,29.783q-.013.072-.031.144a6.649,6.649,0,0,0,4.34,7.956l16.892,5.632h45.06l16.891-5.631a6.65,6.65,0,0,0,4.34-7.956q-.018-.071-.031-.144L237,117.732a23.737,23.737,0,0,0-14.85-16.357Z" fill="#121212"/><path d="M207.986,95.036V87.505H188.965v7.531L199.1,121l.051,1.758Z" fill="#898989"/><path d="M188.965,85.605h19.021a1.9,1.9,0,0,1,1.9,1.9v7.531a1.9,1.9,0,0,1-.09.577l-8.836,27.725a1.9,1.9,0,0,1-3.709-.522l-.041-1.429L187.2,95.727a1.9,1.9,0,0,1-.13-.691V87.505A1.9,1.9,0,0,1,188.965,85.605Zm17.121,3.8H190.865v5.273l8.39,21.5,6.831-21.435Z" fill="#121212"/><path d="M198.476,90.654c9.246,0,14.969-8.235,17.29-15.5,2.253-5.079-3.306-8.508-3.306-8.508.25-4.518-.367-11.576-2.735-15.433s-6.816-5.951-11.249-3.086c-4.433-2.865-8.881-.77-11.249,3.086s-2.985,10.915-2.735,15.433c0,0-6.336,4.948-3.306,8.508C183.507,82.419,189.23,90.654,198.476,90.654Z" fill="#fef1e6"/><path d="M215.315,32.222c-5.567-5.236-18.918-3.567-21.669-1.283l14.362,13.509s12.874-6.99,7.307-12.226" fill="#121212"/><path d="M194.188,69.373a1.5,1.5,0,1,1-1.5-1.5,1.5,1.5,0,0,1,1.5,1.5" fill="#121212"/><path d="M202.775,66.986A1.9,1.9,0,0,1,201.221,64a5.022,5.022,0,0,1,2.149-1.739l0,0,0,0a5.091,5.091,0,0,1,2.718-.531,1.9,1.9,0,0,1-.331,3.786,1.348,1.348,0,0,0-.783.19h0a1.347,1.347,0,0,0-.647.477A1.9,1.9,0,0,1,202.775,66.986Z" fill="#121212"/><path d="M194.16,66.986a1.9,1.9,0,0,1-1.558-.81,1.347,1.347,0,0,0-.647-.477l-.005,0a1.343,1.343,0,0,0-.781-.189,1.9,1.9,0,1,1-.331-3.786,5.091,5.091,0,0,1,2.718.531l0,0,0,0A5.021,5.021,0,0,1,195.714,64a1.9,1.9,0,0,1-1.555,2.99Z" fill="#121212"/><path d="M205.77,69.373a1.5,1.5,0,1,1-1.5-1.5,1.5,1.5,0,0,1,1.5,1.5" fill="#121212"/><path d="M201.546,80.6c0,1.27-1.374,2.3-3.07,2.3s-3.07-1.03-3.07-2.3,1.375-2.3,3.07-2.3,3.07,1.03,3.07,2.3" fill="#fadbda"/><path d="M3.07-.95a4.584,4.584,0,0,1,2.74.863A3.008,3.008,0,0,1,7.09,2.3,3.008,3.008,0,0,1,5.81,4.687a4.584,4.584,0,0,1-2.74.863A4.584,4.584,0,0,1,.33,4.687,3.008,3.008,0,0,1-.95,2.3,3.008,3.008,0,0,1,.33-.087,4.584,4.584,0,0,1,3.07-.95Zm0,4.6c1.129,0,2.12-.631,2.12-1.35S4.2.95,3.07.95.95,1.581.95,2.3,1.941,3.65,3.07,3.65Z" transform="translate(195.406 78.302)" fill="#121212"/><path d="M1.741.95H0A.95.95,0,0,1-.95,0,.95.95,0,0,1,0-.95H1.741a.95.95,0,0,1,.95.95A.95.95,0,0,1,1.741.95Z" transform="translate(197.605 74.103)" fill="#121212"/><path d="M198.476,93.807h0c-10.115,0-16.495-8.683-19.095-16.813a89.754,89.754,0,0,1-3.093-10.918,1.9,1.9,0,0,1,2.482-2.143l3.777,1.29A43.7,43.7,0,0,1,183,59.651a22.027,22.027,0,0,1,2.609-8.183,10.378,10.378,0,0,1,8.647-5.323,9.264,9.264,0,0,1,4.221,1.042,9.264,9.264,0,0,1,4.221-1.042,10.378,10.378,0,0,1,8.647,5.323,22.027,22.027,0,0,1,2.609,8.183,43.691,43.691,0,0,1,.452,5.572l3.777-1.29a1.9,1.9,0,0,1,2.5,2.02c-.016.139-.433,3.5-3.116,11.057C214.963,85.136,208.585,93.807,198.476,93.807ZM180.81,68.645c.462,1.725,1.161,4.121,2.178,7.154l.009.026a25.174,25.174,0,0,0,5.6,9.733,13.454,13.454,0,0,0,9.877,4.449h0a13.456,13.456,0,0,0,9.878-4.449,25.172,25.172,0,0,0,5.6-9.733q.009-.029.02-.058c1.111-3.126,1.812-5.486,2.249-7.15l-3.15,1.076a1.9,1.9,0,0,1-2.511-1.9,39.14,39.14,0,0,0-.368-7.579,18.678,18.678,0,0,0-2.089-6.755,6.638,6.638,0,0,0-5.409-3.512,5.86,5.86,0,0,0-3.19,1.027,1.9,1.9,0,0,1-2.063,0,5.861,5.861,0,0,0-3.19-1.027,6.638,6.638,0,0,0-5.409,3.512,18.679,18.679,0,0,0-2.089,6.754,39.14,39.14,0,0,0-.368,7.579,1.9,1.9,0,0,1-2.511,1.9Z" fill="#121212"/><path d="M221.648,50.971C218.183,42.7,207.1,31.417,198.475,31.417S178.766,42.7,175.3,50.971l3.314,5.09a44.052,44.052,0,0,0-1.226,11.144c0,14.955,13.242,24.7,21.084,24.7h0c7.819,0,20.358-9.53,20.358-24.7a48.911,48.911,0,0,0-.942-11.144Zm-23.617,21.1-13.16,3c.239-8.038.949-18.862,2.379-21.383,2.1-3.707,7.268-5.723,11.206-2.968,3.938-2.755,9.1-.739,11.206,2.968,1.437,2.534,2.147,13.448,2.383,21.5Z" fill="#121212"/><path d="M198.475,29.517a16.884,16.884,0,0,1,7.641,2.1,34.335,34.335,0,0,1,7.151,5.06A41,41,0,0,1,223.4,50.237a1.9,1.9,0,0,1-.224,1.862l-3.265,4.424a49.133,49.133,0,0,1,.822,10.142q0,.268,0,.54a27.724,27.724,0,0,1-7.777,19.358c-4.295,4.469-9.843,7.245-14.481,7.245a17.342,17.342,0,0,1-7.44-1.95,27.963,27.963,0,0,1-7.391-5.352,28.372,28.372,0,0,1-5.795-8.349,26.41,26.41,0,0,1-2.36-10.952,45.1,45.1,0,0,1,1.1-10.773l-2.88-4.424a1.9,1.9,0,0,1-.16-1.771,41,41,0,0,1,10.133-13.558,34.334,34.334,0,0,1,7.151-5.06A16.886,16.886,0,0,1,198.475,29.517Zm20.984,21.22A39.022,39.022,0,0,0,210.725,39.5,31,31,0,0,0,204.377,35a11.2,11.2,0,0,0-11.805,0,31,31,0,0,0-6.348,4.505,38.933,38.933,0,0,0-8.766,11.3l2.749,4.222a1.9,1.9,0,0,1,.262,1.452,42.269,42.269,0,0,0-1.18,10.729,22.635,22.635,0,0,0,2.023,9.386,24.585,24.585,0,0,0,5.024,7.232,24.121,24.121,0,0,0,6.369,4.621,13.779,13.779,0,0,0,5.767,1.563c3.586,0,8.195-2.386,11.743-6.078a23.924,23.924,0,0,0,6.717-16.725q0-.274,0-.544a45.6,45.6,0,0,0-.907-10.237,1.9,1.9,0,0,1,.336-1.491Zm-25.049-3.2a8.892,8.892,0,0,1,4.046.969,8.894,8.894,0,0,1,4.045-.969,9.973,9.973,0,0,1,5.11,1.452,10.381,10.381,0,0,1,3.7,3.759c.506.893,1.251,2.841,1.881,9.438.464,4.863.668,10.2.749,12.942a1.9,1.9,0,0,1-2.311,1.911l-13.6-3.017-12.744,2.9a1.9,1.9,0,0,1-2.321-1.909c.081-2.738.287-8.052.751-12.885.628-6.552,1.371-8.49,1.875-9.379a10.381,10.381,0,0,1,3.7-3.759A9.975,9.975,0,0,1,194.41,47.532Zm4.046,5.08a1.9,1.9,0,0,1-1.089-.343,5.066,5.066,0,0,0-2.956-.937,6.56,6.56,0,0,0-5.508,3.286c-.181.32-.819,1.833-1.4,7.866-.276,2.879-.5,6.426-.65,10.179l10.754-2.447a1.9,1.9,0,0,1,.833,0l11.619,2.579c-.111-2.836-.309-6.68-.65-10.251-.58-6.079-1.221-7.6-1.4-7.924a6.559,6.559,0,0,0-5.508-3.285,5.067,5.067,0,0,0-2.956.937A1.9,1.9,0,0,1,198.456,52.612Z" fill="#121212"/><path d="M216.411,48.781H205.167c-.459,0-.83.719-.83,1.606v4.122c0,.888.371,1.607.83,1.607h12.316c.459,0,.83-.719.83-1.607v-.275s-1.444-5.453-1.9-5.453" fill="#fff"/><path d="M205.167,46.881h11.244a2.107,2.107,0,0,1,1.872,1.208,6.99,6.99,0,0,1,.388.853c.194.5.422,1.172.679,2.009.424,1.383.784,2.74.8,2.8a1.9,1.9,0,0,1,.063.486v.275a4.394,4.394,0,0,1-.455,2.008,2.583,2.583,0,0,1-2.275,1.5H205.167a2.583,2.583,0,0,1-2.275-1.5,4.394,4.394,0,0,1-.455-2.008V50.387a4.391,4.391,0,0,1,.455-2.008A2.584,2.584,0,0,1,205.167,46.881Zm10.1,3.8h-9.03v3.535h10.1C215.99,52.932,215.57,51.539,215.267,50.681Z" fill="#121212"/><path d="M180.538,48.781h11.244c.459,0,.83.719.83,1.606v4.122c0,.888-.371,1.607-.83,1.607H179.466c-.459,0-.83-.719-.83-1.607v-.275s1.444-5.453,1.9-5.453" fill="#fff"/><path d="M180.538,46.881h11.244a2.584,2.584,0,0,1,2.275,1.5,4.391,4.391,0,0,1,.455,2.008v4.122a4.394,4.394,0,0,1-.455,2.008,2.583,2.583,0,0,1-2.275,1.5H179.466a2.583,2.583,0,0,1-2.275-1.5,4.394,4.394,0,0,1-.455-2.008v-.275a1.9,1.9,0,0,1,.063-.486c.015-.057.375-1.415.8-2.8.257-.837.485-1.512.679-2.009a6.991,6.991,0,0,1,.388-.853A2.107,2.107,0,0,1,180.538,46.881Zm10.174,3.8h-9.03c-.3.858-.723,2.251-1.074,3.535h10.1Z" fill="#121212"/><path d="M207.957,47.866H188.991a2.063,2.063,0,0,0-2.1,2.007v5.15a2,2,0,0,0,2.067,2.007h19.042a1.912,1.912,0,0,0,2.067-2.007v-5.15a2.063,2.063,0,0,0-2.1-2.007" fill="#fff"/><path d="M188.991,45.966h18.966a3.961,3.961,0,0,1,4.005,3.907v5.15a3.808,3.808,0,0,1-3.967,3.907H188.953a3.9,3.9,0,0,1-3.967-3.907v-5.15A3.961,3.961,0,0,1,188.991,45.966Zm19.164,9.15a.531.531,0,0,0,.007-.093v-5.15a.21.21,0,0,0-.205-.107H188.991a.21.21,0,0,0-.205.107v5.15c0,.045,0,.107.167.107h19.042A.768.768,0,0,0,208.155,55.116Z" fill="#121212"/><path d="M200.837,124.076h.237a7.459,7.459,0,0,0,7.459-7.459v-4.672a7.46,7.46,0,0,0-7.459-7.459h-.237a7.459,7.459,0,0,0-7.459,7.459v4.672a7.458,7.458,0,0,0,7.459,7.459" fill="#fbf1e6"/><path d="M7.459-1.457H7.7a8.926,8.926,0,0,1,8.916,8.915v4.672A8.926,8.926,0,0,1,7.7,21.046H7.459a8.926,8.926,0,0,1-8.916-8.915V7.459A8.926,8.926,0,0,1,7.459-1.457ZM7.7,18.133a6.009,6.009,0,0,0,6-6V7.459a6.009,6.009,0,0,0-6-6H7.459a6.009,6.009,0,0,0-6,6v4.672a6.009,6.009,0,0,0,6,6Z" transform="translate(193.378 104.486)" fill="#121212"/><line x1="4.098" transform="translate(193.747 115.948)" fill="#fbf1e6"/><path d="M4.1.95H0A.95.95,0,0,1-.95,0,.95.95,0,0,1,0-.95H4.1a.95.95,0,0,1,.95.95A.95.95,0,0,1,4.1.95Z" transform="translate(193.747 115.948)" fill="#121212"/><line x1="4.098" transform="translate(193.747 119.283)" fill="#fbf1e6"/><path d="M4.1.95H0A.95.95,0,0,1-.95,0,.95.95,0,0,1,0-.95H4.1a.95.95,0,0,1,.95.95A.95.95,0,0,1,4.1.95Z" transform="translate(193.747 119.283)" fill="#121212"/><path d="M203.634,104.575l-.079-4.325a6.367,6.367,0,0,0-3.284-5.155,2.43,2.43,0,0,0,.027-.272V88.568a2.379,2.379,0,0,0-4.757,0v5.825l-1.168.078a6.379,6.379,0,0,0-5.939,6.788l.079,4.325a6.377,6.377,0,0,0,6.788,5.938l2.394-.159a6.378,6.378,0,0,0,5.939-6.788" fill="#fbf1e6"/><path d="M194.87,112.993h0a7.835,7.835,0,0,1-7.809-7.312q0-.035,0-.071l-.078-4.292a7.845,7.845,0,0,1,7.106-8.286V88.568a3.835,3.835,0,0,1,7.67,0v5.744a7.8,7.8,0,0,1,3.254,5.841q0,.035,0,.07l.078,4.292a7.845,7.845,0,0,1-7.3,8.3l-2.395.159C195.223,112.987,195.045,112.993,194.87,112.993Zm-4.9-7.473a4.931,4.931,0,0,0,4.9,4.56h0c.11,0,.223,0,.334-.011l2.395-.159a4.928,4.928,0,0,0,4.582-5.238q0-.035,0-.07l-.078-4.287a4.9,4.9,0,0,0-2.533-3.945,1.457,1.457,0,0,1-.743-1.436c0-.037.009-.074.014-.11l0-.031V88.568a.922.922,0,0,0-1.844,0v5.825a1.456,1.456,0,0,1-1.359,1.453l-1.168.078a4.928,4.928,0,0,0-4.583,5.238q0,.035,0,.07Z" fill="#121212"/><line y1="0.273" x2="4.089" transform="translate(199.06 102.853)" fill="#fbf1e6"/><path d="M0,1.223A.95.95,0,0,1-.948.336.95.95,0,0,1-.063-.675L4.026-.948a.95.95,0,0,1,1.011.885A.95.95,0,0,1,4.152.948L.063,1.221Z" transform="translate(199.06 102.853)" fill="#121212"/><line y1="0.273" x2="4.089" transform="translate(199.282 106.18)" fill="#fbf1e6"/><path d="M0,1.223A.95.95,0,0,1-.948.336.95.95,0,0,1-.063-.675L4.026-.948a.95.95,0,0,1,1.011.885A.95.95,0,0,1,4.152.948L.063,1.221Z" transform="translate(199.282 106.18)" fill="#121212"/></g></g></g><path d="M8.973,1.9H0A1.9,1.9,0,0,1-1.9,0,1.9,1.9,0,0,1,0-1.9H8.973a1.9,1.9,0,0,1,1.9,1.9A1.9,1.9,0,0,1,8.973,1.9Z" transform="translate(167.835 72.755)" fill="#121212"/><path d="M8.973,1.9H0A1.9,1.9,0,0,1-1.9,0,1.9,1.9,0,0,1,0-1.9H8.973a1.9,1.9,0,0,1,1.9,1.9A1.9,1.9,0,0,1,8.973,1.9Z" transform="translate(171.65 77.876)" fill="#121212"/><path d="M20.381,1.9H0A1.9,1.9,0,0,1-1.9,0,1.9,1.9,0,0,1,0-1.9H20.381a1.9,1.9,0,0,1,1.9,1.9A1.9,1.9,0,0,1,20.381,1.9Z" transform="translate(164.49 85.421)" fill="#121212"/><path d="M16.984,1.9H0A1.9,1.9,0,0,1-1.9,0,1.9,1.9,0,0,1,0-1.9H16.984a1.9,1.9,0,0,1,1.9,1.9A1.9,1.9,0,0,1,16.984,1.9Z" transform="translate(171.65 90.174)" fill="#121212"/><path d="M18.781,1.9H0A1.9,1.9,0,0,1-1.9,0,1.9,1.9,0,0,1,0-1.9H18.781a1.9,1.9,0,0,1,1.9,1.9A1.9,1.9,0,0,1,18.781,1.9Z" transform="translate(167.835 95.651)" fill="#121212"/><path d="M8.973,1.9H0A1.9,1.9,0,0,1-1.9,0,1.9,1.9,0,0,1,0-1.9H8.973a1.9,1.9,0,0,1,1.9,1.9A1.9,1.9,0,0,1,8.973,1.9Z" transform="translate(102.86 72.755)" fill="#121212"/><path d="M8.973,1.9H0A1.9,1.9,0,0,1-1.9,0,1.9,1.9,0,0,1,0-1.9H8.973a1.9,1.9,0,0,1,1.9,1.9A1.9,1.9,0,0,1,8.973,1.9Z" transform="translate(99.046 77.876)" fill="#121212"/><path d="M20.381,1.9H0A1.9,1.9,0,0,1-1.9,0,1.9,1.9,0,0,1,0-1.9H20.381a1.9,1.9,0,0,1,1.9,1.9A1.9,1.9,0,0,1,20.381,1.9Z" transform="translate(94.798 85.421)" fill="#121212"/><path d="M16.984,1.9H0A1.9,1.9,0,0,1-1.9,0,1.9,1.9,0,0,1,0-1.9H16.984a1.9,1.9,0,0,1,1.9,1.9A1.9,1.9,0,0,1,16.984,1.9Z" transform="translate(91.035 90.174)" fill="#121212"/><path d="M18.781,1.9H0A1.9,1.9,0,0,1-1.9,0,1.9,1.9,0,0,1,0-1.9H18.781a1.9,1.9,0,0,1,1.9,1.9A1.9,1.9,0,0,1,18.781,1.9Z" transform="translate(93.052 95.651)" fill="#121212"/><g clip-path="url(#a)"><g opacity="0.4"><g clip-path="url(#e)"><path d="M72.014,94.181,57.194,99.59a25.649,25.649,0,0,0-16.057,17.741l-5.215,29.857a8.549,8.549,0,0,0,5.58,10.229l17.184,5.729h45.677l17.184-5.729a8.55,8.55,0,0,0,5.58-10.229l-5.215-29.857A25.649,25.649,0,0,0,105.855,99.59l-14.82-5.409Z" fill="#fff"/><path d="M72.014,92.281H91.035a1.9,1.9,0,0,1,.651.115l14.82,5.409a27.536,27.536,0,0,1,17.246,19.055q.018.071.031.144l5.2,29.788a10.45,10.45,0,0,1-6.839,12.427l-17.184,5.729a1.9,1.9,0,0,1-.6.1H58.686a1.9,1.9,0,0,1-.6-.1L40.9,159.219a10.449,10.449,0,0,1-6.839-12.427L39.265,117q.013-.072.031-.144A27.536,27.536,0,0,1,56.543,97.805L71.363,92.4A1.9,1.9,0,0,1,72.014,92.281Zm18.685,3.8H72.35l-14.5,5.294A23.737,23.737,0,0,0,43,117.732l-5.2,29.783q-.013.072-.031.144a6.649,6.649,0,0,0,4.34,7.956l16.892,5.632h45.06l16.891-5.631a6.65,6.65,0,0,0,4.34-7.956q-.018-.071-.031-.144l-5.2-29.783a23.737,23.737,0,0,0-14.85-16.357Z" fill="#fff"/><path d="M91.035,95.036V87.505H72.014v7.531L82.148,121l.051,1.758Z" fill="#fff"/><path d="M72.014,85.605H91.035a1.9,1.9,0,0,1,1.9,1.9v7.531a1.9,1.9,0,0,1-.09.577l-8.836,27.725a1.9,1.9,0,0,1-3.709-.522l-.041-1.429L70.244,95.727a1.9,1.9,0,0,1-.13-.691V87.505A1.9,1.9,0,0,1,72.014,85.605Zm17.121,3.8H73.914v5.273l8.39,21.5,6.831-21.435Z" fill="#fff"/><path d="M81.524,90.654c9.246,0,14.969-8.235,17.29-15.5,2.253-5.079-3.306-8.508-3.306-8.508.25-4.518-.367-11.576-2.735-15.433s-6.816-5.951-11.249-3.086c-4.433-2.865-8.881-.77-11.249,3.086S67.29,62.124,67.54,66.642c0,0-6.336,4.948-3.306,8.508C66.555,82.419,72.278,90.654,81.524,90.654Z" fill="#fff"/><path d="M81.524,91.129c-9.318,0-15.252-8.117-17.714-15.746a3.732,3.732,0,0,1-.85-2.826c.284-2.79,3.284-5.459,4.093-6.132a41.806,41.806,0,0,1,.4-7.818A20.959,20.959,0,0,1,69.87,50.96,8.972,8.972,0,0,1,77.3,46.316a8.087,8.087,0,0,1,4.221,1.246,8.087,8.087,0,0,1,4.221-1.246,8.972,8.972,0,0,1,7.433,4.644,20.96,20.96,0,0,1,2.414,7.647A41.828,41.828,0,0,1,96,66.4a10.736,10.736,0,0,1,2.391,2.312,6.326,6.326,0,0,1,.872,6.611C96.81,82.967,90.868,91.129,81.524,91.129ZM77.3,47.266a8.037,8.037,0,0,0-6.623,4.191c-1.548,2.522-3.043,8.341-2.666,15.158l.014.248-.2.153c-.036.028-3.648,2.883-3.927,5.638a2.789,2.789,0,0,0,.691,2.187l.062.073.029.091c2.342,7.335,8,15.173,16.838,15.173s14.5-7.838,16.838-15.173l.008-.025.01-.024a5.353,5.353,0,0,0-.739-5.661,9.746,9.746,0,0,0-2.383-2.251l-.24-.149.015-.282c.377-6.817-1.117-12.636-2.666-15.158a8.037,8.037,0,0,0-6.623-4.191,7.257,7.257,0,0,0-3.963,1.256l-.258.167-.258-.167A7.257,7.257,0,0,0,77.3,47.266Z" fill="#fff"/><path d="M98.363,32.222c-5.567-5.236-18.918-3.567-21.669-1.283L91.056,44.448s12.874-6.99,7.307-12.226" fill="#fff"/><path d="M86.805,28.284h0c3.011,0,8.559.467,11.882,3.592a4.3,4.3,0,0,1,1.51,3.8c-.6,4.619-8.577,9-8.916,9.185l-.3.164-15-14.113.413-.343C77.989,29.247,82.369,28.284,86.805,28.284Zm4.322,15.579a33.047,33.047,0,0,0,3.767-2.548c1.839-1.452,4.088-3.629,4.363-5.756a3.358,3.358,0,0,0-1.219-2.99c-3.084-2.9-8.36-3.334-11.231-3.334h0c-3.3,0-7.485.652-9.36,1.76Z" fill="#fff"/><path d="M77.236,69.373a1.5,1.5,0,1,1-1.5-1.5,1.5,1.5,0,0,1,1.5,1.5" fill="#fff"/><path d="M75.733,67.4a1.978,1.978,0,1,1-1.979,1.978A1.98,1.98,0,0,1,75.733,67.4Zm0,3.006A1.028,1.028,0,1,0,74.7,69.373,1.029,1.029,0,0,0,75.733,70.4Z" fill="#fff"/><path d="M88.98,63.615a3.873,3.873,0,0,0-3.154,1.471" fill="#fff"/><path d="M85.824,66.986A1.9,1.9,0,0,1,84.268,64a5.014,5.014,0,0,1,2.149-1.74l.006,0a5.086,5.086,0,0,1,2.723-.533,1.9,1.9,0,0,1-.332,3.786,1.358,1.358,0,0,0-.781.19l0,0a1.342,1.342,0,0,0-.645.475A1.9,1.9,0,0,1,85.824,66.986Z" fill="#fff"/><path d="M74.051,63.615a3.873,3.873,0,0,1,3.155,1.471" fill="#fff"/><path d="M77.208,66.986a1.9,1.9,0,0,1-1.558-.81A1.347,1.347,0,0,0,75,65.7l0,0a1.343,1.343,0,0,0-.781-.189,1.9,1.9,0,1,1-.331-3.786,5.091,5.091,0,0,1,2.718.531l0,0,0,0A5.021,5.021,0,0,1,78.762,64a1.9,1.9,0,0,1-1.555,2.99Z" fill="#fff"/><path d="M88.819,69.373a1.5,1.5,0,1,1-1.5-1.5,1.5,1.5,0,0,1,1.5,1.5" fill="#fff"/><path d="M87.316,67.4a1.978,1.978,0,1,1-1.979,1.978A1.98,1.98,0,0,1,87.316,67.4Zm0,3.006a1.028,1.028,0,1,0-1.029-1.028A1.029,1.029,0,0,0,87.316,70.4Z" fill="#fff"/><path d="M84.594,80.6c0,1.27-1.374,2.3-3.07,2.3s-3.07-1.03-3.07-2.3,1.375-2.3,3.07-2.3,3.07,1.03,3.07,2.3" fill="#fff"/><path d="M3.07-.95a4.584,4.584,0,0,1,2.74.863A3.008,3.008,0,0,1,7.09,2.3,3.008,3.008,0,0,1,5.81,4.687a4.584,4.584,0,0,1-2.74.863A4.584,4.584,0,0,1,.33,4.687,3.008,3.008,0,0,1-.95,2.3,3.008,3.008,0,0,1,.33-.087,4.584,4.584,0,0,1,3.07-.95Zm0,4.6c1.129,0,2.12-.631,2.12-1.35S4.2.95,3.07.95.95,1.581.95,2.3,1.941,3.65,3.07,3.65Z" transform="translate(78.454 78.302)" fill="#fff"/><line x2="1.741" transform="translate(80.654 74.103)" fill="#fff"/><path d="M1.741.95H0A.95.95,0,0,1-.95,0,.95.95,0,0,1,0-.95H1.741a.95.95,0,0,1,.95.95A.95.95,0,0,1,1.741.95Z" transform="translate(80.654 74.103)" fill="#fff"/><path d="M81.524,91.907c9.246,0,14.969-8.235,17.29-15.5,2.652-7.464,3.03-10.672,3.03-10.672l-6.336,2.164c.25-4.518-.367-11.576-2.735-15.433s-6.816-5.951-11.249-3.086c-4.433-2.865-8.881-.77-11.249,3.086S67.29,63.377,67.54,67.895L61.2,65.731A88.613,88.613,0,0,0,64.234,76.4c2.321,7.269,8.043,15.5,17.289,15.5Z" fill="#fff"/><path d="M81.524,93.807h0c-10.115,0-16.495-8.683-19.095-16.813a89.751,89.751,0,0,1-3.093-10.918,1.9,1.9,0,0,1,2.482-2.143l3.777,1.29a43.694,43.694,0,0,1,.452-5.572,22.027,22.027,0,0,1,2.609-8.183A10.379,10.379,0,0,1,77.3,46.144a9.264,9.264,0,0,1,4.221,1.042,9.264,9.264,0,0,1,4.221-1.042,10.378,10.378,0,0,1,8.647,5.323A22.027,22.027,0,0,1,97,59.651a43.694,43.694,0,0,1,.452,5.572l3.777-1.29a1.9,1.9,0,0,1,2.5,2.02c-.016.139-.433,3.5-3.116,11.057C98.011,85.136,91.633,93.807,81.524,93.807ZM63.858,68.645c.462,1.725,1.161,4.121,2.178,7.154l.009.026a25.174,25.174,0,0,0,5.6,9.733,13.454,13.454,0,0,0,9.877,4.449h0A13.456,13.456,0,0,0,91.4,85.558,25.172,25.172,0,0,0,97,75.825q.009-.029.02-.058c1.111-3.126,1.812-5.486,2.249-7.15l-3.15,1.076a1.9,1.9,0,0,1-2.511-1.9,39.14,39.14,0,0,0-.368-7.579,18.678,18.678,0,0,0-2.089-6.755,6.638,6.638,0,0,0-5.409-3.512,5.86,5.86,0,0,0-3.19,1.027,1.9,1.9,0,0,1-2.063,0,5.86,5.86,0,0,0-3.19-1.027,6.638,6.638,0,0,0-5.409,3.512A18.678,18.678,0,0,0,69.8,60.211a39.14,39.14,0,0,0-.368,7.579,1.9,1.9,0,0,1-2.511,1.9Z" fill="#fff"/><path d="M104.7,50.971c-3.466-8.274-14.55-19.554-23.174-19.554S61.814,42.7,58.349,50.971l3.314,5.09a44.042,44.042,0,0,0-1.225,11.144c0,14.955,13.241,24.7,21.083,24.7h0c7.819,0,20.359-9.53,20.359-24.7a48.922,48.922,0,0,0-.943-11.144Zm-23.618,21.1-13.16,3c.24-8.038.949-18.862,2.38-21.383,2.1-3.707,7.267-5.723,11.206-2.968,3.937-2.755,9.1-.739,11.205,2.968,1.437,2.534,2.147,13.448,2.383,21.5Z" fill="#fff"/><path d="M81.523,29.517a16.885,16.885,0,0,1,7.641,2.1,34.336,34.336,0,0,1,7.151,5.06,41.012,41.012,0,0,1,10.134,13.558,1.9,1.9,0,0,1-.224,1.863l-3.266,4.424a49.17,49.17,0,0,1,.823,10.15q0,.264,0,.532A27.723,27.723,0,0,1,96,86.563c-4.295,4.469-9.844,7.245-14.482,7.245a17.341,17.341,0,0,1-7.44-1.95,27.961,27.961,0,0,1-7.39-5.352A28.372,28.372,0,0,1,60.9,78.157a26.411,26.411,0,0,1-2.36-10.952,45.115,45.115,0,0,1,1.1-10.773l-2.88-4.424a1.9,1.9,0,0,1-.16-1.771A41,41,0,0,1,66.73,36.679a34.334,34.334,0,0,1,7.151-5.06A16.886,16.886,0,0,1,81.523,29.517Zm20.985,21.22A39.03,39.03,0,0,0,93.773,39.5,31,31,0,0,0,87.425,35a13.187,13.187,0,0,0-5.9-1.681A13.189,13.189,0,0,0,75.62,35,31,31,0,0,0,69.272,39.5a38.933,38.933,0,0,0-8.766,11.3l2.749,4.222a1.9,1.9,0,0,1,.262,1.452,42.277,42.277,0,0,0-1.179,10.729,22.636,22.636,0,0,0,2.023,9.386,24.585,24.585,0,0,0,5.024,7.232,24.12,24.12,0,0,0,6.369,4.621,13.778,13.778,0,0,0,5.767,1.563c3.586,0,8.2-2.386,11.744-6.078a23.923,23.923,0,0,0,6.717-16.725q0-.27,0-.536a45.64,45.64,0,0,0-.908-10.245,1.9,1.9,0,0,1,.336-1.491Zm-25.049-3.2A8.894,8.894,0,0,1,81.5,48.5a8.892,8.892,0,0,1,4.045-.969,9.972,9.972,0,0,1,5.11,1.452,10.381,10.381,0,0,1,3.7,3.759c.506.893,1.251,2.841,1.881,9.438.464,4.863.668,10.2.749,12.942a1.9,1.9,0,0,1-2.311,1.911l-13.6-3.017-12.744,2.9a1.9,1.9,0,0,1-2.321-1.909c.082-2.74.288-8.058.751-12.885.628-6.552,1.371-8.491,1.876-9.379a10.376,10.376,0,0,1,3.7-3.758A9.974,9.974,0,0,1,77.459,47.532Zm4.046,5.08a1.9,1.9,0,0,1-1.089-.343,5.068,5.068,0,0,0-2.957-.937,6.557,6.557,0,0,0-5.507,3.286c-.182.32-.819,1.833-1.4,7.867-.276,2.877-.5,6.423-.65,10.179l10.754-2.447a1.9,1.9,0,0,1,.833,0L93.11,72.792c-.111-2.836-.309-6.68-.65-10.251-.58-6.079-1.221-7.6-1.4-7.924a6.558,6.558,0,0,0-5.507-3.285,5.065,5.065,0,0,0-2.956.937A1.9,1.9,0,0,1,81.5,52.612Z" fill="#fff"/><path d="M99.46,48.781H88.216c-.459,0-.83.719-.83,1.606v4.122c0,.888.371,1.607.83,1.607h12.316c.459,0,.83-.719.83-1.607v-.275s-1.444-5.453-1.9-5.453" fill="#fff"/><path d="M88.216,46.881H99.46a2.107,2.107,0,0,1,1.872,1.208,6.99,6.99,0,0,1,.388.853c.194.5.422,1.172.679,2.009.424,1.383.784,2.74.8,2.8a1.9,1.9,0,0,1,.063.486v.275a4.394,4.394,0,0,1-.455,2.008,2.583,2.583,0,0,1-2.275,1.5H88.216a2.583,2.583,0,0,1-2.275-1.5,4.394,4.394,0,0,1-.455-2.008V50.387a4.391,4.391,0,0,1,.455-2.008A2.584,2.584,0,0,1,88.216,46.881Zm10.1,3.8h-9.03v3.535h10.1C99.039,52.932,98.619,51.539,98.316,50.681Z" fill="#fff"/><path d="M63.586,48.781H74.83c.459,0,.83.719.83,1.606v4.122c0,.888-.371,1.607-.83,1.607H62.514c-.459,0-.83-.719-.83-1.607v-.275s1.444-5.453,1.9-5.453" fill="#fff"/><path d="M63.586,46.881H74.83a2.584,2.584,0,0,1,2.275,1.5,4.391,4.391,0,0,1,.455,2.008v4.122a4.394,4.394,0,0,1-.455,2.008,2.583,2.583,0,0,1-2.275,1.5H62.514a2.583,2.583,0,0,1-2.275-1.5,4.394,4.394,0,0,1-.455-2.008v-.275a1.9,1.9,0,0,1,.063-.486c.015-.057.375-1.415.8-2.8.257-.837.485-1.512.679-2.009a6.99,6.99,0,0,1,.388-.853A2.107,2.107,0,0,1,63.586,46.881Zm10.174,3.8H64.73c-.3.858-.723,2.252-1.074,3.535h10.1Z" fill="#fff"/><path d="M91.006,47.866H72.04a2.063,2.063,0,0,0-2.105,2.007v5.15A2,2,0,0,0,72,57.03H91.044a1.912,1.912,0,0,0,2.067-2.007v-5.15a2.063,2.063,0,0,0-2.105-2.007" fill="#fff"/><path d="M72.04,45.966H91.006a3.961,3.961,0,0,1,4,3.907v5.15a3.808,3.808,0,0,1-3.967,3.907H72a3.9,3.9,0,0,1-3.967-3.907v-5.15A3.961,3.961,0,0,1,72.04,45.966ZM91.2,55.116a.531.531,0,0,0,.007-.093v-5.15a.21.21,0,0,0-.205-.107H72.04a.21.21,0,0,0-.205.107v5.15c0,.045,0,.107.167.107H91.044A.768.768,0,0,0,91.2,55.116Z" fill="#fff"/><path d="M83.885,124.076h.237a7.459,7.459,0,0,0,7.459-7.459v-4.672a7.46,7.46,0,0,0-7.459-7.459h-.237a7.46,7.46,0,0,0-7.459,7.459v4.672a7.459,7.459,0,0,0,7.459,7.459" fill="#fff"/><path d="M7.459-1.457H7.7a8.926,8.926,0,0,1,8.916,8.915v4.672A8.926,8.926,0,0,1,7.7,21.046H7.459a8.926,8.926,0,0,1-8.916-8.915V7.459A8.926,8.926,0,0,1,7.459-1.457ZM7.7,18.133a6.009,6.009,0,0,0,6-6V7.459a6.009,6.009,0,0,0-6-6H7.459a6.009,6.009,0,0,0-6,6v4.672a6.009,6.009,0,0,0,6,6Z" transform="translate(76.426 104.486)" fill="#fff"/><line x1="4.098" transform="translate(76.796 115.948)" fill="#fff"/><path d="M4.1.95H0A.95.95,0,0,1-.95,0,.95.95,0,0,1,0-.95H4.1a.95.95,0,0,1,.95.95A.95.95,0,0,1,4.1.95Z" transform="translate(76.796 115.948)" fill="#fff"/><line x1="4.098" transform="translate(76.796 119.283)" fill="#fff"/><path d="M4.1.95H0A.95.95,0,0,1-.95,0,.95.95,0,0,1,0-.95H4.1a.95.95,0,0,1,.95.95A.95.95,0,0,1,4.1.95Z" transform="translate(76.796 119.283)" fill="#fff"/><path d="M86.682,104.575,86.6,100.25A6.367,6.367,0,0,0,83.319,95.1a2.432,2.432,0,0,0,.027-.272V88.568a2.379,2.379,0,0,0-4.757,0v5.825l-1.168.078a6.379,6.379,0,0,0-5.939,6.788l.079,4.325a6.377,6.377,0,0,0,6.788,5.938l2.394-.159a6.378,6.378,0,0,0,5.939-6.788" fill="#fff"/><path d="M77.918,112.993h0a7.835,7.835,0,0,1-7.809-7.312q0-.035,0-.071l-.078-4.292a7.845,7.845,0,0,1,7.106-8.286V88.568a3.835,3.835,0,0,1,7.67,0v5.744a7.8,7.8,0,0,1,3.254,5.841q0,.035,0,.07l.078,4.292a7.844,7.844,0,0,1-7.3,8.3l-2.395.159C78.271,112.987,78.093,112.993,77.918,112.993Zm-4.9-7.473a4.931,4.931,0,0,0,4.9,4.56h0c.11,0,.223,0,.334-.011l2.395-.159a4.928,4.928,0,0,0,4.582-5.238q0-.035,0-.07l-.078-4.287a4.9,4.9,0,0,0-2.533-3.945,1.456,1.456,0,0,1-.743-1.435c0-.037.009-.074.014-.111l0-.031V88.568a.922.922,0,0,0-1.844,0v5.825a1.456,1.456,0,0,1-1.359,1.453l-1.168.078a4.928,4.928,0,0,0-4.583,5.238q0,.035,0,.07Z" fill="#fff"/><line y1="0.273" x2="4.089" transform="translate(82.108 102.853)" fill="#fff"/><path d="M0,1.223A.95.95,0,0,1-.948.336.95.95,0,0,1-.063-.675L4.026-.948a.95.95,0,0,1,1.011.885A.95.95,0,0,1,4.152.948L.063,1.221Z" transform="translate(82.108 102.853)" fill="#fff"/><line y1="0.273" x2="4.089" transform="translate(82.33 106.18)" fill="#fff"/><path d="M0,1.223A.95.95,0,0,1-.948.336.95.95,0,0,1-.063-.675L4.026-.948a.95.95,0,0,1,1.011.885A.95.95,0,0,1,4.152.948L.063,1.221Z" transform="translate(82.33 106.18)" fill="#fff"/><path d="M72.014,94.181,57.194,99.59a25.649,25.649,0,0,0-16.057,17.741l-5.215,29.857a8.549,8.549,0,0,0,5.58,10.229l17.184,5.729h45.677l17.184-5.729a8.55,8.55,0,0,0,5.58-10.229l-5.215-29.857A25.649,25.649,0,0,0,105.855,99.59l-14.82-5.409Z" fill="#121212"/><path d="M72.014,92.281H91.035a1.9,1.9,0,0,1,.651.115l14.82,5.409a27.536,27.536,0,0,1,17.246,19.055q.018.071.031.144l5.2,29.788a10.45,10.45,0,0,1-6.839,12.427l-17.184,5.729a1.9,1.9,0,0,1-.6.1H58.686a1.9,1.9,0,0,1-.6-.1L40.9,159.219a10.449,10.449,0,0,1-6.839-12.427L39.265,117q.013-.072.031-.144A27.536,27.536,0,0,1,56.543,97.805L71.363,92.4A1.9,1.9,0,0,1,72.014,92.281Zm18.685,3.8H72.35l-14.5,5.294A23.737,23.737,0,0,0,43,117.732l-5.2,29.783q-.013.072-.031.144a6.649,6.649,0,0,0,4.34,7.956l16.892,5.632h45.06l16.891-5.631a6.65,6.65,0,0,0,4.34-7.956q-.018-.071-.031-.144l-5.2-29.783a23.737,23.737,0,0,0-14.85-16.357Z" fill="#121212"/><path d="M91.035,95.036V87.505H72.014v7.531L82.148,121l.051,1.758Z" fill="#898989"/><path d="M72.014,85.605H91.035a1.9,1.9,0,0,1,1.9,1.9v7.531a1.9,1.9,0,0,1-.09.577l-8.836,27.725a1.9,1.9,0,0,1-3.709-.522l-.041-1.429L70.244,95.727a1.9,1.9,0,0,1-.13-.691V87.505A1.9,1.9,0,0,1,72.014,85.605Zm17.121,3.8H73.914v5.273l8.39,21.5,6.831-21.435Z" fill="#121212"/><path d="M81.524,90.654c9.246,0,14.969-8.235,17.29-15.5,2.253-5.079-3.306-8.508-3.306-8.508.25-4.518-.367-11.576-2.735-15.433s-6.816-5.951-11.249-3.086c-4.433-2.865-8.881-.77-11.249,3.086S67.29,62.124,67.54,66.642c0,0-6.336,4.948-3.306,8.508C66.555,82.419,72.278,90.654,81.524,90.654Z" fill="#fef1e6"/><path d="M98.363,32.222c-5.567-5.236-18.918-3.567-21.669-1.283L91.056,44.448s12.874-6.99,7.307-12.226" fill="#121212"/><path d="M77.236,69.373a1.5,1.5,0,1,1-1.5-1.5,1.5,1.5,0,0,1,1.5,1.5" fill="#121212"/><path d="M85.824,66.986A1.9,1.9,0,0,1,84.268,64a5.014,5.014,0,0,1,2.149-1.74l.006,0a5.086,5.086,0,0,1,2.723-.533,1.9,1.9,0,0,1-.332,3.786,1.358,1.358,0,0,0-.781.19l0,0a1.342,1.342,0,0,0-.645.475A1.9,1.9,0,0,1,85.824,66.986Z" fill="#121212"/><path d="M77.208,66.986a1.9,1.9,0,0,1-1.558-.81A1.347,1.347,0,0,0,75,65.7l0,0a1.343,1.343,0,0,0-.781-.189,1.9,1.9,0,1,1-.331-3.786,5.091,5.091,0,0,1,2.718.531l0,0,0,0A5.021,5.021,0,0,1,78.762,64a1.9,1.9,0,0,1-1.555,2.99Z" fill="#121212"/><path d="M88.819,69.373a1.5,1.5,0,1,1-1.5-1.5,1.5,1.5,0,0,1,1.5,1.5" fill="#121212"/><path d="M84.594,80.6c0,1.27-1.374,2.3-3.07,2.3s-3.07-1.03-3.07-2.3,1.375-2.3,3.07-2.3,3.07,1.03,3.07,2.3" fill="#fadbda"/><path d="M3.07-.95a4.584,4.584,0,0,1,2.74.863A3.008,3.008,0,0,1,7.09,2.3,3.008,3.008,0,0,1,5.81,4.687a4.584,4.584,0,0,1-2.74.863A4.584,4.584,0,0,1,.33,4.687,3.008,3.008,0,0,1-.95,2.3,3.008,3.008,0,0,1,.33-.087,4.584,4.584,0,0,1,3.07-.95Zm0,4.6c1.129,0,2.12-.631,2.12-1.35S4.2.95,3.07.95.95,1.581.95,2.3,1.941,3.65,3.07,3.65Z" transform="translate(78.454 78.302)" fill="#121212"/><path d="M1.741.95H0A.95.95,0,0,1-.95,0,.95.95,0,0,1,0-.95H1.741a.95.95,0,0,1,.95.95A.95.95,0,0,1,1.741.95Z" transform="translate(80.654 74.103)" fill="#121212"/><path d="M81.524,93.807h0c-10.115,0-16.495-8.683-19.095-16.813a89.751,89.751,0,0,1-3.093-10.918,1.9,1.9,0,0,1,2.482-2.143l3.777,1.29a43.694,43.694,0,0,1,.452-5.572,22.027,22.027,0,0,1,2.609-8.183A10.379,10.379,0,0,1,77.3,46.144a9.264,9.264,0,0,1,4.221,1.042,9.264,9.264,0,0,1,4.221-1.042,10.378,10.378,0,0,1,8.647,5.323A22.027,22.027,0,0,1,97,59.651a43.694,43.694,0,0,1,.452,5.572l3.777-1.29a1.9,1.9,0,0,1,2.5,2.02c-.016.139-.433,3.5-3.116,11.057C98.011,85.136,91.633,93.807,81.524,93.807ZM63.858,68.645c.462,1.725,1.161,4.121,2.178,7.154l.009.026a25.174,25.174,0,0,0,5.6,9.733,13.454,13.454,0,0,0,9.877,4.449h0A13.456,13.456,0,0,0,91.4,85.558,25.172,25.172,0,0,0,97,75.825q.009-.029.02-.058c1.111-3.126,1.812-5.486,2.249-7.15l-3.15,1.076a1.9,1.9,0,0,1-2.511-1.9,39.14,39.14,0,0,0-.368-7.579,18.678,18.678,0,0,0-2.089-6.755,6.638,6.638,0,0,0-5.409-3.512,5.86,5.86,0,0,0-3.19,1.027,1.9,1.9,0,0,1-2.063,0,5.86,5.86,0,0,0-3.19-1.027,6.638,6.638,0,0,0-5.409,3.512A18.678,18.678,0,0,0,69.8,60.211a39.14,39.14,0,0,0-.368,7.579,1.9,1.9,0,0,1-2.511,1.9Z" fill="#121212"/><path d="M104.7,50.971c-3.466-8.274-14.55-19.554-23.174-19.554S61.814,42.7,58.349,50.971l3.314,5.09a44.042,44.042,0,0,0-1.225,11.144c0,14.955,13.241,24.7,21.083,24.7h0c7.819,0,20.359-9.53,20.359-24.7a48.922,48.922,0,0,0-.943-11.144Zm-23.618,21.1-13.16,3c.24-8.038.949-18.862,2.38-21.383,2.1-3.707,7.267-5.723,11.206-2.968,3.937-2.755,9.1-.739,11.205,2.968,1.437,2.534,2.147,13.448,2.383,21.5Z" fill="#121212"/><path d="M81.523,29.517a16.885,16.885,0,0,1,7.641,2.1,34.336,34.336,0,0,1,7.151,5.06,41.012,41.012,0,0,1,10.134,13.558,1.9,1.9,0,0,1-.224,1.863l-3.266,4.424a49.17,49.17,0,0,1,.823,10.15q0,.264,0,.532A27.723,27.723,0,0,1,96,86.563c-4.295,4.469-9.844,7.245-14.482,7.245a17.341,17.341,0,0,1-7.44-1.95,27.961,27.961,0,0,1-7.39-5.352A28.372,28.372,0,0,1,60.9,78.157a26.411,26.411,0,0,1-2.36-10.952,45.115,45.115,0,0,1,1.1-10.773l-2.88-4.424a1.9,1.9,0,0,1-.16-1.771A41,41,0,0,1,66.73,36.679a34.334,34.334,0,0,1,7.151-5.06A16.886,16.886,0,0,1,81.523,29.517Zm20.985,21.22A39.03,39.03,0,0,0,93.773,39.5,31,31,0,0,0,87.425,35a13.187,13.187,0,0,0-5.9-1.681A13.189,13.189,0,0,0,75.62,35,31,31,0,0,0,69.272,39.5a38.933,38.933,0,0,0-8.766,11.3l2.749,4.222a1.9,1.9,0,0,1,.262,1.452,42.277,42.277,0,0,0-1.179,10.729,22.636,22.636,0,0,0,2.023,9.386,24.585,24.585,0,0,0,5.024,7.232,24.12,24.12,0,0,0,6.369,4.621,13.778,13.778,0,0,0,5.767,1.563c3.586,0,8.2-2.386,11.744-6.078a23.923,23.923,0,0,0,6.717-16.725q0-.27,0-.536a45.64,45.64,0,0,0-.908-10.245,1.9,1.9,0,0,1,.336-1.491Zm-25.049-3.2A8.894,8.894,0,0,1,81.5,48.5a8.892,8.892,0,0,1,4.045-.969,9.972,9.972,0,0,1,5.11,1.452,10.381,10.381,0,0,1,3.7,3.759c.506.893,1.251,2.841,1.881,9.438.464,4.863.668,10.2.749,12.942a1.9,1.9,0,0,1-2.311,1.911l-13.6-3.017-12.744,2.9a1.9,1.9,0,0,1-2.321-1.909c.082-2.74.288-8.058.751-12.885.628-6.552,1.371-8.491,1.876-9.379a10.376,10.376,0,0,1,3.7-3.758A9.974,9.974,0,0,1,77.459,47.532Zm4.046,5.08a1.9,1.9,0,0,1-1.089-.343,5.068,5.068,0,0,0-2.957-.937,6.557,6.557,0,0,0-5.507,3.286c-.182.32-.819,1.833-1.4,7.867-.276,2.877-.5,6.423-.65,10.179l10.754-2.447a1.9,1.9,0,0,1,.833,0L93.11,72.792c-.111-2.836-.309-6.68-.65-10.251-.58-6.079-1.221-7.6-1.4-7.924a6.558,6.558,0,0,0-5.507-3.285,5.065,5.065,0,0,0-2.956.937A1.9,1.9,0,0,1,81.5,52.612Z" fill="#121212"/><path d="M99.46,48.781H88.216c-.459,0-.83.719-.83,1.606v4.122c0,.888.371,1.607.83,1.607h12.316c.459,0,.83-.719.83-1.607v-.275s-1.444-5.453-1.9-5.453" fill="#fff"/><path d="M88.216,46.881H99.46a2.107,2.107,0,0,1,1.872,1.208,6.99,6.99,0,0,1,.388.853c.194.5.422,1.172.679,2.009.424,1.383.784,2.74.8,2.8a1.9,1.9,0,0,1,.063.486v.275a4.394,4.394,0,0,1-.455,2.008,2.583,2.583,0,0,1-2.275,1.5H88.216a2.583,2.583,0,0,1-2.275-1.5,4.394,4.394,0,0,1-.455-2.008V50.387a4.391,4.391,0,0,1,.455-2.008A2.584,2.584,0,0,1,88.216,46.881Zm10.1,3.8h-9.03v3.535h10.1C99.039,52.932,98.619,51.539,98.316,50.681Z" fill="#121212"/><path d="M63.586,48.781H74.83c.459,0,.83.719.83,1.606v4.122c0,.888-.371,1.607-.83,1.607H62.514c-.459,0-.83-.719-.83-1.607v-.275s1.444-5.453,1.9-5.453" fill="#fff"/><path d="M63.586,46.881H74.83a2.584,2.584,0,0,1,2.275,1.5,4.391,4.391,0,0,1,.455,2.008v4.122a4.394,4.394,0,0,1-.455,2.008,2.583,2.583,0,0,1-2.275,1.5H62.514a2.583,2.583,0,0,1-2.275-1.5,4.394,4.394,0,0,1-.455-2.008v-.275a1.9,1.9,0,0,1,.063-.486c.015-.057.375-1.415.8-2.8.257-.837.485-1.512.679-2.009a6.99,6.99,0,0,1,.388-.853A2.107,2.107,0,0,1,63.586,46.881Zm10.174,3.8H64.73c-.3.858-.723,2.252-1.074,3.535h10.1Z" fill="#121212"/><path d="M91.006,47.866H72.04a2.063,2.063,0,0,0-2.105,2.007v5.15A2,2,0,0,0,72,57.03H91.044a1.912,1.912,0,0,0,2.067-2.007v-5.15a2.063,2.063,0,0,0-2.105-2.007" fill="#fff"/><path d="M72.04,45.966H91.006a3.961,3.961,0,0,1,4,3.907v5.15a3.808,3.808,0,0,1-3.967,3.907H72a3.9,3.9,0,0,1-3.967-3.907v-5.15A3.961,3.961,0,0,1,72.04,45.966ZM91.2,55.116a.531.531,0,0,0,.007-.093v-5.15a.21.21,0,0,0-.205-.107H72.04a.21.21,0,0,0-.205.107v5.15c0,.045,0,.107.167.107H91.044A.768.768,0,0,0,91.2,55.116Z" fill="#121212"/><path d="M83.885,124.076h.237a7.459,7.459,0,0,0,7.459-7.459v-4.672a7.46,7.46,0,0,0-7.459-7.459h-.237a7.46,7.46,0,0,0-7.459,7.459v4.672a7.459,7.459,0,0,0,7.459,7.459" fill="#fbf1e6"/><path d="M7.459-1.457H7.7a8.926,8.926,0,0,1,8.916,8.915v4.672A8.926,8.926,0,0,1,7.7,21.046H7.459a8.926,8.926,0,0,1-8.916-8.915V7.459A8.926,8.926,0,0,1,7.459-1.457ZM7.7,18.133a6.009,6.009,0,0,0,6-6V7.459a6.009,6.009,0,0,0-6-6H7.459a6.009,6.009,0,0,0-6,6v4.672a6.009,6.009,0,0,0,6,6Z" transform="translate(76.426 104.486)" fill="#121212"/><line x1="4.098" transform="translate(76.796 115.948)" fill="#fbf1e6"/><path d="M4.1.95H0A.95.95,0,0,1-.95,0,.95.95,0,0,1,0-.95H4.1a.95.95,0,0,1,.95.95A.95.95,0,0,1,4.1.95Z" transform="translate(76.796 115.948)" fill="#121212"/><line x1="4.098" transform="translate(76.796 119.283)" fill="#fbf1e6"/><path d="M4.1.95H0A.95.95,0,0,1-.95,0,.95.95,0,0,1,0-.95H4.1a.95.95,0,0,1,.95.95A.95.95,0,0,1,4.1.95Z" transform="translate(76.796 119.283)" fill="#121212"/><path d="M86.682,104.575,86.6,100.25A6.367,6.367,0,0,0,83.319,95.1a2.432,2.432,0,0,0,.027-.272V88.568a2.379,2.379,0,0,0-4.757,0v5.825l-1.168.078a6.379,6.379,0,0,0-5.939,6.788l.079,4.325a6.377,6.377,0,0,0,6.788,5.938l2.394-.159a6.378,6.378,0,0,0,5.939-6.788" fill="#fbf1e6"/><path d="M77.918,112.993h0a7.835,7.835,0,0,1-7.809-7.312q0-.035,0-.071l-.078-4.292a7.845,7.845,0,0,1,7.106-8.286V88.568a3.835,3.835,0,0,1,7.67,0v5.744a7.8,7.8,0,0,1,3.254,5.841q0,.035,0,.07l.078,4.292a7.844,7.844,0,0,1-7.3,8.3l-2.395.159C78.271,112.987,78.093,112.993,77.918,112.993Zm-4.9-7.473a4.931,4.931,0,0,0,4.9,4.56h0c.11,0,.223,0,.334-.011l2.395-.159a4.928,4.928,0,0,0,4.582-5.238q0-.035,0-.07l-.078-4.287a4.9,4.9,0,0,0-2.533-3.945,1.456,1.456,0,0,1-.743-1.435c0-.037.009-.074.014-.111l0-.031V88.568a.922.922,0,0,0-1.844,0v5.825a1.456,1.456,0,0,1-1.359,1.453l-1.168.078a4.928,4.928,0,0,0-4.583,5.238q0,.035,0,.07Z" fill="#121212"/><line y1="0.273" x2="4.089" transform="translate(82.108 102.853)" fill="#fbf1e6"/><path d="M0,1.223A.95.95,0,0,1-.948.336.95.95,0,0,1-.063-.675L4.026-.948a.95.95,0,0,1,1.011.885A.95.95,0,0,1,4.152.948L.063,1.221Z" transform="translate(82.108 102.853)" fill="#121212"/><line y1="0.273" x2="4.089" transform="translate(82.33 106.18)" fill="#fbf1e6"/><path d="M0,1.223A.95.95,0,0,1-.948.336.95.95,0,0,1-.063-.675L4.026-.948a.95.95,0,0,1,1.011.885A.95.95,0,0,1,4.152.948L.063,1.221Z" transform="translate(82.33 106.18)" fill="#121212"/></g></g><path d="M130.561,94.181l-14.82,5.409a25.647,25.647,0,0,0-16.057,17.741l-5.215,29.857a8.547,8.547,0,0,0,5.58,10.229l17.183,5.729H162.91l17.184-5.729a8.549,8.549,0,0,0,5.579-10.229l-5.215-29.857A25.648,25.648,0,0,0,164.4,99.59l-14.821-5.409Z" fill="#121212"/><path d="M130.561,92.281h19.02a1.9,1.9,0,0,1,.651.115l14.821,5.409A27.536,27.536,0,0,1,182.3,116.86q.018.071.031.144l5.2,29.788a10.449,10.449,0,0,1-6.838,12.427l-17.184,5.729a1.9,1.9,0,0,1-.6.1H117.232a1.9,1.9,0,0,1-.6-.1l-17.183-5.729a10.447,10.447,0,0,1-6.839-12.427L97.812,117q.013-.072.031-.144A27.535,27.535,0,0,1,115.09,97.805L129.91,92.4A1.9,1.9,0,0,1,130.561,92.281Zm18.684,3.8H130.9l-14.5,5.294a23.736,23.736,0,0,0-14.85,16.357l-5.2,29.783q-.013.073-.031.144a6.647,6.647,0,0,0,4.34,7.955l16.891,5.632H162.6l16.891-5.631a6.649,6.649,0,0,0,4.339-7.956q-.018-.071-.031-.144l-5.2-29.783a23.737,23.737,0,0,0-14.849-16.357Z" fill="#121212"/><path d="M149.581,95.036V87.505H130.56v7.531L140.694,121l.051,1.758Z" fill="#898989"/><path d="M130.56,85.605h19.021a1.9,1.9,0,0,1,1.9,1.9v7.531a1.9,1.9,0,0,1-.09.577l-8.836,27.725a1.9,1.9,0,0,1-3.709-.522l-.041-1.429L128.79,95.727a1.9,1.9,0,0,1-.13-.691V87.505A1.9,1.9,0,0,1,130.56,85.605Zm17.121,3.8H132.46v5.273l8.39,21.5,6.831-21.435Z" fill="#121212"/><path d="M140.071,90.654c9.246,0,14.969-8.235,17.29-15.5,2.253-5.079-3.306-8.508-3.306-8.508.25-4.518-.367-11.576-2.735-15.433s-6.816-5.951-11.249-3.086c-4.433-2.865-8.881-.77-11.249,3.086s-2.985,10.915-2.735,15.433c0,0-6.336,4.948-3.306,8.508C125.1,82.419,130.825,90.654,140.071,90.654Z" fill="#fef1e6"/><path d="M156.91,32.222c-5.567-5.236-18.918-3.567-21.669-1.283L149.6,44.448s12.874-6.99,7.307-12.226" fill="#121212"/><path d="M135.783,69.373a1.5,1.5,0,1,1-1.5-1.5,1.5,1.5,0,0,1,1.5,1.5" fill="#121212"/><path d="M144.37,66.986A1.9,1.9,0,0,1,142.816,64a5.021,5.021,0,0,1,2.149-1.739l0,0,0,0a5.091,5.091,0,0,1,2.718-.531,1.9,1.9,0,1,1-.331,3.786,1.348,1.348,0,0,0-.783.19h0a1.347,1.347,0,0,0-.647.477A1.9,1.9,0,0,1,144.37,66.986Z" fill="#121212"/><path d="M135.755,66.986a1.9,1.9,0,0,1-1.558-.81,1.347,1.347,0,0,0-.647-.477l-.005,0a1.343,1.343,0,0,0-.781-.189,1.9,1.9,0,1,1-.331-3.786,5.091,5.091,0,0,1,2.718.531l0,0,0,0A5.021,5.021,0,0,1,137.309,64a1.9,1.9,0,0,1-1.555,2.99Z" fill="#121212"/><path d="M147.366,69.373a1.5,1.5,0,1,1-1.5-1.5,1.5,1.5,0,0,1,1.5,1.5" fill="#121212"/><path d="M143.141,80.6c0,1.27-1.374,2.3-3.07,2.3S137,81.872,137,80.6s1.375-2.3,3.07-2.3,3.07,1.03,3.07,2.3" fill="#fadbda"/><path d="M3.07-.95a4.584,4.584,0,0,1,2.74.863A3.008,3.008,0,0,1,7.09,2.3,3.008,3.008,0,0,1,5.81,4.687a4.584,4.584,0,0,1-2.74.863A4.584,4.584,0,0,1,.33,4.687,3.008,3.008,0,0,1-.95,2.3,3.008,3.008,0,0,1,.33-.087,4.584,4.584,0,0,1,3.07-.95Zm0,4.6c1.129,0,2.12-.631,2.12-1.35S4.2.95,3.07.95.95,1.581.95,2.3,1.941,3.65,3.07,3.65Z" transform="translate(137.001 78.302)" fill="#121212"/><path d="M1.741.95H0A.95.95,0,0,1-.95,0,.95.95,0,0,1,0-.95H1.741a.95.95,0,0,1,.95.95A.95.95,0,0,1,1.741.95Z" transform="translate(139.201 74.103)" fill="#121212"/><path d="M140.071,93.807h0c-10.115,0-16.495-8.682-19.095-16.812a89.776,89.776,0,0,1-3.093-10.918,1.9,1.9,0,0,1,2.482-2.143l3.777,1.29a43.694,43.694,0,0,1,.452-5.572,22.027,22.027,0,0,1,2.609-8.183,10.378,10.378,0,0,1,8.647-5.323,9.264,9.264,0,0,1,4.221,1.042,9.264,9.264,0,0,1,4.221-1.042,10.378,10.378,0,0,1,8.647,5.323,22.027,22.027,0,0,1,2.609,8.183A43.694,43.694,0,0,1,156,65.223l3.777-1.29a1.9,1.9,0,0,1,2.5,2.02c-.016.139-.433,3.5-3.116,11.057C156.558,85.136,150.18,93.807,140.071,93.807ZM122.4,68.645c.462,1.725,1.161,4.121,2.178,7.154l.009.026a25.174,25.174,0,0,0,5.6,9.733,13.454,13.454,0,0,0,9.877,4.449h0a13.456,13.456,0,0,0,9.878-4.449,25.172,25.172,0,0,0,5.6-9.733q.009-.029.02-.058c1.111-3.126,1.812-5.486,2.249-7.15l-3.15,1.076a1.9,1.9,0,0,1-2.511-1.9,39.139,39.139,0,0,0-.368-7.579,18.679,18.679,0,0,0-2.089-6.755,6.638,6.638,0,0,0-5.409-3.512,5.861,5.861,0,0,0-3.19,1.027,1.9,1.9,0,0,1-2.063,0,5.861,5.861,0,0,0-3.19-1.027,6.638,6.638,0,0,0-5.409,3.512,18.679,18.679,0,0,0-2.089,6.754,39.14,39.14,0,0,0-.368,7.579,1.9,1.9,0,0,1-2.511,1.9Z" fill="#121212"/><path d="M163.243,50.971c-3.465-8.274-14.549-19.554-23.173-19.554S120.361,42.7,116.9,50.971l3.314,5.09a44.052,44.052,0,0,0-1.226,11.144c0,14.955,13.242,24.7,21.084,24.7h0c7.819,0,20.358-9.53,20.358-24.7a48.91,48.91,0,0,0-.942-11.144Zm-23.617,21.1-13.16,3c.239-8.038.949-18.862,2.379-21.383,2.1-3.707,7.268-5.723,11.206-2.968,3.938-2.755,9.1-.739,11.206,2.968,1.437,2.534,2.147,13.448,2.383,21.5Z" fill="#121212"/><path d="M140.07,29.517a16.884,16.884,0,0,1,7.641,2.1,34.335,34.335,0,0,1,7.151,5.06A41,41,0,0,1,165,50.237a1.9,1.9,0,0,1-.224,1.862l-3.265,4.424a49.13,49.13,0,0,1,.822,10.142q0,.268,0,.54a27.724,27.724,0,0,1-7.777,19.358c-4.295,4.469-9.843,7.245-14.481,7.245a17.342,17.342,0,0,1-7.44-1.95,27.963,27.963,0,0,1-7.391-5.352,28.372,28.372,0,0,1-5.795-8.349,26.41,26.41,0,0,1-2.36-10.952,45.1,45.1,0,0,1,1.1-10.773l-2.88-4.424a1.9,1.9,0,0,1-.16-1.771,41,41,0,0,1,10.133-13.558,34.334,34.334,0,0,1,7.151-5.06A16.886,16.886,0,0,1,140.07,29.517Zm20.984,21.22A39.022,39.022,0,0,0,152.32,39.5,31,31,0,0,0,145.972,35a11.2,11.2,0,0,0-11.805,0,31,31,0,0,0-6.348,4.505,38.933,38.933,0,0,0-8.766,11.3l2.749,4.222a1.9,1.9,0,0,1,.262,1.452,42.269,42.269,0,0,0-1.18,10.729,22.635,22.635,0,0,0,2.023,9.386,24.585,24.585,0,0,0,5.024,7.232,24.122,24.122,0,0,0,6.369,4.621,13.779,13.779,0,0,0,5.767,1.563c3.586,0,8.195-2.386,11.743-6.078a23.924,23.924,0,0,0,6.717-16.725q0-.274,0-.544a45.6,45.6,0,0,0-.907-10.237,1.9,1.9,0,0,1,.336-1.491Zm-25.049-3.2a8.892,8.892,0,0,1,4.046.969,8.894,8.894,0,0,1,4.045-.969,9.973,9.973,0,0,1,5.11,1.452,10.381,10.381,0,0,1,3.7,3.759c.506.893,1.251,2.841,1.881,9.438.464,4.863.668,10.2.749,12.942a1.9,1.9,0,0,1-2.311,1.911l-13.6-3.017-12.744,2.9a1.9,1.9,0,0,1-2.321-1.909c.081-2.738.287-8.052.751-12.885.628-6.552,1.371-8.49,1.875-9.379a10.381,10.381,0,0,1,3.7-3.759A9.975,9.975,0,0,1,136.005,47.532Zm4.046,5.08a1.9,1.9,0,0,1-1.089-.343,5.066,5.066,0,0,0-2.956-.937,6.56,6.56,0,0,0-5.508,3.286c-.181.32-.819,1.833-1.4,7.866-.276,2.879-.5,6.426-.65,10.179L139.2,70.215a1.9,1.9,0,0,1,.833,0l11.619,2.579c-.111-2.836-.309-6.68-.65-10.251-.58-6.079-1.221-7.6-1.4-7.924a6.559,6.559,0,0,0-5.508-3.285,5.067,5.067,0,0,0-2.956.937A1.9,1.9,0,0,1,140.051,52.612Z" fill="#121212"/><path d="M158.006,48.781H146.762c-.459,0-.83.719-.83,1.606v4.122c0,.888.371,1.607.83,1.607h12.316c.459,0,.83-.719.83-1.607v-.275s-1.444-5.453-1.9-5.453" fill="#fff"/><path d="M146.762,46.881h11.244a2.107,2.107,0,0,1,1.872,1.208,6.99,6.99,0,0,1,.388.853c.194.5.422,1.172.679,2.009.424,1.383.784,2.74.8,2.8a1.9,1.9,0,0,1,.063.486v.275a4.394,4.394,0,0,1-.455,2.008,2.583,2.583,0,0,1-2.275,1.5H146.762a2.583,2.583,0,0,1-2.275-1.5,4.394,4.394,0,0,1-.455-2.008V50.387a4.391,4.391,0,0,1,.455-2.008A2.584,2.584,0,0,1,146.762,46.881Zm10.1,3.8h-9.03v3.535h10.1C157.585,52.932,157.165,51.539,156.862,50.681Z" fill="#121212"/><path d="M122.133,48.781h11.244c.459,0,.83.719.83,1.606v4.122c0,.888-.371,1.607-.83,1.607H121.061c-.459,0-.83-.719-.83-1.607v-.275s1.444-5.453,1.9-5.453" fill="#fff"/><path d="M122.133,46.881h11.244a2.584,2.584,0,0,1,2.275,1.5,4.391,4.391,0,0,1,.455,2.008v4.122a4.394,4.394,0,0,1-.455,2.008,2.583,2.583,0,0,1-2.275,1.5H121.061a2.583,2.583,0,0,1-2.275-1.5,4.394,4.394,0,0,1-.455-2.008v-.275a1.9,1.9,0,0,1,.063-.486c.015-.057.375-1.415.8-2.8.257-.837.485-1.512.679-2.009a6.993,6.993,0,0,1,.388-.853A2.107,2.107,0,0,1,122.133,46.881Zm10.174,3.8h-9.03c-.3.858-.723,2.252-1.074,3.535h10.1Z" fill="#121212"/><path d="M149.552,47.866H130.586a2.063,2.063,0,0,0-2.1,2.007v5.15a2,2,0,0,0,2.067,2.007H149.59a1.912,1.912,0,0,0,2.067-2.007v-5.15a2.063,2.063,0,0,0-2.1-2.007" fill="#fff"/><path d="M130.586,45.966h18.966a3.961,3.961,0,0,1,4.005,3.907v5.15a3.808,3.808,0,0,1-3.967,3.907H130.548a3.9,3.9,0,0,1-3.967-3.907v-5.15A3.961,3.961,0,0,1,130.586,45.966Zm19.164,9.15a.531.531,0,0,0,.007-.093v-5.15a.21.21,0,0,0-.205-.107H130.586a.21.21,0,0,0-.205.107v5.15c0,.045,0,.107.167.107H149.59A.768.768,0,0,0,149.75,55.116Z" fill="#121212"/><path d="M142.432,124.076h.237a7.459,7.459,0,0,0,7.459-7.459v-4.672a7.46,7.46,0,0,0-7.459-7.459h-.237a7.46,7.46,0,0,0-7.459,7.459v4.672a7.459,7.459,0,0,0,7.459,7.459" fill="#fbf1e6"/><path d="M7.459-1.457H7.7a8.926,8.926,0,0,1,8.916,8.915v4.672A8.926,8.926,0,0,1,7.7,21.046H7.459a8.926,8.926,0,0,1-8.916-8.915V7.459A8.926,8.926,0,0,1,7.459-1.457ZM7.7,18.133a6.009,6.009,0,0,0,6-6V7.459a6.009,6.009,0,0,0-6-6H7.459a6.009,6.009,0,0,0-6,6v4.672a6.009,6.009,0,0,0,6,6Z" transform="translate(134.973 104.486)" fill="#121212"/><line x1="4.098" transform="translate(135.342 115.948)" fill="#fbf1e6"/><path d="M4.1.95H0A.95.95,0,0,1-.95,0,.95.95,0,0,1,0-.95H4.1a.95.95,0,0,1,.95.95A.95.95,0,0,1,4.1.95Z" transform="translate(135.342 115.948)" fill="#121212"/><line x1="4.098" transform="translate(135.342 119.283)" fill="#fbf1e6"/><path d="M4.1.95H0A.95.95,0,0,1-.95,0,.95.95,0,0,1,0-.95H4.1a.95.95,0,0,1,.95.95A.95.95,0,0,1,4.1.95Z" transform="translate(135.342 119.283)" fill="#121212"/><path d="M145.229,104.575l-.079-4.325a6.367,6.367,0,0,0-3.284-5.155,2.43,2.43,0,0,0,.027-.272V88.568a2.379,2.379,0,0,0-4.757,0v5.825l-1.168.078a6.379,6.379,0,0,0-5.939,6.788l.079,4.325a6.377,6.377,0,0,0,6.788,5.938l2.394-.159a6.378,6.378,0,0,0,5.939-6.788" fill="#fbf1e6"/><path d="M136.465,112.993h0a7.835,7.835,0,0,1-7.809-7.312q0-.035,0-.071l-.078-4.292a7.845,7.845,0,0,1,7.106-8.286V88.568a3.835,3.835,0,0,1,7.67,0v5.744a7.8,7.8,0,0,1,3.254,5.841q0,.035,0,.07l.078,4.292a7.845,7.845,0,0,1-7.3,8.3l-2.395.159C136.818,112.987,136.64,112.993,136.465,112.993Zm-4.9-7.473a4.931,4.931,0,0,0,4.9,4.56h0c.11,0,.223,0,.334-.011l2.395-.159a4.928,4.928,0,0,0,4.582-5.238q0-.035,0-.07l-.078-4.287a4.9,4.9,0,0,0-2.533-3.945,1.457,1.457,0,0,1-.743-1.436c0-.037.009-.074.014-.11l0-.031V88.568a.922.922,0,0,0-1.844,0v5.825a1.456,1.456,0,0,1-1.359,1.453l-1.168.078a4.928,4.928,0,0,0-4.583,5.238q0,.035,0,.07Z" fill="#121212"/><line y1="0.273" x2="4.089" transform="translate(140.655 102.853)" fill="#fbf1e6"/><path d="M0,1.223A.95.95,0,0,1-.948.336.95.95,0,0,1-.063-.675L4.026-.948a.95.95,0,0,1,1.011.885A.95.95,0,0,1,4.152.948L.063,1.221Z" transform="translate(140.655 102.853)" fill="#121212"/><line y1="0.273" x2="4.089" transform="translate(140.877 106.18)" fill="#fbf1e6"/><path d="M0,1.223A.95.95,0,0,1-.948.336.95.95,0,0,1-.063-.675L4.026-.948a.95.95,0,0,1,1.011.885A.95.95,0,0,1,4.152.948L.063,1.221Z" transform="translate(140.877 106.18)" fill="#121212"/><path d="M172.872,161.79h-65.6V124.4a3,3,0,0,1,3-3h59.6a3,3,0,0,1,3,3Z" fill="#fff"/><path d="M172.872,163.69h-65.6a1.9,1.9,0,0,1-1.9-1.9V124.4a4.906,4.906,0,0,1,4.9-4.9h59.6a4.906,4.906,0,0,1,4.9,4.9V161.79A1.9,1.9,0,0,1,172.872,163.69Zm-63.7-3.8h61.8V124.4a1.1,1.1,0,0,0-1.1-1.1h-59.6a1.1,1.1,0,0,0-1.1,1.1Z" fill="#121212"/><rect width="65.6" height="7.407" transform="translate(107.272 161.789)" fill="#fff"/><path d="M0-1.9H65.6A1.9,1.9,0,0,1,67.5,0V7.407a1.9,1.9,0,0,1-1.9,1.9H0a1.9,1.9,0,0,1-1.9-1.9V0A1.9,1.9,0,0,1,0-1.9ZM63.7,1.9H1.9V5.507H63.7Z" transform="translate(107.272 161.789)" fill="#121212"/><path d="M135.865,144.592h2.809v1.924h-5.323v-9.042h2.514Z" fill="#e53935"/><path d="M146.414,141.982a2.728,2.728,0,0,1-1.142,1.077,3.941,3.941,0,0,1-1.866.4h-1.244v3.053h-2.514v-9.042h3.758a4.071,4.071,0,0,1,1.853.385,2.635,2.635,0,0,1,1.148,1.065,3.113,3.113,0,0,1,.385,1.564,3,3,0,0,1-.378,1.494m-2.187-1.494q0-.989-1.064-.988h-1v1.962h1c.709,0,1.064-.323,1.064-.974" fill="#e53935"/><path d="M69.293,1.9H0A1.9,1.9,0,0,1-1.9,0,1.9,1.9,0,0,1,0-1.9H69.293a1.9,1.9,0,0,1,1.9,1.9A1.9,1.9,0,0,1,69.293,1.9Z" transform="translate(37.979 165.493)" fill="#121212"/><path d="M69.293,1.9H0A1.9,1.9,0,0,1-1.9,0,1.9,1.9,0,0,1,0-1.9H69.293a1.9,1.9,0,0,1,1.9,1.9A1.9,1.9,0,0,1,69.293,1.9Z" transform="translate(172.872 165.493)" fill="#121212"/><path d="M11.4,1.9H0A1.9,1.9,0,0,1-1.9,0,1.9,1.9,0,0,1,0-1.9H11.4A1.9,1.9,0,0,1,13.3,0,1.9,1.9,0,0,1,11.4,1.9Z" transform="translate(179.953 129.264)" fill="#121212"/><path d="M4.126,1.9H0A1.9,1.9,0,0,1-1.9,0,1.9,1.9,0,0,1,0-1.9H4.126A1.9,1.9,0,0,1,6.026,0,1.9,1.9,0,0,1,4.126,1.9Z" transform="translate(183.768 134.386)" fill="#121212"/><path d="M20.381,1.9H0A1.9,1.9,0,0,1-1.9,0,1.9,1.9,0,0,1,0-1.9H20.381a1.9,1.9,0,0,1,1.9,1.9A1.9,1.9,0,0,1,20.381,1.9Z" transform="translate(176.608 139.507)" fill="#121212"/><path d="M16.984,1.9H0A1.9,1.9,0,0,1-1.9,0,1.9,1.9,0,0,1,0-1.9H16.984a1.9,1.9,0,0,1,1.9,1.9A1.9,1.9,0,0,1,16.984,1.9Z" transform="translate(183.768 146.683)" fill="#121212"/><path d="M18.781,1.9H0A1.9,1.9,0,0,1-1.9,0,1.9,1.9,0,0,1,0-1.9H18.781a1.9,1.9,0,0,1,1.9,1.9A1.9,1.9,0,0,1,18.781,1.9Z" transform="translate(179.953 152.161)" fill="#121212"/><path d="M11.4,1.9H0A1.9,1.9,0,0,1-1.9,0,1.9,1.9,0,0,1,0-1.9H11.4A1.9,1.9,0,0,1,13.3,0,1.9,1.9,0,0,1,11.4,1.9Z" transform="translate(88.318 129.264)" fill="#121212"/><path d="M4.126,1.9H0A1.9,1.9,0,0,1-1.9,0,1.9,1.9,0,0,1,0-1.9H4.126A1.9,1.9,0,0,1,6.026,0,1.9,1.9,0,0,1,4.126,1.9Z" transform="translate(91.775 134.386)" fill="#121212"/><path d="M20.381,1.9H0A1.9,1.9,0,0,1-1.9,0,1.9,1.9,0,0,1,0-1.9H20.381a1.9,1.9,0,0,1,1.9,1.9A1.9,1.9,0,0,1,20.381,1.9Z" transform="translate(82.68 139.507)" fill="#121212"/><path d="M16.984,1.9H0A1.9,1.9,0,0,1-1.9,0,1.9,1.9,0,0,1,0-1.9H16.984a1.9,1.9,0,0,1,1.9,1.9A1.9,1.9,0,0,1,16.984,1.9Z" transform="translate(78.917 146.683)" fill="#121212"/><path d="M18.781,1.9H0A1.9,1.9,0,0,1-1.9,0,1.9,1.9,0,0,1,0-1.9H18.781a1.9,1.9,0,0,1,1.9,1.9A1.9,1.9,0,0,1,18.781,1.9Z" transform="translate(80.934 152.161)" fill="#121212"/></g></g></svg>