<svg xmlns="http://www.w3.org/2000/svg" xmlns:xlink="http://www.w3.org/1999/xlink" width="280" height="190" viewBox="0 0 280 190"><defs><clipPath id="a"><rect width="280" height="190" fill="none"/></clipPath></defs><g clip-path="url(#a)"><path d="M151.946,104.422l8.043,3.025A24.369,24.369,0,0,1,175.243,124.3l4.954,28.364a8.122,8.122,0,0,1-5.3,9.718l-16.325,5.441H115.178l-16.325-5.441a8.124,8.124,0,0,1-5.3-9.718L98.507,124.3a24.369,24.369,0,0,1,15.254-16.855l7.395-3.025,15.425,2.41Z" fill="#fff"/><path d="M136.875,96.016c10.625,0,15.372-7.823,17.577-14.729,6.239-1.321,4.72-10.139,4.72-10.139s-9.361-8.941-11.61-12.6-6.476-5.654-10.687-2.933c-4.211-2.721-8.437-.731-10.687,2.933s-11.61,12.6-11.61,12.6-1.519,8.818,4.72,10.139C121.5,88.193,126.25,96.016,136.875,96.016Z" fill="#fef1e6"/><path d="M145.91,93.581l6.036,10.841-15.365,2.409-13.075-1.712,4.334-11.538Z" fill="#fef1e6"/><path d="M132.8,75.74a1.428,1.428,0,1,1-1.428-1.428A1.428,1.428,0,0,1,132.8,75.74" fill="#121212"/><path d="M0,2.685A1.425,1.425,0,0,1-1.395,1.553,1.425,1.425,0,0,1-.293-.135l6-1.26A1.425,1.425,0,0,1,7.4-.293,1.425,1.425,0,0,1,6.3,1.395l-6,1.26A1.431,1.431,0,0,1,0,2.685Z" transform="translate(140.89 71.921)" fill="#121212"/><path d="M6.005,2.685a1.43,1.43,0,0,1-.294-.031l-6-1.26a1.425,1.425,0,0,1-1.1-1.687,1.425,1.425,0,0,1,1.687-1.1l6,1.26a1.425,1.425,0,0,1-.291,2.82Z" transform="translate(127.082 71.921)" fill="#121212"/><path d="M143.8,75.74a1.428,1.428,0,1,1-1.428-1.428A1.428,1.428,0,0,1,143.8,75.74" fill="#121212"/><path d="M139.791,85.276c0,1.207-1.306,2.185-2.916,2.185s-2.917-.978-2.917-2.185,1.306-2.185,2.917-2.185,2.916.978,2.916,2.185" fill="#fadbda"/><path d="M136.875,82.141a4.4,4.4,0,0,1,2.631.83,2.77,2.77,0,0,1,0,4.611,4.589,4.589,0,0,1-5.263,0,2.77,2.77,0,0,1,0-4.611A4.4,4.4,0,0,1,136.875,82.141Zm0,4.37c1.047,0,1.966-.577,1.966-1.235s-.919-1.235-1.966-1.235-1.967.577-1.967,1.235S135.827,86.511,136.875,86.511Z" fill="#121212"/><path d="M1.654.95H0A.95.95,0,0,1-.95,0,.95.95,0,0,1,0-.95H1.654A.95.95,0,0,1,2.6,0,.95.95,0,0,1,1.654.95Z" transform="translate(136.048 79.102)" fill="#121212"/><path d="M136.875,97.916c-9.038,0-15.612-5.208-19.062-15.079a7.14,7.14,0,0,1-3.422-2.575,9.925,9.925,0,0,1-1.666-4.223,17.333,17.333,0,0,1-.035-5.118,27.1,27.1,0,0,1,3.575-10.7,21.525,21.525,0,0,1,7.331-7.494,27.723,27.723,0,0,1,26.558,0,21.525,21.525,0,0,1,7.331,7.494,27.1,27.1,0,0,1,3.575,10.7,17.333,17.333,0,0,1-.035,5.118,9.925,9.925,0,0,1-1.666,4.223,7.14,7.14,0,0,1-3.422,2.575C152.487,92.708,145.913,97.916,136.875,97.916Zm0-44.776a21.506,21.506,0,0,0-11.234,2.791A17.724,17.724,0,0,0,119.6,62.05a23.465,23.465,0,0,0-3.126,9.237,1.657,1.657,0,0,1-.022.183,13.468,13.468,0,0,0,.035,4.013,6.1,6.1,0,0,0,1,2.572,3.518,3.518,0,0,0,2.206,1.372,1.9,1.9,0,0,1,1.416,1.281,22.706,22.706,0,0,0,5.171,9.2,13.865,13.865,0,0,0,4.422,3.033,16.766,16.766,0,0,0,12.347,0,13.864,13.864,0,0,0,4.422-3.033,22.706,22.706,0,0,0,5.171-9.2,1.9,1.9,0,0,1,1.416-1.281,3.518,3.518,0,0,0,2.226-1.4,6.2,6.2,0,0,0,.994-2.624,13.535,13.535,0,0,0,.021-3.935q-.016-.093-.023-.187a23.468,23.468,0,0,0-3.126-9.233,17.724,17.724,0,0,0-6.042-6.119A21.506,21.506,0,0,0,136.875,53.14Z" fill="#121212"/><path d="M175.581,54.346,157.46,50.957l15.557-14.052-23.768,4.728-32.9-22.076L123.3,43.874,99.68,35.059,116.8,54.346l-19-1.166,16.616,11.453-9.778,3.761,16.376,4.156,2.691-12.4,3.84,4.313,7.629-10.116-1.214,9.429,11.357-8.264,9,16.722,17.162-4.01L160.2,62.411Z" fill="#ea5457"/><path d="M121.013,74.45a1.9,1.9,0,0,1-.467-.058l-16.376-4.156a1.9,1.9,0,0,1-.215-3.615l6.416-2.468L96.72,54.745a1.9,1.9,0,0,1,1.195-3.461l14.41.884L98.259,36.32a1.9,1.9,0,0,1,2.085-3.041l20.1,7.5-5.914-20.7a1.9,1.9,0,0,1,2.886-2.1l32.24,21.636,22.994-4.574a1.9,1.9,0,0,1,1.644,3.273L161.581,49.8l14.349,2.684a1.9,1.9,0,0,1,.533,3.55L164.316,62.4l8.032,4.138a1.9,1.9,0,0,1-.438,3.539l-17.162,4.01a1.9,1.9,0,0,1-2.105-.95l-7.969-14.806-9.6,6.984a1.9,1.9,0,0,1-3-1.779l.3-2.318-3.312,4.392a1.9,1.9,0,0,1-2.936.119L124.768,64.2l-1.9,8.751a1.9,1.9,0,0,1-1.857,1.5ZM110.9,68.022l8.677,2.2,2.274-10.478a1.9,1.9,0,0,1,3.276-.861l2.3,2.582,6.234-8.266a1.9,1.9,0,0,1,3.4,1.387l-.651,5.056,7.792-5.67a1.9,1.9,0,0,1,2.791.636L155.3,70.052l10.718-2.5L159.325,64.1a1.9,1.9,0,0,1-.012-3.372l10.533-5.522L157.11,52.825a1.9,1.9,0,0,1-.924-3.278l10.445-9.435L149.619,43.5a1.9,1.9,0,0,1-1.429-.286L119.607,24.029l5.521,19.323a1.9,1.9,0,0,1-2.491,2.3L106.17,39.509l12.05,13.576a1.9,1.9,0,0,1-1.537,3.158L104.505,55.5l10.988,7.573a1.9,1.9,0,0,1-.4,3.338Z" fill="#121212"/><path d="M136.581,108.731a1.9,1.9,0,0,1-.417-.046l-13.075-2.941a1.9,1.9,0,0,1-1.335-2.59l4.334-10.309a1.9,1.9,0,0,1,3.5,1.473l-3.454,8.217,10.508,2.364,12.317-1.931-4.711-8.462a1.9,1.9,0,1,1,3.32-1.849l6.036,10.841a1.9,1.9,0,0,1-1.366,2.8l-15.365,2.409A1.9,1.9,0,0,1,136.581,108.731Z" fill="#121212"/><path d="M123.607,98.357l-2.452,6.065,13.369,1.839-.108-3.949a3.072,3.072,0,0,0-2.923-3.1l-7.886-.855" fill="#fff"/><path d="M123.606,96.457a1.908,1.908,0,0,1,.206.011l7.887.855a4.928,4.928,0,0,1,4.092,2.733,5.34,5.34,0,0,1,.526,2.238l.107,3.915a1.9,1.9,0,0,1-2.158,1.934L120.9,106.3a1.9,1.9,0,0,1-1.5-2.594l2.452-6.065A1.9,1.9,0,0,1,123.606,96.457Zm8.909,5.819a1.57,1.57,0,0,0-.179-.63c-.078-.138-.26-.461-1.048-.546l-6.458-.7-1,2.472,8.732,1.2-.047-1.709A.638.638,0,0,1,132.516,102.276Z" fill="#121212"/><path d="M108.156,165.389a15.353,15.353,0,0,1-4.062-.584c-4.36-1.2-7.636-4.346-9.475-9.107a22.336,22.336,0,0,1-1.444-6.7q0-.038,0-.076a119.184,119.184,0,0,1,3.29-23.954,26.714,26.714,0,0,1,3.6-8.406,28.394,28.394,0,0,1,5.021-5.786,30.426,30.426,0,0,1,7.938-5.082l.022-.009,7.395-3.025a1.9,1.9,0,0,1,1.439,3.517l-7.384,3.02a26.478,26.478,0,0,0-6.895,4.427,23.252,23.252,0,0,0-7.435,12.223,117.906,117.906,0,0,0-3.187,23.07,18.876,18.876,0,0,0,1.227,5.5c1.411,3.587,3.732,5.846,6.9,6.715a8.566,8.566,0,0,0,6.749-.506,8.708,8.708,0,0,0,3.036-3.145,14.055,14.055,0,0,0,1.5-3.632,1.9,1.9,0,0,1,3.683.936c-.489,1.926-2.083,6.67-6.3,9.126A10.958,10.958,0,0,1,108.156,165.389Z" fill="#121212"/><path d="M145.344,163.931a51.338,51.338,0,0,1-12.911-2.119c-5.3-1.439-9.511-3.074-9.688-3.143a1.9,1.9,0,0,1-1.2-1.575l-1.368-13.259a1.9,1.9,0,0,1,1.961-2.094c.039,0,3.961.142,8.534-.119,7.407-.423,10.769-1.526,12.286-2.376,5.845-3.277,10.971-6.365,11.022-6.4a1.9,1.9,0,0,1,1.962,3.254c-.052.031-5.226,3.149-11.126,6.456-2.718,1.524-7.415,2.485-13.96,2.857-2.647.15-5.046.172-6.679.161l1.027,9.951c1.57.571,4.69,1.656,8.259,2.624,6.575,1.783,11.665,2.378,14.72,1.719a66.493,66.493,0,0,0,14.6-4.657c3.934-1.9,6.639-4.09,8.039-6.507,1.264-2.184,2.842-6.281,3.181-13.4a44.6,44.6,0,0,0-.605-10.569,21.524,21.524,0,0,0-5.033-9.413,22.777,22.777,0,0,0-9.024-6.1l-.017-.006-8.043-3.025a1.9,1.9,0,1,1,1.338-3.557l8.035,3.022a26.59,26.59,0,0,1,10.529,7.112,25.332,25.332,0,0,1,5.913,11.086,48.241,48.241,0,0,1,.7,11.628c-.207,4.349-1.015,10.5-3.688,15.121a16.52,16.52,0,0,1-3.965,4.5,29.463,29.463,0,0,1-5.709,3.527,70.19,70.19,0,0,1-15.447,4.95A17.385,17.385,0,0,1,145.344,163.931Z" fill="#121212"/><path d="M136.875,113.936a2.652,2.652,0,1,1-2.653,2.652A2.655,2.655,0,0,1,136.875,113.936Zm0,3.4a.752.752,0,1,0-.753-.752A.753.753,0,0,0,136.875,117.34Z" fill="#121212"/><path d="M79.463,123.868H38.1V101.4a3,3,0,0,1,3-3H76.463a3,3,0,0,1,3,3Z" fill="#fff"/><path d="M79.463,125.768H38.1a1.9,1.9,0,0,1-1.9-1.9V101.4a4.906,4.906,0,0,1,4.9-4.9H76.463a4.906,4.906,0,0,1,4.9,4.9v22.466A1.9,1.9,0,0,1,79.463,125.768ZM40,121.968H77.563V101.4a1.1,1.1,0,0,0-1.1-1.1H41.1a1.1,1.1,0,0,0-1.1,1.1Z" fill="#121212"/><rect width="41.364" height="4.67" transform="translate(38.099 123.868)" fill="#fff"/><path d="M0-1.9H41.364a1.9,1.9,0,0,1,1.9,1.9V4.67a1.9,1.9,0,0,1-1.9,1.9H0a1.9,1.9,0,0,1-1.9-1.9V0A1.9,1.9,0,0,1,0-1.9ZM39.464,1.9H1.9v.87H39.464Z" transform="translate(38.099 123.868)" fill="#121212"/><path d="M54.785,112.8h2.668v1.828H52.4v-8.59h2.388Z" fill="#e53935"/><path d="M64.806,110.318a2.6,2.6,0,0,1-1.084,1.023,3.741,3.741,0,0,1-1.773.384H60.766v2.9H58.379v-8.589h3.57a3.881,3.881,0,0,1,1.76.365,2.5,2.5,0,0,1,1.09,1.012,2.947,2.947,0,0,1,.366,1.486,2.843,2.843,0,0,1-.359,1.419M62.729,108.9q0-.939-1.012-.938h-.951v1.864h.951q1.011,0,1.012-.926" fill="#e53935"/><path d="M149.494,98.545l2.452,6.065-13.369,1.839.108-3.949a3.072,3.072,0,0,1,2.923-3.1l7.886-.855" fill="#fff"/><path d="M149.495,96.645a1.9,1.9,0,0,1,1.761,1.188l2.452,6.065a1.9,1.9,0,0,1-1.5,2.594l-13.369,1.839a1.9,1.9,0,0,1-2.158-1.934l.107-3.915a5.34,5.34,0,0,1,.526-2.238,4.928,4.928,0,0,1,4.093-2.733l7.886-.855A1.91,1.91,0,0,1,149.495,96.645Zm-.225,6.415-1-2.472-6.458.7c-.731.079-.958.353-1.082.611a1.705,1.705,0,0,0-.147.546q0,.053,0,.106l-.047,1.709Z" fill="#121212"/><path d="M0,34.359a1.425,1.425,0,0,1-1.425-1.425V0A1.425,1.425,0,0,1,0-1.425,1.425,1.425,0,0,1,1.425,0V32.934A1.425,1.425,0,0,1,0,34.359Z" transform="translate(142.377 106.448)" fill="#121212"/><path d="M48.543,144.1a7.7,7.7,0,0,0,5.257-4.2,6.515,6.515,0,0,0,.816-12.8,5.308,5.308,0,0,0-7.591-7.319A6.872,6.872,0,0,0,36.9,127.957a6.756,6.756,0,0,0,3.515,13.035l.078-.02a7.723,7.723,0,0,0,8.049,3.126" fill="#fff"/><path d="M46.831,145.715h0a9.145,9.145,0,0,1-6.933-3.189,8.182,8.182,0,0,1-4.7-15.409,8.3,8.3,0,0,1,6.328-9.612,8.272,8.272,0,0,1,5.406.6,6.673,6.673,0,0,1,1.974-.789,6.734,6.734,0,0,1,7.753,9.036,7.939,7.939,0,0,1-1.853,14.815l-.079.018a9.091,9.091,0,0,1-5.87,4.3A9.191,9.191,0,0,1,46.831,145.715Zm-6.337-6.168a1.425,1.425,0,0,1,1.17.612,6.3,6.3,0,0,0,5.166,2.707h0a6.336,6.336,0,0,0,1.4-.157,6.265,6.265,0,0,0,4.287-3.426,1.425,1.425,0,0,1,1.119-.8,5,5,0,0,0,.539-.092,5.09,5.09,0,0,0,.1-9.906,1.425,1.425,0,0,1-.79-2.247,3.88,3.88,0,0,0-3.946-6.141,3.832,3.832,0,0,0-1.606.785,1.425,1.425,0,0,1-1.665.106,5.447,5.447,0,0,0-8.026,6.48,1.425,1.425,0,0,1-.914,1.848,5.331,5.331,0,0,0,2.759,10.289l.089-.022A1.425,1.425,0,0,1,40.494,139.547Z" fill="#121212"/><path d="M3.712,3.159a1.9,1.9,0,0,1-.61-.1L-.61,1.8A1.9,1.9,0,0,1-1.8-.61,1.9,1.9,0,0,1,.61-1.8L4.322-.541a1.9,1.9,0,0,1-.61,3.7Z" transform="translate(73.176 144.209)" fill="#121212"/><path d="M18.337,8.117a1.9,1.9,0,0,1-.61-.1L-.61,1.8A1.9,1.9,0,0,1-1.8-.61,1.9,1.9,0,0,1,.61-1.8L18.947,4.417a1.9,1.9,0,0,1-.61,3.7Z" transform="translate(50.193 136.141)" fill="#121212"/><path d="M15.281,7.081a1.9,1.9,0,0,1-.61-.1L-.61,1.8A1.9,1.9,0,0,1-1.8-.61,1.9,1.9,0,0,1,.61-1.8l15.281,5.18a1.9,1.9,0,0,1-.61,3.7Z" transform="translate(49.538 142.249)" fill="#121212"/><path d="M16.9,7.629a1.9,1.9,0,0,1-.61-.1L-.61,1.8A1.9,1.9,0,0,1-1.8-.61,1.9,1.9,0,0,1,.61-1.8l16.9,5.728a1.9,1.9,0,0,1-.61,3.7Z" transform="translate(59.361 133.653)" fill="#121212"/><path d="M87.322,58.849H45.958V36.383a3,3,0,0,1,3-3H84.322a3,3,0,0,1,3,3Z" fill="#fff"/><path d="M87.322,60.749H45.958a1.9,1.9,0,0,1-1.9-1.9V36.383a4.906,4.906,0,0,1,4.9-4.9H84.322a4.906,4.906,0,0,1,4.9,4.9V58.849A1.9,1.9,0,0,1,87.322,60.749Zm-39.464-3.8H85.422V36.383a1.1,1.1,0,0,0-1.1-1.1H48.958a1.1,1.1,0,0,0-1.1,1.1Z" fill="#121212"/><rect width="41.364" height="4.67" transform="translate(45.958 58.85)" fill="#fff"/><path d="M0-1.9H41.364a1.9,1.9,0,0,1,1.9,1.9V4.67a1.9,1.9,0,0,1-1.9,1.9H0a1.9,1.9,0,0,1-1.9-1.9V0A1.9,1.9,0,0,1,0-1.9ZM39.464,1.9H1.9v.87H39.464Z" transform="translate(45.958 58.85)" fill="#121212"/><path d="M62.644,47.779h2.668v1.828H60.256v-8.59h2.388Z" fill="#e53935"/><path d="M72.664,45.3a2.584,2.584,0,0,1-1.084,1.023,3.735,3.735,0,0,1-1.773.384H68.625v2.9H66.237V41.018h3.57a3.885,3.885,0,0,1,1.761.365,2.51,2.51,0,0,1,1.09,1.012,2.957,2.957,0,0,1,.366,1.486,2.843,2.843,0,0,1-.36,1.419m-2.077-1.419q0-.939-1.011-.938h-.951v1.864h.951q1.011,0,1.011-.926" fill="#e53935"/><path d="M56.4,79.08a7.7,7.7,0,0,0,5.257-4.2,6.515,6.515,0,0,0,.816-12.8,5.308,5.308,0,0,0-7.591-7.319A6.872,6.872,0,0,0,44.76,62.939a6.756,6.756,0,0,0,3.515,13.035l.078-.02A7.723,7.723,0,0,0,56.4,79.08" fill="#fff"/><path d="M54.69,80.7h0a9.145,9.145,0,0,1-6.933-3.189,8.182,8.182,0,0,1-4.7-15.409,8.3,8.3,0,0,1,6.328-9.612,8.272,8.272,0,0,1,5.406.6,6.672,6.672,0,0,1,1.974-.789,6.734,6.734,0,0,1,7.753,9.036,7.939,7.939,0,0,1-1.853,14.815l-.079.018a9.091,9.091,0,0,1-5.87,4.3A9.192,9.192,0,0,1,54.69,80.7Zm-6.337-6.168a1.425,1.425,0,0,1,1.17.612,6.3,6.3,0,0,0,5.166,2.707h0a6.336,6.336,0,0,0,1.4-.157,6.265,6.265,0,0,0,4.287-3.426,1.425,1.425,0,0,1,1.119-.8,5,5,0,0,0,.539-.092,5.09,5.09,0,0,0,.1-9.906,1.425,1.425,0,0,1-.79-2.247A3.88,3.88,0,0,0,57.4,55.08a3.832,3.832,0,0,0-1.605.785,1.425,1.425,0,0,1-1.665.106,5.447,5.447,0,0,0-8.026,6.48,1.425,1.425,0,0,1-.914,1.848,5.331,5.331,0,0,0,2.759,10.289l.088-.022A1.425,1.425,0,0,1,48.353,74.529Z" fill="#121212"/><path d="M3.712,3.159a1.9,1.9,0,0,1-.61-.1L-.61,1.8A1.9,1.9,0,0,1-1.8-.61,1.9,1.9,0,0,1,.61-1.8L4.322-.541a1.9,1.9,0,0,1-.61,3.7Z" transform="translate(81.035 79.191)" fill="#121212"/><path d="M18.337,8.117a1.9,1.9,0,0,1-.61-.1L-.61,1.8A1.9,1.9,0,0,1-1.8-.61,1.9,1.9,0,0,1,.61-1.8L18.947,4.417a1.9,1.9,0,0,1-.61,3.7Z" transform="translate(58.051 71.122)" fill="#121212"/><path d="M15.281,7.081a1.9,1.9,0,0,1-.61-.1L-.61,1.8A1.9,1.9,0,0,1-1.8-.61,1.9,1.9,0,0,1,.61-1.8l15.281,5.18a1.9,1.9,0,0,1-.61,3.7Z" transform="translate(57.397 77.23)" fill="#121212"/><path d="M16.9,7.629a1.9,1.9,0,0,1-.61-.1L-.61,1.8A1.9,1.9,0,0,1-1.8-.61,1.9,1.9,0,0,1,.61-1.8l16.9,5.728a1.9,1.9,0,0,1-.61,3.7Z" transform="translate(67.22 68.635)" fill="#121212"/><path d="M236.314,66.483H194.95V44.017a3,3,0,0,1,3-3h35.364a3,3,0,0,1,3,3Z" fill="#fff"/><path d="M236.314,68.383H194.95a1.9,1.9,0,0,1-1.9-1.9V44.017a4.906,4.906,0,0,1,4.9-4.9h35.364a4.906,4.906,0,0,1,4.9,4.9V66.483A1.9,1.9,0,0,1,236.314,68.383Zm-39.464-3.8h37.564V44.017a1.1,1.1,0,0,0-1.1-1.1H197.95a1.1,1.1,0,0,0-1.1,1.1Z" fill="#121212"/><rect width="41.364" height="4.67" transform="translate(194.95 66.483)" fill="#fff"/><path d="M0-1.9H41.364a1.9,1.9,0,0,1,1.9,1.9V4.67a1.9,1.9,0,0,1-1.9,1.9H0a1.9,1.9,0,0,1-1.9-1.9V0A1.9,1.9,0,0,1,0-1.9ZM39.464,1.9H1.9v.87H39.464Z" transform="translate(194.95 66.483)" fill="#121212"/><path d="M211.635,55.413H214.3v1.828h-5.056v-8.59h2.388Z" fill="#e53935"/><path d="M221.656,52.933a2.584,2.584,0,0,1-1.084,1.023,3.736,3.736,0,0,1-1.773.384h-1.182v2.9h-2.388V48.651h3.57a3.885,3.885,0,0,1,1.761.365,2.51,2.51,0,0,1,1.09,1.012,2.957,2.957,0,0,1,.366,1.486,2.843,2.843,0,0,1-.36,1.419m-2.077-1.419q0-.939-1.011-.938h-.951V52.44h.951q1.011,0,1.011-.926" fill="#e53935"/><path d="M231.457,81.534a7.7,7.7,0,0,1-5.257-4.2,6.221,6.221,0,0,1-.692-.119,6.515,6.515,0,0,1-.124-12.678,5.307,5.307,0,0,1,7.591-7.318A6.872,6.872,0,0,1,243.1,65.393a6.755,6.755,0,0,1-3.515,13.034c-.026-.005-.052-.014-.078-.019a7.725,7.725,0,0,1-8.049,3.126" fill="#fff"/><path d="M233.169,83.151a9.189,9.189,0,0,1-2.027-.228,9.091,9.091,0,0,1-5.871-4.3l-.083-.019a7.939,7.939,0,0,1-3.864-13.347,7.976,7.976,0,0,1,2.017-1.467,6.735,6.735,0,0,1,9.726-8.246,8.3,8.3,0,0,1,11.735,9.01,8.18,8.18,0,0,1-4.7,15.408A9.146,9.146,0,0,1,233.169,83.151ZM229.6,57.436a3.9,3.9,0,0,0-2.4.838,3.838,3.838,0,0,0-1.379,2.188,3.877,3.877,0,0,0,.7,3.212,1.425,1.425,0,0,1-.789,2.246,5.09,5.09,0,0,0,.094,9.905l.01,0a4.775,4.775,0,0,0,.534.091,1.425,1.425,0,0,1,1.119.8,6.265,6.265,0,0,0,4.287,3.426,6.286,6.286,0,0,0,6.564-2.55,1.425,1.425,0,0,1,1.439-.586c.055.011.1.022.128.03a5.31,5.31,0,0,0,4.48-1.017,5.33,5.33,0,0,0-1.709-9.268,1.425,1.425,0,0,1-.914-1.848,5.449,5.449,0,0,0-8.025-6.481,1.425,1.425,0,0,1-1.666-.106,3.845,3.845,0,0,0-1.606-.786A3.908,3.908,0,0,0,229.6,57.436Z" fill="#121212"/><path d="M0,3.159A1.9,1.9,0,0,1-1.8,1.868,1.9,1.9,0,0,1-.61-.541L3.1-1.8A1.9,1.9,0,0,1,5.511-.61,1.9,1.9,0,0,1,4.322,1.8L.61,3.057A1.9,1.9,0,0,1,0,3.159Z" transform="translate(203.112 81.645)" fill="#121212"/><path d="M0,8.117A1.9,1.9,0,0,1-1.8,6.826,1.9,1.9,0,0,1-.61,4.417L17.727-1.8A1.9,1.9,0,0,1,20.136-.61,1.9,1.9,0,0,1,18.947,1.8L.61,8.015A1.9,1.9,0,0,1,0,8.117Z" transform="translate(211.47 73.576)" fill="#121212"/><path d="M0,7.081A1.9,1.9,0,0,1-1.8,5.79,1.9,1.9,0,0,1-.61,3.381L14.671-1.8A1.9,1.9,0,0,1,17.08-.61,1.9,1.9,0,0,1,15.891,1.8L.61,6.979A1.9,1.9,0,0,1,0,7.081Z" transform="translate(215.181 79.684)" fill="#121212"/><path d="M0,7.629A1.9,1.9,0,0,1-1.8,6.338,1.9,1.9,0,0,1-.61,3.929L16.287-1.8A1.9,1.9,0,0,1,18.7-.61,1.9,1.9,0,0,1,17.507,1.8L.61,7.527A1.9,1.9,0,0,1,0,7.629Z" transform="translate(203.742 71.088)" fill="#121212"/><path d="M241.528,122.307H200.164V99.841a3,3,0,0,1,3-3h35.364a3,3,0,0,1,3,3Z" fill="#fff"/><path d="M241.528,124.207H200.164a1.9,1.9,0,0,1-1.9-1.9V99.841a4.906,4.906,0,0,1,4.9-4.9h35.364a4.906,4.906,0,0,1,4.9,4.9v22.466A1.9,1.9,0,0,1,241.528,124.207Zm-39.464-3.8h37.564V99.841a1.1,1.1,0,0,0-1.1-1.1H203.164a1.1,1.1,0,0,0-1.1,1.1Z" fill="#121212"/><rect width="41.364" height="4.67" transform="translate(200.164 122.308)" fill="#fff"/><path d="M0-1.9H41.364a1.9,1.9,0,0,1,1.9,1.9V4.67a1.9,1.9,0,0,1-1.9,1.9H0a1.9,1.9,0,0,1-1.9-1.9V0A1.9,1.9,0,0,1,0-1.9ZM39.464,1.9H1.9v.87H39.464Z" transform="translate(200.164 122.308)" fill="#121212"/><path d="M216.85,111.237h2.668v1.828h-5.056v-8.59h2.388Z" fill="#e53935"/><path d="M226.87,108.758a2.584,2.584,0,0,1-1.084,1.023,3.735,3.735,0,0,1-1.773.384h-1.182v2.9h-2.388v-8.589h3.57a3.885,3.885,0,0,1,1.761.365,2.51,2.51,0,0,1,1.09,1.012,2.957,2.957,0,0,1,.366,1.486,2.843,2.843,0,0,1-.36,1.419m-2.077-1.419q0-.939-1.011-.938h-.951v1.864h.951q1.011,0,1.011-.926" fill="#e53935"/><path d="M205.312,142.538a7.7,7.7,0,0,1-5.257-4.2,6.515,6.515,0,0,1-.816-12.8,5.308,5.308,0,0,1,7.591-7.319,6.872,6.872,0,0,1,10.124,8.174,6.756,6.756,0,0,1-3.515,13.035l-.078-.02a7.723,7.723,0,0,1-8.049,3.126" fill="#fff"/><path d="M207.024,144.155a9.191,9.191,0,0,1-2.027-.228,9.091,9.091,0,0,1-5.87-4.3l-.083-.018a7.938,7.938,0,0,1-1.849-14.814,6.737,6.737,0,0,1,9.727-8.247,8.3,8.3,0,0,1,11.734,9.01,8.18,8.18,0,0,1-4.7,15.409A9.145,9.145,0,0,1,207.024,144.155Zm-3.57-25.715a3.9,3.9,0,0,0-2.4.838,3.881,3.881,0,0,0-.68,5.4,1.425,1.425,0,0,1-.79,2.247,5.09,5.09,0,0,0,.1,9.905,5.009,5.009,0,0,0,.543.092,1.425,1.425,0,0,1,1.119.8,6.265,6.265,0,0,0,4.287,3.426,6.285,6.285,0,0,0,6.564-2.549,1.425,1.425,0,0,1,1.49-.575l.089.022a5.313,5.313,0,0,0,4.468-1.02,5.33,5.33,0,0,0-1.709-9.268,1.425,1.425,0,0,1-.914-1.848,5.45,5.45,0,0,0-8.026-6.48,1.425,1.425,0,0,1-1.665-.106,3.831,3.831,0,0,0-1.6-.785A3.911,3.911,0,0,0,203.455,118.44Z" fill="#121212"/><path d="M0,3.159A1.9,1.9,0,0,1-1.8,1.868,1.9,1.9,0,0,1-.61-.541L3.1-1.8A1.9,1.9,0,0,1,5.511-.61,1.9,1.9,0,0,1,4.322,1.8L.61,3.057A1.9,1.9,0,0,1,0,3.159Z" transform="translate(176.967 142.649)" fill="#121212"/><path d="M0,8.117A1.9,1.9,0,0,1-1.8,6.826,1.9,1.9,0,0,1-.61,4.417L17.727-1.8A1.9,1.9,0,0,1,20.136-.61,1.9,1.9,0,0,1,18.947,1.8L.61,8.015A1.9,1.9,0,0,1,0,8.117Z" transform="translate(185.326 134.58)" fill="#121212"/><path d="M0,7.081A1.9,1.9,0,0,1-1.8,5.79,1.9,1.9,0,0,1-.61,3.381L14.671-1.8A1.9,1.9,0,0,1,17.08-.61,1.9,1.9,0,0,1,15.891,1.8L.61,6.979A1.9,1.9,0,0,1,0,7.081Z" transform="translate(189.036 140.688)" fill="#121212"/><path d="M0,7.629A1.9,1.9,0,0,1-1.8,6.338,1.9,1.9,0,0,1-.61,3.929L16.287-1.8A1.9,1.9,0,0,1,18.7-.61,1.9,1.9,0,0,1,17.507,1.8L.61,7.527A1.9,1.9,0,0,1,0,7.629Z" transform="translate(177.597 132.092)" fill="#121212"/><path d="M.187,11.149a1.9,1.9,0,0,1-1.9-1.861L-1.9.039A1.9,1.9,0,0,1-.039-1.9,1.9,1.9,0,0,1,1.9-.039L2.088,9.21A1.9,1.9,0,0,1,.227,11.149Z" transform="translate(115.855 129.867)" fill="#121212"/><path d="M131.979,132.186a3.148,3.148,0,1,1,4.61,4.288l-4.264,4.649,1.062,1.129a8.448,8.448,0,0,1,1.416,2.039l13.376,2.475A3.148,3.148,0,0,1,147,152.951l-9.334-1.725,8.508,5.958a3.148,3.148,0,0,1-3.6,5.164l-10.4-7.284-3.126,3.24a8.441,8.441,0,0,1-11.932-.365l-2.176-2.313a8.442,8.442,0,0,1,.364-11.932l3.976-4.12a8.431,8.431,0,0,1,7.83-2.035,2.982,2.982,0,0,1,.218-.288Z" fill="#fbf1e6"/><path d="M134.285,129.757a4.573,4.573,0,0,1,3.352,7.683l-3.366,3.67.155.165a9.856,9.856,0,0,1,1.305,1.738l12.708,2.351h.007a4.573,4.573,0,0,1-.852,9.066,4.6,4.6,0,0,1-.854-.08l-2.886-.533,3.139,2.2a4.573,4.573,0,0,1-5.235,7.5l-9.4-6.587-2.28,2.364-.049.048a9.86,9.86,0,0,1-13.946-.426L113.9,156.6a9.867,9.867,0,0,1,.4-13.922l3.953-4.1.049-.048a9.816,9.816,0,0,1,6.75-2.674,9.952,9.952,0,0,1,1.509.115l4.368-4.755.006-.007A4.588,4.588,0,0,1,134.285,129.757Zm13.631,18.409-13.372-2.474a1.425,1.425,0,0,1-1.017-.768,7.032,7.032,0,0,0-1.177-1.7l-1.062-1.129a1.425,1.425,0,0,1-.012-1.94l4.264-4.649.007-.008a1.723,1.723,0,0,0-1.261-2.9,1.706,1.706,0,0,0-1.259.546l-4.647,5.059-.046.065-.074.1a1.425,1.425,0,0,1-1.494.541,7.1,7.1,0,0,0-1.712-.21,6.976,6.976,0,0,0-4.773,1.877l-3.951,4.094-.049.048a7.026,7.026,0,0,0-.3,9.918l2.176,2.313a7.016,7.016,0,0,0,9.894.326l3.1-3.214a1.425,1.425,0,0,1,1.843-.178l10.4,7.284a1.708,1.708,0,0,0,.981.309,1.723,1.723,0,0,0,.988-3.137l-8.51-5.959a1.425,1.425,0,0,1,1.076-2.569l9.334,1.725h.007a1.747,1.747,0,0,0,.326.031,1.723,1.723,0,0,0,.323-3.416Z" fill="#121212"/><path d="M133.559,157.288l2.892,3.446a3.146,3.146,0,0,1-4.7,4.184l-.006.007-2.886-3.453a3.146,3.146,0,0,1,4.7-4.184" fill="#fbf1e6"/><path d="M131.221,154.824a4.584,4.584,0,0,1,3.4,1.508l.034.039,2.883,3.435a4.571,4.571,0,0,1-6.7,6.21,1.425,1.425,0,0,1-.178-.178l-2.876-3.441a4.572,4.572,0,0,1,3.446-7.573Zm1.266,3.4a1.721,1.721,0,0,0-2.556,2.306l.022.025,2.782,3.328q.038.036.073.075a1.734,1.734,0,0,0,1.283.57,1.722,1.722,0,0,0,1.289-2.858l-.02-.024Z" fill="#121212"/><path d="M125.685,159.27l1.66,4.181a3.146,3.146,0,0,1-5.777,2.492l-.008.005-1.652-4.186a3.146,3.146,0,0,1,5.777-2.492" fill="#fbf1e6"/><path d="M122.8,155.963a4.576,4.576,0,0,1,4.185,2.732l.02.049,1.655,4.168a4.571,4.571,0,0,1-8.317,3.785,1.424,1.424,0,0,1-.113-.225l-1.646-4.171a4.574,4.574,0,0,1,4.215-6.336Zm1.568,3.861a1.725,1.725,0,0,0-1.568-1.011,1.723,1.723,0,0,0-1.583,2.394l.013.032,1.592,4.033q.025.047.047.1a1.725,1.725,0,0,0,1.577,1.031,1.723,1.723,0,0,0,1.583-2.394l-.012-.029Z" fill="#121212"/><path d="M126.913,127.9a3.148,3.148,0,0,0-4.868-3.993l-4.035,4.849-1.261-.9a8.452,8.452,0,0,0-2.21-1.13L110.293,113.8a3.148,3.148,0,0,0-5.972,2l2.962,9.019-7.046-7.633a3.148,3.148,0,0,0-4.634,4.262l8.613,9.33-2.792,3.532a8.441,8.441,0,0,0,1.961,11.775l2.584,1.846a8.44,8.44,0,0,0,11.775-1.96l3.55-4.492a8.429,8.429,0,0,0,.967-8.032,3.24,3.24,0,0,0,.256-.255Z" fill="#fbf1e6"/><path d="M107.308,110.227a4.567,4.567,0,0,1,4.336,3.124l0,.007,4.034,12.278a9.881,9.881,0,0,1,1.9,1.06l.185.132L120.946,123a4.56,4.56,0,0,1,3.535-1.669h0a4.573,4.573,0,0,1,3.533,7.473l-.006.007-4.127,4.965a9.821,9.821,0,0,1-1.429,8.529l-.041.055-3.529,4.466a9.863,9.863,0,0,1-13.742,2.262l-2.584-1.846a9.877,9.877,0,0,1-2.292-13.763l.042-.055,2.037-2.577-7.787-8.435a4.573,4.573,0,1,1,6.73-6.193l2.6,2.814-.916-2.788a4.577,4.577,0,0,1,4.34-6.019Zm1.632,4.025a1.723,1.723,0,0,0-3.268,1.1l0,.007,2.962,9.019a1.425,1.425,0,0,1-2.4,1.411l-7.046-7.633a1.723,1.723,0,1,0-2.538,2.331l8.611,9.328a1.425,1.425,0,0,1,.071,1.85l-2.77,3.5a7.024,7.024,0,0,0,1.649,9.76l2.584,1.846a6.965,6.965,0,0,0,4.072,1.309,7.036,7.036,0,0,0,5.715-2.938l.041-.055,3.528-4.464a6.994,6.994,0,0,0,.783-6.65,1.425,1.425,0,0,1,.329-1.546c.034-.033.069-.066.1-.1l.056-.053L125.814,127a1.723,1.723,0,0,0-1.333-2.813h0a1.72,1.72,0,0,0-1.334.63l-.006.007-4.035,4.849a1.425,1.425,0,0,1-1.924.248l-1.261-.9a7.034,7.034,0,0,0-1.837-.939,1.425,1.425,0,0,1-.9-.905Z" fill="#121212"/><path d="M101.826,129.7l-3.8-2.4a3.146,3.146,0,0,0-3.516,5.217l-.006.008,3.808,2.4a3.146,3.146,0,0,0,3.517-5.217" fill="#fbf1e6"/><path d="M96.285,125.347h0a4.554,4.554,0,0,1,2.511.753l3.791,2.4.044.029a4.571,4.571,0,0,1-5.094,7.59l-3.794-2.387a1.424,1.424,0,0,1-.2-.156,4.57,4.57,0,0,1,2.748-8.225Zm4.754,5.543L97.262,128.5l-.027-.017a1.712,1.712,0,0,0-.949-.287h0a1.72,1.72,0,0,0-.973,3.141q.047.032.091.068l3.665,2.306.029.019a1.721,1.721,0,0,0,1.942-2.841Z" fill="#121212"/><path d="M100.917,137.769l-4.366-1.085a3.146,3.146,0,0,0-1.695,6.059l0,.009,4.369,1.076a3.146,3.146,0,0,0,1.695-6.059" fill="#fbf1e6"/><path d="M95.724,135.148a4.579,4.579,0,0,1,1.185.156l4.352,1.082.051.014a4.571,4.571,0,0,1-2.445,8.808l-4.354-1.072a1.423,1.423,0,0,1-.239-.082,4.571,4.571,0,0,1,1.45-8.906Zm4.821,4-4.337-1.078-.03-.008a1.721,1.721,0,0,0-.927,3.315q.053.015.1.034l4.209,1.037.033.009a1.721,1.721,0,0,0,.948-3.308Z" fill="#121212"/></g></svg>