<svg xmlns="http://www.w3.org/2000/svg" xmlns:xlink="http://www.w3.org/1999/xlink" width="280" height="190" viewBox="0 0 280 190"><defs><clipPath id="a"><rect width="280" height="190" fill="none"/></clipPath></defs><path d="M201.09,1.9H0A1.9,1.9,0,0,1-1.9,0,1.9,1.9,0,0,1,0-1.9H201.09a1.9,1.9,0,0,1,1.9,1.9A1.9,1.9,0,0,1,201.09,1.9Z" transform="translate(37.863 153.194)" fill="#121212"/><g clip-path="url(#a)"><path d="M237.873,99.45s-7.091-8.311-2.187-13.767-5.89-6.567-.753-12.389-5.863-4.494-.252-11.739c3.332-4.3-1.007-7.142-.3-12.622.895-6.985.026-24-16.607-29.88-5.639-1.994-8.373,1.08-8.373,1.08s-1.407-3.062-6.415-3.074c-11.3-.027-16.667,9.471-16.667,9.471s-1.964-2.628.466-7.809c-7.336,3.611-11.022,7.436-9.636,14.788.83,4.4,5.583,6.462,5.583,6.462s-4.474,3.524-3.415,10.587c.991,6.61-5.534,4.363-4.142,10.856,1.959,9.134-6.257,6.346-5.216,12.731,1.224,7.507-6.629,13.24-6.629,13.24Z" fill="#5e1212"/><path d="M237.873,100.705a1.257,1.257,0,0,1-.2-.016L163.124,88.624a1.255,1.255,0,0,1-.539-2.253,19.712,19.712,0,0,0,3.555-3.6,14.2,14.2,0,0,0,2.123-3.839,9.239,9.239,0,0,0,.452-4.582c-.6-3.651,1.381-5.065,2.969-6.2a6.168,6.168,0,0,0,2.087-2.047,6.675,6.675,0,0,0,.172-4.422,6.447,6.447,0,0,1,.314-4.35,7.05,7.05,0,0,1,2.073-2.3c1.234-1,2.126-1.716,1.741-4.287A13.7,13.7,0,0,1,179.527,42a12.114,12.114,0,0,1,1.171-1.728,10.385,10.385,0,0,1-4.787-6.534c-.733-3.888-.157-7.081,1.76-9.76,1.663-2.323,4.3-4.293,8.555-6.387a1.255,1.255,0,0,1,1.69,1.659,10.021,10.021,0,0,0-1.095,4.413,23.192,23.192,0,0,1,2.758-2.823,21.121,21.121,0,0,1,5.513-3.46,19.906,19.906,0,0,1,7.841-1.58h.051a8.715,8.715,0,0,1,6.654,2.545,8.579,8.579,0,0,1,4.508-1.224,12.164,12.164,0,0,1,4.041.745,24.914,24.914,0,0,1,15.634,15.272,33.12,33.12,0,0,1,1.927,8.9,35.073,35.073,0,0,1-.128,7.049,11.517,11.517,0,0,0,.79,5.265,12.448,12.448,0,0,1,.8,3.707,6.646,6.646,0,0,1-1.536,4.259c-1.051,1.357-1.5,2.421-1.348,3.162a3.832,3.832,0,0,0,1.324,1.706,5.27,5.27,0,0,1,1.873,2.662c.287,1.314-.237,2.671-1.648,4.27-1.175,1.331-1.172,2.1-1.068,2.56a5.964,5.964,0,0,0,1.429,2.2,7.69,7.69,0,0,1,1.91,3.136c.354,1.5-.146,2.97-1.527,4.506-1.681,1.87-1.856,4.429-.522,7.6a19.414,19.414,0,0,0,2.73,4.509,1.255,1.255,0,0,1-.954,2.07ZM166.142,86.57l69,11.166a20.405,20.405,0,0,1-1.354-2.637c-1.719-4.091-1.384-7.637.969-10.255,1.052-1.171,1.047-1.845.951-2.251a5.907,5.907,0,0,0-1.375-2.081,7.907,7.907,0,0,1-1.971-3.275c-.354-1.565.181-3.127,1.634-4.773.791-.9,1.174-1.633,1.078-2.074a3.55,3.55,0,0,0-1.119-1.35,5.862,5.862,0,0,1-2.081-3.035c-.326-1.538.252-3.2,1.819-5.219,1.527-1.971,1.052-3.437.334-5.657a13.742,13.742,0,0,1-.892-6.357,32.7,32.7,0,0,0-1.662-14.756,22.408,22.408,0,0,0-14.119-13.782,9.673,9.673,0,0,0-3.2-.6,5.352,5.352,0,0,0-3.812,1.332,1.253,1.253,0,0,1-1.134.422,1.222,1.222,0,0,1-.94-.724c-.1-.184-1.3-2.342-5.281-2.351h-.045a17.414,17.414,0,0,0-6.807,1.358,18.581,18.581,0,0,0-4.839,3.014,19.144,19.144,0,0,0-3.882,4.464,1.254,1.254,0,0,1-2.1.132,5.7,5.7,0,0,1-.915-2.535,9.623,9.623,0,0,1,.157-3.4,15.375,15.375,0,0,0-4.839,4.1c-1.518,2.121-1.942,4.61-1.335,7.834.7,3.706,4.807,5.525,4.849,5.543a1.249,1.249,0,0,1,.281,2.135,8.551,8.551,0,0,0-1.844,2.373,11,11,0,0,0-1.11,7.044c.6,3.993-1.277,5.507-2.647,6.612a4.9,4.9,0,0,0-1.408,1.472,4.12,4.12,0,0,0-.1,2.695,8.975,8.975,0,0,1-.4,6.1,8.329,8.329,0,0,1-2.856,2.935c-1.481,1.06-2.3,1.644-1.953,3.757a11.729,11.729,0,0,1-.575,5.857,16.771,16.771,0,0,1-2.522,4.542A22.4,22.4,0,0,1,166.142,86.57Z" fill="#121212"/><path d="M213.217,80.319l-6.512-1.807V73.776H192.934V78.51l-5.043.7V97.972l13.963.479Z" fill="#fef1e6"/><path d="M192.934,71.911h13.771a1.865,1.865,0,0,1,1.865,1.865v3.318l5.146,1.428a1.864,1.864,0,0,1,1.081,2.787L203.434,99.441a1.864,1.864,0,0,1-1.644.873l-13.963-.479a1.865,1.865,0,0,1-1.8-1.863V79.213a1.864,1.864,0,0,1,1.607-1.847l3.436-.479V73.776A1.865,1.865,0,0,1,192.934,71.911Zm11.907,3.729H194.8V78.51a1.865,1.865,0,0,1-1.607,1.847l-3.436.479V96.17l11.089.38,9.465-15.1-4.1-1.139a1.864,1.864,0,0,1-1.366-1.8Z" fill="#121212"/><path d="M208.336,30.574l7.3,4.594,3.348,14.467s5.449,1.691,4.805,6.718c-.468,3.654-1.769,5.376-6.273,6.17-3.157,6.77-9.111,14.8-19.96,13.406h0c-10.849-1.39-14.435-9.334-14.395-18.006-.352-5.794,1.773-15.912,1.773-15.912l16.725,1.9s-2.289-7.561.411-9.9c4.5-3.9,6.267-3.441,6.267-3.441" fill="#fef1e6"/><path d="M199.946,55.382a1.765,1.765,0,1,0,1.974-1.527,1.764,1.764,0,0,0-1.974,1.527" fill="#121212"/><path d="M187.906,53.942a1.765,1.765,0,1,0,1.974-1.527,1.764,1.764,0,0,0-1.974,1.527" fill="#121212"/><path d="M205.259,53.894a1.9,1.9,0,0,1-1.526-.766c-.787-1.058-2.811-1.285-4.6-1.486-.306-.034-.623-.07-.927-.109a1.9,1.9,0,1,1,.484-3.769c.275.035.563.068.868.1a20.53,20.53,0,0,1,3.616.634,6.674,6.674,0,0,1,3.606,2.361,1.9,1.9,0,0,1-1.523,3.034Z" fill="#121212"/><path d="M184.383,51.005a1.9,1.9,0,0,1-1.19-3.382,6.078,6.078,0,0,1,5.678-1.2c.205.041.4.079.585.109a1.9,1.9,0,0,1-.6,3.752c-.254-.041-.491-.088-.721-.134-1.146-.227-1.62-.322-2.56.433A1.892,1.892,0,0,1,184.383,51.005Z" fill="#121212"/><path d="M.846,1.04a.941.941,0,0,1-.119-.008L-.118.924A.932.932,0,0,1-.924-.118.932.932,0,0,1,.118-.924l.845.108A.932.932,0,0,1,.846,1.04Z" transform="translate(189.924 60.627)" fill="#121212"/><path d="M207.34,28.824a3.912,3.912,0,0,1,1.695.345,1.564,1.564,0,0,1,.137.077l7.3,4.594a1.568,1.568,0,0,1,.693.974l3.163,13.666a10.442,10.442,0,0,1,2.3,1.416,7.759,7.759,0,0,1,2.1,2.6,7.071,7.071,0,0,1,.624,4.055c-.381,2.978-1.294,4.26-2.047,5.044a8.753,8.753,0,0,1-4.706,2.314,29.528,29.528,0,0,1-6.379,8.895,17.657,17.657,0,0,1-12.229,4.851,20.727,20.727,0,0,1-2.607-.169l-.02,0c-5.358-.686-9.44-2.838-12.132-6.395A19.7,19.7,0,0,1,181.6,60.44v-.019c-.359-5.907,1.7-18.154,1.792-18.673a1.568,1.568,0,0,1,1.724-1.3L199.567,42.1c-.1-.487-.185-1.028-.249-1.6-.345-3.086.154-5.577,1.484-7.4C203.37,29.565,205.775,28.824,207.34,28.824Zm.305,3.168a1.367,1.367,0,0,0-.305-.031c-1.166,0-2.625,1.085-4,2.977-1.053,1.445-1.075,3.6-.908,5.145a16.635,16.635,0,0,0,.709,3.309,1.57,1.57,0,0,1-1.657,2.079l-15.237-1.733c-.537,3.441-1.784,12.076-1.519,16.482a16.648,16.648,0,0,0,3,8.976,12.007,12.007,0,0,0,3.828,3.284,17.442,17.442,0,0,0,6.183,1.89l.019,0a17.592,17.592,0,0,0,2.227.146,14.429,14.429,0,0,0,5.653-1.117,15.685,15.685,0,0,0,4.459-2.911,27.089,27.089,0,0,0,6-8.63,1.568,1.568,0,0,1,1.149-.882,6.807,6.807,0,0,0,3.791-1.554,5.516,5.516,0,0,0,1.2-3.271,3.992,3.992,0,0,0-1.535-3.778,7.3,7.3,0,0,0-2.183-1.244,1.545,1.545,0,0,1-1.059-1.143l-3.2-13.837Z" fill="#121212"/><path d="M159.138,133.253c-.636,4.693-6.029,8.887-12.488,11.016-6.569,2.165-26.338,5.757-26.338,5.757l-4.106-16.59,28.141-10.186,15.232-35.083c2.771-5.084-2.906-14.391,6.333-12.934l22.757,4.121-2.248,47.224-5.341,26.616-21.942-.088Z" fill="#ea5457"/><path d="M181.08,155.059h-.008l-21.942-.088a1.865,1.865,0,0,1-1.857-1.864V140.241q-.467.459-.988.9a27.182,27.182,0,0,1-9.052,4.9c-6.616,2.18-25.776,5.673-26.588,5.821a1.864,1.864,0,0,1-2.143-1.387l-4.106-16.59a1.865,1.865,0,0,1,1.175-2.2l27.385-9.912,14.912-34.346q.033-.076.073-.15c.759-1.393.663-3.5.569-5.53-.118-2.574-.24-5.236,1.438-6.994a5.569,5.569,0,0,1,4.207-1.536,13.272,13.272,0,0,1,2.046.176l.042.007L189,77.519a1.864,1.864,0,0,1,1.53,1.923l-2.248,47.224a1.866,1.866,0,0,1-.034.278l-5.341,26.616A1.865,1.865,0,0,1,181.08,155.059ZM161,151.249l18.551.074,5.012-24.974L186.729,80.9,165.6,77.072a9.524,9.524,0,0,0-1.445-.127,2.3,2.3,0,0,0-1.511.382c-.577.6-.488,2.539-.41,4.247.11,2.4.235,5.115-.978,7.406l-15.2,35.012A1.864,1.864,0,0,1,144.982,125l-26.562,9.615,3.281,13.255c4.936-.924,19.116-3.644,24.367-5.375,6.222-2.051,10.732-5.867,11.224-9.5a1.865,1.865,0,0,1,3.712.25Z" fill="#121212"/><path d="M200.236,125.184l8.028-26.514-20.372-.7-.663,27.212Z" fill="#ea5457"/><path d="M200.236,127.049H187.229a1.865,1.865,0,0,1-1.864-1.91l.663-27.212a1.865,1.865,0,0,1,1.928-1.818l20.372.7a1.864,1.864,0,0,1,1.721,2.4l-8.028,26.514A1.864,1.864,0,0,1,200.236,127.049Zm-11.1-3.729h9.713l6.924-22.869L189.71,99.9Z" fill="#121212"/><path d="M226.044,153.106l13.737-51.937c2.864-8.3,5.312-22.682-6.6-19.877l-19.962-.973L185.8,127.646l-6.421,25.46Z" fill="#ea5457"/><path d="M226.044,154.971H179.381a1.865,1.865,0,0,1-1.808-2.32l6.421-25.46a1.864,1.864,0,0,1,.195-.479L211.6,79.384a1.865,1.865,0,0,1,1.7-.928l19.707.961a13.848,13.848,0,0,1,2.948-.347,7.219,7.219,0,0,1,6.219,2.968c1.539,2.16,2.105,5.409,1.683,9.658a46.821,46.821,0,0,1-2.3,10.015l-13.72,51.871A1.865,1.865,0,0,1,226.044,154.971Zm-44.27-3.729h42.834l13.37-50.549q.018-.066.04-.132a43.08,43.08,0,0,0,2.135-9.233c.326-3.278-.023-5.742-1.009-7.125a3.487,3.487,0,0,0-3.182-1.4,10.43,10.43,0,0,0-2.356.308,1.865,1.865,0,0,1-.518.047l-18.827-.918-26.715,46.118Z" fill="#121212"/><path d="M1.754-.954A2.708,2.708,0,1,1-.954,1.754,2.711,2.711,0,0,1,1.754-.954Zm0,3.507a.8.8,0,1,0-.8-.8A.8.8,0,0,0,1.754,2.553Z" transform="translate(190.768 129.464)" fill="#121212"/><path d="M192.822,63.614c-1.3.03-1.556.864-2.154.822s-.849-.822-1.589-.822-1.188,1.169-1.188,1.169.227,4.842,3.845,5.141c3.958.326,5.916-5.227,5.916-5.227a25.185,25.185,0,0,0-4.83-1.083" fill="#ea5457"/><path d="M186.421,128.443a1.865,1.865,0,0,1-1.268-3.231l23.387-21.693-1.444-1.159a1.865,1.865,0,0,1-.062-2.856l12.489-10.952-1.257-7.592a1.864,1.864,0,0,1,3.679-.609l1.426,8.615a1.865,1.865,0,0,1-.61,1.706l-11.6,10.171,1.4,1.12a1.864,1.864,0,0,1,.1,2.821l-24.971,23.162A1.858,1.858,0,0,1,186.421,128.443Z" fill="#121212"/><path d="M186.419,128.443a1.865,1.865,0,0,1-1.813-1.435l-6.351-26.8a1.865,1.865,0,0,1,1.483-2.265l1.761-.318-5.33-14.476a1.864,1.864,0,0,1,.707-2.19l5.964-4.022a1.865,1.865,0,1,1,2.085,3.092l-4.751,3.2,5.593,15.189a1.865,1.865,0,0,1-1.419,2.479l-2.01.363,5.9,24.881a1.866,1.866,0,0,1-1.816,2.295Z" fill="#121212"/><path d="M212.909,92.872l18.506-4.816,7.764,38.2s-.293,8.891-8.5,10.33-12.311-4.511-13.777-10.33-3.993-33.383-3.993-33.383" fill="#ea5457"/><path d="M231.415,86.191a1.864,1.864,0,0,1,1.827,1.493l7.764,38.2a1.864,1.864,0,0,1,.036.433,15.358,15.358,0,0,1-1.34,5.34,11.392,11.392,0,0,1-8.7,6.765,15.84,15.84,0,0,1-2.723.245,12.005,12.005,0,0,1-9.042-3.908,18.558,18.558,0,0,1-4.143-8.048c-1.483-5.892-3.938-32.537-4.042-33.668a1.864,1.864,0,0,1,1.387-1.975l18.506-4.816A1.864,1.864,0,0,1,231.415,86.191Zm5.887,40.188L229.98,90.356l-15.067,3.921c.56,5.916,2.582,26.7,3.8,31.523a14.85,14.85,0,0,0,3.253,6.415,8.322,8.322,0,0,0,6.315,2.723,12.105,12.105,0,0,0,2.079-.189,7.7,7.7,0,0,0,5.906-4.541A11.919,11.919,0,0,0,237.3,126.379Z" fill="#121212"/><path d="M226.629,52.91,219.037,51.1l-3.177-.759-2.174,9.1,3.177.759-4.1,17.149-3.177-.759-2.174,9.1,3.177.759,7.592,1.814,3.177.759,8.446-35.345Z" fill="#121212"/><path d="M215.859,48.437a1.9,1.9,0,0,1,.443.052l13.946,3.332a1.9,1.9,0,0,1,1.406,2.29l-8.446,35.345a1.9,1.9,0,0,1-2.289,1.406L206.973,87.53a1.9,1.9,0,0,1-1.406-2.29l2.174-9.1a1.9,1.9,0,0,1,2.289-1.406l1.329.318L214.574,61.6l-1.329-.317a1.9,1.9,0,0,1-1.406-2.29l2.174-9.1A1.9,1.9,0,0,1,215.859,48.437Zm11.658,6.639-10.25-2.449-1.291,5.4,1.329.317a1.9,1.9,0,0,1,1.406,2.29l-4.1,17.149a1.9,1.9,0,0,1-2.289,1.406l-1.329-.318-1.291,5.4,10.25,2.449Z" fill="#121212"/><path d="M227.869,84.712l.586-4.287c.2-2.242.082-2.34-.588-5.862.024-.087-.014.093,0,0l.96-6.181a2.378,2.378,0,1,0-4.7-.73l-.894,5.756-2.964-.1a6.377,6.377,0,0,0-6.911,5.795l-.585,4.286a6.377,6.377,0,0,0,5.795,6.911l2.391.209a6.377,6.377,0,0,0,6.91-5.8" fill="#fbf1e6"/><path d="M221.523,91.988h0c-.229,0-.461-.01-.69-.03l-2.391-.209a7.843,7.843,0,0,1-7.119-8.489q0-.035.008-.07l.581-4.253a7.834,7.834,0,0,1,7.793-7.112c.216,0,.435.009.652.027l1.636.056.7-4.479a3.835,3.835,0,1,1,7.578,1.178l-.921,5.931c.069.36.132.682.188.973a13.522,13.522,0,0,1,.373,5.042q0,.035-.008.07l-.581,4.254a7.834,7.834,0,0,1-7.794,7.112Zm-7.3-8.441a4.927,4.927,0,0,0,4.474,5.3l2.391.209c.145.013.292.019.437.019h0a4.921,4.921,0,0,0,4.9-4.491q0-.035.008-.07l.581-4.252a10.785,10.785,0,0,0-.334-4.2c-.061-.314-.129-.663-.2-1.057a1.506,1.506,0,0,1-.043-.664v-.011l.959-6.176a.921.921,0,0,0-.769-1.052.947.947,0,0,0-.146-.011.927.927,0,0,0-.907.781l-.894,5.756a1.456,1.456,0,0,1-1.489,1.232l-2.964-.1-.077,0c-.145-.013-.293-.019-.438-.019a4.921,4.921,0,0,0-4.895,4.491q0,.035-.008.07Z" fill="#121212"/><line x2="4.082" y2="0.358" transform="translate(223.572 82.577)" fill="#fbf1e6"/><path d="M4.083,1.308q-.042,0-.084,0L-.083.946A.95.95,0,0,1-.946-.083.95.95,0,0,1,.083-.946l4.082.358a.95.95,0,0,1-.082,1.9Z" transform="translate(223.572 82.577)" fill="#121212"/><line x2="4.082" y2="0.358" transform="translate(223.28 85.899)" fill="#fbf1e6"/><path d="M4.083,1.308q-.042,0-.084,0L-.083.946A.95.95,0,0,1-.946-.083.95.95,0,0,1,.083-.946l4.082.358a.95.95,0,0,1-.082,1.9Z" transform="translate(223.28 85.899)" fill="#121212"/><path d="M90.89,58.934a5.571,5.571,0,0,0-.449-.513q-.279-.285-.577-.548a3.6,3.6,0,0,0-.542-.406,7.031,7.031,0,0,0,1.061-.834,9.929,9.929,0,0,0,.955-1.04,7,7,0,0,0,.706-1.062L93.8,55.542a8.291,8.291,0,0,1-.819,1.283,12.492,12.492,0,0,1-1.033,1.19,8.508,8.508,0,0,1-1.054.919m2.693,1.553a5.081,5.081,0,0,0-.121-.67c-.063-.256-.136-.513-.221-.769a4.163,4.163,0,0,0-.285-.67,3.014,3.014,0,0,0,1.261-.178.63.63,0,0,0,.335-.6V53.861q-.942,0-1.817.014T91.2,53.9c-.442.009-.767.024-.976.043V51.923q.568.057,1.667.072t2.665.014V49.5h2.195v2.508q1.722,0,2.821-.036l1.582-.05v2.024q-.528-.043-1.539-.064t-2.864-.022v4.19a2.811,2.811,0,0,1-.265,1.3,1.739,1.739,0,0,1-.947.79,6.307,6.307,0,0,1-1.952.349m6.555-1.624a8.4,8.4,0,0,0-.713-1.09q-.456-.606-.976-1.176a7.978,7.978,0,0,0-.962-.912l1.468-1.169a10.506,10.506,0,0,1,1.047.906q.549.534,1.055,1.1a9.246,9.246,0,0,1,.819,1.033,3.806,3.806,0,0,0-.612.356c-.219.152-.428.312-.627.478a4.382,4.382,0,0,0-.5.477m.327-7.623a1.436,1.436,0,0,1-1.439-1.44,1.375,1.375,0,0,1,.42-1.005,1.394,1.394,0,0,1,1.019-.42,1.433,1.433,0,0,1,0,2.865m0-.7a.741.741,0,1,0,0-1.482.737.737,0,0,0-.534.214.74.74,0,0,0,0,1.055.74.74,0,0,0,.534.213" fill="#121212"/><path d="M106.935,60.843a5.9,5.9,0,0,0-.314-.67c-.133-.247-.272-.484-.42-.712a3.366,3.366,0,0,0-.435-.556,6.767,6.767,0,0,0,2.908-1.2A3.457,3.457,0,0,0,109.9,55.4q-1.182.013-2.252.043T105.8,55.5c-.517.02-.881.038-1.09.058l-.128-2.024q.284.028,1.083.036t1.923-.008l2.366-.028V51.88a28.04,28.04,0,0,1-2.978.242,3.755,3.755,0,0,0-.136-.67q-.106-.369-.234-.726a4.158,4.158,0,0,0-.257-.584q.954.014,2.023-.057t2.137-.236q1.069-.163,2.024-.406a12.414,12.414,0,0,0,1.682-.541l.826,1.795a12.438,12.438,0,0,1-1.318.434q-.749.208-1.574.379v1.981q1.082-.03,2.023-.065t1.61-.078c.447-.029.75-.052.913-.072v2.109c-.191-.009-.513-.016-.97-.021s-.995-.007-1.617-.007-1.289.005-2,.014a5.51,5.51,0,0,1-1.49,3.5,8.156,8.156,0,0,1-3.683,1.973" fill="#121212"/><path d="M122.14,56.156a5.2,5.2,0,0,0-.193-.755q-.15-.471-.334-.927a3.749,3.749,0,0,0-.343-.684l1.568-.57a5.651,5.651,0,0,1,.335.727q.179.456.335.926a7.825,7.825,0,0,1,.227.8Zm1.026,4.474a5.607,5.607,0,0,0-.413-.848,3.676,3.676,0,0,0-.542-.734,7.891,7.891,0,0,0,4.054-2.094,7.075,7.075,0,0,0,1.817-4.062l1.7.286a10,10,0,0,1-1.212,3.6,7.379,7.379,0,0,1-2.229,2.358,12.643,12.643,0,0,1-3.171,1.5m1.368-5.016a4.639,4.639,0,0,0-.164-.777c-.091-.318-.19-.631-.3-.94a3.708,3.708,0,0,0-.306-.691l1.582-.5a5.967,5.967,0,0,1,.306.734q.164.463.307.941a5.367,5.367,0,0,1,.185.8Z" fill="#121212"/><path d="M135.335,60.473a1.114,1.114,0,0,1-.819-.335,1.1,1.1,0,0,1-.335-.805,1.155,1.155,0,0,1,2.309,0,1.087,1.087,0,0,1-.342.805,1.125,1.125,0,0,1-.813.335" fill="#121212"/><path d="M139.781,60.473a1.114,1.114,0,0,1-.819-.335,1.1,1.1,0,0,1-.335-.805,1.155,1.155,0,0,1,2.309,0,1.087,1.087,0,0,1-.342.805,1.125,1.125,0,0,1-.813.335" fill="#121212"/><path d="M144.227,60.473a1.113,1.113,0,0,1-.819-.335,1.1,1.1,0,0,1-.335-.805,1.154,1.154,0,0,1,2.308,0,1.087,1.087,0,0,1-.342.805,1.121,1.121,0,0,1-.812.335" fill="#121212"/><rect width="51.122" height="8.938" transform="translate(68.684 162.258)" fill="#fff"/><path d="M0-1.9H51.122a1.9,1.9,0,0,1,1.9,1.9V8.938a1.9,1.9,0,0,1-1.9,1.9H0a1.9,1.9,0,0,1-1.9-1.9V0A1.9,1.9,0,0,1,0-1.9ZM49.222,1.9H1.9V7.038H49.222Z" transform="translate(68.684 162.258)" fill="#121212"/><path d="M68.684,153.319H96.907l22.9,8.938H68.684Z" fill="#fff"/><path d="M68.684,151.419H96.907a1.9,1.9,0,0,1,.691.13l22.9,8.938a1.9,1.9,0,0,1-.691,3.67H68.684a1.9,1.9,0,0,1-1.9-1.9v-8.938A1.9,1.9,0,0,1,68.684,151.419Zm27.865,3.8H70.584v5.138h39.129Z" fill="#121212"/><path d="M22.9,9.413a.474.474,0,0,1-.173-.033L-.173.442a.475.475,0,0,1-.27-.615.475.475,0,0,1,.615-.27L23.072,8.5a.475.475,0,0,1-.173.918Z" transform="translate(80.68 153.319)" fill="#121212"/><path d="M22.9,9.413a.474.474,0,0,1-.173-.033L-.173.442a.475.475,0,0,1-.27-.615.475.475,0,0,1,.615-.27L23.072,8.5a.475.475,0,0,1-.173.918Z" transform="translate(87.603 153.319)" fill="#121212"/><path d="M22.9,9.413a.474.474,0,0,1-.173-.033L-.173.442a.475.475,0,0,1-.27-.615.475.475,0,0,1,.615-.27L23.072,8.5a.475.475,0,0,1-.173.918Z" transform="translate(72.675 153.319)" fill="#121212"/><path d="M19.755,8.186a.474.474,0,0,1-.173-.033L-.173.442a.475.475,0,0,1-.27-.615.475.475,0,0,1,.615-.27L19.928,7.269a.475.475,0,0,1-.173.918Z" transform="translate(68.684 154.546)" fill="#121212"/><path d="M34.937.475H0A.475.475,0,0,1-.475,0,.475.475,0,0,1,0-.475H34.937A.475.475,0,0,1,35.412,0,.475.475,0,0,1,34.937.475Z" transform="translate(68.642 156.397)" fill="#121212"/><path d="M41.86.475H0A.475.475,0,0,1-.475,0,.475.475,0,0,1,0-.475H41.86A.475.475,0,0,1,42.335,0,.475.475,0,0,1,41.86.475Z" transform="translate(68.642 158.838)" fill="#121212"/><path d="M11.223,4.856a.474.474,0,0,1-.173-.033L-.173.442a.475.475,0,0,1-.27-.615.475.475,0,0,1,.615-.27L11.4,3.939a.475.475,0,0,1-.173.918Z" transform="translate(68.684 157.877)" fill="#121212"/><path d="M119.513,144.144l-1.3-4.125a6.376,6.376,0,0,0-7.79-4.544l-2.9.6-1.854-5.522a2.379,2.379,0,0,0-4.51,1.514l1.992,5.93c.012.037.006.026,0,.01-.064,3.574-.161,3.692.412,5.868l.5,1.589a3.307,3.307,0,0,0-2.69,1.346L98.7,150.726a3.312,3.312,0,0,0,5.365,3.884l.007.007,2.5-3.684a6.369,6.369,0,0,0,6.078,1.612l2.321-.611a6.377,6.377,0,0,0,4.544-7.79" fill="#fbf1e6"/><path d="M101.394,157.388a4.738,4.738,0,0,1-3.862-7.475l2.656-3.9.03-.042a4.73,4.73,0,0,1,2.008-1.567l-.03-.1q-.01-.033-.019-.066a13.483,13.483,0,0,1-.484-5.015c.007-.3.014-.635.021-1.008L99.8,132.522a3.8,3.8,0,1,1,7.212-2.421l1.452,4.324,1.631-.338a7.794,7.794,0,0,1,9.483,5.534l1.292,4.094q.01.033.019.066a7.811,7.811,0,0,1-5.56,9.531l-2.321.611a7.794,7.794,0,0,1-1.984.258h0a7.746,7.746,0,0,1-4.131-1.187l-1.641,2.422a1.425,1.425,0,0,1-.162.2A4.763,4.763,0,0,1,101.394,157.388Zm1.134-9.751-2.647,3.891-.018.025a1.892,1.892,0,0,0,.442,2.635,1.885,1.885,0,0,0,2.615-.422q.033-.045.069-.087l2.4-3.545a1.425,1.425,0,0,1,2.175-.221,5,5,0,0,0,3.462,1.418h0a4.942,4.942,0,0,0,1.258-.164l2.321-.611a4.958,4.958,0,0,0,3.537-6.018l-1.291-4.09q-.01-.033-.019-.066a4.944,4.944,0,0,0-6.049-3.529l-.074.017-2.9.6a1.425,1.425,0,0,1-1.64-.942l-1.854-5.522a.954.954,0,1,0-1.808.607l1.992,5.93,0,.014a1.466,1.466,0,0,1,.065.636c-.008.408-.016.769-.023,1.093a10.791,10.791,0,0,0,.382,4.193l.491,1.556a1.425,1.425,0,0,1-1.366,1.853h-.009A1.872,1.872,0,0,0,102.529,147.637Z" fill="#121212"/><path d="M103.144,138.008V138c-.022-.048-.01-.014,0,.009" fill="#fbf1e6"/><path d="M103.143,139.433A1.433,1.433,0,1,1,104.569,138v.009a1.426,1.426,0,0,1-1.426,1.425Z" fill="#121212"/><path d="M106.792,87.457c3.97,2.536,6.084,7.523,3.36,13.024,3.059,2.625,1.055,7.748-.851,10.124.152,4.675-.523,11.989-.523,11.989l-.669,22.195-32.007,7a17.692,17.692,0,0,1-6.85,5.513c-3.09,1.231-8.82-.594-9.8-2.313-4.674,3.455-10.673,2.42-12.74-3.665-1.107-3.259,2.339-7.341,2.339-7.341s-5.7-7.678,1.272-14.08c-5.968-6.054,2.195-13.728,6.178-13.241-1.008-5.567.249-10.37,8.7-13.493-.3-6.46,7.059-12.737,13.118-9.47.745-4.421,8.12-9.675,15.327-4.633,1.769-2.536,7.954-4.93,13.153-1.609" fill="#ea5457"/><path d="M101.2,83.967a12.235,12.235,0,0,1,6.6,1.919,11.444,11.444,0,0,1,4.551,14.239,7.4,7.4,0,0,1,1.074,5.854,13.809,13.809,0,0,1-2.24,5.227c.076,4.539-.475,10.781-.541,11.5l-.667,22.138a1.864,1.864,0,0,1-1.465,1.765l-31.346,6.856a19.121,19.121,0,0,1-7.219,5.568,8.468,8.468,0,0,1-3.132.535,15.388,15.388,0,0,1-5.182-.979,10.786,10.786,0,0,1-2.41-1.232,10.817,10.817,0,0,1-5.323,1.458,8.922,8.922,0,0,1-5.377-1.76,10.527,10.527,0,0,1-3.575-5.133,8.116,8.116,0,0,1,.856-6.335,16.049,16.049,0,0,1,1-1.7,14.968,14.968,0,0,1-1.559-4.176,11.271,11.271,0,0,1,2.581-9.911,8.25,8.25,0,0,1-1.375-3.355,8.464,8.464,0,0,1,.608-4.7,12.366,12.366,0,0,1,3.875-4.909,10.487,10.487,0,0,1,3.467-1.814,15.037,15.037,0,0,1-.012-2.542,11.039,11.039,0,0,1,1.277-4.38c1.415-2.6,3.94-4.643,7.7-6.22a12.158,12.158,0,0,1,3.4-7.256,11.333,11.333,0,0,1,8.046-3.691,9.134,9.134,0,0,1,2.386.314,11.724,11.724,0,0,1,10.292-6.114,12.054,12.054,0,0,1,5.846,1.539A10.625,10.625,0,0,1,95.8,85.135,13.086,13.086,0,0,1,101.2,83.967Zm5.094,59.312.625-20.741q0-.058.007-.115c.007-.072.663-7.254.516-11.757a1.864,1.864,0,0,1,.409-1.227c1.361-1.7,3.141-5.783,1.091-7.542a1.864,1.864,0,0,1-.457-2.242A8.44,8.44,0,0,0,109.2,93.4a8.019,8.019,0,0,0-3.41-4.371A8.4,8.4,0,0,0,101.2,87.7c-2.985,0-5.322,1.425-6.027,2.437a1.865,1.865,0,0,1-2.6.461,8.8,8.8,0,0,0-5.087-1.724,8.187,8.187,0,0,0-5.026,1.772,6.03,6.03,0,0,0-2.307,3.367,1.864,1.864,0,0,1-2.723,1.331,5.471,5.471,0,0,0-2.622-.669,7.606,7.606,0,0,0-5.348,2.536,8.135,8.135,0,0,0-2.4,5.875,1.864,1.864,0,0,1-1.216,1.836c-3.536,1.307-5.794,2.934-6.9,4.972-.907,1.667-1.1,3.713-.606,6.44a1.864,1.864,0,0,1-2.061,2.183,1.228,1.228,0,0,0-.148-.008,5.421,5.421,0,0,0-2.924,1.3,8.71,8.71,0,0,0-2.7,3.389,4.63,4.63,0,0,0,1.152,5.4,1.864,1.864,0,0,1-.067,2.682,8.638,8.638,0,0,0-2.586,3.958,7.783,7.783,0,0,0-.122,3.623,11.138,11.138,0,0,0,1.674,4.018,1.847,1.847,0,0,1-.075,2.311c-.714.854-2.619,3.711-2,5.539a6.742,6.742,0,0,0,2.272,3.343,5.221,5.221,0,0,0,3.148,1.02,7.535,7.535,0,0,0,4.445-1.6,1.865,1.865,0,0,1,2.718.558,5.187,5.187,0,0,0,2.013,1.1,11.533,11.533,0,0,0,3.739.693,4.886,4.886,0,0,0,1.752-.271,16.037,16.037,0,0,0,6.021-4.862,1.864,1.864,0,0,1,1.12-.74Z" fill="#121212"/><path d="M108.717,124.609l-.608,20.179-20.551,4.5a35.461,35.461,0,0,1,6.889-14.673c4.587-5.7,14.27-10,14.27-10" fill="#fef1e6"/><path d="M108.717,122.745a1.864,1.864,0,0,1,1.864,1.921l-.608,20.179a1.864,1.864,0,0,1-1.465,1.765l-20.551,4.5a1.864,1.864,0,0,1-2.237-2.131,37.12,37.12,0,0,1,7.275-15.532c4.815-5.982,14.553-10.353,14.966-10.536A1.863,1.863,0,0,1,108.717,122.745Zm-2.428,20.533.47-15.612c-3.087,1.644-8.06,4.635-10.86,8.114a33.344,33.344,0,0,0-5.207,9.321c-.229.62-.421,1.2-.582,1.717Z" fill="#121212"/><path d="M108.212,133.708l-4.714.455a3.312,3.312,0,0,0,.444,6.608v.01l4.713-.465a3.311,3.311,0,0,0-.443-6.608" fill="#fbf1e6"/><path d="M108.413,132.277a4.737,4.737,0,0,1,.366,9.459l-4.7.463a1.425,1.425,0,0,1-.256,0h-.085a4.737,4.737,0,0,1-.366-9.459l4.7-.454.052,0C108.222,132.28,108.318,132.277,108.413,132.277Zm-4.443,7.069,4.545-.448.034,0a1.886,1.886,0,0,0-.23-3.766l-4.685.452-.031,0a1.887,1.887,0,0,0,.137,3.768c.038,0,.077,0,.116,0S103.933,139.345,103.97,139.346Z" fill="#121212"/><path d="M45.247,153.319l23.437,8.938V171.2l-23.437-8.939Z" fill="#fff"/><path d="M6.552,26.8a1.865,1.865,0,0,1-1.8-1.391L-1.8.474A1.865,1.865,0,0,1-.474-1.8,1.865,1.865,0,0,1,1.8-.474L8.356,24.463a1.866,1.866,0,0,1-1.8,2.339Z" transform="translate(95.195 95.65)" fill="#ee7679"/><path d="M7.372,13.752a1.863,1.863,0,0,1-1.586-.882L-1.585.982a1.864,1.864,0,0,1,.6-2.567,1.865,1.865,0,0,1,2.567.6L8.955,10.9a1.865,1.865,0,0,1-1.583,2.847Z" transform="translate(84.124 106.103)" fill="#ee7679"/><path d="M20.8,21.718a1.858,1.858,0,0,1-1.287-.516L-1.287,1.349a1.865,1.865,0,0,1-.062-2.636,1.865,1.865,0,0,1,2.636-.062L22.089,18.5A1.865,1.865,0,0,1,20.8,21.718Z" transform="translate(70.692 109.079)" fill="#ee7679"/><path d="M15.465,10.317a1.856,1.856,0,0,1-.892-.229L-.894,1.636a1.865,1.865,0,0,1-.742-2.53,1.865,1.865,0,0,1,2.53-.742L16.361,6.816a1.865,1.865,0,0,1-.9,3.5Z" transform="translate(64.44 120.926)" fill="#ee7679"/><path d="M24.237,8.608a1.866,1.866,0,0,1-.5-.069L-.5,1.8A1.864,1.864,0,0,1-1.8-.5,1.864,1.864,0,0,1,.5-1.8L24.736,4.947a1.865,1.865,0,0,1-.5,3.661Z" transform="translate(59.381 131.231)" fill="#ee7679"/><path d="M18.227,1.943h-.008L-.008,1.864A1.864,1.864,0,0,1-1.864-.008,1.865,1.865,0,0,1,.008-1.864l18.227.079a1.864,1.864,0,0,1-.008,3.729Z" transform="translate(57.41 144.568)" fill="#ee7679"/><path d="M68.684,162.258,45.247,153.32V118.635c0-1.709,1.59-4.3,4.448-3.545l15.9,3.778a6.286,6.286,0,0,1,2.819,4.978Z" fill="#fff"/><path d="M68.684,164.158a1.9,1.9,0,0,1-.677-.125L44.57,155.1a1.9,1.9,0,0,1-1.223-1.775V118.635a5.962,5.962,0,0,1,1.306-3.588,5.111,5.111,0,0,1,4.049-1.992,5.775,5.775,0,0,1,1.454.192l15.874,3.773a1.9,1.9,0,0,1,.54.221,8.188,8.188,0,0,1,3.739,6.6l.274,38.405a1.9,1.9,0,0,1-1.9,1.914ZM47.147,152.011l19.617,7.481L66.51,123.86s0-.01,0-.015a4.475,4.475,0,0,0-1.684-3.206l-15.571-3.7-.048-.012a1.99,1.99,0,0,0-.506-.072,1.3,1.3,0,0,0-1.079.563,2.166,2.166,0,0,0-.475,1.216Z" fill="#121212"/><path d="M45.247,151.419a1.9,1.9,0,0,1,.677.125l23.437,8.938a1.9,1.9,0,0,1,1.223,1.775V171.2a1.9,1.9,0,0,1-2.577,1.775L44.57,164.032a1.9,1.9,0,0,1-1.223-1.775v-8.938a1.9,1.9,0,0,1,1.9-1.9Zm21.537,12.147-19.637-7.489v4.871l19.637,7.49Z" fill="#121212"/><path d="M53.055,138.139l2.8.814v1.918l-5.3-1.541v-9.018l2.5.728Z" fill="#ea5457"/><path d="M63.569,138.593a1.812,1.812,0,0,1-1.138.744,3.7,3.7,0,0,1-1.86-.138l-1.239-.361v3.046l-2.506-.729v-9.019l3.745,1.089a5.3,5.3,0,0,1,1.847.921,4.028,4.028,0,0,1,1.145,1.394,3.743,3.743,0,0,1,.382,1.672,2.423,2.423,0,0,1-.376,1.381m-2.18-2.124a1.274,1.274,0,0,0-1.062-1.294l-.995-.289v1.957l.995.289q1.062.309,1.062-.663" fill="#ea5457"/></g></svg>