<svg xmlns="http://www.w3.org/2000/svg" xmlns:xlink="http://www.w3.org/1999/xlink" width="280" height="190" viewBox="0 0 280 190"><defs><clipPath id="a"><rect width="280" height="190" fill="none"/></clipPath></defs><g clip-path="url(#a)"><path d="M140,86.318c12.385,0,17.919-9.127,20.49-17.183,7.272-1.542,5.5-11.829,5.5-11.829l-10.506,2.4c.276-5.008-.407-12.831-3.028-17.1S144.91,36.011,140,39.186c-4.909-3.175-9.834-.855-12.457,3.42s-3.3,12.1-3.028,17.1l-10.507-2.4s-1.77,10.287,5.5,11.826c2.571,8.059,8.1,17.186,20.489,17.186" fill="#fef1e6"/><path d="M150.532,83.479v6.308L140,94.83,129.47,89.787V83.479Z" fill="#fef1e6"/><path d="M150.532,88.84l16.412,5.994a28.413,28.413,0,0,1,17.78,19.665L190.5,147.59a9.475,9.475,0,0,1-6.175,11.336l-19.03,6.348h-50.59l-19.03-6.348A9.478,9.478,0,0,1,89.5,147.59L95.271,114.5a28.42,28.42,0,0,1,17.782-19.665l16.412-5.994L140,93.882Z" fill="#fff"/><path d="M140,39.18c4.909-3.175,9.834-.855,12.457,3.42s3.3,12.1,3.028,17.106l14.888-3.386c-.838-10.462-6.563-42.565-30.373-36.557-23.811-6.008-29.536,26.1-30.374,36.558l14.889,3.386c-.276-5.009.407-12.831,3.028-17.106s7.548-6.6,12.457-3.42" fill="#121212"/><path d="M135.251,62.665A1.666,1.666,0,1,1,133.587,61a1.665,1.665,0,0,1,1.664,1.666" fill="#121212"/><path d="M147.814,59.264a6.225,6.225,0,0,1-4.516-1.945,1.9,1.9,0,0,1,2.766-2.606,2.4,2.4,0,0,0,2.019.736,1.9,1.9,0,0,1,.44,3.774A6.126,6.126,0,0,1,147.814,59.264Z" fill="#121212"/><path d="M148.079,62.665A1.665,1.665,0,1,1,146.415,61a1.665,1.665,0,0,1,1.664,1.666" fill="#121212"/><path d="M143.4,73.789c0,1.407-1.52,2.549-3.4,2.549s-3.4-1.14-3.4-2.549,1.52-2.549,3.4-2.549,3.4,1.14,3.4,2.549" fill="#fadbda"/><path d="M140,70.29a4.97,4.97,0,0,1,2.975.937,3.075,3.075,0,0,1,0,5.124,5.192,5.192,0,0,1-5.949,0,3.076,3.076,0,0,1,0-5.126A4.973,4.973,0,0,1,140,70.29Zm0,5.1c1.465,0,2.449-.827,2.449-1.6s-.984-1.6-2.449-1.6c-1.328,0-2.45.732-2.45,1.6C137.551,74.561,138.535,75.388,140,75.388Z" fill="#121212"/><path d="M132.191,59.264a6.113,6.113,0,0,1-.716-.042,1.9,1.9,0,0,1,.445-3.774,2.393,2.393,0,0,0,2.015-.735,1.9,1.9,0,0,1,2.768,2.6A6.213,6.213,0,0,1,132.191,59.264Z" fill="#121212"/><path d="M1.928.95H0A.95.95,0,0,1-.95,0,.95.95,0,0,1,0-.95H1.928a.95.95,0,0,1,.95.95A.95.95,0,0,1,1.928.95Z" transform="translate(139.037 66.587)" fill="#121212"/><path d="M140,88.218c-10.431,0-18.011-6.054-21.973-17.526a8.025,8.025,0,0,1-3.981-2.941,11.268,11.268,0,0,1-1.886-4.793,19.775,19.775,0,0,1-.023-5.974,1.9,1.9,0,0,1,2.3-1.53l8.128,1.857a48.4,48.4,0,0,1,.5-6.707,24.217,24.217,0,0,1,2.861-8.991c2.229-3.633,5.744-5.8,9.4-5.8A10.08,10.08,0,0,1,140,36.99a10.076,10.076,0,0,1,4.673-1.179c3.659,0,7.174,2.169,9.4,5.8a24.2,24.2,0,0,1,2.86,8.987,48.417,48.417,0,0,1,.5,6.711l8.127-1.856a1.9,1.9,0,0,1,2.3,1.53,19.778,19.778,0,0,1-.023,5.975,11.273,11.273,0,0,1-1.886,4.793,8.028,8.028,0,0,1-3.982,2.943C158.012,82.164,150.431,88.218,140,88.218ZM115.723,59.646a14.629,14.629,0,0,0,.2,2.759c.735,4.18,3.181,4.7,3.984,4.868a1.9,1.9,0,0,1,1.417,1.281,26.813,26.813,0,0,0,6.105,10.857,16.473,16.473,0,0,0,5.255,3.607,19.838,19.838,0,0,0,14.638,0,16.476,16.476,0,0,0,5.255-3.607,26.809,26.809,0,0,0,6.106-10.854,1.9,1.9,0,0,1,1.416-1.281c3.281-.7,3.821-3.9,4-4.95a14.721,14.721,0,0,0,.183-2.68l-8.369,1.912a1.9,1.9,0,0,1-2.32-1.957,43.675,43.675,0,0,0-.41-8.443,20.88,20.88,0,0,0-2.34-7.559c-1.533-2.5-3.838-3.989-6.165-3.989a6.682,6.682,0,0,0-3.641,1.17,1.9,1.9,0,0,1-2.064,0,6.687,6.687,0,0,0-3.643-1.171c-2.326,0-4.63,1.491-6.163,3.99a20.9,20.9,0,0,0-2.341,7.563,43.658,43.658,0,0,0-.409,8.439,1.9,1.9,0,0,1-2.32,1.957Z" fill="#121212"/><path d="M124.516,61.607a1.9,1.9,0,0,1-.421-.047l-14.889-3.386a1.9,1.9,0,0,1-1.473-2c.238-2.976,1.35-13.421,5.653-22.878a32.568,32.568,0,0,1,7.9-11.222A19.377,19.377,0,0,1,134.35,17.12a24.8,24.8,0,0,1,5.651.687,24.8,24.8,0,0,1,5.651-.687,19.373,19.373,0,0,1,13.057,4.949,32.573,32.573,0,0,1,7.9,11.222c4.3,9.459,5.416,19.9,5.654,22.877a1.9,1.9,0,0,1-1.473,2l-14.888,3.386a1.9,1.9,0,0,1-2.318-1.957,43.706,43.706,0,0,0-.409-8.444,20.9,20.9,0,0,0-2.341-7.564c-1.533-2.5-3.837-3.99-6.163-3.99a6.687,6.687,0,0,0-3.643,1.171,1.9,1.9,0,0,1-2.063,0,6.688,6.688,0,0,0-3.643-1.171c-2.327,0-4.631,1.491-6.163,3.989a20.923,20.923,0,0,0-2.341,7.564,43.692,43.692,0,0,0-.41,8.444,1.9,1.9,0,0,1-1.9,2Zm-12.84-6.769,10.884,2.475a48.435,48.435,0,0,1,.5-6.715,24.239,24.239,0,0,1,2.86-8.991c2.228-3.634,5.743-5.8,9.4-5.8A10.081,10.081,0,0,1,140,36.984a10.079,10.079,0,0,1,4.675-1.18c3.658,0,7.172,2.169,9.4,5.8a24.216,24.216,0,0,1,2.861,8.992,48.436,48.436,0,0,1,.5,6.714l10.883-2.475a76.332,76.332,0,0,0-1.309-7.981,60.041,60.041,0,0,0-3.861-11.991c-4.21-9.253-10.1-13.945-17.5-13.945a21.3,21.3,0,0,0-5.186.685,1.9,1.9,0,0,1-.93,0,21.3,21.3,0,0,0-5.186-.685c-7.405,0-13.295,4.692-17.5,13.945a60.032,60.032,0,0,0-3.86,11.992A76.363,76.363,0,0,0,111.676,54.838Z" fill="#121212"/><path d="M140,96.73a1.9,1.9,0,0,1-.821-.186L128.649,91.5a1.9,1.9,0,0,1-1.079-1.714V83.479a1.9,1.9,0,1,1,3.8,0V88.59L140,92.723l8.631-4.133V83.479a1.9,1.9,0,1,1,3.8,0v6.308a1.9,1.9,0,0,1-1.079,1.714l-10.531,5.043A1.9,1.9,0,0,1,140,96.73Z" fill="#121212"/><path d="M129.47,87.887a1.9,1.9,0,0,1,.82.186l10.532,5.043a1.9,1.9,0,0,1-.108,3.475l-8.252,3.337a1.9,1.9,0,0,1-2.546-1.263l-2.28-8.38a1.9,1.9,0,0,1,1.834-2.4Zm5.826,6.8-2.9-1.39.629,2.31Z" fill="#121212"/><path d="M150.532,87.887a1.9,1.9,0,0,1,1.834,2.4l-2.281,8.385a1.9,1.9,0,0,1-2.547,1.262l-8.251-3.342a1.9,1.9,0,0,1-.107-3.475l10.532-5.043A1.9,1.9,0,0,1,150.532,87.887Zm-3.552,7.72.629-2.314L144.7,94.685Z" fill="#121212"/><path d="M114.706,167.174a1.9,1.9,0,0,1-.6-.1l-19.031-6.348a11.375,11.375,0,0,1-7.433-13.535l5.765-33.02q.013-.072.031-.143a30.3,30.3,0,0,1,18.969-20.98l16.412-5.994a1.9,1.9,0,0,1,1.3,3.569l-16.412,5.994A26.5,26.5,0,0,0,97.136,114.9l-5.764,33.017q-.013.073-.031.144a7.575,7.575,0,0,0,4.937,9.063l19.03,6.348a1.9,1.9,0,0,1-.6,3.7Z" fill="#121212"/><path d="M165.295,167.175a1.9,1.9,0,0,1-.6-3.7l19.03-6.348a7.575,7.575,0,0,0,4.936-9.062q-.018-.072-.031-.144L182.865,114.9a26.5,26.5,0,0,0-16.573-18.28L149.88,90.625a1.9,1.9,0,0,1,1.3-3.569L167.6,93.049a30.3,30.3,0,0,1,18.969,20.98q.018.071.031.143l5.764,33.021a11.375,11.375,0,0,1-7.432,13.534L165.9,167.076A1.9,1.9,0,0,1,165.295,167.175Z" fill="#121212"/><path d="M176.322,163.771H103.677V121.853a2.842,2.842,0,0,1,2.841-2.842h66.964a2.84,2.84,0,0,1,2.84,2.842Z" fill="#fff"/><path d="M176.322,165.671H103.677a1.9,1.9,0,0,1-1.9-1.9V121.853a4.747,4.747,0,0,1,4.741-4.742h66.964a4.74,4.74,0,0,1,4.74,4.743v41.917A1.9,1.9,0,0,1,176.322,165.671Zm-70.745-3.8h68.845V121.853a.94.94,0,0,0-.94-.942H106.518a.943.943,0,0,0-.941.942Z" fill="#121212"/><rect width="72.645" height="8.209" transform="translate(103.678 163.771)" fill="#fff"/><path d="M0-1.9H72.645a1.9,1.9,0,0,1,1.9,1.9V8.209a1.9,1.9,0,0,1-1.9,1.9H0a1.9,1.9,0,0,1-1.9-1.9V0A1.9,1.9,0,0,1,0-1.9ZM70.745,1.9H1.9V6.309H70.745Z" transform="translate(103.678 163.771)" fill="#121212"/><path d="M140,102.539a2.96,2.96,0,1,1-2.958,2.959A2.962,2.962,0,0,1,140,102.539Zm0,3.973a1.013,1.013,0,1,0-1.012-1.014A1.014,1.014,0,0,0,140,106.512Z" fill="#121212"/><path d="M135.342,144.71h3.11v2.132h-5.89V136.821h2.784Z" fill="#ea5457"/><path d="M147.025,141.818a3.032,3.032,0,0,1-1.264,1.194,4.364,4.364,0,0,1-2.067.447h-1.378v3.384h-2.784V136.822h4.162a4.52,4.52,0,0,1,2.053.426,2.92,2.92,0,0,1,1.27,1.18,3.445,3.445,0,0,1,.426,1.734,3.328,3.328,0,0,1-.418,1.656m-2.422-1.656q0-1.1-1.18-1.094h-1.107v2.174h1.107q1.181,0,1.18-1.08" fill="#ea5457"/><path d="M76.734,1.9H0A1.9,1.9,0,0,1-1.9,0,1.9,1.9,0,0,1,0-1.9H76.734a1.9,1.9,0,0,1,1.9,1.9A1.9,1.9,0,0,1,76.734,1.9Z" transform="translate(26.943 167.876)" fill="#121212"/><path d="M76.734,1.9H0A1.9,1.9,0,0,1-1.9,0,1.9,1.9,0,0,1,0-1.9H76.734a1.9,1.9,0,0,1,1.9,1.9A1.9,1.9,0,0,1,76.734,1.9Z" transform="translate(176.322 167.876)" fill="#121212"/><path d="M53.955,77.97a8.774,8.774,0,0,0-.128-.869q-.115-.627-.278-1.525t-.371-1.938q-.207-1.041-.42-2.081-1.3.258-2.316.471t-1.4.327L48.583,70.1q.54-.015,1.553-.142t2.223-.314q-.257-1.21-.463-2.1T51.6,66.442l2.052-.456q.014.228.2,1.155t.456,2.18q1.155-.214,2.231-.428t1.887-.414c.542-.132.931-.242,1.169-.327l1.311.883q-.342.727-.848,1.632t-1.048,1.775q-.54.869-1.025,1.524a2.991,2.991,0,0,0-.513-.385q-.342-.213-.7-.413a5.923,5.923,0,0,0-.6-.3q.327-.412.769-1.032t.841-1.233l-1.475.278q-.791.149-1.6.306.243,1.07.484,2.116t.457,1.931q.213.883.363,1.483c.1.4.168.65.207.755a5.568,5.568,0,0,0-.756.092q-.426.079-.833.178a3.672,3.672,0,0,0-.677.228" fill="#121212"/><path d="M64.828,75.577a9.067,9.067,0,0,0-.834-.813,7.364,7.364,0,0,0-1.005-.741,8.9,8.9,0,0,0,1.746-1.589,10.812,10.812,0,0,0,1.311-1.93,7.547,7.547,0,0,0,.734-1.953l2.123.7a11.41,11.41,0,0,1-.855,2.33,12.12,12.12,0,0,1-1.382,2.188,10.389,10.389,0,0,1-1.838,1.81m9.262-.385a14.43,14.43,0,0,0-.655-1.447q-.4-.776-.869-1.546a16.023,16.023,0,0,0-.97-1.418,8.815,8.815,0,0,0-.94-1.061l1.739-1.183a13.766,13.766,0,0,1,1.069,1.111q.555.642,1.082,1.375t.977,1.5a15.089,15.089,0,0,1,.762,1.46q-.485.228-1.069.534a11.313,11.313,0,0,0-1.126.678m-.3-6.469a6.782,6.782,0,0,0-.677-.935,8.724,8.724,0,0,0-.734-.776l.927-.741c.123.115.279.276.47.485s.375.423.555.641a6.475,6.475,0,0,1,.428.569Zm1.368-1.1a6.77,6.77,0,0,0-.677-.933,8.616,8.616,0,0,0-.734-.777l.927-.741q.184.171.47.484t.556.649c.18.223.323.411.427.563Z" fill="#121212"/><path d="M81.144,73.169a5.2,5.2,0,0,0-.193-.755q-.148-.471-.334-.927a3.823,3.823,0,0,0-.342-.684l1.567-.57a5.52,5.52,0,0,1,.335.727q.178.456.335.926a8.133,8.133,0,0,1,.228.8Zm1.026,4.474a5.608,5.608,0,0,0-.413-.848,3.677,3.677,0,0,0-.542-.734,7.887,7.887,0,0,0,4.054-2.094A7.062,7.062,0,0,0,87.086,69.9l1.7.286a9.984,9.984,0,0,1-1.212,3.6,7.379,7.379,0,0,1-2.229,2.358,12.644,12.644,0,0,1-3.171,1.5m1.368-5.016a4.64,4.64,0,0,0-.164-.777q-.137-.477-.3-.94a3.766,3.766,0,0,0-.307-.691l1.582-.5a5.669,5.669,0,0,1,.306.734q.164.463.307.941a5.367,5.367,0,0,1,.185.8Z" fill="#121212"/><path d="M94.339,77.486a1.114,1.114,0,0,1-.819-.335,1.1,1.1,0,0,1-.335-.805,1.155,1.155,0,0,1,2.309,0,1.088,1.088,0,0,1-.343.805,1.121,1.121,0,0,1-.812.335" fill="#121212"/><path d="M98.785,77.486a1.114,1.114,0,0,1-.819-.335,1.1,1.1,0,0,1-.335-.805,1.155,1.155,0,0,1,2.309,0,1.088,1.088,0,0,1-.343.805,1.121,1.121,0,0,1-.812.335" fill="#121212"/><path d="M103.231,77.486a1.114,1.114,0,0,1-.819-.335,1.1,1.1,0,0,1-.335-.805,1.155,1.155,0,0,1,2.309,0,1.088,1.088,0,0,1-.343.805,1.121,1.121,0,0,1-.812.335" fill="#121212"/></g></svg>