<svg xmlns="http://www.w3.org/2000/svg" xmlns:xlink="http://www.w3.org/1999/xlink" width="338" height="206" viewBox="0 0 338 206"><defs><clipPath id="a"><rect width="338" height="206" transform="translate(590 690)" fill="#d31e1e"/></clipPath><clipPath id="b"><path d="M0,0V206H43.673V180.341H167.536V206H275V0Z" transform="translate(0 0.001)" fill="none"/></clipPath><clipPath id="c"><path d="M30.927,13.718V73.781c0,14.062,33.511,25.461,74.85,25.461s74.85-11.4,74.85-25.461V13.718Z" transform="translate(-30.927 -13.718)" fill="none"/></clipPath></defs><g transform="translate(-590 -690)" clip-path="url(#a)"><g transform="translate(653 690)"><g transform="translate(0 -0.001)"><g clip-path="url(#b)"><path d="M159.687,170.455c10.911,4.6,14.213,11.733,19.5,20.573,1.973,3.3,10.47,15.328,21.663,7.859,8.782-5.859,4.707-18.116,2.91-21.531-4.094-7.775-19.231-20.628-44.076-15.061Z" transform="translate(-0.121 -0.014)" fill="#fff"/><path d="M193.636,204.174a14.144,14.144,0,0,1-3.115-.351c-7.538-1.7-12.469-9.09-13.8-11.315l-1.517-2.566c-4.454-7.58-7.672-13.057-16.634-16.832a2.88,2.88,0,0,1,2.236-5.308c10.724,4.518,14.728,11.332,19.364,19.222l1.494,2.526c.736,1.23,4.685,7.429,10.124,8.654a9.338,9.338,0,0,0,7.469-1.711c8.023-5.353,2.024-17.672,1.96-17.794-2.981-5.662-16.14-19.14-40.9-13.592a2.88,2.88,0,1,1-1.26-5.621c25.3-5.669,42.121,6.779,47.255,16.529,2.294,4.357,6.508,18.351-3.86,25.268A15.766,15.766,0,0,1,193.636,204.174Z" transform="translate(-0.121 -0.014)" fill="#121212"/><path d="M51.831,170.455c-10.911,4.6-14.213,11.733-19.5,20.573-1.973,3.3-10.47,15.328-21.663,7.859-8.782-5.859-4.707-18.116-2.91-21.531,4.094-7.775,19.231-20.628,44.076-15.061Z" transform="translate(-0.004 -0.014)" fill="#fff"/><path d="M17.881,204.174a15.765,15.765,0,0,1-8.816-2.891c-10.368-6.917-6.153-20.911-3.86-25.268,5.134-9.75,21.955-22.2,47.255-16.529a2.88,2.88,0,1,1-1.26,5.621c-24.759-5.548-37.917,7.93-40.9,13.592-.064.122-6.063,12.441,1.96,17.794a9.337,9.337,0,0,0,7.469,1.711c5.439-1.225,9.388-7.424,10.124-8.654l1.494-2.526c4.636-7.89,8.64-14.7,19.364-19.222a2.88,2.88,0,0,1,2.236,5.308c-8.962,3.776-12.18,9.252-16.634,16.832L34.8,192.507c-1.332,2.225-6.263,9.617-13.8,11.315A14.148,14.148,0,0,1,17.881,204.174Z" transform="translate(-0.004 -0.014)" fill="#121212"/><path d="M180.513,73.728,158.075,216.545c-2.1,10.625-23.44,20.125-52.355,20.125s-50.259-9.5-52.355-20.125L30.927,73.728Z" transform="translate(-0.023 -0.006)" fill="#fff"/><path d="M180.513,73.726c0,14.06-33.487,25.458-74.793,25.458s-74.793-11.4-74.793-25.458S64.413,48.268,105.72,48.268s74.793,11.4,74.793,25.458" transform="translate(-0.023 -0.003)" fill="#fff"/><path d="M105.72,239.55c-28.933,0-52.656-9.65-55.181-22.448L28.082,74.175a2.88,2.88,0,0,1,5.69-.894L56.21,216.1c1.67,8.451,21.087,17.692,49.51,17.692s47.84-9.241,49.53-17.8L177.668,73.281a2.88,2.88,0,0,1,5.69.894L160.92,216.992C158.376,229.9,134.653,239.55,105.72,239.55Z" transform="translate(-0.023 -0.006)" fill="#121212"/><path d="M74.793-2.88c37.654,0,77.673,9.932,77.673,28.338S112.447,53.8,74.793,53.8-2.88,43.864-2.88,25.458,37.139-2.88,74.793-2.88Zm0,50.915c42.379,0,71.913-11.9,71.913-22.578S117.173,2.88,74.793,2.88,2.88,14.779,2.88,25.458,32.414,48.035,74.793,48.035Z" transform="translate(30.904 48.264)" fill="#121212"/><path d="M105.722,109.206a211.291,211.291,0,0,1-25.065-1.453,155.509,155.509,0,0,1-21.557-4.04A83.614,83.614,0,0,1,42.433,97.53c-4.747-2.459-8.263-5.18-10.449-8.086a1.6,1.6,0,0,1,2.557-1.924c3.829,5.09,12.845,9.743,25.386,13.1a152.312,152.312,0,0,0,21.111,3.954,208.083,208.083,0,0,0,24.684,1.43,208.092,208.092,0,0,0,24.685-1.43,152.314,152.314,0,0,0,21.111-3.954c12.541-3.358,21.557-8.011,25.386-13.1a1.6,1.6,0,1,1,2.557,1.924c-2.186,2.906-5.7,5.627-10.449,8.086a83.613,83.613,0,0,1-16.667,6.183,155.51,155.51,0,0,1-21.558,4.04A211.3,211.3,0,0,1,105.722,109.206Z" transform="translate(-0.025 -0.007)" fill="#121212"/><path d="M94.445,149.583A3.885,3.885,0,1,1,90.56,145.7a3.887,3.887,0,0,1,3.885,3.888" transform="translate(-0.066 -0.012)" fill="#231815"/><path d="M94.26,139.73a2.866,2.866,0,0,1-1.437-.386,5.436,5.436,0,0,0-4.525,0,2.88,2.88,0,0,1-2.879-4.989,11.086,11.086,0,0,1,10.284,0,2.88,2.88,0,0,1-1.442,5.375Z" transform="translate(-0.066 -0.012)" fill="#121212"/><path d="M105.771,175.415a19.053,19.053,0,0,1-9.513-2.3,2.88,2.88,0,1,1,2.88-4.988,15.134,15.134,0,0,0,13.265,0,2.88,2.88,0,1,1,2.88,4.988A19.053,19.053,0,0,1,105.771,175.415Z" transform="translate(-0.074 -0.015)" fill="#121212"/><path d="M124.873,149.583a3.885,3.885,0,1,1-3.885-3.888,3.887,3.887,0,0,1,3.885,3.888" transform="translate(-0.089 -0.012)" fill="#231815"/><path d="M117.289,139.73a2.88,2.88,0,0,1-1.442-5.375,11.086,11.086,0,0,1,10.284,0,2.88,2.88,0,0,1-2.879,4.989,5.436,5.436,0,0,0-4.525,0A2.867,2.867,0,0,1,117.289,139.73Z" transform="translate(-0.089 -0.012)" fill="#121212"/><path d="M3.7,2.88H0A2.88,2.88,0,0,1-2.88,0,2.88,2.88,0,0,1,0-2.88H3.7A2.88,2.88,0,0,1,6.582,0,2.88,2.88,0,0,1,3.7,2.88Z" transform="translate(103.845 161.665)" fill="#121212"/><path d="M267.046,25.261a34.577,34.577,0,0,1,3.334,12.777C272.9,71.8,242.3,90.749,208.658,79.378A136.076,136.076,0,0,0,194,74.855a19.213,19.213,0,0,0-14.787,2.522l-33.88-25.309c6.157-20.025,32.86-42.8,63.945-46.691C220.5,3.972,231.4,4.25,240.814,6.523a45.5,45.5,0,0,0,10.793.9c3.9-.128,8.707-1.462,11.859.835,5.449,3.973.173,9.183,3.579,17" transform="translate(-0.11 0.001)" fill="#f0f0f0"/><path d="M222.591,1.639a80.892,80.892,0,0,1,18.9,2.084,42.623,42.623,0,0,0,8.4.848l1.618-.027c.885-.029,1.819-.127,2.77-.224a41.057,41.057,0,0,1,4.118-.278,11.213,11.213,0,0,1,6.761,1.888c4.273,3.115,3.938,7.139,3.669,10.372a14.882,14.882,0,0,0,.855,7.81,37.381,37.381,0,0,1,3.566,13.712c.995,13.318-2.782,24.993-10.923,33.765C253.963,80.6,241.772,85.567,228,85.567a63.3,63.3,0,0,1-20.267-3.461l-2.728-.934a101.652,101.652,0,0,0-11.613-3.5,18.5,18.5,0,0,0-3.9-.416,15.3,15.3,0,0,0-8.642,2.492,2.88,2.88,0,0,1-3.361-.062l-33.88-25.309a2.88,2.88,0,0,1-1.029-3.154c6.212-20.2,33.342-44.567,66.34-48.7A110.465,110.465,0,0,1,222.591,1.639Zm27.3,8.692a48.879,48.879,0,0,1-9.621-.979A75.546,75.546,0,0,0,222.591,7.4a104.684,104.684,0,0,0-12.951.836c-29.67,3.718-54.146,24.69-60.9,42.778l30.647,22.894A21.375,21.375,0,0,1,189.5,71.493a24.27,24.27,0,0,1,5.115.546,107.539,107.539,0,0,1,12.273,3.687l2.694.923A57.555,57.555,0,0,0,228,79.807c12.149,0,22.84-4.311,30.1-12.138,7.022-7.566,10.273-17.739,9.4-29.417A31.857,31.857,0,0,0,264.46,26.53a20.253,20.253,0,0,1-1.369-10.707c.26-3.129.265-4.083-1.322-5.239A5.638,5.638,0,0,0,258.4,9.8a35.243,35.243,0,0,0-3.532.248c-1.087.111-2.156.218-3.167.251Z" transform="translate(-0.11 0.001)" fill="#121212"/></g></g><g transform="translate(30.927 13.718)"><g clip-path="url(#c)"><path d="M135.024,207.874c14.072-21.015,22.219-48.469,22.615-76.211.273-19.121-2.994-38-4.494-57.027s-1.062-39.153,6-55.975H56.05c-7.066,16.822-7.505,36.948-6.005,55.975s4.767,37.906,4.494,57.027c-.4,27.742-8.543,55.2-22.615,76.211Z" transform="translate(-30.927 -13.718)" fill="#fff"/><path d="M39.372,195.074a120.421,120.421,0,0,1-7.447,12.8h103.1a120.427,120.427,0,0,0,7.448-12.8Z" transform="translate(-30.927 -13.718)" fill="#c8c8c8"/><path d="M159.15,18.661H56.05c-5.3,12.626-6.873,27.113-6.692,41.6h103.1c-.181-14.487,1.388-28.974,6.692-41.6" transform="translate(-30.927 -13.718)" fill="#c8c8c8"/><path d="M135.024,210.754H31.924a2.88,2.88,0,0,1-2.393-4.482c13.677-20.425,21.743-47.634,22.128-74.65.179-12.569-1.226-25.334-2.585-37.679-.7-6.353-1.4-12.709-1.9-19.081-1.925-24.417.052-42.63,6.221-57.317a2.88,2.88,0,0,1,2.655-1.765h103.1a2.88,2.88,0,0,1,2.655,4c-5.8,13.806-7.638,31.166-5.788,54.633.5,6.313,1.191,12.609,1.884,18.9,1.378,12.52,2.8,25.465,2.619,38.391-.4,28.1-8.821,56.446-23.1,77.772A2.88,2.88,0,0,1,135.024,210.754Zm-97.853-5.76h96.3c13.166-20.275,20.908-46.916,21.286-73.372.179-12.569-1.226-25.334-2.585-37.679-.7-6.353-1.4-12.709-1.9-19.081-1.754-22.252-.269-39.35,4.676-53.321H57.993c-5.236,13.517-6.849,30.391-5.077,52.869.5,6.313,1.191,12.609,1.884,18.9,1.378,12.52,2.8,25.465,2.619,38.391C57.045,157.877,49.714,184.265,37.171,204.994Z" transform="translate(-30.927 -13.718)" fill="#121212"/><path d="M38.933,1.6H0A1.6,1.6,0,0,1-1.6,0,1.6,1.6,0,0,1,0-1.6H38.933a1.6,1.6,0,0,1,1.6,1.6A1.6,1.6,0,0,1,38.933,1.6Z" transform="translate(50.435 55.076)" fill="#c8c8c8"/><path d="M38.933,1.6H0A1.6,1.6,0,0,1-1.6,0,1.6,1.6,0,0,1,0-1.6H38.933a1.6,1.6,0,0,1,1.6,1.6A1.6,1.6,0,0,1,38.933,1.6Z" transform="translate(50.435 61.476)" fill="#c8c8c8"/><path d="M38.335,1.6H0A1.6,1.6,0,0,1-1.6,0,1.6,1.6,0,0,1,0-1.6H38.335a1.6,1.6,0,0,1,1.6,1.6A1.6,1.6,0,0,1,38.335,1.6Z" transform="translate(29.769 143.626)" fill="#c8c8c8"/><path d="M38.491,1.6H0A1.6,1.6,0,0,1-1.6,0,1.6,1.6,0,0,1,0-1.6H38.491a1.6,1.6,0,0,1,1.6,1.6A1.6,1.6,0,0,1,38.491,1.6Z" transform="translate(28.269 150.025)" fill="#c8c8c8"/><path d="M38.491,1.6H0A1.6,1.6,0,0,1-1.6,0,1.6,1.6,0,0,1,0-1.6H38.491a1.6,1.6,0,0,1,1.6,1.6A1.6,1.6,0,0,1,38.491,1.6Z" transform="translate(26.627 156.425)" fill="#c8c8c8"/><path d="M38.491,1.6H0A1.6,1.6,0,0,1-1.6,0,1.6,1.6,0,0,1,0-1.6H38.491a1.6,1.6,0,0,1,1.6,1.6A1.6,1.6,0,0,1,38.491,1.6Z" transform="translate(24.674 162.826)" fill="#c8c8c8"/><path d="M38.584,1.6H0A1.6,1.6,0,0,1-1.6,0,1.6,1.6,0,0,1,0-1.6H38.584a1.6,1.6,0,0,1,1.6,1.6A1.6,1.6,0,0,1,38.584,1.6Z" transform="translate(78.723 96.393)" fill="#c8c8c8"/><path d="M39.072,1.6H0A1.6,1.6,0,0,1-1.6,0,1.6,1.6,0,0,1,0-1.6H39.072a1.6,1.6,0,0,1,1.6,1.6A1.6,1.6,0,0,1,39.072,1.6Z" transform="translate(78.723 102.793)" fill="#c8c8c8"/><path d="M38.137,1.6H0A1.6,1.6,0,0,1-1.6,0,1.6,1.6,0,0,1,0-1.6H38.137a1.6,1.6,0,0,1,1.6,1.6A1.6,1.6,0,0,1,38.137,1.6Z" transform="translate(79.658 109.193)" fill="#c8c8c8"/><path d="M38.137,1.6H0A1.6,1.6,0,0,1-1.6,0,1.6,1.6,0,0,1,0-1.6H38.137a1.6,1.6,0,0,1,1.6,1.6A1.6,1.6,0,0,1,38.137,1.6Z" transform="translate(79.658 115.593)" fill="#c8c8c8"/><path d="M38.267,1.6H0A1.6,1.6,0,0,1-1.6,0,1.6,1.6,0,0,1,0-1.6H38.267a1.6,1.6,0,0,1,1.6,1.6A1.6,1.6,0,0,1,38.267,1.6Z" transform="translate(79.528 121.993)" fill="#c8c8c8"/><path d="M109.042,92.794H90.589a5.12,5.12,0,0,1,0-10.24h18.453a5.12,5.12,0,1,1,0,10.24" transform="translate(-30.927 -13.718)" fill="#c8c8c8"/><path d="M9.941,1.6H0A1.6,1.6,0,0,1-1.6,0,1.6,1.6,0,0,1,0-1.6H9.941a1.6,1.6,0,0,1,1.6,1.6A1.6,1.6,0,0,1,9.941,1.6Z" transform="translate(63.918 73.956)" fill="#fff"/><path d="M96.06,188.191h43.23a146.569,146.569,0,0,0,10.591-38.4h-43.23a146.569,146.569,0,0,1-10.591,38.4" transform="translate(-30.927 -13.718)" fill="#c8c8c8"/><path d="M104.169,131.663a242.915,242.915,0,0,0-1.523-27.952H59.416a242.689,242.689,0,0,1,1.523,27.952q-.075,5.237-.515,10.448h43.23q.438-5.2.515-10.448" transform="translate(-30.927 -13.718)" fill="#c8c8c8"/><path d="M7.68,1.6H0A1.6,1.6,0,0,1-1.6,0,1.6,1.6,0,0,1,0-1.6H7.68A1.6,1.6,0,0,1,9.28,0,1.6,1.6,0,0,1,7.68,1.6Z" transform="translate(37.393 12.594)" fill="#fff"/><path d="M7.68,1.6H0A1.6,1.6,0,0,1-1.6,0,1.6,1.6,0,0,1,0-1.6H7.68A1.6,1.6,0,0,1,9.28,0,1.6,1.6,0,0,1,7.68,1.6Z" transform="translate(53.393 12.594)" fill="#fff"/><path d="M7.68,1.6H0A1.6,1.6,0,0,1-1.6,0,1.6,1.6,0,0,1,0-1.6H7.68A1.6,1.6,0,0,1,9.28,0,1.6,1.6,0,0,1,7.68,1.6Z" transform="translate(69.393 12.594)" fill="#fff"/><path d="M7.68,1.6H0A1.6,1.6,0,0,1-1.6,0,1.6,1.6,0,0,1,0-1.6H7.68A1.6,1.6,0,0,1,9.28,0,1.6,1.6,0,0,1,7.68,1.6Z" transform="translate(85.393 12.594)" fill="#fff"/><path d="M7.68,1.6H0A1.6,1.6,0,0,1-1.6,0,1.6,1.6,0,0,1,0-1.6H7.68A1.6,1.6,0,0,1,9.28,0,1.6,1.6,0,0,1,7.68,1.6Z" transform="translate(101.393 12.594)" fill="#fff"/></g></g><g transform="translate(0 -0.001)"><g clip-path="url(#b)"><path d="M105.719,102.067c-37.654,0-77.673-9.932-77.673-28.339a2.88,2.88,0,1,1,5.76,0c0,10.679,29.534,22.579,71.913,22.579,27.65,0,53.327-5.36,65.414-13.655a2.88,2.88,0,0,1,3.259,4.749C161.211,96.447,134.9,102.067,105.719,102.067Z" transform="translate(-0.023 -0.006)" fill="#121212"/><path d="M49.87,63.144A11.828,11.828,0,0,0,57.937,56.7a10,10,0,0,0,8.6-12.148,10,10,0,0,0-7.35-7.5A8.147,8.147,0,0,0,47.541,25.811a10.553,10.553,0,0,0-15.913,11.27,10.712,10.712,0,0,0,.379,1.281A10.372,10.372,0,0,0,37.4,58.375c.04-.009.079-.021.119-.03a11.846,11.846,0,0,0,12.351,4.8" transform="translate(-0.019 -0.001)" fill="#fff"/><path d="M47.242,66.32a14.66,14.66,0,0,1-10.924-4.864A13.132,13.132,0,0,1,22.189,51.187,13.34,13.34,0,0,1,28.629,36.7,13.435,13.435,0,0,1,47.363,22.459a10.939,10.939,0,0,1,2.912-1.108A11.031,11.031,0,0,1,63.18,35.57,12.89,12.89,0,0,1,59.8,59.284,14.74,14.74,0,0,1,47.242,66.32ZM37.436,55.492a2.991,2.991,0,0,1,2.449,1.21,8.967,8.967,0,0,0,7.357,3.858,9.146,9.146,0,0,0,1.991-.224,8.931,8.931,0,0,0,6.106-4.884A2.88,2.88,0,0,1,57.6,53.835c4.584-1,6.993-4.82,6.125-8.651a7.092,7.092,0,0,0-5.236-5.34A2.88,2.88,0,0,1,56.9,35.3a5.264,5.264,0,0,0-5.348-8.336,5.194,5.194,0,0,0-2.176,1.065,2.88,2.88,0,0,1-3.367.214,7.673,7.673,0,0,0-11.569,8.2,4.138,4.138,0,0,1,.011,2.728c-.349.7-.832,1.7-1.582,1.938a7.492,7.492,0,0,0,3.9,14.456A3.042,3.042,0,0,1,37.436,55.492Z" transform="translate(-0.019 -0.001)" fill="#121212"/><path d="M166.609,62.028c0-.033,0-.066,0-.1a7.8,7.8,0,0,0-7.961-7.634,7.889,7.889,0,0,0-7.8,6.108,8.6,8.6,0,0,0-1.231-.089,7.788,7.788,0,1,0,0,15.563,8.375,8.375,0,0,0,3.145-.607,6.557,6.557,0,0,0,11.424.659,7.776,7.776,0,0,0,1.2.095,7.031,7.031,0,0,0,1.222-14" transform="translate(-0.107 -0.004)" fill="#fff"/><path d="M158.651,51.415a10.784,10.784,0,0,1,10.615,8.371,9.892,9.892,0,0,1,6.35,9.191,10.088,10.088,0,0,1-10.1,9.927,9.484,9.484,0,0,1-14-.3,11.379,11.379,0,0,1-1.894.158,10.655,10.655,0,0,1-.781-21.3A10.919,10.919,0,0,1,158.651,51.415Zm6.131,21.67c3.131,0,5.073-1.847,5.073-4.108a4.249,4.249,0,0,0-3.7-4.1,2.88,2.88,0,0,1-2.422-2.93,4.931,4.931,0,0,0-5.079-4.767A5.018,5.018,0,0,0,153.666,61a2.88,2.88,0,0,1-3.23,2.254c-3.7-.06-6.052,2.139-6.052,4.842a5.082,5.082,0,0,0,5.234,4.9,5.484,5.484,0,0,0,2.065-.4,2.88,2.88,0,0,1,3.7,1.472,3.563,3.563,0,0,0,3.27,2.008,3.622,3.622,0,0,0,3.085-1.663,2.88,2.88,0,0,1,2.9-1.333Z" transform="translate(-0.107 -0.004)" fill="#121212"/><path d="M47.231,113.128c1.393.652,2.123.969,3.644,1.582.115,1.236.173,1.854.288,3.09a53.967,53.967,0,0,1-6.5-3.078c-.777-5.805-1.165-8.708-1.942-14.514,1.234.616,1.878.915,3.212,1.5.521,4.569.78,6.853,1.3,11.422" transform="translate(-0.032 -0.008)" fill="#ea5457"/><path d="M62.283,114.3a2.839,2.839,0,0,1-1.78,1.24,5.366,5.366,0,0,1-2.9-.216c-.767-.239-1.146-.36-1.892-.607.139,1.966.208,2.949.347,4.916-1.476-.5-2.19-.766-3.569-1.3-.5-5.813-.754-8.719-1.258-14.532,2.206.79,3.362,1.165,5.764,1.87a9.645,9.645,0,0,1,3.049,1.464,6.96,6.96,0,0,1,2,2.218,6.071,6.071,0,0,1,.762,2.695,3.856,3.856,0,0,1-.521,2.257m-3.685-3.39a2.218,2.218,0,0,0-1.784-2.092c-.629-.191-.939-.288-1.554-.484.089,1.264.133,1.9.222,3.16.608.2.914.295,1.536.487,1.1.34,1.641-.022,1.58-1.071" transform="translate(-0.039 -0.009)" fill="#ea5457"/><path d="M69.127,120.1c1.979.418,2.994.614,5.067.977.023,1.257.035,1.886.059,3.143-3.907-.7-5.781-1.1-9.331-1.99-.235-5.863-.352-8.794-.586-14.658,1.746.4,2.637.591,4.455.949.134,4.632.2,6.947.336,11.579" transform="translate(-0.049 -0.009)" fill="#ea5457"/><path d="M89.278,118.708a4.614,4.614,0,0,1-2.32,1.569,8.59,8.59,0,0,1-3.727.269c-.984-.115-1.472-.176-2.438-.3.017,2,.026,3.006.044,5.01-1.944-.264-2.9-.408-4.773-.719-.093-5.915-.139-8.873-.233-14.789,2.869.435,4.339.627,7.338.956a11.087,11.087,0,0,1,3.737,1.007,5.919,5.919,0,0,1,2.352,1.955,4.642,4.642,0,0,1,.794,2.643,3.934,3.934,0,0,1-.774,2.4m-4.441-2.875c0-1.083-.725-1.695-2.132-1.857-.793-.091-1.188-.138-1.972-.237.012,1.288.017,1.932.029,3.22.782.1,1.174.149,1.966.242,1.4.164,2.115-.3,2.11-1.368" transform="translate(-0.058 -0.009)" fill="#ea5457"/><path d="M97.449,123.524c2.391.1,3.6.132,6.055.159,0,1.274,0,1.912,0,3.186-4.649-.052-6.924-.148-11.338-.459V111.478c2.1.133,3.16.187,5.3.27,0,4.71-.009,7.065-.015,11.776" transform="translate(-0.07 -0.009)" fill="#ea5457"/><path d="M120.111,118.871a5.753,5.753,0,0,1-2.378,1.935,10.047,10.047,0,0,1-3.942.863c-1.061.041-1.595.059-2.667.087,0,2.022,0,3.032.006,5.054-2.167.059-3.267.074-5.481.072,0-5.99,0-8.986,0-14.977,3.29,0,4.921-.028,8.128-.146a10.971,10.971,0,0,1,3.923.455,4.827,4.827,0,0,1,2.4,1.609,4.094,4.094,0,0,1,.8,2.526,4.445,4.445,0,0,1-.784,2.523m-4.583-2.2c0-1.089-.75-1.595-2.266-1.541-.855.03-1.285.043-2.146.065,0,1.3,0,1.949,0,3.248.862-.022,1.291-.035,2.146-.066,1.516-.054,2.263-.631,2.262-1.706" transform="translate(-0.08 -0.009)" fill="#ea5457"/><path d="M128.023,122.434c2.22-.259,3.311-.4,5.448-.725-.015,1.26-.023,1.891-.039,3.151-4.033.616-6.132.873-10.459,1.263.011-5.963.017-8.944.028-14.908,2.063-.168,3.083-.265,5.092-.483l-.07,11.7" transform="translate(-0.093 -0.009)" fill="#ea5457"/><path d="M147.514,114.738a6.691,6.691,0,0,1-2.014,2.21,8.476,8.476,0,0,1-3.279,1.37c-.882.183-1.329.272-2.229.444-.047,1.99-.071,2.986-.118,4.976-1.8.355-2.723.522-4.6.831.091-5.916.137-8.875.228-14.791,2.872-.432,4.274-.673,7-1.2a7.686,7.686,0,0,1,3.285-.06,3.064,3.064,0,0,1,1.926,1.271,3.959,3.959,0,0,1,.548,2.377,5.838,5.838,0,0,1-.742,2.578m-3.694-1.563c.034-1.07-.575-1.47-1.855-1.218-.722.141-1.087.21-1.821.345-.03,1.279-.045,1.919-.076,3.2.729-.137,1.091-.207,1.809-.35,1.272-.255,1.909-.92,1.943-1.976" transform="translate(-0.103 -0.009)" fill="#ea5457"/><path d="M153.614,117.211c1.727-.538,2.562-.819,4.172-1.4-.1,1.238-.147,1.857-.246,3.095-3.009,1.109-4.626,1.628-8.051,2.577.284-5.85.426-8.775.708-14.625,1.692-.43,2.519-.655,4.13-1.124-.286,4.592-.428,6.887-.713,11.479" transform="translate(-0.114 -0.009)" fill="#ea5457"/><path d="M168.269,107.228a9.274,9.274,0,0,1-1.564,2.423,7.088,7.088,0,0,1-2.361,1.748c-.627.287-.947.429-1.6.71-.2,1.96-.3,2.94-.507,4.9-1.282.568-1.949.844-3.332,1.381.5-5.813.748-8.72,1.248-14.533,2.213-.787,3.271-1.2,5.274-2.07a4.267,4.267,0,0,1,2.323-.474,1.454,1.454,0,0,1,1.181,1.009,4.845,4.845,0,0,1,.1,2.275,9.785,9.785,0,0,1-.768,2.632m-2.336-1.083c.126-1.057-.257-1.373-1.192-.966-.527.23-.794.343-1.337.568-.131,1.26-.2,1.89-.326,3.15.534-.225.8-.339,1.314-.569a2.536,2.536,0,0,0,1.541-2.183" transform="translate(-0.121 -0.008)" fill="#ea5457"/><path d="M58.627,213.139a12.62,12.62,0,0,0,1.6,1.673c.115,1.236.173,1.854.289,3.091a9.6,9.6,0,0,1-2.463-3.141c-.776-5.805-1.165-8.708-1.942-14.514a10.387,10.387,0,0,0,1.218,1.468c.521,4.57.78,6.854,1.3,11.423" transform="translate(-0.043 -0.017)" fill="#ea5457"/><path d="M66.994,215.147a1.815,1.815,0,0,1-1.189,1.1,2.427,2.427,0,0,1-1.87-.43c-.481-.291-.711-.438-1.153-.733.138,1.966.208,2.95.346,4.916a20.251,20.251,0,0,1-1.961-1.508l-1.259-14.532a27.444,27.444,0,0,0,3.418,2.2,7.45,7.45,0,0,1,2.021,1.676,8.193,8.193,0,0,1,1.407,2.362,8.684,8.684,0,0,1,.572,2.746,4.94,4.94,0,0,1-.333,2.208m-2.527-3.657a2.55,2.55,0,0,0-1.177-2.209c-.395-.232-.587-.349-.957-.584.089,1.264.134,1.9.223,3.161.363.235.551.353.938.587.687.414,1.034.094.973-.955" transform="translate(-0.045 -0.018)" fill="#ea5457"/><path d="M154.591,207.281a19.631,19.631,0,0,1-.63,2.388,5.38,5.38,0,0,1-.9,1.742c-.249.294-.384.442-.673.738-.2,1.96-.3,2.94-.508,4.9a14.347,14.347,0,0,1-1.575,1.509c.5-5.813.748-8.72,1.247-14.533a17.283,17.283,0,0,0,2.592-2.226c.417-.428.7-.584.875-.469s.248.465.242,1.045a19.4,19.4,0,0,1-.217,2.292q-.184,1.318-.453,2.615m-.575-1.129c.126-1.057.024-1.377-.376-.958-.226.237-.345.355-.6.593-.131,1.26-.2,1.89-.326,3.15.242-.238.356-.357.572-.593a3.994,3.994,0,0,0,.725-2.192" transform="translate(-0.114 -0.018)" fill="#ea5457"/></g></g></g></g></svg>