<?xml version="1.0" encoding="utf-8"?>
<!-- Generator: Adobe Illustrator 26.1.0, SVG Export Plug-In . SVG Version: 6.00 Build 0)  -->
<svg version="1.1" id="レイヤー_1" xmlns="http://www.w3.org/2000/svg" xmlns:xlink="http://www.w3.org/1999/xlink" x="0px"
	 y="0px" viewBox="0 0 272 56" style="enable-background:new 0 0 272 56;" xml:space="preserve">
<style type="text/css">
	.st0{fill:#E95457;}
	.st1{fill:none;}
	.st2{fill:#121212;}
</style>
<g>
	<g>
		<path class="st0" d="M-130.1,172.07v1.63h-2.79v8.61h-1.99v-8.61h-2.79v-1.63H-130.1z"/>
		<path class="st0" d="M-120.61,175.39h-0.03l-2.02,4.35h-1.68l-2.02-4.35h-0.03v6.91h-1.85v-10.24h1.94l2.79,6.03h0.03l2.79-6.03
			h1.99v10.24h-1.91V175.39z"/>
	</g>
	<rect x="-329.23" y="-42.45" class="st1" width="240" height="254.77"/>
	<g>
		<g>
			
				<rect x="-311.14" y="-9.59" transform="matrix(6.123234e-17 -1 1 6.123234e-17 -294.163 -124.2994)" class="st1" width="203.82" height="189.05"/>
			<g>
				
					<image style="overflow:visible;opacity:0.3;" width="265" height="279" xlink:href="21B802250568D8DC.png"  transform="matrix(1 0 0 1 -341.1486 -54.5682)">
				</image>
			</g>
		</g>
	</g>
	<g>
		<g>
			<path class="st0" d="M-281.17,83.69c-0.34,2.83-0.53,5.71-0.53,8.63c0,0.91,0.04,1.82,0.07,2.72c12.38,1,66.48,8.81,84.88,68.65
				c3.76-0.66,7.41-1.64,10.96-2.86C-203.49,102.48-254.26,85.09-281.17,83.69z"/>
			<path class="st0" d="M-272.12,128.25c8.92,15.56,23.44,27.51,40.8,33.08C-242.06,139.73-260.05,131.44-272.12,128.25z"/>
			<path class="st0" d="M-280.54,105.16c0.73,4.08,1.79,8.04,3.17,11.85c13.82,2.31,44.43,11.43,58.17,47.08
				c3.26,0.45,6.58,0.7,9.96,0.7c0.75,0,1.5-0.03,2.25-0.06C-223.5,114.36-267.32,106.4-280.54,105.16z"/>
			<path class="st0" d="M-137.49,82.17c-21.24,0.48-45.26,7.24-67.4,26.39c2.58,2.63,5.09,5.43,7.49,8.43
				c20.72-17.91,42.36-23.3,60.61-23.47c0.01-0.4,0.03-0.79,0.03-1.19C-136.76,88.87-137.02,85.49-137.49,82.17z"/>
			<path class="st0" d="M-185.56,135.05c15.3-14.04,31.3-19.13,45.15-20.07c1.25-3.77,2.21-7.67,2.82-11.69
				c-16.19,0.38-35.34,5.54-53.87,21.85C-189.39,128.27-187.41,131.57-185.56,135.05z"/>
			<path class="st0" d="M-160.4,11.38h18.9c2.61,0,4.73-2.12,4.73-4.73s-2.12-4.73-4.73-4.73h-18.9v-9.45h18.9
				c2.61,0,4.73-2.12,4.73-4.73c0-2.61-2.12-4.73-4.73-4.73h-18.9h-9.45h-78.77h-9.45h-15.19h-3.71c-2.61,0-4.73,2.12-4.73,4.73
				c0,2.61,2.12,4.73,4.73,4.73h3.71h15.19v9.45h-18.9c-2.61,0-4.73,2.12-4.73,4.73s2.12,4.73,4.73,4.73h18.9
				c-27.38,16.56-45.69,46.61-45.69,80.94c0,52.2,42.32,94.52,94.52,94.52s94.52-42.32,94.52-94.52
				C-114.71,57.99-133.02,27.94-160.4,11.38z M-209.23,177.39c-46.91,0-85.07-38.16-85.07-85.07c0-28.74,14.34-54.18,36.23-69.59
				v16.1c-10.11,9.24-17.6,21.3-21.21,34.93c6.21,0.43,13.44,1.6,21.21,3.76c3.05,0.85,6.19,1.87,9.37,3.03
				c0.05-0.27,0.08-0.55,0.08-0.83V31.54V-7.52h78.77v39.06v45.88c3.17-1,6.32-1.84,9.45-2.53c7.08-1.57,14.05-2.41,20.77-2.66
				c-3.76-12.99-11.04-24.5-20.77-33.39v-16.1c21.89,15.41,36.23,40.85,36.23,69.59C-124.16,139.23-162.32,177.39-209.23,177.39z"/>
			<path class="st0" d="M-181.04,144.75c1.65,3.88,3.19,7.91,4.53,12.2c13.6-6.92,24.74-17.99,31.73-31.55
				c-1.01,0.16-2.04,0.38-3.07,0.6C-158.4,128.29-169.88,133.74-181.04,144.75z"/>
		</g>
		<rect x="-303.75" y="-16.98" class="st1" width="189.05" height="203.82"/>
	</g>
</g>
<g>
	<g>
		<g>
			<g id="グループ_162" transform="translate(-358 -918)">
				<g id="グループ_157" transform="translate(420.721 933.342)">
					<g>
						<g id="グループ_155" transform="translate(0 0)">
							<path id="パス_600" class="st2" d="M11.77,6.99v1.01c0.03,1.3-0.45,2.56-1.34,3.5c-0.82,0.95-2.03,1.5-3.29,1.49h-4.1
								C0.5,12.96-1.59,15-1.62,17.55h7.17v10.9h4.19V17.12l0.34-0.15c1.74-0.67,3.23-1.88,4.26-3.44c1.09-1.64,1.66-3.57,1.65-5.54
								V2.85C13.69,2.83,11.8,4.68,11.77,6.99"/>
							<path id="パス_601" class="st2" d="M35.34,6.95v11.94c0.02,1.3-0.46,2.55-1.34,3.5c-0.81,0.95-2.01,1.49-3.26,1.46H26.7
								c-2.56-0.03-4.66,2.03-4.69,4.6h8.73c2.39,0.02,4.67-1,6.24-2.8c1.69-1.84,2.61-4.26,2.55-6.76V2.85
								C37.24,2.82,35.36,4.67,35.34,6.95C35.34,6.96,35.34,6.96,35.34,6.95"/>
							<path id="パス_602" class="st2" d="M29.93,2.85H26.7c-2.56-0.03-4.66,2.03-4.69,4.6h7.92V2.85z"/>
							<path id="パス_603" class="st2" d="M45.58,7.44h13.39v2.8c0.03,1.31-0.46,2.58-1.37,3.53c-0.83,0.93-2.02,1.46-3.26,1.46
								c-2.39-0.01-4.66,1.03-6.22,2.83c-1.7,1.84-2.61,4.26-2.55,6.76v3.62h4.2v-3.62c-0.02-1.31,0.47-2.58,1.37-3.53
								c0.8-0.94,1.97-1.49,3.2-1.49c1.26-0.01,2.47,0.54,3.29,1.49c0.89,0.96,1.37,2.23,1.34,3.53v3.62h4.23v-3.62
								c0.05-2.56-0.92-5.04-2.7-6.89l-0.37-0.4l0.37-0.4c1.78-1.85,2.75-4.34,2.7-6.91V2.85H50.27C47.7,2.82,45.6,4.88,45.58,7.44"
								/>
							<path id="パス_604" class="st2" d="M69.18,7.37v7.66h4.19V7.38h9.2v5.27h-1.31c-2.55-0.03-4.63,2.02-4.66,4.57h5.97v2.22
								c0.03,1.31-0.46,2.58-1.37,3.53c-0.83,0.93-2.02,1.46-3.26,1.46c-1.23-0.01-2.39-0.54-3.2-1.46
								c-0.77-0.82-1.24-1.87-1.34-2.98c-1.74-0.05-3.19,1.33-3.24,3.07c-0.01,0.55,0.11,1.09,0.37,1.57
								c0.34,0.57,0.74,1.11,1.19,1.6c3.07,3.45,8.35,3.76,11.8,0.69c0.24-0.22,0.47-0.44,0.69-0.69c1.71-1.84,2.64-4.28,2.58-6.79
								V2.78H73.85C71.29,2.76,69.2,4.81,69.18,7.37"/>
							<path id="パス_605" class="st2" d="M105.32,6.95v11.94c0.02,1.3-0.46,2.55-1.34,3.5c-0.81,0.95-2.01,1.49-3.26,1.46h-4.04
								c-2.56-0.03-4.66,2.03-4.69,4.6h8.73c2.39,0.02,4.67-1,6.24-2.8c1.7-1.84,2.61-4.26,2.55-6.76V2.85
								C107.22,2.82,105.34,4.67,105.32,6.95C105.32,6.96,105.32,6.96,105.32,6.95"/>
							<path id="パス_606" class="st2" d="M99.91,2.85h-3.23c-2.56-0.02-4.66,2.03-4.69,4.59h7.92V2.85z"/>
							<path id="パス_607" class="st2" d="M119.78,2.85c-2.29-0.02-4.17,1.82-4.19,4.11c0,0,0,0,0,0v21.5h4.19V17.92h10.45v-4.54
								h-10.45V2.85z"/>
							<path id="パス_608" class="st2" d="M148.96,20.47V12.8c0.04-2.18-0.76-4.3-2.24-5.91c-1.36-1.58-3.35-2.47-5.44-2.44h-1.48
								c-2.56-0.03-4.66,2.03-4.69,4.59c0,0,0,0,0,0v15.27h4.19V8.99h1.97c0.95-0.01,1.86,0.39,2.49,1.1
								c0.68,0.73,1.05,1.7,1.02,2.71v7.67c-0.04,2.18,0.76,4.3,2.24,5.91c1.26,1.44,3.03,2.32,4.94,2.44v-4.59
								c-0.77-0.11-1.47-0.49-1.99-1.07C149.3,22.43,148.94,21.47,148.96,20.47"/>
							<path id="パス_609" class="st2" d="M155.53,16.97h14.39v-4.72h-9.58C157.71,12.23,155.55,14.34,155.53,16.97"/>
							<path id="パス_610" class="st2" d="M182.41,11.83h-3.26c-2.53-0.03-4.6,2.01-4.63,4.54h7.89L182.41,11.83z"/>
							<path id="パス_611" class="st2" d="M189.8,4.03c0.49,0.01,0.97-0.18,1.32-0.52c0.36-0.33,0.55-0.79,0.54-1.28
								c0.01-0.49-0.19-0.96-0.54-1.29c-0.35-0.35-0.83-0.54-1.32-0.54c-0.49-0.01-0.96,0.17-1.31,0.52
								c-0.34,0.35-0.53,0.82-0.53,1.31c-0.01,0.48,0.18,0.94,0.53,1.28C188.84,3.85,189.31,4.04,189.8,4.03"/>
							<path id="パス_612" class="st2" d="M182.41,3.3h-3.2c-2.56-0.02-4.66,2.03-4.69,4.6h7.89L182.41,3.3z"/>
							<path id="パス_613" class="st2" d="M195.83,0.94c-0.34-0.35-0.81-0.54-1.3-0.53c-0.49-0.01-0.96,0.18-1.3,0.52
								c-0.36,0.34-0.56,0.81-0.56,1.31c-0.01,0.48,0.19,0.95,0.54,1.28c0.35,0.34,0.83,0.53,1.32,0.52
								c0.49,0.01,0.96-0.17,1.31-0.52c0.35-0.33,0.54-0.8,0.53-1.28C196.37,1.75,196.18,1.28,195.83,0.94"/>
							<path id="パス_614" class="st2" d="M187.84,10.52v8.8c0.02,1.3-0.46,2.57-1.34,3.53c-0.81,0.95-2.01,1.49-3.26,1.46h-8.73
								v4.6h8.73c2.38,0.02,4.65-1,6.22-2.8c1.71-1.84,2.64-4.28,2.58-6.79V6.41C189.75,6.38,187.87,8.22,187.84,10.52
								C187.85,10.52,187.85,10.52,187.84,10.52"/>
							<path id="パス_615" class="st2" d="M151.77,2.78c-0.93-0.02-1.83,0.35-2.49,1.01c-0.67,0.63-1.04,1.52-1.03,2.44
								c-0.01,0.92,0.36,1.8,1.04,2.43c1.39,1.32,3.57,1.32,4.95,0c0.66-0.63,1.03-1.51,1.01-2.43c0.01-0.92-0.35-1.8-1.01-2.44
								C153.6,3.13,152.71,2.76,151.77,2.78 M152.64,7.08c-0.23,0.23-0.54,0.36-0.86,0.36c-0.33,0-0.65-0.13-0.88-0.37
								c-0.24-0.21-0.38-0.52-0.38-0.84c0-0.33,0.14-0.64,0.38-0.86c0.23-0.24,0.55-0.38,0.88-0.38c0.33,0,0.64,0.13,0.86,0.37
								c0.24,0.23,0.37,0.54,0.37,0.87C153.01,6.55,152.87,6.86,152.64,7.08"/>
						</g>
					</g>
				</g>
			</g>
		</g>
	</g>
	<g>
		<g>
			<g>
				
					<rect x="-0.81" y="3.16" transform="matrix(6.123234e-17 -1 1 6.123234e-17 -2.0385 53.9611)" class="st1" width="53.55" height="49.67"/>
			</g>
		</g>
		<g>
			<g>
				<path class="st0" d="M7.06,27.67c-0.09,0.74-0.14,1.5-0.14,2.27c0,0.24,0.01,0.48,0.02,0.71c3.25,0.26,17.47,2.32,22.3,18.04
					c0.99-0.17,1.95-0.43,2.88-0.75C27.47,32.61,14.13,28.04,7.06,27.67z"/>
				<path class="st0" d="M9.44,39.38c2.34,4.09,6.16,7.23,10.72,8.69C17.34,42.4,12.61,40.22,9.44,39.38z"/>
				<path class="st0" d="M7.23,33.31c0.19,1.07,0.47,2.11,0.83,3.11c3.63,0.61,11.67,3,15.28,12.37c0.86,0.12,1.73,0.18,2.62,0.18
					c0.2,0,0.39-0.01,0.59-0.01C22.21,35.73,10.7,33.64,7.23,33.31z"/>
				<path class="st0" d="M44.81,27.27c-5.58,0.13-11.89,1.9-17.71,6.93c0.68,0.69,1.34,1.43,1.97,2.22
					c5.44-4.7,11.13-6.12,15.92-6.17c0-0.1,0.01-0.21,0.01-0.31C45,29.04,44.93,28.15,44.81,27.27z"/>
				<path class="st0" d="M32.18,41.17c4.02-3.69,8.22-5.03,11.86-5.27c0.33-0.99,0.58-2.02,0.74-3.07
					c-4.25,0.1-9.28,1.46-14.15,5.74C31.17,39.39,31.69,40.25,32.18,41.17z"/>
				<path class="st0" d="M38.79,8.67h4.97c0.69,0,1.24-0.56,1.24-1.24s-0.56-1.24-1.24-1.24h-4.97V3.71h4.97
					c0.69,0,1.24-0.56,1.24-1.24c0-0.69-0.56-1.24-1.24-1.24h-4.97h-2.48h-20.7h-2.48H9.14H8.16c-0.69,0-1.24,0.56-1.24,1.24
					c0,0.69,0.56,1.24,1.24,1.24h0.98h3.99v2.48H8.16c-0.69,0-1.24,0.56-1.24,1.24s0.56,1.24,1.24,1.24h4.97
					c-7.19,4.35-12,12.25-12,21.27c0,13.72,11.12,24.83,24.83,24.83S50.8,43.66,50.8,29.94C50.8,20.92,45.99,13.02,38.79,8.67z
					 M25.96,52.29c-12.32,0-22.35-10.03-22.35-22.35c0-7.55,3.77-14.24,9.52-18.28v4.23c-2.66,2.43-4.62,5.6-5.57,9.18
					c1.63,0.11,3.53,0.42,5.57,0.99c0.8,0.22,1.63,0.49,2.46,0.8c0.01-0.07,0.02-0.14,0.02-0.22V13.97V3.71h20.7v10.26v12.05
					c0.83-0.26,1.66-0.48,2.48-0.66c1.86-0.41,3.69-0.63,5.46-0.7c-0.99-3.41-2.9-6.44-5.46-8.77v-4.23
					c5.75,4.05,9.52,10.73,9.52,18.28C48.31,42.27,38.29,52.29,25.96,52.29z"/>
				<path class="st0" d="M33.37,43.72c0.43,1.02,0.84,2.08,1.19,3.21c3.57-1.82,6.5-4.73,8.34-8.29c-0.27,0.04-0.54,0.1-0.81,0.16
					C39.32,39.39,36.3,40.82,33.37,43.72z"/>
			</g>
			<rect x="1.13" y="1.22" class="st1" width="49.67" height="53.55"/>
		</g>
	</g>
</g>
<g>
	<path d="M265,11.56v0.56h-0.96v2.97h-0.69v-2.97h-0.96v-0.56H265z"/>
	<path d="M268.28,12.71L268.28,12.71l-0.71,1.5h-0.58l-0.7-1.5h-0.01v2.39h-0.64v-3.53h0.67l0.96,2.08h0.01l0.96-2.08h0.69v3.53
		h-0.66V12.71z"/>
</g>
</svg>
