<svg xmlns="http://www.w3.org/2000/svg" xmlns:xlink="http://www.w3.org/1999/xlink" width="108" height="102" viewBox="0 0 108 102"><defs><clipPath id="a"><rect width="108" height="102" transform="translate(141 565)" fill="#eda9a9"/></clipPath><clipPath id="b"><rect width="88" height="104" fill="none"/></clipPath><clipPath id="c"><path d="M9.377,0V37.115c0,4.614,10.995,8.354,24.56,8.354s24.56-3.74,24.56-8.354V0Z" transform="translate(-9.377)" fill="none"/></clipPath></defs><g transform="translate(-141 -565)" clip-path="url(#a)"><g transform="translate(161 563)"><g clip-path="url(#b)"><path d="M51.626,71.723c3.544,1.5,4.616,3.835,6.335,6.725.64,1.078,3.4,5.01,7.035,2.569,2.853-1.915,1.529-5.922.946-7.037-1.33-2.542-6.247-6.743-14.316-4.923Z" transform="translate(-0.563 -0.269)" fill="#fff"/><path d="M62.652,82.748a4.581,4.581,0,0,1-1.01-.114c-2.458-.554-4.061-2.975-4.494-3.7-.17-.286-.335-.568-.494-.84-1.446-2.476-2.49-4.265-5.4-5.5a.945.945,0,0,1,.738-1.74c3.485,1.477,4.786,3.7,6.292,6.284.157.269.32.547.486.828.239.4,1.519,2.428,3.285,2.826a3.005,3.005,0,0,0,2.412-.558,3.225,3.225,0,0,0,1.344-3,7.3,7.3,0,0,0-.709-2.813,9.278,9.278,0,0,0-4.2-3.682,13.888,13.888,0,0,0-9.072-.757.945.945,0,0,1-.416-1.844,15.919,15.919,0,0,1,10.3.893,11.174,11.174,0,0,1,5.063,4.513,9.107,9.107,0,0,1,.923,3.625,5.183,5.183,0,0,1-5.05,5.583Z" transform="translate(-0.563 -0.269)" fill="#121212"/><path d="M16.081,69.018c-3.544-1.5-4.616-3.835-6.335-6.725-.64-1.078-3.4-5.01-7.035-2.569-2.853,1.915-1.529,5.922-.946,7.037C3.1,69.3,8.012,73.506,16.081,71.685Z" transform="translate(-0.01 -0.231)" fill="#fff"/><path d="M12.251,73.069a14.513,14.513,0,0,1-6.26-1.356A11.174,11.174,0,0,1,.928,67.2,9.107,9.107,0,0,1,0,63.576,5.064,5.064,0,0,1,2.184,58.94a4.858,4.858,0,0,1,3.881-.833c2.458.554,4.061,2.975,4.494,3.7.17.286.335.568.494.84,1.446,2.476,2.49,4.265,5.4,5.5a.945.945,0,0,1-.738,1.74c-3.485-1.477-4.786-3.7-6.292-6.284-.157-.269-.32-.547-.486-.828-.239-.4-1.519-2.428-3.285-2.826a3.005,3.005,0,0,0-2.412.558,3.225,3.225,0,0,0-1.344,3A7.3,7.3,0,0,0,2.6,66.324a9.278,9.278,0,0,0,4.2,3.682,13.888,13.888,0,0,0,9.072.757.945.945,0,1,1,.416,1.844A18.457,18.457,0,0,1,12.251,73.069Z" transform="translate(-0.01 -0.231)" fill="#121212"/><path d="M24.571,87.962a14.781,14.781,0,0,1-.857,5.552c-.642,1.29-2.083,1.909-3.3,2.671a6,6,0,0,0-2.723,3.158,2.513,2.513,0,0,0,1.358,3.145c3.312,1.791,12.487.93,13.309-2.351.534-2.132-.5-3.131-.4-7.352V87.962Z" transform="translate(-0.192 -0.345)" fill="#fff"/><path d="M23.972,104.348a12.021,12.021,0,0,1-5.373-1.03,3.456,3.456,0,0,1-1.813-4.25,6.794,6.794,0,0,1,3.126-3.684c.248-.155.5-.3.749-.446a5.235,5.235,0,0,0,2.207-1.844,14.162,14.162,0,0,0,.758-5.131.945.945,0,0,1,1.89,0,15.455,15.455,0,0,1-.955,5.972,6.77,6.77,0,0,1-2.949,2.636c-.244.142-.475.276-.7.415a5.2,5.2,0,0,0-2.319,2.63,1.584,1.584,0,0,0,.9,2.04,10.6,10.6,0,0,0,4.751.8,14.728,14.728,0,0,0,5.42-1.018c1.006-.443,1.636-.987,1.772-1.531a5.591,5.591,0,0,0-.063-2.578,21.409,21.409,0,0,1-.367-4.555V87.962a.945.945,0,0,1,1.89,0v4.822q0,.011,0,.021a19.754,19.754,0,0,0,.34,4.2,7.389,7.389,0,0,1,.034,3.357,4.465,4.465,0,0,1-2.844,2.8A16.849,16.849,0,0,1,23.972,104.348Z" transform="translate(-0.192 -0.345)" fill="#121212"/><path d="M22.88,97.248a.524.524,0,0,1-.434-.229,2.5,2.5,0,0,0-.543-.575.525.525,0,0,1,.639-.833,3.548,3.548,0,0,1,.771.816.525.525,0,0,1-.433.821Z" transform="translate(-0.243 -0.376)" fill="#121212"/><path d="M21.613,98.21a.524.524,0,0,1-.434-.229,2.5,2.5,0,0,0-.543-.575.525.525,0,1,1,.639-.833,3.548,3.548,0,0,1,.771.816.525.525,0,0,1-.433.821Z" transform="translate(-0.229 -0.38)" fill="#121212"/><path d="M23.787,101.783a13.592,13.592,0,0,1-6.46-1.388.525.525,0,1,1,.494-.926,13.546,13.546,0,0,0,7.365,1.217,20.309,20.309,0,0,0,7.1-1.745.525.525,0,0,1,.458.945,21.1,21.1,0,0,1-7.486,1.848C24.743,101.767,24.253,101.783,23.787,101.783Z" transform="translate(-0.192 -0.389)" fill="#121212"/><path d="M28.562,96.05c-.353,0-.706-.011-1.056-.033a11.016,11.016,0,0,1-4.56-1.182.525.525,0,1,1,.517-.914,12.939,12.939,0,0,0,8.5.7.525.525,0,1,1,.247,1.021A15.806,15.806,0,0,1,28.562,96.05Z" transform="translate(-0.253 -0.37)" fill="#121212"/><path d="M43.138,87.962a14.781,14.781,0,0,0,.857,5.552c.642,1.29,2.083,1.909,3.3,2.671a6,6,0,0,1,2.723,3.158,2.513,2.513,0,0,1-1.358,3.145c-3.312,1.791-12.487.93-13.309-2.351-.534-2.132.5-3.131.4-7.352V87.962Z" transform="translate(-0.384 -0.345)" fill="#fff"/><path d="M43.737,104.348a16.846,16.846,0,0,1-6.459-1.181,4.465,4.465,0,0,1-2.844-2.8,7.389,7.389,0,0,1,.034-3.357,19.754,19.754,0,0,0,.34-4.2q0-.011,0-.021V87.962a.945.945,0,0,1,1.89,0v4.812a21.412,21.412,0,0,1-.367,4.555,5.591,5.591,0,0,0-.063,2.578c.136.544.766,1.088,1.772,1.531a14.728,14.728,0,0,0,5.42,1.018,10.6,10.6,0,0,0,4.751-.8,1.584,1.584,0,0,0,.9-2.039,4.936,4.936,0,0,0-2.32-2.631c-.222-.139-.452-.273-.7-.415a6.77,6.77,0,0,1-2.949-2.636,15.454,15.454,0,0,1-.956-5.973.945.945,0,0,1,1.89,0,14.16,14.16,0,0,0,.758,5.132,5.235,5.235,0,0,0,2.207,1.843c.246.143.5.291.748.446a6.8,6.8,0,0,1,3.127,3.685,3.455,3.455,0,0,1-1.813,4.25A12.023,12.023,0,0,1,43.737,104.348Z" transform="translate(-0.384 -0.345)" fill="#121212"/><path d="M44.987,97.248a.525.525,0,0,1-.433-.821,3.548,3.548,0,0,1,.771-.816.525.525,0,1,1,.639.833,2.5,2.5,0,0,0-.543.575A.524.524,0,0,1,44.987,97.248Z" transform="translate(-0.491 -0.376)" fill="#121212"/><path d="M46.254,98.21a.525.525,0,0,1-.433-.821,3.548,3.548,0,0,1,.771-.816.525.525,0,0,1,.639.833,2.5,2.5,0,0,0-.543.575A.524.524,0,0,1,46.254,98.21Z" transform="translate(-0.505 -0.38)" fill="#121212"/><path d="M43.922,101.783c-.466,0-.955-.016-1.469-.051a21.1,21.1,0,0,1-7.486-1.848.525.525,0,0,1,.458-.945,20.309,20.309,0,0,0,7.1,1.745,13.546,13.546,0,0,0,7.365-1.217.525.525,0,1,1,.494.926A13.594,13.594,0,0,1,43.922,101.783Z" transform="translate(-0.384 -0.389)" fill="#121212"/><path d="M39.214,96.05a15.805,15.805,0,0,1-3.648-.411.525.525,0,1,1,.247-1.021,12.939,12.939,0,0,0,8.5-.7.525.525,0,1,1,.517.914,11.016,11.016,0,0,1-4.56,1.182C39.919,96.039,39.566,96.05,39.214,96.05Z" transform="translate(-0.389 -0.37)" fill="#121212"/><path d="M57.961,37.115,50.673,83.8c-.681,3.473-7.613,6.578-17,6.578s-16.324-3.1-17-6.578L9.377,37.115Z" transform="translate(-0.102 -0.145)" fill="#fff"/><path d="M57.961,37.082c0,4.6-10.876,8.321-24.292,8.321S9.377,41.678,9.377,37.082s10.876-8.321,24.292-8.321,24.292,3.725,24.292,8.321" transform="translate(-0.102 -0.113)" fill="#fff"/><path d="M33.669,91.321a33.354,33.354,0,0,1-12.123-2.056c-3.343-1.352-5.406-3.229-5.809-5.286q0-.018-.006-.036L8.443,37.261a.945.945,0,1,1,1.867-.292L17.6,83.632c.278,1.363,2.018,2.813,4.659,3.881a31.445,31.445,0,0,0,11.414,1.918,31.443,31.443,0,0,0,11.414-1.918c2.641-1.068,4.381-2.518,4.66-3.881l7.284-46.663a.945.945,0,1,1,1.867.292L51.607,83.943q0,.018-.006.036c-.4,2.056-2.466,3.934-5.809,5.286A33.351,33.351,0,0,1,33.669,91.321Z" transform="translate(-0.102 -0.145)" fill="#121212"/><path d="M24.292-.945A56.048,56.048,0,0,1,41.775,1.543a18.12,18.12,0,0,1,5.494,2.8,5.179,5.179,0,0,1,2.259,3.973,5.179,5.179,0,0,1-2.259,3.973,18.12,18.12,0,0,1-5.494,2.8,56.048,56.048,0,0,1-17.483,2.488A56.048,56.048,0,0,1,6.809,15.1a18.12,18.12,0,0,1-5.494-2.8A5.179,5.179,0,0,1-.945,8.321,5.179,5.179,0,0,1,1.314,4.348a18.12,18.12,0,0,1,5.494-2.8A56.048,56.048,0,0,1,24.292-.945Zm0,16.643a54.142,54.142,0,0,0,16.871-2.386c4.055-1.389,6.476-3.255,6.476-4.99s-2.421-3.6-6.476-4.99A54.142,54.142,0,0,0,24.292.945,54.142,54.142,0,0,0,7.421,3.331C3.366,4.72.945,6.586.945,8.321s2.421,3.6,6.476,4.99A54.142,54.142,0,0,0,24.292,15.7Z" transform="translate(9.275 28.648)" fill="#121212"/><path d="M33.677,48.732a59.416,59.416,0,0,1-15.145-1.8c-4.36-1.175-7.406-2.789-8.81-4.666a.525.525,0,0,1,.841-.629c1.243,1.663,4.17,3.183,8.242,4.281a58.36,58.36,0,0,0,14.872,1.76,58.357,58.357,0,0,0,14.872-1.76c4.072-1.1,7-2.618,8.242-4.281a.525.525,0,1,1,.841.629c-1.4,1.877-4.45,3.491-8.81,4.666A59.414,59.414,0,0,1,33.677,48.732Z" transform="translate(-0.111 -0.164)" fill="#121212"/><path d="M30.193,66.593a1.262,1.262,0,1,1-1.262-1.271,1.266,1.266,0,0,1,1.262,1.271" transform="translate(-0.302 -0.256)" fill="#231815"/><path d="M30.134,63.364a.941.941,0,0,1-.473-.128,1.743,1.743,0,0,0-1.456,0,.945.945,0,0,1-.948-1.635,3.6,3.6,0,0,1,3.353,0,.945.945,0,0,1-.475,1.763Z" transform="translate(-0.303 -0.243)" fill="#121212"/><path d="M33.908,75.073a6.171,6.171,0,0,1-3.1-.754.945.945,0,1,1,.95-1.634,4.873,4.873,0,0,0,4.294,0A.945.945,0,1,1,37,74.318,6.171,6.171,0,0,1,33.908,75.073Z" transform="translate(-0.341 -0.288)" fill="#121212"/><path d="M40.177,66.593a1.262,1.262,0,1,1-1.262-1.271,1.266,1.266,0,0,1,1.262,1.271" transform="translate(-0.411 -0.256)" fill="#231815"/><path d="M40.118,63.364a.94.94,0,0,1-.473-.128,1.743,1.743,0,0,0-1.456,0A.945.945,0,1,1,37.24,61.6a3.6,3.6,0,0,1,3.353,0,.945.945,0,0,1-.475,1.763Z" transform="translate(-0.412 -0.243)" fill="#121212"/><path d="M1.2.945H0A.945.945,0,0,1-.945,0,.945.945,0,0,1,0-.945H1.2A.945.945,0,0,1,2.148,0,.945.945,0,0,1,1.2.945Z" transform="translate(32.965 70.291)" fill="#121212"/><path d="M86.447,21.185a11.371,11.371,0,0,1,1.084,4.177C88.349,36.4,78.41,42.591,67.483,38.875A43.835,43.835,0,0,0,62.724,37.4a6.208,6.208,0,0,0-4.8.825l-11-8.272c2-6.546,10.672-13.989,20.769-15.262a28.826,28.826,0,0,1,10.243.375,14.68,14.68,0,0,0,3.5.294c1.265-.042,2.829-.478,3.852.273,1.769,1.3.055,3,1.162,5.558" transform="translate(-0.512 -0.056)" fill="#f0f0f0"/><path d="M72.009,13.46a26.159,26.159,0,0,1,6.12.676,13.776,13.776,0,0,0,2.748.282c.168,0,.345,0,.524-.009.275-.009.578-.04.9-.073a13.05,13.05,0,0,1,1.34-.091,3.6,3.6,0,0,1,2.2.62,3.3,3.3,0,0,1,1.192,3.39,4.911,4.911,0,0,0,.27,2.536,12.366,12.366,0,0,1,1.167,4.5,15.845,15.845,0,0,1-.711,6.2,13.239,13.239,0,0,1-2.868,4.866A14.916,14.916,0,0,1,73.766,40.9a20.458,20.458,0,0,1-6.587-1.132q-.436-.149-.871-.3a32.944,32.944,0,0,0-3.785-1.15,5.957,5.957,0,0,0-1.262-.136,4.933,4.933,0,0,0-2.8.813.945.945,0,0,1-1.108-.02l-11-8.272a.945.945,0,0,1-.336-1.031c1.057-3.46,3.854-7.134,7.675-10.081a29.11,29.11,0,0,1,13.88-5.843A35.674,35.674,0,0,1,72.009,13.46Zm8.868,2.848a15.781,15.781,0,0,1-3.127-.32l-.044-.01a24.251,24.251,0,0,0-5.7-.628,33.776,33.776,0,0,0-4.205.273,27.193,27.193,0,0,0-12.962,5.464A20.5,20.5,0,0,0,48.031,29.6l9.945,7.477a6.924,6.924,0,0,1,3.284-.787,7.852,7.852,0,0,1,1.664.179,34.866,34.866,0,0,1,4,1.211q.43.149.86.3a18.574,18.574,0,0,0,5.978,1.031,13.051,13.051,0,0,0,9.743-3.936,12.411,12.411,0,0,0,3.08-9.644A10.478,10.478,0,0,0,85.6,21.6l-.018-.039a6.629,6.629,0,0,1-.427-3.461c.085-1.022.086-1.334-.427-1.71a1.807,1.807,0,0,0-1.086-.254c-.359,0-.759.041-1.146.081-.339.035-.689.071-1.03.082C81.264,16.305,81.067,16.309,80.878,16.309Z" transform="translate(-0.512 -0.056)" fill="#121212"/></g><g transform="translate(9.377)"><g clip-path="url(#c)"><path d="M43.534,65.036a46.908,46.908,0,0,0,7.42-25.007c.09-6.274-.982-12.468-1.474-18.712S49.132,8.47,51.45,2.95H17.621C15.3,8.47,15.158,15.074,15.65,21.317s1.564,12.438,1.475,18.712A46.9,46.9,0,0,1,9.7,65.036Z" transform="translate(-9.377)" fill="#fff"/><path d="M12.148,60.836a39.351,39.351,0,0,1-2.444,4.2h33.83a39.522,39.522,0,0,0,2.444-4.2Z" transform="translate(-9.377)" fill="#c8c8c8"/><path d="M51.45,2.95H17.62a34.358,34.358,0,0,0-2.2,13.65h33.83a34.358,34.358,0,0,1,2.2-13.65" transform="translate(-9.377)" fill="#c8c8c8"/><path d="M43.534,65.981H9.7a.945.945,0,0,1-.785-1.471,41.879,41.879,0,0,0,5.273-11.419A48.387,48.387,0,0,0,16.18,40.016a100.87,100.87,0,0,0-.849-12.369c-.225-2.046-.458-4.161-.623-6.255-.631-8.012.017-13.989,2.042-18.807a.945.945,0,0,1,.871-.579H51.45a.945.945,0,0,1,.871,1.311c-1.9,4.531-2.506,10.227-1.9,17.927.163,2.067.394,4.17.618,6.2a102.115,102.115,0,0,1,.859,12.6,50.281,50.281,0,0,1-2.066,13.586,43.774,43.774,0,0,1-5.513,11.933A.945.945,0,0,1,43.534,65.981Zm-32.107-1.89h31.6a42.12,42.12,0,0,0,5-11,48.391,48.391,0,0,0,1.988-13.076,100.7,100.7,0,0,0-.848-12.362c-.225-2.048-.458-4.166-.624-6.262-.575-7.3-.088-12.911,1.534-17.5H18.259c-1.718,4.435-2.248,9.972-1.666,17.348.163,2.065.394,4.165.618,6.2a102.29,102.29,0,0,1,.86,12.6A50.276,50.276,0,0,1,16,53.629,44.532,44.532,0,0,1,11.427,64.091Z" transform="translate(-9.377)" fill="#121212"/><path d="M12.775.525H0A.525.525,0,0,1-.525,0,.525.525,0,0,1,0-.525H12.775A.525.525,0,0,1,13.3,0,.525.525,0,0,1,12.775.525Z" transform="translate(16.549 19.4)" fill="#c8c8c8"/><path d="M12.775.525H0A.525.525,0,0,1-.525,0,.525.525,0,0,1,0-.525H12.775A.525.525,0,0,1,13.3,0,.525.525,0,0,1,12.775.525Z" transform="translate(16.549 21.5)" fill="#c8c8c8"/><path d="M12.579.525H0A.525.525,0,0,1-.525,0,.525.525,0,0,1,0-.525H12.579A.525.525,0,0,1,13.1,0,.525.525,0,0,1,12.579.525Z" transform="translate(9.768 48.455)" fill="#c8c8c8"/><path d="M12.63.525H0A.525.525,0,0,1-.525,0,.525.525,0,0,1,0-.525H12.63A.525.525,0,0,1,13.155,0,.525.525,0,0,1,12.63.525Z" transform="translate(9.276 50.555)" fill="#c8c8c8"/><path d="M12.63.525H0A.525.525,0,0,1-.525,0,.525.525,0,0,1,0-.525H12.63A.525.525,0,0,1,13.155,0,.525.525,0,0,1,12.63.525Z" transform="translate(8.737 52.655)" fill="#c8c8c8"/><path d="M12.63.525H0A.525.525,0,0,1-.525,0,.525.525,0,0,1,0-.525H12.63A.525.525,0,0,1,13.155,0,.525.525,0,0,1,12.63.525Z" transform="translate(8.096 54.755)" fill="#c8c8c8"/><path d="M12.66.525H0A.525.525,0,0,1-.525,0,.525.525,0,0,1,0-.525H12.66A.525.525,0,0,1,13.185,0,.525.525,0,0,1,12.66.525Z" transform="translate(25.831 32.957)" fill="#c8c8c8"/><path d="M12.821.525H0A.525.525,0,0,1-.525,0,.525.525,0,0,1,0-.525H12.821A.525.525,0,0,1,13.346,0,.525.525,0,0,1,12.821.525Z" transform="translate(25.831 35.057)" fill="#c8c8c8"/><path d="M12.514.525H0A.525.525,0,0,1-.525,0,.525.525,0,0,1,0-.525H12.514A.525.525,0,0,1,13.039,0,.525.525,0,0,1,12.514.525Z" transform="translate(26.138 37.157)" fill="#c8c8c8"/><path d="M12.514.525H0A.525.525,0,0,1-.525,0,.525.525,0,0,1,0-.525H12.514A.525.525,0,0,1,13.039,0,.525.525,0,0,1,12.514.525Z" transform="translate(26.138 39.257)" fill="#c8c8c8"/><path d="M12.556.525H0A.525.525,0,0,1-.525,0,.525.525,0,0,1,0-.525H12.556A.525.525,0,0,1,13.081,0,.525.525,0,0,1,12.556.525Z" transform="translate(26.095 41.357)" fill="#c8c8c8"/><path d="M35.008,27.275H28.953a1.68,1.68,0,0,1,0-3.36h6.055a1.68,1.68,0,1,1,0,3.36" transform="translate(-9.377)" fill="#c8c8c8"/><path d="M3.262.525H0A.525.525,0,0,1-.525,0,.525.525,0,0,1,0-.525H3.262A.525.525,0,0,1,3.787,0,.525.525,0,0,1,3.262.525Z" transform="translate(20.973 25.595)" fill="#fff"/><path d="M30.749,58.577H44.934a48.091,48.091,0,0,0,3.475-12.6H34.224a48.091,48.091,0,0,1-3.475,12.6" transform="translate(-9.377)" fill="#c8c8c8"/><path d="M33.409,40.029a79.578,79.578,0,0,0-.5-9.172H18.725a79.8,79.8,0,0,1,.5,9.172q-.024,1.719-.169,3.428H33.24q.144-1.707.169-3.428" transform="translate(-9.377)" fill="#c8c8c8"/><path d="M2.52.525H0A.525.525,0,0,1-.525,0,.525.525,0,0,1,0-.525H2.52A.525.525,0,0,1,3.045,0,.525.525,0,0,1,2.52.525Z" transform="translate(12.27 5.461)" fill="#fff"/><path d="M2.52.525H0A.525.525,0,0,1-.525,0,.525.525,0,0,1,0-.525H2.52A.525.525,0,0,1,3.045,0,.525.525,0,0,1,2.52.525Z" transform="translate(17.52 5.461)" fill="#fff"/><path d="M2.52.525H0A.525.525,0,0,1-.525,0,.525.525,0,0,1,0-.525H2.52A.525.525,0,0,1,3.045,0,.525.525,0,0,1,2.52.525Z" transform="translate(22.77 5.461)" fill="#fff"/><path d="M2.52.525H0A.525.525,0,0,1-.525,0,.525.525,0,0,1,0-.525H2.52A.525.525,0,0,1,3.045,0,.525.525,0,0,1,2.52.525Z" transform="translate(28.02 5.461)" fill="#fff"/><path d="M2.52.525H0A.525.525,0,0,1-.525,0,.525.525,0,0,1,0-.525H2.52A.525.525,0,0,1,3.045,0,.525.525,0,0,1,2.52.525Z" transform="translate(33.27 5.461)" fill="#fff"/></g></g><g clip-path="url(#b)"><path d="M33.669,46.381a56.049,56.049,0,0,1-17.484-2.489,18.122,18.122,0,0,1-5.495-2.8,5.178,5.178,0,0,1-2.259-3.973.945.945,0,0,1,1.89,0c0,1.735,2.421,3.6,6.476,4.99a54.143,54.143,0,0,0,16.872,2.387,61.461,61.461,0,0,0,12.776-1.264,24.62,24.62,0,0,0,8.461-3.2.945.945,0,1,1,1.074,1.555C51.7,44.543,43.148,46.381,33.669,46.381Z" transform="translate(-0.102 -0.145)" fill="#121212"/><path d="M15.509,32.281a3.849,3.849,0,0,0,2.62-2.108c.115-.014.229-.033.345-.059a3.275,3.275,0,0,0,.061-6.363,2.663,2.663,0,0,0-2.688-4.213,2.617,2.617,0,0,0-1.095.54,3.393,3.393,0,0,0-2.583-.445,3.452,3.452,0,0,0-2.584,4.129,3.525,3.525,0,0,0,.123.418,3.39,3.39,0,0,0,1.752,6.542l.039-.01a3.836,3.836,0,0,0,4.012,1.569" transform="translate(-0.08 -0.076)" fill="#fff"/><path d="M14.656,33.322h0A4.78,4.78,0,0,1,11.1,31.733a4.34,4.34,0,0,1-2.5-8.1A4.383,4.383,0,0,1,12.93,18.6a4.33,4.33,0,0,1,1.764.376,3.548,3.548,0,0,1,.944-.36,3.607,3.607,0,0,1,4.2,4.651,4.225,4.225,0,0,1-1.1,7.754,4.787,4.787,0,0,1-4.088,2.3ZM11.5,29.767a.945.945,0,0,1,.778.408,2.9,2.9,0,0,0,2.38,1.257h0a2.9,2.9,0,0,0,2.62-1.665.945.945,0,0,1,.739-.532c.09-.011.173-.025.253-.043A2.326,2.326,0,0,0,20,26.41a2.3,2.3,0,0,0-1.694-1.742.945.945,0,0,1-.525-1.487,1.723,1.723,0,0,0-1.347-2.765,1.693,1.693,0,0,0-.377.043,1.668,1.668,0,0,0-.7.346.945.945,0,0,1-1.109.071,2.446,2.446,0,0,0-1.867-.322,2.509,2.509,0,0,0-1.873,3,2.593,2.593,0,0,0,.09.306.945.945,0,0,1-.605,1.222,2.449,2.449,0,0,0,.721,4.781,2.413,2.413,0,0,0,.527-.059l.045-.011A.945.945,0,0,1,11.5,29.767Z" transform="translate(-0.08 -0.076)" fill="#121212"/><path d="M53.814,33.266v-.032a2.6,2.6,0,0,0-5.12-.5,2.785,2.785,0,0,0-.4-.029,2.545,2.545,0,1,0,0,5.086,2.687,2.687,0,0,0,1.021-.2,2.124,2.124,0,0,0,3.711.216,2.51,2.51,0,0,0,.39.031,2.3,2.3,0,0,0,.4-4.575" transform="translate(-0.498 -0.12)" fill="#fff"/><path d="M51.23,29.793a3.516,3.516,0,0,1,3.457,2.739,3.236,3.236,0,0,1,2.063,3.005,3.294,3.294,0,0,1-3.285,3.249,3.081,3.081,0,0,1-4.558-.1,3.7,3.7,0,0,1-.61.05,3.486,3.486,0,0,1-.262-6.967A3.554,3.554,0,0,1,51.23,29.793Zm1.64,3.428a1.6,1.6,0,0,0-1.64-1.538,1.623,1.623,0,0,0-1.609,1.246.945.945,0,0,1-1.06.741,1.846,1.846,0,0,0-.264-.019,1.6,1.6,0,1,0,0,3.2,1.738,1.738,0,0,0,.662-.128.945.945,0,0,1,1.218.483,1.148,1.148,0,0,0,1.053.653,1.165,1.165,0,0,0,.993-.54.945.945,0,0,1,.952-.439,1.418,1.418,0,0,0,1.684-1.34,1.379,1.379,0,0,0-1.2-1.338.945.945,0,0,1-.794-.962Z" transform="translate(-0.498 -0.12)" fill="#121212"/><path d="M14.712,50.026c.453.213.689.317,1.184.517.037.4.055.606.093,1.01a17.436,17.436,0,0,1-2.112-1.006c-.252-1.9-.379-2.847-.631-4.744.4.2.61.3,1.043.49.169,1.493.253,2.24.422,3.733" transform="translate(-0.145 -0.179)" fill="#ea5457"/><path d="M19.628,50.413a.923.923,0,0,1-.578.405,1.727,1.727,0,0,1-.944-.071c-.249-.078-.372-.118-.613-.2.045.642.067.964.112,1.607-.479-.164-.711-.25-1.159-.426-.163-1.9-.245-2.85-.408-4.749.717.258,1.092.381,1.872.611a3.132,3.132,0,0,1,.99.479,2.274,2.274,0,0,1,.65.724,2,2,0,0,1,.247.882,1.266,1.266,0,0,1-.169.737m-1.2-1.108a.722.722,0,0,0-.58-.683c-.2-.063-.3-.095-.5-.158.029.413.044.62.072,1.033.2.065.3.1.5.158.358.112.533-.007.513-.35" transform="translate(-0.175 -0.184)" fill="#ea5457"/><path d="M21.9,52.316c.643.136.972.2,1.645.32.007.41.011.616.02,1.027-1.269-.228-1.877-.36-3.032-.65-.075-1.916-.113-2.875-.189-4.791.567.13.856.193,1.446.31l.11,3.785" transform="translate(-0.222 -0.189)" fill="#ea5457"/><path d="M28.479,51.862a1.491,1.491,0,0,1-.755.513,2.759,2.759,0,0,1-1.21.088c-.319-.037-.478-.057-.792-.1L25.737,54c-.631-.087-.943-.133-1.55-.235-.032-1.933-.045-2.9-.076-4.834.931.142,1.408.205,2.384.313a3.584,3.584,0,0,1,1.214.329,1.938,1.938,0,0,1,.765.639,1.526,1.526,0,0,1,.257.864,1.288,1.288,0,0,1-.251.785m-1.442-.939c0-.354-.236-.554-.693-.607-.257-.03-.385-.046-.64-.078l.01,1.053.637.079c.457.054.688-.1.686-.447" transform="translate(-0.263 -0.192)" fill="#ea5457"/><path d="M31.187,53.439c.776.033,1.17.043,1.966.052v1.042c-1.51-.018-2.249-.049-3.683-.15V49.5c.681.044,1.026.062,1.722.089l0,3.849" transform="translate(-0.322 -0.194)" fill="#ea5457"/><path d="M38.592,51.919a1.88,1.88,0,0,1-.772.633,3.236,3.236,0,0,1-1.281.282c-.344.014-.517.019-.865.029,0,.66,0,.991,0,1.652-.7.019-1.061.024-1.78.024v-4.9c1.069,0,1.6-.009,2.64-.048a3.549,3.549,0,0,1,1.274.148,1.575,1.575,0,0,1,.779.526,1.339,1.339,0,0,1,.258.826,1.46,1.46,0,0,1-.254.825M37.1,51.2c0-.356-.244-.521-.736-.5-.278.01-.417.014-.7.022,0,.424,0,.636,0,1.062.28-.008.419-.012.7-.022.493-.018.735-.206.735-.558" transform="translate(-0.37 -0.194)" fill="#ea5457"/><path d="M41.22,53.082c.721-.085,1.075-.132,1.769-.237,0,.412-.008.618-.013,1.03-1.31.2-1.992.285-3.4.412l.01-4.872c.67-.056,1-.088,1.654-.158-.009,1.53-.014,2.295-.023,3.825" transform="translate(-0.432 -0.193)" fill="#ea5457"/><path d="M47.591,50.564a2.188,2.188,0,0,1-.654.722,2.757,2.757,0,0,1-1.065.448c-.287.06-.431.089-.724.144-.016.65-.023.976-.039,1.627-.586.116-.884.17-1.494.272.03-1.934.044-2.9.073-4.835.933-.141,1.389-.22,2.273-.393a2.475,2.475,0,0,1,1.067-.02.991.991,0,0,1,.625.415,1.3,1.3,0,0,1,.178.777,1.919,1.919,0,0,1-.241.843m-1.2-.511c.011-.35-.187-.48-.6-.4-.234.047-.353.069-.591.114l-.025,1.045c.237-.045.354-.068.588-.115.413-.083.62-.3.631-.645" transform="translate(-0.476 -0.19)" fill="#ea5457"/><path d="M49.62,51.368c.561-.176.832-.268,1.355-.458-.032.4-.047.607-.08,1.011-.977.363-1.5.533-2.614.843.092-1.912.137-2.869.229-4.78.55-.14.818-.214,1.341-.368-.092,1.5-.138,2.251-.231,3.752" transform="translate(-0.527 -0.187)" fill="#ea5457"/><path d="M54.41,48.1a3.027,3.027,0,0,1-.507.792,2.323,2.323,0,0,1-.768.572c-.2.094-.308.14-.519.232-.065.64-.1.961-.164,1.6-.416.185-.633.276-1.082.451.162-1.9.243-2.851.4-4.75.719-.257,1.062-.393,1.713-.676a1.374,1.374,0,0,1,.755-.155.473.473,0,0,1,.384.33,1.6,1.6,0,0,1,.035.744,3.237,3.237,0,0,1-.25.86m-.759-.354c.041-.346-.083-.449-.387-.316-.171.075-.258.113-.435.185-.042.412-.063.618-.106,1.03.174-.074.259-.111.427-.186a.828.828,0,0,0,.5-.713" transform="translate(-0.561 -0.181)" fill="#ea5457"/><path d="M18.458,82.842a4.109,4.109,0,0,0,.518.547l.094,1.01a3.134,3.134,0,0,1-.8-1.026c-.252-1.9-.378-2.847-.63-4.744a3.46,3.46,0,0,0,.4.48c.169,1.493.253,2.24.422,3.733" transform="translate(-0.193 -0.308)" fill="#ea5457"/><path d="M21.188,83.5a.59.59,0,0,1-.387.358.782.782,0,0,1-.607-.139c-.155-.1-.23-.143-.374-.24.045.642.067.964.112,1.607a6.661,6.661,0,0,1-.637-.493c-.163-1.9-.244-2.85-.408-4.749A8.972,8.972,0,0,0,20,80.564a2.437,2.437,0,0,1,.656.548,2.668,2.668,0,0,1,.457.772,2.847,2.847,0,0,1,.186.9,1.633,1.633,0,0,1-.108.722m-.821-1.2a.836.836,0,0,0-.382-.722c-.129-.076-.191-.114-.312-.19.029.412.044.62.072,1.033.119.077.179.116.3.191.224.135.336.031.317-.312" transform="translate(-0.206 -0.313)" fill="#ea5457"/><path d="M22.865,85.582c.5.189.759.281,1.312.452l.02,1.027a16.261,16.261,0,0,1-2.342-.9c-.076-1.916-.114-2.875-.19-4.791.414.176.633.261,1.092.425l.109,3.785" transform="translate(-0.236 -0.319)" fill="#ea5457"/><path d="M28.533,85.588a1.3,1.3,0,0,1-.7.472,2.243,2.243,0,0,1-1.1.015c-.287-.058-.427-.089-.7-.151l.015,1.637c-.554-.129-.82-.2-1.329-.349-.03-1.933-.045-2.9-.075-4.834.782.212,1.2.31,2.072.479a3.409,3.409,0,0,1,1.106.4,2.032,2.032,0,0,1,.711.679,1.664,1.664,0,0,1,.243.877,1.287,1.287,0,0,1-.236.773M27.2,84.568c0-.354-.216-.568-.624-.65-.23-.047-.344-.071-.568-.121,0,.421.006.632.009,1.053.224.051.336.075.566.122.407.084.619-.054.617-.4" transform="translate(-0.269 -0.323)" fill="#ea5457"/><path d="M31.145,87.271c.77.054,1.167.073,1.985.088,0,.416,0,.625,0,1.041a30.448,30.448,0,0,1-3.658-.247V83.272c.653.074.989.1,1.678.149l0,3.85" transform="translate(-0.322 -0.326)" fill="#ea5457"/><path d="M38.581,85.68a1.9,1.9,0,0,1-.743.664,3.062,3.062,0,0,1-1.256.325c-.342.023-.515.032-.866.048,0,.66,0,.991,0,1.652-.71.033-1.077.041-1.825.04,0-1.957,0-2.936,0-4.895,1.111,0,1.651-.017,2.684-.084a3.458,3.458,0,0,1,1.25.107,1.418,1.418,0,0,1,.749.493,1.336,1.336,0,0,1,.246.814,1.579,1.579,0,0,1-.242.837m-1.441-.661c0-.356-.237-.512-.728-.482-.277.017-.416.024-.7.036,0,.425,0,.637,0,1.062.283-.012.422-.02.7-.037.491-.03.727-.227.727-.579" transform="translate(-0.37 -0.327)" fill="#ea5457"/><path d="M41.018,86.7c.648-.13.958-.2,1.552-.36,0,.412-.008.619-.013,1.03A24.04,24.04,0,0,1,39.515,88c0-1.949.006-2.925.009-4.873.627-.091.931-.141,1.517-.254-.009,1.53-.014,2.295-.023,3.825" transform="translate(-0.431 -0.325)" fill="#ea5457"/><path d="M46.223,83.7a2.4,2.4,0,0,1-.484.774,2.067,2.067,0,0,1-.809.534c-.222.084-.336.125-.57.2-.015.65-.023.975-.038,1.626-.466.164-.71.242-1.222.39.03-1.934.045-2.9.073-4.835.786-.211,1.156-.327,1.846-.571a1.5,1.5,0,0,1,.813-.106.639.639,0,0,1,.454.365,1.614,1.614,0,0,1,.118.76,2.712,2.712,0,0,1-.182.859m-.882-.411c.011-.35-.136-.464-.462-.349-.184.066-.278.1-.468.16l-.025,1.046c.189-.064.282-.1.464-.162a.7.7,0,0,0,.491-.7" transform="translate(-0.47 -0.32)" fill="#ea5457"/><path d="M47.573,84.346a8.175,8.175,0,0,0,.8-.545l-.079,1.011a8.745,8.745,0,0,1-1.617,1.026c.092-1.911.138-2.868.23-4.78.383-.182.563-.275.9-.464-.092,1.5-.138,2.251-.231,3.752" transform="translate(-0.509 -0.316)" fill="#ea5457"/><path d="M49.94,80.93a6.541,6.541,0,0,1-.2.78,1.76,1.76,0,0,1-.293.569c-.081.1-.125.144-.219.242-.066.64-.1.96-.165,1.6a4.718,4.718,0,0,1-.511.493l.406-4.75a5.649,5.649,0,0,0,.842-.728c.135-.139.226-.19.284-.153s.08.152.078.342a6.142,6.142,0,0,1-.07.749q-.059.432-.146.856m-.187-.37c.041-.346.008-.45-.122-.313-.073.077-.113.116-.194.193-.043.412-.063.618-.106,1.03.078-.078.116-.117.186-.194a1.314,1.314,0,0,0,.235-.716" transform="translate(-0.53 -0.309)" fill="#ea5457"/></g></g></g></svg>