<svg xmlns="http://www.w3.org/2000/svg" width="83" height="4" viewBox="0 0 83 4"><g transform="translate(0 0)"><path d="M1.9,4A1.869,1.869,0,0,1,.56,3.41a1.594,1.594,0,0,1-.24-.3,1.364,1.364,0,0,1-.17-.347,1.487,1.487,0,0,1-.11-.367A1.658,1.658,0,0,1,0,2a1.617,1.617,0,0,1,.04-.39,1.719,1.719,0,0,1,.11-.377A1.819,1.819,0,0,1,.32.888,1.557,1.557,0,0,1,.56.594,1.386,1.386,0,0,1,.849.342,1.966,1.966,0,0,1,1.17.152,2.454,2.454,0,0,1,1.53.046a1.5,1.5,0,0,1,.74,0,2.479,2.479,0,0,1,.359.106A2.531,2.531,0,0,1,2.96.342a1.638,1.638,0,0,1,.28.252A2.025,2.025,0,0,1,3.8,2,2.023,2.023,0,0,1,3.24,3.41,1.871,1.871,0,0,1,1.9,4" transform="translate(0 0)" fill="#fff"/><path d="M71.975,2a1.882,1.882,0,1,1,3.757,0,1.882,1.882,0,1,1-3.757,0M64.789,2a1.881,1.881,0,1,1,3.755,0,1.881,1.881,0,1,1-3.755,0m-7.2,0a1.882,1.882,0,1,1,3.756,0,1.882,1.882,0,1,1-3.756,0M50.407,2a1.881,1.881,0,1,1,3.755,0,1.881,1.881,0,1,1-3.755,0M43.219,2a1.882,1.882,0,1,1,3.757,0,1.882,1.882,0,1,1-3.757,0M36.025,2a1.885,1.885,0,1,1,3.764,0,1.885,1.885,0,1,1-3.764,0M28.838,2a1.881,1.881,0,1,1,3.755,0,1.881,1.881,0,1,1-3.755,0M21.652,2a1.882,1.882,0,1,1,3.757,0,1.882,1.882,0,1,1-3.757,0M14.465,2a1.882,1.882,0,1,1,3.757,0,1.882,1.882,0,1,1-3.757,0M7.271,2A1.947,1.947,0,0,1,9.158,0a1.939,1.939,0,0,1,1.869,2A1.939,1.939,0,0,1,9.158,4,1.947,1.947,0,0,1,7.271,2" fill="#fff"/><path d="M81.9,4a1.869,1.869,0,0,1-1.34-.59A2.02,2.02,0,0,1,80,2,2.023,2.023,0,0,1,80.56.592a1.883,1.883,0,0,1,2.68,0A2.026,2.026,0,0,1,83.8,2,2.024,2.024,0,0,1,83.24,3.41,1.87,1.87,0,0,1,81.9,4" transform="translate(-0.799 0)" fill="#fff"/></g></svg>