<svg xmlns="http://www.w3.org/2000/svg" xmlns:xlink="http://www.w3.org/1999/xlink" width="338" height="262" viewBox="0 0 338 262"><defs><clipPath id="a"><rect width="338" height="262" transform="translate(882 983)" fill="#c33636" opacity="0.627"/></clipPath><clipPath id="b"><rect width="284" height="242" fill="none"/></clipPath><clipPath id="c"><path d="M148.909,0l.879,93.586,33.841,30.281c0,5.834,13.9,10.563,31.053,10.563s31.055-4.729,31.055-10.563L254.417,0Z" transform="translate(-148.909)" fill="none"/></clipPath></defs><g transform="translate(-882 -983)" clip-path="url(#a)"><g transform="translate(909 993)"><g clip-path="url(#b)"><path d="M114.536,26.7l-38.994-.647a24.924,24.924,0,0,0-6.138.824L6.975,45.074c-1.653.482-1.6.876.125.876H59.8" transform="translate(-0.01 -0.028)" fill="#cacaca"/><path d="M59.8,47.4H7.1a6.581,6.581,0,0,1-1.263-.1,1.637,1.637,0,0,1-.452-3.165,6.583,6.583,0,0,1,1.185-.447L69,25.489a26.154,26.154,0,0,1,6.567-.882l38.993.647a1.445,1.445,0,1,1-.048,2.891L75.518,27.5a23.521,23.521,0,0,0-5.71.767L14.094,44.5H59.8a1.445,1.445,0,0,1,0,2.891Z" transform="translate(-0.01 -0.028)" fill="#121212"/><path d="M59.474,226.491H4.576a3.142,3.142,0,0,1-3.131-3.134V49.107a3.141,3.141,0,0,1,3.131-3.134H59.793" transform="translate(-0.003 -0.05)" fill="#cacaca"/><path d="M59.474,227.936H4.576A4.583,4.583,0,0,1,0,223.357V49.107a4.583,4.583,0,0,1,4.577-4.579H59.793a1.445,1.445,0,0,1,0,2.891H4.576A1.689,1.689,0,0,0,2.89,49.107v174.25a1.689,1.689,0,0,0,1.686,1.688h54.9a1.446,1.446,0,0,1,0,2.891Z" transform="translate(-0.003 -0.05)" fill="#121212"/><path d="M117.161,202.993a4.756,4.756,0,0,1-2.953,4.176L60.287,226.225a2.078,2.078,0,0,1-2.953-2.091v-174a4.756,4.756,0,0,1,2.953-4.176l53.922-19.054A2.078,2.078,0,0,1,117.161,29Z" transform="translate(-0.103 -0.029)" fill="#cacaca"/><path d="M59.36,227.839a3.476,3.476,0,0,1-3.472-3.7v-174a6.206,6.206,0,0,1,3.917-5.54l53.921-19.054a4.225,4.225,0,0,1,1.409-.251,3.475,3.475,0,0,1,3.471,3.7v174a6.205,6.205,0,0,1-3.917,5.54L60.768,227.588A4.227,4.227,0,0,1,59.36,227.839ZM115.136,28.185a1.353,1.353,0,0,0-.445.086L60.768,47.325a3.341,3.341,0,0,0-1.989,2.814v174c0,.54.2.813.581.813a1.353,1.353,0,0,0,.445-.086l53.921-19.055a3.341,3.341,0,0,0,1.989-2.814V29C115.715,28.458,115.52,28.185,115.136,28.185Z" transform="translate(-0.103 -0.029)" fill="#121212"/><path d="M82.587,94.433a3.438,3.438,0,0,1-1.853,3.147c-1.024.366-1.854-.452-1.854-1.824a3.438,3.438,0,0,1,1.854-3.148c1.023-.365,1.853.453,1.853,1.825" transform="translate(-0.142 -0.1)" fill="#231815"/><path d="M0,2.706a1.446,1.446,0,0,1-1.362-.96A1.445,1.445,0,0,1-.486-.1l3.532-1.26a1.446,1.446,0,0,1,1.847.876,1.445,1.445,0,0,1-.876,1.847L.486,2.621A1.443,1.443,0,0,1,0,2.706Z" transform="translate(80.728 85.633)" fill="#121212"/><path d="M0,4.193a1.446,1.446,0,0,1-1.362-.96A1.446,1.446,0,0,1-.486,1.386l7.7-2.747a1.446,1.446,0,0,1,1.847.876,1.446,1.446,0,0,1-.876,1.847L.486,4.109A1.443,1.443,0,0,1,0,4.193Z" transform="translate(84.888 106.991)" fill="#121212"/><path d="M97.115,89.254A3.438,3.438,0,0,1,95.263,92.4c-1.024.366-1.854-.451-1.854-1.824a3.438,3.438,0,0,1,1.854-3.148c1.023-.365,1.853.453,1.853,1.825" transform="translate(-0.168 -0.094)" fill="#231815"/><path d="M0,2.706a1.446,1.446,0,0,1-1.362-.96A1.445,1.445,0,0,1-.486-.1l3.532-1.26a1.446,1.446,0,0,1,1.847.876,1.445,1.445,0,0,1-.876,1.847L.486,2.621A1.443,1.443,0,0,1,0,2.706Z" transform="translate(91.546 81.686)" fill="#121212"/><path d="M0,2.076a1.446,1.446,0,0,1-1.361-.96A1.445,1.445,0,0,1-.486-.731l1.766-.63a1.445,1.445,0,0,1,1.847.875,1.445,1.445,0,0,1-.875,1.847l-1.766.63A1.443,1.443,0,0,1,0,2.076Z" transform="translate(87.604 99.596)" fill="#121212"/><path d="M105.533,54.384a4.34,4.34,0,0,1-2.319,3.961c-1.275.455-2.319-.583-2.319-2.307V48.653a4.34,4.34,0,0,1,2.319-3.961c1.276-.456,2.319.582,2.319,2.306Z" transform="translate(-0.182 -0.048)" fill="#ea5457"/><path d="M102.626,59.9c-1.841,0-3.177-1.623-3.177-3.859V48.653a6.41,6.41,0,0,1,.88-3.187,4.736,4.736,0,0,1,2.4-2.135,3.192,3.192,0,0,1,1.074-.191c1.84,0,3.175,1.623,3.175,3.859v7.386a6.41,6.41,0,0,1-.879,3.186,4.738,4.738,0,0,1-2.4,2.136A3.192,3.192,0,0,1,102.626,59.9Zm0-2.891a.3.3,0,0,0,.106-.023,2.991,2.991,0,0,0,1.359-2.6V47a1.279,1.279,0,0,0-.281-.968.3.3,0,0,0-.106.023,2.99,2.99,0,0,0-1.359,2.6v7.386A1.272,1.272,0,0,0,102.623,57.006Z" transform="translate(-0.182 -0.048)" fill="#121212"/><path d="M0,181.708a1.446,1.446,0,0,1-1.446-1.445V0A1.445,1.445,0,0,1,0-1.445,1.445,1.445,0,0,1,1.446,0V180.263A1.446,1.446,0,0,1,0,181.708Z" transform="translate(109.926 28.179)" fill="#121212"/><path d="M0,181.708a1.446,1.446,0,0,1-1.446-1.445V0A1.445,1.445,0,0,1,0-1.445,1.445,1.445,0,0,1,1.446,0V180.263A1.446,1.446,0,0,1,0,181.708Z" transform="translate(65.761 43.934)" fill="#121212"/><path d="M0,17.2a1.446,1.446,0,0,1-1.362-.96,1.446,1.446,0,0,1,.876-1.847L43.68-1.361a1.445,1.445,0,0,1,1.847.876,1.446,1.446,0,0,1-.876,1.847L.486,17.116A1.443,1.443,0,0,1,0,17.2Z" transform="translate(65.761 200.066)" fill="#121212"/><path d="M0,17.2a1.446,1.446,0,0,1-1.362-.96,1.446,1.446,0,0,1,.876-1.847L43.68-1.361a1.445,1.445,0,0,1,1.847.876,1.446,1.446,0,0,1-.876,1.847L.486,17.116A1.443,1.443,0,0,1,0,17.2Z" transform="translate(65.761 192.074)" fill="#121212"/><path d="M0,17.2a1.446,1.446,0,0,1-1.362-.96,1.446,1.446,0,0,1,.876-1.847L43.68-1.361a1.445,1.445,0,0,1,1.847.876,1.446,1.446,0,0,1-.876,1.847L.486,17.116A1.443,1.443,0,0,1,0,17.2Z" transform="translate(65.761 184.082)" fill="#121212"/><path d="M0,17.2a1.446,1.446,0,0,1-1.362-.96,1.446,1.446,0,0,1,.876-1.847L43.68-1.361a1.445,1.445,0,0,1,1.847.876,1.446,1.446,0,0,1-.876,1.847L.486,17.116A1.443,1.443,0,0,1,0,17.2Z" transform="translate(65.761 176.091)" fill="#121212"/><path d="M0,17.2a1.446,1.446,0,0,1-1.362-.96,1.446,1.446,0,0,1,.876-1.847L43.68-1.361a1.446,1.446,0,0,1,1.847.876,1.445,1.445,0,0,1-.876,1.847L.486,17.116A1.443,1.443,0,0,1,0,17.2Z" transform="translate(65.761 168.099)" fill="#121212"/><path d="M0,17.2a1.446,1.446,0,0,1-1.362-.96,1.446,1.446,0,0,1,.876-1.847L43.68-1.361a1.446,1.446,0,0,1,1.847.876,1.445,1.445,0,0,1-.876,1.847L.486,17.116A1.443,1.443,0,0,1,0,17.2Z" transform="translate(65.761 160.107)" fill="#121212"/><path d="M0,17.2a1.446,1.446,0,0,1-1.362-.96,1.446,1.446,0,0,1,.876-1.847L43.68-1.361a1.446,1.446,0,0,1,1.847.876,1.445,1.445,0,0,1-.876,1.847L.486,17.116A1.443,1.443,0,0,1,0,17.2Z" transform="translate(65.761 35.991)" fill="#121212"/><path d="M0,17.2a1.446,1.446,0,0,1-1.362-.96,1.446,1.446,0,0,1,.876-1.847L43.68-1.361a1.446,1.446,0,0,1,1.847.876,1.445,1.445,0,0,1-.876,1.847L.486,17.116A1.443,1.443,0,0,1,0,17.2Z" transform="translate(65.761 62.031)" fill="#121212"/><path d="M0,2.642a1.446,1.446,0,0,1-1.362-.96A1.445,1.445,0,0,1-.486-.166l3.352-1.2a1.445,1.445,0,0,1,1.847.876,1.445,1.445,0,0,1-.876,1.847L.486,2.557A1.443,1.443,0,0,1,0,2.642Z" transform="translate(70.725 55.621)" fill="#121212"/><path d="M0,2.642a1.446,1.446,0,0,1-1.362-.96A1.445,1.445,0,0,1-.486-.166l3.352-1.2a1.445,1.445,0,0,1,1.847.876,1.445,1.445,0,0,1-.876,1.847L.486,2.557A1.443,1.443,0,0,1,0,2.642Z" transform="translate(70.725 61.8)" fill="#121212"/><path d="M0,2.642a1.446,1.446,0,0,1-1.362-.96A1.445,1.445,0,0,1-.486-.166l3.352-1.2a1.445,1.445,0,0,1,1.847.876,1.445,1.445,0,0,1-.876,1.847L.486,2.557A1.443,1.443,0,0,1,0,2.642Z" transform="translate(70.725 67.979)" fill="#121212"/><path d="M0,2.642a1.446,1.446,0,0,1-1.362-.96A1.445,1.445,0,0,1-.486-.166l3.352-1.2a1.445,1.445,0,0,1,1.847.876,1.445,1.445,0,0,1-.876,1.847L.486,2.557A1.443,1.443,0,0,1,0,2.642Z" transform="translate(79.284 52.567)" fill="#121212"/><path d="M0,2.642a1.446,1.446,0,0,1-1.362-.96A1.445,1.445,0,0,1-.486-.166l3.352-1.2a1.445,1.445,0,0,1,1.847.876,1.445,1.445,0,0,1-.876,1.847L.486,2.557A1.443,1.443,0,0,1,0,2.642Z" transform="translate(79.284 58.746)" fill="#121212"/><path d="M0,2.642a1.446,1.446,0,0,1-1.362-.96A1.445,1.445,0,0,1-.486-.166l3.352-1.2a1.445,1.445,0,0,1,1.847.876,1.445,1.445,0,0,1-.876,1.847L.486,2.557A1.443,1.443,0,0,1,0,2.642Z" transform="translate(79.284 64.925)" fill="#121212"/><path d="M0,2.642a1.446,1.446,0,0,1-1.362-.96A1.445,1.445,0,0,1-.486-.166l3.352-1.2a1.445,1.445,0,0,1,1.847.876,1.445,1.445,0,0,1-.876,1.847L.486,2.557A1.443,1.443,0,0,1,0,2.642Z" transform="translate(87.843 49.514)" fill="#121212"/><path d="M0,2.642a1.446,1.446,0,0,1-1.362-.96A1.445,1.445,0,0,1-.486-.166l3.352-1.2a1.445,1.445,0,0,1,1.847.876,1.445,1.445,0,0,1-.876,1.847L.486,2.557A1.443,1.443,0,0,1,0,2.642Z" transform="translate(87.843 55.693)" fill="#121212"/><path d="M0,2.642a1.446,1.446,0,0,1-1.362-.96A1.445,1.445,0,0,1-.486-.166l3.352-1.2a1.445,1.445,0,0,1,1.847.876,1.445,1.445,0,0,1-.876,1.847L.486,2.557A1.443,1.443,0,0,1,0,2.642Z" transform="translate(87.843 61.872)" fill="#121212"/><path d="M0,27.485A1.445,1.445,0,0,1-1.446,26.04V0A1.445,1.445,0,0,1,0-1.446,1.445,1.445,0,0,1,1.446,0V26.04A1.445,1.445,0,0,1,0,27.485Z" transform="translate(96.532 40.769)" fill="#121212"/><path d="M105.533,131.476a4.34,4.34,0,0,1-2.319,3.961c-1.275.455-2.319-.583-2.319-2.307v-7.386a4.34,4.34,0,0,1,2.319-3.961c1.276-.455,2.319.582,2.319,2.307Z" transform="translate(-0.182 -0.132)" fill="#ea5457"/><path d="M102.626,136.989c-1.841,0-3.177-1.623-3.177-3.859v-7.386a6.41,6.41,0,0,1,.88-3.187,4.736,4.736,0,0,1,2.4-2.135,3.192,3.192,0,0,1,1.074-.191c1.84,0,3.175,1.623,3.175,3.859v7.386a6.41,6.41,0,0,1-.879,3.186,4.738,4.738,0,0,1-2.4,2.136A3.192,3.192,0,0,1,102.626,136.989Zm0-2.891a.294.294,0,0,0,.106-.023,2.991,2.991,0,0,0,1.359-2.6V124.09a1.279,1.279,0,0,0-.281-.968.3.3,0,0,0-.106.023,2.99,2.99,0,0,0-1.359,2.6v7.386A1.272,1.272,0,0,0,102.623,134.1Z" transform="translate(-0.182 -0.132)" fill="#121212"/><path d="M72.887,169.406a3.469,3.469,0,0,1-3.464-3.7v-3.995a6.225,6.225,0,0,1,3.911-5.547l28.3-10.1a4.22,4.22,0,0,1,1.418-.255,3.468,3.468,0,0,1,3.462,3.7v4a6.224,6.224,0,0,1-3.909,5.547l-28.3,10.1A4.221,4.221,0,0,1,72.887,169.406Zm30.169-20.7a1.348,1.348,0,0,0-.447.087l-28.3,10.1a3.36,3.36,0,0,0-1.991,2.824v3.995a1.014,1.014,0,0,0,.191.666.467.467,0,0,0,.382.141,1.348,1.348,0,0,0,.447-.087l28.3-10.1a3.359,3.359,0,0,0,1.989-2.824v-4a1.014,1.014,0,0,0-.19-.666A.465.465,0,0,0,103.056,148.705Z" transform="translate(-0.128 -0.159)" fill="#121212"/><path d="M0,17.2a1.446,1.446,0,0,1-1.362-.96,1.446,1.446,0,0,1,.876-1.847L43.68-1.361a1.446,1.446,0,0,1,1.847.876,1.445,1.445,0,0,1-.876,1.847L.486,17.116A1.443,1.443,0,0,1,0,17.2Z" transform="translate(65.761 113)" fill="#121212"/><path d="M0,17.2a1.446,1.446,0,0,1-1.362-.96,1.446,1.446,0,0,1,.876-1.847L43.68-1.361a1.446,1.446,0,0,1,1.847.876,1.445,1.445,0,0,1-.876,1.847L.486,17.116A1.443,1.443,0,0,1,0,17.2Z" transform="translate(65.761 139.04)" fill="#121212"/><path d="M0,2.642a1.446,1.446,0,0,1-1.362-.96A1.445,1.445,0,0,1-.486-.166l3.352-1.2a1.445,1.445,0,0,1,1.847.876,1.445,1.445,0,0,1-.876,1.847L.486,2.557A1.443,1.443,0,0,1,0,2.642Z" transform="translate(70.725 132.63)" fill="#121212"/><path d="M0,2.642a1.446,1.446,0,0,1-1.362-.96A1.445,1.445,0,0,1-.486-.166l3.352-1.2a1.445,1.445,0,0,1,1.847.876,1.445,1.445,0,0,1-.876,1.847L.486,2.557A1.443,1.443,0,0,1,0,2.642Z" transform="translate(70.725 138.809)" fill="#121212"/><path d="M0,2.642a1.446,1.446,0,0,1-1.362-.96A1.445,1.445,0,0,1-.486-.166l3.352-1.2a1.445,1.445,0,0,1,1.847.876,1.445,1.445,0,0,1-.876,1.847L.486,2.557A1.443,1.443,0,0,1,0,2.642Z" transform="translate(70.725 144.988)" fill="#121212"/><path d="M0,2.642a1.446,1.446,0,0,1-1.362-.96A1.445,1.445,0,0,1-.486-.166l3.352-1.2a1.445,1.445,0,0,1,1.847.876,1.445,1.445,0,0,1-.876,1.847L.486,2.557A1.443,1.443,0,0,1,0,2.642Z" transform="translate(79.284 129.576)" fill="#121212"/><path d="M0,2.642a1.446,1.446,0,0,1-1.362-.96A1.445,1.445,0,0,1-.486-.166l3.352-1.2a1.445,1.445,0,0,1,1.847.876,1.445,1.445,0,0,1-.876,1.847L.486,2.557A1.443,1.443,0,0,1,0,2.642Z" transform="translate(79.284 135.755)" fill="#121212"/><path d="M0,2.642a1.446,1.446,0,0,1-1.362-.96A1.445,1.445,0,0,1-.486-.166l3.352-1.2a1.445,1.445,0,0,1,1.847.876,1.445,1.445,0,0,1-.876,1.847L.486,2.557A1.443,1.443,0,0,1,0,2.642Z" transform="translate(79.284 141.934)" fill="#121212"/><path d="M0,2.642a1.446,1.446,0,0,1-1.362-.96A1.445,1.445,0,0,1-.486-.166l3.352-1.2a1.445,1.445,0,0,1,1.847.876,1.445,1.445,0,0,1-.876,1.847L.486,2.557A1.443,1.443,0,0,1,0,2.642Z" transform="translate(87.843 126.523)" fill="#121212"/><path d="M0,2.642a1.446,1.446,0,0,1-1.362-.96A1.445,1.445,0,0,1-.486-.166l3.352-1.2a1.445,1.445,0,0,1,1.847.876,1.445,1.445,0,0,1-.876,1.847L.486,2.557A1.443,1.443,0,0,1,0,2.642Z" transform="translate(87.843 132.702)" fill="#121212"/><path d="M0,2.642a1.446,1.446,0,0,1-1.362-.96A1.445,1.445,0,0,1-.486-.166l3.352-1.2a1.445,1.445,0,0,1,1.847.876,1.445,1.445,0,0,1-.876,1.847L.486,2.557A1.443,1.443,0,0,1,0,2.642Z" transform="translate(87.843 138.881)" fill="#121212"/><path d="M0,27.485A1.446,1.446,0,0,1-1.446,26.04V0A1.445,1.445,0,0,1,0-1.445,1.445,1.445,0,0,1,1.446,0V26.04A1.446,1.446,0,0,1,0,27.485Z" transform="translate(96.532 117.778)" fill="#121212"/><path d="M0,6.206a1.446,1.446,0,0,1-1.362-.96A1.445,1.445,0,0,1-.486,3.4l13.343-4.76A1.445,1.445,0,0,1,14.7-.486a1.445,1.445,0,0,1-.876,1.847L.486,6.121A1.443,1.443,0,0,1,0,6.206Z" transform="translate(74.5 157.451)" fill="#121212"/><path d="M0,2.132a1.446,1.446,0,0,1-1.362-.96A1.445,1.445,0,0,1-.485-.675l1.925-.686a1.446,1.446,0,0,1,1.847.876A1.445,1.445,0,0,1,2.41,1.362L.486,2.048A1.443,1.443,0,0,1,0,2.132Z" transform="translate(92.479 155.111)" fill="#121212"/><path d="M0,2.132a1.446,1.446,0,0,1-1.362-.96A1.445,1.445,0,0,1-.485-.675l1.925-.686a1.446,1.446,0,0,1,1.847.876A1.445,1.445,0,0,1,2.41,1.362L.486,2.048A1.443,1.443,0,0,1,0,2.132Z" transform="translate(98.66 152.906)" fill="#121212"/><path d="M46.866,127.213c-5.85,2.939-7.62,7.5-10.457,13.154-1.058,2.108-5.614,9.8-11.615,5.027-4.708-3.747-2.524-11.584-1.56-13.768,2.2-4.971,10.311-13.189,23.632-9.629Z" transform="translate(-0.039 -0.131)" fill="#fff"/><path d="M40.546,119.683a25.988,25.988,0,0,1,6.693.917,1.446,1.446,0,0,1,1.072,1.4v5.216a1.446,1.446,0,0,1-.8,1.292A14.773,14.773,0,0,0,42.125,133a40.053,40.053,0,0,0-3.611,6.378c-.262.532-.533,1.081-.813,1.64a19.312,19.312,0,0,1-2.892,4.222c-1.923,2.081-3.987,3.137-6.134,3.137a7.649,7.649,0,0,1-4.781-1.85c-2.367-1.884-3.561-4.873-3.452-8.643a20.052,20.052,0,0,1,1.47-6.84,19.177,19.177,0,0,1,6.22-7.382A20.97,20.97,0,0,1,40.546,119.683Zm4.874,3.448a22.517,22.517,0,0,0-4.874-.557,18.524,18.524,0,0,0-6.022.981A17.814,17.814,0,0,0,29.83,126a16.454,16.454,0,0,0-5.274,6.211,17.143,17.143,0,0,0-1.225,5.756c-.083,2.865.712,4.984,2.363,6.3a4.859,4.859,0,0,0,2.981,1.221,5.7,5.7,0,0,0,4.01-2.208,16.291,16.291,0,0,0,2.432-3.558c.276-.549.544-1.094.8-1.621,2.343-4.755,4.382-8.893,9.5-11.754Z" transform="translate(-0.039 -0.131)" fill="#121212"/><path d="M31.9,99.041a2.927,2.927,0,0,1-2.363-1.186,5.053,5.053,0,0,1-.884-3.133V89.664a1.131,1.131,0,0,1,2.262,0v5.058c0,.995.259,2.058.985,2.058a1.581,1.581,0,0,0,1.353-1.688V91.9a1.131,1.131,0,0,1,2.262,0v3.193a4.065,4.065,0,0,1-1.1,2.819A3.514,3.514,0,0,1,31.9,99.041Z" transform="translate(-0.054 -0.097)" fill="#121212"/><path d="M22.546,110.664a2.927,2.927,0,0,1-2.363-1.186,5.053,5.053,0,0,1-.884-3.133v-5.058a1.131,1.131,0,0,1,2.262,0v5.058c0,.995.259,2.058.985,2.058a1.581,1.581,0,0,0,1.353-1.688v-3.193a1.131,1.131,0,1,1,2.262,0v3.193a4.065,4.065,0,0,1-1.1,2.819A3.514,3.514,0,0,1,22.546,110.664Z" transform="translate(-0.037 -0.11)" fill="#121212"/><path d="M196.921,236.255c-7.581,3.286-17.895,1.671-22.478-5.125-4.856-7.181-2.8-18.453,4.542-22.7-7.5-3.091-9.335-13.761-4.36-20.362,4.7-6.23,16.658-9.433,20.941-1.573,2.369-5.685,9.426-8.356,15.456-7.069,5.478,1.168,9.7,4.58,10.691,10.426,5.415-4.951,15.428-3.286,19.222,3.979,1.321,2.531,1.293,7.685,1.293,7.685s4.786-2.888,9.726-.35c6.261,3.224,4.018,11.174,9.915,12.628,4.521,1.119,8.5-.51,11.718-4.133,1.376,11.992-6.687,21.635-16.364,22.187-4.116.231-10.32-1.811-12.214-4.79-2.543,5.2-5.248,8.069-9.733,9.873s-11.11.916-14.464-2.573c-4.563,7.978-17.447,8.454-23.89,1.895" transform="translate(-0.31 -0.194)" fill="#fff"/><path d="M208.441,242.2a17.75,17.75,0,0,1-11.832-4.3,22.262,22.262,0,0,1-7.835,1.405c-6.582,0-12.373-2.76-15.492-7.385a16.771,16.771,0,0,1-2.644-6.846,19.4,19.4,0,0,1,.264-7.3,17.779,17.779,0,0,1,2.6-6.043,15.124,15.124,0,0,1,2.821-3.134,12.253,12.253,0,0,1-2.669-2.444,14.087,14.087,0,0,1-2.648-5.229,16.369,16.369,0,0,1-.33-7.046,15.4,15.4,0,0,1,2.831-6.643,17.022,17.022,0,0,1,6.062-4.878,17.455,17.455,0,0,1,7.668-1.9,10.6,10.6,0,0,1,8.176,3.4,13.252,13.252,0,0,1,4.457-4.046,16.611,16.611,0,0,1,8.094-2.1A16.939,16.939,0,0,1,219,181.86a13.03,13.03,0,0,1,3.567,5.611,13.119,13.119,0,0,1,6.839-1.852,14.805,14.805,0,0,1,7.273,1.914,13.871,13.871,0,0,1,5.5,5.651,15.068,15.068,0,0,1,1.294,5.3c.032.324.057.636.078.928a12.712,12.712,0,0,1,4.057-.691,10.812,10.812,0,0,1,4.99,1.2,9.771,9.771,0,0,1,3.872,3.574,21.124,21.124,0,0,1,1.853,4.051c1.03,2.765,1.719,4.356,3.886,4.89a10.158,10.158,0,0,0,2.434.308c2.882,0,5.54-1.349,7.9-4.01a1.4,1.4,0,0,1,2.438.77,23.5,23.5,0,0,1-.792,9.453,21.243,21.243,0,0,1-4.1,7.662,19.134,19.134,0,0,1-5.737,4.653,17.136,17.136,0,0,1-7.042,1.975c-.237.013-.483.02-.732.02a20.381,20.381,0,0,1-7.155-1.442,14.834,14.834,0,0,1-4.095-2.339,22.1,22.1,0,0,1-3.449,4.759,17.069,17.069,0,0,1-6.075,3.986,15.1,15.1,0,0,1-5.579,1.011,15.444,15.444,0,0,1-9.127-2.78,13.854,13.854,0,0,1-4.894,3.987A17.549,17.549,0,0,1,208.441,242.2Zm-11.521-7.34a1.4,1.4,0,0,1,1,.419,13.291,13.291,0,0,0,4.78,3.073,16.207,16.207,0,0,0,5.742,1.048,14.738,14.738,0,0,0,6.513-1.454,10.657,10.657,0,0,0,4.641-4.276,1.4,1.4,0,0,1,2.225-.275c1.811,1.884,5.028,3.054,8.4,3.054a12.288,12.288,0,0,0,4.534-.809,14.366,14.366,0,0,0,5.115-3.344,22.039,22.039,0,0,0,3.883-5.846,1.4,1.4,0,0,1,2.439-.135,9.062,9.062,0,0,0,4.252,2.912,17.739,17.739,0,0,0,6.129,1.247c.2,0,.39-.005.574-.016a14.353,14.353,0,0,0,5.9-1.658,16.349,16.349,0,0,0,4.9-3.979,18.461,18.461,0,0,0,3.563-6.66,20.22,20.22,0,0,0,.835-5.389,14.037,14.037,0,0,1-2.271,1.458,11.854,11.854,0,0,1-5.427,1.319,12.955,12.955,0,0,1-3.106-.389,6.645,6.645,0,0,1-4-2.728,16.974,16.974,0,0,1-1.843-3.9c-.914-2.454-1.778-4.771-4.382-6.112a8.038,8.038,0,0,0-3.709-.889,10.15,10.15,0,0,0-4.653,1.192,1.4,1.4,0,0,1-2.123-1.206c.006-1.338-.185-5.211-1.134-7.03a11.077,11.077,0,0,0-4.391-4.509,12,12,0,0,0-5.895-1.551,9.928,9.928,0,0,0-6.75,2.468,1.4,1.4,0,0,1-2.325-.8,10.621,10.621,0,0,0-3.235-6.175,14.148,14.148,0,0,0-9.134-3.4,13.768,13.768,0,0,0-6.709,1.732,9.988,9.988,0,0,0-4.4,4.793,1.4,1.4,0,0,1-2.522.131,7.635,7.635,0,0,0-7.1-3.914,14.855,14.855,0,0,0-6.425,1.606,14.42,14.42,0,0,0-5.069,4.054,12.585,12.585,0,0,0-2.307,5.432,13.551,13.551,0,0,0,.271,5.833,11.308,11.308,0,0,0,2.118,4.2,9.292,9.292,0,0,0,3.693,2.761,1.4,1.4,0,0,1,.167,2.507,11.848,11.848,0,0,0-3.868,3.654,15.2,15.2,0,0,0-2.187,5.1,16.574,16.574,0,0,0-.226,6.235,14.191,14.191,0,0,0,2.2,5.715,13.1,13.1,0,0,0,5.61,4.594,18.516,18.516,0,0,0,7.562,1.557,19.232,19.232,0,0,0,7.59-1.527A1.4,1.4,0,0,1,196.92,234.855Z" transform="translate(-0.31 -0.194)" fill="#121212"/><path d="M196.95,237.69a1.4,1.4,0,0,1-.535-2.694c.346-.143.715-.319,1.162-.554a15.984,15.984,0,0,0,6.34-6.185,12.333,12.333,0,0,0,1.591-8.3,8.907,8.907,0,0,0-4.521-6.249,8.66,8.66,0,0,0-7.486-.439,7.562,7.562,0,0,0-3.252,2.5,5.783,5.783,0,0,0-1.166,3.235,4.656,4.656,0,0,0,2.932,4.426,1.4,1.4,0,1,1-1.212,2.524,8.041,8.041,0,0,1-3.459-3.015,7.231,7.231,0,0,1-1.061-4.014,8.567,8.567,0,0,1,1.7-4.807,10.358,10.358,0,0,1,4.446-3.433,11.447,11.447,0,0,1,9.9.571,11.694,11.694,0,0,1,5.933,8.208,14.1,14.1,0,0,1-.066,5.283,16.505,16.505,0,0,1-1.843,4.9,18.822,18.822,0,0,1-7.47,7.283c-.529.278-.972.489-1.4.665A1.4,1.4,0,0,1,196.95,237.69Z" transform="translate(-0.338 -0.228)" fill="#121212"/><path d="M237.086,164.027c4.527,1.907,5.9,4.869,8.092,8.537.819,1.368,4.344,6.36,8.989,3.261,3.643-2.431,1.952-7.518,1.207-8.934-1.7-3.227-7.98-8.56-18.288-6.249Z" transform="translate(-0.427 -0.173)" fill="#fff"/><path d="M251.174,178.174a6.031,6.031,0,0,1-1.329-.15c-3.188-.718-5.265-3.83-5.826-4.767-.218-.364-.427-.721-.63-1.066-1.833-3.12-3.157-5.374-6.828-6.92a1.351,1.351,0,0,1,1.049-2.489c4.5,1.894,6.17,4.743,8.108,8.041.2.34.407.693.619,1.047.828,1.384,2.4,3.136,4.1,3.519a3.728,3.728,0,0,0,2.979-.688,3.893,3.893,0,0,0,1.649-3.678,9.047,9.047,0,0,0-.888-3.5,11.673,11.673,0,0,0-5.3-4.609,15.608,15.608,0,0,0-4.976-1.379,19.959,19.959,0,0,0-6.525.427,1.351,1.351,0,1,1-.591-2.636,22.648,22.648,0,0,1,7.409-.477,18.3,18.3,0,0,1,5.834,1.621,16.23,16.23,0,0,1,4.134,2.77,10.41,10.41,0,0,1,3.6,7.692,6.56,6.56,0,0,1-2.849,6.018A6.693,6.693,0,0,1,251.174,178.174Z" transform="translate(-0.427 -0.173)" fill="#121212"/><path d="M192.268,164.027c-4.527,1.907-5.9,4.869-8.092,8.537-.819,1.368-4.344,6.36-8.989,3.261-3.643-2.431-1.952-7.518-1.207-8.934,1.7-3.227,7.98-8.56,18.288-6.249Z" transform="translate(-0.312 -0.173)" fill="#fff"/><path d="M178.18,178.174a6.692,6.692,0,0,1-3.743-1.226,6.56,6.56,0,0,1-2.85-6.018,10.409,10.409,0,0,1,3.6-7.692,16.231,16.231,0,0,1,4.134-2.77,18.3,18.3,0,0,1,5.834-1.621,22.648,22.648,0,0,1,7.409.477,1.351,1.351,0,1,1-.591,2.636,19.959,19.959,0,0,0-6.525-.427,15.608,15.608,0,0,0-4.976,1.379,11.673,11.673,0,0,0-5.3,4.609,9.047,9.047,0,0,0-.888,3.5,3.893,3.893,0,0,0,1.649,3.678,3.728,3.728,0,0,0,2.979.688c1.7-.383,3.273-2.135,4.1-3.519.212-.354.419-.706.619-1.047,1.938-3.3,3.611-6.147,8.108-8.041a1.351,1.351,0,0,1,1.049,2.489c-3.671,1.546-4.995,3.8-6.828,6.92-.2.345-.412.7-.63,1.066-.561.937-2.638,4.049-5.826,4.767A6.032,6.032,0,0,1,178.18,178.174Z" transform="translate(-0.312 -0.173)" fill="#121212"/><path d="M202.921,188.219a18.657,18.657,0,0,1-1.094,7.047c-.82,1.638-2.661,2.425-4.216,3.391a7.635,7.635,0,0,0-3.48,4.008,3.184,3.184,0,0,0,1.736,3.992c4.231,2.274,15.952,1.182,17-2.984.683-2.705-.633-3.975-.514-9.334v-6.12Z" transform="translate(-0.35 -0.204)" fill="#fff"/><path d="M202.159,209.171a15.583,15.583,0,0,1-6.932-1.324,4.522,4.522,0,0,1-2.389-5.575,8.783,8.783,0,0,1,4.059-4.761c.318-.2.644-.386.959-.568a6.586,6.586,0,0,0,2.763-2.28,17.706,17.706,0,0,0,.951-6.443,1.351,1.351,0,0,1,2.7,0,19.651,19.651,0,0,1-1.237,7.652,8.742,8.742,0,0,1-3.826,3.41c-.311.18-.6.349-.886.524a6.482,6.482,0,0,0-2.9,3.255,1.867,1.867,0,0,0,1.083,2.408,13.508,13.508,0,0,0,6.02,1,18.71,18.71,0,0,0,6.879-1.291c1.229-.542,1.994-1.193,2.155-1.832a6.936,6.936,0,0,0-.083-3.208,27.172,27.172,0,0,1-.472-5.811v-6.105a1.35,1.35,0,0,1,2.7,0v6.12q0,.015,0,.03a24.8,24.8,0,0,0,.433,5.306,9.446,9.446,0,0,1,.041,4.328c-.38,1.506-1.619,2.732-3.684,3.643A21.72,21.72,0,0,1,202.159,209.171Z" transform="translate(-0.35 -0.204)" fill="#121212"/><path d="M200.706,200.063a.75.75,0,0,1-.619-.326,3.08,3.08,0,0,0-.674-.71.751.751,0,0,1,.909-1.195,4.579,4.579,0,0,1,1,1.054.751.751,0,0,1-.618,1.176Z" transform="translate(-0.36 -0.215)" fill="#121212"/><path d="M199.1,201.281a.75.75,0,0,1-.619-.326,3.08,3.08,0,0,0-.674-.71.75.75,0,0,1,.909-1.195,4.578,4.578,0,0,1,1,1.054.751.751,0,0,1-.618,1.176Z" transform="translate(-0.357 -0.216)" fill="#121212"/><path d="M201.919,205.807a17.527,17.527,0,0,1-8.288-1.771.751.751,0,0,1,.7-1.326,17.976,17.976,0,0,0,9.367,1.536,26,26,0,0,0,9.04-2.208.751.751,0,0,1,.652,1.352,27.17,27.17,0,0,1-9.592,2.353C203.143,205.786,202.516,205.807,201.919,205.807Z" transform="translate(-0.35 -0.219)" fill="#121212"/><path d="M207.955,198.548c-.453,0-.905-.014-1.354-.042a14.223,14.223,0,0,1-5.859-1.51.751.751,0,1,1,.735-1.309c2.152,1.209,6.553,1.9,10.8.878a.751.751,0,0,1,.351,1.46A20.391,20.391,0,0,1,207.955,198.548Z" transform="translate(-0.363 -0.212)" fill="#121212"/><path d="M226.434,188.219a18.657,18.657,0,0,0,1.094,7.047c.82,1.638,2.661,2.425,4.216,3.391a7.634,7.634,0,0,1,3.48,4.008,3.184,3.184,0,0,1-1.736,3.992c-4.231,2.274-15.952,1.182-17-2.984-.683-2.705.633-3.975.514-9.334v-6.12Z" transform="translate(-0.39 -0.204)" fill="#fff"/><path d="M227.2,209.171a21.719,21.719,0,0,1-8.335-1.524c-2.065-.911-3.3-2.136-3.684-3.643a9.446,9.446,0,0,1,.041-4.328,24.8,24.8,0,0,0,.433-5.306q0-.015,0-.03v-6.12a1.351,1.351,0,0,1,2.7,0v6.105a27.172,27.172,0,0,1-.472,5.811,6.936,6.936,0,0,0-.083,3.207c.161.64.927,1.291,2.155,1.832a18.71,18.71,0,0,0,6.879,1.291,13.51,13.51,0,0,0,6.02-1,1.868,1.868,0,0,0,1.083-2.408,6.136,6.136,0,0,0-2.9-3.254c-.282-.175-.575-.345-.886-.524a8.742,8.742,0,0,1-3.826-3.41,19.651,19.651,0,0,1-1.237-7.652,1.351,1.351,0,0,1,2.7,0,17.706,17.706,0,0,0,.951,6.443,6.586,6.586,0,0,0,2.763,2.28c.315.182.641.371.959.568a8.783,8.783,0,0,1,4.059,4.761,4.522,4.522,0,0,1-2.389,5.576A15.583,15.583,0,0,1,227.2,209.171Z" transform="translate(-0.39 -0.204)" fill="#121212"/><path d="M228.681,200.063a.751.751,0,0,1-.618-1.176,4.578,4.578,0,0,1,1-1.054.751.751,0,0,1,.909,1.195,3.08,3.08,0,0,0-.674.71A.75.75,0,0,1,228.681,200.063Z" transform="translate(-0.412 -0.215)" fill="#121212"/><path d="M230.285,201.281a.751.751,0,0,1-.618-1.176,4.578,4.578,0,0,1,1-1.054.75.75,0,1,1,.909,1.195,3.08,3.08,0,0,0-.674.71A.75.75,0,0,1,230.285,201.281Z" transform="translate(-0.415 -0.216)" fill="#121212"/><path d="M227.436,205.807c-.6,0-1.224-.02-1.882-.064a27.17,27.17,0,0,1-9.592-2.353.751.751,0,0,1,.652-1.352,26,26,0,0,0,9.04,2.208,17.975,17.975,0,0,0,9.367-1.536.751.751,0,0,1,.7,1.326A17.529,17.529,0,0,1,227.436,205.807Z" transform="translate(-0.39 -0.219)" fill="#121212"/><path d="M221.413,198.548a20.389,20.389,0,0,1-4.677-.523.751.751,0,1,1,.351-1.46c4.25,1.021,8.652.331,10.8-.878a.751.751,0,0,1,.735,1.309,14.223,14.223,0,0,1-5.859,1.51C222.319,198.534,221.866,198.548,221.413,198.548Z" transform="translate(-0.391 -0.212)" fill="#121212"/><path d="M245.672,123.844c0,5.834-13.894,10.564-31.033,10.564s-31.033-4.73-31.033-10.564S197.5,113.28,214.639,113.28s31.033,4.73,31.033,10.564" transform="translate(-0.331 -0.123)" fill="#fff"/><path d="M245.672,123.855l-9.31,59.261c-.869,4.408-9.725,8.35-21.723,8.35s-20.853-3.942-21.723-8.35l-9.31-59.261Z" transform="translate(-0.331 -0.134)" fill="#fff"/><path d="M214.639,192.816A42.988,42.988,0,0,1,199.1,190.2c-4.318-1.736-6.985-4.158-7.51-6.82q-.005-.026-.009-.052l-9.31-59.261a1.351,1.351,0,0,1,2.668-.419l9.306,59.232c.348,1.679,2.536,3.476,5.863,4.813a44.756,44.756,0,0,0,29.061,0c3.326-1.337,5.515-3.135,5.862-4.813l9.306-59.232a1.351,1.351,0,0,1,2.668.419l-9.31,59.261q0,.026-.009.052c-.525,2.662-3.192,5.084-7.51,6.82A42.988,42.988,0,0,1,214.639,192.816Z" transform="translate(-0.331 -0.134)" fill="#121212"/><path d="M31.033-1.351c8.433,0,16.381,1.124,22.379,3.166A23.337,23.337,0,0,1,60.474,5.4c1.953,1.571,2.943,3.309,2.943,5.164s-.99,3.593-2.943,5.164a23.337,23.337,0,0,1-7.062,3.584c-6,2.042-13.945,3.166-22.379,3.166S14.652,21.353,8.654,19.312a23.337,23.337,0,0,1-7.062-3.584c-1.953-1.571-2.943-3.309-2.943-5.164S-.361,6.971,1.592,5.4A23.337,23.337,0,0,1,8.654,1.816C14.652-.226,22.6-1.351,31.033-1.351Zm0,21.127c8.145,0,15.784-1.073,21.508-3.022,5.118-1.742,8.174-4.057,8.174-6.191S57.66,6.115,52.541,4.372C46.816,2.424,39.178,1.351,31.033,1.351S15.249,2.424,9.525,4.372C4.406,6.115,1.35,8.429,1.35,10.564s3.056,4.449,8.174,6.191C15.249,18.7,22.888,19.777,31.033,19.777Z" transform="translate(183.275 113.158)" fill="#121212"/><path d="M214.641,138.669a76.447,76.447,0,0,1-19.367-2.282c-5.587-1.5-9.494-3.555-11.3-5.953a.75.75,0,1,1,1.2-.9c1.577,2.1,5.3,4.016,10.486,5.4a81.842,81.842,0,0,0,37.958,0c5.185-1.389,8.909-3.308,10.486-5.4a.75.75,0,1,1,1.2.9c-1.8,2.4-5.71,4.456-11.3,5.953A76.447,76.447,0,0,1,214.641,138.669Z" transform="translate(-0.333 -0.141)" fill="#121212"/><path d="M209.984,155.36a1.612,1.612,0,1,1-1.612-1.613,1.613,1.613,0,0,1,1.612,1.613" transform="translate(-0.373 -0.166)" fill="#231815"/><path d="M209.907,151.423a1.344,1.344,0,0,1-.674-.181,2.109,2.109,0,0,0-1.722,0,1.35,1.35,0,0,1-1.35-2.339,4.755,4.755,0,0,1,4.422,0,1.351,1.351,0,0,1-.676,2.52Z" transform="translate(-0.373 -0.162)" fill="#121212"/><path d="M214.688,166.245a8.061,8.061,0,0,1-4.024-.976,1.35,1.35,0,1,1,1.35-2.339,6.129,6.129,0,0,0,5.349,0,1.35,1.35,0,1,1,1.35,2.339A8.063,8.063,0,0,1,214.688,166.245Z" transform="translate(-0.381 -0.177)" fill="#121212"/><path d="M222.622,155.36a1.612,1.612,0,1,1-1.612-1.613,1.613,1.613,0,0,1,1.612,1.613" transform="translate(-0.396 -0.166)" fill="#231815"/><path d="M222.545,151.423a1.344,1.344,0,0,1-.674-.181,2.109,2.109,0,0,0-1.722,0,1.35,1.35,0,1,1-1.35-2.339,4.755,4.755,0,0,1,4.422,0,1.351,1.351,0,0,1-.676,2.52Z" transform="translate(-0.396 -0.162)" fill="#121212"/><path d="M1.536,1.35H0A1.351,1.351,0,0,1-1.35,0,1.351,1.351,0,0,1,0-1.35H1.536A1.351,1.351,0,0,1,2.887,0,1.351,1.351,0,0,1,1.536,1.35Z" transform="translate(213.539 160.212)" fill="#121212"/><path d="M281.625,103.716a14.346,14.346,0,0,1,1.383,5.3c1.047,14.011-11.652,21.872-25.61,17.154a56.218,56.218,0,0,0-6.08-1.877,7.97,7.97,0,0,0-6.135,1.046l-14.058-10.5c2.554-8.309,13.634-17.757,26.532-19.373a37.039,37.039,0,0,1,13.083.474,18.883,18.883,0,0,0,4.478.374c1.617-.053,3.612-.607,4.92.347,2.261,1.648.072,3.81,1.485,7.055" transform="translate(-0.417 -0.103)" fill="#f0f0f0"/><path d="M263.184,93.759a33.741,33.741,0,0,1,7.842.861,17.6,17.6,0,0,0,3.486.356c.213,0,.436,0,.664-.011.347-.011.732-.051,1.14-.093a16.853,16.853,0,0,1,1.724-.116,4.754,4.754,0,0,1,2.9.814c1.843,1.344,1.7,3.061,1.585,4.441a5.99,5.99,0,0,0,.331,3.14,15.758,15.758,0,0,1,1.5,5.766,20.159,20.159,0,0,1-.906,7.908,16.94,16.94,0,0,1-3.667,6.22,17.642,17.642,0,0,1-6.342,4.338,21.147,21.147,0,0,1-8.015,1.512,26.418,26.418,0,0,1-8.459-1.444c-.372-.126-.747-.255-1.109-.38a42.207,42.207,0,0,0-4.824-1.456,7.514,7.514,0,0,0-1.585-.17,6.191,6.191,0,0,0-3.5,1.006,1.35,1.35,0,0,1-1.576-.029l-14.058-10.5a1.351,1.351,0,0,1-.483-1.479c1.359-4.422,4.952-9.113,9.857-12.871a38.473,38.473,0,0,1,8.205-4.805,35.506,35.506,0,0,1,9.593-2.64A45.977,45.977,0,0,1,263.184,93.759Zm11.328,3.918a20.444,20.444,0,0,1-4.024-.41l-.063-.014a31.014,31.014,0,0,0-7.241-.793,43.263,43.263,0,0,0-5.357.346,34.719,34.719,0,0,0-16.491,6.909c-4.131,3.166-7.221,6.993-8.611,10.632l12.544,9.371a9.05,9.05,0,0,1,4.18-.973,10.22,10.22,0,0,1,2.156.231,44.881,44.881,0,0,1,5.134,1.543c.359.124.73.252,1.094.375a23.725,23.725,0,0,0,7.593,1.3,16.572,16.572,0,0,0,12.377-4.987,15.551,15.551,0,0,0,3.859-12.089,13.062,13.062,0,0,0-1.249-4.807q-.014-.028-.026-.056a8.616,8.616,0,0,1-.558-4.468c.11-1.326.082-1.621-.485-2.035a2.2,2.2,0,0,0-1.305-.3c-.451,0-.936.05-1.449.1-.436.045-.886.091-1.326.105C275.007,97.672,274.754,97.676,274.512,97.676Z" transform="translate(-0.417 -0.103)" fill="#121212"/><path d="M214.638,135.769c-8.433,0-16.381-1.124-22.379-3.166a23.338,23.338,0,0,1-7.062-3.584c-1.953-1.571-2.943-3.309-2.943-5.164a1.35,1.35,0,1,1,2.7,0c0,2.134,3.056,4.449,8.174,6.191,5.725,1.949,13.364,3.022,21.508,3.022a78.871,78.871,0,0,0,16.294-1.6c4.652-1,8.372-2.4,10.76-4.037a1.35,1.35,0,1,1,1.528,2.227C237.726,133.427,226.774,135.769,214.638,135.769Z" transform="translate(-0.331 -0.134)" fill="#121212"/><path d="M190.376,140.214c.578.272.881.4,1.512.656.048.512.072.769.119,1.283a22.492,22.492,0,0,1-2.7-1.278c-.322-2.409-.483-3.613-.806-6.021.512.255.78.379,1.333.62.217,1.9.324,2.844.54,4.74" transform="translate(-0.34 -0.146)" fill="#ea5457"/><path d="M196.625,140.7a1.179,1.179,0,0,1-.739.514,2.216,2.216,0,0,1-1.2-.09c-.318-.1-.475-.149-.785-.252.058.816.087,1.224.144,2.04-.612-.21-.908-.318-1.48-.541-.209-2.411-.313-3.617-.522-6.029.915.328,1.394.483,2.391.776a4,4,0,0,1,1.266.607,2.874,2.874,0,0,1,.829.92,2.512,2.512,0,0,1,.316,1.119,1.6,1.6,0,0,1-.216.936M195.1,139.3a.921.921,0,0,0-.741-.868c-.261-.079-.389-.119-.644-.2.037.524.055.787.092,1.312.252.082.379.122.637.2.457.141.681-.009.656-.445" transform="translate(-0.346 -0.147)" fill="#ea5457"/><path d="M199.47,143.111c.822.174,1.242.255,2.1.406l.025,1.3c-1.621-.289-2.4-.456-3.872-.825-.1-2.433-.146-3.649-.243-6.082.724.166,1.094.245,1.848.394l.14,4.8" transform="translate(-0.356 -0.149)" fill="#ea5457"/><path d="M207.836,142.534a1.915,1.915,0,0,1-.963.651,3.568,3.568,0,0,1-1.546.111c-.408-.047-.611-.073-1.012-.125.008.831.011,1.247.019,2.079-.807-.11-1.2-.17-1.98-.3-.039-2.454-.058-3.682-.1-6.136,1.19.18,1.8.26,3.044.4a4.61,4.61,0,0,1,1.551.418,2.457,2.457,0,0,1,.975.811,1.935,1.935,0,0,1,.33,1.1,1.637,1.637,0,0,1-.321,1m-1.843-1.193c0-.45-.3-.7-.884-.77-.329-.038-.493-.058-.819-.1,0,.534.007.8.012,1.337.324.041.487.062.816.1.582.069.877-.124.875-.567" transform="translate(-0.365 -0.15)" fill="#ea5457"/><path d="M211.233,144.533c.992.041,1.5.055,2.512.066,0,.528,0,.793,0,1.323-1.93-.022-2.873-.062-4.7-.191v-6.2c.87.056,1.311.078,2.2.112,0,1.955,0,2.932-.006,4.887" transform="translate(-0.377 -0.151)" fill="#ea5457"/><path d="M220.642,142.6a2.4,2.4,0,0,1-.987.8,4.15,4.15,0,0,1-1.635.359c-.44.017-.662.024-1.107.036,0,.839,0,1.259,0,2.1-.9.025-1.356.031-2.275.03,0-2.485,0-3.729,0-6.214,1.366,0,2.042-.012,3.372-.061a4.584,4.584,0,0,1,1.628.189,2,2,0,0,1,1,.668,1.7,1.7,0,0,1,.33,1.048,1.844,1.844,0,0,1-.325,1.047m-1.9-.913c0-.452-.311-.661-.94-.639-.355.012-.533.018-.89.027,0,.538,0,.808,0,1.348.358-.009.536-.015.891-.027.629-.023.938-.263.938-.708" transform="translate(-0.387 -0.151)" fill="#ea5457"/><path d="M223.932,144.081c.921-.108,1.374-.168,2.261-.3-.007.522-.01.784-.017,1.308-1.673.256-2.544.362-4.339.523,0-2.474.007-3.711.011-6.185.856-.07,1.28-.11,2.113-.2-.011,1.942-.017,2.914-.029,4.856" transform="translate(-0.4 -0.151)" fill="#ea5457"/><path d="M232.025,140.886a2.774,2.774,0,0,1-.836.917,3.512,3.512,0,0,1-1.361.568c-.365.076-.551.113-.924.185-.02.825-.03,1.239-.049,2.064-.748.148-1.13.217-1.909.345.037-2.454.056-3.682.094-6.136,1.192-.18,1.774-.28,2.9-.5a3.209,3.209,0,0,1,1.364-.025,1.279,1.279,0,0,1,.8.527,1.649,1.649,0,0,1,.227.986,2.428,2.428,0,0,1-.307,1.07m-1.533-.648c.014-.444-.239-.609-.77-.505-.3.059-.451.087-.756.143-.012.531-.019.8-.031,1.328.3-.057.452-.086.751-.145.527-.106.792-.382.806-.82" transform="translate(-0.409 -0.15)" fill="#ea5457"/><path d="M234.562,141.911c.717-.224,1.063-.34,1.731-.581-.041.513-.061.77-.1,1.284a35.017,35.017,0,0,1-3.34,1.069c.117-2.427.176-3.641.293-6.067.7-.179,1.045-.272,1.714-.467-.119,1.9-.178,2.858-.3,4.763" transform="translate(-0.42 -0.148)" fill="#ea5457"/><path d="M240.647,137.767a3.828,3.828,0,0,1-.649,1,2.935,2.935,0,0,1-.979.725c-.261.12-.393.179-.664.295-.084.813-.126,1.22-.211,2.033-.531.236-.809.351-1.383.573.208-2.412.311-3.618.518-6.03.918-.327,1.357-.5,2.188-.858a1.785,1.785,0,0,1,.964-.2.6.6,0,0,1,.49.42,2.013,2.013,0,0,1,.044.944,4.064,4.064,0,0,1-.319,1.092m-.969-.45c.052-.439-.107-.569-.494-.4-.219.095-.33.142-.555.236-.054.522-.082.784-.136,1.307.222-.093.33-.141.545-.236a1.054,1.054,0,0,0,.64-.906" transform="translate(-0.427 -0.146)" fill="#ea5457"/><path d="M195.11,181.754a5.24,5.24,0,0,0,.663.694l.12,1.283a3.987,3.987,0,0,1-1.022-1.3c-.322-2.408-.483-3.613-.806-6.022a4.324,4.324,0,0,0,.505.609c.217,1.9.324,2.844.54,4.74" transform="translate(-0.35 -0.191)" fill="#ea5457"/><path d="M198.583,182.589a.751.751,0,0,1-.493.454,1.006,1.006,0,0,1-.776-.178c-.2-.122-.3-.183-.478-.3.057.816.086,1.224.143,2.04a8.254,8.254,0,0,1-.814-.626c-.209-2.411-.312-3.617-.522-6.029a11.422,11.422,0,0,0,1.418.913,3.079,3.079,0,0,1,.839.7,3.4,3.4,0,0,1,.584.98,3.612,3.612,0,0,1,.238,1.14,2.054,2.054,0,0,1-.139.916m-1.048-1.517a1.058,1.058,0,0,0-.488-.916c-.164-.1-.244-.145-.4-.243.037.524.055.787.092,1.312.151.1.229.146.39.244.284.172.428.039.4-.4" transform="translate(-0.353 -0.192)" fill="#ea5457"/><path d="M200.692,185.222c.634.241.969.356,1.676.573.01.521.015.783.024,1.3a20.837,20.837,0,0,1-2.992-1.141c-.1-2.432-.146-3.649-.243-6.081.529.223.809.331,1.394.539l.14,4.8" transform="translate(-0.359 -0.195)" fill="#ea5457"/><path d="M207.9,185.227a1.667,1.667,0,0,1-.9.6,2.9,2.9,0,0,1-1.407.018c-.365-.074-.545-.112-.9-.193.007.832.011,1.248.019,2.079-.708-.165-1.047-.254-1.7-.443-.039-2.454-.058-3.682-.1-6.136,1,.269,1.53.393,2.647.608a4.312,4.312,0,0,1,1.412.51,2.6,2.6,0,0,1,.909.862,2.1,2.1,0,0,1,.31,1.113,1.63,1.63,0,0,1-.3.981m-1.7-1.295c0-.45-.276-.72-.8-.825-.294-.059-.439-.09-.726-.153,0,.534.008.8.013,1.336.285.064.428.095.722.155.52.106.791-.069.789-.512" transform="translate(-0.366 -0.196)" fill="#ea5457"/><path d="M211.179,187.36c.983.069,1.491.092,2.535.111,0,.529,0,.793,0,1.323a39.391,39.391,0,0,1-4.673-.314v-6.2c.834.093,1.263.131,2.144.19,0,1.955,0,2.932-.006,4.887" transform="translate(-0.377 -0.197)" fill="#ea5457"/><path d="M220.627,185.339a2.414,2.414,0,0,1-.948.843,3.949,3.949,0,0,1-1.6.412c-.437.029-.659.042-1.108.061,0,.839,0,1.259,0,2.1-.908.04-1.377.051-2.331.05v-6.214c1.419,0,2.109-.022,3.43-.106a4.463,4.463,0,0,1,1.6.135,1.807,1.807,0,0,1,.956.627,1.686,1.686,0,0,1,.314,1.033,1.98,1.98,0,0,1-.309,1.062m-1.841-.84c0-.452-.3-.65-.93-.612-.353.021-.532.031-.893.046,0,.539,0,.809,0,1.349.361-.016.54-.026.893-.047.626-.039.928-.29.928-.735" transform="translate(-0.387 -0.197)" fill="#ea5457"/><path d="M223.677,186.637c.828-.166,1.224-.259,1.982-.457-.006.523-.01.785-.016,1.308a30.844,30.844,0,0,1-3.887.8c0-2.474.007-3.711.012-6.185.8-.115,1.188-.18,1.938-.323-.011,1.942-.017,2.914-.029,4.856" transform="translate(-0.4 -0.197)" fill="#ea5457"/><path d="M230.283,182.83a3.029,3.029,0,0,1-.618.982,2.639,2.639,0,0,1-1.033.678c-.283.106-.429.157-.728.259-.019.826-.029,1.239-.049,2.065-.595.207-.907.307-1.56.494.038-2.454.057-3.682.094-6.137,1-.268,1.476-.415,2.358-.724a1.929,1.929,0,0,1,1.039-.134.812.812,0,0,1,.579.463,2.03,2.03,0,0,1,.151.964,3.417,3.417,0,0,1-.233,1.091m-1.127-.522c.014-.444-.175-.589-.59-.443-.235.083-.354.124-.6.2-.013.53-.019.8-.032,1.327.242-.081.36-.122.593-.2a.885.885,0,0,0,.627-.883" transform="translate(-0.408 -0.195)" fill="#ea5457"/><path d="M231.967,183.656a10.078,10.078,0,0,0,1.021-.692c-.041.513-.061.771-.1,1.285a11.263,11.263,0,0,1-2.065,1.3l.294-6.068c.488-.232.719-.35,1.148-.589-.12,1.9-.178,2.858-.3,4.763" transform="translate(-0.416 -0.193)" fill="#ea5457"/><path d="M234.968,179.324a8.279,8.279,0,0,1-.262.991,2.222,2.222,0,0,1-.374.722c-.1.122-.159.184-.279.307-.085.813-.127,1.22-.211,2.033a6,6,0,0,1-.654.626c.207-2.412.31-3.618.517-6.03a7.161,7.161,0,0,0,1.076-.923c.173-.178.289-.243.362-.195s.1.193.1.434a8.035,8.035,0,0,1-.09.951q-.076.547-.188,1.085m-.239-.468c.052-.439.01-.571-.156-.4-.094.1-.143.148-.248.246l-.135,1.308c.1-.1.148-.148.238-.247a1.663,1.663,0,0,0,.3-.909" transform="translate(-0.42 -0.191)" fill="#ea5457"/></g><g transform="translate(148.396)"><g clip-path="url(#c)"><path d="M247.035,158.835s-4.455-25.4-7.351-30.3a43.862,43.862,0,0,0-7.811-9.17H196.522s-5.571,6.5-7.464,12.066-5.234,28.96-5.234,28.96Z" transform="translate(-148.909)" fill="#cacaca"/><path d="M0-1.4H36.545a1.4,1.4,0,0,1,1.4,1.4V4.876a1.4,1.4,0,0,1-1.4,1.4H0a1.4,1.4,0,0,1-1.4-1.4V0A1.4,1.4,0,0,1,0-1.4ZM35.145,1.4H1.4V3.476H35.145Z" transform="translate(46.419 114.492)" fill="#121212"/><path d="M247.033,160.235a1.4,1.4,0,0,1-1.377-1.158c-1.227-6.994-4.909-25.987-7.177-29.827a42.757,42.757,0,0,0-7.525-8.825,1.4,1.4,0,0,1,1.836-2.114,44.868,44.868,0,0,1,8.1,9.515,32.575,32.575,0,0,1,2.517,7.151c.736,2.74,1.547,6.191,2.409,10.258,1.464,6.906,2.588,13.3,2.6,13.359a1.4,1.4,0,0,1-1.381,1.642Z" transform="translate(-148.909)" fill="#121212"/><path d="M238.345,161.794a1.4,1.4,0,0,1-1.384-1.2c-.033-.233-3.345-23.325-5.174-28.708-1.785-5.252-7.147-11.542-7.2-11.605a1.4,1.4,0,1,1,2.126-1.823c.235.274,5.769,6.768,7.727,12.527,1.912,5.628,5.157,28.252,5.294,29.213a1.4,1.4,0,0,1-1.388,1.6Z" transform="translate(-148.909)" fill="#121212"/><path d="M229.506,161.794a1.4,1.4,0,0,1-1.391-1.254c-.024-.232-2.456-23.3-4.277-28.655-1.852-5.449-4.669-11.89-4.7-11.955a1.4,1.4,0,1,1,2.565-1.124c.029.066,2.893,6.616,4.783,12.177,1.921,5.653,4.31,28.3,4.411,29.265a1.4,1.4,0,0,1-1.394,1.546Z" transform="translate(-148.909)" fill="#121212"/><path d="M221.194,161.794a1.4,1.4,0,0,1-1.393-1.279c-.02-.231-2.026-23.174-3.067-28.828-.97-5.271-2.82-11.875-2.839-11.941a1.4,1.4,0,0,1,2.7-.758c.077.275,1.9,6.791,2.9,12.191,1.065,5.784,3.02,28.143,3.1,29.092a1.4,1.4,0,0,1-1.273,1.516Q221.256,161.794,221.194,161.794Z" transform="translate(-148.909)" fill="#121212"/><path d="M183.825,161.794a1.4,1.4,0,0,1-1.388-1.6c.137-.96,3.382-23.585,5.294-29.212,1.957-5.759,7.492-12.253,7.727-12.527a1.4,1.4,0,0,1,2.126,1.822h0c-.054.063-5.419,6.362-7.2,11.605-1.829,5.383-5.14,28.475-5.174,28.707A1.4,1.4,0,0,1,183.825,161.794Z" transform="translate(-148.909)" fill="#121212"/><path d="M192.665,161.794a1.4,1.4,0,0,1-1.394-1.546c.1-.961,2.489-23.612,4.411-29.265,1.89-5.561,4.755-12.112,4.783-12.177a1.4,1.4,0,0,1,2.565,1.124c-.028.064-2.846,6.508-4.7,11.955-1.821,5.358-4.253,28.423-4.277,28.655A1.4,1.4,0,0,1,192.665,161.794Z" transform="translate(-148.909)" fill="#121212"/><path d="M200.976,161.794q-.061,0-.123-.005a1.4,1.4,0,0,1-1.273-1.516c.083-.949,2.038-23.308,3.1-29.092.994-5.4,2.82-11.917,2.9-12.191a1.4,1.4,0,0,1,2.7.758c-.019.066-1.868,6.669-2.839,11.941-1.041,5.654-3.047,28.6-3.067,28.828A1.4,1.4,0,0,1,200.976,161.794Z" transform="translate(-148.909)" fill="#121212"/><path d="M213.047,161.794a1.4,1.4,0,0,1-1.4-1.312c-.012-.194-1.225-19.44-1.709-26.19-.344-4.8-.832-14.756-.837-14.856a1.4,1.4,0,1,1,2.8-.137c0,.1.491,10.026.833,14.792.485,6.762,1.7,26.02,1.711,26.214a1.4,1.4,0,0,1-1.309,1.485Z" transform="translate(-148.909)" fill="#121212"/><path d="M224.339,116.245,240.49,106.9A10.524,10.524,0,0,0,244.3,96.177l-8.838-18.823c-3.462-6.413-6.972-13.3-12.829-15.436l-4.45-1.626-17.042,8.79-4.155,11.356L171.3,82.129s.833,21.5.876,24.6,1.562,4.319,4.237,5.807,18.909,3.616,18.909,3.616Z" transform="translate(-148.909)" fill="#ea5457"/><path d="M154.612,69.707a1.757,1.757,0,0,1,1.757-1.757,1.738,1.738,0,0,1,.9.257V67.74a2.412,2.412,0,0,1,.659-2.064,3.506,3.506,0,0,1,2-.623c0-.979.135-1.758,1.757-1.758s1.758,1.758,1.758,1.758,0,.237.9.237,1.758.408,1.758,1.192v6.674c0,1.541.043,5.156,1.161,7.107a8.273,8.273,0,0,0,3.87,2.941V94.691s-8.66-2.95-12.51-4.235a6.187,6.187,0,0,1-3.995-5.837V77.106c-.007-.067-.02-2.709-.02-2.778Z" transform="translate(-148.909)" fill="#fbf1e6"/><path d="M209.61,60.935c-9.008,0-12.085-8.924-13.955-14.783-2.867-.225-3.338-4.706-.5-5.179,0,0,.283-9.569,2.531-14.261,2.646-5.522,9.289-7.214,14.8-7.214,15.6,0,18.372,16.13,14.941,25.761-1.869,5.862-8.8,15.676-17.812,15.676" transform="translate(-148.909)" fill="#fef1e6"/><path d="M204.176,56.728v4.194l-3.037,8.16,17.042-8.16V56.728Z" transform="translate(-148.909)" fill="#fef1e6"/><path d="M200.534,50.213a.7.7,0,0,1-.592-.325c-.335-.528-1.3-.539-2.115-.025a.7.7,0,0,1-.749-1.183,3.628,3.628,0,0,1,2.2-.585,2.36,2.36,0,0,1,1.85,1.042.7.7,0,0,1-.59,1.075Z" transform="translate(-148.909)" fill="#121212"/><path d="M199.689,41.956q-.121,0-.24-.009A2.36,2.36,0,0,1,197.6,40.9a.7.7,0,0,1,1.182-.75c.335.528,1.3.539,2.115.025a.7.7,0,0,1,.749,1.183A3.694,3.694,0,0,1,199.689,41.956Z" transform="translate(-148.909)" fill="#121212"/><path d="M0,2.3a1.4,1.4,0,0,1-1.327-.953A1.4,1.4,0,0,1-.447-.432l2.657-.9a1.4,1.4,0,0,1,1.774.88A1.4,1.4,0,0,1,3.1,1.327L.447,2.222A1.4,1.4,0,0,1,0,2.3Z" transform="translate(50.066 36.154)" fill="#121212"/><path d="M210.557,60.049c-7.578,0-13.088-4.386-15.978-12.7a3.86,3.86,0,0,1-1.75-1.216,4.411,4.411,0,0,1-.974-2.593,4.041,4.041,0,0,1,.669-2.453,3.457,3.457,0,0,1,1.27-1.127c.139-2.613.687-9.807,2.626-13.854a12.973,12.973,0,0,1,7.051-6.366,24.032,24.032,0,0,1,9.01-1.643c6.066,0,10.92,2.335,14.035,6.752a20.933,20.933,0,0,1,3.53,10.4,25.73,25.73,0,0,1-1.3,10.456,22.646,22.646,0,0,1-6.138,9.478A17.681,17.681,0,0,1,210.557,60.049ZM212.48,20.9a21.224,21.224,0,0,0-7.936,1.429,10.262,10.262,0,0,0-5.6,4.99c-2.1,4.374-2.393,13.605-2.4,13.7a1.4,1.4,0,0,1-1.169,1.339.918.918,0,0,0-.729,1.065,1.32,1.32,0,0,0,1.113,1.337,1.4,1.4,0,0,1,1.224.97,19.482,19.482,0,0,0,4.436,7.887,11.964,11.964,0,0,0,3.816,2.619,13.479,13.479,0,0,0,5.316,1.016,15.026,15.026,0,0,0,10.164-4.13,19.757,19.757,0,0,0,5.368-8.286l.015-.044a22.864,22.864,0,0,0,1.15-9.313,18.146,18.146,0,0,0-3.027-9.012,12.535,12.535,0,0,0-4.588-4A15.656,15.656,0,0,0,212.48,20.9Z" transform="translate(-148.909)" fill="#121212"/><path d="M200.733,71.264a1.4,1.4,0,0,1-1.307-1.9l3.349-8.7V57.9a1.4,1.4,0,1,1,2.8,0v3.018a1.4,1.4,0,0,1-.094.5l-2.126,5.52,13.424-6.879V56.727a1.4,1.4,0,1,1,2.8,0v4.2a1.4,1.4,0,0,1-.762,1.246l-17.448,8.941A1.4,1.4,0,0,1,200.733,71.264Z" transform="translate(-148.909)" fill="#121212"/><path d="M227.9,115.592a1.4,1.4,0,0,1-.7-2.612l12.494-7.235a9.353,9.353,0,0,0,2.91-3.985,9.8,9.8,0,0,0,.352-5.151l-8.745-18.626-.4-.736c-3.214-5.97-6.538-12.143-11.661-14.016l-4.45-1.625a1.4,1.4,0,1,1,.96-2.63l4.45,1.625c2.781,1.017,5.3,3.063,7.705,6.258a71.709,71.709,0,0,1,5.461,9.06l.414.768q.019.034.035.07l8.838,18.824a1.4,1.4,0,0,1,.108.331,12.624,12.624,0,0,1-.441,6.812,12.147,12.147,0,0,1-3.857,5.262,1.4,1.4,0,0,1-.181.125L228.6,115.4A1.394,1.394,0,0,1,227.9,115.592Z" transform="translate(-148.909)" fill="#121212"/><path d="M195.33,117.551a1.408,1.408,0,0,1-.228-.019l-16.544-2.713a1.4,1.4,0,0,1-.218-.054,14.414,14.414,0,0,1-4.73-2.322,8.021,8.021,0,0,1-2.818-5.554q-.006-.055-.008-.111l-.876-24.6a1.4,1.4,0,0,1,1.307-1.447L195.975,79.1l6.883-19.279a1.4,1.4,0,0,1,2.637.941L198.3,80.908a1.4,1.4,0,0,1-1.226.926l-24.323,1.6.826,23.185c.419,3.45,2.467,4.418,5.543,5.453l16.432,2.695a1.4,1.4,0,0,1-.225,2.782Z" transform="translate(-148.909)" fill="#121212"/><path d="M195.322,115.593a1.4,1.4,0,0,1-1.385-1.208L191,93.25a1.4,1.4,0,0,1,.069-.666l11.786-32.765a1.4,1.4,0,1,1,2.635.948l-11.669,32.44L196.71,114a1.4,1.4,0,0,1-1.388,1.593Z" transform="translate(-148.909)" fill="#121212"/><path d="M211.682,40.973l-2.81-10.045,16.538-4.987s1.6,1.459,2.894,6.85a20.041,20.041,0,0,1-.143,9.866l-11.016,3.3s3.267-6.134-.5-8.367c-2.861-1.7-4.964,3.382-4.964,3.382" transform="translate(-148.909)" fill="#121212"/><path d="M217.145,47.358a1.4,1.4,0,0,1-1.237-2.056,12,12,0,0,0,1.034-3c.483-2.618-.641-3.284-1.01-3.5a.919.919,0,0,0-.464-.151c-.419,0-1.006.464-1.569,1.242a9.239,9.239,0,0,0-.925,1.625,1.4,1.4,0,0,1-2.641-.161l-2.81-10.045a1.4,1.4,0,0,1,.944-1.718L225.006,24.6a1.4,1.4,0,0,1,1.348.306,6.87,6.87,0,0,1,1.249,1.771,24.318,24.318,0,0,1,2.063,5.785,21.361,21.361,0,0,1-.171,10.622,1.4,1.4,0,0,1-.931.912l-11.016,3.3A1.4,1.4,0,0,1,217.145,47.358Zm-1.677-11.514a3.678,3.678,0,0,1,1.892.542,4.939,4.939,0,0,1,2.311,3.113,7.848,7.848,0,0,1,.012,3.375c-.061.319-.134.629-.215.926L227,41.542a19.217,19.217,0,0,0-.061-8.424,19.289,19.289,0,0,0-2.064-5.555L210.59,31.872l1.592,5.689A4.51,4.51,0,0,1,215.468,35.844Z" transform="translate(-148.909)" fill="#121212"/><path d="M207.078,26.556l14.362-4.331s-6.783-2.994-9.836-2.712-10.146,1.743-12.034,4.471,2.641,3.505,7.508,2.572" transform="translate(-148.909)" fill="#121212"/><path d="M203.357,28.333h0a10.9,10.9,0,0,1-3.048-.372,3.564,3.564,0,0,1-2.289-1.649,2.9,2.9,0,0,1,.4-3.124c1.014-1.465,3.139-2.708,6.317-3.693a36.174,36.174,0,0,1,6.739-1.375c.178-.016.367-.025.563-.025a21.113,21.113,0,0,1,6.37,1.444c1.978.693,3.532,1.377,3.6,1.406a1.4,1.4,0,0,1-.161,2.621L207.482,27.9a1.4,1.4,0,0,1-.141.035A21.593,21.593,0,0,1,203.357,28.333Zm-2.793-3.281a5.657,5.657,0,0,0,2.793.481h0a18.689,18.689,0,0,0,3.387-.339l10.39-3.133a18.7,18.7,0,0,0-5.1-1.167c-.11,0-.213,0-.3.013a33.111,33.111,0,0,0-6.168,1.262c-2.457.762-4.222,1.714-4.844,2.612A1.622,1.622,0,0,0,200.564,25.052Z" transform="translate(-148.909)" fill="#121212"/><path d="M218.215,13.822l-.73,6.052-4.874-1.052.867-7.067Z" transform="translate(-148.909)" fill="#fff"/><path d="M213.478,10.355a1.4,1.4,0,0,1,.56.117l4.737,2.067a1.4,1.4,0,0,1,.83,1.451l-.73,6.052a1.4,1.4,0,0,1-1.685,1.2l-4.874-1.052a1.4,1.4,0,0,1-1.094-1.539l.867-7.067a1.4,1.4,0,0,1,1.39-1.23Zm3.222,4.334-2.061-.9-.483,3.934,2.123.458Z" transform="translate(-148.909)" fill="#121212"/><path d="M214,12.318a29.866,29.866,0,0,0,4.242,1.267s2.741-.334,3.752-2.24a21.065,21.065,0,0,0,1.28-3.663l-3.286.888-1.546-3.237L215.495,7.3l-2.041-2.739a20.219,20.219,0,0,0-.842,4.416c-.018,1.74.544,2.866,1.385,3.339" transform="translate(-148.909)" fill="#121212"/><path d="M218.239,14.784a1.2,1.2,0,0,1-.272-.031,26.612,26.612,0,0,1-4.559-1.39c-.757-.426-2.025-1.564-2-4.4a21.174,21.174,0,0,1,.895-4.756,1.2,1.2,0,0,1,2.108-.364l1.36,1.825,2-1.335a1.2,1.2,0,0,1,1.749.48l1.115,2.335,2.321-.627a1.2,1.2,0,0,1,1.476,1.45,21.988,21.988,0,0,1-1.383,3.932c-1.29,2.432-4.53,2.852-4.667,2.869A1.2,1.2,0,0,1,218.239,14.784Zm-4.227-7.466a10.172,10.172,0,0,0-.2,1.673c-.012,1.149.277,2,.774,2.28a25.391,25.391,0,0,0,3.7,1.091,3.968,3.968,0,0,0,2.647-1.58A10.5,10.5,0,0,0,221.5,9.4l-1.2.325a1.2,1.2,0,0,1-1.4-.641L217.954,7.1l-1.792,1.2a1.2,1.2,0,0,1-1.629-.28Z" transform="translate(-148.909)" fill="#121212"/><path d="M171.138,95.223a1.073,1.073,0,0,1-.288-.04c-.355-.1-8.73-2.431-12.562-3.71a7.241,7.241,0,0,1-4.728-6.855l0-7.513c-.016-.573-.022-2.754-.022-2.778V69.707a2.833,2.833,0,0,1,2.83-2.83,1.073,1.073,0,0,1,0,2.146.685.685,0,0,0-.684.684v4.621c0,.123.011,2.471.018,2.717q0,.03,0,.061v7.513a5.732,5.732,0,0,0,.76,2.735,4.472,4.472,0,0,0,2.5,2.084c3.78,1.262,12.371,3.654,12.458,3.678a1.073,1.073,0,0,1-.287,2.107Z" transform="translate(-148.909)" fill="#121212"/><path d="M157.291,77.821a1.073,1.073,0,0,1-1.064-.946c-.022-.181-.028-5.157-.028-5.206V67.048a2.834,2.834,0,0,1,2.83-2.831,1.073,1.073,0,0,1,0,2.146.685.685,0,0,0-.684.685v4.621c0,.243.012,4.689.019,5.027a1.074,1.074,0,0,1-1.073,1.125Z" transform="translate(-148.909)" fill="#121212"/><path d="M159.95,77.821a1.073,1.073,0,0,1-1.064-.946c-.022-.181-.028-7.132-.028-7.2V65.053a2.83,2.83,0,0,1,5.66,0,1.073,1.073,0,0,1-2.146,0,.684.684,0,0,0-1.368,0v4.621c0,.349.012,6.635.019,7.027a1.073,1.073,0,0,1-.945,1.112A1.085,1.085,0,0,1,159.95,77.821Z" transform="translate(-148.909)" fill="#121212"/><path d="M171.305,84.277a1.068,1.068,0,0,1-.5-.126,15.242,15.242,0,0,1-4.574-4.874,1.073,1.073,0,0,1-.142-.534c0-.281,0-.541,0-.781.015-1.924-.026-2.091-.638-2.561a1.073,1.073,0,0,1-.419-.851v-7.5a.684.684,0,1,0-1.368,0v9.7a1.073,1.073,0,0,1-2.146,0v-9.7a2.83,2.83,0,1,1,5.66,0v7.011c1.08,1.046,1.071,2.172,1.057,3.92q0,.224,0,.471a13.535,13.535,0,0,0,3.577,3.807,1.073,1.073,0,0,1-.5,2.02Z" transform="translate(-148.909)" fill="#121212"/><path d="M167.158,84.277a1.073,1.073,0,0,1-1.073-1.073V76.3a.921.921,0,1,0-1.842,0v3.164a1.073,1.073,0,1,1-2.146,0V76.3a3.067,3.067,0,0,1,6.134,0V83.2A1.073,1.073,0,0,1,167.158,84.277Z" transform="translate(-148.909)" fill="#121212"/><path d="M218.445,60.389l-17.306,8.693L199.2,74.9,222.63,61.918Z" transform="translate(-148.909)" fill="#ea5457"/><path d="M218.445,59.339a1.05,1.05,0,0,1,.36.064l4.185,1.529a1.05,1.05,0,0,1,.148,1.9L199.707,75.815a1.05,1.05,0,0,1-1.5-1.251l1.941-5.815a1.05,1.05,0,0,1,.525-.606l17.306-8.693A1.05,1.05,0,0,1,218.445,59.339Zm1.663,2.776-1.6-.584L202,69.826l-.95,2.847Z" transform="translate(-148.909)" fill="#121212"/><path d="M207.091,99.228a.784.784,0,0,0-.585,1.334l40.973,58.524a1.4,1.4,0,0,0,1.95.344l1.7-1.19a1.4,1.4,0,0,0,.344-1.95L211.946,99.83a2.53,2.53,0,0,0-2.191-.96Z" transform="translate(-148.909)" fill="#cacaca"/><path d="M209.989,97.409A3.978,3.978,0,0,1,213.13,99l39.527,56.46a2.849,2.849,0,0,1-.7,3.963l-1.7,1.19a2.849,2.849,0,0,1-3.963-.7l-40.973-58.524a2.217,2.217,0,0,1,1.576-3.6l2.665-.358A3.2,3.2,0,0,1,209.989,97.409Zm40.274,59.673-39.5-56.423a1.172,1.172,0,0,0-.773-.359.311.311,0,0,0-.04,0l-1.7.228,40.388,57.689Z" transform="translate(-148.909)" fill="#121212"/><rect width="36.545" height="4.876" transform="translate(46.419 114.492)" fill="#cacaca"/><path d="M0-1.446H36.545A1.445,1.445,0,0,1,37.99,0V4.876a1.445,1.445,0,0,1-1.445,1.445H0A1.445,1.445,0,0,1-1.445,4.876V0A1.445,1.445,0,0,1,0-1.446ZM35.1,1.445H1.445V3.43H35.1Z" transform="translate(46.419 114.492)" fill="#121212"/><line x1="8.148" y2="3.651" transform="translate(64.138 110.021)" fill="#fff"/><path d="M0,5.051a1.4,1.4,0,0,1-1.278-.828,1.4,1.4,0,0,1,.705-1.85L7.576-1.278a1.4,1.4,0,0,1,1.85.705,1.4,1.4,0,0,1-.705,1.85L.572,4.929A1.4,1.4,0,0,1,0,5.051Z" transform="translate(64.138 110.021)" fill="#121212"/><line x1="6.584" y1="22.181" transform="translate(67.178 92.312)" fill="#fff"/><path d="M6.583,23.581a1.4,1.4,0,0,1-1.342-1L-1.342.4A1.4,1.4,0,0,1-.4-1.342,1.4,1.4,0,0,1,1.342-.4L7.926,21.783a1.4,1.4,0,0,1-1.343,1.8Z" transform="translate(67.178 92.312)" fill="#121212"/></g></g><g clip-path="url(#b)"><path d="M214.626,135.769c-8.424,0-16.363-1.123-22.354-3.162a23.311,23.311,0,0,1-7.055-3.58c-1.951-1.57-2.94-3.306-2.94-5.159a1.35,1.35,0,1,1,2.7,0c0,2.131,3.052,4.443,8.164,6.183,5.718,1.946,13.348,3.018,21.484,3.018a74.551,74.551,0,0,0,19.181-2.311c5.029-1.392,8.658-3.339,9.956-5.341a1.35,1.35,0,1,1,2.266,1.469c-1.186,1.83-4.145,4.438-11.5,6.475A76.2,76.2,0,0,1,214.626,135.769Z" transform="translate(-0.331 -0.134)" fill="#121212"/><path d="M190.485,118.829a5.082,5.082,0,0,0,3.466-2.77,4.585,4.585,0,0,0,.456-.078,4.3,4.3,0,0,0,.082-8.364,3.5,3.5,0,0,0-5-4.829,4.53,4.53,0,0,0-6.673,5.392,4.457,4.457,0,0,0,2.317,8.6l.051-.013a5.091,5.091,0,0,0,5.306,2.062" transform="translate(-0.324 -0.11)" fill="#fff"/><path d="M189.357,120.306h0a6.44,6.44,0,0,1-4.739-2.085,5.809,5.809,0,0,1-3.381-10.816,5.884,5.884,0,0,1,8.167-6.183,4.853,4.853,0,0,1,6.937,5.707,5.652,5.652,0,0,1-1.514,10.34,6.446,6.446,0,0,1-5.469,3.037Zm-4.178-4.89a1.351,1.351,0,0,1,1.109.58,3.737,3.737,0,0,0,6.445-.521,1.351,1.351,0,0,1,1.059-.758c.1-.012.212-.031.319-.054a2.948,2.948,0,0,0,.053-5.736,1.35,1.35,0,0,1-.75-2.128,2.149,2.149,0,0,0-2.182-3.4,2.129,2.129,0,0,0-.89.435,1.351,1.351,0,0,1-1.578.1,3.164,3.164,0,0,0-1.69-.49,3.189,3.189,0,0,0-3.109,3.892,3.134,3.134,0,0,0,.115.386,1.35,1.35,0,0,1-.866,1.752,3.121,3.121,0,0,0-2.1,3.65,3.072,3.072,0,0,0,1.1,1.751,3.09,3.09,0,0,0,2.594.6l.032-.008A1.35,1.35,0,0,1,185.179,115.416Z" transform="translate(-0.324 -0.11)" fill="#121212"/><path d="M240.693,115.136v-.042a3.352,3.352,0,0,0-3.42-3.28,3.389,3.389,0,0,0-3.352,2.624,3.7,3.7,0,0,0-.529-.038,3.346,3.346,0,1,0,0,6.687,3.6,3.6,0,0,0,1.351-.261,2.817,2.817,0,0,0,4.909.283,3.36,3.36,0,0,0,.515.041,3.021,3.021,0,0,0,.525-6.013" transform="translate(-0.415 -0.121)" fill="#fff"/><path d="M237.275,110.463a4.749,4.749,0,0,1,4.658,3.63,4.517,4.517,0,0,1,1.645,1.164,4.3,4.3,0,0,1,1.1,2.865,4.446,4.446,0,0,1-4.4,4.377,4.189,4.189,0,0,1-6.108-.121,5.006,5.006,0,0,1-.77.059,4.69,4.69,0,0,1-.408-9.371A4.807,4.807,0,0,1,237.275,110.463Zm2.069,4.617a2.007,2.007,0,0,0-2.069-1.916,2.041,2.041,0,0,0-2.031,1.553,1.35,1.35,0,0,1-1.515,1.057,2.354,2.354,0,0,0-.336-.024,2,2,0,1,0,0,3.986,2.243,2.243,0,0,0,.845-.162,1.351,1.351,0,0,1,1.734.69,1.418,1.418,0,0,0,1.3.8,1.444,1.444,0,0,0,1.23-.662,1.35,1.35,0,0,1,1.356-.625,2,2,0,0,0,.308.025,1.748,1.748,0,0,0,1.807-1.677,1.713,1.713,0,0,0-1.5-1.652,1.35,1.35,0,0,1-1.136-1.366Z" transform="translate(-0.415 -0.121)" fill="#121212"/></g></g></g></svg>