<svg xmlns="http://www.w3.org/2000/svg" xmlns:xlink="http://www.w3.org/1999/xlink" width="280" height="190" viewBox="0 0 280 190"><defs><clipPath id="a"><rect width="280" height="190" fill="none"/></clipPath><clipPath id="b"><rect width="66.962" height="71.263" transform="translate(41.368 20.871)" fill="none"/></clipPath><clipPath id="d"><rect width="67.096" height="71.264" transform="translate(169.858 20.133)" fill="none"/></clipPath></defs><g clip-path="url(#a)"><path d="M158.176,58.272c.248-4.49-.667-10.8-3.428-14.352-3.866-4.98-9.02-5.685-14.778-5.685s-10.911.7-14.778,5.685c-2.761,3.555-3.676,9.862-3.427,14.352,0,0-5.712,1-5.712,6.152,0,3.743,1.088,5.648,5.527,7.03,2.307,7.233,7.273,16.094,18.389,16.094h0c11.116,0,16.082-8.861,18.39-16.094,4.439-1.382,5.527-3.287,5.527-7.03,0-5.153-5.712-6.152-5.712-6.152" fill="#fef1e6"/><path d="M149.422,85v5.662l-9.452,4.526-9.453-4.526V85Z" fill="#fef1e6"/><path d="M135.707,66.318a1.494,1.494,0,1,1-1.494-1.5,1.495,1.495,0,0,1,1.494,1.5" fill="#121212"/><path d="M144.236,63.591a1.9,1.9,0,0,1-1.486-3.07,5.771,5.771,0,0,1,4.679-2.182,1.9,1.9,0,0,1-.112,3.788,1.964,1.964,0,0,0-1.593.742A1.892,1.892,0,0,1,144.236,63.591Z" fill="#121212"/><path d="M147.22,66.318a1.494,1.494,0,1,1-1.494-1.5,1.495,1.495,0,0,1,1.494,1.5" fill="#121212"/><path d="M139.97,79.537a4.559,4.559,0,0,1-2.726-.859,3,3,0,0,1-1.273-2.377.947.947,0,1,1,1.895,0c0,.714.983,1.34,2.1,1.34s2.1-.626,2.1-1.34a.947.947,0,1,1,1.895,0,3,3,0,0,1-1.272,2.375A4.556,4.556,0,0,1,139.97,79.537Z" fill="#121212"/><path d="M135.7,63.59a1.892,1.892,0,0,1-1.489-.721,1.959,1.959,0,0,0-1.591-.742,1.895,1.895,0,0,1-.115-3.788,5.764,5.764,0,0,1,4.681,2.182A1.9,1.9,0,0,1,135.7,63.59Z" fill="#121212"/><path d="M1.73.947H0A.947.947,0,0,1-.948,0,.947.947,0,0,1,0-.947H1.73A.947.947,0,0,1,2.677,0,.947.947,0,0,1,1.73.947Z" transform="translate(139.105 69.838)" fill="#121212"/><path d="M139.97,36.34a28.518,28.518,0,0,1,8.677,1.065,15.236,15.236,0,0,1,7.6,5.353,18.794,18.794,0,0,1,3.2,7.6,31.973,31.973,0,0,1,.665,6.509,10.712,10.712,0,0,1,1.927.944,8.182,8.182,0,0,1,2.544,2.442,7.484,7.484,0,0,1,1.2,4.173,9.063,9.063,0,0,1-1.471,5.528,9.053,9.053,0,0,1-4.45,3c-3.713,10.8-10.575,16.5-19.891,16.5s-16.181-5.7-19.892-16.5a9.052,9.052,0,0,1-4.45-3,9.063,9.063,0,0,1-1.471-5.528,7.484,7.484,0,0,1,1.2-4.173,8.182,8.182,0,0,1,2.544-2.442,10.713,10.713,0,0,1,1.927-.944,31.955,31.955,0,0,1,.665-6.509,18.791,18.791,0,0,1,3.2-7.6,15.24,15.24,0,0,1,7.6-5.352A28.516,28.516,0,0,1,139.97,36.34Zm17.874,23.8a1.874,1.874,0,0,1-1.56-1.97c.228-4.128-.624-9.984-3.033-13.085a11.412,11.412,0,0,0-5.761-4.068,25.115,25.115,0,0,0-7.52-.885,25.113,25.113,0,0,0-7.52.885,11.415,11.415,0,0,0-5.762,4.068c-1.689,2.175-3.358,7.2-3.032,13.085a1.874,1.874,0,0,1-1.56,1.971,7.114,7.114,0,0,0-2.265.937,3.772,3.772,0,0,0-1.884,3.349,5.353,5.353,0,0,0,.727,3.273,6.661,6.661,0,0,0,3.468,1.948,1.9,1.9,0,0,1,1.242,1.234,26.191,26.191,0,0,0,5.469,10.04,14.858,14.858,0,0,0,4.664,3.408,16.358,16.358,0,0,0,12.9,0,14.859,14.859,0,0,0,4.664-3.408,26.2,26.2,0,0,0,5.47-10.041,1.9,1.9,0,0,1,1.242-1.233,6.661,6.661,0,0,0,3.468-1.948,5.353,5.353,0,0,0,.727-3.273,3.772,3.772,0,0,0-1.884-3.349A7.114,7.114,0,0,0,157.844,60.138Z" fill="#121212"/><path d="M139.97,97.083a1.894,1.894,0,0,1-.818-.186L129.7,92.371a1.9,1.9,0,0,1-1.077-1.709V85a1.9,1.9,0,0,1,3.79,0v4.468l7.558,3.619,7.557-3.619V85a1.9,1.9,0,0,1,3.79,0v5.662a1.9,1.9,0,0,1-1.077,1.709L140.788,96.9A1.894,1.894,0,0,1,139.97,97.083Z" fill="#121212"/><path d="M149.479,90.649l14.77,5.395a25.572,25.572,0,0,1,16,17.7l5.2,29.781a8.53,8.53,0,0,1-5.558,10.2l-17.127,5.714H117.234l-17.127-5.714a8.53,8.53,0,0,1-5.561-10.2l5.2-29.781a25.58,25.58,0,0,1,16-17.7l14.771-5.395L140,95.187Z" fill="#fff"/><path d="M140,97.94a1.9,1.9,0,0,1-.821-.186L129.7,93.215a1.9,1.9,0,0,1-1.079-1.714V85.824a1.9,1.9,0,1,1,3.8,0V90.3L140,93.934l7.578-3.629v-4.48a1.9,1.9,0,1,1,3.8,0V91.5a1.9,1.9,0,0,1-1.079,1.714l-9.478,4.539A1.9,1.9,0,0,1,140,97.94Z" fill="#121212"/><path d="M130.523,89.6a1.9,1.9,0,0,1,.82.186l9.479,4.538a1.9,1.9,0,0,1-.108,3.475l-7.427,3a1.9,1.9,0,0,1-2.546-1.263L128.689,92a1.9,1.9,0,0,1,1.834-2.4Zm4.773,6.292-1.85-.886.4,1.472Z" fill="#121212"/><path d="M149.479,89.6a1.9,1.9,0,0,1,1.834,2.4l-2.053,7.546a1.9,1.9,0,0,1-2.547,1.262L139.287,97.8a1.9,1.9,0,0,1-.107-3.475l9.479-4.538A1.9,1.9,0,0,1,149.479,89.6Zm-3.324,6.881.4-1.475-1.853.887Z" fill="#121212"/><path d="M145.7,98.766,140,96.039l-4.739,2.735,1.409,6.651,7.211-.1Z" fill="#ea5457"/><path d="M140,94.628a1.411,1.411,0,0,1,.609.138l5.7,2.727a1.412,1.412,0,0,1,.751,1.649l-1.815,6.561a1.412,1.412,0,0,1-1.341,1.035l-7.211.1a1.412,1.412,0,0,1-1.4-1.119l-1.409-6.651a1.411,1.411,0,0,1,.675-1.515l4.739-2.735A1.411,1.411,0,0,1,140,94.628Zm4.02,4.9-3.959-1.9-3.207,1.851.956,4.514,4.992-.068Z" fill="#121212"/><path d="M134.783,138.35l5.7,2.727,4.739-2.735L143.809,106.4l-7.211.1Z" fill="#ea5457"/><path d="M140.479,142.489a1.411,1.411,0,0,1-.609-.138l-5.7-2.727a1.412,1.412,0,0,1-.8-1.353l1.815-31.849a1.411,1.411,0,0,1,1.39-1.331l7.211-.1a1.411,1.411,0,0,1,1.429,1.349l1.409,31.939a1.412,1.412,0,0,1-.7,1.285l-4.739,2.735A1.411,1.411,0,0,1,140.479,142.489Zm-4.233-5,4.172,2,3.352-1.935-1.311-29.715-4.527.062Z" fill="#121212"/><path d="M117.235,161.341a1.9,1.9,0,0,1-.6-.1l-17.128-5.713a10.43,10.43,0,0,1-6.815-12.4l5.187-29.711q.013-.072.031-.143A27.458,27.458,0,0,1,115.1,94.259l14.771-5.4a1.9,1.9,0,0,1,1.3,3.569L116.4,97.829a23.659,23.659,0,0,0-14.795,16.314L96.422,143.85q-.013.073-.031.144a6.63,6.63,0,0,0,4.319,7.931l17.126,5.712a1.9,1.9,0,0,1-.6,3.7Z" fill="#121212"/><path d="M162.766,161.342a1.9,1.9,0,0,1-.6-3.7l17.127-5.714a6.63,6.63,0,0,0,4.319-7.93q-.018-.071-.031-.144l-5.187-29.708a23.662,23.662,0,0,0-14.8-16.315l-14.77-5.395a1.9,1.9,0,0,1,1.3-3.569l14.77,5.395a27.46,27.46,0,0,1,17.191,19.014q.018.071.031.143l5.188,29.712a10.43,10.43,0,0,1-6.815,12.4l-17.128,5.714A1.9,1.9,0,0,1,162.766,161.342Z" fill="#121212"/><path d="M172.69,158.087H107.31V120.361a2.557,2.557,0,0,1,2.556-2.558h60.268a2.557,2.557,0,0,1,2.556,2.558Z" fill="#fff"/><path d="M172.69,159.987H107.31a1.9,1.9,0,0,1-1.9-1.9V120.361a4.457,4.457,0,0,1,4.456-4.458h60.268a4.462,4.462,0,0,1,4.456,4.458v37.726A1.9,1.9,0,0,1,172.69,159.987Zm-63.48-3.8h61.58V120.361a.658.658,0,0,0-.656-.658H109.866a.657.657,0,0,0-.656.657Z" fill="#121212"/><rect width="65.38" height="7.388" transform="translate(107.31 158.087)" fill="#fff"/><path d="M0-1.9H65.38A1.9,1.9,0,0,1,67.28,0V7.388a1.9,1.9,0,0,1-1.9,1.9H0a1.9,1.9,0,0,1-1.9-1.9V0A1.9,1.9,0,0,1,0-1.9ZM63.48,1.9H1.9V5.488H63.48Z" transform="translate(107.31 158.087)" fill="#121212"/><path d="M135.808,140.932h2.8v1.919h-5.3v-9.019h2.505Z" fill="#ea5457"/><path d="M146.322,138.33a2.722,2.722,0,0,1-1.137,1.075,3.927,3.927,0,0,1-1.86.4h-1.24v3.045h-2.506v-9.019h3.746a4.064,4.064,0,0,1,1.847.384,2.627,2.627,0,0,1,1.144,1.062,3.12,3.12,0,0,1,.383,1.56,2.975,2.975,0,0,1-.377,1.49m-2.179-1.49q0-.987-1.062-.985h-1v1.957h1q1.061,0,1.062-.972" fill="#ea5457"/><path d="M69.061,1.9H0A1.9,1.9,0,0,1-1.9,0,1.9,1.9,0,0,1,0-1.9H69.061a1.9,1.9,0,0,1,1.9,1.9A1.9,1.9,0,0,1,69.061,1.9Z" transform="translate(38.249 161.782)" fill="#121212"/><path d="M69.061,1.9H0A1.9,1.9,0,0,1-1.9,0,1.9,1.9,0,0,1,0-1.9H69.061a1.9,1.9,0,0,1,1.9,1.9A1.9,1.9,0,0,1,69.061,1.9Z" transform="translate(172.69 161.782)" fill="#121212"/><path d="M148.693,79.057a.948.948,0,0,1-.935-.8,12.122,12.122,0,0,0-1.363-3.6,8.068,8.068,0,0,0-2.637-2.586.947.947,0,1,1,.947-1.641,10.019,10.019,0,0,1,3.341,3.3,13.784,13.784,0,0,1,1.585,4.243.948.948,0,0,1-.937,1.093Z" fill="#121212"/><path d="M123.363,48.224a.947.947,0,0,1-.687-1.6,19.587,19.587,0,0,1,3.915-3.019A26.559,26.559,0,0,1,136.8,40.619a34.629,34.629,0,0,1,9.177.42.947.947,0,0,1-.354,1.862h0a33.292,33.292,0,0,0-8.6-.4,24.749,24.749,0,0,0-9.476,2.736,18.013,18.013,0,0,0-3.505,2.693A.946.946,0,0,1,123.363,48.224Z" fill="#121212"/><path d="M123.363,50.727a.947.947,0,0,1-.687-1.6,19.587,19.587,0,0,1,3.915-3.019A26.559,26.559,0,0,1,136.8,43.122a34.63,34.63,0,0,1,9.177.42.947.947,0,0,1-.354,1.862h0a33.294,33.294,0,0,0-8.6-.4,24.749,24.749,0,0,0-9.476,2.736,18.014,18.014,0,0,0-3.505,2.693A.946.946,0,0,1,123.363,50.727Z" fill="#121212"/><path d="M123.363,53.66a.947.947,0,0,1-.687-1.6,19.587,19.587,0,0,1,3.915-3.019A26.559,26.559,0,0,1,136.8,46.055a34.629,34.629,0,0,1,9.177.42.947.947,0,0,1-.354,1.862h0a33.294,33.294,0,0,0-8.6-.4,24.749,24.749,0,0,0-9.476,2.736,18.013,18.013,0,0,0-3.505,2.693A.946.946,0,0,1,123.363,53.66Z" fill="#121212"/><path d="M150.275,40.132a18,18,0,0,0,.589,10.694c1.619,3.852,6.981,5.8,6.981,5.8s.934-5-1.082-8.853-6.488-7.643-6.488-7.643" fill="#121212"/><path d="M150.275,39.184a.947.947,0,0,1,.612.224c.188.16,4.638,3.953,6.716,7.927,2.143,4.1,1.214,9.248,1.174,9.466a.948.948,0,0,1-1.255.716c-.235-.085-5.771-2.14-7.531-6.325a18.815,18.815,0,0,1-.626-11.322.948.948,0,0,1,.911-.687Zm6.781,16.066a13.613,13.613,0,0,0-1.132-7.036,27.183,27.183,0,0,0-5.048-6.25,16.393,16.393,0,0,0,.862,8.5,8.933,8.933,0,0,0,3.728,3.91A16.949,16.949,0,0,0,157.056,55.25Z" fill="#121212"/></g><g clip-path="url(#b)"><path d="M90.848,47.457c.185-3.345-.5-8.042-2.553-10.691-2.881-3.709-6.719-4.234-11.008-4.234s-8.128.525-11.008,4.234c-2.057,2.649-2.739,7.346-2.554,10.691,0,0-4.254.745-4.254,4.582,0,2.788.81,4.208,4.117,5.237,1.718,5.388,5.417,11.989,13.7,11.989h0c8.281,0,11.98-6.6,13.7-11.989,3.306-1.029,4.117-2.449,4.117-5.237,0-3.837-4.255-4.582-4.255-4.582" fill="#fef1e6"/><path d="M84.327,67.366v4.217l-7.041,3.372-7.041-3.372V67.366Z" fill="#fef1e6"/><path d="M84.327,70.95,95.3,74.958a19,19,0,0,1,11.888,13.148l3.861,22.123a6.335,6.335,0,0,1-4.128,7.58L94.2,122.053H60.373l-12.722-4.244a6.336,6.336,0,0,1-4.132-7.58l3.862-22.123A19,19,0,0,1,59.269,74.958L70.242,70.95l7.041,3.371Z" fill="#dcdcdc"/><path d="M84.327,69.538a1.411,1.411,0,0,1,.484.086l10.973,4.008a20.4,20.4,0,0,1,12.771,14.125q.013.053.023.106l3.852,22.072a7.747,7.747,0,0,1-5.062,9.213l-12.725,4.244a1.412,1.412,0,0,1-.447.073H60.373a1.411,1.411,0,0,1-.447-.073L47.2,119.148a7.748,7.748,0,0,1-5.067-9.213l3.853-22.072q.009-.054.023-.106A20.4,20.4,0,0,1,58.784,73.632l10.973-4.008a1.412,1.412,0,0,1,1.094.053l6.432,3.079,6.435-3.079A1.411,1.411,0,0,1,84.327,69.538ZM105.807,88.4a17.581,17.581,0,0,0-10.992-12.12L84.4,72.48l-6.508,3.115a1.412,1.412,0,0,1-1.219,0L70.168,72.48l-10.415,3.8A17.581,17.581,0,0,0,48.762,88.4l-3.852,22.068q-.009.054-.023.107A4.925,4.925,0,0,0,48.1,116.47l12.5,4.171H93.968l12.507-4.171a4.924,4.924,0,0,0,3.207-5.891q-.014-.053-.023-.107Z" fill="#121212"/><path d="M74.11,53.45A1.113,1.113,0,1,1,73,52.336,1.113,1.113,0,0,1,74.11,53.45" fill="#121212"/><path d="M80.464,51.419a1.412,1.412,0,0,1-1.107-2.286,4.3,4.3,0,0,1,3.486-1.625,1.412,1.412,0,0,1-.084,2.822,1.462,1.462,0,0,0-1.186.553A1.409,1.409,0,0,1,80.464,51.419Z" fill="#121212"/><path d="M82.687,53.45a1.113,1.113,0,1,1-1.113-1.114,1.113,1.113,0,0,1,1.113,1.114" fill="#121212"/><path d="M77.286,63.3a3.4,3.4,0,0,1-2.031-.64,2.231,2.231,0,0,1-.948-1.77.706.706,0,0,1,1.411,0c0,.532.732,1,1.567,1s1.567-.467,1.567-1a.706.706,0,0,1,1.411,0,2.231,2.231,0,0,1-.947,1.769A3.4,3.4,0,0,1,77.286,63.3Z" fill="#121212"/><path d="M74.107,51.419A1.409,1.409,0,0,1,73,50.881a1.46,1.46,0,0,0-1.185-.552,1.412,1.412,0,0,1-.084-2.822,4.294,4.294,0,0,1,3.487,1.626,1.412,1.412,0,0,1-1.108,2.285Z" fill="#121212"/><path d="M1.289.706H0A.705.705,0,0,1-.705,0,.705.705,0,0,1,0-.706H1.289A.705.705,0,0,1,1.995,0,.705.705,0,0,1,1.289.706Z" transform="translate(76.641 56.072)" fill="#121212"/><path d="M77.287,31.12a21.243,21.243,0,0,1,6.463.794A11.354,11.354,0,0,1,89.41,35.9a14.008,14.008,0,0,1,2.383,5.66,23.811,23.811,0,0,1,.5,4.849,7.983,7.983,0,0,1,1.436.7,6.1,6.1,0,0,1,1.895,1.819,5.573,5.573,0,0,1,.9,3.108,5.875,5.875,0,0,1-4.41,6.35c-2.765,8.043-7.877,12.288-14.817,12.288S65.234,66.432,62.47,58.389a5.874,5.874,0,0,1-4.41-6.35,5.573,5.573,0,0,1,.9-3.108,6.1,6.1,0,0,1,1.894-1.819,7.981,7.981,0,0,1,1.435-.7,23.8,23.8,0,0,1,.5-4.849,14,14,0,0,1,2.384-5.66,11.35,11.35,0,0,1,5.659-3.986A21.246,21.246,0,0,1,77.287,31.12Zm0,36.733a11.48,11.48,0,0,0,4.807-.988,11.068,11.068,0,0,0,3.474-2.539,19.515,19.515,0,0,0,4.075-7.48,1.412,1.412,0,0,1,.925-.919,4.959,4.959,0,0,0,2.583-1.451,3.988,3.988,0,0,0,.542-2.438,2.825,2.825,0,0,0-1.465-2.533,5.321,5.321,0,0,0-1.622-.658,1.412,1.412,0,0,1-1.166-1.468c.17-3.074-.464-7.436-2.259-9.748A8.5,8.5,0,0,0,82.888,34.6a18.708,18.708,0,0,0-5.6-.659,18.712,18.712,0,0,0-5.6.659,8.5,8.5,0,0,0-4.291,3.029c-1.8,2.312-2.43,6.673-2.26,9.747a1.4,1.4,0,0,1-1.162,1.468,5.3,5.3,0,0,0-1.687.7,2.809,2.809,0,0,0-1.4,2.494,3.989,3.989,0,0,0,.541,2.438,4.958,4.958,0,0,0,2.583,1.451,1.412,1.412,0,0,1,.925.919,19.507,19.507,0,0,0,4.074,7.479,11.067,11.067,0,0,0,3.474,2.539A11.478,11.478,0,0,0,77.286,67.854Z" fill="#121212"/><path d="M92.25,40.981c-.41-3.216-1.3-6.538-2.79-8.7-3.13-4.549-7.131-5.084-11.58-4.947s-8.409.916-11.253,5.649a20.181,20.181,0,0,0-2.211,8.331s-6.106.283-8.279.435-2.846,3.393.107,3.472,36.276-.352,36.276-.352Z" fill="#dcdcdc"/><path d="M57.575,46.64h0c-.667,0-1.114,0-1.367-.01-2.276-.061-3.325-1.509-3.355-2.918a3.3,3.3,0,0,1,.857-2.246,3.437,3.437,0,0,1,2.33-1.128c1.59-.111,5.192-.288,7.093-.379a19.248,19.248,0,0,1,2.286-7.706A11.977,11.977,0,0,1,71.1,27.133a18.663,18.663,0,0,1,6.734-1.212c.415-.013.794-.019,1.158-.019,3.852,0,8.247.663,11.628,5.577,1.964,2.854,2.74,7.066,3.027,9.324q.005.04.008.081l.27,3.886a1.412,1.412,0,0,1-1.39,1.509C92.258,46.282,64.44,46.64,57.575,46.64Zm-1.9-2.973a1.009,1.009,0,0,0,.607.141c.225.006.66.009,1.292.009,5.923,0,27.537-.268,33.434-.342l-.164-2.355A19.152,19.152,0,0,0,88.3,33.079c-2.486-3.614-5.517-4.354-9.3-4.354-.335,0-.686.006-1.072.018a16.122,16.122,0,0,0-5.722.99,9.135,9.135,0,0,0-4.364,3.975,18.664,18.664,0,0,0-2.014,7.718,1.412,1.412,0,0,1-1.342,1.3c-.061,0-6.114.284-8.246.433a.6.6,0,0,0-.478.262A.4.4,0,0,0,55.675,43.667Z" fill="#121212"/><path d="M77.286,76.367a1.411,1.411,0,0,1-.61-.138l-7.041-3.372a1.412,1.412,0,0,1-.8-1.273V67.366a1.411,1.411,0,0,1,2.823,0v3.328l5.63,2.7,5.63-2.7V67.366a1.411,1.411,0,0,1,2.823,0v4.217a1.412,1.412,0,0,1-.8,1.273L77.9,76.228A1.411,1.411,0,0,1,77.286,76.367Z" fill="#121212"/><path d="M70.245,70.172a1.41,1.41,0,0,1,.609.138L77.9,73.681a1.411,1.411,0,0,1-.08,2.582L72.3,78.495a1.412,1.412,0,0,1-1.891-.938l-1.524-5.6a1.412,1.412,0,0,1,1.362-1.782Zm3.545,4.674-1.374-.658.3,1.094Z" fill="#121212"/><path d="M84.327,70.172a1.412,1.412,0,0,1,1.362,1.782L84.164,77.56a1.411,1.411,0,0,1-1.892.938l-5.516-2.235a1.411,1.411,0,0,1-.079-2.581l7.041-3.371A1.41,1.41,0,0,1,84.327,70.172Zm-2.469,5.112.3-1.1-1.376.659Z" fill="#121212"/><path d="M60.375,123.465a1.41,1.41,0,0,1-.447-.073L47.2,119.148a7.748,7.748,0,0,1-5.064-9.213l3.853-22.072q.009-.053.023-.106A20.4,20.4,0,0,1,58.788,73.632l10.973-4.008a1.411,1.411,0,1,1,.969,2.652L59.756,76.284A17.578,17.578,0,0,0,48.765,88.4l-3.852,22.068q-.009.054-.023.107A4.925,4.925,0,0,0,48.1,116.47l12.723,4.244a1.412,1.412,0,0,1-.446,2.751Z" fill="#121212"/><path d="M94.2,123.465a1.412,1.412,0,0,1-.446-2.751l12.724-4.244a4.924,4.924,0,0,0,3.207-5.891q-.014-.053-.023-.107L105.807,88.4a17.58,17.58,0,0,0-10.992-12.12L83.843,72.276a1.411,1.411,0,1,1,.969-2.652l10.973,4.008a20.4,20.4,0,0,1,12.771,14.125q.013.053.023.106l3.852,22.072a7.747,7.747,0,0,1-5.062,9.213l-12.725,4.244A1.411,1.411,0,0,1,94.2,123.465Z" fill="#121212"/><path d="M1.328-.722a2.05,2.05,0,1,1-2.05,2.05A2.052,2.052,0,0,1,1.328-.722Zm0,2.655a.605.605,0,1,0-.605-.605A.606.606,0,0,0,1.328,1.933Z" transform="translate(75.958 80.761)" fill="#121212"/></g><g clip-path="url(#a)"><path d="M108.329,95.022H42.949a1.9,1.9,0,0,1-1.9-1.9V24.938a4.464,4.464,0,0,1,4.453-4.46h60.271a4.467,4.467,0,0,1,4.456,4.46V93.122A1.9,1.9,0,0,1,108.329,95.022Zm-63.48-3.8h61.58V24.938a.661.661,0,0,0-.659-.66H45.505a.659.659,0,0,0-.656.659Z" fill="#121212"/><path d="M74.1,39.489h2.8v1.919H71.6V32.389h2.5Z" fill="#ea5457"/><path d="M84.612,36.886a2.73,2.73,0,0,1-1.138,1.075,3.927,3.927,0,0,1-1.86.4h-1.24v3.045H77.868V32.39h3.746a4.061,4.061,0,0,1,1.847.384,2.627,2.627,0,0,1,1.144,1.062,3.1,3.1,0,0,1,.383,1.56,2.975,2.975,0,0,1-.377,1.49M82.432,35.4q0-.987-1.062-.985h-1v1.957h1q1.062,0,1.062-.972" fill="#ea5457"/><path d="M184.356,80.125s-2.879-1.163-2.879-8.928c0-5.539,3.519-6.818,3.519-12.9,0-5.118-1.386-7.89-1.386-13.221s3.625-21.752,22.516-21.752c15.336,0,20.881,10.449,20.881,19.832,0,6.185-2.773,8.566-2.773,13.862,0,7.037,2.719,10.556,2.719,14.074,0,5.758-2.292,6.5-2.292,6.5Z" fill="#5e1212"/><path d="M184.356,81.075a.95.95,0,0,1-.356-.069,4.317,4.317,0,0,1-1.909-1.962c-1.038-1.819-1.564-4.459-1.564-7.847a13.374,13.374,0,0,1,1.8-6.545,12.724,12.724,0,0,0,1.721-6.351,34.265,34.265,0,0,0-.668-6.307,37.563,37.563,0,0,1-.718-6.914,23.331,23.331,0,0,1,.9-5.9A25.128,25.128,0,0,1,187,31.668a20.484,20.484,0,0,1,7.186-6.526,24.811,24.811,0,0,1,11.94-2.764,25.971,25.971,0,0,1,10.1,1.854,18.407,18.407,0,0,1,6.806,4.869,21.267,21.267,0,0,1,4.924,14.059,21.953,21.953,0,0,1-1.518,7.808,17.476,17.476,0,0,0-1.255,6.054,27.623,27.623,0,0,0,1.661,9.163A16.262,16.262,0,0,1,227.9,71.1a11.194,11.194,0,0,1-1.293,5.919,3.379,3.379,0,0,1-1.655,1.489.95.95,0,0,1-.235.045l-40.3,2.524Zm21.77-56.8a22.942,22.942,0,0,0-11.035,2.534,18.6,18.6,0,0,0-6.523,5.929A23.819,23.819,0,0,0,184.56,45.08a35.992,35.992,0,0,0,.69,6.589,36.3,36.3,0,0,1,.7,6.632,14.67,14.67,0,0,1-1.92,7.2,11.637,11.637,0,0,0-1.6,5.7c0,3.8.715,5.854,1.315,6.905a3.629,3.629,0,0,0,.849,1.056L224.4,76.665c.334-.228,1.6-1.371,1.6-5.569a14.989,14.989,0,0,0-.968-4.332,29.633,29.633,0,0,1-1.751-9.742,19.271,19.271,0,0,1,1.357-6.669,20.362,20.362,0,0,0,1.416-7.193A19.374,19.374,0,0,0,221.6,30.35a16.523,16.523,0,0,0-6.112-4.367A24.094,24.094,0,0,0,206.126,24.278Z" fill="#121212"/></g><g clip-path="url(#d)"><path d="M205.776,68.527h0c8.281,0,11.98-6.6,13.7-11.989.98-3.952-7.667-21.594-7.667-21.594L192.215,46.719s-4.254.745-4.254,4.582c0,2.789.81,4.208,4.117,5.237,1.718,5.388,5.417,11.989,13.7,11.989" fill="#fef1e6"/><path d="M212.818,66.628v4.217l-7.041,3.372-7.041-3.372V66.628Z" fill="#fef1e6"/><path d="M212.818,70.213l10.973,4.008a19,19,0,0,1,11.888,13.147l3.861,22.124a6.335,6.335,0,0,1-4.128,7.58l-12.724,4.244H188.864l-12.722-4.244a6.336,6.336,0,0,1-4.132-7.58l3.862-22.124A19,19,0,0,1,187.76,74.221l10.973-4.008,7.041,3.371Z" fill="#fff"/><path d="M212.818,68.8a1.411,1.411,0,0,1,.484.086L224.275,72.9a20.4,20.4,0,0,1,12.771,14.124q.013.053.023.107l3.852,22.072a7.747,7.747,0,0,1-5.062,9.213l-12.725,4.244a1.412,1.412,0,0,1-.447.073H188.864a1.411,1.411,0,0,1-.447-.073L175.7,118.411a7.748,7.748,0,0,1-5.067-9.213l3.853-22.073q.009-.054.023-.106A20.4,20.4,0,0,1,187.275,72.9l10.973-4.008a1.411,1.411,0,0,1,1.094.053l6.432,3.079,6.435-3.079A1.411,1.411,0,0,1,212.818,68.8ZM234.3,87.665a17.578,17.578,0,0,0-10.991-12.119l-10.415-3.8-6.508,3.115a1.411,1.411,0,0,1-1.219,0l-6.505-3.114-10.415,3.8a17.58,17.58,0,0,0-10.991,12.118L173.4,109.735q-.009.054-.023.107a4.925,4.925,0,0,0,3.211,5.891l12.5,4.171h33.366l12.507-4.171a4.924,4.924,0,0,0,3.207-5.891q-.014-.053-.023-.107Z" fill="#121212"/><path d="M202.6,52.713a1.114,1.114,0,1,1-1.113-1.114,1.113,1.113,0,0,1,1.113,1.114" fill="#121212"/><path d="M211.334,49.872a.7.7,0,0,1-.514-.222,2.172,2.172,0,0,0-1.826-.665.706.706,0,1,1-.165-1.4,3.589,3.589,0,0,1,3.018,1.1.706.706,0,0,1-.513,1.189Z" fill="#121212"/><path d="M211.178,52.713a1.113,1.113,0,1,1-1.113-1.114,1.113,1.113,0,0,1,1.113,1.114" fill="#121212"/><path d="M205.777,62.559a3.4,3.4,0,0,1-2.031-.64,2.23,2.23,0,0,1-.948-1.77.705.705,0,1,1,1.411,0c0,.532.733,1,1.568,1s1.567-.467,1.567-1a.705.705,0,1,1,1.411,0,2.231,2.231,0,0,1-.947,1.769A3.393,3.393,0,0,1,205.777,62.559Z" fill="#121212"/><path d="M200.218,49.871a.705.705,0,0,1-.514-1.189,3.586,3.586,0,0,1,3.018-1.1.705.705,0,1,1-.165,1.4,2.169,2.169,0,0,0-1.826.665A.7.7,0,0,1,200.218,49.871Z" fill="#121212"/><path d="M1.289.706H0A.705.705,0,0,1-.705,0,.705.705,0,0,1,0-.706H1.289A.705.705,0,0,1,1.995,0,.705.705,0,0,1,1.289.706Z" transform="translate(205.132 56.987)" fill="#121212"/><path d="M211.809,33.755a1.188,1.188,0,0,1,1.066.665c.022.044,2.2,4.5,4.231,9.382,1.2,2.884,2.114,5.356,2.721,7.348.83,2.727,1.085,4.529.8,5.673q-.009.038-.021.075c-2.675,8.383-7.8,12.815-14.83,12.815-6.866,0-11.918-4.228-14.64-12.237a6.626,6.626,0,0,1-3.312-2.191,6.547,6.547,0,0,1-1.051-3.984,5.381,5.381,0,0,1,2.684-4.737,7.914,7.914,0,0,1,2.315-.965L211.2,33.925A1.187,1.187,0,0,1,211.809,33.755Zm6.521,22.466c.117-.551.157-2.91-3.413-11.5-1.385-3.331-2.841-6.463-3.614-8.092l-18.476,11.1a1.13,1.13,0,0,1-.4.151,5.52,5.52,0,0,0-1.758.723,3.021,3.021,0,0,0-1.516,2.689c0,2.274.5,3.235,3.283,4.1a1.187,1.187,0,0,1,.778.773,19.722,19.722,0,0,0,4.124,7.564,11.29,11.29,0,0,0,3.544,2.589,12.41,12.41,0,0,0,9.8,0,11.29,11.29,0,0,0,3.545-2.589A19.689,19.689,0,0,0,218.33,56.221Z" fill="#121212"/><path d="M205.777,75.4a1.187,1.187,0,0,1-.513-.116l-7.041-3.372a1.187,1.187,0,0,1-.675-1.071V66.628a1.188,1.188,0,0,1,2.375,0V70.1l5.854,2.8,5.854-2.8V66.628a1.188,1.188,0,0,1,2.375,0v4.217a1.187,1.187,0,0,1-.675,1.071l-7.041,3.372A1.187,1.187,0,0,1,205.777,75.4Z" fill="#121212"/><path d="M212.818,70.846l-7.041,3.371s2.638,3.827,5.516,2.235,1.525-5.606,1.525-5.606" fill="#fff"/><path d="M212.818,69.435a1.411,1.411,0,0,1,1.338.961,8.621,8.621,0,0,1,.39,2.682,5.105,5.105,0,0,1-2.57,4.61,4.372,4.372,0,0,1-2.136.564c-2.912,0-5-2.9-5.225-3.233a1.411,1.411,0,0,1,.553-2.074l7.041-3.371A1.411,1.411,0,0,1,212.818,69.435Zm-2.978,5.994a1.562,1.562,0,0,0,.77-.211,2.228,2.228,0,0,0,1.114-2.19c0-.031,0-.062,0-.092l-3.6,1.725A2.938,2.938,0,0,0,209.84,75.428Z" fill="#121212"/><path d="M198.684,70.846l7.041,3.371s-2.638,3.827-5.516,2.235-1.525-5.606-1.525-5.606" fill="#fff"/><path d="M198.684,69.435a1.411,1.411,0,0,1,.61.138l7.041,3.371a1.411,1.411,0,0,1,.553,2.074c-.228.331-2.313,3.233-5.225,3.233a4.372,4.372,0,0,1-2.136-.564,5.105,5.105,0,0,1-2.57-4.61,8.621,8.621,0,0,1,.39-2.682,1.411,1.411,0,0,1,1.338-.961Zm4.7,5.225-3.6-1.725q0,.077,0,.155a2.207,2.207,0,0,0,1.112,2.127,1.562,1.562,0,0,0,.77.211A2.937,2.937,0,0,0,203.381,74.66Z" fill="#121212"/><path d="M188.866,122.728a1.41,1.41,0,0,1-.447-.073L175.7,118.411a7.748,7.748,0,0,1-5.064-9.213l3.853-22.073q.009-.054.023-.106A20.4,20.4,0,0,1,187.279,72.9l10.973-4.008a1.411,1.411,0,0,1,.969,2.652l-10.973,4.008a17.575,17.575,0,0,0-10.991,12.118L173.4,109.735q-.009.054-.023.107a4.925,4.925,0,0,0,3.209,5.892l12.723,4.244a1.412,1.412,0,0,1-.446,2.751Z" fill="#121212"/><path d="M222.688,122.728a1.412,1.412,0,0,1-.446-2.751l12.724-4.244a4.924,4.924,0,0,0,3.207-5.891q-.014-.053-.023-.107L234.3,87.665a17.577,17.577,0,0,0-10.991-12.118l-10.973-4.008a1.411,1.411,0,1,1,.969-2.652L224.275,72.9a20.4,20.4,0,0,1,12.771,14.124q.013.053.023.107l3.852,22.072a7.747,7.747,0,0,1-5.062,9.213l-12.725,4.244A1.411,1.411,0,0,1,222.688,122.728Z" fill="#121212"/><path d="M239.54,109.492l-3.862-22.124a19,19,0,0,0-11.887-13.147l-7.224-2.639-3.893,38.225Z" fill="#ea5457"/><path d="M212.674,111.218a1.412,1.412,0,0,1-1.4-1.555l3.893-38.225a1.411,1.411,0,0,1,1.889-1.183l7.224,2.639a20.4,20.4,0,0,1,12.77,14.124q.013.053.023.106l3.862,22.124a1.411,1.411,0,0,1-1.374,1.654l-26.866.315Zm5.113-37.688-3.549,34.847,23.626-.277L234.3,87.665a17.577,17.577,0,0,0-10.991-12.119Z" fill="#121212"/><path d="M171.973,109.492l3.862-22.124a19,19,0,0,1,11.887-13.147l7.224-2.639,3.893,38.225Z" fill="#ea5457"/><path d="M198.839,111.218h-.017l-26.866-.315a1.411,1.411,0,0,1-1.374-1.654l3.862-22.124q.009-.054.023-.106A20.4,20.4,0,0,1,187.238,72.9l7.224-2.639a1.411,1.411,0,0,1,1.889,1.183l3.893,38.225a1.412,1.412,0,0,1-1.4,1.555Zm-25.19-3.118,23.626.277-3.549-34.847-5.519,2.016a17.577,17.577,0,0,0-10.99,12.119Z" fill="#121212"/><path d="M1.327-.723a2.05,2.05,0,1,1-2.05,2.05A2.052,2.052,0,0,1,1.327-.723Zm0,2.655a.605.605,0,1,0-.605-.605A.606.606,0,0,0,1.327,1.932Z" transform="translate(204.449 80.023)" fill="#121212"/></g><g clip-path="url(#a)"><path d="M236.954,95.022h-65.38a1.9,1.9,0,0,1-1.9-1.9V24.938a4.464,4.464,0,0,1,4.453-4.46H234.4a4.467,4.467,0,0,1,4.456,4.46V93.122A1.9,1.9,0,0,1,236.954,95.022Zm-63.48-3.8h61.58V24.938a.661.661,0,0,0-.659-.66H174.13a.659.659,0,0,0-.656.659Z" fill="#121212"/><path d="M221.027,87.54h2.231v1.529h-4.225V81.882h2Z" fill="#fff"/><path d="M229.407,85.466a2.188,2.188,0,0,1-.907.856,3.135,3.135,0,0,1-1.483.321h-.988V89.07h-2V81.882h2.985a3.238,3.238,0,0,1,1.472.306,2.1,2.1,0,0,1,.911.846,2.47,2.47,0,0,1,.306,1.244,2.385,2.385,0,0,1-.3,1.188m-1.737-1.188q0-.786-.846-.785h-.794v1.56h.794q.846,0,.846-.775" fill="#fff"/></g></svg>