<svg xmlns="http://www.w3.org/2000/svg" xmlns:xlink="http://www.w3.org/1999/xlink" width="338" height="262" viewBox="0 0 338 262"><defs><clipPath id="a"><rect width="338" height="262" transform="translate(69 982)" fill="#c33636" opacity="0.627"/></clipPath><clipPath id="b"><rect width="338" height="213" fill="none"/></clipPath><clipPath id="c"><path d="M70.4,0V61.857c0,7.69,18.327,13.924,40.934,13.924s40.934-6.234,40.934-13.924V0Z" transform="translate(-70.397)" fill="none"/></clipPath></defs><g transform="translate(-69 -982)" clip-path="url(#a)"><g transform="translate(69 1007)"><g clip-path="url(#b)"><path d="M140.813,115.086c5.962-2.513,7.767-6.413,10.658-11.245,1.078-1.8,5.722-8.378,11.838-4.3,4.8,3.2,2.573,9.9,1.591,11.77-2.238,4.25-10.51,11.275-24.087,8.231Z" transform="translate(-0.211 -0.058)" fill="#fff"/><path d="M147.262,121.862a31.067,31.067,0,0,1-6.793-.78,1.575,1.575,0,1,1,.689-3.074,26.482,26.482,0,0,0,8.661.567,20.757,20.757,0,0,0,6.618-1.835,15.587,15.587,0,0,0,7.069-6.16,12.148,12.148,0,0,0,1.193-4.7,6.817,6.817,0,0,0-.437-2.81,4.741,4.741,0,0,0-1.827-2.212,5.1,5.1,0,0,0-4.079-.935,7.408,7.408,0,0,0-3.5,2.133,14,14,0,0,0-2.032,2.6c-.279.466-.551.929-.814,1.378-2.534,4.314-4.722,8.04-10.583,10.51a1.575,1.575,0,1,1-1.223-2.9c4.9-2.064,6.657-5.058,9.091-9.2.266-.454.542-.923.827-1.4.729-1.217,3.426-5.259,7.545-6.186a8.191,8.191,0,0,1,6.519,1.388,8.447,8.447,0,0,1,3.663,7.75,13.508,13.508,0,0,1-4.674,9.991,21.175,21.175,0,0,1-5.393,3.614,23.9,23.9,0,0,1-7.62,2.117A26.706,26.706,0,0,1,147.262,121.862Z" transform="translate(-0.211 -0.058)" fill="#121212"/><path d="M81.811,115.086c-5.962-2.513-7.767-6.413-10.658-11.245-1.078-1.8-5.722-8.378-11.838-4.3-4.8,3.2-2.573,9.9-1.591,11.77,2.238,4.25,10.51,11.274,24.087,8.231Z" transform="translate(-0.085 -0.058)" fill="#fff"/><path d="M75.363,121.862a26.705,26.705,0,0,1-2.9-.156,23.9,23.9,0,0,1-7.62-2.117,21.176,21.176,0,0,1-5.393-3.614,13.507,13.507,0,0,1-4.674-9.991,8.447,8.447,0,0,1,3.663-7.75,8.191,8.191,0,0,1,6.519-1.388c4.119.927,6.816,4.969,7.545,6.186.286.478.561.947.828,1.4,2.434,4.144,4.193,7.139,9.091,9.2a1.575,1.575,0,1,1-1.223,2.9c-5.861-2.47-8.05-6.2-10.583-10.51-.263-.448-.535-.912-.814-1.378a14,14,0,0,0-2.032-2.6,7.408,7.408,0,0,0-3.5-2.133,5.1,5.1,0,0,0-4.079.935,4.741,4.741,0,0,0-1.827,2.212,6.817,6.817,0,0,0-.437,2.81,12.148,12.148,0,0,0,1.193,4.7,15.586,15.586,0,0,0,7.069,6.159,20.76,20.76,0,0,0,6.618,1.835,26.486,26.486,0,0,0,8.661-.566,1.575,1.575,0,1,1,.689,3.074A31.073,31.073,0,0,1,75.363,121.862Z" transform="translate(-0.085 -0.058)" fill="#121212"/><path d="M95.832,146.6c0,4.616-.826,8.052-1.442,9.284-1.079,2.157-3.5,3.194-5.552,4.466a10.055,10.055,0,0,0-4.583,5.28,4.2,4.2,0,0,0,2.286,5.259c5.573,3,21.01,1.557,22.393-3.931.9-3.564-.834-5.236-.677-12.295V146.6Z" transform="translate(-0.126 -0.086)" fill="#fff"/><path d="M94.791,174a20.111,20.111,0,0,1-9-1.721,5.763,5.763,0,0,1-3.046-7.106,11.373,11.373,0,0,1,5.258-6.158c.416-.259.844-.506,1.257-.745,1.572-.91,3.057-1.769,3.717-3.088a23.515,23.515,0,0,0,1.275-8.579,1.575,1.575,0,0,1,3.15,0c0,4.679-.808,8.388-1.608,9.988-1.082,2.163-3.141,3.354-4.956,4.4-.411.238-.8.462-1.172.694a8.731,8.731,0,0,0-3.908,4.4,2.646,2.646,0,0,0,1.524,3.412c1.67.9,4.671,1.4,8.028,1.341a24.848,24.848,0,0,0,9.138-1.718c1.678-.74,2.727-1.646,2.955-2.551a9.291,9.291,0,0,0-.107-4.31,35.615,35.615,0,0,1-.618-7.617V146.6a1.575,1.575,0,0,1,3.15,0v8.063q0,.017,0,.035a32.852,32.852,0,0,0,.572,7.029,12.286,12.286,0,0,1,.057,5.616,5.7,5.7,0,0,1-1.778,2.818,10.969,10.969,0,0,1-2.96,1.845,28.061,28.061,0,0,1-10.355,1.985Q95.078,174,94.791,174Z" transform="translate(-0.126 -0.086)" fill="#121212"/><path d="M92.913,162.083a.874.874,0,0,1-.722-.38,4.169,4.169,0,0,0-.913-.961.875.875,0,1,1,1.061-1.392,5.916,5.916,0,0,1,1.3,1.364.875.875,0,0,1-.721,1.37Z" transform="translate(-0.138 -0.094)" fill="#121212"/><path d="M90.8,163.687a.874.874,0,0,1-.722-.38,4.169,4.169,0,0,0-.913-.961.875.875,0,1,1,1.061-1.392,5.916,5.916,0,0,1,1.3,1.364.875.875,0,0,1-.721,1.37Z" transform="translate(-0.135 -0.095)" fill="#121212"/><path d="M94.556,169.646a30.354,30.354,0,0,1-4.579-.333,19.927,19.927,0,0,1-6.328-1.986.875.875,0,1,1,.82-1.546,18.194,18.194,0,0,0,5.772,1.8,30.538,30.538,0,0,0,6.625.234,34.351,34.351,0,0,0,11.948-2.919.875.875,0,0,1,.76,1.576,35.656,35.656,0,0,1-12.591,3.088Q95.748,169.646,94.556,169.646Z" transform="translate(-0.126 -0.097)" fill="#121212"/><path d="M102.459,160.09c-.593,0-1.187-.018-1.775-.055a18.615,18.615,0,0,1-7.668-1.975.875.875,0,0,1,.858-1.525c3.769,2.119,10.052,2.191,14.31,1.168a.875.875,0,1,1,.409,1.7A26.735,26.735,0,0,1,102.459,160.09Z" transform="translate(-0.14 -0.092)" fill="#121212"/><path d="M126.792,146.6c0,4.616.826,8.052,1.442,9.284,1.079,2.157,3.5,3.194,5.552,4.466a10.055,10.055,0,0,1,4.583,5.28,4.2,4.2,0,0,1-2.286,5.259c-5.573,3-21.01,1.557-22.393-3.931-.9-3.564.834-5.236.677-12.295V146.6Z" transform="translate(-0.17 -0.086)" fill="#fff"/><path d="M127.833,174q-.287,0-.578-.005a28.061,28.061,0,0,1-10.355-1.985,10.969,10.969,0,0,1-2.96-1.845,5.7,5.7,0,0,1-1.778-2.818,12.286,12.286,0,0,1,.057-5.616,32.853,32.853,0,0,0,.572-7.029q0-.017,0-.035V146.6a1.575,1.575,0,0,1,3.15,0v8.046a35.612,35.612,0,0,1-.618,7.618,9.291,9.291,0,0,0-.107,4.31c.228.905,1.278,1.811,2.955,2.551a24.848,24.848,0,0,0,9.138,1.718c3.357.058,6.358-.443,8.027-1.341a2.646,2.646,0,0,0,1.525-3.412,8.731,8.731,0,0,0-3.908-4.4c-.374-.232-.762-.457-1.172-.695-1.816-1.051-3.874-2.242-4.956-4.4-.8-1.6-1.608-5.309-1.608-9.988a1.575,1.575,0,0,1,3.15,0,23.515,23.515,0,0,0,1.275,8.579c.66,1.319,2.145,2.178,3.717,3.088.414.239.841.487,1.257.745a11.373,11.373,0,0,1,5.258,6.158,5.763,5.763,0,0,1-3.047,7.106A20.113,20.113,0,0,1,127.833,174Z" transform="translate(-0.17 -0.086)" fill="#121212"/><path d="M129.747,162.083a.875.875,0,0,1-.721-1.37,5.916,5.916,0,0,1,1.3-1.364.875.875,0,1,1,1.06,1.392,4.17,4.17,0,0,0-.913.961A.874.874,0,0,1,129.747,162.083Z" transform="translate(-0.195 -0.094)" fill="#121212"/><path d="M131.858,163.687a.875.875,0,0,1-.721-1.37,5.915,5.915,0,0,1,1.3-1.364.875.875,0,1,1,1.06,1.392,4.169,4.169,0,0,0-.913.961A.874.874,0,0,1,131.858,163.687Z" transform="translate(-0.198 -0.095)" fill="#121212"/><path d="M128.068,169.646q-1.192,0-2.428-.083a35.656,35.656,0,0,1-12.591-3.088.875.875,0,1,1,.76-1.576,34.35,34.35,0,0,0,11.948,2.919,30.542,30.542,0,0,0,6.625-.234,18.194,18.194,0,0,0,5.772-1.8.875.875,0,1,1,.82,1.546,19.927,19.927,0,0,1-6.328,1.986A30.356,30.356,0,0,1,128.068,169.646Z" transform="translate(-0.17 -0.097)" fill="#121212"/><path d="M120.181,160.09a26.74,26.74,0,0,1-6.134-.686.875.875,0,1,1,.409-1.7c4.259,1.023,10.542.95,14.31-1.168a.875.875,0,1,1,.858,1.525,18.613,18.613,0,0,1-7.667,1.975C121.368,160.072,120.774,160.09,120.181,160.09Z" transform="translate(-0.171 -0.092)" fill="#121212"/><path d="M152.142,61.857l-12.262,78.064c-1.146,5.808-12.81,11-28.611,11s-27.465-5.193-28.61-11L70.4,61.857Z" transform="translate(-0.106 -0.036)" fill="#fff"/><path d="M152.142,61.849c0,7.685-18.3,13.916-40.873,13.916S70.4,69.534,70.4,61.849,88.7,47.933,111.27,47.933s40.873,6.23,40.873,13.916" transform="translate(-0.106 -0.028)" fill="#fff"/><path d="M111.27,152.5c-7.637,0-14.878-1.22-20.389-3.436-5.62-2.26-9.089-5.4-9.767-8.835q-.006-.03-.011-.06L68.842,62.1a1.575,1.575,0,0,1,3.112-.489L84.21,139.644a6.285,6.285,0,0,0,2.213,3.257,20.254,20.254,0,0,0,5.633,3.237c5.146,2.069,11.97,3.209,19.213,3.209s14.067-1.14,19.214-3.209a20.258,20.258,0,0,0,5.633-3.237,6.287,6.287,0,0,0,2.214-3.257l12.256-78.031a1.575,1.575,0,0,1,3.112.489l-12.262,78.064q0,.03-.011.061c-.678,3.437-4.147,6.575-9.768,8.834C126.147,151.276,118.907,152.5,111.27,152.5Z" transform="translate(-0.106 -0.036)" fill="#121212"/><path d="M111.27,46.358c11.086,0,21.53,1.477,29.409,4.16a30.538,30.538,0,0,1,9.239,4.687,11.74,11.74,0,0,1,2.744,3.028,6.721,6.721,0,0,1,0,7.232,11.74,11.74,0,0,1-2.744,3.028,30.538,30.538,0,0,1-9.239,4.687c-7.879,2.683-18.323,4.16-29.409,4.16s-21.53-1.477-29.408-4.16a30.535,30.535,0,0,1-9.239-4.687,11.741,11.741,0,0,1-2.744-3.028,6.722,6.722,0,0,1,0-7.232,11.741,11.741,0,0,1,2.744-3.028,30.535,30.535,0,0,1,9.239-4.687C89.74,47.835,100.184,46.358,111.27,46.358Zm0,27.832a110.53,110.53,0,0,0,15.685-1.077A71.353,71.353,0,0,0,139.663,70.2a27.9,27.9,0,0,0,8.279-4.159c1.742-1.4,2.625-2.812,2.625-4.19s-.883-2.788-2.625-4.19a27.9,27.9,0,0,0-8.279-4.159,71.355,71.355,0,0,0-12.709-2.914,114.7,114.7,0,0,0-31.37,0A71.35,71.35,0,0,0,82.877,53.5,27.9,27.9,0,0,0,74.6,57.659c-1.741,1.4-2.624,2.812-2.624,4.19s.883,2.788,2.624,4.19A27.9,27.9,0,0,0,82.877,70.2a71.349,71.349,0,0,0,12.708,2.914A110.527,110.527,0,0,0,111.27,74.19Z" transform="translate(-0.106 -0.028)" fill="#121212"/><path d="M111.271,81.255a100.54,100.54,0,0,1-25.478-3,45.685,45.685,0,0,1-9.108-3.38,16.594,16.594,0,0,1-5.71-4.42.875.875,0,0,1,1.4-1.052c2.092,2.782,7.019,5.326,13.872,7.162a83.209,83.209,0,0,0,11.536,2.161,113.674,113.674,0,0,0,13.489.782,113.681,113.681,0,0,0,13.49-.782A83.211,83.211,0,0,0,136.3,76.562c6.853-1.836,11.78-4.379,13.872-7.162a.875.875,0,1,1,1.4,1.052,16.594,16.594,0,0,1-5.71,4.42,45.685,45.685,0,0,1-9.108,3.38A100.545,100.545,0,0,1,111.271,81.255Z" transform="translate(-0.108 -0.041)" fill="#121212"/><path d="M105.131,111a2.123,2.123,0,1,1-2.123-2.125A2.124,2.124,0,0,1,105.131,111" transform="translate(-0.151 -0.064)" fill="#231815"/><path d="M105.029,105.608a1.568,1.568,0,0,1-.787-.212,2.965,2.965,0,0,0-2.47,0,1.575,1.575,0,0,1-1.576-2.727,6.055,6.055,0,0,1,5.622,0,1.575,1.575,0,0,1-.79,2.939Z" transform="translate(-0.152 -0.061)" fill="#121212"/><path d="M111.324,125.122a10.416,10.416,0,0,1-5.2-1.258,1.575,1.575,0,0,1,1.575-2.728,8.271,8.271,0,0,0,7.249,0,1.575,1.575,0,0,1,1.575,2.728A10.414,10.414,0,0,1,111.324,125.122Z" transform="translate(-0.16 -0.072)" fill="#121212"/><path d="M121.771,111a2.123,2.123,0,1,1-2.123-2.125A2.124,2.124,0,0,1,121.771,111" transform="translate(-0.176 -0.064)" fill="#231815"/><path d="M121.669,105.608a1.568,1.568,0,0,1-.787-.212,2.965,2.965,0,0,0-2.47,0,1.575,1.575,0,0,1-1.576-2.727,6.055,6.055,0,0,1,5.622,0,1.575,1.575,0,0,1-.79,2.939Z" transform="translate(-0.177 -0.061)" fill="#121212"/><path d="M2.023,1.575H0A1.575,1.575,0,0,1-1.575,0,1.575,1.575,0,0,1,0-1.575H2.023A1.575,1.575,0,0,1,3.6,0,1.575,1.575,0,0,1,2.023,1.575Z" transform="translate(110.152 117.543)" fill="#121212"/><path d="M199.475,35.346A18.9,18.9,0,0,1,201.3,42.33c1.378,18.456-15.346,28.812-33.729,22.6a74.154,74.154,0,0,0-8.008-2.473,10.5,10.5,0,0,0-8.081,1.378L132.965,50c3.365-10.946,17.957-23.391,34.944-25.521a48.79,48.79,0,0,1,17.231.627,24.87,24.87,0,0,0,5.9.491c2.13-.07,4.758-.8,6.48.457,2.978,2.171.094,5.019,1.956,9.295" transform="translate(-0.2 -0.014)" fill="#f0f0f0"/><path d="M175.181,22.434a44.247,44.247,0,0,1,10.291,1.13,23.367,23.367,0,0,0,4.629.472c.284,0,.582-.005.886-.015.464-.015.974-.067,1.514-.123a22.054,22.054,0,0,1,2.25-.152,5.839,5.839,0,0,1,3.7,1.033,4.719,4.719,0,0,1,1.952,2.87,9.28,9.28,0,0,1,.053,2.8,8.162,8.162,0,0,0,.454,4.239,20.561,20.561,0,0,1,1.962,7.526,26.36,26.36,0,0,1-1.184,10.339,22.113,22.113,0,0,1-4.787,8.12,23.033,23.033,0,0,1-8.279,5.663,27.644,27.644,0,0,1-10.478,1.977,34.585,34.585,0,0,1-11.076-1.892c-.494-.167-.993-.339-1.476-.506a55.6,55.6,0,0,0-6.36-1.919,10.1,10.1,0,0,0-2.131-.228,8.356,8.356,0,0,0-4.721,1.362,1.575,1.575,0,0,1-1.839-.034L132.022,51.26a1.575,1.575,0,0,1-.563-1.725c1.778-5.785,6.484-11.928,12.911-16.854a50.466,50.466,0,0,1,10.763-6.3,46.556,46.556,0,0,1,12.579-3.463A60.364,60.364,0,0,1,175.181,22.434Zm14.92,4.752a26.716,26.716,0,0,1-5.256-.535l-.074-.016a41.065,41.065,0,0,0-9.59-1.051,57.2,57.2,0,0,0-7.076.457,43.408,43.408,0,0,0-11.727,3.231,47.314,47.314,0,0,0-10.091,5.911c-5.525,4.234-9.645,9.368-11.462,14.24l16.746,12.513a11.678,11.678,0,0,1,5.526-1.319,13.257,13.257,0,0,1,2.8.3,58.815,58.815,0,0,1,6.722,2.02c.478.165.973.336,1.458.5a31.445,31.445,0,0,0,10.067,1.726c6.637,0,12.479-2.355,16.448-6.632a18.985,18.985,0,0,0,4.107-6.972,23.233,23.233,0,0,0,1.032-9.109,17.417,17.417,0,0,0-1.666-6.407q-.016-.032-.03-.065a11.026,11.026,0,0,1-.718-5.789c.142-1.71.145-2.231-.722-2.862a3.077,3.077,0,0,0-1.84-.428c-.6,0-1.278.069-1.93.136-.57.058-1.159.119-1.731.137C190.753,27.18,190.42,27.186,190.1,27.186Z" transform="translate(-0.2 -0.014)" fill="#121212"/></g><g transform="translate(70.258)"><g clip-path="url(#c)"><path d="M127.326,116.092c7.695-11.493,12.151-26.506,12.367-41.678.149-10.457-1.638-20.781-2.457-31.187s-.582-21.411,3.284-30.611H84.137c-3.865,9.2-4.1,20.206-3.284,30.611s2.607,20.73,2.458,31.187c-.217,15.172-4.672,30.185-12.368,41.678Z" transform="translate(-70.397)" fill="#fff"/><path d="M75.016,109.092a65.706,65.706,0,0,1-4.073,7h56.383a66.049,66.049,0,0,0,4.073-7Z" transform="translate(-70.397)" fill="#c8c8c8"/><path d="M140.519,12.616H84.136c-2.9,6.9-3.758,14.828-3.659,22.75h56.382c-.1-7.922.76-15.845,3.66-22.75" transform="translate(-70.397)" fill="#c8c8c8"/><path d="M127.326,117.667H70.943a1.575,1.575,0,0,1-1.309-2.451,69.8,69.8,0,0,0,8.787-19.031,80.651,80.651,0,0,0,3.314-21.793A167.979,167.979,0,0,0,80.322,53.78c-.375-3.411-.764-6.938-1.039-10.429a98.341,98.341,0,0,1-.114-16.014,50.019,50.019,0,0,1,3.516-15.331,1.575,1.575,0,0,1,1.452-.965H140.52a1.575,1.575,0,0,1,1.452,2.185A46.927,46.927,0,0,0,138.69,27.6a95.2,95.2,0,0,0,.116,15.5c.271,3.449.658,6.957,1.031,10.35a170.27,170.27,0,0,1,1.431,20.983,83.781,83.781,0,0,1-3.444,22.644,72.959,72.959,0,0,1-9.189,19.888A1.575,1.575,0,0,1,127.326,117.667Zm-53.511-3.15h52.663A70.2,70.2,0,0,0,134.8,96.185a80.631,80.631,0,0,0,3.314-21.793A167.894,167.894,0,0,0,136.706,53.8c-.376-3.417-.765-6.95-1.04-10.447a98.279,98.279,0,0,1-.115-16.014,52.4,52.4,0,0,1,2.673-13.146H85.2A48.054,48.054,0,0,0,82.308,27.6a95.263,95.263,0,0,0,.116,15.5c.272,3.442.657,6.945,1.03,10.332a170.352,170.352,0,0,1,1.433,21,83.8,83.8,0,0,1-3.444,22.644A74.224,74.224,0,0,1,73.815,114.517Z" transform="translate(-70.397)" fill="#121212"/><path d="M21.292.875H0A.875.875,0,0,1-.875,0,.875.875,0,0,1,0-.875H21.292A.875.875,0,0,1,22.167,0,.875.875,0,0,1,21.292.875Z" transform="translate(27.582 40.033)" fill="#c8c8c8"/><path d="M21.292.875H0A.875.875,0,0,1-.875,0,.875.875,0,0,1,0-.875H21.292A.875.875,0,0,1,22.167,0,.875.875,0,0,1,21.292.875Z" transform="translate(27.582 43.533)" fill="#c8c8c8"/><path d="M20.965.875H0A.875.875,0,0,1-.875,0,.875.875,0,0,1,0-.875H20.965A.875.875,0,0,1,21.84,0,.875.875,0,0,1,20.965.875Z" transform="translate(16.28 88.458)" fill="#c8c8c8"/><path d="M21.05.875H0A.875.875,0,0,1-.875,0,.875.875,0,0,1,0-.875H21.05A.875.875,0,0,1,21.925,0,.875.875,0,0,1,21.05.875Z" transform="translate(15.46 91.958)" fill="#c8c8c8"/><path d="M21.05.875H0A.875.875,0,0,1-.875,0,.875.875,0,0,1,0-.875H21.05A.875.875,0,0,1,21.925,0,.875.875,0,0,1,21.05.875Z" transform="translate(14.562 95.458)" fill="#c8c8c8"/><path d="M21.05.875H0A.875.875,0,0,1-.875,0,.875.875,0,0,1,0-.875H21.05A.875.875,0,0,1,21.925,0,.875.875,0,0,1,21.05.875Z" transform="translate(13.494 98.958)" fill="#c8c8c8"/><path d="M21.1.875H0A.875.875,0,0,1-.875,0,.875.875,0,0,1,0-.875H21.1A.875.875,0,0,1,21.976,0,.875.875,0,0,1,21.1.875Z" transform="translate(43.052 62.628)" fill="#c8c8c8"/><path d="M21.368.875H0A.875.875,0,0,1-.875,0,.875.875,0,0,1,0-.875H21.368A.875.875,0,0,1,22.243,0,.875.875,0,0,1,21.368.875Z" transform="translate(43.052 66.128)" fill="#c8c8c8"/><path d="M20.856.875H0A.875.875,0,0,1-.875,0,.875.875,0,0,1,0-.875H20.856A.875.875,0,0,1,21.731,0,.875.875,0,0,1,20.856.875Z" transform="translate(43.563 69.628)" fill="#c8c8c8"/><path d="M20.856.875H0A.875.875,0,0,1-.875,0,.875.875,0,0,1,0-.875H20.856A.875.875,0,0,1,21.731,0,.875.875,0,0,1,20.856.875Z" transform="translate(43.563 73.128)" fill="#c8c8c8"/><path d="M20.927.875H0A.875.875,0,0,1-.875,0,.875.875,0,0,1,0-.875H20.927A.875.875,0,0,1,21.8,0,.875.875,0,0,1,20.927.875Z" transform="translate(43.492 76.628)" fill="#c8c8c8"/><path d="M113.117,53.158H103.024a2.8,2.8,0,0,1,0-5.6h10.093a2.8,2.8,0,1,1,0,5.6" transform="translate(-70.397)" fill="#c8c8c8"/><path d="M5.436.875H0A.875.875,0,0,1-.875,0,.875.875,0,0,1,0-.875H5.436A.875.875,0,0,1,6.311,0,.875.875,0,0,1,5.436.875Z" transform="translate(34.955 50.358)" fill="#fff"/><path d="M106.017,105.328h23.641a80.1,80.1,0,0,0,5.792-21H111.809a80.143,80.143,0,0,1-5.792,21" transform="translate(-70.397)" fill="#c8c8c8"/><path d="M110.451,74.414a132.905,132.905,0,0,0-.833-15.286H85.978a133.132,133.132,0,0,1,.833,15.286q-.042,2.863-.282,5.714H110.17q.239-2.847.281-5.714" transform="translate(-70.397)" fill="#c8c8c8"/><path d="M4.2.875H0A.875.875,0,0,1-.875,0,.875.875,0,0,1,0-.875H4.2A.875.875,0,0,1,5.075,0,.875.875,0,0,1,4.2.875Z" transform="translate(20.45 16.8)" fill="#fff"/><path d="M4.2.875H0A.875.875,0,0,1-.875,0,.875.875,0,0,1,0-.875H4.2A.875.875,0,0,1,5.075,0,.875.875,0,0,1,4.2.875Z" transform="translate(29.2 16.8)" fill="#fff"/><path d="M4.2.875H0A.875.875,0,0,1-.875,0,.875.875,0,0,1,0-.875H4.2A.875.875,0,0,1,5.075,0,.875.875,0,0,1,4.2.875Z" transform="translate(37.95 16.8)" fill="#fff"/><path d="M4.2.875H0A.875.875,0,0,1-.875,0,.875.875,0,0,1,0-.875H4.2A.875.875,0,0,1,5.075,0,.875.875,0,0,1,4.2.875Z" transform="translate(46.7 16.8)" fill="#fff"/><path d="M4.2.875H0A.875.875,0,0,1-.875,0,.875.875,0,0,1,0-.875H4.2A.875.875,0,0,1,5.075,0,.875.875,0,0,1,4.2.875Z" transform="translate(55.45 16.8)" fill="#fff"/></g></g><g clip-path="url(#b)"><path d="M111.27,77.348c-11.086,0-21.53-1.477-29.409-4.16A30.538,30.538,0,0,1,72.621,68.5a11.741,11.741,0,0,1-2.744-3.028,6.964,6.964,0,0,1-1.055-3.616,1.575,1.575,0,0,1,3.15,0c0,1.378.883,2.788,2.625,4.19a27.9,27.9,0,0,0,8.279,4.159A71.355,71.355,0,0,0,95.585,73.12,110.533,110.533,0,0,0,111.27,74.2a104.053,104.053,0,0,0,21.5-2.115c6.152-1.326,11.077-3.176,14.243-5.349a1.575,1.575,0,1,1,1.783,2.6C141.594,74.276,127.214,77.348,111.27,77.348Z" transform="translate(-0.106 -0.036)" fill="#121212"/><path d="M80.746,53.871a6.462,6.462,0,0,0,4.408-3.525,5.373,5.373,0,0,0,.58-.1,5.469,5.469,0,0,0,.1-10.64,4.453,4.453,0,0,0-6.365-6.143,5.767,5.767,0,0,0-8.7,6.16,5.974,5.974,0,0,0,.208.7,5.67,5.67,0,0,0,2.947,10.94L74,51.248a6.474,6.474,0,0,0,6.749,2.623" transform="translate(-0.101 -0.019)" fill="#fff"/><path d="M79.311,55.608h0a8.046,8.046,0,0,1-5.97-2.658q-.333.031-.666.031a7.247,7.247,0,0,1-3.538-13.566,7.341,7.341,0,0,1,10.239-7.784,5.987,5.987,0,0,1,1.589-.606A6.031,6.031,0,0,1,88.02,38.8a7.044,7.044,0,0,1-1.844,12.96,8,8,0,0,1-5.081,3.646A8.083,8.083,0,0,1,79.311,55.608ZM74,49.673a1.575,1.575,0,0,1,1.294.677,4.9,4.9,0,0,0,4.02,2.108h0a4.9,4.9,0,0,0,4.423-2.791,1.575,1.575,0,0,1,1.242-.885,3.811,3.811,0,0,0,.41-.07,3.894,3.894,0,0,0,.073-7.575,1.575,1.575,0,0,1-.875-2.481A2.877,2.877,0,0,0,81.663,34.1a2.852,2.852,0,0,0-1.19.583,1.575,1.575,0,0,1-1.84.116,4.173,4.173,0,0,0-2.227-.646,4.2,4.2,0,0,0-4.093,5.126,4.377,4.377,0,0,0,.153.514,1.575,1.575,0,0,1-1.012,2.038,4.094,4.094,0,0,0,2.1,7.906l.091-.022A1.575,1.575,0,0,1,74,49.673Z" transform="translate(-0.101 -0.019)" fill="#121212"/><path d="M144.588,55.457V55.4a4.263,4.263,0,0,0-4.349-4.173,4.31,4.31,0,0,0-4.264,3.339,4.53,4.53,0,0,0-.673-.049,4.257,4.257,0,1,0,0,8.506,4.572,4.572,0,0,0,1.718-.332,3.583,3.583,0,0,0,6.244.361,4.281,4.281,0,0,0,.655.051,3.843,3.843,0,0,0,.668-7.65" transform="translate(-0.196 -0.03)" fill="#fff"/><path d="M140.24,49.655a5.894,5.894,0,0,1,5.8,4.578,5.6,5.6,0,0,1,2.11,1.473,5.332,5.332,0,0,1,1.361,3.548,5.515,5.515,0,0,1-5.521,5.426,5.185,5.185,0,0,1-7.653-.165,6.223,6.223,0,0,1-1.034.086,5.825,5.825,0,0,1-.428-11.641,5.8,5.8,0,0,1,1.615-2.009A6.054,6.054,0,0,1,140.24,49.655Zm2.774,5.735A2.7,2.7,0,0,0,140.24,52.8a2.74,2.74,0,0,0-2.723,2.089,1.575,1.575,0,0,1-1.775,1.232,2.97,2.97,0,0,0-.439-.032,2.684,2.684,0,1,0,0,5.356,2.989,2.989,0,0,0,1.127-.217,1.575,1.575,0,0,1,2.024.805,1.945,1.945,0,0,0,1.786,1.1,1.979,1.979,0,0,0,1.685-.908,1.575,1.575,0,0,1,1.582-.729,2.708,2.708,0,0,0,.414.032,2.366,2.366,0,0,0,2.441-2.277,2.32,2.32,0,0,0-2.022-2.243,1.575,1.575,0,0,1-1.325-1.585Z" transform="translate(-0.196 -0.03)" fill="#121212"/><path d="M79.311,83.4c.762.356,1.161.53,1.992.864.062.676.094,1.013.157,1.689a29.459,29.459,0,0,1-3.553-1.682c-.425-3.174-.637-4.76-1.062-7.933.675.336,1.026.5,1.756.819.284,2.5.425,3.746.71,6.243" transform="translate(-0.115 -0.045)" fill="#ea5457"/><path d="M87.541,84.042a1.553,1.553,0,0,1-.973.678,2.924,2.924,0,0,1-1.587-.118c-.419-.131-.626-.2-1.033-.332l.19,2.686c-.807-.276-1.2-.419-1.951-.713-.275-3.177-.412-4.766-.687-7.942,1.205.432,1.837.637,3.149,1.021a5.268,5.268,0,0,1,1.666.8,3.792,3.792,0,0,1,1.092,1.212,3.313,3.313,0,0,1,.417,1.473,2.116,2.116,0,0,1-.285,1.233m-2.014-1.853a1.213,1.213,0,0,0-.975-1.143c-.343-.1-.513-.157-.85-.265.049.692.073,1.036.122,1.727.332.109.5.162.839.267.6.186.9-.012.864-.586" transform="translate(-0.122 -0.046)" fill="#ea5457"/><path d="M91.286,87.215c1.081.229,1.636.336,2.769.534.013.688.019,1.031.032,1.718-2.135-.381-3.158-.6-5.1-1.087-.129-3.205-.193-4.807-.321-8.012.954.219,1.441.323,2.434.519.074,2.532.111,3.8.184,6.329" transform="translate(-0.133 -0.047)" fill="#ea5457"/><path d="M102.3,86.453a2.509,2.509,0,0,1-1.268.857A4.7,4.7,0,0,1,99,87.458c-.537-.063-.8-.1-1.333-.165l.025,2.737c-1.062-.144-1.585-.223-2.608-.393-.051-3.233-.076-4.85-.127-8.083,1.567.238,2.37.343,4.009.523a6.04,6.04,0,0,1,2.043.551,3.227,3.227,0,0,1,1.285,1.068,2.539,2.539,0,0,1,.434,1.444,2.141,2.141,0,0,1-.423,1.313m-2.426-1.571c0-.592-.4-.926-1.165-1.014-.433-.05-.649-.076-1.078-.13.007.7.01,1.055.016,1.76.427.055.642.081,1.074.132.767.09,1.156-.163,1.153-.748" transform="translate(-0.143 -0.048)" fill="#ea5457"/><path d="M106.775,89.086c1.307.054,1.969.072,3.309.087,0,.7,0,1.044,0,1.741-2.541-.028-3.784-.081-6.2-.251V82.5c1.146.073,1.726.1,2.9.147,0,2.574,0,3.863-.008,6.437" transform="translate(-0.156 -0.048)" fill="#ea5457"/><path d="M119.164,86.543a3.149,3.149,0,0,1-1.3,1.057,5.493,5.493,0,0,1-2.155.472c-.58.023-.872.033-1.458.048,0,1.1,0,1.657,0,2.762-1.185.032-1.785.04-3,.039V82.735c1.8,0,2.69-.015,4.442-.08a6.013,6.013,0,0,1,2.144.249,2.64,2.64,0,0,1,1.311.879,2.234,2.234,0,0,1,.434,1.381,2.423,2.423,0,0,1-.428,1.378m-2.5-1.2c0-.595-.41-.871-1.239-.843-.466.017-.7.024-1.172.036,0,.71,0,1.065,0,1.775.471-.012.706-.019,1.173-.036.828-.03,1.237-.345,1.236-.932" transform="translate(-0.167 -0.048)" fill="#ea5457"/><path d="M123.495,88.49c1.213-.142,1.809-.221,2.978-.4-.009.69-.013,1.033-.022,1.723-2.2.337-3.351.477-5.715.69l.015-8.148c1.128-.092,1.684-.145,2.784-.264-.016,2.558-.024,3.838-.039,6.4" transform="translate(-0.181 -0.048)" fill="#ea5457"/><path d="M134.151,84.283a3.653,3.653,0,0,1-1.1,1.207,4.649,4.649,0,0,1-1.792.75c-.482.1-.726.148-1.218.242l-.065,2.72c-.985.194-1.488.285-2.513.454.05-3.234.074-4.851.124-8.084,1.57-.235,2.335-.369,3.823-.659a4.2,4.2,0,0,1,1.8-.033,1.674,1.674,0,0,1,1.051.7,2.156,2.156,0,0,1,.3,1.3,3.188,3.188,0,0,1-.405,1.408m-2.019-.855c.019-.585-.314-.8-1.013-.666-.4.077-.594.116-.994.189-.017.7-.025,1.049-.042,1.748.4-.074.6-.113.989-.192.695-.139,1.043-.5,1.061-1.079" transform="translate(-0.191 -0.047)" fill="#ea5457"/><path d="M137.491,85.633c.944-.294,1.4-.448,2.28-.767-.053.677-.08,1.015-.134,1.692-1.645.606-2.528.889-4.4,1.408.155-3.2.232-4.8.386-7.994.925-.234,1.377-.357,2.257-.614l-.389,6.274" transform="translate(-0.203 -0.047)" fill="#ea5457"/><path d="M145.5,80.176a5.064,5.064,0,0,1-.855,1.324,3.866,3.866,0,0,1-1.291.955c-.342.157-.517.235-.874.388-.111,1.071-.166,1.607-.277,2.678-.7.311-1.064.462-1.82.755.273-3.177.408-4.766.681-7.943,1.21-.43,1.787-.657,2.883-1.131a2.333,2.333,0,0,1,1.27-.259.8.8,0,0,1,.645.552,2.649,2.649,0,0,1,.057,1.243,5.348,5.348,0,0,1-.419,1.438m-1.277-.592c.069-.578-.141-.751-.651-.528-.289.125-.434.187-.731.31-.072.689-.107,1.033-.179,1.722.292-.123.435-.185.719-.311a1.387,1.387,0,0,0,.842-1.193" transform="translate(-0.211 -0.045)" fill="#ea5457"/><path d="M85.545,138.094a6.876,6.876,0,0,0,.873.914c.063.676.095,1.013.158,1.689a5.25,5.25,0,0,1-1.346-1.716c-.424-3.174-.637-4.76-1.061-7.933a5.813,5.813,0,0,0,.666.8c.285,2.5.426,3.746.711,6.243" transform="translate(-0.126 -0.077)" fill="#ea5457"/><path d="M90.118,139.193a.991.991,0,0,1-.65.6,1.324,1.324,0,0,1-1.021-.235c-.263-.159-.388-.24-.63-.4.076,1.075.113,1.612.189,2.687a11.038,11.038,0,0,1-1.071-.825c-.275-3.177-.412-4.766-.688-7.943a14.855,14.855,0,0,0,1.868,1.2,4.066,4.066,0,0,1,1.1.916,4.459,4.459,0,0,1,.769,1.291,4.714,4.714,0,0,1,.313,1.5,2.7,2.7,0,0,1-.182,1.207m-1.381-2a1.4,1.4,0,0,0-.643-1.207c-.216-.127-.321-.191-.523-.319.049.691.073,1.036.122,1.727.2.129.3.193.512.321.375.227.565.052.532-.522" transform="translate(-0.129 -0.078)" fill="#ea5457"/><path d="M92.9,142.66c.835.317,1.277.469,2.207.756.013.688.02,1.03.033,1.718a27.476,27.476,0,0,1-3.941-1.5l-.32-8.012c.7.294,1.065.437,1.837.712.074,2.532.111,3.8.184,6.329" transform="translate(-0.136 -0.08)" fill="#ea5457"/><path d="M102.386,142.665a2.185,2.185,0,0,1-1.18.79,3.8,3.8,0,0,1-1.853.025c-.482-.1-.719-.149-1.183-.254l.025,2.737c-.932-.217-1.379-.335-2.236-.583-.051-3.233-.077-4.85-.127-8.083,1.317.354,2.015.517,3.487.8a5.715,5.715,0,0,1,1.859.673,3.414,3.414,0,0,1,1.2,1.136,2.764,2.764,0,0,1,.409,1.466,2.151,2.151,0,0,1-.4,1.292m-2.243-1.706c0-.592-.363-.949-1.05-1.087-.387-.078-.578-.118-.956-.2.007.7.01,1.055.016,1.76.375.084.565.125.952.2.684.14,1.041-.09,1.038-.675" transform="translate(-0.144 -0.081)" fill="#ea5457"/><path d="M106.7,145.474c1.3.09,1.964.121,3.339.147,0,.7,0,1.044,0,1.741a51.872,51.872,0,0,1-6.154-.414v-8.161c1.1.122,1.663.173,2.824.25,0,2.575,0,3.863-.008,6.437" transform="translate(-0.156 -0.081)" fill="#ea5457"/><path d="M119.145,142.812a3.193,3.193,0,0,1-1.249,1.111,5.209,5.209,0,0,1-2.113.542c-.576.039-.868.055-1.459.081,0,1.1,0,1.657,0,2.762-1.2.054-1.812.068-3.069.066,0-3.274,0-4.911,0-8.186,1.868,0,2.777-.028,4.517-.14a5.862,5.862,0,0,1,2.1.179,2.377,2.377,0,0,1,1.26.826,2.222,2.222,0,0,1,.413,1.36,2.606,2.606,0,0,1-.407,1.4m-2.424-1.106c0-.595-.4-.856-1.225-.807-.465.028-.7.04-1.176.061,0,.71,0,1.065,0,1.775.475-.02.711-.033,1.176-.061.825-.051,1.224-.381,1.223-.968" transform="translate(-0.167 -0.082)" fill="#ea5457"/><path d="M123.157,144.521c1.089-.219,1.613-.34,2.611-.6-.008.689-.013,1.033-.021,1.722a40.792,40.792,0,0,1-5.119,1.055c.006-3.26.009-4.889.015-8.149,1.054-.15,1.565-.236,2.553-.424-.016,2.558-.024,3.838-.039,6.4" transform="translate(-0.181 -0.081)" fill="#ea5457"/><path d="M131.856,139.51a3.994,3.994,0,0,1-.813,1.293,3.5,3.5,0,0,1-1.361.893c-.374.139-.566.207-.959.341-.026,1.087-.039,1.631-.064,2.719-.784.273-1.2.4-2.056.652l.125-8.084c1.322-.353,1.944-.546,3.1-.955a2.536,2.536,0,0,1,1.368-.175,1.064,1.064,0,0,1,.763.609,2.676,2.676,0,0,1,.2,1.27,4.493,4.493,0,0,1-.307,1.437m-1.484-.689c.019-.585-.23-.776-.778-.583-.309.109-.466.163-.787.267-.017.7-.025,1.049-.042,1.749.319-.106.475-.16.781-.27a1.166,1.166,0,0,0,.826-1.163" transform="translate(-0.19 -0.08)" fill="#ea5457"/><path d="M134.073,140.6a13.383,13.383,0,0,0,1.345-.911c-.054.677-.08,1.014-.134,1.691a14.813,14.813,0,0,1-2.72,1.716c.155-3.2.233-4.8.387-7.993.644-.3.947-.461,1.511-.777l-.389,6.274" transform="translate(-0.199 -0.079)" fill="#ea5457"/><path d="M138.024,134.893a11.051,11.051,0,0,1-.344,1.3,2.95,2.95,0,0,1-.493.952c-.136.161-.21.241-.367.4-.111,1.071-.166,1.606-.277,2.677a7.718,7.718,0,0,1-.862.825c.273-3.177.409-4.766.682-7.943a9.392,9.392,0,0,0,1.416-1.216c.228-.234.381-.32.478-.257s.136.255.133.572a10.474,10.474,0,0,1-.119,1.252q-.1.721-.247,1.43m-.315-.618c.069-.578.013-.753-.206-.524-.123.13-.188.195-.326.324-.071.689-.107,1.033-.178,1.722.132-.13.195-.195.313-.324a2.188,2.188,0,0,0,.4-1.2" transform="translate(-0.204 -0.077)" fill="#ea5457"/><path d="M212.276,108.235c7.684-11.486,12.133-26.492,12.349-41.655.149-10.451-1.635-20.77-2.454-31.171s-.58-21.4,3.277-30.594h-56.3c-3.859,9.2-4.1,20.194-3.279,30.594s2.6,20.72,2.453,31.171c-.218,15.162-4.664,30.17-12.348,41.655Z" transform="translate(-0.234 -0.003)" fill="#fff"/><path d="M56.3.607H0A.607.607,0,0,1-.607,0,.607.607,0,0,1,0-.607H56.3A.607.607,0,0,1,56.907,0,.607.607,0,0,1,56.3.607Z" transform="translate(159.81 101.236)" fill="#c8c8c8"/><path d="M20.934.607H0A.607.607,0,0,1-.607,0,.607.607,0,0,1,0-.607H20.934A.607.607,0,0,1,21.541,0,.607.607,0,0,1,20.934.607Z" transform="translate(171.454 80.614)" fill="#c8c8c8"/><path d="M21.018.607H0A.607.607,0,0,1-.607,0,.607.607,0,0,1,0-.607H21.018A.607.607,0,0,1,21.625,0,.607.607,0,0,1,21.018.607Z" transform="translate(170.635 84.111)" fill="#c8c8c8"/><path d="M21.018.607H0A.607.607,0,0,1-.607,0,.607.607,0,0,1,0-.607H21.018A.607.607,0,0,1,21.625,0,.607.607,0,0,1,21.018.607Z" transform="translate(169.739 87.609)" fill="#c8c8c8"/><path d="M21.018.607H0A.607.607,0,0,1-.607,0,.607.607,0,0,1,0-.607H21.018A.607.607,0,0,1,21.625,0,.607.607,0,0,1,21.018.607Z" transform="translate(168.672 91.108)" fill="#c8c8c8"/><path d="M21.069.607H0A.607.607,0,0,1-.607,0,.607.607,0,0,1,0-.607H21.069A.607.607,0,0,1,21.676,0,.607.607,0,0,1,21.069.607Z" transform="translate(198.187 54.797)" fill="#c8c8c8"/><path d="M21.336.607H0A.607.607,0,0,1-.607,0,.607.607,0,0,1,0-.607H21.336A.607.607,0,0,1,21.943,0,.607.607,0,0,1,21.336.607Z" transform="translate(198.187 58.295)" fill="#c8c8c8"/><path d="M20.826.607H0A.607.607,0,0,1-.607,0,.607.607,0,0,1,0-.607H20.826A.607.607,0,0,1,21.433,0,.607.607,0,0,1,20.826.607Z" transform="translate(198.697 61.794)" fill="#c8c8c8"/><path d="M20.826.607H0A.607.607,0,0,1-.607,0,.607.607,0,0,1,0-.607H20.826A.607.607,0,0,1,21.433,0,.607.607,0,0,1,20.826.607Z" transform="translate(198.697 65.292)" fill="#c8c8c8"/><path d="M19.687.607H0A.607.607,0,0,1-.607,0,.607.607,0,0,1,0-.607H19.687A.607.607,0,0,1,20.294,0,.607.607,0,0,1,19.687.607Z" transform="translate(168.728 24.047)" fill="#c8c8c8"/><path d="M19.954.607H0A.607.607,0,0,1-.607,0,.607.607,0,0,1,0-.607H19.954A.607.607,0,0,1,20.561,0,.607.607,0,0,1,19.954.607Z" transform="translate(168.728 27.545)" fill="#c8c8c8"/><path d="M19.443.607H0A.607.607,0,0,1-.607,0,.607.607,0,0,1,0-.607H19.443A.607.607,0,0,1,20.05,0,.607.607,0,0,1,19.443.607Z" transform="translate(169.239 31.043)" fill="#c8c8c8"/><path d="M19.443.607H0A.607.607,0,0,1-.607,0,.607.607,0,0,1,0-.607H19.443A.607.607,0,0,1,20.05,0,.607.607,0,0,1,19.443.607Z" transform="translate(169.239 34.541)" fill="#c8c8c8"/><path d="M20.9.607H0A.607.607,0,0,1-.607,0,.607.607,0,0,1,0-.607H20.9A.607.607,0,0,1,21.5,0,.607.607,0,0,1,20.9.607Z" transform="translate(198.626 68.79)" fill="#c8c8c8"/><path d="M4.194.607H0A.607.607,0,0,1-.607,0,.607.607,0,0,1,0-.607H4.194A.607.607,0,0,1,4.8,0,.607.607,0,0,1,4.194.607Z" transform="translate(184.355 8.995)" fill="#c8c8c8"/><path d="M177.034,9h-4.194l-1.128,3.483Z" transform="translate(-0.258 -0.005)" fill="#c8c8c8"/><path d="M4.194.607H0A.607.607,0,0,1-.607,0,.607.607,0,0,1,0-.607H4.194A.607.607,0,0,1,4.8,0,.607.607,0,0,1,4.194.607Z" transform="translate(193.092 8.995)" fill="#c8c8c8"/><path d="M4.194.607H0A.607.607,0,0,1-.607,0,.607.607,0,0,1,0-.607H4.194A.607.607,0,0,1,4.8,0,.607.607,0,0,1,4.194.607Z" transform="translate(201.829 8.995)" fill="#c8c8c8"/><path d="M4.194.607H0A.607.607,0,0,1-.607,0,.607.607,0,0,1,0-.607H4.194A.607.607,0,0,1,4.8,0,.607.607,0,0,1,4.194.607Z" transform="translate(210.566 8.995)" fill="#c8c8c8"/><path d="M180.5,42.215a15.36,15.36,0,0,0-13.241,7.571c.562,5.821,1.036,11.7,1.044,17.182a15.379,15.379,0,1,0,12.2-24.752" transform="translate(-0.251 -0.025)" fill="#c8c8c8"/><path d="M223.225,80.912a15.387,15.387,0,1,0-6.874,20.465,77.848,77.848,0,0,0,6.874-20.465" transform="translate(-0.291 -0.042)" fill="#c8c8c8"/><path d="M222.228,35.415a89.78,89.78,0,0,1,.255-19.048A18.482,18.482,0,1,0,223.174,45c-.35-3.192-.694-6.385-.947-9.587" transform="translate(-0.289 -0.007)" fill="#c8c8c8"/><path d="M212.276,109.81h-56.3a1.575,1.575,0,0,1-1.309-2.451,69.755,69.755,0,0,0,8.773-19.02,80.717,80.717,0,0,0,3.309-21.782,167.881,167.881,0,0,0-1.411-20.593c-.375-3.412-.763-6.94-1.038-10.432a98.3,98.3,0,0,1-.114-16A50.037,50.037,0,0,1,167.7,4.207a1.575,1.575,0,0,1,1.452-.966h56.3A1.575,1.575,0,0,1,226.9,5.425a46.977,46.977,0,0,0-3.275,14.369,95.331,95.331,0,0,0,.116,15.492c.271,3.441.656,6.942,1.029,10.328A170.426,170.426,0,0,1,226.2,66.6a83.828,83.828,0,0,1-3.439,22.631,72.933,72.933,0,0,1-9.176,19.877A1.575,1.575,0,0,1,212.276,109.81Zm-53.429-3.15h52.58a70.179,70.179,0,0,0,8.313-18.321,80.677,80.677,0,0,0,3.309-21.781,168.054,168.054,0,0,0-1.412-20.6c-.375-3.41-.763-6.935-1.038-10.425a98.409,98.409,0,0,1-.114-16.005,52.459,52.459,0,0,1,2.667-13.138h-52.94a48.073,48.073,0,0,0-2.888,13.4,95.225,95.225,0,0,0,.116,15.492c.271,3.443.656,6.947,1.029,10.335A170.253,170.253,0,0,1,169.9,66.6a83.868,83.868,0,0,1-3.439,22.631A74.194,74.194,0,0,1,158.848,106.66Z" transform="translate(-0.234 -0.003)" fill="#121212"/><path d="M14.747,129.328C7.063,117.842,2.614,102.837,2.4,87.674,2.249,77.223,4.032,66.9,4.852,56.5s.58-21.4-3.277-30.594h56.3C61.732,35.1,61.971,46.1,61.151,56.5s-2.6,20.719-2.453,31.17c.218,15.163,4.665,30.17,12.349,41.655Z" transform="translate(-0.002 -0.015)" fill="#fff"/><path d="M56.3.658H0A.658.658,0,0,1-.658,0,.658.658,0,0,1,0-.658H56.3A.658.658,0,0,1,56.958,0,.658.658,0,0,1,56.3.658Z" transform="translate(10.677 122.317)" fill="#c8c8c8"/><path d="M20.934.658H0A.658.658,0,0,1-.658,0,.658.658,0,0,1,0-.658H20.934A.658.658,0,0,1,21.592,0,.658.658,0,0,1,20.934.658Z" transform="translate(34.399 101.695)" fill="#c8c8c8"/><path d="M21.018.658H0A.658.658,0,0,1-.658,0,.658.658,0,0,1,0-.658H21.018A.658.658,0,0,1,21.676,0,.658.658,0,0,1,21.018.658Z" transform="translate(35.134 105.192)" fill="#c8c8c8"/><path d="M21.018.658H0A.658.658,0,0,1-.658,0,.658.658,0,0,1,0-.658H21.018A.658.658,0,0,1,21.676,0,.658.658,0,0,1,21.018.658Z" transform="translate(36.03 108.69)" fill="#c8c8c8"/><path d="M21.018.658H0A.658.658,0,0,1-.658,0,.658.658,0,0,1,0-.658H21.018A.658.658,0,0,1,21.676,0,.658.658,0,0,1,21.018.658Z" transform="translate(37.097 112.189)" fill="#c8c8c8"/><path d="M21.069.658H0A.658.658,0,0,1-.658,0,.658.658,0,0,1,0-.658H21.069A.658.658,0,0,1,21.727,0,.658.658,0,0,1,21.069.658Z" transform="translate(7.531 75.878)" fill="#c8c8c8"/><path d="M21.336.658H0A.658.658,0,0,1-.658,0,.658.658,0,0,1,0-.658H21.336A.658.658,0,0,1,21.994,0,.658.658,0,0,1,21.336.658Z" transform="translate(7.265 79.376)" fill="#c8c8c8"/><path d="M20.826.658H0A.658.658,0,0,1-.658,0,.658.658,0,0,1,0-.658H20.826A.658.658,0,0,1,21.484,0,.658.658,0,0,1,20.826.658Z" transform="translate(7.264 82.874)" fill="#c8c8c8"/><path d="M20.826.658H0A.658.658,0,0,1-.658,0,.658.658,0,0,1,0-.658H20.826A.658.658,0,0,1,21.484,0,.658.658,0,0,1,20.826.658Z" transform="translate(7.264 86.372)" fill="#c8c8c8"/><path d="M19.687.658H0A.658.658,0,0,1-.658,0,.658.658,0,0,1,0-.658H19.687A.658.658,0,0,1,20.345,0,.658.658,0,0,1,19.687.658Z" transform="translate(38.372 45.128)" fill="#c8c8c8"/><path d="M19.954.658H0A.658.658,0,0,1-.658,0,.658.658,0,0,1,0-.658H19.954A.658.658,0,0,1,20.612,0,.658.658,0,0,1,19.954.658Z" transform="translate(38.105 48.626)" fill="#c8c8c8"/><path d="M19.443.658H0A.658.658,0,0,1-.658,0,.658.658,0,0,1,0-.658H19.443A.658.658,0,0,1,20.1,0,.658.658,0,0,1,19.443.658Z" transform="translate(38.106 52.124)" fill="#c8c8c8"/><path d="M19.443.658H0A.658.658,0,0,1-.658,0,.658.658,0,0,1,0-.658H19.443A.658.658,0,0,1,20.1,0,.658.658,0,0,1,19.443.658Z" transform="translate(38.106 55.622)" fill="#c8c8c8"/><path d="M20.9.658H0A.658.658,0,0,1-.658,0,.658.658,0,0,1,0-.658H20.9A.658.658,0,0,1,21.555,0,.658.658,0,0,1,20.9.658Z" transform="translate(7.264 89.87)" fill="#c8c8c8"/><path d="M4.194.658H0A.658.658,0,0,1-.658,0,.658.658,0,0,1,0-.658H4.194A.658.658,0,0,1,4.852,0,.658.658,0,0,1,4.194.658Z" transform="translate(49.836 30.076)" fill="#c8c8c8"/><path d="M4.194.658H0A.658.658,0,0,1-.658,0,.658.658,0,0,1,0-.658H4.194A.658.658,0,0,1,4.852,0,.658.658,0,0,1,4.194.658Z" transform="translate(41.099 30.076)" fill="#c8c8c8"/><path d="M4.194.658H0A.658.658,0,0,1-.658,0,.658.658,0,0,1,0-.658H4.194A.658.658,0,0,1,4.852,0,.658.658,0,0,1,4.194.658Z" transform="translate(32.362 30.076)" fill="#c8c8c8"/><path d="M4.194.658H0A.658.658,0,0,1-.658,0,.658.658,0,0,1,0-.658H4.194A.658.658,0,0,1,4.852,0,.658.658,0,0,1,4.194.658Z" transform="translate(23.625 30.076)" fill="#c8c8c8"/><path d="M12.41,30.094,13.3,31.9l1.99.289-1.44,1.405.339,1.985-1.78-.937-1.78.937.339-1.985-1.44-1.405,1.99-.289Z" transform="translate(-0.014 -0.018)" fill="#c8c8c8"/><path d="M19.967,36.091l5.881,11.928L39,49.932l-9.516,9.285L31.73,72.326,19.967,66.137,8.205,72.326l2.246-13.109L5.165,54.059l.057-4.75,8.865-1.289Z" transform="translate(-0.008 -0.021)" fill="#c8c8c8"/><path d="M58.792,88.061c0-1.72.055-3.482.138-5.267l-.543-3.169.772-.753c.158-2.267.354-4.554.57-6.84l-4-.582L51.44,62.744l-4.294,8.707-9.6,1.4,6.947,6.777-1.64,9.57,8.587-4.518L58.6,88.446a1.059,1.059,0,0,1,.191-.385" transform="translate(-0.056 -0.037)" fill="#c8c8c8"/><path d="M10.565,93.621l9.617,6.52L31,95.91l-3.224,11.168,7.364,8.991-11.609.382-6.267,9.788-3.95-10.933-6.052-1.583-1.589-4.159,5.57-4.337Z" transform="translate(-0.009 -0.055)" fill="#c8c8c8"/><path d="M71.048,130.9h-56.3a1.575,1.575,0,0,1-1.309-.7,72.932,72.932,0,0,1-9.176-19.877A83.827,83.827,0,0,1,.823,87.7a170.424,170.424,0,0,1,1.431-20.99c.372-3.385.757-6.886,1.028-10.326A95.331,95.331,0,0,0,3.4,40.888,46.97,46.97,0,0,0,.123,26.519a1.575,1.575,0,0,1,1.452-2.184h56.3a1.575,1.575,0,0,1,1.452.965,50.03,50.03,0,0,1,3.511,15.322,98.306,98.306,0,0,1-.114,16.006c-.275,3.491-.663,7.019-1.038,10.43a167.883,167.883,0,0,0-1.411,20.593,80.707,80.707,0,0,0,3.31,21.782,69.763,69.763,0,0,0,8.774,19.019,1.575,1.575,0,0,1-1.309,2.451ZM15.6,127.753H68.177a74.2,74.2,0,0,1-7.614-17.425A83.858,83.858,0,0,1,57.123,87.7a170.25,170.25,0,0,1,1.429-20.983c.373-3.388.758-6.891,1.029-10.333A95.229,95.229,0,0,0,59.7,40.888a48.071,48.071,0,0,0-2.888-13.4H3.87A52.45,52.45,0,0,1,6.536,40.622a98.409,98.409,0,0,1-.114,16.005c-.275,3.489-.663,7.014-1.038,10.423a168.054,168.054,0,0,0-1.412,20.6,80.677,80.677,0,0,0,3.309,21.781A70.178,70.178,0,0,0,15.6,127.753Z" transform="translate(-0.002 -0.015)" fill="#121212"/><path d="M333.236,150.866s-5.981-7.017-1.844-11.624-4.969-5.544-.636-10.46-4.946-3.795-.213-9.911c2.811-3.633-.85-6.03-.257-10.658.755-5.9.022-20.261-14.01-25.228-4.756-1.683-7.062.912-7.062.912s-1.187-2.585-5.412-2.6c-9.531-.023-14.06,8-14.06,8s-1.656-2.22.394-6.594c-6.189,3.049-9.3,6.278-8.129,12.487.7,3.718,4.71,5.456,4.71,5.456a9.649,9.649,0,0,0-2.882,8.939c.837,5.582-4.668,3.684-3.494,9.166,1.652,7.712-5.278,5.359-4.4,10.75,1.032,6.338-5.592,11.178-5.592,11.178Z" transform="translate(-0.406 -0.048)" fill="#ea5457"/><path d="M333.237,151.926a1.058,1.058,0,0,1-.17-.014l-62.885-10.187a1.06,1.06,0,0,1-.456-1.9,16.633,16.633,0,0,0,3-3.042,9.227,9.227,0,0,0,2.172-7.11c-.5-3.082,1.166-4.277,2.505-5.236a5.206,5.206,0,0,0,1.76-1.728,5.642,5.642,0,0,0,.145-3.734,5.447,5.447,0,0,1,.265-3.672,5.95,5.95,0,0,1,1.749-1.938,3.167,3.167,0,0,0,1.468-3.62,11.578,11.578,0,0,1,1.229-7.38,10.226,10.226,0,0,1,.988-1.459,8.765,8.765,0,0,1-4.039-5.517,10.234,10.234,0,0,1,1.485-8.241c1.4-1.961,3.629-3.625,7.217-5.393a1.06,1.06,0,0,1,1.428,1.4,8.474,8.474,0,0,0-.929,3.729A19.576,19.576,0,0,1,292.5,84.5a17.817,17.817,0,0,1,4.651-2.921,16.78,16.78,0,0,1,6.615-1.334h.043a7.351,7.351,0,0,1,5.614,2.148,7.235,7.235,0,0,1,3.8-1.033,10.252,10.252,0,0,1,3.408.628A21.027,21.027,0,0,1,329.82,94.88a27.985,27.985,0,0,1,1.626,7.516,29.64,29.64,0,0,1-.108,5.951,9.73,9.73,0,0,0,.666,4.446,10.517,10.517,0,0,1,.673,3.13,5.615,5.615,0,0,1-1.3,3.6c-.887,1.146-1.269,2.044-1.137,2.67a3.234,3.234,0,0,0,1.116,1.44,4.449,4.449,0,0,1,1.58,2.248c.242,1.109-.2,2.255-1.39,3.606-1.588,1.8-.915,2.588.305,4.016a6.494,6.494,0,0,1,1.611,2.647,4.138,4.138,0,0,1-1.287,3.8c-1.41,1.571-1.564,3.717-.458,6.379a16.522,16.522,0,0,0,2.321,3.85,1.06,1.06,0,0,1-.807,1.747Zm-60.508-11.936,58.2,9.428a17.229,17.229,0,0,1-1.142-2.226c-1.45-3.454-1.167-6.448.818-8.658.887-.988.882-1.558.8-1.9a4.987,4.987,0,0,0-1.159-1.757,6.677,6.677,0,0,1-1.662-2.765,4.49,4.49,0,0,1,1.378-4.03c.668-.757.99-1.38.909-1.752a3,3,0,0,0-.944-1.14,4.949,4.949,0,0,1-1.756-2.562c-.275-1.3.213-2.7,1.534-4.406,1.288-1.665.888-2.9.282-4.776a11.61,11.61,0,0,1-.752-5.368,27.63,27.63,0,0,0-1.4-12.458,18.873,18.873,0,0,0-11.91-11.636,8.148,8.148,0,0,0-2.7-.507A4.514,4.514,0,0,0,310,84.606a1.031,1.031,0,0,1-1.749-.26c-.082-.157-1.1-1.976-4.454-1.984h-.038a14.672,14.672,0,0,0-5.784,1.165,15.7,15.7,0,0,0-4.1,2.576,15.917,15.917,0,0,0-3.215,3.717,1.06,1.06,0,0,1-1.773.113,4.818,4.818,0,0,1-.771-2.14,8.137,8.137,0,0,1,.132-2.873,12.969,12.969,0,0,0-4.079,3.461,8.127,8.127,0,0,0-1.126,6.615c.584,3.1,4.057,4.665,4.092,4.681a1.053,1.053,0,0,1,.235,1.8,7.219,7.219,0,0,0-1.555,2,9.3,9.3,0,0,0-.937,5.948,5.212,5.212,0,0,1-2.233,5.583,4.132,4.132,0,0,0-1.187,1.242,3.481,3.481,0,0,0-.085,2.275,7.585,7.585,0,0,1-.334,5.151,7.031,7.031,0,0,1-2.409,2.479c-1.249.895-1.938,1.388-1.647,3.172a11.42,11.42,0,0,1-2.612,8.779A18.908,18.908,0,0,1,272.729,139.991Z" transform="translate(-0.406 -0.048)" fill="#121212"/><path d="M312.469,134.742l-5.494-1.526v-4H295.359v4l-4.254.594v15.839l11.778.4Z" transform="translate(-0.437 -0.076)" fill="#fef1e6"/><path d="M295.359,127.642h11.617a1.575,1.575,0,0,1,1.575,1.575v2.8l4.34,1.206a1.575,1.575,0,0,1,.913,2.353l-9.586,15.309a1.574,1.574,0,0,1-1.389.738l-11.778-.4a1.575,1.575,0,0,1-1.521-1.574V133.808a1.575,1.575,0,0,1,1.357-1.56l2.9-.4v-2.627A1.575,1.575,0,0,1,295.359,127.642Zm10.042,3.15h-8.466v2.423a1.575,1.575,0,0,1-1.357,1.56l-2.9.4v12.946l9.35.321,7.984-12.751-3.461-.961a1.575,1.575,0,0,1-1.153-1.518Z" transform="translate(-0.437 -0.076)" fill="#121212"/><path d="M308.345,92.72,314.5,96.6l2.825,12.215s4.6,1.427,4.053,5.673c-.4,3.084-1.492,4.538-5.292,5.209-2.662,5.717-7.685,12.494-16.837,11.319h0c-9.151-1.173-12.177-7.88-12.144-15.2-.3-4.892,1.5-13.435,1.5-13.435l14.11,1.606s-1.931-6.384.346-8.357c3.8-3.291,5.286-2.905,5.286-2.905" transform="translate(-0.431 -0.054)" fill="#fef1e6"/><path d="M298.323,111.837a1.489,1.489,0,1,0,1.665-1.289,1.49,1.49,0,0,0-1.665,1.289" transform="translate(-0.448 -0.065)" fill="#121212"/><path d="M288.152,110.62a1.489,1.489,0,1,0,1.665-1.289,1.49,1.49,0,0,0-1.665,1.289" transform="translate(-0.432 -0.064)" fill="#121212"/><path d="M305.77,112.419a1.6,1.6,0,0,1-1.29-.648c-.663-.892-2.37-1.084-3.876-1.254-.259-.029-.526-.059-.783-.092a1.605,1.605,0,0,1,.409-3.184c.232.03.475.057.733.086,2.049.231,4.6.517,6.094,2.53a1.605,1.605,0,0,1-1.287,2.562Z" transform="translate(-0.45 -0.064)" fill="#121212"/><path d="M288.14,109.981a1.605,1.605,0,0,1-1.006-2.856,5.126,5.126,0,0,1,4.795-1.011c.173.034.336.067.492.092a1.605,1.605,0,0,1-.512,3.169c-.214-.035-.413-.074-.607-.113-.965-.192-1.365-.272-2.158.365A1.6,1.6,0,0,1,288.14,109.981Z" transform="translate(-0.432 -0.063)" fill="#121212"/><path d="M.714.879a.8.8,0,0,1-.1-.006L-.1.781A.787.787,0,0,1-.781-.1.787.787,0,0,1,.1-.781L.813-.69A.788.788,0,0,1,.714.879Z" transform="translate(292.383 118.04)" fill="#121212"/><path d="M307.5,91.242a3.3,3.3,0,0,1,1.431.292q.059.03.116.065l6.158,3.879a1.325,1.325,0,0,1,.585.823l2.668,11.538a8.806,8.806,0,0,1,1.936,1.2,6.005,6.005,0,0,1,2.3,5.621,6.867,6.867,0,0,1-1.727,4.258,7.383,7.383,0,0,1-3.97,1.954,24.918,24.918,0,0,1-5.381,7.51,14.89,14.89,0,0,1-10.318,4.1,17.471,17.471,0,0,1-2.2-.143l-.018,0c-4.52-.58-7.964-2.4-10.235-5.4a16.651,16.651,0,0,1-3.061-8.992v-.016c-.3-4.988,1.438-15.328,1.512-15.766a1.325,1.325,0,0,1,1.456-1.1l12.194,1.388c-.081-.411-.156-.867-.21-1.353a8.727,8.727,0,0,1,1.251-6.25C304.154,91.867,306.184,91.242,307.5,91.242Zm.257,2.676a1.15,1.15,0,0,0-.257-.026c-.465,0-1.724.245-3.374,2.513a6.539,6.539,0,0,0-.761,4.4,13.813,13.813,0,0,0,.592,2.74,1.325,1.325,0,0,1-1.4,1.758l-12.853-1.463c-.453,2.906-1.5,10.2-1.281,13.916a14.068,14.068,0,0,0,2.531,7.579,10.131,10.131,0,0,0,3.229,2.773A14.7,14.7,0,0,0,299.4,129.7l.017,0a14.82,14.82,0,0,0,1.878.123,12.159,12.159,0,0,0,4.767-.943,13.228,13.228,0,0,0,3.761-2.458,22.857,22.857,0,0,0,5.06-7.287,1.325,1.325,0,0,1,.971-.746,5.738,5.738,0,0,0,3.2-1.312,4.662,4.662,0,0,0,1.011-2.761,3.386,3.386,0,0,0-1.349-3.236,6.081,6.081,0,0,0-1.782-1,1.325,1.325,0,0,1-.9-.967l-2.7-11.683Z" transform="translate(-0.431 -0.054)" fill="#121212"/><path d="M266.76,196.2V179.436c-.536,3.962-5.085,7.5-10.534,9.3-5.542,1.828-22.218,4.861-22.218,4.861l-3.464-14.007,23.738-8.6,12.849-29.622c2.337-4.292-2.451-12.151,5.343-10.921l19.2,3.479-1.9,39.874-4.505,22.472" transform="translate(-0.346 -0.076)" fill="#ea5457"/><path d="M285.27,197.848a1.576,1.576,0,0,1-1.546-1.885l4.482-22.356,1.826-38.377L272.212,132c-1.731-.271-2.295.037-2.457.182-.524.469-.447,2.143-.38,3.619.093,2.026.2,4.318-.825,6.253l-12.823,29.562a1.575,1.575,0,0,1-.908.854l-22.406,8.118,2.767,11.19c4.166-.78,16.123-3.077,20.552-4.538,5.248-1.731,9.052-4.952,9.467-8.016a1.575,1.575,0,0,1,3.136.211V196.2a1.575,1.575,0,0,1-3.15,0V185.34q-.392.385-.829.757a22.918,22.918,0,0,1-7.637,4.135c-5.581,1.841-21.744,4.79-22.429,4.915a1.575,1.575,0,0,1-1.811-1.171l-3.464-14.007a1.575,1.575,0,0,1,.992-1.859l23.1-8.37,12.579-29q.028-.065.062-.126c.641-1.176.559-2.952.48-4.669-.1-2.283-.213-4.644,1.426-6.111,1.114-1,2.771-1.306,5.066-.944l.035.006,19.2,3.479A1.575,1.575,0,0,1,293.244,134l-1.9,39.874a1.578,1.578,0,0,1-.029.235l-4.505,22.472A1.576,1.576,0,0,1,285.27,197.848Z" transform="translate(-0.346 -0.076)" fill="#121212"/><path d="M301.517,172.635l6.772-22.387-17.184-.589-.56,22.976Z" transform="translate(-0.436 -0.088)" fill="#ea5457"/><path d="M301.517,174.21H290.545a1.575,1.575,0,0,1-1.575-1.613l.56-22.976a1.575,1.575,0,0,1,1.628-1.536l17.184.589a1.575,1.575,0,0,1,1.454,2.03l-6.772,22.387A1.575,1.575,0,0,1,301.517,174.21Zm-9.359-3.15h8.19l5.84-19.308-13.548-.464Z" transform="translate(-0.436 -0.088)" fill="#121212"/><path d="M323.279,196.2l11.589-43.851c2.415-7.006,4.48-19.152-5.57-16.783l-16.839-.822L289.333,174.7l-5.417,21.5" transform="translate(-0.426 -0.079)" fill="#ea5457"/><path d="M323.28,197.776a1.576,1.576,0,0,1-1.524-1.978l11.589-43.851q.015-.056.034-.111c1.85-5.367,2.8-11.8.738-14.077a2.684,2.684,0,0,0-1.492-.825,6.952,6.952,0,0,0-2.966.165,1.575,1.575,0,0,1-.438.04l-15.88-.775L290.806,175.3l-5.363,21.283a1.575,1.575,0,1,1-3.055-.77l5.417-21.5a1.575,1.575,0,0,1,.164-.4l23.126-39.96a1.574,1.574,0,0,1,1.44-.784l16.623.811a9.815,9.815,0,0,1,4.121-.129,5.806,5.806,0,0,1,3.173,1.793c1.576,1.743,2.214,4.544,1.9,8.323a38.9,38.9,0,0,1-1.974,8.837L324.8,196.6A1.576,1.576,0,0,1,323.28,197.776Z" transform="translate(-0.426 -0.079)" fill="#121212"/><path d="M1.479-.807A2.287,2.287,0,1,1-.806,1.481,2.289,2.289,0,0,1,1.479-.807Zm0,2.961a.674.674,0,1,0-.673-.674A.674.674,0,0,0,1.479,2.155Z" transform="translate(293.095 176.161)" fill="#121212"/><path d="M295.265,120.632c-1.1.025-1.313.73-1.817.694s-.716-.694-1.341-.694-1,.987-1,.987.192,4.088,3.244,4.339c3.338.276,4.991-4.412,4.991-4.412a21.272,21.272,0,0,0-4.075-.914" transform="translate(-0.437 -0.071)" fill="#ea5457"/><path d="M289.863,175.378a1.575,1.575,0,0,1-1.072-2.729l19.728-18.316-1.218-.978a1.575,1.575,0,0,1-.053-2.412l10.535-9.248-1.06-6.409a1.575,1.575,0,1,1,3.108-.514l1.2,7.273a1.575,1.575,0,0,1-.515,1.441l-9.784,8.588,1.177.945A1.575,1.575,0,0,1,312,155.4l-21.064,19.557A1.57,1.57,0,0,1,289.863,175.378Z" transform="translate(-0.435 -0.079)" fill="#121212"/><path d="M289.851,175.377a1.576,1.576,0,0,1-1.531-1.212l-5.358-22.625a1.575,1.575,0,0,1,1.253-1.913l1.484-.268-4.5-12.223a1.575,1.575,0,0,1,.6-1.849l5.031-3.4a1.575,1.575,0,0,1,1.762,2.611l-4.008,2.705,4.718,12.825a1.575,1.575,0,0,1-1.2,2.094l-1.694.306,4.975,21.007a1.576,1.576,0,0,1-1.534,1.938Z" transform="translate(-0.424 -0.078)" fill="#121212"/><path d="M312.241,145.348l15.612-4.066,6.548,32.252s-.247,7.507-7.17,8.721-10.384-3.808-11.621-8.721-3.369-28.186-3.369-28.186" transform="translate(-0.469 -0.083)" fill="#ea5457"/><path d="M327.853,139.707a1.575,1.575,0,0,1,1.544,1.262l6.548,32.252a1.578,1.578,0,0,1,.031.365,12.974,12.974,0,0,1-1.13,4.508,9.611,9.611,0,0,1-7.342,5.712,13.351,13.351,0,0,1-2.3.208,10.123,10.123,0,0,1-7.628-3.3,15.673,15.673,0,0,1-3.494-6.8c-1.253-4.974-3.322-27.472-3.41-28.427a1.575,1.575,0,0,1,1.171-1.668l15.612-4.066A1.575,1.575,0,0,1,327.853,139.707Zm4.962,33.932-6.175-30.414-12.706,3.309c.472,5,2.178,22.542,3.2,26.615a12.542,12.542,0,0,0,2.743,5.416,7.012,7.012,0,0,0,5.324,2.3,10.2,10.2,0,0,0,1.754-.16,6.489,6.489,0,0,0,4.981-3.833A10.067,10.067,0,0,0,332.815,173.639Z" transform="translate(-0.469 -0.083)" fill="#121212"/><path d="M323.808,111.588l-6.4-1.532-2.68-.641-1.834,7.681,2.68.642-3.457,14.479-2.68-.641-1.833,7.681,2.68.642,6.4,1.531,2.68.642,7.124-29.843Z" transform="translate(-0.462 -0.064)" fill="#121212"/><path d="M314.723,107.81a1.6,1.6,0,0,1,.373.044l11.764,2.813a1.6,1.6,0,0,1,1.188,1.934l-7.124,29.843a1.6,1.6,0,0,1-1.935,1.188l-11.764-2.814a1.605,1.605,0,0,1-1.187-1.933l1.833-7.681a1.6,1.6,0,0,1,1.934-1.188l1.119.267,2.711-11.357-1.12-.268a1.605,1.605,0,0,1-1.187-1.934l1.834-7.681a1.605,1.605,0,0,1,1.561-1.232Zm9.831,5.606-8.642-2.067-1.089,4.56,1.12.268a1.605,1.605,0,0,1,1.187,1.934l-3.457,14.479a1.6,1.6,0,0,1-1.934,1.188l-1.118-.267-1.088,4.56,8.643,2.067Z" transform="translate(-0.462 -0.064)" fill="#121212"/><path d="M324.86,138.447l.494-3.619c.166-1.894.069-1.976-.5-4.95.021-.074-.012.078,0,0l.811-5.218a2.006,2.006,0,1,0-3.965-.617l-.755,4.86-2.5-.087a5.381,5.381,0,0,0-5.829,4.893l-.494,3.619a5.383,5.383,0,0,0,4.889,5.835l2.017.177a5.381,5.381,0,0,0,5.829-4.893" transform="translate(-0.468 -0.072)" fill="#fbf1e6"/><path d="M319.507,144.591h0c-.194,0-.39-.009-.584-.026l-2.017-.177a6.621,6.621,0,0,1-6.007-7.168q0-.03.007-.059l.49-3.591a6.613,6.613,0,0,1,6.576-6.006c.182,0,.367.008.55.023l1.378.048.587-3.781a3.237,3.237,0,1,1,6.4.994l-.778,5.008c.058.3.111.577.159.823a11.436,11.436,0,0,1,.315,4.256q0,.03-.007.059l-.49,3.591a6.612,6.612,0,0,1-6.575,6.006Zm-6.159-7.128a4.157,4.157,0,0,0,3.773,4.474l2.017.177c.122.011.246.016.369.016h0a4.151,4.151,0,0,0,4.127-3.791q0-.03.007-.059l.49-3.589a9.122,9.122,0,0,0-.281-3.543c-.051-.265-.109-.56-.172-.893a1.27,1.27,0,0,1-.036-.559v-.01l.81-5.215a.778.778,0,0,0-.647-.888.8.8,0,0,0-.123-.01.78.78,0,0,0-.763.658l-.755,4.861a1.232,1.232,0,0,1-1.259,1.041l-2.5-.087-.065,0c-.122-.011-.246-.016-.369-.016a4.152,4.152,0,0,0-4.127,3.791q0,.03-.007.059Z" transform="translate(-0.468 -0.072)" fill="#121212"/><line x2="3.444" y2="0.303" transform="translate(320.767 136.573)" fill="#fbf1e6"/><path d="M3.445,1.105q-.035,0-.071,0L-.07.8A.8.8,0,0,1-.8-.07.8.8,0,0,1,.07-.8l3.444.3a.8.8,0,0,1-.069,1.6Z" transform="translate(320.767 136.573)" fill="#121212"/><line x2="3.444" y2="0.303" transform="translate(320.521 139.377)" fill="#fbf1e6"/><path d="M3.445,1.105q-.035,0-.071,0L-.07.8A.8.8,0,0,1-.8-.07.8.8,0,0,1,.07-.8l3.444.3a.8.8,0,0,1-.069,1.6Z" transform="translate(320.521 139.377)" fill="#121212"/><rect width="43.124" height="7.547" transform="translate(190.11 203.848)" fill="#fff"/><path d="M0-1.605H43.124A1.6,1.6,0,0,1,44.729,0V7.547a1.6,1.6,0,0,1-1.6,1.605H0A1.6,1.6,0,0,1-1.6,7.547V0A1.6,1.6,0,0,1,0-1.605ZM41.519,1.6H1.605V5.942H41.519Z" transform="translate(190.11 203.848)" fill="#121212"/><path d="M190.4,196.417H214.2l19.316,7.547H190.4Z" transform="translate(-0.286 -0.115)" fill="#fff"/><path d="M190.4,194.812H214.2a1.605,1.605,0,0,1,.584.11l19.316,7.547a1.605,1.605,0,0,1-.584,3.1H190.4a1.6,1.6,0,0,1-1.6-1.6v-7.547A1.6,1.6,0,0,1,190.4,194.812Zm23.506,3.21H192v4.337h33Z" transform="translate(-0.286 -0.115)" fill="#121212"/><path d="M19.317,7.948a.4.4,0,0,1-.146-.028L-.146.374a.4.4,0,0,1-.228-.52.4.4,0,0,1,.52-.228L19.463,7.173a.4.4,0,0,1-.146.776Z" transform="translate(200.23 196.302)" fill="#121212"/><path d="M19.317,7.948a.4.4,0,0,1-.146-.028L-.146.374a.4.4,0,0,1-.228-.52.4.4,0,0,1,.52-.228L19.463,7.173a.4.4,0,0,1-.146.776Z" transform="translate(206.07 196.302)" fill="#121212"/><path d="M19.317,7.948a.4.4,0,0,1-.146-.028L-.146.374a.4.4,0,0,1-.228-.52.4.4,0,0,1,.52-.228L19.463,7.173a.4.4,0,0,1-.146.776Z" transform="translate(193.477 196.302)" fill="#121212"/><path d="M16.664,6.913a.4.4,0,0,1-.146-.028L-.146.374a.4.4,0,0,1-.228-.52.4.4,0,0,1,.52-.228L16.81,6.137a.4.4,0,0,1-.146.776Z" transform="translate(190.111 197.338)" fill="#121212"/><path d="M29.471.4H0A.4.4,0,0,1-.4,0,.4.4,0,0,1,0-.4H29.471a.4.4,0,0,1,.4.4A.4.4,0,0,1,29.471.4Z" transform="translate(190.075 198.901)" fill="#121212"/><path d="M35.311.4H0A.4.4,0,0,1-.4,0,.4.4,0,0,1,0-.4H35.311a.4.4,0,0,1,.4.4A.4.4,0,0,1,35.311.4Z" transform="translate(190.075 200.962)" fill="#121212"/><path d="M9.467,4.1a.4.4,0,0,1-.146-.028L-.146.374a.4.4,0,0,1-.228-.52.4.4,0,0,1,.52-.228l9.467,3.7a.4.4,0,0,1-.146.776Z" transform="translate(190.111 200.15)" fill="#121212"/><path d="M233.311,188.658l-1.1-3.483a5.379,5.379,0,0,0-6.571-3.837l-2.449.508-1.565-4.662a2.007,2.007,0,1,0-3.8,1.278l1.68,5.007c.01.031,0,.022,0,.008-.054,3.018-.136,3.117.347,4.954l.423,1.342A2.79,2.79,0,0,0,218,190.91l-2.247,3.306a2.794,2.794,0,0,0,4.524,3.279l.007.005,2.1-3.11a5.366,5.366,0,0,0,5.126,1.361l1.958-.516a5.385,5.385,0,0,0,3.833-6.577" transform="translate(-0.323 -0.103)" fill="#fbf1e6"/><path d="M218.027,199.841a4,4,0,0,1-3.258-6.312l2.24-3.3.026-.036a3.994,3.994,0,0,1,1.694-1.322l-.026-.081q-.009-.028-.016-.056a11.39,11.39,0,0,1-.408-4.232c.006-.254.012-.537.018-.853l-1.613-4.807a3.211,3.211,0,1,1,6.087-2.044l1.225,3.649,1.374-.285a6.576,6.576,0,0,1,8,4.674l1.09,3.457q.009.028.016.056a6.6,6.6,0,0,1-4.691,8.047l-1.958.516a6.574,6.574,0,0,1-1.674.218h0a6.529,6.529,0,0,1-3.483-1l-1.383,2.043a1.2,1.2,0,0,1-.138.169A4.017,4.017,0,0,1,218.027,199.841Zm.959-8.233-2.232,3.285-.016.022a1.59,1.59,0,0,0,2.573,1.867q.029-.04.061-.077l2.024-2.991a1.2,1.2,0,0,1,1.839-.186,4.212,4.212,0,0,0,2.917,1.2h0a4.165,4.165,0,0,0,1.061-.138l1.958-.516a4.186,4.186,0,0,0,2.982-5.08l-1.089-3.453q-.009-.028-.016-.056a4.168,4.168,0,0,0-5.1-2.978l-.062.015-2.449.508a1.2,1.2,0,0,1-1.386-.8l-1.565-4.662a.8.8,0,1,0-1.521.513l1.68,5.007,0,.013a1.238,1.238,0,0,1,.055.536c-.006.344-.013.649-.019.923a9.115,9.115,0,0,0,.322,3.539l.415,1.314a1.2,1.2,0,0,1-1.148,1.566h-.013A1.578,1.578,0,0,0,218.985,191.608Z" transform="translate(-0.323 -0.103)" fill="#121212"/><path d="M219.509,183.482v-.008c-.019-.04-.008-.011,0,.008" transform="translate(-0.329 -0.108)" fill="#fbf1e6"/><path d="M219.508,184.686a1.211,1.211,0,1,1,1.2-1.212v.008a1.2,1.2,0,0,1-1.2,1.2Z" transform="translate(-0.329 -0.108)" fill="#121212"/><path d="M222.514,140.774a8.175,8.175,0,0,1,2.835,11c2.58,2.217.89,6.542-.719,8.548.129,3.948-.44,10.122-.44,10.122l-.565,18.74-27,5.911a14.92,14.92,0,0,1-5.777,4.654c-2.607,1.039-7.441-.5-8.271-1.953-3.943,2.917-9,2.044-10.747-3.094-.934-2.751,1.973-6.2,1.973-6.2s-4.81-6.483,1.073-11.889c-5.034-5.111,1.851-11.591,5.211-11.179-.851-4.7.21-8.756,7.336-11.392-.255-5.455,5.954-10.755,11.065-8,.629-3.733,6.85-8.168,12.93-3.912,1.493-2.141,6.71-4.163,11.1-1.358" transform="translate(-0.258 -0.082)" fill="#ea5457"/><path d="M217.793,137.826a10.315,10.315,0,0,1,5.569,1.621,9.667,9.667,0,0,1,3.84,12.023,6.256,6.256,0,0,1,.906,4.943,11.659,11.659,0,0,1-1.89,4.413c.065,3.833-.4,9.1-.455,9.709l-.564,18.692a1.575,1.575,0,0,1-1.237,1.491l-26.441,5.788a16.126,16.126,0,0,1-6.089,4.7,7.144,7.144,0,0,1-2.644.452,12.973,12.973,0,0,1-4.373-.827,9.1,9.1,0,0,1-2.032-1.039,9.121,9.121,0,0,1-4.49,1.231,7.524,7.524,0,0,1-4.537-1.486,8.888,8.888,0,0,1-3.016-4.335,6.857,6.857,0,0,1,.723-5.348,13.549,13.549,0,0,1,.844-1.433,12.646,12.646,0,0,1-1.315-3.527,9.524,9.524,0,0,1,2.178-8.369,6.968,6.968,0,0,1-1.161-2.835,7.153,7.153,0,0,1,.515-3.967,10.443,10.443,0,0,1,3.269-4.142,8.847,8.847,0,0,1,2.922-1.531,10.024,10.024,0,0,1,1.067-5.844c1.194-2.2,3.323-3.921,6.494-5.252a10.271,10.271,0,0,1,2.872-6.131,9.558,9.558,0,0,1,6.785-3.113,7.7,7.7,0,0,1,2.011.264,9.893,9.893,0,0,1,8.684-5.162,10.164,10.164,0,0,1,4.927,1.3A10.572,10.572,0,0,1,217.793,137.826Zm4.294,50.079.528-17.512q0-.049.006-.1c.006-.061.559-6.124.435-9.926a1.575,1.575,0,0,1,.345-1.037c1.148-1.432,2.651-4.882.921-6.368a1.575,1.575,0,0,1-.385-1.893,7.134,7.134,0,0,0,.6-5.282,6.768,6.768,0,0,0-2.876-3.69,7.074,7.074,0,0,0-3.872-1.125,6.669,6.669,0,0,0-5.083,2.057,1.575,1.575,0,0,1-2.2.389,7.421,7.421,0,0,0-4.289-1.455,6.9,6.9,0,0,0-4.238,1.5,5.091,5.091,0,0,0-1.946,2.843,1.575,1.575,0,0,1-2.3,1.124,4.608,4.608,0,0,0-2.21-.565A6.409,6.409,0,0,0,191.024,149,6.873,6.873,0,0,0,189,153.967a1.575,1.575,0,0,1-1.027,1.551c-2.982,1.1-4.887,2.476-5.822,4.2a8.041,8.041,0,0,0-.511,5.437A1.575,1.575,0,0,1,179.9,167a1.033,1.033,0,0,0-.124-.007,4.567,4.567,0,0,0-2.463,1.094,7.354,7.354,0,0,0-2.281,2.859,3.911,3.911,0,0,0,.971,4.564,1.575,1.575,0,0,1-.056,2.265,6.612,6.612,0,0,0-2.265,6.5,9.375,9.375,0,0,0,1.391,3.293,1.575,1.575,0,0,1-.061,1.954c-.6.721-2.209,3.133-1.685,4.676.794,2.341,2.46,3.683,4.57,3.683a6.351,6.351,0,0,0,3.749-1.349,1.575,1.575,0,0,1,2.3.472,4.371,4.371,0,0,0,1.7.928,9.717,9.717,0,0,0,3.153.584,4.119,4.119,0,0,0,1.478-.228,13.41,13.41,0,0,0,5.079-4.107,1.567,1.567,0,0,1,.945-.623Z" transform="translate(-0.258 -0.082)" fill="#121212"/><path d="M224.19,172.162l-.513,17.038-17.335,3.795a29.949,29.949,0,0,1,5.81-12.389c3.87-4.812,12.038-8.444,12.038-8.444" transform="translate(-0.31 -0.101)" fill="#fef1e6"/><path d="M224.19,170.587a1.575,1.575,0,0,1,1.574,1.622l-.513,17.038a1.575,1.575,0,0,1-1.237,1.491l-17.335,3.795a1.575,1.575,0,0,1-1.89-1.8,31.351,31.351,0,0,1,6.136-13.114c4.063-5.051,12.278-8.742,12.625-8.9A1.574,1.574,0,0,1,224.19,170.587Zm-2.05,17.337.4-13.179c-2.6,1.389-6.8,3.912-9.157,6.848a28.652,28.652,0,0,0-4.883,9.318Z" transform="translate(-0.31 -0.101)" fill="#121212"/><path d="M223.78,179.849l-3.976.385a2.8,2.8,0,0,0,.374,5.579v.009l3.977-.393a2.8,2.8,0,0,0-.374-5.58" transform="translate(-0.326 -0.105)" fill="#fbf1e6"/><path d="M223.949,178.64a4,4,0,0,1,.31,7.988l-3.964.391a1.2,1.2,0,0,1-.222,0h-.065a4,4,0,0,1-.309-7.987l3.963-.384.044,0C223.788,178.642,223.869,178.64,223.949,178.64Zm-3.743,5.969,3.83-.378.029,0a1.592,1.592,0,0,0-.194-3.178l-3.951.382-.027,0a1.592,1.592,0,0,0-1.468,1.707,1.6,1.6,0,0,0,1.585,1.472l.1,0Q220.157,184.608,220.206,184.609Z" transform="translate(-0.326 -0.105)" fill="#121212"/><path d="M170.6,196.417l19.77,7.547v7.548l-19.77-7.548Z" transform="translate(-0.256 -0.115)" fill="#fff"/><path d="M5.527,22.631A1.576,1.576,0,0,1,4,21.456L-1.523.4A1.575,1.575,0,0,1-.4-1.523,1.575,1.575,0,0,1,1.523-.4L7.051,20.656a1.576,1.576,0,0,1-1.524,1.975Z" transform="translate(212.474 147.61)" fill="#ee7679"/><path d="M6.218,11.612a1.574,1.574,0,0,1-1.34-.746L-1.339.829a1.575,1.575,0,0,1,.51-2.168,1.575,1.575,0,0,1,2.168.51L7.556,9.208a1.575,1.575,0,0,1-1.337,2.4Z" transform="translate(203.135 156.436)" fill="#ee7679"/><path d="M17.547,18.337A1.57,1.57,0,0,1,16.46,17.9L-1.088,1.139a1.575,1.575,0,0,1-.051-2.227,1.575,1.575,0,0,1,2.227-.051L18.636,15.623a1.575,1.575,0,0,1-1.088,2.714Z" transform="translate(191.804 158.949)" fill="#ee7679"/><path d="M13.046,8.711a1.568,1.568,0,0,1-.754-.193L-.756,1.382A1.575,1.575,0,0,1-1.382-.756,1.575,1.575,0,0,1,.756-1.382L13.8,5.754a1.575,1.575,0,0,1-.757,2.957Z" transform="translate(186.531 168.951)" fill="#ee7679"/><path d="M20.445,7.269a1.576,1.576,0,0,1-.423-.058L-.423,1.517A1.575,1.575,0,0,1-1.517-.423,1.575,1.575,0,0,1,.423-1.517L20.867,4.176a1.575,1.575,0,0,1-.422,3.093Z" transform="translate(182.263 177.652)" fill="#ee7679"/><path d="M15.376,1.642h-.007L-.007,1.575A1.575,1.575,0,0,1-1.575-.007,1.575,1.575,0,0,1,.007-1.575l15.376.067a1.575,1.575,0,0,1-.007,3.15Z" transform="translate(180.6 188.913)" fill="#ee7679"/><path d="M190.366,203.945,170.6,196.4V167.112a3.027,3.027,0,0,1,3.752-2.993l13.409,3.19a5.311,5.311,0,0,1,2.378,4.2Z" transform="translate(-0.256 -0.096)" fill="#fff"/><path d="M190.366,205.55a1.6,1.6,0,0,1-.572-.106l-19.77-7.547a1.6,1.6,0,0,1-1.033-1.5V167.112a5.035,5.035,0,0,1,1.1-3.029,4.315,4.315,0,0,1,3.419-1.683,4.874,4.874,0,0,1,1.226.162l13.391,3.186a1.6,1.6,0,0,1,.456.186,6.925,6.925,0,0,1,3.156,5.572l.231,32.427a1.605,1.605,0,0,1-1.605,1.616ZM172.2,195.293l16.544,6.315-.214-30.084s0-.008,0-.011a3.782,3.782,0,0,0-1.42-2.708l-13.134-3.125-.039-.01a1.677,1.677,0,0,0-.426-.06,1.1,1.1,0,0,0-.91.475,1.828,1.828,0,0,0-.4,1.026Z" transform="translate(-0.256 -0.096)" fill="#121212"/><path d="M170.6,194.812a1.6,1.6,0,0,1,.572.106l19.77,7.547a1.6,1.6,0,0,1,1.033,1.5v7.548a1.605,1.605,0,0,1-2.177,1.5l-19.77-7.548a1.605,1.605,0,0,1-1.033-1.5v-7.547a1.605,1.605,0,0,1,1.605-1.605Zm18.165,10.257-16.56-6.321v4.111l16.56,6.322Z" transform="translate(-0.256 -0.115)" fill="#121212"/><path d="M177.189,183.588l2.361.687v1.62l-4.472-1.3v-7.616l2.114.616Z" transform="translate(-0.263 -0.104)" fill="#ea5457"/><path d="M186.067,183.972a1.534,1.534,0,0,1-.96.629,3.128,3.128,0,0,1-1.57-.117l-1.046-.3v2.572l-2.114-.616V178.52l3.16.919a4.493,4.493,0,0,1,1.559.778,3.39,3.39,0,0,1,.964,1.177,3.183,3.183,0,0,1,.325,1.412,2.049,2.049,0,0,1-.319,1.165m-1.838-1.793a1.075,1.075,0,0,0-.9-1.092l-.841-.245v1.653l.841.245q.9.259.9-.561" transform="translate(-0.271 -0.105)" fill="#ea5457"/><path d="M219.931,126.83a4.025,4.025,0,0,0-.33-.378c-.136-.14-.278-.274-.424-.4a2.7,2.7,0,0,0-.4-.3,5.08,5.08,0,0,0,.781-.615,7.142,7.142,0,0,0,.7-.766,5.136,5.136,0,0,0,.519-.782l1.289.745a6.155,6.155,0,0,1-.6.945,9.152,9.152,0,0,1-.76.875,6.1,6.1,0,0,1-.776.677m1.982,1.144a4.046,4.046,0,0,0-.089-.494c-.046-.188-.1-.378-.163-.566a2.956,2.956,0,0,0-.21-.494,2.226,2.226,0,0,0,.928-.131.466.466,0,0,0,.247-.447V123.1q-.692,0-1.337.01l-1.132.021c-.326.007-.564.018-.718.031v-1.489q.419.042,1.226.052t1.961.01v-1.846h1.615v1.846q1.267,0,2.076-.026c.538-.017.926-.03,1.163-.036v1.489c-.259-.021-.636-.036-1.132-.047s-1.2-.015-2.107-.015v3.085a2.073,2.073,0,0,1-.195.954,1.282,1.282,0,0,1-.7.583,4.675,4.675,0,0,1-1.436.257m4.823-1.2a6.2,6.2,0,0,0-.524-.8q-.337-.447-.718-.865a5.806,5.806,0,0,0-.708-.672l1.079-.861a7.965,7.965,0,0,1,.771.667q.4.394.776.809a6.86,6.86,0,0,1,.6.761,2.847,2.847,0,0,0-.451.262q-.241.169-.461.352a3.218,3.218,0,0,0-.366.352m.241-5.614a1.057,1.057,0,1,1,.739-.31,1,1,0,0,1-.739.31m0-.515a.549.549,0,0,0,.388-.933.525.525,0,0,0-.388-.158.542.542,0,0,0-.393.158.547.547,0,0,0,0,.777.549.549,0,0,0,.393.157" transform="translate(-0.328 -0.07)" fill="#121212"/><path d="M231.753,128.237a4.329,4.329,0,0,0-.231-.494q-.147-.271-.31-.525a2.5,2.5,0,0,0-.32-.409,4.982,4.982,0,0,0,2.139-.881,2.543,2.543,0,0,0,.9-1.7q-.87.01-1.657.032t-1.358.041q-.571.022-.8.043l-.094-1.49c.14.014.4.023.8.026s.863,0,1.415-.006l1.74-.02v-1.217a20.689,20.689,0,0,1-2.191.178,2.872,2.872,0,0,0-.1-.493c-.053-.182-.11-.361-.173-.536a2.989,2.989,0,0,0-.189-.43q.7.01,1.489-.042t1.573-.174q.786-.12,1.489-.3a9.271,9.271,0,0,0,1.237-.4l.608,1.322a9.15,9.15,0,0,1-.971.32q-.55.153-1.158.279v1.459q.8-.022,1.489-.048t1.184-.058c.33-.021.552-.038.672-.052v1.552q-.21-.009-.713-.015c-.335,0-.733-.005-1.19-.005s-.949,0-1.473.01a4.054,4.054,0,0,1-1.1,2.576,6,6,0,0,1-2.71,1.453" transform="translate(-0.345 -0.07)" fill="#121212"/><path d="M242.959,124.787a3.745,3.745,0,0,0-.142-.556c-.073-.231-.156-.459-.247-.683a2.767,2.767,0,0,0-.252-.5l1.153-.42a4.028,4.028,0,0,1,.247.536q.132.336.247.682a5.844,5.844,0,0,1,.168.588Zm.755,3.3a4.149,4.149,0,0,0-.3-.625,2.719,2.719,0,0,0-.4-.54,5.809,5.809,0,0,0,2.984-1.543,5.207,5.207,0,0,0,1.336-2.991l1.248.211a7.359,7.359,0,0,1-.892,2.649,5.43,5.43,0,0,1-1.641,1.737,9.284,9.284,0,0,1-2.332,1.1m1.006-3.694a3.323,3.323,0,0,0-.121-.572q-.1-.352-.22-.693a2.784,2.784,0,0,0-.226-.51l1.163-.367a4.276,4.276,0,0,1,.226.541c.08.228.156.459.226.693a3.918,3.918,0,0,1,.136.593Z" transform="translate(-0.364 -0.072)" fill="#121212"/><path d="M254.212,128.271a1.041,1.041,0,0,1-.614-1.318.966.966,0,0,1,.533-.577,1.046,1.046,0,0,1,1.365.5.978.978,0,0,1,.033.783,1,1,0,0,1-.528.579.985.985,0,0,1-.789.036m.357-2.762q.1-.409.255-.945c.1-.358.206-.732.318-1.118s.221-.765.328-1.131.207-.7.3-.991.168-.524.228-.688l.523-1.44,1.753.64-.523,1.439q-.09.246-.267.674t-.408.951q-.229.525-.475,1.077t-.474,1.061q-.231.508-.412.887Z" transform="translate(-0.38 -0.07)" fill="#121212"/><path d="M314.429,29.589H270.412a18.12,18.12,0,0,0,0,36.24h44.017a18.12,18.12,0,0,0,0-36.24" transform="translate(-0.379 -0.017)" fill="#121212"/><path d="M298.133,63.958c-1.392,2.287-.19,7.134.211,7.554-3.14-.442-5.237-3.029-5.729-6.89Z" transform="translate(-0.439 -0.038)" fill="#121212"/><path d="M292.329,44.762a4.525,4.525,0,0,1-1.648-.2,2.339,2.339,0,0,1-1.107-.735,1.883,1.883,0,0,1-.4-1.218,1.687,1.687,0,0,1,.138-.684,2.186,2.186,0,0,1,.381-.584q-.545.1-1.048.223c-.336.081-.637.164-.906.247a4.478,4.478,0,0,0-.654.252l-.436-1.158c.073-.011.184-.031.332-.059l.583-.109a1.9,1.9,0,0,0,.658-.3,6.681,6.681,0,0,0,.747-.588q.382-.345.725-.718c.23-.25.425-.48.588-.694q-.5.111-1.028.206a6.664,6.664,0,0,1-.868.114l-.353-1.15q.319,0,.747-.034t.868-.092c.294-.039.563-.086.81-.139a2.7,2.7,0,0,0,.578-.18l1.04.663a6.616,6.616,0,0,1-.831,1.217,8.728,8.728,0,0,1-1.258,1.226q.655-.126,1.263-.24t1.069-.2c.308-.059.528-.1.662-.131l.193,1.2c-.112,0-.247,0-.406.012s-.328.021-.507.038a2.782,2.782,0,0,0-.852.223,1.737,1.737,0,0,0-.683.52,1.357,1.357,0,0,0-.269.869.8.8,0,0,0,.62.769,3.961,3.961,0,0,0,1.661.146,2.673,2.673,0,0,0-.2.408,3.217,3.217,0,0,0-.147.466,2.323,2.323,0,0,0-.063.412" transform="translate(-0.43 -0.022)" fill="#fff"/><path d="M296.392,44.7V42.444c-.185.208-.348.4-.49.572s-.254.316-.331.428l-.9-.79a7.968,7.968,0,0,0,.793-.71l.927-.927V40q-.344.084-.671.156l-.528.113-.252-1.133q.243-.016.642-.084c.265-.045.534-.095.809-.152V37.282h1.149V38.6l.6.445-.327.63a6.783,6.783,0,0,1,1-.718,1.826,1.826,0,0,1,.9-.281,1,1,0,0,1,.9.391,1.915,1.915,0,0,1,.189,1.2c-.011.117-.028.292-.05.525s-.047.484-.072.755-.05.528-.075.769-.044.426-.055.554c-.006.174.073.261.235.261a.9.9,0,0,0,.6-.244,2.417,2.417,0,0,0,.49-.6,2.507,2.507,0,0,0,.164.365,4.371,4.371,0,0,0,.248.412,2.059,2.059,0,0,0,.235.3,2.06,2.06,0,0,1-.5.537,2.7,2.7,0,0,1-.658.37,1.888,1.888,0,0,1-.684.135q-1.484,0-1.359-1.486.017-.177.042-.462t.059-.617c.022-.222.045-.44.067-.656s.041-.407.055-.575.024-.291.029-.37a.56.56,0,0,0-.033-.3.2.2,0,0,0-.194-.088.9.9,0,0,0-.423.189,6.048,6.048,0,0,0-.633.5q-.352.315-.738.693V44.7Z" transform="translate(-0.442 -0.022)" fill="#fff"/><path d="M266.612,54.691q-.135-.252-.34-.558a2.242,2.242,0,0,0-.432-.492,5.8,5.8,0,0,0,1.321-.71,2.608,2.608,0,0,0,.772-.9,3.314,3.314,0,0,0,.323-1.247q-.646,0-1.233,0l-1.01.009c-.282,0-.479.01-.591.021l-.059-1.242c.118,0,.322.01.613.016s.637.01,1.039.013.825.007,1.267.013V47.69h1.291v1.922q.587,0,1.1,0t.893-.013c.252-.006.43-.011.537-.016v1.242c-.09-.006-.259-.011-.507-.017s-.55-.01-.9-.013-.733,0-1.141,0a5.1,5.1,0,0,1-.364,1.641,3.6,3.6,0,0,1-.932,1.3,5.4,5.4,0,0,1-1.647.965" transform="translate(-0.398 -0.028)" fill="#fff"/><path d="M276.372,54.816a3.442,3.442,0,0,0-.264-.34,4.941,4.941,0,0,0-.348-.361,1.825,1.825,0,0,0-.369-.273,6.463,6.463,0,0,0,1.363-.885,6.226,6.226,0,0,0,1.111-1.222,6.02,6.02,0,0,0,.755-1.494h-3.094q.008.294.012.618c0,.216.009.41.017.584s.015.3.021.369H274.25V49.031c.213.012.518.022.919.03s.826.013,1.279.013V47.4h1.291v1.679c.346-.006.659-.014.936-.026s.487-.025.633-.042l.873.437a7.235,7.235,0,0,1-.507,1.709,7.9,7.9,0,0,1-2,2.74,7.431,7.431,0,0,1-1.3.923" transform="translate(-0.412 -0.028)" fill="#fff"/><path d="M284.88,53.465a1.451,1.451,0,0,1-.881.206,1,1,0,0,1-.68-.466,5.229,5.229,0,0,1-.507-.965,9.568,9.568,0,0,1-.4-1.2,10.226,10.226,0,0,1-.252-1.279,8.252,8.252,0,0,1-.075-1.2l1.266.009a5.225,5.225,0,0,0,.025.868,9.141,9.141,0,0,0,.156.969,7.7,7.7,0,0,0,.247.9,3.644,3.644,0,0,0,.294.664.341.341,0,0,0,.52.126,2.662,2.662,0,0,0,.411-.344,3.535,3.535,0,0,0,.377-.446,2,2,0,0,0,.164.353,3.414,3.414,0,0,0,.251.387c.093.123.175.223.248.3a3.875,3.875,0,0,1-.553.664,3.071,3.071,0,0,1-.612.453m3.027-1.62a5.532,5.532,0,0,0-.264-.626c-.121-.249-.26-.507-.415-.772s-.314-.512-.47-.735a2.6,2.6,0,0,0-.436-.5l.982-.638a4.469,4.469,0,0,1,.5.567q.273.357.532.769t.462.8a4.117,4.117,0,0,1,.285.668,3.035,3.035,0,0,0-.637.193,3.374,3.374,0,0,0-.537.277" transform="translate(-0.423 -0.028)" fill="#fff"/><path d="M293.684,54.556a3.922,3.922,0,0,1-1.166-.142,1.089,1.089,0,0,1-.641-.479,1.8,1.8,0,0,1-.2-.915V47.463l1.342.075c-.011.1-.022.262-.034.483s-.019.455-.025.7c0,.207-.01.436-.012.689s0,.528,0,.831V52.76a.476.476,0,0,0,.184.441,1.273,1.273,0,0,0,.629.113,4.05,4.05,0,0,0,1.59-.306,4.812,4.812,0,0,0,1.288-.794c0,.14.018.3.037.475s.045.344.076.5.057.285.08.374a5,5,0,0,1-1.414.719,5.434,5.434,0,0,1-1.731.272m1.8-5.011a3.971,3.971,0,0,0-.411-.529,4.723,4.723,0,0,0-.452-.445l.528-.454a2.843,2.843,0,0,1,.29.273c.114.12.228.243.339.369a3.419,3.419,0,0,1,.26.324Zm.78-.672a3.427,3.427,0,0,0-.411-.534,5.286,5.286,0,0,0-.452-.441l.528-.453a2.955,2.955,0,0,1,.29.273c.114.12.228.243.34.369a3.3,3.3,0,0,1,.26.324Z" transform="translate(-0.438 -0.028)" fill="#fff"/><path d="M302.024,54.776a11.157,11.157,0,0,0-.415-1.309q-.28-.748-.633-1.461c-.241.117-.455.224-.646.319a4.86,4.86,0,0,0-.427.235l-.512-.881q.193-.075.5-.2t.654-.278q-.184-.309-.368-.575a4.013,4.013,0,0,0-.369-.458l.8-.42a5.344,5.344,0,0,1,.4.492c.131.181.258.379.381.592l.721-.319a2.583,2.583,0,0,0-.223-.442,2.82,2.82,0,0,0-.289-.39l.83-.42a4.3,4.3,0,0,1,.294.42c.1.162.188.317.261.462a2.042,2.042,0,0,1,.8-.122,1.714,1.714,0,0,1,.708.185,1.336,1.336,0,0,1,.5.449,1.216,1.216,0,0,1,.188.681,1.5,1.5,0,0,1-.222.852,1.27,1.27,0,0,1-.6.483,2.019,2.019,0,0,1-.86.127,3.4,3.4,0,0,1-1-.219c.006-.084.009-.19.009-.319s0-.258-.009-.387a1.2,1.2,0,0,0-.042-.3,2.472,2.472,0,0,0,.6.219,1.838,1.838,0,0,0,.553.046.728.728,0,0,0,.407-.147.439.439,0,0,0,.155-.361.378.378,0,0,0-.273-.391.987.987,0,0,0-.683.063q-.261.1-.621.26t-.755.345q.385.714.7,1.46t.5,1.343c-.157.039-.332.093-.524.16a2.963,2.963,0,0,0-.482.21" transform="translate(-0.449 -0.029)" fill="#fff"/><path d="M311.942,54.531a1.85,1.85,0,0,1-.734-.135.961.961,0,0,1-.486-.474,2.145,2.145,0,0,1-.172-.952v-.6a1.222,1.222,0,0,0-.1-.617.417.417,0,0,0-.373-.155.933.933,0,0,0-.57.193,1.553,1.553,0,0,0-.453.6q-.327.688-.574,1.246a7.449,7.449,0,0,0-.332.844l-1.182-.521c.055-.089.149-.263.281-.52s.288-.569.469-.932.376-.754.583-1.171.414-.837.621-1.259l.583-1.191q.271-.559.469-.97t.281-.579l1.267.554q-.16.219-.411.63t-.545.949q-.294.537-.6,1.124a1.74,1.74,0,0,1,.612-.109,1.044,1.044,0,0,1,.9.352A2.009,2.009,0,0,1,311.724,52c0,.066,0,.158,0,.272s0,.209,0,.282a1.276,1.276,0,0,0,.084.584c.056.087.177.13.36.13a.846.846,0,0,0,.508-.2,2.378,2.378,0,0,0,.507-.563,3.708,3.708,0,0,0,.411-.832,3.124,3.124,0,0,0,.277.329c.112.117.227.228.344.331s.219.189.3.256a3.609,3.609,0,0,1-.718,1.092,3,3,0,0,1-.9.642,2.3,2.3,0,0,1-.948.214" transform="translate(-0.461 -0.028)" fill="#fff"/><path d="M317.254,54.583a.832.832,0,0,1-.491-1.054.766.766,0,0,1,.426-.461.836.836,0,0,1,1.092.4.787.787,0,0,1,.027.626.809.809,0,0,1-.422.463.787.787,0,0,1-.632.029m.287-2.21c.056-.218.123-.47.2-.757s.164-.585.254-.894.177-.612.263-.905.165-.558.24-.793.134-.419.182-.55l.418-1.152,1.4.512-.418,1.151c-.048.131-.12.311-.214.539s-.2.481-.326.761-.25.568-.379.862-.259.578-.38.849-.233.509-.331.711Z" transform="translate(-0.475 -0.028)" fill="#fff"/></g></g></g></svg>