<?xml version="1.0" encoding="utf-8"?>
<!-- Generator: Adobe Illustrator 16.0.4, SVG Export Plug-In . SVG Version: 6.00 Build 0)  -->
<!DOCTYPE svg PUBLIC "-//W3C//DTD SVG 1.1//EN" "http://www.w3.org/Graphics/SVG/1.1/DTD/svg11.dtd">
<svg version="1.1" id="icon" xmlns:svg="http://www.w3.org/2000/svg"
	 xmlns="http://www.w3.org/2000/svg" xmlns:xlink="http://www.w3.org/1999/xlink" x="0px" y="0px" width="150px" height="150px"
	 viewBox="165.5 262 150 150" enable-background="new 165.5 262 150 150" xml:space="preserve">
<g>
	<path d="M222.324,294.19h42.547v-1.438c0-4.936-4.001-8.938-8.938-8.938h-47.367c-4.936,0-8.938,4.002-8.938,8.938v71.5
		c0,4.936,4.002,8.938,8.938,8.938h0.83v-66.074C209.396,299.989,215.195,294.19,222.324,294.19z"/>
	<path d="M272.434,300.81h-47.367c-4.937,0-8.938,4.002-8.938,8.938v71.5c0,4.936,4.001,8.938,8.938,8.938h47.367
		c4.936,0,8.938-4.002,8.938-8.938v-71.5C281.371,304.812,277.369,300.81,272.434,300.81z"/>
</g>
</svg>
