<?xml version="1.0" encoding="utf-8"?>
<!-- Generator: Adobe Illustrator 16.0.4, SVG Export Plug-In . SVG Version: 6.00 Build 0)  -->
<!DOCTYPE svg PUBLIC "-//W3C//DTD SVG 1.1//EN" "http://www.w3.org/Graphics/SVG/1.1/DTD/svg11.dtd">
<svg version="1.1" id="icon" xmlns:svg="http://www.w3.org/2000/svg"
	 xmlns="http://www.w3.org/2000/svg" xmlns:xlink="http://www.w3.org/1999/xlink" x="0px" y="0px" width="150px" height="150px"
	 viewBox="165.5 80.5 150 150" enable-background="new 165.5 80.5 150 150" xml:space="preserve">
<path fill-rule="evenodd" clip-rule="evenodd" d="M252.786,129.214c10.233,0,20.479,0,30.714,0c0,8.188,0,16.384,0,24.572
	c-10.234,0-20.48,0-30.714,0c0,10.233,0,20.479,0,30.714c-8.188,0-16.384,0-24.571,0c0-10.234,0-20.48,0-30.714
	c-10.234,0-20.48,0-30.715,0c0-8.188,0-16.384,0-24.572c10.234,0,20.48,0,30.715,0c0-10.233,0-20.479,0-30.714
	c8.188,0,16.383,0,24.571,0C252.786,108.734,252.786,118.98,252.786,129.214z"/>
<polygon points="240.5,223.157 215.369,198.025 221.025,192.369 240.5,211.843 259.975,192.369 265.631,198.025 "/>
</svg>
