<?xml version="1.0" encoding="utf-8"?>
<!-- Generator: Adobe Illustrator 16.0.4, SVG Export Plug-In . SVG Version: 6.00 Build 0)  -->
<!DOCTYPE svg PUBLIC "-//W3C//DTD SVG 1.1//EN" "http://www.w3.org/Graphics/SVG/1.1/DTD/svg11.dtd">
<svg version="1.1" id="icon" xmlns:svg="http://www.w3.org/2000/svg"
	 xmlns="http://www.w3.org/2000/svg" xmlns:xlink="http://www.w3.org/1999/xlink" x="0px" y="0px" width="150px" height="150px"
	 viewBox="348.5 80.5 150 150" enable-background="new 348.5 80.5 150 150" xml:space="preserve">
<g>
	<path d="M462.268,155.5c0-5.984,3.684-10.711,9.232-13.958c-0.999-3.341-2.324-6.542-3.953-9.555
		c-6.221,1.628-11.257-0.81-15.491-5.042c-4.232-4.231-5.529-9.271-3.899-15.491c-3.014-1.63-6.212-2.954-9.557-3.954
		c-3.246,5.55-9.113,9.233-15.1,9.233c-5.984,0-11.851-3.684-15.1-9.233c-3.342,0.999-6.541,2.324-9.555,3.953
		c1.628,6.221,0.332,11.258-3.9,15.492c-4.233,4.232-9.271,6.67-15.492,5.044c-1.629,3.011-2.953,6.212-3.953,9.553
		c5.549,3.247,9.233,7.974,9.233,13.958s-3.685,11.854-9.233,15.1c1,3.342,2.324,6.541,3.953,9.556
		c6.223-1.629,11.259-0.333,15.492,3.9c4.232,4.233,5.528,9.271,3.9,15.491c3.014,1.629,6.213,2.957,9.556,3.953
		c3.248-5.548,9.114-9.233,15.099-9.233c5.986,0,11.854,3.686,15.1,9.233c3.345-1,6.543-2.324,9.557-3.954
		c-1.626-6.22-0.333-11.257,3.899-15.49c4.234-4.233,9.271-6.671,15.491-5.043c1.629-3.013,2.954-6.214,3.953-9.556
		C465.951,166.21,462.268,161.484,462.268,155.5z M423.5,176.375c-11.527,0-20.874-9.348-20.874-20.875
		c0-11.529,9.347-20.875,20.874-20.875c11.529,0,20.875,9.346,20.875,20.875C444.375,167.027,435.029,176.375,423.5,176.375z"/>
</g>
</svg>
