<?xml version="1.0" encoding="utf-8"?>
<!-- Generator: Adobe Illustrator 16.0.4, SVG Export Plug-In . SVG Version: 6.00 Build 0)  -->
<!DOCTYPE svg PUBLIC "-//W3C//DTD SVG 1.1//EN" "http://www.w3.org/Graphics/SVG/1.1/DTD/svg11.dtd">
<svg version="1.1" id="icon" xmlns:svg="http://www.w3.org/2000/svg"
	 xmlns="http://www.w3.org/2000/svg" xmlns:xlink="http://www.w3.org/1999/xlink" x="0px" y="0px" width="150px" height="150px"
	 viewBox="532.5 80.5 150 150" enable-background="new 532.5 80.5 150 150" xml:space="preserve">
<path fill-rule="evenodd" clip-rule="evenodd" d="M624.875,155.5c7.236,7.236,14.481,14.481,21.718,21.718
	c-5.79,5.79-11.585,11.585-17.375,17.375c-7.236-7.236-14.481-14.481-21.718-21.718c-7.236,7.236-14.481,14.481-21.718,21.718
	c-5.79-5.79-11.585-11.585-17.375-17.374c7.237-7.237,14.482-14.482,21.718-21.718c-7.236-7.237-14.481-14.482-21.718-21.719
	c5.79-5.79,11.585-11.585,17.375-17.375c7.236,7.236,14.481,14.481,21.719,21.718c7.235-7.235,14.48-14.48,21.718-21.718
	c5.789,5.79,11.584,11.585,17.374,17.375C639.356,141.019,632.111,148.264,624.875,155.5z"/>
</svg>
