<?xml version="1.0" encoding="UTF-8"?>
<svg id="_レイヤー_1" data-name="レイヤー 1" xmlns="http://www.w3.org/2000/svg" xmlns:xlink="http://www.w3.org/1999/xlink" viewBox="0 0 51.95 56.01">
  <defs>
    <style>
      .cls-1 {
        fill: none;
      }

      .cls-2 {
        clip-path: url(#clippath);
      }

      .cls-3 {
        fill: #ea5457;
      }
    </style>
    <clipPath id="clippath">
      <rect class="cls-1" x="0" y="0" width="51.94" height="56"/>
    </clipPath>
  </defs>
  <g class="cls-2">
    <g>
      <path class="cls-3" d="m6.21,27.66c-.1.79-.14,1.58-.15,2.37,0,.25.01.5.02.75,3.4.28,18.26,2.42,23.32,18.86,1.02-.18,2.03-.44,3.01-.79-3.41-11.87-13.88-20.34-26.2-21.2"/>
      <path class="cls-3" d="m8.69,39.9c2.48,4.32,6.47,7.56,11.21,9.09-2.21-4.53-6.32-7.86-11.21-9.09"/>
      <path class="cls-3" d="m6.38,33.56c.2,1.11.49,2.2.87,3.26,7.27,1.1,13.39,6.05,15.98,12.94.91.13,1.82.19,2.74.19.21,0,.41,0,.62-.02-2.77-9.07-10.76-15.55-20.21-16.37"/>
      <path class="cls-3" d="m45.69,27.24c-6.84.15-13.4,2.72-18.52,7.25.72.74,1.41,1.51,2.06,2.32,4.58-4.1,10.5-6.39,16.65-6.44,0-.11,0-.22,0-.33,0-.93-.07-1.87-.2-2.79"/>
      <path class="cls-3" d="m32.48,41.77c3.37-3.22,7.75-5.18,12.4-5.51.35-1.05.61-2.12.77-3.21-5.5.15-10.75,2.28-14.8,6,.57.86,1.11,1.77,1.62,2.72"/>
      <path class="cls-3" d="m39.39,7.79h5.19c.72,0,1.3-.58,1.3-1.3s-.58-1.3-1.3-1.3h-5.19v-2.59h5.19c.72,0,1.3-.58,1.3-1.3s-.58-1.3-1.3-1.3H7.36c-.72,0-1.3.58-1.3,1.3s.58,1.3,1.3,1.3h5.19v2.6h-5.19c-.72,0-1.3.58-1.3,1.3s.58,1.3,1.3,1.3h5.19C.28,15.21-3.67,31.17,3.74,43.45c7.41,12.28,23.37,16.23,35.65,8.82s16.23-23.37,8.82-35.65c-2.18-3.61-5.21-6.64-8.82-8.82m-13.42,45.6c-12.9.01-23.37-10.44-23.38-23.34,0-7.63,3.71-14.78,9.96-19.16v4.43c-2.82,2.58-4.85,5.91-5.83,9.6,1.97.15,3.92.5,5.83,1.03.84.23,1.7.51,2.57.83.01-.08.02-.15.02-.23V2.6h21.64v23.34c.87-.27,1.74-.51,2.6-.7,1.88-.42,3.79-.66,5.71-.73-1.02-3.53-3-6.7-5.71-9.18v-4.42c10.57,7.4,13.14,21.97,5.74,32.54-4.38,6.25-11.53,9.97-19.16,9.96"/>
      <path class="cls-3" d="m33.72,44.44c.45,1.07.88,2.18,1.24,3.35,3.74-1.9,6.79-4.94,8.72-8.67-.28.04-.56.1-.84.16-3.47.8-6.64,2.59-9.12,5.15"/>
    </g>
  </g>
</svg>