<svg xmlns="http://www.w3.org/2000/svg" xmlns:xlink="http://www.w3.org/1999/xlink" width="279" height="234" viewBox="0 0 279 234"><defs><clipPath id="a"><rect width="279" height="137" transform="translate(0 -0.035)" fill="none"/></clipPath></defs><g transform="translate(-56 -120)"><g transform="translate(56 120.035)"><g transform="translate(0 0)" clip-path="url(#a)"><path d="M3.6,33.208a9.97,9.97,0,0,0-1.745-.929A12.513,12.513,0,0,0,0,31.611a12.579,12.579,0,0,0,1.374-2.8,29.6,29.6,0,0,0,1.021-3.566,34.235,34.235,0,0,0,.631-3.826,34.184,34.184,0,0,0,.2-3.622l3.9.334q0,1.078-.074,2.154t-.186,2.154a12.882,12.882,0,0,0,.891,1.523,10.751,10.751,0,0,0,1.04,1.3v-10.1H1.968v-3.64H8.39V7.8H2.859V4.272H8.39V0h4.2V4.272h4.381V7.8H12.586v3.715l5.42-.037v.409a10.247,10.247,0,0,0,3.044-3.1,11.5,11.5,0,0,0,1.6-3.919H17.709V1.374H34.267q-.037,1.412-.223,3.25t-.427,3.566a20.957,20.957,0,0,1-.575,2.879,3.96,3.96,0,0,1-1.671,2.582,6.085,6.085,0,0,1-3.007.65H26.285a18.346,18.346,0,0,0-.316-1.987,9.329,9.329,0,0,0-.538-1.839H26.99a3.361,3.361,0,0,0,1.522-.26,1.559,1.559,0,0,0,.705-.966,10.93,10.93,0,0,0,.464-2.006q.167-1.15.241-2.377H26.8a14.3,14.3,0,0,1-1.3,4.086,18.593,18.593,0,0,1-2.32,3.622,14.708,14.708,0,0,1-2.951,2.767,14.262,14.262,0,0,0-1-1.059q-.631-.613-1.225-1.1v1.969h-5.16v3.677h4.938v3.9H12.846v5.275A25.481,25.481,0,0,0,21.5,29.2q4.752,0,8.168-.167t5.532-.464q-.149.41-.371,1.263t-.39,1.746a12.615,12.615,0,0,0-.2,1.486q-1.04,0-2.71.019t-3.546.019H21.5a25.238,25.238,0,0,1-9.374-1.5,14.194,14.194,0,0,1-6.107-4.625,26.468,26.468,0,0,1-1,3.269A20.492,20.492,0,0,1,3.6,33.208M19.12,15.6H33.487V27.265H19.12Zm3.935,8.209h6.534V19.056H23.055Z" transform="translate(0 0.219)" fill="#fff"/><path d="M55.9,32.06a10.263,10.263,0,0,0-1.355-1.932A9.191,9.191,0,0,0,52.7,28.419a20.409,20.409,0,0,0,7.778-5.33,21.347,21.347,0,0,0,4.511-8.674l-10.024.3-.334-4.346q.483.037,2.116.019t4.01-.056q2.375-.036,5.049-.111a45.57,45.57,0,0,0,.446-7.578l4.6.037q.036,1.97-.074,3.826t-.334,3.6q2.6-.074,4.863-.149t3.805-.149q1.541-.073,1.949-.111,0,1.56-.186,3.752T80.4,17.963q-.3,2.322-.631,4.365T79.1,25.633a10.26,10.26,0,0,1-1.689,3.9,5.194,5.194,0,0,1-2.933,1.8,20.517,20.517,0,0,1-4.993.427,19.292,19.292,0,0,0-.575-2.3,8.585,8.585,0,0,0-1.058-2.34,31.063,31.063,0,0,0,3.713-.111,3.652,3.652,0,0,0,2.023-.743,3.8,3.8,0,0,0,1.058-1.82,24.569,24.569,0,0,0,.705-2.935q.334-1.783.594-3.77t.371-3.733l-6.608.223A28,28,0,0,1,64.677,25,25.275,25.275,0,0,1,55.9,32.06" transform="translate(-11.94 -0.378)" fill="#fff"/><path d="M106.259,15.022A13.332,13.332,0,0,0,104.9,13.8q-.872-.7-1.931-1.486t-2.06-1.43A13.612,13.612,0,0,0,99.168,9.9l2.97-3.752q.743.41,1.745,1.04t2.06,1.374Q107,9.3,107.93,10.026a16.436,16.436,0,0,1,1.485,1.282ZM102.287,31.4l-2.525-4.569A28.529,28.529,0,0,0,105.312,25a55.78,55.78,0,0,0,5.847-3.009,58.782,58.782,0,0,0,5.569-3.715,53.157,53.157,0,0,0,4.771-4.03,28.681,28.681,0,0,0,3.471-3.9,12.752,12.752,0,0,0,.5,1.56q.353.93.761,1.8a14.051,14.051,0,0,0,.705,1.356A34.9,34.9,0,0,1,122.39,19.8a57.9,57.9,0,0,1-6.033,4.606,65.617,65.617,0,0,1-6.905,4.03,49.743,49.743,0,0,1-7.165,2.972" transform="translate(-22.466 -1.17)" fill="#fff"/><path d="M145.17,33.189a20.241,20.241,0,0,0-1.188-2.173,8.737,8.737,0,0,0-1.337-1.727,37.428,37.428,0,0,0,7.815-3.9,37.441,37.441,0,0,0,6.664-5.535q-1.114-.743-2.19-1.374a20.961,20.961,0,0,0-2.079-1.077l2.562-3.417a38.8,38.8,0,0,1,4.529,2.489q.965-1.374,1.819-2.8a23.953,23.953,0,0,0,1.485-2.916q-1.559.074-3.36.167t-3.36.149q-1.559.056-2.45.093A38.239,38.239,0,0,1,150.4,15.9a33.638,33.638,0,0,1-4.529,4.142,21.415,21.415,0,0,0-1.559-1.709,8.1,8.1,0,0,0-1.708-1.374,29.588,29.588,0,0,0,4.882-4.42,33.757,33.757,0,0,0,3.972-5.46,27.091,27.091,0,0,0,2.543-5.683l4.269,1.337q-.408,1.152-.891,2.284t-1.04,2.21q1.634-.036,3.546-.093t3.583-.149q1.671-.092,2.562-.2l2.9,1.56a39.926,39.926,0,0,1-2.3,5.628A43.026,43.026,0,0,1,163.658,19q1.411,1.04,2.654,2.1a20.212,20.212,0,0,1,2.06,1.987,8.913,8.913,0,0,0-1.169,1.04q-.65.669-1.225,1.374a13.9,13.9,0,0,0-.91,1.226,39.478,39.478,0,0,0-4.344-4.123,38.118,38.118,0,0,1-7.035,6.092,46.086,46.086,0,0,1-8.52,4.495" transform="translate(-32.307 -0.095)" fill="#fff"/><path d="M194.579,15.022a13.33,13.33,0,0,0-1.355-1.226q-.872-.7-1.931-1.486t-2.06-1.43a13.614,13.614,0,0,0-1.745-.984l2.97-3.752q.742.41,1.745,1.04t2.06,1.374q1.058.744,1.986,1.467a16.431,16.431,0,0,1,1.485,1.282ZM190.607,31.4l-2.525-4.569A28.529,28.529,0,0,0,193.632,25a55.779,55.779,0,0,0,5.847-3.009,58.782,58.782,0,0,0,5.569-3.715,53.152,53.152,0,0,0,4.771-4.03,28.678,28.678,0,0,0,3.471-3.9,12.758,12.758,0,0,0,.5,1.56q.353.93.761,1.8a14.055,14.055,0,0,0,.705,1.356A34.9,34.9,0,0,1,210.71,19.8a57.9,57.9,0,0,1-6.033,4.606,65.615,65.615,0,0,1-6.905,4.03,49.744,49.744,0,0,1-7.165,2.972" transform="translate(-42.475 -1.17)" fill="#fff"/><path d="M229.189,32.515a3.167,3.167,0,1,1,2.412-.11,3.044,3.044,0,0,1-2.412.11m1.428-9.244q.323-1.107.86-2.908t1.157-3.888q.621-2.086,1.251-4.09t1.13-3.542q.5-1.537.742-2.2l1.968-5.411,5.024,1.83-1.968,5.41q-.242.664-.847,2.162t-1.408,3.44q-.805,1.941-1.671,3.938l-1.61,3.722q-.745,1.724-1.21,2.781Z" transform="translate(-51.45 -0.059)" fill="#fff"/><path d="M247.992,32.515a3.168,3.168,0,1,1,2.411-.11,3.039,3.039,0,0,1-2.411.11m1.427-9.244q.323-1.107.86-2.908t1.158-3.888q.62-2.086,1.251-4.09t1.13-3.542q.5-1.537.742-2.2l1.968-5.411,5.024,1.83-1.968,5.41q-.241.664-.846,2.162t-1.409,3.44q-.805,1.941-1.67,3.938t-1.61,3.722q-.746,1.724-1.21,2.781Z" transform="translate(-55.71 -0.059)" fill="#fff"/><path d="M13.436,98.661a12.681,12.681,0,0,1-4.863-.241,6.606,6.606,0,0,1-3.3-1.913A4.845,4.845,0,0,1,4.08,93.164a8.033,8.033,0,0,1,2.135-5.182A15.357,15.357,0,0,1,12.1,83.84V78.231q-2.042.149-3.954.223t-3.546,0l-.223-4.272a26.772,26.772,0,0,0,3.453.093Q9.87,74.219,12.1,74V68.016l4.121.037v5.46q1.856-.3,3.471-.65a17.85,17.85,0,0,0,2.654-.762l.446,4.086a22.318,22.318,0,0,1-3.007.854q-1.708.371-3.564.669v4.866a22.917,22.917,0,0,1,2.71-.446,27.994,27.994,0,0,1,2.933-.149,15.124,15.124,0,0,1,6.07,1.1,8.861,8.861,0,0,1,3.805,2.935,7.005,7.005,0,0,1,1.3,4.142,7.365,7.365,0,0,1-2.153,5.609,8,8,0,0,1-5.829,2.006,7.9,7.9,0,0,1-4.808-1.43,7.906,7.906,0,0,1-2.8-4.253,19.357,19.357,0,0,0,2.079-.8,12.177,12.177,0,0,0,1.931-1.022q.927,3.083,3.564,3.083a3.178,3.178,0,0,0,2.487-.947,3.392,3.392,0,0,0,.854-2.359,3.636,3.636,0,0,0-1.634-3.027,8.22,8.22,0,0,0-4.9-1.207,20.57,20.57,0,0,0-5.606.743V95.8a2.815,2.815,0,0,1-.631,2.024,3.571,3.571,0,0,1-2.153.836m-2.673-3.937a1.905,1.905,0,0,0,1.021-.149.711.711,0,0,0,.316-.669V88.223a10.525,10.525,0,0,0-2.71,2.266,3.878,3.878,0,0,0-1,2.452,1.491,1.491,0,0,0,.631,1.3,3.171,3.171,0,0,0,1.745.483m21.57-13.261a17.965,17.965,0,0,0-2.413-1.95Q28.4,78.454,26.8,77.507a19.172,19.172,0,0,0-2.859-1.43l2.339-3.343a23.8,23.8,0,0,1,2.933,1.412q1.6.892,3.119,1.894a22.185,22.185,0,0,1,2.562,1.932q-.371.409-.91,1.114t-1,1.374q-.465.669-.65,1" transform="translate(-0.924 -15.161)" fill="#fff"/><path d="M66.587,100.481a14.76,14.76,0,0,0-1.263-1.337,7.365,7.365,0,0,0-1.447-1.114,18.611,18.611,0,0,0,3.767-2.6A24.345,24.345,0,0,0,70.8,92.068a20.3,20.3,0,0,0,2.209-3.473H71.116a23.468,23.468,0,0,1-4.808,5.813,26.662,26.662,0,0,1-6.516,4.29q-.223-.334-.649-.873t-.891-1.04a4.09,4.09,0,0,0-.835-.724A27.739,27.739,0,0,0,61.277,94a30.148,30.148,0,0,0,3.508-2.6,20.49,20.49,0,0,0,2.729-2.8H65.4a28.5,28.5,0,0,1-3.1,2.749,26.011,26.011,0,0,1-3.361,2.192,11.52,11.52,0,0,0-.872-1.263,10.224,10.224,0,0,0-1.1-1.226q-.891,2.229-1.931,4.513t-1.893,3.807l-3.9-2.192a27.372,27.372,0,0,0,1.6-2.73q.816-1.579,1.578-3.306t1.354-3.362q.594-1.634.929-2.935.7.557,1.781,1.244t1.819,1.1q-.186.706-.483,1.542t-.667,1.764a24.323,24.323,0,0,0,4.4-2.935,23.268,23.268,0,0,0,3.582-3.677h-6.5V80.719H83.553v3.157H69.11q-.26.409-.52.8t-.556.8H82.105q0,1.077-.075,2.6t-.241,3.176q-.167,1.653-.408,3.12a12.582,12.582,0,0,1-.613,2.433A4.753,4.753,0,0,1,79,99.274a5.842,5.842,0,0,1-3.1.687H73.269a15.2,15.2,0,0,0-.334-2.08,6.714,6.714,0,0,0-.669-1.857h2.71a2.777,2.777,0,0,0,1.3-.241,2,2,0,0,0,.78-1.022A9.861,9.861,0,0,0,77.538,93q.224-1.133.391-2.359t.2-2.043H76.574a26.193,26.193,0,0,1-4.01,6.761,21.453,21.453,0,0,1-5.977,5.126m-10.693-17.9a20.291,20.291,0,0,0-1.745-1.356q-1.077-.762-2.227-1.486A15.112,15.112,0,0,0,49.805,78.6L52,75.11q.965.446,2.117,1.114t2.264,1.393a21.979,21.979,0,0,1,1.931,1.393q-.3.334-.8,1.04t-.946,1.412q-.447.706-.669,1.114m2.265-8.321a15.918,15.918,0,0,0-1.671-1.412q-1.04-.78-2.19-1.5a21.225,21.225,0,0,0-2.079-1.17l2.3-3.306q.854.409,2.024,1.114t2.32,1.467a16.5,16.5,0,0,1,1.856,1.393q-.3.334-.818.984t-1,1.319q-.484.669-.743,1.114m4.6-7.392H79.543V79.308H62.762Zm4.121,4.866h8.576V70.059H66.883Zm0,4.569h8.576V74.59H66.883Z" transform="translate(-11.157 -14.9)" fill="#fff"/><path d="M108.962,99.769q-.446-.744-1.188-1.783a8.381,8.381,0,0,0-1.708-1.783,20.7,20.7,0,0,0,6.051-2.582,7.86,7.86,0,0,0,2.933-3.473,5.27,5.27,0,0,1-2.376.594,6.431,6.431,0,0,1-4.548-1.6,5.938,5.938,0,0,1-1.838-4.309,6.186,6.186,0,0,1,.743-3.325,6.006,6.006,0,0,1,2.3-2.322,6.652,6.652,0,0,1,3.378-.854q.3,0,.52.019t.483.056q-.075-.669-.148-1.374a14.212,14.212,0,0,1-.074-1.486q-3.007.111-5.866.334t-5.235.5a35.257,35.257,0,0,0-3.935.65l-.631-4.309q1.337-.111,3.75-.241t5.513-.279q3.1-.149,6.4-.3V66.672H117.8v5.052q2.9-.111,5.532-.2t4.715-.149q2.079-.056,3.267-.019l-.3,4.346q-2.153-.26-5.7-.316T117.8,75.4q0,1.337.093,2.712t.167,2.637a8.576,8.576,0,0,1,1.819,5.72,12.374,12.374,0,0,1-2.859,8.3,16.93,16.93,0,0,1-8.056,5m3.75-12.741a2.381,2.381,0,0,0,1.634-.706,2.289,2.289,0,0,0,.594-1.634,5.145,5.145,0,0,0-.056-.724q-.056-.39-.13-.836a2.5,2.5,0,0,0-1.968-.892,2.438,2.438,0,0,0-1.745.669,2.138,2.138,0,0,0-.668,1.709,2.463,2.463,0,0,0,.65,1.764,2.107,2.107,0,0,0,1.689.65" transform="translate(-22.162 -14.857)" fill="#fff"/><path d="M156.586,99.2a9.916,9.916,0,0,0-.427-1.412,14.8,14.8,0,0,0-.761-1.709,6.237,6.237,0,0,0-.891-1.337q5.939.149,9.077-1.412t3.137-4.42a2.988,2.988,0,0,0-1.337-2.6,6,6,0,0,0-3.49-.929,13.948,13.948,0,0,0-3.564.5,11.842,11.842,0,0,0-3.583,1.634,9.54,9.54,0,0,0-2.84,3.027L147.936,88.8a14.219,14.219,0,0,0,1.281-3.25,37.069,37.069,0,0,0,.872-4.067q.334-2.117.483-4.012a19.222,19.222,0,0,0,.037-3.12l4.641.557a28.376,28.376,0,0,1-.3,4.29,33.3,33.3,0,0,1-1.04,4.885,17.164,17.164,0,0,1,4.121-2.006,13.044,13.044,0,0,1,4.047-.706,11.932,11.932,0,0,1,5.031.984,7.973,7.973,0,0,1,3.323,2.712,6.813,6.813,0,0,1,1.188,3.956,8.477,8.477,0,0,1-1.615,5.07,10.868,10.868,0,0,1-4.938,3.585,25.46,25.46,0,0,1-8.483,1.523m6.163-23.811A18.061,18.061,0,0,0,160.54,73.9q-1.281-.743-2.692-1.412t-2.766-1.17a14.372,14.372,0,0,0-2.395-.687l2.228-3.863a20.983,20.983,0,0,1,2.3.8q1.337.539,2.8,1.207t2.784,1.337a23.546,23.546,0,0,1,2.172,1.226Z" transform="translate(-33.514 -14.878)" fill="#fff"/><path d="M199.092,95.115a5.672,5.672,0,0,1-3.49.836,4.193,4.193,0,0,1-2.9-2.1,24.544,24.544,0,0,1-2.116-4.2,40.749,40.749,0,0,1-1.652-5.126A46.44,46.44,0,0,1,187.9,79.1a35.283,35.283,0,0,1-.316-5.089l4.529.037a24.342,24.342,0,0,0,.111,3.975,38.684,38.684,0,0,0,.705,4.346,33.691,33.691,0,0,0,1.151,4.067,16.626,16.626,0,0,0,1.448,3.139A1.9,1.9,0,0,0,196.66,90.6a1.759,1.759,0,0,0,1.318-.316,11.151,11.151,0,0,0,1.875-1.634,17.05,17.05,0,0,0,1.652-2.006,6.422,6.422,0,0,0,.613,1.263q.427.706.928,1.374a10.189,10.189,0,0,0,.91,1.077,17.911,17.911,0,0,1-2.283,2.749,12.655,12.655,0,0,1-2.58,2.006m14.034-6.946a24.717,24.717,0,0,0-1.151-2.675q-.78-1.6-1.782-3.325t-2-3.195a14.623,14.623,0,0,0-1.856-2.284l3.564-2.266a21.171,21.171,0,0,1,2.06,2.489q1.132,1.56,2.228,3.325t1.949,3.417a19.237,19.237,0,0,1,1.225,2.8,12.165,12.165,0,0,0-2.32.706,10.084,10.084,0,0,0-1.912,1" transform="translate(-42.496 -16.517)" fill="#fff"/><path d="M244.186,99.2a9.922,9.922,0,0,0-.427-1.412A14.808,14.808,0,0,0,243,96.076a6.237,6.237,0,0,0-.891-1.337q5.939.149,9.077-1.412t3.137-4.42a2.988,2.988,0,0,0-1.337-2.6,6,6,0,0,0-3.49-.929,13.948,13.948,0,0,0-3.564.5,11.842,11.842,0,0,0-3.583,1.634,9.54,9.54,0,0,0-2.84,3.027L235.536,88.8a14.22,14.22,0,0,0,1.281-3.25,37.069,37.069,0,0,0,.872-4.067q.334-2.117.483-4.012a19.227,19.227,0,0,0,.037-3.12l4.641.557a28.378,28.378,0,0,1-.3,4.29,33.3,33.3,0,0,1-1.04,4.885,17.164,17.164,0,0,1,4.121-2.006,13.044,13.044,0,0,1,4.047-.706,11.932,11.932,0,0,1,5.031.984,7.972,7.972,0,0,1,3.323,2.712,6.812,6.812,0,0,1,1.188,3.956,8.477,8.477,0,0,1-1.615,5.07,10.868,10.868,0,0,1-4.938,3.585,25.46,25.46,0,0,1-8.483,1.523m6.163-23.811A18.062,18.062,0,0,0,248.14,73.9q-1.281-.743-2.692-1.412t-2.766-1.17a14.371,14.371,0,0,0-2.395-.687l2.228-3.863a20.982,20.982,0,0,1,2.3.8q1.337.539,2.8,1.207t2.784,1.337a23.542,23.542,0,0,1,2.172,1.226Z" transform="translate(-53.36 -14.878)" fill="#fff"/><path d="M278.694,92.885a12.209,12.209,0,0,0-1.708-1.189,11.827,11.827,0,0,0-2.042-1,30.552,30.552,0,0,0,4.121-6.185,46.032,46.032,0,0,0,3.007-7.373q-1.856.261-3.453.446t-2.562.26l-.557-4.123q1.3,0,3.36-.186t4.325-.52q.408-1.746.631-3.436t.3-3.287l4.121.594q-.3,2.786-.78,5.423,1.3-.259,2.506-.539t2.172-.539l.557,3.9q-1.151.334-2.766.669t-3.434.631a50.74,50.74,0,0,1-3.267,8.841,48.653,48.653,0,0,1-4.529,7.615m10.247,6.5a6.579,6.579,0,0,1-4.492-1.783,5.285,5.285,0,0,1-1.6-3.975,4.633,4.633,0,0,1,1.912-3.677,7.833,7.833,0,0,1,5.253-1.374q.52.037,1.04.056a8.956,8.956,0,0,1,1,.093V80.292h4.232v9.435a21.46,21.46,0,0,1,4.028,1.82,31.464,31.464,0,0,1,3.694,2.526,9.355,9.355,0,0,0-1.429,1.709,12.3,12.3,0,0,0-1.132,1.969,30.086,30.086,0,0,0-2.487-2.024,19.186,19.186,0,0,0-2.71-1.653q-.371,5.646-7.314,5.312m.334-3.715a2.957,2.957,0,0,0,2.1-.65,3.07,3.07,0,0,0,.687-2.284v-.26a15.018,15.018,0,0,0-2.376-.334,3.767,3.767,0,0,0-2.023.409,1.479,1.479,0,0,0-.8,1.263,1.555,1.555,0,0,0,.594,1.337,2.8,2.8,0,0,0,1.819.52m12.994-14.636a14.228,14.228,0,0,0-1.6-1.412q-1-.78-2.153-1.56t-2.283-1.412a12.99,12.99,0,0,0-1.986-.929l2.19-3.269q.891.371,2.079.984t2.413,1.374q1.225.761,2.265,1.5a16.464,16.464,0,0,1,1.708,1.374Z" transform="translate(-62.288 -14.77)" fill="#fff"/><path d="M333.732,95.115a5.672,5.672,0,0,1-3.49.836,4.193,4.193,0,0,1-2.9-2.1,24.541,24.541,0,0,1-2.116-4.2,40.754,40.754,0,0,1-1.652-5.126,46.447,46.447,0,0,1-1.04-5.423,35.281,35.281,0,0,1-.316-5.089l4.529.037a24.342,24.342,0,0,0,.111,3.975,38.677,38.677,0,0,0,.705,4.346,33.7,33.7,0,0,0,1.151,4.067,16.626,16.626,0,0,0,1.448,3.139A1.9,1.9,0,0,0,331.3,90.6a1.759,1.759,0,0,0,1.318-.316,11.152,11.152,0,0,0,1.875-1.634,17.052,17.052,0,0,0,1.652-2.006,6.422,6.422,0,0,0,.613,1.263q.427.706.928,1.374a10.191,10.191,0,0,0,.91,1.077,17.909,17.909,0,0,1-2.283,2.749,12.655,12.655,0,0,1-2.58,2.006m14.034-6.946a24.713,24.713,0,0,0-1.151-2.675q-.78-1.6-1.782-3.325t-2-3.195a14.624,14.624,0,0,0-1.856-2.284l3.564-2.266a21.167,21.167,0,0,1,2.06,2.489q1.132,1.56,2.228,3.325t1.949,3.417A19.235,19.235,0,0,1,352,86.46a12.164,12.164,0,0,0-2.32.706,10.084,10.084,0,0,0-1.912,1" transform="translate(-72.998 -16.517)" fill="#fff"/><path d="M3.744,151.059V131.52h11.4v2.414h-8.8v17.124Z" transform="translate(-0.848 -29.521)" fill="#fff"/><path d="M37.838,164.587q-.334-.856-.743-1.8t-.854-1.95q-1.262.409-2.84.892t-3.23.966q-1.652.483-3.174.873t-2.636.65l-1.225-4.235q.483-.074,1.114-.2t1.337-.279V134.053h14.59V151.14H30.041v7.318q1.188-.3,2.3-.594t2.042-.557q-.52-.891-1.04-1.709t-1.04-1.486l3.675-2.043a48.815,48.815,0,0,1,3.081,4.848,46.5,46.5,0,0,1,2.71,5.665q-.854.334-1.986.91t-1.949,1.1m-7.8-23.848h5.866v-2.86H30.041Zm0,6.575h5.866v-3.046H30.041Zm12.474,18.833V134.016H56.4v23.476a3.8,3.8,0,0,1-1.1,3.027,5.308,5.308,0,0,1-3.508.947H49.2a20.011,20.011,0,0,0-.353-2.3q-.278-1.374-.538-2.266h2.265a1.934,1.934,0,0,0,1.132-.26,1.182,1.182,0,0,0,.353-1V138.028h-5.2v28.12Z" transform="translate(-5.241 -30.085)" fill="#fff"/><path d="M91.023,165.854V155.341H86.605v9.4H82.3V151.85h8.725v-1.857H85.417v-5.46H80.443V148.1a47.032,47.032,0,0,1-.947,10.159,22.324,22.324,0,0,1-2.877,7.225q-.446-.26-1.207-.613t-1.5-.669a8.532,8.532,0,0,0-1.188-.427Q76.1,158.2,76.1,148.358v-13.41H89.5v-3.38h4.566v3.38h12.995v3.64h-6.683v2.377H107.4v3.566h-7.017v5.46H95.255v1.857h9.281v9.175a3.372,3.372,0,0,1-1.1,2.8,5.279,5.279,0,0,1-3.322.873H97.483a12.129,12.129,0,0,0-.185-1.356q-.15-.8-.335-1.56a5.92,5.92,0,0,0-.408-1.207h2.45a1.77,1.77,0,0,0,1.057-.241,1.142,1.142,0,0,0,.316-.947v-4.049H95.255v10.512Zm-10.58-24.888h4.975v-2.377H80.443Zm9.429,0h6.274v-2.377H89.872Zm0,5.646h6.274v-2.08H89.872Z" transform="translate(-16.474 -29.531)" fill="#fff"/><path d="M118.992,170.547v-2.414h8.8V151.008h2.6v19.539Z" transform="translate(-26.957 -33.927)" fill="#fff"/><path d="M161.7,165.8v-5.609h-4.269v-4.383H161.7V148.79q-1.225,1.97-2.673,3.919t-2.914,3.622a33.554,33.554,0,0,1-2.84,2.9q-.371-.446-.928-1a15.2,15.2,0,0,0-1.151-1.04v8.581h-4.418V147.527q-.594.744-1.169,1.43t-1.169,1.319a12.124,12.124,0,0,0-1.5-1.393,9.37,9.37,0,0,0-1.763-1.133,20.154,20.154,0,0,0,2.71-3.269,42.546,42.546,0,0,0,2.58-4.309q1.205-2.3,2.079-4.458A23.115,23.115,0,0,0,149.744,132l4.158,1.114a32.367,32.367,0,0,1-1.151,3.529q-.705,1.821-1.559,3.64v14.933a42.2,42.2,0,0,0,3.23-3.492q1.707-2.042,3.23-4.253a35.317,35.317,0,0,0,2.525-4.216h-7.462v-4.123H161.7v-7.095h4.344v7.095h9.616v4.123h-8.613a29.028,29.028,0,0,0,2.135,3.492q1.281,1.82,2.766,3.566t2.933,3.213q1.448,1.468,2.6,2.433a6.743,6.743,0,0,0-1.132.817q-.651.557-1.262,1.17a9.239,9.239,0,0,0-.984,1.133,40.494,40.494,0,0,1-4.1-4.4,55.012,55.012,0,0,1-3.954-5.479v6.612h4.084v4.383h-4.084V165.8Z" transform="translate(-31.981 -29.629)" fill="#fff"/><path d="M193.333,161.125q.074-.817.093-1.987t0-2.34a16.861,16.861,0,0,0-.13-1.987l2.562-.3q.074.78.13,1.95t.075,2.359q.017,1.189.018,2.08a8.664,8.664,0,0,0-1.354.037q-.762.075-1.393.186M210,165.917a6.494,6.494,0,0,0-.594-1.059q-.408-.613-.872-1.226a7.319,7.319,0,0,0-.872-.984,15.7,15.7,0,0,0,4.937-2.656,8.847,8.847,0,0,0,2.9-4.179H209.52v-9.361h6.424V144.3h-4.269v-2.377q-.632.483-1.263.91t-1.187.762a9.877,9.877,0,0,0-.817-1.133,16.078,16.078,0,0,0-1.114-1.244v.371h-3.231v2.154h3.231v3.232h-3.231v2.452h4.381q0,2.117-.073,4.439t-.241,4.383a27.127,27.127,0,0,1-.464,3.436,5.127,5.127,0,0,1-1.615,3.065,5.74,5.74,0,0,1-3.508.873H200.61a13.714,13.714,0,0,0-.259-1.876,8.737,8.737,0,0,0-.483-1.727h2.043a2.893,2.893,0,0,0,1.6-.334,2.711,2.711,0,0,0,.779-1.6q.074-.3.149-.724c.049-.284.087-.588.111-.91q-.371.111-.8.223a5.623,5.623,0,0,0-.613.186q-.15-1.076-.464-2.563a21.407,21.407,0,0,0-.65-2.452l1.893-.483q.186.483.39,1.226t.39,1.523q.037-.927.056-1.839t.019-1.69h-9.949V132.894h13.773V136.2h-4.529v2.154h3.231v1.932a20.377,20.377,0,0,0,3.434-2.4,26.1,26.1,0,0,0,3.137-3.157,13.782,13.782,0,0,0,2.079-3.213l3.044.594A17.316,17.316,0,0,0,221.6,134.9a26.408,26.408,0,0,0,3.546,2.6,24.044,24.044,0,0,0,3.824,1.932,10.468,10.468,0,0,0-1.391,1.783,9.911,9.911,0,0,0-.948,1.783q-.631-.3-1.3-.669T224,141.512V144.3h-4.159v2.154h6.646v9.361h-5.865a10.1,10.1,0,0,0,3.322,3.937,20.079,20.079,0,0,0,4.882,2.637,7.947,7.947,0,0,0-.909,1.021q-.5.65-.929,1.319a12.574,12.574,0,0,0-.649,1.114,23.038,23.038,0,0,1-4.511-2.712,14.332,14.332,0,0,1-3.546-3.937,12.993,12.993,0,0,1-3.509,3.975A22.918,22.918,0,0,1,210,165.917m-13.068-5.646q0-.669-.074-1.764t-.167-2.154a15.721,15.721,0,0,0-.2-1.616l2.19-.3q.148.669.278,1.69t.223,2.024q.093,1,.13,1.709-.371.037-1.151.186t-1.225.223m1.411-21.916h2.413V136.2h-2.413Zm0,5.386h2.413v-2.154h-2.413Zm0,5.683h2.413v-2.452h-2.413Zm1.782,10.141q-.037-.706-.166-1.709t-.3-1.969a12.678,12.678,0,0,0-.353-1.56l2.079-.371q.186.669.371,1.634t.334,1.913q.149.947.186,1.616l-.631.13-.892.186c-.3.063-.507.106-.631.13m12.883-18.722H223a30.933,30.933,0,0,1-2.97-2.414,24,24,0,0,1-2.375-2.489,20.14,20.14,0,0,1-2.042,2.47,32.415,32.415,0,0,1-2.6,2.433m.185,11.627h2.747V149.8H213.2Zm6.645,0h2.97V149.8h-2.97Z" transform="translate(-43.791 -29.521)" fill="#fff"/></g></g><g transform="translate(-38 -40)"><g transform="translate(96.469 356.142)"><path d="M19.031,33.1v1.322a6.256,6.256,0,0,1-1.879,4.6,6.237,6.237,0,0,1-4.626,1.96H6.766a6.294,6.294,0,0,0-6.547,6H10.3V61.31h5.892V46.424l.479-.2a12.493,12.493,0,0,0,8.294-11.8V27.659A5.709,5.709,0,0,0,19.031,33.1" transform="translate(-0.219 -24.259)" fill="#fff"/><path d="M49.485,33.06V48.745a6.438,6.438,0,0,1-1.879,4.6,6.074,6.074,0,0,1-4.582,1.921H37.349a6.336,6.336,0,0,0-6.59,6.042H43.023A11.848,11.848,0,0,0,51.8,57.63a12.183,12.183,0,0,0,3.577-8.884V27.659a5.665,5.665,0,0,0-5.892,5.4" transform="translate(2.435 -24.259)" fill="#fff"/><path d="M41.891,27.659H37.352a6.5,6.5,0,0,0-6.59,6.409H41.891Z" transform="translate(2.435 -24.259)" fill="#fff"/><path d="M61.222,33.7H80.035v3.681a6.241,6.241,0,0,1-1.921,4.64,6.346,6.346,0,0,1-4.582,1.921,11.834,11.834,0,0,0-8.73,3.721,12.2,12.2,0,0,0-3.578,8.884v4.765h5.893V56.547A6.417,6.417,0,0,1,69.038,51.9a6.1,6.1,0,0,1,4.5-1.961A6.254,6.254,0,0,1,78.159,51.9a6.33,6.33,0,0,1,1.88,4.642v4.765h5.936V56.547a12.187,12.187,0,0,0-3.8-9.04l-.523-.522.523-.519a12.326,12.326,0,0,0,3.8-9.085V27.659H67.812a6.337,6.337,0,0,0-6.59,6.041" transform="translate(4.661 -24.259)" fill="#fff"/><path d="M91.725,33.612V43.688h5.892V33.63h12.92v6.934H108.7a6.3,6.3,0,0,0-6.547,6.01h8.38V49.5a6.261,6.261,0,0,1-1.921,4.65,6.348,6.348,0,0,1-4.582,1.923,6.249,6.249,0,0,1-4.5-1.923,6.371,6.371,0,0,1-1.879-3.927c-3.416,0-5.754,3.4-4.031,6.109A13.034,13.034,0,0,0,95.3,58.436a12.3,12.3,0,0,0,16.581.9,11.369,11.369,0,0,0,.965-.9A12.283,12.283,0,0,0,116.47,49.5V27.578H98.3a6.32,6.32,0,0,0-6.57,6.033" transform="translate(7.102 -24.265)" fill="#fff"/><path d="M139.936,33.06V48.745a6.429,6.429,0,0,1-1.879,4.6,6.072,6.072,0,0,1-4.582,1.921H127.8a6.336,6.336,0,0,0-6.59,6.042h12.266a11.853,11.853,0,0,0,8.774-3.681,12.192,12.192,0,0,0,3.577-8.884V27.659a5.665,5.665,0,0,0-5.892,5.4" transform="translate(9.461 -24.259)" fill="#fff"/><path d="M132.341,27.659H127.8a6.5,6.5,0,0,0-6.59,6.407h11.129Z" transform="translate(9.503 -24.259)" fill="#fff"/><path d="M157.606,27.659a5.665,5.665,0,0,0-5.892,5.4V61.313h5.892V47.464h14.681V41.5H157.606Z" transform="translate(11.918 -24.259)" fill="#fff"/><path d="M196.411,50.727V40.674a10.71,10.71,0,0,0-3.141-7.739,10.232,10.232,0,0,0-7.639-3.192h-2.082a6.317,6.317,0,0,0-6.578,6.013v20h5.891V35.683h2.769a4.762,4.762,0,0,1,3.492,1.437,4.821,4.821,0,0,1,1.44,3.55V50.727a10.707,10.707,0,0,0,3.142,7.739,10.352,10.352,0,0,0,6.94,3.192V55.633a4.929,4.929,0,0,1-4.235-4.905" transform="translate(13.927 -24.096)" fill="#fff"/><path d="M203.342,46.4h20.22V39.82H210.1A6.672,6.672,0,0,0,203.34,46.4" transform="translate(15.824 -24.318)" fill="#fff"/><path d="M238.975,39.268h-4.582a6.415,6.415,0,0,0-6.5,6.324h11.085Z" transform="translate(17.958 -24.318)" fill="#fff"/><path d="M247.853,29.561a2.6,2.6,0,0,0,1.855-.721,2.359,2.359,0,0,0,.763-1.785,2.425,2.425,0,0,0-.763-1.8,2.567,2.567,0,0,0-1.855-.744,2.5,2.5,0,0,0-2.575,2.547,2.393,2.393,0,0,0,.741,1.785,2.524,2.524,0,0,0,1.834.721" transform="translate(19.468 -24.506)" fill="#fff"/><path d="M238.975,28.248h-4.5a6.5,6.5,0,0,0-6.59,6.409h11.085Z" transform="translate(17.958 -24.213)" fill="#fff"/><path d="M255.794,25.252a2.489,2.489,0,0,0-1.834-.743,2.526,2.526,0,0,0-1.834.721,2.453,2.453,0,0,0-.788,1.824,2.361,2.361,0,0,0,.766,1.786,2.6,2.6,0,0,0,1.855.721,2.529,2.529,0,0,0,1.834-.721,2.391,2.391,0,0,0,.741-1.784,2.46,2.46,0,0,0-.741-1.805" transform="translate(19.995 -24.506)" fill="#fff"/><path d="M246.614,37.993V50.26a7.1,7.1,0,0,1-1.879,4.922,5.9,5.9,0,0,1-4.582,2.037H227.889V63.63h12.264a11.482,11.482,0,0,0,8.73-3.9,13.416,13.416,0,0,0,3.624-9.465v-18a5.813,5.813,0,0,0-5.893,5.731" transform="translate(17.957 -25.942)" fill="#fff"/><path d="M198.883,27.578a4.839,4.839,0,0,0-3.5,1.407,4.572,4.572,0,0,0-1.445,3.4,4.469,4.469,0,0,0,1.466,3.381,5.066,5.066,0,0,0,6.957,0,4.553,4.553,0,0,0,1.424-3.381,4.635,4.635,0,0,0-1.422-3.4,4.77,4.77,0,0,0-3.481-1.407m1.213,5.991a1.683,1.683,0,0,1-1.213.5,1.741,1.741,0,0,1-1.241-.514,1.542,1.542,0,0,1-.534-1.173,1.616,1.616,0,0,1,.54-1.2,1.718,1.718,0,0,1,1.235-.527,1.784,1.784,0,0,1,1.731,1.733,1.6,1.6,0,0,1-.518,1.184" transform="translate(15.353 -24.265)" fill="#fff"/></g><path d="M2.453-8.437v1.419c.319-.022.792-.033,1.144-.033H7.81c.4,0,.913.011,1.21.033V-8.437a10.371,10.371,0,0,1-1.188.055H3.6A9.272,9.272,0,0,1,2.453-8.437Zm7.491,3.19-.979-.605a2.32,2.32,0,0,1-.8.11H2.717c-.341,0-.814-.033-1.276-.066v1.43c.462-.044,1.012-.055,1.276-.055H8.03A4.772,4.772,0,0,1,6.9-2.53,7.42,7.42,0,0,1,3.091-.605L4.18.638A8.237,8.237,0,0,0,8.107-1.738,7.905,7.905,0,0,0,9.735-4.785,4.076,4.076,0,0,1,9.944-5.247ZM13.651-8.36l-1.034,1.1a22.872,22.872,0,0,1,2.75,2.376l1.122-1.144A22.216,22.216,0,0,0,13.651-8.36ZM12.276-1.034,13.2.418a11.913,11.913,0,0,0,4.081-1.551,11.7,11.7,0,0,0,4.07-4.07l-.858-1.551a10.358,10.358,0,0,1-4,4.279A11.337,11.337,0,0,1,12.276-1.034ZM24.068-8.305v1.419c.33-.022.8-.033,1.177-.033h3.6c.385,0,.814.011,1.188.033V-8.305a8.634,8.634,0,0,1-1.188.088h-3.6A8.23,8.23,0,0,1,24.068-8.305ZM22.792-5.489v1.441c.308-.022.737-.044,1.056-.044h3.025a4.727,4.727,0,0,1-.682,2.431A4.492,4.492,0,0,1,24.2-.088l1.287.935A5.213,5.213,0,0,0,27.7-1.265a6.978,6.978,0,0,0,.7-2.827h2.651c.308,0,.726.011,1,.033v-1.43a8.319,8.319,0,0,1-1,.066H23.848A8.375,8.375,0,0,1,22.792-5.489Zm7.9-3.575-.88.363a14.006,14.006,0,0,1,.869,1.529l.88-.385C31.35-7.964,30.965-8.657,30.69-9.064Zm1.3-.495-.869.363A12.978,12.978,0,0,1,32-7.678l.88-.385A17.2,17.2,0,0,0,31.988-9.559Zm1.419,6.424.649,1.3a22.948,22.948,0,0,0,3.157-1.287v2.9c0,.385-.033.968-.055,1.188h1.628A6.125,6.125,0,0,1,38.709-.22V-3.993a14.419,14.419,0,0,0,2.464-2L40.084-7.062a11.46,11.46,0,0,1-2.739,2.354A14.525,14.525,0,0,1,33.407-3.135ZM45.881-8.36l-1.034,1.1A22.871,22.871,0,0,1,47.6-4.884l1.122-1.144A22.216,22.216,0,0,0,45.881-8.36ZM44.506-1.034,45.43.418a11.913,11.913,0,0,0,4.081-1.551,11.7,11.7,0,0,0,4.07-4.07l-.858-1.551a10.358,10.358,0,0,1-4,4.279A11.338,11.338,0,0,1,44.506-1.034ZM62.8-9.009l-.869.352a12.756,12.756,0,0,1,.8,1.419l-.077-.044a3.465,3.465,0,0,1-.957.132H59.5c.011-.022.022-.033.033-.055A11.412,11.412,0,0,1,60.2-8.327l-1.617-.528a4.977,4.977,0,0,1-.495,1.144,9.513,9.513,0,0,1-3.432,3.542l1.232.924a12.36,12.36,0,0,0,2.783-2.662h3.091A7.781,7.781,0,0,1,60.2-2.915,8.8,8.8,0,0,1,55.77-.187l1.3,1.166A10.245,10.245,0,0,0,61.5-2.134,11.168,11.168,0,0,0,63.426-5.8a4.4,4.4,0,0,1,.363-.792l-.935-.572.814-.341A13.983,13.983,0,0,0,62.8-9.009Zm1.3-.5-.869.352a11.663,11.663,0,0,1,.891,1.518l.869-.374A15.706,15.706,0,0,0,64.1-9.5Zm9.086,2.772a.7.7,0,0,1,.693-.7.709.709,0,0,1,.7.7.7.7,0,0,1-.7.693A.69.69,0,0,1,73.183-6.732Zm-.726,0a1.408,1.408,0,0,0,1.419,1.419,1.418,1.418,0,0,0,1.43-1.419,1.427,1.427,0,0,0-1.43-1.43A1.418,1.418,0,0,0,72.457-6.732Zm-6.842,3.6,1.32,1.364c.2-.286.462-.671.715-1.023.44-.594,1.221-1.683,1.65-2.233.319-.4.55-.418.9-.066.4.407,1.375,1.474,2.013,2.233S73.8-.968,74.536-.055l1.21-1.3c-.847-.9-1.969-2.123-2.706-2.9-.66-.715-1.507-1.6-2.244-2.288-.858-.8-1.507-.682-2.156.088-.759.9-1.617,1.98-2.112,2.486C66.187-3.641,65.945-3.4,65.615-3.135ZM77.242-5.093v1.727c.407-.033,1.144-.055,1.771-.055H84.92c.462,0,1.023.044,1.287.055V-5.093c-.286.022-.77.066-1.287.066H79.013C78.441-5.027,77.638-5.06,77.242-5.093Zm17.8-3.355-.924.385a9.936,9.936,0,0,1,.968,1.727l.957-.407A18.7,18.7,0,0,0,95.04-8.448Zm1.507-.528-.935.385a10.57,10.57,0,0,1,1.034,1.672l.935-.418A14.146,14.146,0,0,0,96.547-8.976Zm-6.292.319-.792,1.21c.726.407,1.87,1.144,2.486,1.573l.814-1.21C92.191-7.491,90.981-8.261,90.255-8.657ZM88.22-.847,89.045.594A13.834,13.834,0,0,0,92.719-.759a13.269,13.269,0,0,0,4.367-3.96l-.847-1.5A11.135,11.135,0,0,1,91.96-2.09,11.8,11.8,0,0,1,88.22-.847Zm.341-5.3-.792,1.21c.737.4,1.881,1.133,2.508,1.573l.8-1.232C90.519-4.994,89.309-5.753,88.561-6.149Zm10.89.3c.121-.242.253-.517.374-.825h1.111v.825Zm2.728-.825h1.969V-7.865h-1.969V-9.251h-1.243v1.386h-.7a10.251,10.251,0,0,0,.253-1l-1.2-.253A8.589,8.589,0,0,1,98.274-6.27a10.168,10.168,0,0,1,.99.418h-.825v1.177h2.5v.8H98.868V.077h1.166V-2.706h.9V.946h1.243V-2.706h.968V-1.1c0,.11-.033.132-.132.132a4.963,4.963,0,0,1-.682-.011,4.114,4.114,0,0,1,.319,1.111,2.4,2.4,0,0,0,1.276-.2c.319-.187.4-.495.4-1v-2.8h-2.145v-.8h2.409V-5.852h-2.409ZM106.3-8.415h-1.221v6.193H106.3Zm.748-.715V-.605c0,.187-.066.231-.242.242s-.759,0-1.32-.022a5.745,5.745,0,0,1,.385,1.32,4.51,4.51,0,0,0,1.892-.253c.4-.22.539-.572.539-1.276V-9.13Zm4.73-.143a11.444,11.444,0,0,1-2.508,4.114,8.938,8.938,0,0,1,.726,1.4c.22-.242.451-.517.682-.792v5.5H112V-6.589a17.134,17.134,0,0,0,1.056-2.288Zm7.887,2.992V-7.524H115.4a13,13,0,0,0,.539-1.364l-1.265-.319a10.92,10.92,0,0,1-2.332,4.147,8.9,8.9,0,0,1,1,.913,12.214,12.214,0,0,0,1.441-2.134h.418V.957h1.342V-1.485h2.992V-2.7h-2.992V-3.938h2.849V-5.126h-2.849V-6.281Zm7.8,2.266a5.878,5.878,0,0,1-1.936,2.024,5.9,5.9,0,0,1-1.848-2.024Zm.968-1.331-.231.044h-2.057V-6.578h4.026v-1.3h-4.026v-1.43h-1.353v1.43h-4v1.3h4V-5.3h-3.454v1.287h2.035l-.968.33a8.5,8.5,0,0,0,1.848,2.376,14.5,14.5,0,0,1-3.9,1,4.984,4.984,0,0,1,.715,1.265,14.672,14.672,0,0,0,4.389-1.4A11.726,11.726,0,0,0,129.833.979,6.719,6.719,0,0,1,130.669-.3a12.751,12.751,0,0,1-3.905-.99,7.777,7.777,0,0,0,2.585-3.542Zm6.292,1.012-.924.242V-6.028h.99v-1.21h-.99V-9.306h-1.2v2.068H131.45v1.21H132.6v2.255c-.484.121-.924.231-1.3.308l.2,1.287,1.1-.33V-.429c0,.143-.055.187-.187.187a8.675,8.675,0,0,1-.9-.011,4.866,4.866,0,0,1,.33,1.21,2.809,2.809,0,0,0,1.518-.242c.33-.209.44-.539.44-1.144v-2.42c.363-.1.726-.209,1.089-.319Zm4.741,1.991a3.538,3.538,0,0,1-.814,1.1,4.023,4.023,0,0,1-1.1-1.1Zm.748-.979-.209.033H137.4c.033-.143.055-.286.088-.429H141.5V-4.774h-3.883c.022-.176.033-.341.044-.517h3.52V-6.314H140.14c.286-.429.6-.935.9-1.419l-1.21-.352c.495-.066.946-.132,1.364-.209l-.737-.979a36.078,36.078,0,0,1-5.533.528,3.352,3.352,0,0,1,.275.968,43.452,43.452,0,0,0,4.631-.308,11.908,11.908,0,0,1-.858,1.771H137.6l1.023-.231a11.049,11.049,0,0,0-.3-1.331L137.3-7.7a10.849,10.849,0,0,1,.242,1.386h-1.265l.616-.2c-.1-.33-.33-.858-.495-1.265l-.99.275a11.564,11.564,0,0,1,.4,1.188h-.682v1.023h1.3c-.022.165-.033.341-.044.517h-1.463v1.056h1.32a5.106,5.106,0,0,1-2.266,3.707,3.638,3.638,0,0,1,.847.946,5.616,5.616,0,0,0,2.035-2.42,4.592,4.592,0,0,0,.836.891,6.744,6.744,0,0,1-1.793.605,4.362,4.362,0,0,1,.7.968,7.651,7.651,0,0,0,2.079-.858A8.389,8.389,0,0,0,141,.968a4.324,4.324,0,0,1,.77-1.067,8.472,8.472,0,0,1-2.112-.594,5.451,5.451,0,0,0,1.265-2.343Zm7-5.247-1.375.451a28.142,28.142,0,0,1,1.144,2.981l1.386-.484A26.589,26.589,0,0,0,147.213-8.569Zm5.027.88-1.65-.473a9.981,9.981,0,0,1-1.694,4.62A8.824,8.824,0,0,1,144.551-.7L145.783.528A9.961,9.961,0,0,0,150.106-2.7a12.517,12.517,0,0,0,1.848-4.147A6.407,6.407,0,0,1,152.24-7.689Zm-8.085-.2-1.408.484a27.436,27.436,0,0,1,1.265,3.113l1.419-.517C145.178-5.555,144.485-7.194,144.155-7.887Zm9.867,2.794v1.727c.407-.033,1.144-.055,1.771-.055H161.7c.462,0,1.023.044,1.287.055V-5.093c-.286.022-.77.066-1.287.066h-5.907C155.221-5.027,154.418-5.06,154.022-5.093ZM169.543-.242l.924.759a2.35,2.35,0,0,1,.473-.33,12.111,12.111,0,0,0,3.729-3l-.847-1.21A6.966,6.966,0,0,1,171.1-1.705V-7.458a5.586,5.586,0,0,1,.077-.957h-1.639a4.877,4.877,0,0,1,.088.946v6.413A4.187,4.187,0,0,1,169.543-.242ZM164.45-.407l1.342.891a6.45,6.45,0,0,0,1.958-3.157,24.271,24.271,0,0,0,.33-4.73,7.245,7.245,0,0,1,.077-1H166.54a4.175,4.175,0,0,1,.1,1.012,18.955,18.955,0,0,1-.319,4.356A5.189,5.189,0,0,1,164.45-.407Z" transform="translate(96 344)" fill="#fff"/></g></g></svg>