<svg xmlns="http://www.w3.org/2000/svg" xmlns:xlink="http://www.w3.org/1999/xlink" width="280" height="190" viewBox="0 0 280 190"><defs><clipPath id="a"><rect width="280" height="190" fill="none"/></clipPath></defs><path d="M72.9,1.9H0A1.9,1.9,0,0,1-1.9,0,1.9,1.9,0,0,1,0-1.9H72.9A1.9,1.9,0,0,1,74.8,0,1.9,1.9,0,0,1,72.9,1.9Z" transform="translate(172.264 163.891)" fill="#121212"/><g clip-path="url(#a)"><path d="M160.949,96.774a2.5,2.5,0,0,0-3.8-2.144v-.667c0-1.369-.079-2.085-.941-2.948a5.016,5.016,0,0,0-2.859-.891c0-1.4-.193-2.511-2.511-2.511s-2.51,2.511-2.51,2.511,0,.339-1.29.339-2.511.583-2.511,1.7V101.7c0,2.2-.062,7.368-1.659,10.155s-5.529,4.2-5.529,4.2V132.47s12.373-4.215,17.873-6.051c4.167-1.391,5.708-5.6,5.708-8.339V107.346c.011-.1.029-3.871.029-3.969Z" fill="#fbf1e6"/><path d="M85.039,86.411c11.766,0,17.023-8.67,19.465-16.324,3.745-.294,4.36-6.147.659-6.765,0,0-.37-12.5-3.307-18.627-3.456-7.213-12.134-9.424-19.33-9.424-20.371,0-24,21.069-19.517,33.65,2.442,7.656,10.264,17.49,22.03,17.49" fill="#fef1e6"/><path d="M95.044,83.713v5.993l4.339,11.658L75.035,89.706V83.713Z" fill="#fef1e6"/><path d="M98.131,75.427a.95.95,0,0,1-.8-1.459,3.119,3.119,0,0,1,2.443-1.378,4.772,4.772,0,0,1,2.893.77.95.95,0,0,1-1.018,1.6c-1.044-.662-2.287-.652-2.714.022A.949.949,0,0,1,98.131,75.427Z" fill="#121212"/><path d="M99.234,64.641a4.859,4.859,0,0,1-2.575-.782.95.95,0,0,1,1.018-1.6c1.044.662,2.287.652,2.714-.022A.95.95,0,1,1,102,63.25a3.119,3.119,0,0,1-2.443,1.378Q99.394,64.641,99.234,64.641Z" fill="#121212"/><path d="M3.471,3.07a1.9,1.9,0,0,1-.607-.1L-.606,1.8A1.9,1.9,0,0,1-1.8-.606,1.9,1.9,0,0,1,.606-1.8L4.077-.632a1.9,1.9,0,0,1-.606,3.7Z" transform="translate(96.697 57.027)" fill="#121212"/><path d="M85.039,88.311a23.165,23.165,0,0,1-15.794-6.372,29.648,29.648,0,0,1-8.036-12.41,33.684,33.684,0,0,1-1.7-13.688A27.413,27.413,0,0,1,64.136,42.22c4.083-5.789,10.442-8.849,18.39-8.849a31.458,31.458,0,0,1,11.8,2.153,19.527,19.527,0,0,1,5.31,3.219,15.765,15.765,0,0,1,3.937,5.131C106.1,49.15,106.819,58.5,107,61.956a4.587,4.587,0,0,1,1.65,1.476,5.349,5.349,0,0,1,.886,3.248,5.833,5.833,0,0,1-1.289,3.43,5.114,5.114,0,0,1-2.285,1.6C102.178,82.576,94.961,88.311,85.039,88.311Zm-2.513-51.14A20.378,20.378,0,0,0,73.208,39.2a16.3,16.3,0,0,0-5.967,5.207A23.631,23.631,0,0,0,63.3,56.147a29.8,29.8,0,0,0,1.5,12.136q.011.03.02.06A25.728,25.728,0,0,0,71.81,79.135a21.135,21.135,0,0,0,5.916,3.873,18.433,18.433,0,0,0,7.313,1.5,17.537,17.537,0,0,0,6.916-1.322,15.556,15.556,0,0,0,4.962-3.406,25.371,25.371,0,0,0,5.777-10.274,1.9,1.9,0,0,1,1.661-1.317,1.632,1.632,0,0,0,1.389-1.679,1.564,1.564,0,0,0-.223-.932.921.921,0,0,0-.671-.386,1.9,1.9,0,0,1-1.586-1.818c0-.121-.394-12.171-3.121-17.862a13.341,13.341,0,0,0-7.278-6.483A27.647,27.647,0,0,0,82.526,37.171Z" fill="#121212"/><path d="M99.963,104.381a1.9,1.9,0,0,1-.866-.209L74.169,91.4a1.9,1.9,0,0,1-1.033-1.691V83.713a1.9,1.9,0,0,1,3.8,0v4.832L96.4,98.522l-3.131-8.133a1.9,1.9,0,0,1-.127-.683V83.713a1.9,1.9,0,0,1,3.8,0v5.64l4.792,12.445a1.9,1.9,0,0,1-1.774,2.583Z" fill="#121212"/><path d="M75.035,87.806a1.9,1.9,0,0,1,.821.186L100.2,99.65a1.9,1.9,0,0,1,.982,1.112l2.773,8.309a1.9,1.9,0,0,1-2.723,2.264L67.757,92.79a1.9,1.9,0,0,1,.506-3.516l6.357-1.422A1.9,1.9,0,0,1,75.035,87.806Zm22.8,14.924L74.808,91.7l-.833.186L98.81,105.647Z" fill="#121212"/><path d="M61.008,163.318a1.891,1.891,0,0,1-.959-.261l-10.122-5.935A10.9,10.9,0,0,1,43,144.222l5.476-31.366q.013-.072.031-.143a38.257,38.257,0,0,1,7.213-13.84,36.364,36.364,0,0,1,5.693-5.712,24.058,24.058,0,0,1,6.613-3.818l6.357-2.322a1.9,1.9,0,0,1,1.3,3.569L69.33,92.913c-3.595,1.313-7.377,4.276-10.649,8.343a34.407,34.407,0,0,0-6.474,12.328l-5.475,31.362q-.013.073-.031.144a7.1,7.1,0,0,0,4.628,8.5,1.9,1.9,0,0,1,.358.163l10.284,6.03a1.9,1.9,0,0,1-.963,3.539Z" fill="#121212"/><path d="M109.067,163.319a1.9,1.9,0,0,1-.233-3.786l17.155-2.139c4.417-1.489,7.358-2.89,7.961-7.87l1.184-33.237L103.289,114a1.9,1.9,0,0,1-1.652-1.252l-8.381-23.3a1.9,1.9,0,0,1,3.576-1.286l7.962,22.137,32.44,2.328A1.9,1.9,0,0,1,139,114.591l-1.252,35.147q0,.076-.011.151a11.365,11.365,0,0,1-3.991,7.87,20.525,20.525,0,0,1-6.726,3.3,1.9,1.9,0,0,1-.368.084L109.3,163.3A1.923,1.923,0,0,1,109.067,163.319Z" fill="#121212"/><path d="M10.31,30.563a1.9,1.9,0,0,1-1.788-1.257L-1.788.643A1.9,1.9,0,0,1-.643-1.788,1.9,1.9,0,0,1,1.788-.643L12.1,28.019a1.9,1.9,0,0,1-1.788,2.544Z" transform="translate(95.044 88.806)" fill="#121212"/><path d="M119.545,167.789H50.533v-47.62a2.7,2.7,0,0,1,2.7-2.7h63.616a2.7,2.7,0,0,1,2.7,2.7Z" fill="#fff"/><path d="M119.545,161.891H50.533a1.9,1.9,0,0,1-1.9-1.9V120.169a4.6,4.6,0,0,1,4.6-4.6h63.616a4.6,4.6,0,0,1,4.6,4.6v39.821A1.9,1.9,0,0,1,119.545,161.891Zm-67.112-3.8h65.212V120.169a.8.8,0,0,0-.8-.8H53.231a.8.8,0,0,0-.8.8Z" fill="#121212"/><path d="M0-1.9H69.012a1.9,1.9,0,0,1,1.9,1.9V7.8a1.9,1.9,0,0,1-1.9,1.9H0A1.9,1.9,0,0,1-1.9,7.8V0A1.9,1.9,0,0,1,0-1.9ZM67.112,1.9H1.9v4H67.112Z" transform="translate(50.533 159.991)" fill="#121212"/><path d="M80.614,141.883h2.955v2.025h-5.6v-9.519h2.645Z" fill="#ea5457"/><path d="M91.713,139.136a2.894,2.894,0,0,1-1.2,1.135,4.158,4.158,0,0,1-1.964.425H87.24v3.214H84.594v-9.52h3.954a4.3,4.3,0,0,1,1.951.4,2.774,2.774,0,0,1,1.206,1.121,3.278,3.278,0,0,1,.4,1.647,3.148,3.148,0,0,1-.4,1.573m-2.3-1.573q0-1.041-1.121-1.04H87.24v2.066h1.051q1.121,0,1.121-1.026" fill="#ea5457"/><path d="M83.569,63.322,87.239,50.2l-21.6-6.514s-2.087,1.906-3.78,8.947a26.185,26.185,0,0,0,.186,12.888l14.39,4.311s-4.267-8.012.652-10.928c3.737-2.216,6.484,4.417,6.484,4.417" fill="#121212"/><path d="M76.433,71.733a1.9,1.9,0,0,1-.545-.08L61.5,67.342A1.9,1.9,0,0,1,60.234,66.1,27.988,27.988,0,0,1,60.01,52.19a31.838,31.838,0,0,1,2.7-7.573,9.046,9.046,0,0,1,1.645-2.333,1.9,1.9,0,0,1,1.83-.416l21.6,6.514a1.9,1.9,0,0,1,1.281,2.331L85.4,63.834a1.9,1.9,0,0,1-3.585.215,12,12,0,0,0-1.2-2.106c-.722-1-1.466-1.591-1.99-1.591a1.133,1.133,0,0,0-.57.187c-.477.283-1.927,1.142-1.273,4.567A15.717,15.717,0,0,0,78.11,68.94a1.9,1.9,0,0,1-1.677,2.793ZM63.616,64.01l9.682,2.9c-.093-.352-.178-.717-.249-1.091a10.319,10.319,0,0,1,.017-4.439,6.52,6.52,0,0,1,3.051-4.109,4.875,4.875,0,0,1,2.508-.719A5.172,5.172,0,0,1,81.781,57.7a8.33,8.33,0,0,1,1.1,1.018l2.024-7.236L66.362,45.89A25.366,25.366,0,0,0,63.7,53.078,25.041,25.041,0,0,0,63.616,64.01Z" fill="#121212"/><path d="M89.583,44.49l-18.76-5.657s8.859-3.911,12.848-3.542,13.254,2.276,15.719,5.84-3.449,4.578-9.807,3.359" fill="#121212"/><path d="M94.444,46.883a28.277,28.277,0,0,1-5.219-.527,1.9,1.9,0,0,1-.191-.047l-18.76-5.657a1.9,1.9,0,0,1-.219-3.557c.085-.038,2.118-.932,4.7-1.838a27.637,27.637,0,0,1,8.344-1.89c.259,0,.508.011.743.033a47.3,47.3,0,0,1,8.818,1.8c4.166,1.292,6.955,2.924,8.288,4.852a4.98,4.98,0,0,1,.856,1.972,3.416,3.416,0,0,1-.33,2.183,4.722,4.722,0,0,1-3.033,2.189A14.3,14.3,0,0,1,94.444,46.883Zm-4.408-4.241a24.34,24.34,0,0,0,4.408.441A7.739,7.739,0,0,0,98,42.5a2.287,2.287,0,0,0-.172-.286c-1.762-2.548-9.592-4.591-14.332-5.029-.118-.011-.25-.016-.392-.016a23.665,23.665,0,0,0-6.424,1.448Z" fill="#121212"/><path d="M75.035,27.856l.954,7.9,6.366-1.373-1.132-9.232Z" fill="#fff"/><path d="M81.223,23.256a1.9,1.9,0,0,1,1.886,1.669l1.132,9.232a1.9,1.9,0,0,1-1.485,2.089l-6.366,1.373a1.9,1.9,0,0,1-2.287-1.63l-.954-7.905a1.9,1.9,0,0,1,1.126-1.969l6.188-2.7A1.9,1.9,0,0,1,81.223,23.256ZM80.258,32.9l-.611-4.98-2.557,1.115.535,4.432Z" fill="#121212"/><path d="M80.546,25.892A39.151,39.151,0,0,1,75,27.547s-3.581-.436-4.9-2.927a27.506,27.506,0,0,1-1.673-4.784L72.724,21l2.018-4.229,3.848,2.573,2.663-3.579a26.3,26.3,0,0,1,1.1,5.769c.024,2.273-.711,3.743-1.809,4.361" fill="#121212"/><path d="M75,29.174a1.628,1.628,0,0,1-.2-.012,10.323,10.323,0,0,1-2.359-.632,7.081,7.081,0,0,1-3.783-3.149,28.775,28.775,0,0,1-1.813-5.149,1.628,1.628,0,0,1,2-1.968l2.983.807,1.434-3a1.628,1.628,0,0,1,2.373-.652l2.562,1.713,1.739-2.337a1.627,1.627,0,0,1,2.861.492,27.612,27.612,0,0,1,1.174,6.231c.039,3.729-1.636,5.232-2.638,5.8a34.9,34.9,0,0,1-5.97,1.822A1.628,1.628,0,0,1,75,29.174Zm-4.166-7a13.157,13.157,0,0,0,.7,1.685c.672,1.269,2.489,1.855,3.4,2.031a33.234,33.234,0,0,0,4.8-1.415c.486-.273,1-1.186.98-2.926a12.7,12.7,0,0,0-.235-2.038l-.6.8a1.628,1.628,0,0,1-2.21.381L75.4,19.166,74.193,21.7a1.627,1.627,0,0,1-1.894.87Z" fill="#121212"/><path d="M137.338,133.155a1.457,1.457,0,0,1-.39-2.86c.123-.034,12.4-3.453,17.8-5.256a6.462,6.462,0,0,0,3.616-3.012,8.268,8.268,0,0,0,1.1-3.946V107.346q0-.041,0-.082c.01-.341.027-3.7.027-3.887v-6.6a1.056,1.056,0,0,0-1.055-1.054,1.457,1.457,0,0,1,0-2.913,3.972,3.972,0,0,1,3.967,3.967v6.6c0,.034-.009,3.179-.031,3.969h0v10.735a11.148,11.148,0,0,1-1.487,5.4,9.419,9.419,0,0,1-5.216,4.318c-5.472,1.827-17.438,5.159-17.945,5.3A1.458,1.458,0,0,1,137.338,133.155Z" fill="#121212"/><path d="M157.122,108.291a1.458,1.458,0,0,1-1.457-1.531c.011-.483.028-6.835.028-7.183v-6.6a1.055,1.055,0,0,0-1.054-1.053,1.457,1.457,0,0,1,0-2.913,3.971,3.971,0,0,1,3.967,3.966v6.6c0,.058,0,1.853-.01,3.634-.012,3.657-.015,3.682-.031,3.805A1.457,1.457,0,0,1,157.122,108.291Z" fill="#121212"/><path d="M153.322,108.291a1.458,1.458,0,0,1-1.457-1.52c.01-.561.029-9.955.029-10.044v-6.6a1.055,1.055,0,0,0-2.109,0,1.456,1.456,0,0,1-2.913,0,3.967,3.967,0,0,1,7.935,0v6.6c0,.1-.012,10.033-.04,10.274A1.457,1.457,0,0,1,153.322,108.291Z" fill="#121212"/><path d="M137.1,117.515a1.457,1.457,0,0,1-.684-2.743,19.421,19.421,0,0,0,5.152-5.484c0-.242,0-.473,0-.7-.02-2.486-.033-4.085,1.51-5.564V92.974a3.967,3.967,0,0,1,7.934,0v13.86a1.456,1.456,0,1,1-2.913,0V92.974a1.054,1.054,0,0,0-2.108,0v10.72a1.456,1.456,0,0,1-.57,1.155c-.892.685-.962.963-.94,3.717,0,.335.006.715.006,1.119a1.456,1.456,0,0,1-.193.725,21.666,21.666,0,0,1-6.506,6.934A1.45,1.45,0,0,1,137.1,117.515Z" fill="#121212"/><path d="M143.023,117.515a1.457,1.457,0,0,1-1.456-1.457v-9.87a4.305,4.305,0,1,1,8.611,0v4.52a1.456,1.456,0,1,1-2.913,0v-4.52a1.393,1.393,0,0,0-2.785,0v9.87A1.457,1.457,0,0,1,143.023,117.515Z" fill="#121212"/><path d="M201.911,118.57s-14.163-5.052-22.642-5.526a6.263,6.263,0,0,0-4.589,1.183c-1.206,1.086-2.416,4.086,2.474,4.783,9.764,1.872,16.312,5.952,24.123,12.1a7.606,7.606,0,0,0-11.162,2.606,9.939,9.939,0,0,0,2.077,11.125c2.889,2.691,9.252,6.351,9.458,9.672s-4.289,3.786-10.4,3.786-4.711,5.589-1.909,5.589h28.231c6.949,0,9.826-2.94,13.248-4.548,4.055-1.9,8.937-6.873,10.679-14.846s3.815-17.649,5.592-24.891c1.065-4.339,3.344-5.056,5.805-5.056s6.515,1.839,6.515-2.027-2.845-4.778-8.686-4.778c-4.931,0-7.6,2.819-8.831,7.592-1.471,5.691-3.62,17.165-5.5,25.417a13.676,13.676,0,0,1-8.658,10.229s-.028-28.567-.028-33.514c0-2.735-1.518-6.11-4.214-8.813-2.179-2.185-7.9-6.417-7.6-11.624.614-10.62-6.334-14.588-6.334-14.588l-8.652-7.966,2.2,9.236a29.219,29.219,0,0,0-10.967,4.505c-4.086,2.824-8.893,7.9-6.76,14.263s15.394,7.192,15.394,7.192Z" fill="#121212"/><path d="M200.91,72.577a1.9,1.9,0,0,1,1.287.5l8.517,7.842a14.432,14.432,0,0,1,3.79,3.728,17.3,17.3,0,0,1,2.48,5.072,21.3,21.3,0,0,1,.809,7.42c-.2,3.494,3.376,6.775,5.744,8.946.48.44.933.856,1.3,1.227a17.826,17.826,0,0,1,3.492,4.928,12.494,12.494,0,0,1,1.277,5.227c0,3.916.018,22.87.025,30.411.218-.153.443-.321.672-.507a12.345,12.345,0,0,0,4.237-7.042c.815-3.573,1.683-7.768,2.523-11.825,1.105-5.341,2.15-10.386,2.992-13.645a12.764,12.764,0,0,1,3.593-6.519,10.185,10.185,0,0,1,7.078-2.5c3.556,0,5.762.339,7.374,1.135a5.683,5.683,0,0,1,3.212,5.543,4.248,4.248,0,0,1-1.379,3.428,4.4,4.4,0,0,1-2.954.936,15.91,15.91,0,0,1-2.413-.248,12.366,12.366,0,0,0-1.669-.19c-1.742,0-3.139.266-3.96,3.609-1.513,6.164-3.26,14.188-4.8,21.267-.266,1.22-.526,2.416-.78,3.576-1.912,8.753-7.312,14.087-11.728,16.16-.733.344-1.47.775-2.25,1.231a21.1,21.1,0,0,1-11.806,3.5H189.344A4.164,4.164,0,0,1,186.2,164.3a4.805,4.805,0,0,1-1.142-3.081,4.394,4.394,0,0,1,1.679-3.476,7.034,7.034,0,0,1,4.52-1.34,41.128,41.128,0,0,0,5.755-.3,4.614,4.614,0,0,0,2.594-.908c.07-.074.175-.186.152-.558-.02-.325-.257-1.074-1.62-2.437a42.892,42.892,0,0,0-4.079-3.4c-1.176-.9-2.286-1.755-3.158-2.567a11.83,11.83,0,0,1-2.507-13.311,8.6,8.6,0,0,1,3.6-3.845,9.953,9.953,0,0,1,2.111-.9,44.374,44.374,0,0,0-17.26-7.293,8.023,8.023,0,0,1-3.172-1.058,4.1,4.1,0,0,1-1.8-2.262,4.776,4.776,0,0,1,1.538-4.749,7.487,7.487,0,0,1,5.173-1.691c.255,0,.522.008.792.023,6.373.356,15.608,3.129,20.269,4.65l-.557-4.383a39.43,39.43,0,0,1-5.715-1.122,21.7,21.7,0,0,1-5.692-2.4,9.266,9.266,0,0,1-4.094-4.81,11.451,11.451,0,0,1-.5-5.4,12.759,12.759,0,0,1,1.714-4.633,21.769,21.769,0,0,1,6.262-6.393,31.263,31.263,0,0,1,9.749-4.387l-1.754-7.35a1.9,1.9,0,0,1,1.848-2.341Zm26.828,80.305a1.9,1.9,0,0,1-1.9-1.9c0-.286-.028-28.625-.028-33.516a8.705,8.705,0,0,0-.915-3.61A13.988,13.988,0,0,0,222.15,110c-.31-.311-.713-.681-1.181-1.109-2.721-2.5-7.276-6.671-6.97-11.966a17.526,17.526,0,0,0-.652-6.1,13.514,13.514,0,0,0-1.933-3.962,10.4,10.4,0,0,0-2.795-2.768,1.9,1.9,0,0,1-.345-.252L204.2,80.092l.759,3.18a1.9,1.9,0,0,1-1.565,2.32,27.579,27.579,0,0,0-10.17,4.189A17.983,17.983,0,0,0,188.066,95a7.878,7.878,0,0,0-.877,6.879,5.6,5.6,0,0,0,2.494,2.789,17.831,17.831,0,0,0,4.656,1.95,35.9,35.9,0,0,0,6.562,1.16,1.9,1.9,0,0,1,1.765,1.657l1.13,8.9a1.9,1.9,0,0,1-2.523,2.029c-.139-.05-14.005-4.965-22.11-5.419-.2-.011-.4-.017-.581-.017a3.916,3.916,0,0,0-2.631.715,1.372,1.372,0,0,0-.445.814c.033.044.385.458,1.917.676l.09.015a46.489,46.489,0,0,1,13.258,4.6,74.672,74.672,0,0,1,11.544,7.768q.08.061.158.124a1.9,1.9,0,0,1-2.37,2.97l-.116-.091a4.942,4.942,0,0,0-3.029-.951,6.312,6.312,0,0,0-3.084.814,4.824,4.824,0,0,0-2.033,2.137,8.046,8.046,0,0,0,1.647,8.939c.74.689,1.781,1.488,2.882,2.333a45.563,45.563,0,0,1,4.453,3.723c1.761,1.762,2.627,3.315,2.725,4.888a4.428,4.428,0,0,1-1.176,3.4,7.933,7.933,0,0,1-4.782,2.061,44.418,44.418,0,0,1-6.335.347,3.643,3.643,0,0,0-2.136.5.622.622,0,0,0-.263.517c0,.412.305.773.49.773h28.231a17.372,17.372,0,0,0,9.889-2.979c.818-.478,1.664-.972,2.551-1.389a15.971,15.971,0,0,0,5.521-4.6,21.855,21.855,0,0,0,4.11-8.931c.253-1.159.514-2.355.779-3.574,1.547-7.1,3.3-15.152,4.824-21.364a8.616,8.616,0,0,1,3.12-5.249,7.609,7.609,0,0,1,4.53-1.255,15.06,15.06,0,0,1,2.249.234,13.273,13.273,0,0,0,1.832.2,1.963,1.963,0,0,0,.478-.045,1.883,1.883,0,0,0,.055-.519c0-1.48,0-2.878-6.786-2.878a6.434,6.434,0,0,0-4.527,1.515,9.283,9.283,0,0,0-2.464,4.653c-.819,3.17-1.854,8.17-2.95,13.465-.844,4.075-1.716,8.29-2.539,11.9a17.038,17.038,0,0,1-2.42,5.713,15.571,15.571,0,0,1-3.289,3.564,13.618,13.618,0,0,1-4.27,2.354A1.9,1.9,0,0,1,227.737,152.882Z" fill="#121212"/><path d="M198.481,96.72a1.587,1.587,0,1,1-1.587-1.587,1.587,1.587,0,0,1,1.587,1.587" fill="#fff"/><path d="M3.783,1.9H0A1.9,1.9,0,0,1-1.9,0,1.9,1.9,0,0,1,0-1.9H3.783A1.9,1.9,0,0,1,5.683,0,1.9,1.9,0,0,1,3.783,1.9Z" transform="translate(196.425 90.352)" fill="#fff"/><path d="M183.647,100.952a1.212,1.212,0,0,1,1.041.591l1.344,2.256a1.212,1.212,0,0,1-.764,1.8,5.387,5.387,0,0,1-1.125.126,2.2,2.2,0,0,1-2.321-1.365,2.876,2.876,0,0,1,1.093-3.161A1.211,1.211,0,0,1,183.647,100.952Z" fill="#121212"/><path d="M5.366,1.42q-.042,0-.084,0L-.083.946A.95.95,0,0,1-.946-.083.95.95,0,0,1,.083-.946l5.365.47a.95.95,0,0,1-.082,1.9Z" transform="translate(203.367 98.75)" fill="#fff"/><path d="M4.9,1.981a.954.954,0,0,1-.2-.021L-.2.93A.95.95,0,0,1-.93-.2.95.95,0,0,1,.2-.93L5.093.1A.95.95,0,0,1,4.9,1.981Z" transform="translate(201.946 101.929)" fill="#fff"/></g></svg>