<svg xmlns="http://www.w3.org/2000/svg" xmlns:xlink="http://www.w3.org/1999/xlink" width="51" height="51" viewBox="0 0 51 51"><defs><clipPath id="a"><rect width="51" height="51" transform="translate(117 1354)" fill="#d34141"/></clipPath></defs><g transform="translate(-117 -1354)" clip-path="url(#a)"><path d="M50.868,5.695A7.049,7.049,0,0,0,49.408,2.6a6.1,6.1,0,0,0-.481-.532,7.061,7.061,0,0,0-5-2.072H7.074a7.071,7.071,0,0,0-5,2.072,6.225,6.225,0,0,0-.481.532A6.966,6.966,0,0,0,.138,5.695,6.844,6.844,0,0,0,0,7.07V32.932a7.022,7.022,0,0,0,.586,2.807,6.928,6.928,0,0,0,1.487,2.19c.159.158.316.3.487.447A7.071,7.071,0,0,0,7.074,40H43.925a7.027,7.027,0,0,0,4.515-1.631,6.1,6.1,0,0,0,.487-.441,7.076,7.076,0,0,0,1.493-2.19v-.006a6.987,6.987,0,0,0,.579-2.8V7.07a7.273,7.273,0,0,0-.132-1.375M4.633,4.629A3.417,3.417,0,0,1,7.074,3.617H43.925a3.4,3.4,0,0,1,2.442,1.013,3.36,3.36,0,0,1,.31.362L27.362,21.812a2.837,2.837,0,0,1-3.724,0L4.33,4.984a2.562,2.562,0,0,1,.3-.355m-1.014,28.3V8.727L17.6,20.911,3.626,33.082a1.019,1.019,0,0,1-.007-.151m40.306,3.451H7.074a3.408,3.408,0,0,1-1.711-.453L20.1,23.094l1.376,1.2a6.127,6.127,0,0,0,8.048,0l1.376-1.2L45.637,35.93a3.408,3.408,0,0,1-1.711.453m3.455-3.451a1.079,1.079,0,0,1-.007.151L33.4,20.918,47.381,8.733Z" transform="translate(117 1359)" fill="#fff"/></g></svg>