<svg xmlns="http://www.w3.org/2000/svg" xmlns:xlink="http://www.w3.org/1999/xlink" width="71" height="71" viewBox="0 0 71 71"><defs><clipPath id="a"><rect width="71" height="71" transform="translate(201 1411)" fill="#c9bdbd"/></clipPath></defs><g transform="translate(-201 -1411)" clip-path="url(#a)"><g transform="translate(-1330 -5867.474)"><g transform="translate(1531 7289.474)"><path d="M13.06,44.513H67.292a3.316,3.316,0,0,0,3.317-3.3V3.3A3.316,3.316,0,0,0,67.292,0H13.06A3.314,3.314,0,0,0,9.743,3.3V41.217a3.315,3.315,0,0,0,3.317,3.3m.994-40.229H66.3V40.227H14.055Z" transform="translate(-4.255 0)" fill="#fff"/><path d="M0,84.41v.844a2.689,2.689,0,0,0,2.66,2.7H68.338A2.69,2.69,0,0,0,71,85.254V84.41Z" transform="translate(0 -37.957)" fill="#fff"/><path d="M65.916,30.985l1.146-.037A13.659,13.659,0,0,0,53.415,17.715q-.217,0-.436.006h0a13.665,13.665,0,0,0-13.234,13.65c0,.144,0,.29.007.434A13.664,13.664,0,0,0,53.4,45.039c.144,0,.29,0,.435-.007A13.665,13.665,0,0,0,67.071,31.384c0-.144,0-.29-.008-.435ZM45.238,23.472a11.372,11.372,0,0,1,3.718-2.556,13.205,13.205,0,0,0-1.5,2.951H44.874c.118-.134.239-.266.364-.395m-1.453,1.855h3.209a22.679,22.679,0,0,0-.767,5.319H42.066a11.29,11.29,0,0,1,1.719-5.319m0,12.1a11.293,11.293,0,0,1-1.716-5.319h4.164a22.827,22.827,0,0,0,.76,5.319Zm1.72,2.12c-.218-.211-.425-.433-.627-.66h2.586a15.227,15.227,0,0,0,.725,1.676,11.807,11.807,0,0,0,.762,1.272A11.423,11.423,0,0,1,45.5,39.546m7.175,3.173c-.317-.02-.63-.051-.94-.1a4.521,4.521,0,0,1-.384-.279,8.746,8.746,0,0,1-2.332-3.457h3.656Zm0-5.293H48.507a20.974,20.974,0,0,1-.821-5.319h4.993Zm0-6.779H47.691a21.009,21.009,0,0,1,.822-5.319h4.165Zm0-6.779H49.026c.144-.35.3-.691.458-1a7.727,7.727,0,0,1,1.87-2.453,4.275,4.275,0,0,1,.379-.274q.466-.07.945-.1Zm8.634-.66c.219.211.425.434.627.66H59.354a15.2,15.2,0,0,0-.726-1.675,11.751,11.751,0,0,0-.761-1.273,11.407,11.407,0,0,1,3.445,2.288m-7.174-3.172c.315.019.63.051.938.1a4.638,4.638,0,0,1,.385.279,8.762,8.762,0,0,1,2.331,3.457H54.138Zm0,5.292h4.171a21.036,21.036,0,0,1,.821,5.319H54.138Zm0,6.779h4.986a20.961,20.961,0,0,1-.822,5.319H54.138Zm3.193,7.785a7.706,7.706,0,0,1-1.869,2.451,4.363,4.363,0,0,1-.378.275c-.311.046-.627.079-.946.1V38.886H57.79c-.145.352-.3.691-.459,1.005m4.246-.611a11.354,11.354,0,0,1-3.716,2.556,13.25,13.25,0,0,0,1.5-2.951h2.586c-.12.134-.241.266-.366.395m1.454-1.855H59.823a22.678,22.678,0,0,0,.767-5.319h4.159a11.269,11.269,0,0,1-1.718,5.319m-2.446-6.779a22.8,22.8,0,0,0-.759-5.319h3.207a11.306,11.306,0,0,1,1.716,5.319Z" transform="translate(-17.908 -8.195)" fill="#fff"/></g></g></g></svg>