<svg xmlns="http://www.w3.org/2000/svg" xmlns:xlink="http://www.w3.org/1999/xlink" width="272" height="56" viewBox="0 0 272 56"><defs><clipPath id="a"><rect width="272" height="56" transform="translate(53 67)" fill="#c94343"/></clipPath><clipPath id="b"><rect width="51.943" height="56.002" fill="#ea5457"/></clipPath><clipPath id="c"><rect width="207.568" height="29.781" fill="#121212"/></clipPath></defs><g transform="translate(-53 -67)" clip-path="url(#a)"><g transform="translate(-305 -851)"><g transform="translate(358 918)"><g clip-path="url(#b)"><path d="M22.232,100.8a20.022,20.022,0,0,0-.146,2.372c0,.251.01.5.019.747,3.4.275,18.265,2.421,23.321,18.862a19.76,19.76,0,0,0,3.01-.785,29.4,29.4,0,0,0-26.2-21.2" transform="translate(-16.026 -73.143)" fill="#ea5457"/><path d="M31.675,145.427a20.006,20.006,0,0,0,11.21,9.089,17.121,17.121,0,0,0-11.21-9.089" transform="translate(-22.984 -105.524)" fill="#ea5457"/><path d="M23.249,122.3a19.733,19.733,0,0,0,.872,3.256A20.336,20.336,0,0,1,40.1,138.494a19.979,19.979,0,0,0,2.737.193c.207,0,.413-.01.619-.016A23.244,23.244,0,0,0,23.249,122.3" transform="translate(-16.87 -88.745)" fill="#ea5457"/><path d="M117.513,99.277a28.849,28.849,0,0,0-18.52,7.251,30.725,30.725,0,0,1,2.058,2.316A25.309,25.309,0,0,1,117.7,102.4c0-.11.008-.218.008-.328a20,20,0,0,0-.2-2.79" transform="translate(-71.83 -72.037)" fill="#ea5457"/><path d="M114.061,129.159a20.05,20.05,0,0,1,12.405-5.515,19.731,19.731,0,0,0,.774-3.212,22.787,22.787,0,0,0-14.8,6q.857,1.29,1.622,2.725" transform="translate(-81.587 -87.387)" fill="#ea5457"/><path d="M39.39,7.792h5.194a1.3,1.3,0,0,0,0-2.6H39.39V2.6h5.194a1.3,1.3,0,0,0,0-2.6H7.359a1.3,1.3,0,0,0,0,2.6h5.194V5.2H7.359a1.3,1.3,0,0,0,0,2.6h5.194a25.971,25.971,0,1,0,26.837,0M25.971,53.405a23.362,23.362,0,0,1-13.418-42.5v4.425a19.937,19.937,0,0,0-5.828,9.6,29.768,29.768,0,0,1,5.828,1.033c.839.233,1.7.513,2.574.832a1.306,1.306,0,0,0,.023-.228V2.6H36.792V25.936q1.305-.411,2.6-.7a31.821,31.821,0,0,1,5.708-.732,19.944,19.944,0,0,0-5.708-9.175V10.91a23.362,23.362,0,0,1-13.418,42.5" transform="translate(0 -0.001)" fill="#ea5457"/><path d="M122.882,147.883c.453,1.067.876,2.175,1.244,3.353a20.038,20.038,0,0,0,8.717-8.669c-.278.044-.561.1-.844.164a18.5,18.5,0,0,0-9.116,5.152" transform="translate(-89.165 -103.448)" fill="#ea5457"/></g></g><g transform="translate(420.721 933.342)"><g transform="translate(0 0)" clip-path="url(#c)"><path d="M14,15.927v1.051a5.163,5.163,0,0,1-1.4,3.661A4.506,4.506,0,0,1,9.162,22.2H4.873A4.825,4.825,0,0,0,0,26.975H7.5v11.4h4.386V26.53l.357-.159a9.339,9.339,0,0,0,4.451-3.6,10.3,10.3,0,0,0,1.722-5.794V11.6A4.376,4.376,0,0,0,14,15.927" transform="translate(0 -9.199)" fill="#121212"/><path d="M124.188,15.895V28.376a5.311,5.311,0,0,1-1.4,3.663,4.384,4.384,0,0,1-3.411,1.529h-4.224a4.857,4.857,0,0,0-4.905,4.808h9.129a8.554,8.554,0,0,0,6.53-2.93,10.063,10.063,0,0,0,2.664-7.069V11.6a4.343,4.343,0,0,0-4.386,4.3" transform="translate(-85.542 -9.199)" fill="#121212"/><path d="M118.537,11.6h-3.379a4.857,4.857,0,0,0-4.905,4.808h8.284Z" transform="translate(-85.544 -9.199)" fill="#121212"/><path d="M220.211,16.406h14v2.93a5.143,5.143,0,0,1-1.43,3.693,4.578,4.578,0,0,1-3.411,1.528,8.544,8.544,0,0,0-6.5,2.961,10.061,10.061,0,0,0-2.664,7.069v3.788H224.6V34.587a5.288,5.288,0,0,1,1.43-3.694,4.407,4.407,0,0,1,3.346-1.56,4.511,4.511,0,0,1,3.443,1.56,5.217,5.217,0,0,1,1.4,3.694v3.788h4.419V34.587a10.043,10.043,0,0,0-2.827-7.2l-.39-.414.39-.414a10.15,10.15,0,0,0,2.827-7.228V11.6H225.116a4.857,4.857,0,0,0-4.905,4.808" transform="translate(-170.859 -9.2)" fill="#121212"/><path d="M330.317,16.1v8.006H334.7V16.116h9.616v5.509h-1.365a4.825,4.825,0,0,0-4.873,4.776h6.238v2.324a5.148,5.148,0,0,1-1.43,3.694,4.582,4.582,0,0,1-3.411,1.528,4.513,4.513,0,0,1-3.346-1.528,5.2,5.2,0,0,1-1.4-3.12,3.3,3.3,0,0,0-3,4.854,10.307,10.307,0,0,0,1.247,1.673,8.742,8.742,0,0,0,13.06,0,10.107,10.107,0,0,0,2.7-7.1V11.308h-13.53a4.843,4.843,0,0,0-4.891,4.793" transform="translate(-256.288 -8.974)" fill="#121212"/><path d="M450.7,15.895V28.376a5.31,5.31,0,0,1-1.4,3.663,4.383,4.383,0,0,1-3.411,1.529h-4.223a4.857,4.857,0,0,0-4.905,4.808h9.129a8.555,8.555,0,0,0,6.53-2.93,10.064,10.064,0,0,0,2.665-7.069V11.6a4.343,4.343,0,0,0-4.386,4.3" transform="translate(-338.875 -9.199)" fill="#121212"/><path d="M445.044,11.6h-3.379A4.858,4.858,0,0,0,436.76,16.4h8.284Z" transform="translate(-338.876 -9.199)" fill="#121212"/><path d="M551.249,11.6a4.343,4.343,0,0,0-4.386,4.3v22.48h4.386V27.358h10.925V22.614H551.249Z" transform="translate(-424.303 -9.199)" fill="#121212"/><path d="M652.5,36.029V28a8.878,8.878,0,0,0-2.338-6.177,7.373,7.373,0,0,0-5.686-2.548h-1.55a4.849,4.849,0,0,0-4.9,4.8V40.041h4.385V24.024h2.061a3.429,3.429,0,0,1,2.6,1.147A3.992,3.992,0,0,1,648.143,28v8.024a8.877,8.877,0,0,0,2.34,6.177,7.49,7.49,0,0,0,5.165,2.548V39.946a3.456,3.456,0,0,1-2.079-1.115,3.949,3.949,0,0,1-1.073-2.8" transform="translate(-495.036 -15.195)" fill="#121212"/><path d="M733.231,61.327h15.05V56.392H738.266a4.986,4.986,0,0,0-5.035,4.935" transform="translate(-568.904 -44.155)" fill="#121212"/><path d="M830.094,54.361h-3.411a4.793,4.793,0,0,0-4.841,4.744h8.251Z" transform="translate(-637.656 -42.57)" fill="#121212"/><path d="M886.526,3.792a1.926,1.926,0,0,0,1.381-.541,1.774,1.774,0,0,0,.568-1.337,1.826,1.826,0,0,0-.568-1.354A1.9,1.9,0,0,0,886.526,0a1.872,1.872,0,0,0-1.365.541,1.905,1.905,0,0,0-.552,1.369,1.8,1.8,0,0,0,.552,1.337,1.867,1.867,0,0,0,1.365.541" transform="translate(-686.356 -0.153)" fill="#121212"/><path d="M830.094,13.772h-3.346a4.858,4.858,0,0,0-4.905,4.808h8.251Z" transform="translate(-637.656 -10.897)" fill="#121212"/><path d="M909.812.557A1.842,1.842,0,0,0,908.448,0a1.873,1.873,0,0,0-1.364.542,1.85,1.85,0,0,0-.584,1.368,1.773,1.773,0,0,0,.568,1.338,1.924,1.924,0,0,0,1.381.542,1.871,1.871,0,0,0,1.365-.542,1.8,1.8,0,0,0,.552-1.338,1.852,1.852,0,0,0-.552-1.352" transform="translate(-703.34 -0.149)" fill="#121212"/><path d="M835.778,32.855v9.2a5.349,5.349,0,0,1-1.4,3.693,4.38,4.38,0,0,1-3.411,1.528h-9.129v4.809h9.129a8.517,8.517,0,0,0,6.5-2.929,10.109,10.109,0,0,0,2.7-7.1v-13.5a4.343,4.343,0,0,0-4.386,4.3" transform="translate(-637.655 -22.433)" fill="#121212"/><path d="M702.967,11.306a3.586,3.586,0,0,0-2.6,1.055,3.446,3.446,0,0,0-1.075,2.55,3.367,3.367,0,0,0,1.091,2.536,3.749,3.749,0,0,0,5.179,0,3.424,3.424,0,0,0,1.059-2.536,3.487,3.487,0,0,0-1.058-2.55,3.537,3.537,0,0,0-2.591-1.055m.9,4.494a1.245,1.245,0,0,1-.9.378,1.287,1.287,0,0,1-.924-.386,1.162,1.162,0,0,1-.4-.88,1.22,1.22,0,0,1,.4-.9,1.272,1.272,0,0,1,.92-.4,1.223,1.223,0,0,1,.9.391,1.252,1.252,0,0,1,.391.907,1.2,1.2,0,0,1-.387.888" transform="translate(-542.567 -8.972)" fill="#121212"/></g></g></g></g></svg>