<svg xmlns="http://www.w3.org/2000/svg" xmlns:xlink="http://www.w3.org/1999/xlink" width="272" height="252" viewBox="0 0 272 252"><defs><clipPath id="a"><rect width="272" height="252" transform="translate(824 148)" fill="#ea5457"/></clipPath><clipPath id="b"><path d="M0,37.636V253.229H34.938V232.7h99.09v20.528H220V37.636Z" transform="translate(0 -37.636)" fill="none"/></clipPath><clipPath id="c"><path d="M24.741,37.636v109.8c0,11.249,26.81,20.368,59.881,20.368S144.5,158.689,144.5,147.44V37.636Z" transform="translate(-24.741 -37.636)" fill="none"/></clipPath><clipPath id="e"><rect width="220" height="311" fill="none"/></clipPath></defs><g transform="translate(-824 -148)" clip-path="url(#a)"><g transform="translate(876 148)"><g transform="translate(0 37.636)"><g clip-path="url(#b)"><path d="M127.75,224.78c8.728,3.677,11.37,9.387,15.6,16.46,1.578,2.637,8.377,12.263,17.331,6.288,7.026-4.688,3.765-14.495,2.327-17.227-3.275-6.22-15.385-16.5-35.261-12.049Z" transform="translate(-0.097 -37.636)" fill="#fff"/><path d="M154.91,251.757a11.315,11.315,0,0,1-2.493-.281c-6.031-1.359-9.976-7.273-11.041-9.053-.419-.7-.823-1.388-1.214-2.053-3.563-6.065-6.137-10.446-13.307-13.467a2.3,2.3,0,0,1,1.789-4.247,25.859,25.859,0,0,1,9.625,6.744,52.422,52.422,0,0,1,5.866,8.635c.386.657.785,1.337,1.2,2.021a20.451,20.451,0,0,0,2.973,3.8,10.846,10.846,0,0,0,5.126,3.122,7.47,7.47,0,0,0,5.976-1.369,6.939,6.939,0,0,0,2.675-3.237,9.978,9.978,0,0,0,.639-4.114,17.784,17.784,0,0,0-1.746-6.886c-1.4-2.66-4.856-6.427-10.349-9.016a30.4,30.4,0,0,0-9.689-2.686,38.783,38.783,0,0,0-12.68.829,2.3,2.3,0,0,1-1.008-4.5,43.372,43.372,0,0,1,14.188-.913,34.992,34.992,0,0,1,11.154,3.1,31,31,0,0,1,7.894,5.289,19.771,19.771,0,0,1,6.842,14.622c.171,4.966-1.682,8.888-5.361,11.343A12.613,12.613,0,0,1,154.91,251.757Z" transform="translate(-0.097 -37.636)" fill="#121212"/><path d="M41.465,224.78c-8.728,3.677-11.37,9.387-15.6,16.46-1.578,2.637-8.377,12.263-17.331,6.288C1.505,242.84,4.766,233.033,6.2,230.3c3.275-6.22,15.385-16.5,35.261-12.049Z" transform="translate(-0.003 -37.636)" fill="#fff"/><path d="M14.3,251.757a12.613,12.613,0,0,1-7.053-2.313c-3.679-2.455-5.533-6.377-5.361-11.343a22.194,22.194,0,0,1,2.274-8.874,22.261,22.261,0,0,1,4.568-5.749,31,31,0,0,1,7.894-5.289,34.992,34.992,0,0,1,11.154-3.1A43.371,43.371,0,0,1,41.968,216a2.3,2.3,0,0,1-1.008,4.5,38.784,38.784,0,0,0-12.68-.829,30.4,30.4,0,0,0-9.689,2.686c-5.493,2.59-8.948,6.356-10.349,9.017A17.784,17.784,0,0,0,6.5,238.26a9.978,9.978,0,0,0,.639,4.114,6.939,6.939,0,0,0,2.675,3.237,7.47,7.47,0,0,0,5.976,1.369,10.846,10.846,0,0,0,5.126-3.122,20.451,20.451,0,0,0,2.973-3.8c.41-.685.809-1.364,1.2-2.021a52.423,52.423,0,0,1,5.866-8.635,25.859,25.859,0,0,1,9.625-6.744,2.3,2.3,0,0,1,1.789,4.247c-7.169,3.02-9.744,7.4-13.307,13.467-.391.665-.795,1.353-1.214,2.053-1.065,1.78-5.009,7.694-11.041,9.053A11.318,11.318,0,0,1,14.3,251.757Z" transform="translate(-0.003 -37.636)" fill="#121212"/><path d="M144.411,147.4,126.46,261.661c-1.678,8.5-18.752,16.1-41.884,16.1s-40.207-7.6-41.884-16.1L24.742,147.4Z" transform="translate(-0.019 -37.636)" fill="#fff"/><path d="M144.411,147.4c0,11.249-26.789,20.368-59.834,20.368S24.742,158.646,24.742,147.4s26.789-20.368,59.834-20.368,59.834,9.119,59.834,20.368" transform="translate(-0.019 -37.636)" fill="#fff"/><path d="M84.576,280.066a96.82,96.82,0,0,1-16.461-1.354,66.492,66.492,0,0,1-13.386-3.675,33.748,33.748,0,0,1-9.548-5.534,13.424,13.424,0,0,1-4.749-7.4q-.009-.044-.016-.088L22.466,147.755a2.3,2.3,0,1,1,4.552-.715L44.961,261.255a9.2,9.2,0,0,0,3.241,4.768,29.653,29.653,0,0,0,8.246,4.738c7.534,3.029,17.523,4.7,28.129,4.7s20.595-1.668,28.128-4.7a29.656,29.656,0,0,0,8.246-4.738,9.2,9.2,0,0,0,3.241-4.768l17.943-114.215a2.3,2.3,0,1,1,4.552.715l-17.95,114.264q-.007.044-.016.089a13.426,13.426,0,0,1-4.749,7.4,33.751,33.751,0,0,1-9.548,5.534,66.491,66.491,0,0,1-13.386,3.675A96.817,96.817,0,0,1,84.576,280.066Z" transform="translate(-0.019 -37.636)" fill="#121212"/><path d="M59.834-2.3c16.228,0,31.518,2.162,43.052,6.089a44.705,44.705,0,0,1,13.525,6.86,17.184,17.184,0,0,1,4.017,4.431,10.191,10.191,0,0,1,1.545,5.292,10.191,10.191,0,0,1-1.545,5.292,17.184,17.184,0,0,1-4.017,4.431,44.705,44.705,0,0,1-13.525,6.86C91.352,40.878,76.063,43.04,59.834,43.04s-31.518-2.162-43.052-6.089a44.705,44.705,0,0,1-13.525-6.86A17.184,17.184,0,0,1-.759,25.66,10.191,10.191,0,0,1-2.3,20.368,10.191,10.191,0,0,1-.759,15.076a17.184,17.184,0,0,1,4.017-4.431,44.705,44.705,0,0,1,13.525-6.86C28.317-.142,43.606-2.3,59.834-2.3Zm0,40.736A161.843,161.843,0,0,0,82.8,36.855a104.475,104.475,0,0,0,18.6-4.266A40.853,40.853,0,0,0,113.522,26.5c2.55-2.052,3.843-4.116,3.843-6.133s-1.293-4.081-3.843-6.133A40.853,40.853,0,0,0,101.4,8.147,104.475,104.475,0,0,0,82.8,3.881,161.843,161.843,0,0,0,59.834,2.3,161.843,161.843,0,0,0,36.872,3.881a104.474,104.474,0,0,0-18.6,4.266A40.853,40.853,0,0,0,6.147,14.235C3.6,16.287,2.3,18.35,2.3,20.368S3.6,24.449,6.147,26.5a40.853,40.853,0,0,0,12.121,6.088,104.474,104.474,0,0,0,18.6,4.266A161.843,161.843,0,0,0,59.834,38.432Z" transform="translate(24.723 89.393)" fill="#121212"/><path d="M84.577,175.782a169,169,0,0,1-20.052-1.163,124.4,124.4,0,0,1-17.246-3.232,66.889,66.889,0,0,1-13.333-4.947,24.289,24.289,0,0,1-8.359-6.469,1.28,1.28,0,1,1,2.046-1.539c3.063,4.073,10.276,7.8,20.308,10.482a121.838,121.838,0,0,0,16.889,3.163,170.921,170.921,0,0,0,39.495,0,121.838,121.838,0,0,0,16.889-3.163c10.033-2.687,17.245-6.41,20.308-10.482a1.28,1.28,0,1,1,2.046,1.539,24.289,24.289,0,0,1-8.359,6.469,66.889,66.889,0,0,1-13.333,4.947,124.4,124.4,0,0,1-17.246,3.232A169.012,169.012,0,0,1,84.577,175.782Z" transform="translate(-0.02 -37.636)" fill="#121212"/><path d="M75.556,208.081a3.108,3.108,0,1,1-3.108-3.11,3.109,3.109,0,0,1,3.108,3.11" transform="translate(-0.053 -37.636)" fill="#231815"/><path d="M75.408,200.2a2.293,2.293,0,0,1-1.15-.309,4.35,4.35,0,0,0-3.62,0,2.3,2.3,0,1,1-2.3-3.991,8.87,8.87,0,0,1,8.227,0,2.3,2.3,0,0,1-1.154,4.3Z" transform="translate(-0.053 -37.636)" fill="#121212"/><path d="M84.617,228.748a15.242,15.242,0,0,1-7.611-1.843,2.3,2.3,0,0,1,2.3-3.99,12.1,12.1,0,0,0,10.612,0,2.3,2.3,0,1,1,2.3,3.99A15.24,15.24,0,0,1,84.617,228.748Z" transform="translate(-0.06 -37.636)" fill="#121212"/><path d="M99.9,208.081a3.108,3.108,0,1,1-3.108-3.11,3.109,3.109,0,0,1,3.108,3.11" transform="translate(-0.071 -37.636)" fill="#231815"/><path d="M99.749,200.2a2.293,2.293,0,0,1-1.15-.309,4.35,4.35,0,0,0-3.62,0,2.3,2.3,0,1,1-2.3-3.991,8.87,8.87,0,0,1,8.227,0,2.3,2.3,0,0,1-1.154,4.3Z" transform="translate(-0.072 -37.636)" fill="#121212"/><path d="M2.962,2.3H0A2.3,2.3,0,0,1-2.3,0,2.3,2.3,0,0,1,0-2.3H2.962A2.3,2.3,0,0,1,5.266,0,2.3,2.3,0,0,1,2.962,2.3Z" transform="translate(83.076 180.122)" fill="#121212"/><path d="M213.636,108.625a27.646,27.646,0,0,1,2.667,10.222c2.018,27.014-22.465,42.173-49.377,33.076A108.6,108.6,0,0,0,155.2,148.3a15.365,15.365,0,0,0-11.829,2.017l-27.1-20.248c4.924-16.023,26.287-34.24,51.156-37.356a71.413,71.413,0,0,1,25.226.916,36.385,36.385,0,0,0,8.633.719c3.118-.1,6.967-1.17,9.487.668,4.36,3.178.138,7.347,2.864,13.605" transform="translate(-0.089 -37.636)" fill="#f0f0f0"/><path d="M178.074,89.726a64.778,64.778,0,0,1,15.064,1.654,34.167,34.167,0,0,0,6.778.691c.415,0,.851-.007,1.294-.022.679-.022,1.426-.1,2.218-.18a32.3,32.3,0,0,1,3.294-.222,11.517,11.517,0,0,1,2.693.285,7.549,7.549,0,0,1,2.715,1.226,6.907,6.907,0,0,1,2.857,4.2,13.58,13.58,0,0,1,.077,4.1,11.945,11.945,0,0,0,.664,6.2,30.073,30.073,0,0,1,2.872,11.015,38.573,38.573,0,0,1-1.733,15.13,32.366,32.366,0,0,1-7.006,11.884,33.718,33.718,0,0,1-12.12,8.29,40.472,40.472,0,0,1-15.341,2.894,50.636,50.636,0,0,1-16.213-2.768c-.728-.246-1.463-.5-2.175-.745a81.222,81.222,0,0,0-9.3-2.8,14.783,14.783,0,0,0-3.12-.334,12.238,12.238,0,0,0-6.913,1.994,2.3,2.3,0,0,1-2.689-.049l-27.1-20.248a2.3,2.3,0,0,1-.823-2.523,41.344,41.344,0,0,1,6.949-12.886,64.535,64.535,0,0,1,11.95-11.784A73.871,73.871,0,0,1,148.724,95.5a68.156,68.156,0,0,1,18.415-5.067A88.286,88.286,0,0,1,178.074,89.726Zm21.842,6.953a39.063,39.063,0,0,1-7.7-.783l-.108-.023a60.127,60.127,0,0,0-14.038-1.539A83.663,83.663,0,0,0,167.713,95a63.552,63.552,0,0,0-17.169,4.729,69.26,69.26,0,0,0-14.773,8.652c-8.088,6.2-14.12,13.713-16.78,20.845l24.517,18.316a17.1,17.1,0,0,1,8.089-1.931,19.4,19.4,0,0,1,4.093.438A85.924,85.924,0,0,1,165.515,149c.7.243,1.433.494,2.148.736a46.042,46.042,0,0,0,14.738,2.526,35.89,35.89,0,0,0,13.6-2.554,29.144,29.144,0,0,0,10.481-7.157A27.789,27.789,0,0,0,212.5,132.35a34,34,0,0,0,1.51-13.331,25.474,25.474,0,0,0-2.437-9.378q-.023-.047-.044-.1a16.135,16.135,0,0,1-1.051-8.472c.208-2.5.212-3.266-1.057-4.191a4.5,4.5,0,0,0-2.693-.627c-.885,0-1.871.1-2.825.2-.834.085-1.7.174-2.536.2C200.867,96.671,200.381,96.679,199.915,96.679Z" transform="translate(-0.089 -37.636)" fill="#121212"/></g></g><g transform="translate(24.741 37.636)"><g clip-path="url(#c)"><path d="M84.621,125.886c15.07,0,21.8-11.1,24.929-20.89,8.848-1.874,6.695-14.379,6.695-14.379l-12.783,2.916c.337-6.087-.494-15.6-3.684-20.794s-9.185-8.018-15.157-4.159c-5.972-3.859-11.965-1.036-15.156,4.159s-4.022,14.707-3.684,20.794L53,90.617S50.844,103.122,59.692,105C62.819,114.791,69.551,125.886,84.621,125.886Z" transform="translate(-24.741 -37.636)" fill="#fef1e6"/><path d="M97.435,122.434V130.1l-12.814,6.129L71.807,130.1v-7.669Z" transform="translate(-24.741 -37.636)" fill="#fef1e6"/><path d="M97.435,128.951l19.968,7.288a34.561,34.561,0,0,1,21.635,23.9l7.027,40.228a11.521,11.521,0,0,1-7.518,13.783l-23.154,7.718H53.849L30.7,214.154a11.52,11.52,0,0,1-7.518-13.783L30.2,160.143a34.558,34.558,0,0,1,21.634-23.9l19.968-7.288,12.814,6.129Z" transform="translate(-24.741 -37.636)" fill="#fff"/><path d="M84.621,68.581c5.972-3.859,11.966-1.037,15.157,4.159s4.021,14.706,3.684,20.794l18.116-4.115c-1.019-12.721-7.987-51.747-36.957-44.444-28.97-7.3-35.937,31.723-36.957,44.444l18.117,4.115c-.338-6.088.493-15.6,3.684-20.794s9.184-8.018,15.156-4.159" transform="translate(-24.741 -37.636)" fill="#121212"/><path d="M84.621,128.19c-12.69,0-21.911-7.359-26.728-21.3a9.76,9.76,0,0,1-4.844-3.576,13.692,13.692,0,0,1-2.294-5.825,24.016,24.016,0,0,1-.028-7.261,2.3,2.3,0,0,1,2.783-1.855l9.9,2.258a58.735,58.735,0,0,1,.613-8.166A29.421,29.421,0,0,1,67.5,71.533,15.9,15.9,0,0,1,72.31,66.51a11.9,11.9,0,0,1,12.311-.592,11.905,11.905,0,0,1,12.311.592,15.9,15.9,0,0,1,4.809,5.023,29.431,29.431,0,0,1,3.48,10.929,58.775,58.775,0,0,1,.613,8.166l9.9-2.258a2.3,2.3,0,0,1,2.783,1.855,24.016,24.016,0,0,1-.028,7.261,13.692,13.692,0,0,1-2.294,5.825,9.76,9.76,0,0,1-4.844,3.575C106.533,120.831,97.313,128.19,84.621,128.19ZM55.074,93.454a17.782,17.782,0,0,0,.241,3.363A9.047,9.047,0,0,0,56.8,100.64a5.365,5.365,0,0,0,3.366,2.1,2.3,2.3,0,0,1,1.717,1.553c1.78,5.576,4.28,10.017,7.428,13.2a20.051,20.051,0,0,0,6.4,4.387,24.17,24.17,0,0,0,17.819,0,20.052,20.052,0,0,0,6.4-4.387c3.149-3.181,5.648-7.622,7.428-13.2a2.3,2.3,0,0,1,1.718-1.553,5.364,5.364,0,0,0,3.392-2.137,9.176,9.176,0,0,0,1.479-3.885,17.891,17.891,0,0,0,.223-3.266l-10.192,2.325a2.3,2.3,0,0,1-2.813-2.374,53.01,53.01,0,0,0-.5-10.264,25.409,25.409,0,0,0-2.849-9.2c-1.867-3.039-4.673-4.854-7.508-4.854a8.145,8.145,0,0,0-4.435,1.424,2.3,2.3,0,0,1-2.5,0,8.145,8.145,0,0,0-4.435-1.424c-2.834,0-5.64,1.815-7.507,4.854a25.4,25.4,0,0,0-2.85,9.2,52.965,52.965,0,0,0-.5,10.264,2.3,2.3,0,0,1-2.813,2.374Z" transform="translate(-24.741 -37.636)" fill="#121212"/><path d="M65.781,95.838a2.3,2.3,0,0,1-.51-.057L47.154,91.666a2.3,2.3,0,0,1-1.786-2.431c.29-3.618,1.643-16.316,6.879-27.812a39.589,39.589,0,0,1,9.616-13.64,23.579,23.579,0,0,1,15.883-6.014,30.192,30.192,0,0,1,6.875.836,30.192,30.192,0,0,1,6.875-.836,23.576,23.576,0,0,1,15.882,6.014,39.6,39.6,0,0,1,9.617,13.64c5.238,11.5,6.591,24.2,6.88,27.812a2.3,2.3,0,0,1-1.786,2.431l-18.116,4.115a2.3,2.3,0,0,1-2.811-2.374,53.013,53.013,0,0,0-.5-10.265,25.407,25.407,0,0,0-2.849-9.2c-1.866-3.039-4.673-4.854-7.507-4.854a8.146,8.146,0,0,0-4.436,1.425,2.3,2.3,0,0,1-2.5,0,8.146,8.146,0,0,0-4.436-1.425c-2.834,0-5.64,1.815-7.507,4.854a25.4,25.4,0,0,0-2.85,9.2,52.968,52.968,0,0,0-.5,10.264,2.3,2.3,0,0,1-2.3,2.432ZM90.307,64.484a12.187,12.187,0,0,1,6.625,2.027,15.894,15.894,0,0,1,4.809,5.024,29.429,29.429,0,0,1,3.48,10.929,58.78,58.78,0,0,1,.613,8.169l13.259-3.012a92.692,92.692,0,0,0-1.594-9.709,72.946,72.946,0,0,0-4.7-14.579,35.084,35.084,0,0,0-8.45-12.076,20.061,20.061,0,0,0-5.78-3.572A19.146,19.146,0,0,0,91.5,46.376a25.944,25.944,0,0,0-6.312.833,2.3,2.3,0,0,1-1.126,0,25.944,25.944,0,0,0-6.312-.833,19.151,19.151,0,0,0-7.077,1.309,20.061,20.061,0,0,0-5.78,3.572A35.077,35.077,0,0,0,56.44,63.333a72.943,72.943,0,0,0-4.7,14.579,92.765,92.765,0,0,0-1.593,9.709l13.259,3.012a58.74,58.74,0,0,1,.613-8.169A29.42,29.42,0,0,1,67.5,71.534a15.9,15.9,0,0,1,4.808-5.024,11.9,11.9,0,0,1,12.311-.592A12.262,12.262,0,0,1,90.307,64.484Z" transform="translate(-24.741 -37.636)" fill="#121212"/><path d="M84.621,138.536a2.3,2.3,0,0,1-.994-.226l-12.814-6.129A2.3,2.3,0,0,1,69.5,130.1v-7.669a2.3,2.3,0,1,1,4.608,0v6.217l10.51,5.027,10.51-5.027v-6.217a2.3,2.3,0,1,1,4.608,0V130.1a2.3,2.3,0,0,1-1.31,2.078L85.616,138.31A2.3,2.3,0,0,1,84.621,138.536Z" transform="translate(-24.741 -37.636)" fill="#121212"/><path d="M71.808,127.8a2.3,2.3,0,0,1,.994.226l12.814,6.129a2.3,2.3,0,0,1-.13,4.214l-10.039,4.064a2.3,2.3,0,0,1-3.088-1.53l-2.775-10.193a2.3,2.3,0,0,1,2.223-2.909Zm7.107,8.258-3.563-1.7.772,2.834Z" transform="translate(-24.741 -37.636)" fill="#121212"/><path d="M97.435,127.8a2.3,2.3,0,0,1,2.223,2.909L96.883,140.9a2.3,2.3,0,0,1-3.088,1.53l-10.039-4.064a2.3,2.3,0,0,1-.13-4.214l12.814-6.129A2.3,2.3,0,0,1,97.435,127.8Zm-4.316,9.387.772-2.834-3.563,1.7Z" transform="translate(-24.741 -37.636)" fill="#121212"/><path d="M53.85,224.177a2.3,2.3,0,0,1-.729-.119L29.967,216.34a13.825,13.825,0,0,1-9.044-16.449l7.012-40.144q.015-.088.037-.174a36.848,36.848,0,0,1,23.077-25.5l19.968-7.288a2.3,2.3,0,0,1,1.58,4.329L52.63,138.4a32.242,32.242,0,0,0-20.171,22.226l-7.011,40.139q-.015.088-.037.174a9.217,9.217,0,0,0,6.014,11.027l23.154,7.718a2.3,2.3,0,0,1-.728,4.49Z" transform="translate(-24.741 -37.636)" fill="#121212"/><path d="M115.393,224.177a2.3,2.3,0,0,1-.728-4.49l23.154-7.718a9.217,9.217,0,0,0,6.014-11.027q-.022-.086-.037-.174l-7.011-40.139A32.242,32.242,0,0,0,116.613,138.4l-19.968-7.288a2.3,2.3,0,0,1,1.58-4.329l19.968,7.288a36.848,36.848,0,0,1,23.077,25.5q.022.086.037.174l7.012,40.144a13.825,13.825,0,0,1-9.044,16.449l-23.154,7.718A2.3,2.3,0,0,1,115.393,224.177Z" transform="translate(-24.741 -37.636)" fill="#121212"/><path d="M84.622,152.609a3.594,3.594,0,1,1-3.595,3.594A3.6,3.6,0,0,1,84.622,152.609Zm0,4.828a1.234,1.234,0,1,0-1.236-1.234A1.236,1.236,0,0,0,84.622,157.438Z" transform="translate(-24.741 -37.636)" fill="#121212"/><path d="M84.622,172.609a3.594,3.594,0,1,1-3.595,3.594A3.6,3.6,0,0,1,84.622,172.609Zm0,4.828a1.234,1.234,0,1,0-1.236-1.234A1.236,1.236,0,0,0,84.622,177.438Z" transform="translate(-24.741 -37.636)" fill="#121212"/><path d="M84.622,192.609a3.594,3.594,0,1,1-3.595,3.594A3.6,3.6,0,0,1,84.622,192.609Zm0,4.828a1.234,1.234,0,1,0-1.236-1.234A1.236,1.236,0,0,0,84.622,197.438Z" transform="translate(-24.741 -37.636)" fill="#121212"/><path d="M78.592,96.374a2.07,2.07,0,1,1-2.07-2.07,2.07,2.07,0,0,1,2.07,2.07" transform="translate(-24.741 -37.636)" fill="#231815"/><path d="M78.493,91.129a1.526,1.526,0,0,1-.765-.206,2.9,2.9,0,0,0-2.412,0,1.534,1.534,0,1,1-1.533-2.656,5.908,5.908,0,0,1,5.478,0,1.534,1.534,0,0,1-.768,2.862Z" transform="translate(-24.741 -37.636)" fill="#121212"/><path d="M84.622,110.128a10.155,10.155,0,0,1-5.069-1.226,1.534,1.534,0,0,1,1.533-2.656,8.068,8.068,0,0,0,7.07,0A1.534,1.534,0,0,1,89.69,108.9,10.153,10.153,0,0,1,84.622,110.128Z" transform="translate(-24.741 -37.636)" fill="#121212"/><path d="M94.791,96.374a2.07,2.07,0,1,1-2.07-2.07,2.07,2.07,0,0,1,2.07,2.07" transform="translate(-24.741 -37.636)" fill="#231815"/><path d="M94.693,91.129a1.526,1.526,0,0,1-.765-.206,2.9,2.9,0,0,0-2.412,0,1.534,1.534,0,1,1-1.533-2.656,5.908,5.908,0,0,1,5.478,0,1.534,1.534,0,0,1-.768,2.862Z" transform="translate(-24.741 -37.636)" fill="#121212"/><path d="M1.973,1.533H0A1.533,1.533,0,0,1-1.534,0,1.533,1.533,0,0,1,0-1.533H1.973A1.533,1.533,0,0,1,3.506,0,1.533,1.533,0,0,1,1.973,1.533Z" transform="translate(58.894 65.178)" fill="#121212"/></g></g><g transform="translate(0 37.636)"><g clip-path="url(#b)"><path d="M84.575,170.069c-16.228,0-31.518-2.162-43.052-6.089A44.7,44.7,0,0,1,28,157.12a17.183,17.183,0,0,1-4.017-4.431,10.191,10.191,0,0,1-1.545-5.292,2.3,2.3,0,0,1,4.608,0c0,2.018,1.293,4.081,3.843,6.133a40.852,40.852,0,0,0,12.121,6.088,104.472,104.472,0,0,0,18.6,4.266,161.844,161.844,0,0,0,22.962,1.577,152.365,152.365,0,0,0,31.479-3.1c9.006-1.941,16.217-4.648,20.852-7.83a2.3,2.3,0,0,1,2.607,3.8c-5.125,3.517-12.9,6.469-22.489,8.535A157.026,157.026,0,0,1,84.575,170.069Z" transform="translate(-0.019 -37.636)" fill="#121212"/><path d="M39.9,136.934a9.459,9.459,0,0,0,6.453-5.159,8.147,8.147,0,0,0,.849-.145,8,8,0,0,0,.152-15.574,6.518,6.518,0,0,0-9.318-8.992,8.439,8.439,0,0,0-12.427,10.042,8.3,8.3,0,0,0,4.315,16.012c.032-.007.063-.017.095-.024a9.476,9.476,0,0,0,9.88,3.84" transform="translate(-0.015 -37.636)" fill="#fff"/><path d="M37.793,139.475h0a11.778,11.778,0,0,1-8.738-3.891q-.488.045-.977.045A10.607,10.607,0,0,1,22.9,115.775a10.754,10.754,0,0,1,8.257-12.048,10.709,10.709,0,0,1,6.731.656,8.826,8.826,0,0,1,12.652,10.494,10.308,10.308,0,0,1-2.7,18.968,11.709,11.709,0,0,1-7.438,5.336A11.828,11.828,0,0,1,37.793,139.475Zm-7.778-8.685a2.3,2.3,0,0,1,1.892.99,7.173,7.173,0,0,0,5.886,3.087h0a7.181,7.181,0,0,0,6.477-4.086,2.3,2.3,0,0,1,1.811-1.294,5.877,5.877,0,0,0,.609-.1,5.7,5.7,0,0,0,.1-11.09,2.3,2.3,0,0,1-1.279-3.631,4.214,4.214,0,0,0,.76-3.49,4.169,4.169,0,0,0-1.5-2.377,4.191,4.191,0,0,0-3.542-.8,4.171,4.171,0,0,0-1.741.853,2.3,2.3,0,0,1-2.692.17,6.112,6.112,0,0,0-3.262-.946,6.147,6.147,0,0,0-5.993,7.5,6.113,6.113,0,0,0,.221.743,2.3,2.3,0,0,1-1.476,2.989,5.994,5.994,0,0,0,3.092,11.572c.032-.008.079-.021.136-.033A2.3,2.3,0,0,1,30.015,130.79Z" transform="translate(-0.015 -37.636)" fill="#121212"/><path d="M133.288,130.038c0-.027,0-.052,0-.079a6.242,6.242,0,0,0-6.368-6.108,6.31,6.31,0,0,0-6.241,4.887,6.81,6.81,0,0,0-.985-.071,6.231,6.231,0,1,0,0,12.451,6.709,6.709,0,0,0,2.515-.485,5.245,5.245,0,0,0,9.14.526,6.08,6.08,0,0,0,.96.076,5.625,5.625,0,0,0,.977-11.2" transform="translate(-0.086 -37.636)" fill="#fff"/><path d="M126.922,121.547a8.627,8.627,0,0,1,8.492,6.7A8.207,8.207,0,0,1,138.5,130.4a7.8,7.8,0,0,1,1.992,5.193,8.071,8.071,0,0,1-8.08,7.941,7.442,7.442,0,0,1-1.781,1.389,7.606,7.606,0,0,1-9.422-1.631,9.1,9.1,0,0,1-1.515.126,8.525,8.525,0,0,1-.625-17.038,8.489,8.489,0,0,1,2.364-2.941A8.86,8.86,0,0,1,126.922,121.547Zm4.064,8.385a3.947,3.947,0,0,0-4.064-3.777,4.013,4.013,0,0,0-3.987,3.06,2.3,2.3,0,0,1-2.587,1.8,4.525,4.525,0,0,0-.652-.047,3.93,3.93,0,1,0,0,7.843,4.4,4.4,0,0,0,1.653-.318,2.3,2.3,0,0,1,2.957,1.177,2.853,2.853,0,0,0,2.617,1.608,2.9,2.9,0,0,0,2.467-1.331,2.3,2.3,0,0,1,2.325-1.066,3.791,3.791,0,0,0,.6.047,3.464,3.464,0,0,0,3.575-3.334,3.4,3.4,0,0,0-2.963-3.284,2.3,2.3,0,0,1-1.938-2.275C130.984,130,130.984,129.967,130.986,129.932Z" transform="translate(-0.086 -37.636)" fill="#121212"/><path d="M37.784,178.918c1.114.521,1.7.775,2.915,1.265.093.989.139,1.484.231,2.473a43.212,43.212,0,0,1-5.2-2.463c-.622-4.645-.931-6.967-1.553-11.612.987.493,1.5.733,2.57,1.2.416,3.656.624,5.483,1.04,9.139" transform="translate(-0.026 -37.636)" fill="#ea5457"/><path d="M49.826,179.855a2.272,2.272,0,0,1-1.423.992,4.3,4.3,0,0,1-2.324-.173c-.613-.191-.915-.288-1.513-.486.112,1.573.167,2.36.278,3.933-1.18-.4-1.753-.613-2.856-1.043-.4-4.651-.6-6.976-1.006-11.626,1.767.632,2.69.932,4.611,1.5a7.7,7.7,0,0,1,2.438,1.171,5.563,5.563,0,0,1,1.6,1.774,4.855,4.855,0,0,1,.611,2.156,3.1,3.1,0,0,1-.417,1.806m-2.949-2.712a1.773,1.773,0,0,0-1.427-1.674c-.5-.152-.751-.23-1.243-.387.071,1.011.108,1.517.179,2.528.486.159.73.236,1.228.39.88.272,1.312-.018,1.263-.857" transform="translate(-0.031 -37.636)" fill="#ea5457"/><path d="M55.3,184.5c1.584.335,2.4.491,4.053.782.019,1.005.029,1.508.048,2.514-3.126-.558-4.624-.88-7.465-1.592-.187-4.691-.281-7.036-.468-11.727,1.4.32,2.109.472,3.563.759.108,3.705.162,5.558.269,9.264" transform="translate(-0.039 -37.636)" fill="#ea5457"/><path d="M71.423,183.382a3.689,3.689,0,0,1-1.857,1.255,6.867,6.867,0,0,1-2.982.215c-.786-.092-1.177-.14-1.952-.242.015,1.6.022,2.4.037,4.008-1.556-.211-2.32-.326-3.819-.576-.074-4.732-.111-7.1-.186-11.831,2.294.347,3.47.5,5.871.765a8.867,8.867,0,0,1,2.99.805,4.733,4.733,0,0,1,1.882,1.564,3.727,3.727,0,0,1,.637,2.114,3.152,3.152,0,0,1-.621,1.923m-3.552-2.3c0-.867-.581-1.356-1.706-1.485-.636-.073-.95-.111-1.578-.19.009,1.03.014,1.545.023,2.576.625.08.939.119,1.572.193,1.122.132,1.693-.239,1.689-1.094" transform="translate(-0.046 -37.636)" fill="#ea5457"/><path d="M77.96,187.235c1.914.079,2.883.1,4.844.127,0,1.02,0,1.53,0,2.549-3.72-.042-5.54-.119-9.071-.367V177.6c1.678.107,2.527.15,4.241.216,0,3.769-.007,5.653-.012,9.422" transform="translate(-0.056 -37.636)" fill="#ea5457"/><path d="M96.089,183.512a4.611,4.611,0,0,1-1.9,1.548,8.019,8.019,0,0,1-3.154.69c-.849.034-1.276.048-2.133.07l0,4.043c-1.735.047-2.614.059-4.386.058,0-4.793,0-7.19,0-11.982,2.633,0,3.937-.023,6.5-.118a8.821,8.821,0,0,1,3.14.364,3.873,3.873,0,0,1,1.919,1.288,3.278,3.278,0,0,1,.637,2.021,3.561,3.561,0,0,1-.628,2.018m-3.666-1.76c0-.871-.6-1.276-1.814-1.233-.683.024-1.027.035-1.717.052,0,1.039,0,1.559,0,2.6.69-.018,1.033-.028,1.718-.053,1.212-.044,1.811-.505,1.81-1.365" transform="translate(-0.064 -37.636)" fill="#ea5457"/><path d="M102.419,186.363c1.776-.207,2.649-.324,4.359-.58-.013,1.008-.019,1.513-.032,2.521-3.228.493-4.906.7-8.368,1.01.009-4.771.014-7.156.022-11.927,1.651-.135,2.466-.212,4.075-.386-.023,3.744-.033,5.617-.056,9.362" transform="translate(-0.075 -37.636)" fill="#ea5457"/><path d="M118.012,180.206a5.35,5.35,0,0,1-1.612,1.768,6.783,6.783,0,0,1-2.623,1.1c-.706.146-1.063.217-1.784.355-.038,1.592-.056,2.388-.094,3.98-1.442.284-2.178.418-3.68.665.073-4.733.109-7.1.182-11.834,2.3-.345,3.418-.538,5.6-.963a6.14,6.14,0,0,1,2.628-.048,2.45,2.45,0,0,1,1.541,1.017,3.164,3.164,0,0,1,.438,1.9,4.671,4.671,0,0,1-.594,2.062m-2.956-1.25c.027-.856-.46-1.176-1.484-.975-.579.114-.869.169-1.456.277-.025,1.023-.037,1.535-.061,2.558.584-.109.872-.165,1.447-.28,1.017-.2,1.527-.735,1.554-1.58" transform="translate(-0.083 -37.636)" fill="#ea5457"/><path d="M122.891,182.184c1.381-.431,2.049-.655,3.337-1.121-.078.99-.118,1.485-.2,2.475-2.408.888-3.7,1.3-6.441,2.062.227-4.681.34-7.021.567-11.7,1.353-.344,2.014-.524,3.3-.9-.228,3.673-.342,5.51-.571,9.184" transform="translate(-0.091 -37.636)" fill="#ea5457"/><path d="M134.616,174.2a7.408,7.408,0,0,1-1.252,1.938,5.669,5.669,0,0,1-1.889,1.4c-.5.23-.757.344-1.279.568-.162,1.568-.244,2.352-.406,3.92-1.025.454-1.559.676-2.665,1.105.4-4.651.6-6.976,1-11.627,1.771-.63,2.617-.962,4.22-1.656a3.424,3.424,0,0,1,1.859-.38,1.165,1.165,0,0,1,.945.808,3.89,3.89,0,0,1,.084,1.82,7.866,7.866,0,0,1-.615,2.106m-1.87-.867c.1-.845-.206-1.1-.953-.773-.422.184-.636.275-1.07.454-.1,1.008-.156,1.512-.261,2.52.427-.18.638-.27,1.051-.454a2.03,2.03,0,0,0,1.233-1.747" transform="translate(-0.097 -37.636)" fill="#ea5457"/><path d="M46.9,258.927a10.156,10.156,0,0,0,1.277,1.339c.093.989.139,1.483.231,2.472a7.692,7.692,0,0,1-1.97-2.513c-.621-4.644-.931-6.967-1.553-11.612a8.32,8.32,0,0,0,.975,1.175c.416,3.656.624,5.484,1.04,9.139" transform="translate(-0.034 -37.636)" fill="#ea5457"/><path d="M53.595,260.533a1.448,1.448,0,0,1-.951.877,1.942,1.942,0,0,1-1.5-.343c-.384-.234-.569-.351-.922-.587.111,1.573.166,2.36.277,3.933a16.238,16.238,0,0,1-1.569-1.207c-.4-4.65-.6-6.976-1.006-11.626a21.872,21.872,0,0,0,2.734,1.76,5.968,5.968,0,0,1,1.618,1.341,6.568,6.568,0,0,1,1.125,1.89,6.949,6.949,0,0,1,.458,2.2,3.959,3.959,0,0,1-.267,1.766m-2.021-2.925a2.043,2.043,0,0,0-.941-1.767c-.316-.186-.47-.279-.766-.467.071,1.011.107,1.517.178,2.528.291.189.442.283.751.47.55.331.827.075.778-.764" transform="translate(-0.037 -37.636)" fill="#ea5457"/><path d="M123.672,254.241a15.778,15.778,0,0,1-.5,1.91,4.31,4.31,0,0,1-.721,1.394c-.2.235-.307.353-.539.591-.162,1.568-.243,2.352-.406,3.92a11.473,11.473,0,0,1-1.26,1.206c.4-4.65.6-6.976,1-11.627a13.8,13.8,0,0,0,2.072-1.78c.334-.343.559-.468.7-.375s.2.371.194.835a15.526,15.526,0,0,1-.174,1.834q-.147,1.055-.362,2.092m-.46-.9c.1-.845.02-1.1-.3-.766-.18.189-.276.284-.477.474-.1,1.008-.156,1.512-.261,2.52.194-.19.286-.285.459-.475a3.2,3.2,0,0,0,.58-1.753" transform="translate(-0.092 -37.636)" fill="#ea5457"/><path d="M64.343,137.444h0a2.783,2.783,0,0,0-2.255,3.223l1.27,7.2a2.78,2.78,0,1,0,5.475-.966l-1.269-7.2a2.78,2.78,0,0,0-3.221-2.257" transform="translate(-0.047 -37.636)" fill="#fbf1e6"/><path d="M64.83,135.868a4.306,4.306,0,0,1,4.244,3.567l1.269,7.2a4.313,4.313,0,1,1-8.494,1.5l-1.27-7.2a4.317,4.317,0,0,1,4.251-5.065Zm1.263,12.77a1.269,1.269,0,0,0,.22-.019,1.25,1.25,0,0,0,1.011-1.447l-1.269-7.2a1.244,1.244,0,0,0-1.224-1.033,1.266,1.266,0,0,0-.22.019A1.251,1.251,0,0,0,63.6,140.4l1.27,7.2A1.244,1.244,0,0,0,66.092,148.638Z" transform="translate(-0.047 -37.636)" fill="#121212"/><path d="M67.135,168.762l-2.762.487a7.453,7.453,0,0,1-8.634-6.05l-1.387-7.873a7.459,7.459,0,0,1,6.045-8.641l2.762-.487a7.454,7.454,0,0,1,8.634,6.05l1.387,7.873a7.457,7.457,0,0,1-6.045,8.641" transform="translate(-0.041 -37.636)" fill="#fbf1e6"/><path d="M7.458-1.533H10.25a9,9,0,0,1,8.991,8.991v7.993a9,9,0,0,1-8.991,8.991H7.46a9,9,0,0,1-8.993-8.993V7.458A9,9,0,0,1,7.458-1.533Zm2.793,22.909a5.931,5.931,0,0,0,5.925-5.925V7.458A5.932,5.932,0,0,0,10.25,1.533H7.458A5.931,5.931,0,0,0,1.533,7.458v7.992A5.934,5.934,0,0,0,7.46,21.376Z" transform="matrix(0.985, -0.174, 0.174, 0.985, 53.018, 110.343)" fill="#121212"/><line y1="0.832" x2="4.716" transform="translate(66.289 112.863)" fill="#fbf1e6"/><path d="M0,1.832a1,1,0,0,1-.984-.826A1,1,0,0,1-.174-.153L4.543-.985A1,1,0,0,1,5.7-.174,1,1,0,0,1,4.89.985L.174,1.817A1.006,1.006,0,0,1,0,1.832Z" transform="translate(66.289 112.863)" fill="#121212"/><line y1="0.832" x2="4.716" transform="translate(66.966 116.703)" fill="#fbf1e6"/><path d="M0,1.832a1,1,0,0,1-.984-.826A1,1,0,0,1-.174-.153L4.543-.985A1,1,0,0,1,5.7-.174,1,1,0,0,1,4.89.985L.174,1.817A1.006,1.006,0,0,1,0,1.832Z" transform="translate(66.966 116.703)" fill="#121212"/><line y1="0.832" x2="4.716" transform="translate(67.643 120.544)" fill="#fbf1e6"/><path d="M0,1.832a1,1,0,0,1-.984-.826A1,1,0,0,1-.174-.153L4.543-.985A1,1,0,0,1,5.7-.174,1,1,0,0,1,4.89.985L.174,1.817A1.006,1.006,0,0,1,0,1.832Z" transform="translate(67.643 120.544)" fill="#121212"/><line y1="0.832" x2="4.716" transform="translate(68.319 124.385)" fill="#fbf1e6"/><path d="M0,1.832a1,1,0,0,1-.984-.826A1,1,0,0,1-.174-.153L4.543-.985A1,1,0,0,1,5.7-.174,1,1,0,0,1,4.89.985L.174,1.817A1.006,1.006,0,0,1,0,1.832Z" transform="translate(68.319 124.385)" fill="#121212"/><path d="M104.895,137.444h0a2.783,2.783,0,0,1,2.255,3.223l-1.27,7.2a2.78,2.78,0,1,1-5.475-.966l1.269-7.2a2.78,2.78,0,0,1,3.221-2.257" transform="translate(-0.077 -37.636)" fill="#fbf1e6"/><path d="M104.408,135.868a4.317,4.317,0,0,1,4.251,5.064l-1.27,7.2a4.313,4.313,0,1,1-8.494-1.5l1.269-7.2A4.306,4.306,0,0,1,104.408,135.868Zm-1.263,12.77a1.244,1.244,0,0,0,1.225-1.033l1.27-7.2a1.251,1.251,0,0,0-1.012-1.447,1.266,1.266,0,0,0-.22-.019,1.244,1.244,0,0,0-1.224,1.033l-1.269,7.2a1.25,1.25,0,0,0,1.011,1.447A1.268,1.268,0,0,0,103.146,148.638Z" transform="translate(-0.077 -37.636)" fill="#121212"/><path d="M102.093,168.762l2.762.487a7.453,7.453,0,0,0,8.634-6.05l1.387-7.873a7.459,7.459,0,0,0-6.045-8.641l-2.762-.487a7.454,7.454,0,0,0-8.634,6.05l-1.387,7.873a7.457,7.457,0,0,0,6.045,8.641" transform="translate(-0.073 -37.636)" fill="#fbf1e6"/><path d="M7.459-1.533h7.99A9,9,0,0,1,24.442,7.46v2.789a9,9,0,0,1-8.992,8.992H7.458A9,9,0,0,1-1.533,10.25V7.459A9,9,0,0,1,7.459-1.533ZM15.45,16.175a5.933,5.933,0,0,0,5.926-5.926V7.46a5.934,5.934,0,0,0-5.927-5.927H7.459A5.933,5.933,0,0,0,1.533,7.459v2.79a5.932,5.932,0,0,0,5.925,5.925Z" transform="matrix(0.174, -0.985, 0.985, 0.174, 94.681, 129.832)" fill="#121212"/><line x1="4.716" y1="0.832" transform="translate(98.108 112.863)" fill="#fbf1e6"/><path d="M4.718,1.832a1.006,1.006,0,0,1-.175-.015L-.174.985A1,1,0,0,1-.985-.174,1,1,0,0,1,.174-.985L4.89-.153a1,1,0,0,1-.173,1.985Z" transform="translate(98.108 112.863)" fill="#121212"/><line x1="4.716" y1="0.832" transform="translate(97.431 116.703)" fill="#fbf1e6"/><path d="M4.718,1.832a1.006,1.006,0,0,1-.175-.015L-.174.985A1,1,0,0,1-.985-.174,1,1,0,0,1,.174-.985L4.89-.153a1,1,0,0,1-.173,1.985Z" transform="translate(97.431 116.703)" fill="#121212"/><line x1="4.716" y1="0.832" transform="translate(96.755 120.544)" fill="#fbf1e6"/><path d="M4.718,1.832a1.006,1.006,0,0,1-.175-.015L-.174.985A1,1,0,0,1-.985-.174,1,1,0,0,1,.174-.985L4.89-.153a1,1,0,0,1-.173,1.985Z" transform="translate(96.755 120.544)" fill="#121212"/><line x1="4.716" y1="0.832" transform="translate(96.078 124.385)" fill="#fbf1e6"/><path d="M4.718,1.832a1.006,1.006,0,0,1-.175-.015L-.174.985A1,1,0,0,1-.985-.174,1,1,0,0,1,.174-.985L4.89-.153a1,1,0,0,1-.173,1.985Z" transform="translate(96.078 124.385)" fill="#121212"/></g></g><g clip-path="url(#e)"><path d="M47.793,28.038a1.782,1.782,0,0,0-.986-.409,2.491,2.491,0,0,0-1.18.2,2.4,2.4,0,0,0-1.442,1.4,2.892,2.892,0,0,0,.111,2.149,2.925,2.925,0,0,0,1.473,1.69,2.67,2.67,0,0,0,2.159-.048,2.435,2.435,0,0,0,1.215-.97,2.543,2.543,0,0,0,.344-1.525l-2.816,1.132-.659-1.635,4.828-1.941.83,2.062a4.7,4.7,0,0,1-.216,1.88,4.772,4.772,0,0,1-1.034,1.757,5.006,5.006,0,0,1-1.874,1.265,5.239,5.239,0,0,1-2.645.378,4.542,4.542,0,0,1-2.308-.979,5.589,5.589,0,0,1-1.936-4.8,4.538,4.538,0,0,1,.979-2.308A5.2,5.2,0,0,1,44.8,25.774a5.037,5.037,0,0,1,3.077-.318,4.037,4.037,0,0,1,2.368,1.595Z" transform="translate(-0.032 -0.038)" fill="#121212"/><path d="M55.815,31.786a4.818,4.818,0,0,1-2.249-1.237,5.284,5.284,0,0,1-1.4-4.988,4.814,4.814,0,0,1,1.282-2.217,5.335,5.335,0,0,1,4.891-1.368,4.74,4.74,0,0,1,2.233,1.234,5.357,5.357,0,0,1,1.39,4.99A4.777,4.777,0,0,1,60.7,30.42a5.323,5.323,0,0,1-4.884,1.366m3.632-3.426a2.972,2.972,0,0,0,.122-2.183,2.962,2.962,0,0,0-1.24-1.808,2.423,2.423,0,0,0-2.021-.241A2.453,2.453,0,0,0,54.69,25.38a2.962,2.962,0,0,0-.119,2.2,2.967,2.967,0,0,0,1.24,1.808,2.438,2.438,0,0,0,2.034.238,2.409,2.409,0,0,0,1.6-1.261" transform="translate(-0.04 -0.033)" fill="#121212"/><path d="M66.31,29.181a4.809,4.809,0,0,1-2.1-1.479,5.279,5.279,0,0,1-.833-5.111,4.814,4.814,0,0,1,1.522-2.06,5.337,5.337,0,0,1,5.011-.817,4.715,4.715,0,0,1,2.082,1.475A5.344,5.344,0,0,1,72.82,26.3a4.763,4.763,0,0,1-1.5,2.065,5.321,5.321,0,0,1-5.005.815m3.989-3a2.964,2.964,0,0,0,.365-2.155,2.963,2.963,0,0,0-1.031-1.936,2.694,2.694,0,0,0-3.728.6,2.964,2.964,0,0,0-.364,2.17,2.966,2.966,0,0,0,1.032,1.935,2.437,2.437,0,0,0,2,.461A2.408,2.408,0,0,0,70.3,26.181" transform="translate(-0.048 -0.029)" fill="#121212"/><path d="M80.817,18.893a4.406,4.406,0,0,1,1.891,1.625,5.475,5.475,0,0,1,.284,5.115,4.365,4.365,0,0,1-1.706,1.831,5.726,5.726,0,0,1-2.669.764l-3.673.2-.544-9.8,3.673-.2a5.735,5.735,0,0,1,2.744.463m-.4,6.421a2.809,2.809,0,0,0,.639-2.136,2.623,2.623,0,0,0-3.024-2.7l-1.131.063.317,5.7,1.131-.064a2.889,2.889,0,0,0,2.068-.856" transform="translate(-0.057 -0.028)" fill="#121212"/><path d="M94.578,18.652l-.432,6.668a3.157,3.157,0,0,1-1.026,2.33,3.258,3.258,0,0,1-2.406.684,3.486,3.486,0,0,1-2.428-1.038,3.261,3.261,0,0,1-.773-2.557l2.373.153a1.459,1.459,0,0,0,.191.944.878.878,0,0,0,.705.361.833.833,0,0,0,.688-.237,1.212,1.212,0,0,0,.29-.794L92.19,18.5Z" transform="translate(-0.067 -0.028)" fill="#121212"/><path d="M97.809,28.354a4.807,4.807,0,0,1-1.524-2.066,5.284,5.284,0,0,1,.826-5.113,4.827,4.827,0,0,1,2.1-1.474,5.337,5.337,0,0,1,5.013.808,4.725,4.725,0,0,1,1.509,2.057,5.345,5.345,0,0,1-.832,5.111,4.753,4.753,0,0,1-2.082,1.484,5.32,5.32,0,0,1-5.005-.807m4.733-1.588a2.963,2.963,0,0,0,1.027-1.93,2.961,2.961,0,0,0-.366-2.162,2.419,2.419,0,0,0-1.734-1.065,2.449,2.449,0,0,0-1.993.457,2.959,2.959,0,0,0-1.03,1.943,2.963,2.963,0,0,0,.367,2.162,2.436,2.436,0,0,0,1.748,1.069,2.409,2.409,0,0,0,1.981-.474" transform="translate(-0.073 -0.029)" fill="#121212"/><path d="M114.4,28.244a2.572,2.572,0,0,1-1.23,3.26,3.637,3.637,0,0,1-2.5.073l-4.419-1.185,2.547-9.478,4.269,1.146a3.619,3.619,0,0,1,2.085,1.268,2.485,2.485,0,0,1-.477,3.288,2.352,2.352,0,0,1-1.376.455,2.286,2.286,0,0,1,1.1,1.172m-2.67,1.339a.967.967,0,0,0,.523-.678,1.009,1.009,0,0,0-.121-.872,1.4,1.4,0,0,0-.835-.527l-1.676-.45-.563,2.093,1.7.456a1.414,1.414,0,0,0,.969-.022m-1.656-4.215,1.514.405a1.385,1.385,0,0,0,.937-.015.933.933,0,0,0,.5-.655.949.949,0,0,0-.1-.824,1.366,1.366,0,0,0-.8-.49l-1.514-.405Z" transform="translate(-0.081 -0.031)" fill="#121212"/><path d="M115.842,32.9a1.2,1.2,0,0,1-.074-1,1.242,1.242,0,0,1,.686-.752,1.429,1.429,0,0,1,1.1-.016,1.413,1.413,0,0,1,.832.69,1.243,1.243,0,0,1,.067,1.016,1.2,1.2,0,0,1-.679.732,1.429,1.429,0,0,1-1.08.015,1.45,1.45,0,0,1-.847-.689m5.434-8.593L118.8,30.532l-1.915-.67,1.95-6.411Z" transform="translate(-0.088 -0.035)" fill="#121212"/><path d="M120.9,34.766a1.2,1.2,0,0,1-.019-1,1.24,1.24,0,0,1,.727-.713,1.438,1.438,0,0,1,1.094.044,1.414,1.414,0,0,1,.792.737,1.233,1.233,0,0,1,.01,1.017,1.2,1.2,0,0,1-.719.694,1.425,1.425,0,0,1-1.078-.046,1.442,1.442,0,0,1-.807-.735m5.9-8.277-2.821,6.08-1.875-.776,2.3-6.293Z" transform="translate(-0.092 -0.038)" fill="#121212"/></g></g></g></svg>