<svg xmlns="http://www.w3.org/2000/svg" xmlns:xlink="http://www.w3.org/1999/xlink" width="244" height="170" viewBox="0 0 244 170"><defs><clipPath id="a"><rect width="244" height="170" fill="none"/></clipPath><clipPath id="b"><path d="M8.376,14.187V70.025c0,13.073,31.154,23.67,69.586,23.67s69.584-10.6,69.584-23.67V14.187Z" transform="translate(-8.376 -14.187)" fill="none"/></clipPath></defs><g opacity="0.3"><g clip-path="url(#a)"><path d="M147.421,63.407l-20.86,132.771c-1.952,9.877-21.791,18.709-48.672,18.709s-46.723-8.832-48.672-18.709L8.358,63.407Z" transform="translate(1.114 8.454)" fill="#ea5457"/><path d="M147.421,66.192c0,13.071-31.132,23.667-69.532,23.667S8.358,79.262,8.358,66.192s31.13-23.667,69.531-23.667,69.532,10.6,69.532,23.667" transform="translate(1.114 5.67)" fill="#ea5457"/><path d="M78.2,217.88c-26.9,0-48.952-8.971-51.3-20.868-.008-.035-.012-.068-.018-.1L6.028,64.138a2.677,2.677,0,0,1,5.289-.831L32.169,196.023c1.63,7.946,19.662,16.5,46.035,16.5s44.4-8.557,46.036-16.5L145.091,63.307a2.677,2.677,0,0,1,5.289.831L129.522,196.909c-.006.035-.011.069-.018.1-2.351,11.9-24.4,20.867-51.3,20.867" transform="translate(0.799 8.139)" fill="#fff"/><path d="M78.2,92.852c-18.859,0-36.625-2.513-50.029-7.075-14.3-4.868-22.18-11.712-22.18-19.269s7.877-14.4,22.18-19.271c13.4-4.562,31.17-7.074,50.029-7.074s36.626,2.513,50.029,7.074c14.3,4.869,22.18,11.713,22.18,19.271s-7.877,14.4-22.18,19.269c-13.4,4.563-31.17,7.075-50.029,7.075m0-47.335c-39.4,0-66.854,11.062-66.854,20.99S38.806,87.5,78.2,87.5s66.854-11.062,66.854-20.989S117.6,45.517,78.2,45.517" transform="translate(0.799 5.355)" fill="#fff"/><path d="M77.809,94.95c-32.226,0-60.416-7.555-68.551-18.371a1.488,1.488,0,1,1,2.378-1.788c7.488,9.957,35.318,17.186,66.173,17.186s58.684-7.228,66.174-17.186a1.487,1.487,0,1,1,2.377,1.788C138.223,87.395,110.034,94.95,77.809,94.95" transform="translate(1.195 9.893)" fill="#fff"/><path d="M61.275,126.05a3.612,3.612,0,1,1-3.613-3.61h0a3.613,3.613,0,0,1,3.612,3.614" transform="translate(7.207 16.325)" fill="#fff"/><path d="M54.522,118.27a2.678,2.678,0,0,1-1.2-5.071,10.373,10.373,0,0,1,9.285,0,2.677,2.677,0,0,1-2.407,4.783,5,5,0,0,0-4.472,0,2.688,2.688,0,0,1-1.2.286" transform="translate(6.912 14.947)" fill="#fff"/><path d="M70.907,147.641a19.376,19.376,0,0,1-8.709-2.058,2.677,2.677,0,1,1,2.408-4.783,14.077,14.077,0,0,0,12.6,0,2.677,2.677,0,0,1,2.408,4.783,19.381,19.381,0,0,1-8.71,2.058" transform="translate(8.097 18.735)" fill="#fff"/><path d="M86.216,126.05a3.612,3.612,0,1,1-3.612-3.614,3.61,3.61,0,0,1,3.612,3.614" transform="translate(10.532 16.325)" fill="#fff"/><path d="M86.338,118.27a2.688,2.688,0,0,1-1.2-.286,5,5,0,0,0-4.472,0,2.677,2.677,0,0,1-2.407-4.783,10.374,10.374,0,0,1,9.285,0,2.678,2.678,0,0,1-1.2,5.071" transform="translate(10.238 14.947)" fill="#fff"/><path d="M71.947,138.538H68.5a2.677,2.677,0,0,1,0-5.355h3.442a2.677,2.677,0,0,1,0,5.355" transform="translate(8.777 17.758)" fill="#fff"/><path d="M215.283,25.925a32.155,32.155,0,0,1,3.1,11.878c2.343,31.387-26.105,49-57.381,38.431a126.773,126.773,0,0,0-13.627-4.2,17.861,17.861,0,0,0-13.746,2.345l-31.5-23.529c5.723-18.616,30.548-39.789,59.447-43.407C172.011,6.133,182.144,6.392,190.9,8.5a42.3,42.3,0,0,0,10.035.838c3.626-.119,8.094-1.36,11.024.776,5.066,3.694.161,8.536,3.327,15.8" transform="translate(13.618 0.886)" fill="#ea5457"/><path d="M179.26,82.275a58.819,58.819,0,0,1-18.8-3.189,125.114,125.114,0,0,0-13.415-4.143,15.263,15.263,0,0,0-11.657,2,2.677,2.677,0,0,1-3.046-.109l-31.5-23.529a2.681,2.681,0,0,1-.957-2.933c3.026-9.84,11.032-20.287,21.964-28.665A83.548,83.548,0,0,1,161.563,5.1c11.044-1.383,21.516-1,30.278,1.119a39.746,39.746,0,0,0,9.308.765c.8-.026,1.668-.116,2.586-.209,3.31-.339,7.065-.725,10.112,1.5,3.972,2.895,3.662,6.636,3.411,9.64a13.877,13.877,0,0,0,.777,7.219A34.661,34.661,0,0,1,221.37,37.95c1.1,14.687-4.128,27.313-14.712,35.523-7.494,5.812-17.09,8.8-27.4,8.8M143.616,69.194a20.39,20.39,0,0,1,4.69.545,129.732,129.732,0,0,1,13.945,4.3c15.208,5.137,30.611,3.355,41.125-4.8,9.12-7.073,13.612-18.056,12.653-30.924a29.4,29.4,0,0,0-2.844-10.92l-.041-.09a18.755,18.755,0,0,1-1.223-9.844c.242-2.907.246-3.793-1.227-4.869-1.387-1.012-3.944-.749-6.414-.5-.97.1-1.972.2-2.947.235a45.17,45.17,0,0,1-10.66-.891c-8.229-1.986-18.036-2.334-28.447-1.031-27.581,3.453-50.336,22.95-56.618,39.77l28.527,21.311a20.709,20.709,0,0,1,9.48-2.3" transform="translate(13.303 0.571)" fill="#fff"/></g><g transform="translate(9.493 16.079)"><g clip-path="url(#b)"><path d="M105.042,194.146c13.082-19.536,20.656-45.059,21.024-70.85.254-17.775-2.783-35.327-4.179-53.015s-.987-36.4,5.578-52.038H31.624c-6.569,15.639-6.977,34.349-5.583,52.038s4.431,35.24,4.177,53.015c-.372,25.791-7.941,51.317-21.023,70.85Z" transform="translate(-8.267 -13.646)" fill="#ea5457"/><path d="M125.566,18.242H29.718C24.791,29.98,23.329,43.447,23.5,56.916h95.848c-.169-13.469,1.29-26.936,6.221-38.674" transform="translate(-6.362 -13.646)" fill="#ea5457"/><path d="M105.357,197.139H9.51a2.678,2.678,0,0,1-2.225-4.167C20,173.992,27.495,148.7,27.858,123.572c.167-11.684-1.14-23.551-2.4-35.027-.638-5.8-1.3-11.8-1.767-17.739-1.79-22.7.049-39.634,5.783-53.286a2.677,2.677,0,0,1,2.468-1.64h95.843a2.676,2.676,0,0,1,2.468,3.713c-5.388,12.837-7.1,28.976-5.377,50.791.461,5.856,1.117,11.813,1.751,17.575,1.282,11.639,2.607,23.673,2.434,35.69-.372,26.121-8.2,52.476-21.477,72.3a2.681,2.681,0,0,1-2.225,1.188m-90.969-5.355h89.528c12.241-18.85,19.438-43.616,19.789-68.211.167-11.685-1.14-23.552-2.4-35.028-.639-5.8-1.3-11.8-1.768-17.739-1.63-20.686-.25-36.581,4.344-49.572H33.745c-4.868,12.566-6.367,28.253-4.72,49.15.461,5.856,1.119,11.813,1.752,17.575,1.281,11.639,2.606,23.673,2.434,35.69-.351,24.341-7.166,48.872-18.824,68.135" transform="translate(-8.582 -13.961)" fill="#fff"/><path d="M86.117,61.028h-36.2a1.487,1.487,0,0,1,0-2.974h36.2a1.487,1.487,0,1,1,0,2.974" transform="translate(-3.035 -8.338)" fill="#fff"/><path d="M86.117,66.278h-36.2a1.487,1.487,0,0,1,0-2.974h36.2a1.487,1.487,0,1,1,0,2.974" transform="translate(-3.035 -7.638)" fill="#fff"/><path d="M35.639,1.313H0A1.313,1.313,0,0,1-1.313,0,1.313,1.313,0,0,1,0-1.312H35.639A1.313,1.313,0,0,1,36.951,0,1.313,1.313,0,0,1,35.639,1.313Z" transform="translate(27.676 133.524)" fill="#c8c8c8"/><path d="M35.784,1.313H0A1.313,1.313,0,0,1-1.312,0,1.313,1.313,0,0,1,0-1.312H35.784A1.313,1.313,0,0,1,37.1,0,1.313,1.313,0,0,1,35.784,1.313Z" transform="translate(26.281 139.473)" fill="#c8c8c8"/><path d="M35.784,1.313H0A1.313,1.313,0,0,1-1.312,0,1.313,1.313,0,0,1,0-1.312H35.784A1.313,1.313,0,0,1,37.1,0,1.313,1.313,0,0,1,35.784,1.313Z" transform="translate(24.755 145.422)" fill="#c8c8c8"/><path d="M35.784,1.313H0A1.312,1.312,0,0,1-1.312,0,1.312,1.312,0,0,1,0-1.312H35.784A1.312,1.312,0,0,1,37.1,0,1.312,1.312,0,0,1,35.784,1.313Z" transform="translate(22.939 151.373)" fill="#c8c8c8"/><path d="M35.87,1.313H0A1.313,1.313,0,0,1-1.313,0,1.313,1.313,0,0,1,0-1.312H35.87A1.313,1.313,0,0,1,37.182,0,1.313,1.313,0,0,1,35.87,1.313Z" transform="translate(73.186 89.613)" fill="#c8c8c8"/><path d="M36.323,1.313H0A1.312,1.312,0,0,1-1.312,0,1.312,1.312,0,0,1,0-1.312H36.323A1.313,1.313,0,0,1,37.636,0,1.313,1.313,0,0,1,36.323,1.313Z" transform="translate(73.186 95.563)" fill="#c8c8c8"/><path d="M35.454,1.313H0A1.313,1.313,0,0,1-1.313,0,1.313,1.313,0,0,1,0-1.312H35.454A1.313,1.313,0,0,1,36.767,0,1.313,1.313,0,0,1,35.454,1.313Z" transform="translate(74.055 101.513)" fill="#c8c8c8"/><path d="M35.454,1.313H0A1.313,1.313,0,0,1-1.313,0,1.313,1.313,0,0,1,0-1.312H35.454A1.313,1.313,0,0,1,36.767,0,1.313,1.313,0,0,1,35.454,1.313Z" transform="translate(74.055 107.463)" fill="#c8c8c8"/><path d="M35.575,1.313H0A1.313,1.313,0,0,1-1.313,0,1.313,1.313,0,0,1,0-1.312H35.575A1.313,1.313,0,0,1,36.888,0,1.313,1.313,0,0,1,35.575,1.313Z" transform="translate(73.934 113.412)" fill="#c8c8c8"/><path d="M75.031,80.173H57.876a4.76,4.76,0,0,1,0-9.52H75.031a4.76,4.76,0,0,1,.006,9.52h-.006" transform="translate(-2.41 -6.658)" fill="#fff"/><path d="M70.224,76.515H60.982a1.487,1.487,0,1,1,0-2.974h9.242a1.487,1.487,0,1,1,0,2.974" transform="translate(-1.56 -6.273)" fill="#ea5457"/><path d="M61.8,161.5h40.189a136.249,136.249,0,0,0,9.846-35.7H71.65A136.249,136.249,0,0,1,61.8,161.5" transform="translate(-1.252 0.696)" fill="#c8c8c8"/><path d="M73.351,113.993a225.708,225.708,0,0,0-1.416-25.986H31.746a225.706,225.706,0,0,1,1.416,25.986q-.07,4.869-.478,9.713H72.872q.406-4.833.478-9.713" transform="translate(-5.26 -4.344)" fill="#c8c8c8"/><path d="M46.365,26.181h-7.14a1.487,1.487,0,0,1,0-2.974h7.14a1.487,1.487,0,0,1,0,2.974" transform="translate(-4.461 -12.984)" fill="#fff"/><path d="M59.489,26.181h-7.14a1.487,1.487,0,1,1,0-2.974h7.14a1.487,1.487,0,1,1,0,2.974" transform="translate(-2.711 -12.984)" fill="#fff"/><path d="M72.614,26.181h-7.14a1.487,1.487,0,1,1,0-2.974h7.14a1.487,1.487,0,1,1,0,2.974" transform="translate(-0.961 -12.984)" fill="#fff"/><path d="M85.738,26.181H78.6a1.487,1.487,0,0,1,0-2.974h7.14a1.487,1.487,0,0,1,0,2.974" transform="translate(0.789 -12.984)" fill="#fff"/><path d="M98.863,26.181h-7.14a1.487,1.487,0,1,1,0-2.974h7.14a1.487,1.487,0,1,1,0,2.974" transform="translate(2.539 -12.984)" fill="#fff"/></g></g><g clip-path="url(#a)"><path d="M78.169,88.78c-18.858,0-36.625-2.513-50.029-7.075-14.3-4.87-22.18-11.713-22.18-19.27a2.678,2.678,0,0,1,5.355,0c0,9.928,27.456,20.99,66.854,20.99,25.7,0,49.575-4.983,60.812-12.7a2.678,2.678,0,0,1,3.031,4.417C129.756,83.556,105.293,88.78,78.169,88.78" transform="translate(0.795 7.968)" fill="#fff"/><path d="M26.614,57.728a10.991,10.991,0,0,0,7.5-5.991,9.3,9.3,0,0,0,8.165-10.305,9.421,9.421,0,0,0-.169-.988,9.3,9.3,0,0,0-6.833-6.972,7.574,7.574,0,0,0-10.827-10.45A9.812,9.812,0,0,0,9.655,33.5a10.176,10.176,0,0,0,.352,1.191,9.642,9.642,0,0,0,5.014,18.6c.037-.008.074-.019.111-.028a11.01,11.01,0,0,0,11.482,4.463" transform="translate(0.433 2.84)" fill="#ea5457"/><path d="M24.463,61A13.606,13.606,0,0,1,14.322,56.47,12.318,12.318,0,0,1,7.181,33.459,12.491,12.491,0,0,1,24.6,20.221,10.26,10.26,0,0,1,39.308,32.415a11.906,11.906,0,0,1,5.727,7.754,11.538,11.538,0,0,1,.218,1.274,11.979,11.979,0,0,1-9.087,13.017,13.584,13.584,0,0,1-8.646,6.195A13.821,13.821,0,0,1,24.463,61M15.447,50.905a2.676,2.676,0,0,1,2.2,1.151,8.3,8.3,0,0,0,8.69,3.376h0A8.266,8.266,0,0,0,32.012,50.9a2.681,2.681,0,0,1,2.109-1.507,6.616,6.616,0,0,0,5.812-7.336,6.5,6.5,0,0,0-.119-.7,6.59,6.59,0,0,0-4.867-4.97,2.677,2.677,0,0,1-1.484-4.224,4.9,4.9,0,0,0-7-6.757,2.679,2.679,0,0,1-3.127.2A7.134,7.134,0,0,0,12.581,33.22a7.233,7.233,0,0,0,.258.87,2.678,2.678,0,0,1-1.716,3.469A6.966,6.966,0,0,0,14.746,51l.128-.033a2.74,2.74,0,0,1,.573-.061" transform="translate(0.118 2.523)" fill="#fff"/><path d="M122.3,53.37v-.093a7.25,7.25,0,0,0-7.4-7.1,7.336,7.336,0,0,0-7.252,5.678,8.033,8.033,0,0,0-1.142-.083,7.24,7.24,0,1,0-.593,14.468c.2.008.394.008.593,0a7.763,7.763,0,0,0,2.923-.564,6.1,6.1,0,0,0,10.619.613,7.364,7.364,0,0,0,1.116.088A6.536,6.536,0,0,0,122.3,53.366" transform="translate(13.195 6.157)" fill="#ea5457"/><path d="M115.228,72.107a8.828,8.828,0,0,1-6.631-3.02,10.455,10.455,0,0,1-1.728.15c-.253.01-.5.008-.755,0a9.917,9.917,0,0,1,.009-19.819,10.082,10.082,0,0,1,8.983-5.6h.264a9.934,9.934,0,0,1,9.678,7.725,9.253,9.253,0,0,1,5.968,9.1,9.214,9.214,0,0,1-9.441,8.735,8.794,8.794,0,0,1-6.347,2.728m-5.489-8.79a2.676,2.676,0,0,1,2.408,1.507,3.42,3.42,0,0,0,4.57,1.579,3.429,3.429,0,0,0,1.387-1.236,2.683,2.683,0,0,1,2.672-1.2c.273.043.554.041.839.059a3.859,3.859,0,0,0,4.053-3.655,3.872,3.872,0,0,0-3.261-4.012,2.679,2.679,0,0,1-2.421-2.144v0a2.584,2.584,0,0,1-.051-.6v-.017a4.523,4.523,0,0,0-1.406-3.15,4.623,4.623,0,0,0-3.262-1.272c-.032,0-.062,0-.1,0H115.1a4.682,4.682,0,0,0-4.536,3.605,2.67,2.67,0,0,1-2.989,2.047,7.082,7.082,0,0,0-.874-.057,4.562,4.562,0,1,0-.373,9.117c.126.006.248.006.372,0,.039,0,.1,0,.116,0a4.6,4.6,0,0,0,1.92-.371,2.669,2.669,0,0,1,1-.194" transform="translate(12.88 5.842)" fill="#fff"/><path d="M22.183,95.851c1.3.606,1.973.9,3.388,1.471.107,1.149.161,1.723.267,2.872A50.2,50.2,0,0,1,19.8,97.333c-.723-5.4-1.083-8.1-1.805-13.493,1.147.572,1.745.85,2.985,1.394.485,4.248.725,6.372,1.209,10.619" transform="translate(2.399 11.179)" fill="#ea5457"/><path d="M35.24,96.546A2.638,2.638,0,0,1,33.585,97.7a4.989,4.989,0,0,1-2.7-.2c-.713-.222-1.065-.335-1.759-.563l.323,4.568c-1.372-.465-2.037-.711-3.318-1.208-.465-5.4-.7-8.106-1.17-13.51,2.051.737,3.126,1.085,5.358,1.739a8.979,8.979,0,0,1,2.834,1.362,6.454,6.454,0,0,1,1.86,2.062,5.641,5.641,0,0,1,.708,2.5,3.581,3.581,0,0,1-.484,2.1M31.816,93.4a2.062,2.062,0,0,0-1.658-1.945c-.585-.178-.874-.267-1.445-.45.083,1.176.124,1.766.206,2.938.566.186.85.274,1.428.453,1.022.315,1.525-.022,1.469-1" transform="translate(3.329 11.571)" fill="#ea5457"/><path d="M40.161,101.526c1.839.389,2.783.571,4.71.908.022,1.17.033,1.753.056,2.923-3.632-.652-5.374-1.023-8.675-1.851-.219-5.45-.328-8.175-.545-13.627,1.623.373,2.451.55,4.141.883.125,4.306.186,6.458.313,10.764" transform="translate(4.761 11.984)" fill="#ea5457"/><path d="M57.63,99.994a4.3,4.3,0,0,1-2.157,1.459,7.945,7.945,0,0,1-3.465.249c-.916-.105-1.369-.162-2.267-.278.016,1.86.024,2.795.041,4.657-1.808-.245-2.7-.38-4.437-.668-.087-5.5-.129-8.248-.216-13.748,2.667.4,4.034.583,6.822.889a10.289,10.289,0,0,1,3.474.936,5.486,5.486,0,0,1,2.186,1.818,4.319,4.319,0,0,1,.739,2.457,3.654,3.654,0,0,1-.72,2.23M53.5,97.323c0-1.006-.674-1.575-1.982-1.727-.737-.084-1.1-.127-1.833-.221.01,1.2.016,1.8.026,3,.728.092,1.091.137,1.828.224,1.3.152,1.966-.279,1.962-1.272" transform="translate(6.017 12.222)" fill="#ea5457"/><path d="M63.43,104.282c2.222.093,3.347.122,5.629.146v2.964c-4.323-.05-6.437-.138-10.541-.428V93.084c1.953.122,2.939.173,4.928.25,0,4.379-.008,6.569-.014,10.948" transform="translate(7.802 12.411)" fill="#ea5457"/><path d="M83.015,99.928a5.346,5.346,0,0,1-2.21,1.8,9.349,9.349,0,0,1-3.665.8c-.986.039-1.482.054-2.48.08,0,1.88,0,2.819.006,4.7-2.014.054-3.037.069-5.1.067V93.453c3.059,0,4.575-.026,7.557-.136a10.21,10.21,0,0,1,3.647.423,4.489,4.489,0,0,1,2.23,1.5,3.8,3.8,0,0,1,.743,2.348,4.122,4.122,0,0,1-.729,2.346m-4.26-2.046c0-1.012-.7-1.482-2.107-1.433-.794.028-1.195.04-1.995.06v3.02c.8-.02,1.2-.033,1.995-.062,1.41-.05,2.1-.586,2.1-1.586" transform="translate(9.276 12.439)" fill="#ea5457"/><path d="M88.464,103.35c2.064-.24,3.079-.372,5.066-.674-.015,1.172-.023,1.758-.037,2.93-3.749.572-5.7.811-9.722,1.174.009-5.543.015-8.315.025-13.86,1.918-.156,2.865-.246,4.733-.449l-.065,10.877" transform="translate(11.169 12.329)" fill="#ea5457"/><path d="M105.231,96.454a6.229,6.229,0,0,1-1.872,2.055,7.9,7.9,0,0,1-3.049,1.274c-.819.17-1.235.253-2.072.413-.044,1.85-.066,2.776-.11,4.626-1.673.33-2.532.485-4.276.772.084-5.5.127-8.251.212-13.75,2.67-.4,3.973-.626,6.508-1.116a7.15,7.15,0,0,1,3.053-.056,2.84,2.84,0,0,1,1.791,1.182,3.673,3.673,0,0,1,.51,2.209,5.432,5.432,0,0,1-.69,2.4M101.8,95.006c.032-1-.535-1.367-1.725-1.132-.671.131-1.01.195-1.692.321-.028,1.189-.042,1.784-.071,2.975.678-.128,1.014-.193,1.682-.325,1.183-.237,1.775-.856,1.807-1.837" transform="translate(12.514 12.071)" fill="#ea5457"/><path d="M109.338,99.041c1.606-.5,2.382-.762,3.878-1.3-.093,1.15-.136,1.726-.229,2.876-2.8,1.031-4.3,1.514-7.485,2.4.264-5.438.4-8.158.658-13.6,1.573-.4,2.341-.61,3.84-1.045-.266,4.268-.4,6.4-.663,10.671" transform="translate(14.067 11.783)" fill="#ea5457"/><path d="M121.927,90.246a8.594,8.594,0,0,1-1.454,2.252,6.59,6.59,0,0,1-2.2,1.625c-.583.266-.879.4-1.487.66-.186,1.822-.279,2.734-.471,4.556-1.191.528-1.812.784-3.1,1.284.465-5.4.7-8.107,1.161-13.512,2.057-.731,3.041-1.115,4.9-1.924a3.965,3.965,0,0,1,2.159-.44,1.35,1.35,0,0,1,1.1.937,4.512,4.512,0,0,1,.093,2.115,9.072,9.072,0,0,1-.714,2.447M119.75,89.24c.117-.983-.239-1.276-1.108-.9-.49.213-.738.318-1.243.528-.121,1.171-.186,1.757-.3,2.927.5-.209.743-.315,1.222-.528a2.359,2.359,0,0,0,1.433-2.03" transform="translate(15.096 11.298)" fill="#ea5457"/></g></g></svg>