<svg xmlns="http://www.w3.org/2000/svg" xmlns:xlink="http://www.w3.org/1999/xlink" width="339" height="294" viewBox="0 0 339 294"><defs><clipPath id="a"><rect width="339" height="166" fill="none"/></clipPath></defs><g transform="translate(-187 -233)"><g transform="translate(187 233.267)"><g transform="translate(0 -0.267)" clip-path="url(#a)"><path d="M4.376,40.35a12.114,12.114,0,0,0-2.12-1.128A15.2,15.2,0,0,0,0,38.409,15.284,15.284,0,0,0,1.669,35,35.96,35.96,0,0,0,2.91,30.669a41.6,41.6,0,0,0,.767-4.649,41.536,41.536,0,0,0,.248-4.4l4.737.406q0,1.31-.09,2.618t-.226,2.618a15.653,15.653,0,0,0,1.083,1.851,13.063,13.063,0,0,0,1.263,1.58V18.415h-8.3V13.992h7.8V9.478H3.473V5.19h6.721V0h5.1V5.19h5.323V9.478H15.292v4.513l6.586-.045v.5a12.45,12.45,0,0,0,3.7-3.769,13.972,13.972,0,0,0,1.94-4.762h-6V1.67H41.636q-.045,1.715-.271,3.949t-.519,4.333a25.464,25.464,0,0,1-.7,3.5,4.811,4.811,0,0,1-2.03,3.137,7.393,7.393,0,0,1-3.654.79H31.938a22.291,22.291,0,0,0-.383-2.415,11.336,11.336,0,0,0-.654-2.234h1.895a4.083,4.083,0,0,0,1.849-.316,1.9,1.9,0,0,0,.857-1.173A13.28,13.28,0,0,0,36.065,8.8q.2-1.4.293-2.889H32.569a17.374,17.374,0,0,1-1.579,4.965,22.591,22.591,0,0,1-2.819,4.4,17.871,17.871,0,0,1-3.586,3.363,17.328,17.328,0,0,0-1.218-1.286q-.767-.745-1.489-1.331v2.392h-6.27v4.468h6v4.739h-6v6.409a30.961,30.961,0,0,0,10.511,1.444q5.774,0,9.924-.2t6.721-.564q-.18.5-.451,1.535t-.474,2.121a15.327,15.327,0,0,0-.248,1.805q-1.263,0-3.293.023t-4.308.023H26.119a30.666,30.666,0,0,1-11.39-1.828,17.246,17.246,0,0,1-7.421-5.619A32.16,32.16,0,0,1,6.09,36.739,24.9,24.9,0,0,1,4.376,40.35M23.232,18.956H40.689V33.129H23.232Zm4.782,9.975h7.939V23.154H28.013Z" transform="translate(0 0.267)" fill="#fff"/><path d="M56.583,38.386a12.471,12.471,0,0,0-1.647-2.347A11.167,11.167,0,0,0,52.7,33.963a24.8,24.8,0,0,0,9.451-6.477,25.938,25.938,0,0,0,5.481-10.539l-12.18.361-.406-5.281q.586.045,2.571.023t4.872-.068q2.886-.044,6.135-.135a55.369,55.369,0,0,0,.541-9.207l5.594.045q.044,2.394-.09,4.649t-.406,4.378q3.158-.09,5.909-.181t4.624-.181q1.872-.089,2.368-.135,0,1.9-.226,4.559t-.586,5.484q-.361,2.821-.767,5.3t-.812,4.017a12.466,12.466,0,0,1-2.052,4.739,6.311,6.311,0,0,1-3.564,2.189,24.93,24.93,0,0,1-6.067.519,23.44,23.44,0,0,0-.7-2.8,10.431,10.431,0,0,0-1.286-2.843,37.744,37.744,0,0,0,4.511-.135,4.437,4.437,0,0,0,2.458-.9,4.615,4.615,0,0,0,1.286-2.212,29.854,29.854,0,0,0,.857-3.566q.406-2.166.722-4.581t.451-4.536l-8.03.271a34.016,34.016,0,0,1-6.112,13.089,30.71,30.71,0,0,1-10.668,8.576" transform="translate(-3.173 0.109)" fill="#fff"/><path d="M107.784,16.931a16.2,16.2,0,0,0-1.647-1.489q-1.06-.856-2.346-1.805t-2.5-1.738a16.54,16.54,0,0,0-2.12-1.2l3.609-4.559q.9.5,2.12,1.264t2.5,1.67q1.286.9,2.413,1.783a19.969,19.969,0,0,1,1.8,1.557Zm-4.827,19.9L99.89,31.284a34.664,34.664,0,0,0,6.744-2.234,67.775,67.775,0,0,0,7.1-3.656A71.422,71.422,0,0,0,120.5,20.88a64.589,64.589,0,0,0,5.8-4.9,34.849,34.849,0,0,0,4.218-4.739,15.5,15.5,0,0,0,.609,1.9q.429,1.13.925,2.189a17.072,17.072,0,0,0,.857,1.647,42.4,42.4,0,0,1-5.526,5.755,70.358,70.358,0,0,1-7.33,5.6,79.728,79.728,0,0,1-8.39,4.9,60.44,60.44,0,0,1-8.706,3.611" transform="translate(-5.971 -0.1)" fill="#fff"/><path d="M145.721,40.027a24.593,24.593,0,0,0-1.444-2.64,10.616,10.616,0,0,0-1.624-2.1,45.476,45.476,0,0,0,9.5-4.739,45.493,45.493,0,0,0,8.1-6.725q-1.353-.9-2.661-1.67a25.468,25.468,0,0,0-2.526-1.309l3.113-4.152a47.138,47.138,0,0,1,5.5,3.024q1.173-1.67,2.21-3.408a29.1,29.1,0,0,0,1.8-3.543q-1.895.09-4.082.2t-4.082.181q-1.895.068-2.977.113a46.464,46.464,0,0,1-4.466,5.755,40.873,40.873,0,0,1-5.5,5.032,26.021,26.021,0,0,0-1.895-2.076,9.845,9.845,0,0,0-2.075-1.67,35.951,35.951,0,0,0,5.932-5.371A41.017,41.017,0,0,0,153.367,8.3a32.918,32.918,0,0,0,3.09-6.906l5.188,1.625q-.5,1.4-1.083,2.776T159.3,8.478q1.985-.044,4.308-.113t4.353-.181q2.03-.111,3.113-.248l3.519,1.9a48.51,48.51,0,0,1-2.8,6.838,52.28,52.28,0,0,1-3.609,6.116q1.714,1.264,3.225,2.55a24.558,24.558,0,0,1,2.5,2.415,10.83,10.83,0,0,0-1.421,1.264q-.789.812-1.489,1.67a16.889,16.889,0,0,0-1.105,1.489,47.968,47.968,0,0,0-5.278-5.01,46.315,46.315,0,0,1-8.548,7.4,56,56,0,0,1-10.353,5.461" transform="translate(-8.587 0.184)" fill="#fff"/><path d="M196.1,16.931a16.2,16.2,0,0,0-1.646-1.489q-1.06-.856-2.346-1.805t-2.5-1.738a16.539,16.539,0,0,0-2.12-1.2L191.1,6.144q.9.5,2.12,1.264t2.5,1.67q1.286.9,2.413,1.783a19.967,19.967,0,0,1,1.8,1.557Zm-4.827,19.9-3.067-5.552a34.664,34.664,0,0,0,6.744-2.234,67.775,67.775,0,0,0,7.1-3.656,71.422,71.422,0,0,0,6.766-4.513,64.585,64.585,0,0,0,5.8-4.9,34.847,34.847,0,0,0,4.218-4.739,15.5,15.5,0,0,0,.609,1.9q.429,1.13.925,2.189a17.079,17.079,0,0,0,.857,1.647,42.4,42.4,0,0,1-5.526,5.755,70.358,70.358,0,0,1-7.33,5.6,79.729,79.729,0,0,1-8.39,4.9,60.442,60.442,0,0,1-8.706,3.611" transform="translate(-11.289 -0.1)" fill="#fff"/><path d="M229.637,39.243a3.849,3.849,0,1,1,2.93-.134,3.7,3.7,0,0,1-2.93.134m1.735-11.232q.392-1.346,1.045-3.534t1.406-4.724q.754-2.535,1.52-4.969t1.373-4.3q.608-1.867.9-2.673l2.392-6.575,6.1,2.224-2.392,6.574q-.295.807-1.029,2.627t-1.711,4.18q-.978,2.358-2.03,4.785l-1.957,4.523q-.905,2.095-1.47,3.379Z" transform="translate(-13.675 0.193)" fill="#fff"/><path d="M248.44,39.243a3.85,3.85,0,1,1,2.929-.134,3.693,3.693,0,0,1-2.929.134m1.734-11.232q.392-1.346,1.045-3.534t1.407-4.724q.753-2.535,1.52-4.969t1.373-4.3q.608-1.867.9-2.673l2.391-6.575,6.1,2.224-2.392,6.574q-.293.807-1.028,2.627t-1.712,4.18q-.978,2.358-2.029,4.785T255.8,26.144q-.906,2.095-1.47,3.379Z" transform="translate(-14.807 0.193)" fill="#fff"/><path d="M15.448,105.252a15.408,15.408,0,0,1-5.909-.293,8.026,8.026,0,0,1-4.015-2.324A5.887,5.887,0,0,1,4.08,98.572a9.76,9.76,0,0,1,2.594-6.3,18.66,18.66,0,0,1,7.15-5.032V80.428q-2.481.181-4.8.271t-4.308,0l-.271-5.19a32.53,32.53,0,0,0,4.2.113q2.48-.068,5.188-.339V68.016l5.007.045V74.7q2.255-.361,4.218-.79a21.689,21.689,0,0,0,3.225-.925l.541,4.965a27.119,27.119,0,0,1-3.654,1.038q-2.075.451-4.331.812v5.913a27.846,27.846,0,0,1,3.293-.542,34.015,34.015,0,0,1,3.564-.181,18.377,18.377,0,0,1,7.375,1.331,10.766,10.766,0,0,1,4.624,3.566,8.512,8.512,0,0,1,1.579,5.032,8.948,8.948,0,0,1-2.616,6.815,9.718,9.718,0,0,1-7.082,2.437,9.6,9.6,0,0,1-5.842-1.738,9.606,9.606,0,0,1-3.406-5.168,23.52,23.52,0,0,0,2.526-.97,14.8,14.8,0,0,0,2.346-1.241Q26.318,98.8,29.522,98.8a3.862,3.862,0,0,0,3.022-1.151,4.121,4.121,0,0,0,1.038-2.866A4.418,4.418,0,0,0,31.6,91.1q-1.986-1.467-5.954-1.467a24.994,24.994,0,0,0-6.812.9v11.238a3.42,3.42,0,0,1-.767,2.46,4.339,4.339,0,0,1-2.616,1.016M12.2,100.468a2.315,2.315,0,0,0,1.241-.181.864.864,0,0,0,.383-.812V92.569a12.789,12.789,0,0,0-3.293,2.753A4.712,4.712,0,0,0,9.313,98.3a1.812,1.812,0,0,0,.767,1.58,3.853,3.853,0,0,0,2.12.587M38.409,84.355a21.828,21.828,0,0,0-2.932-2.37q-1.851-1.286-3.789-2.437a23.3,23.3,0,0,0-3.473-1.738l2.842-4.062a28.918,28.918,0,0,1,3.564,1.715q1.938,1.083,3.789,2.3a26.956,26.956,0,0,1,3.113,2.347q-.451.5-1.105,1.354T39.2,83.136q-.565.812-.789,1.219" transform="translate(-0.246 -3.794)" fill="#fff"/><path d="M70.315,107.711a17.935,17.935,0,0,0-1.535-1.625,8.949,8.949,0,0,0-1.758-1.354,22.613,22.613,0,0,0,4.578-3.159,29.581,29.581,0,0,0,3.834-4.085,24.66,24.66,0,0,0,2.684-4.22h-2.3a28.515,28.515,0,0,1-5.842,7.064,32.4,32.4,0,0,1-7.918,5.213q-.271-.406-.788-1.061t-1.083-1.264a4.97,4.97,0,0,0-1.015-.88,33.7,33.7,0,0,0,4.69-2.5,36.631,36.631,0,0,0,4.263-3.159,24.9,24.9,0,0,0,3.316-3.408H68.871a34.631,34.631,0,0,1-3.766,3.34,31.6,31.6,0,0,1-4.083,2.663,14,14,0,0,0-1.06-1.535,12.422,12.422,0,0,0-1.331-1.489q-1.083,2.708-2.346,5.484t-2.3,4.626l-4.737-2.663a33.259,33.259,0,0,0,1.94-3.317q.991-1.918,1.917-4.017t1.646-4.085q.722-1.986,1.129-3.566.856.677,2.164,1.512t2.21,1.331q-.226.858-.586,1.873t-.811,2.144A29.553,29.553,0,0,0,64.2,92a28.272,28.272,0,0,0,4.352-4.468H60.662V83.7H90.93v3.836H73.382q-.316.5-.632.97t-.676.97h17.1q0,1.309-.091,3.159t-.293,3.859q-.2,2.008-.5,3.791a15.288,15.288,0,0,1-.744,2.956,5.775,5.775,0,0,1-2.143,3,7.1,7.1,0,0,1-3.767.835h-3.2a18.474,18.474,0,0,0-.406-2.528,8.158,8.158,0,0,0-.813-2.257h3.293A3.374,3.374,0,0,0,82.088,102a2.425,2.425,0,0,0,.948-1.241,11.982,11.982,0,0,0,.585-2.144q.272-1.377.475-2.866t.247-2.482H82.45a31.826,31.826,0,0,1-4.872,8.214,26.067,26.067,0,0,1-7.263,6.229M57.323,85.956a24.654,24.654,0,0,0-2.12-1.647Q53.894,83.383,52.5,82.5a18.361,18.361,0,0,0-2.572-1.377l2.661-4.243q1.173.542,2.572,1.354t2.751,1.693a26.7,26.7,0,0,1,2.346,1.693q-.361.406-.97,1.264T58.136,84.6q-.543.858-.813,1.354m2.753-10.11a19.339,19.339,0,0,0-2.031-1.715q-1.263-.948-2.661-1.828a25.789,25.789,0,0,0-2.526-1.422l2.8-4.017q1.038.5,2.459,1.354T60.932,70a20.048,20.048,0,0,1,2.256,1.693q-.362.406-.993,1.2t-1.217,1.6q-.588.812-.9,1.354m5.593-8.982h20.39v15.12H65.668Zm5.007,5.913H81.1V70.746H70.675Zm0,5.552H81.1V76.252H70.675Z" transform="translate(-2.965 -3.725)" fill="#fff"/><path d="M111.357,106.887q-.541-.9-1.444-2.166a10.183,10.183,0,0,0-2.075-2.166,25.153,25.153,0,0,0,7.353-3.137,9.551,9.551,0,0,0,3.564-4.22,6.4,6.4,0,0,1-2.887.722,7.814,7.814,0,0,1-5.526-1.941,7.215,7.215,0,0,1-2.233-5.236,7.516,7.516,0,0,1,.9-4.04,7.3,7.3,0,0,1,2.8-2.821,8.082,8.082,0,0,1,4.1-1.038q.361,0,.632.023t.586.068q-.092-.812-.18-1.67a17.269,17.269,0,0,1-.09-1.805q-3.654.135-7.127.406t-6.36.609a42.839,42.839,0,0,0-4.782.79l-.767-5.236q1.624-.135,4.556-.293t6.7-.339q3.765-.181,7.781-.361V66.672h5.233V72.81q3.519-.135,6.721-.248t5.729-.181q2.526-.068,3.97-.023l-.361,5.281q-2.616-.316-6.924-.384t-9.135.023q0,1.625.113,3.295t.2,3.2a10.42,10.42,0,0,1,2.21,6.951,15.035,15.035,0,0,1-3.473,10.088,20.571,20.571,0,0,1-9.789,6.071m4.556-15.481a2.893,2.893,0,0,0,1.985-.858,2.781,2.781,0,0,0,.722-1.986,6.252,6.252,0,0,0-.068-.88q-.068-.474-.158-1.016A3.04,3.04,0,0,0,116,85.583a2.962,2.962,0,0,0-2.12.812,2.6,2.6,0,0,0-.812,2.076,2.993,2.993,0,0,0,.789,2.144,2.56,2.56,0,0,0,2.052.79" transform="translate(-5.89 -3.714)" fill="#fff"/><path d="M158.447,106.17a12.048,12.048,0,0,0-.519-1.715,17.984,17.984,0,0,0-.925-2.076,7.578,7.578,0,0,0-1.083-1.625q7.216.181,11.029-1.715t3.812-5.371a3.631,3.631,0,0,0-1.624-3.159,7.292,7.292,0,0,0-4.24-1.128,16.948,16.948,0,0,0-4.331.609,14.388,14.388,0,0,0-4.353,1.986,11.591,11.591,0,0,0-3.451,3.678l-4.827-2.121a17.277,17.277,0,0,0,1.556-3.949,45.039,45.039,0,0,0,1.06-4.942q.406-2.573.586-4.875a23.356,23.356,0,0,0,.045-3.791l5.639.677a34.478,34.478,0,0,1-.361,5.213A40.46,40.46,0,0,1,155.2,87.8a20.855,20.855,0,0,1,5.007-2.437,15.849,15.849,0,0,1,4.917-.858,14.5,14.5,0,0,1,6.112,1.2A9.687,9.687,0,0,1,175.273,89a8.278,8.278,0,0,1,1.444,4.807,10.3,10.3,0,0,1-1.962,6.161,13.2,13.2,0,0,1-6,4.355,30.935,30.935,0,0,1-10.308,1.851m7.488-28.931a21.945,21.945,0,0,0-2.684-1.805q-1.556-.9-3.27-1.715T156.62,72.3a17.462,17.462,0,0,0-2.91-.835l2.707-4.694a25.5,25.5,0,0,1,2.8.97q1.624.654,3.406,1.467T166,70.83a28.61,28.61,0,0,1,2.639,1.489Z" transform="translate(-8.908 -3.719)" fill="#fff"/><path d="M201.568,99.652a6.892,6.892,0,0,1-4.24,1.016,5.1,5.1,0,0,1-3.519-2.55,29.822,29.822,0,0,1-2.571-5.1,49.513,49.513,0,0,1-2.007-6.229,56.428,56.428,0,0,1-1.263-6.59,42.87,42.87,0,0,1-.383-6.183l5.5.045a29.576,29.576,0,0,0,.135,4.829,47.006,47.006,0,0,0,.857,5.281,40.937,40.937,0,0,0,1.4,4.942,20.2,20.2,0,0,0,1.759,3.814,2.3,2.3,0,0,0,1.376,1.241,2.137,2.137,0,0,0,1.6-.384,13.55,13.55,0,0,0,2.278-1.986,20.717,20.717,0,0,0,2.007-2.437,7.8,7.8,0,0,0,.744,1.535q.519.858,1.128,1.67a12.381,12.381,0,0,0,1.105,1.309,21.764,21.764,0,0,1-2.774,3.34,15.376,15.376,0,0,1-3.135,2.437m17.051-8.44a30.033,30.033,0,0,0-1.4-3.25q-.947-1.939-2.165-4.04t-2.436-3.882a17.769,17.769,0,0,0-2.255-2.776l4.331-2.753a25.726,25.726,0,0,1,2.5,3.024q1.376,1.9,2.707,4.04t2.368,4.152a23.374,23.374,0,0,1,1.489,3.408,14.782,14.782,0,0,0-2.819.858,12.253,12.253,0,0,0-2.323,1.219" transform="translate(-11.295 -4.152)" fill="#fff"/><path d="M246.047,106.17a12.054,12.054,0,0,0-.519-1.715,18,18,0,0,0-.925-2.076,7.578,7.578,0,0,0-1.083-1.625q7.216.181,11.029-1.715t3.812-5.371a3.631,3.631,0,0,0-1.624-3.159,7.292,7.292,0,0,0-4.24-1.128,16.948,16.948,0,0,0-4.331.609,14.388,14.388,0,0,0-4.353,1.986,11.592,11.592,0,0,0-3.451,3.678l-4.827-2.121a17.278,17.278,0,0,0,1.556-3.949,45.039,45.039,0,0,0,1.06-4.942q.406-2.573.586-4.875a23.359,23.359,0,0,0,.045-3.791l5.639.677a34.484,34.484,0,0,1-.361,5.213A40.468,40.468,0,0,1,242.8,87.8a20.855,20.855,0,0,1,5.007-2.437,15.849,15.849,0,0,1,4.917-.858,14.5,14.5,0,0,1,6.112,1.2A9.687,9.687,0,0,1,262.872,89a8.277,8.277,0,0,1,1.444,4.807,10.3,10.3,0,0,1-1.962,6.161,13.2,13.2,0,0,1-6,4.355,30.935,30.935,0,0,1-10.308,1.851m7.488-28.931a21.944,21.944,0,0,0-2.684-1.805q-1.556-.9-3.27-1.715T244.22,72.3a17.462,17.462,0,0,0-2.91-.835l2.707-4.694a25.492,25.492,0,0,1,2.8.97q1.624.654,3.406,1.467T253.6,70.83a28.606,28.606,0,0,1,2.639,1.489Z" transform="translate(-14.182 -3.719)" fill="#fff"/><path d="M279.5,98.6a14.834,14.834,0,0,0-2.075-1.444,14.371,14.371,0,0,0-2.481-1.219,37.124,37.124,0,0,0,5.007-7.515,55.934,55.934,0,0,0,3.654-8.959q-2.255.317-4.2.542t-3.113.316l-.677-5.01q1.579,0,4.082-.226t5.255-.632q.5-2.121.767-4.175t.361-3.994l5.007.722q-.361,3.385-.947,6.59,1.579-.315,3.045-.654t2.639-.654l.677,4.739q-1.4.406-3.361.812t-4.173.767A61.65,61.65,0,0,1,285,89.352a59.116,59.116,0,0,1-5.5,9.253m12.45,7.9a7.994,7.994,0,0,1-5.458-2.166,6.422,6.422,0,0,1-1.94-4.829,5.629,5.629,0,0,1,2.323-4.468,9.518,9.518,0,0,1,6.383-1.67q.632.045,1.263.068a10.883,10.883,0,0,1,1.218.113V83.3h5.143V94.768a26.076,26.076,0,0,1,4.894,2.212,38.228,38.228,0,0,1,4.488,3.069,11.366,11.366,0,0,0-1.737,2.076,14.945,14.945,0,0,0-1.376,2.392,36.55,36.55,0,0,0-3.022-2.46,23.309,23.309,0,0,0-3.293-2.008q-.451,6.86-8.887,6.454m.406-4.513a3.593,3.593,0,0,0,2.549-.79,3.731,3.731,0,0,0,.835-2.776v-.316a18.248,18.248,0,0,0-2.887-.406,4.577,4.577,0,0,0-2.458.5,1.8,1.8,0,0,0-.97,1.535,1.89,1.89,0,0,0,.722,1.625,3.4,3.4,0,0,0,2.21.632m15.788-17.783a17.29,17.29,0,0,0-1.94-1.715q-1.218-.948-2.616-1.9t-2.774-1.715a15.782,15.782,0,0,0-2.413-1.128l2.661-3.972q1.083.451,2.526,1.2t2.932,1.67q1.489.925,2.752,1.828a20.008,20.008,0,0,1,2.075,1.67Z" transform="translate(-16.555 -3.691)" fill="#fff"/><path d="M336.208,99.652a6.892,6.892,0,0,1-4.24,1.016,5.1,5.1,0,0,1-3.519-2.55,29.821,29.821,0,0,1-2.571-5.1,49.513,49.513,0,0,1-2.007-6.229,56.432,56.432,0,0,1-1.263-6.59,42.87,42.87,0,0,1-.383-6.183l5.5.045a29.579,29.579,0,0,0,.135,4.829,47,47,0,0,0,.857,5.281,40.942,40.942,0,0,0,1.4,4.942,20.2,20.2,0,0,0,1.759,3.814,2.3,2.3,0,0,0,1.376,1.241,2.137,2.137,0,0,0,1.6-.384,13.551,13.551,0,0,0,2.278-1.986,20.719,20.719,0,0,0,2.007-2.437,7.8,7.8,0,0,0,.744,1.535q.519.858,1.128,1.67a12.386,12.386,0,0,0,1.105,1.309,21.759,21.759,0,0,1-2.774,3.34,15.377,15.377,0,0,1-3.135,2.437m17.051-8.44a30.032,30.032,0,0,0-1.4-3.25q-.947-1.939-2.165-4.04t-2.436-3.882A17.767,17.767,0,0,0,345,77.266l4.331-2.753a25.721,25.721,0,0,1,2.5,3.024q1.376,1.9,2.707,4.04t2.368,4.152a23.373,23.373,0,0,1,1.489,3.408,14.782,14.782,0,0,0-2.819.858,12.252,12.252,0,0,0-2.323,1.219" transform="translate(-19.402 -4.152)" fill="#fff"/><path d="M3.744,155.261V131.52H17.593v2.934H6.9v20.807Z" transform="translate(-0.225 -7.585)" fill="#fff"/><path d="M41,171.162q-.406-1.04-.9-2.189T39.06,166.6q-1.534.5-3.451,1.083t-3.925,1.173q-2.007.587-3.857,1.061t-3.2.79l-1.489-5.145q.586-.09,1.353-.248t1.624-.339V134.061H43.841v20.762H31.526v8.891q1.444-.361,2.8-.722t2.481-.677q-.632-1.083-1.263-2.076t-1.263-1.805l4.466-2.482a59.313,59.313,0,0,1,3.744,5.89,56.5,56.5,0,0,1,3.293,6.883q-1.038.406-2.413,1.106T41,171.162m-9.473-28.976h7.127V138.71H31.526Zm0,7.989h7.127v-3.7H31.526Zm15.157,22.883V134.016H63.554v28.525a4.621,4.621,0,0,1-1.331,3.678,6.449,6.449,0,0,1-4.263,1.151H54.8a24.314,24.314,0,0,0-.429-2.8q-.338-1.67-.654-2.753h2.752a2.35,2.35,0,0,0,1.376-.316,1.436,1.436,0,0,0,.429-1.219V138.89H51.961v34.167Z" transform="translate(-1.393 -7.734)" fill="#fff"/><path d="M94.959,173.227V160.454H89.591v11.419H84.358V156.211h10.6v-2.257H88.148V147.32H82.1v4.333A57.147,57.147,0,0,1,80.953,164a27.125,27.125,0,0,1-3.5,8.779q-.541-.316-1.466-.745t-1.827-.812a10.368,10.368,0,0,0-1.444-.519q4.1-6.77,4.1-18.731V135.675H93.111v-4.107h5.548v4.107h15.789V140.1h-8.121v2.889h8.526v4.333h-8.526v6.635H100.1v2.257h11.277V167.36a4.1,4.1,0,0,1-1.331,3.408,6.414,6.414,0,0,1-4.036,1.061h-3.2a14.735,14.735,0,0,0-.225-1.647q-.182-.97-.407-1.9a7.193,7.193,0,0,0-.5-1.467h2.977a2.15,2.15,0,0,0,1.285-.293,1.388,1.388,0,0,0,.383-1.151v-4.92H100.1v12.773ZM82.1,142.987h6.045V140.1H82.1Zm11.457,0h7.624V140.1H93.561Zm0,6.86h7.624V147.32H93.561Z" transform="translate(-4.379 -7.588)" fill="#fff"/><path d="M118.992,174.749v-2.934h10.691V151.008h3.158v23.741Z" transform="translate(-7.165 -8.749)" fill="#fff"/><path d="M166.114,173.072v-6.815h-5.188v-5.326h5.188V152.4q-1.489,2.394-3.248,4.762t-3.541,4.4a40.775,40.775,0,0,1-3.451,3.52q-.451-.542-1.128-1.219a18.469,18.469,0,0,0-1.4-1.264v10.426H147.98V150.866q-.722.9-1.421,1.738t-1.421,1.6a14.732,14.732,0,0,0-1.827-1.693,11.384,11.384,0,0,0-2.143-1.377,24.488,24.488,0,0,0,3.293-3.972,51.7,51.7,0,0,0,3.135-5.236q1.465-2.8,2.526-5.416A28.086,28.086,0,0,0,151.588,132l5.052,1.354a39.327,39.327,0,0,1-1.4,4.288q-.857,2.213-1.895,4.423v18.144a51.282,51.282,0,0,0,3.925-4.243q2.074-2.481,3.925-5.168a42.915,42.915,0,0,0,3.067-5.123H155.2v-5.01h10.917v-8.621h5.278v8.621h11.683v5.01H172.609a35.269,35.269,0,0,0,2.594,4.243q1.556,2.212,3.361,4.333t3.564,3.9q1.759,1.784,3.158,2.956a8.194,8.194,0,0,0-1.376.993q-.791.677-1.534,1.422a11.227,11.227,0,0,0-1.2,1.377,49.2,49.2,0,0,1-4.985-5.348,66.844,66.844,0,0,1-4.8-6.657v8.034h4.962v5.326h-4.962v6.815Z" transform="translate(-8.5 -7.614)" fill="#fff"/><path d="M193.341,167.492q.09-.993.113-2.415t0-2.843a20.489,20.489,0,0,0-.158-2.415l3.113-.361q.09.948.158,2.37t.091,2.866q.021,1.444.022,2.528a10.525,10.525,0,0,0-1.646.045q-.926.092-1.693.226m20.254,5.822a7.891,7.891,0,0,0-.722-1.286q-.5-.745-1.06-1.489a8.893,8.893,0,0,0-1.059-1.2,19.082,19.082,0,0,0,6-3.227,10.749,10.749,0,0,0,3.519-5.078h-7.263V149.664h7.8v-2.618h-5.188v-2.889q-.768.587-1.535,1.106t-1.443.925a12,12,0,0,0-.992-1.377A19.535,19.535,0,0,0,210.3,143.3v.451h-3.925v2.618H210.3V150.3h-3.925v2.979H211.7q0,2.573-.089,5.394t-.293,5.326a32.961,32.961,0,0,1-.564,4.175,6.229,6.229,0,0,1-1.962,3.724,6.974,6.974,0,0,1-4.263,1.061h-2.347a16.664,16.664,0,0,0-.315-2.279,10.616,10.616,0,0,0-.587-2.1h2.482a3.515,3.515,0,0,0,1.94-.406,3.294,3.294,0,0,0,.946-1.941q.09-.361.18-.88c.06-.345.105-.715.135-1.106q-.451.135-.969.271a6.832,6.832,0,0,0-.744.226q-.182-1.307-.564-3.114a26.013,26.013,0,0,0-.789-2.979l2.3-.587q.226.587.474,1.489t.474,1.851q.045-1.127.068-2.234t.023-2.054H195.146V133.19h16.735v4.017h-5.5v2.618H210.3v2.347a24.759,24.759,0,0,0,4.173-2.911,31.719,31.719,0,0,0,3.812-3.836,16.746,16.746,0,0,0,2.526-3.9l3.7.722a21.039,21.039,0,0,0,3.18,3.385A32.088,32.088,0,0,0,232,138.787a29.215,29.215,0,0,0,4.646,2.347,12.72,12.72,0,0,0-1.691,2.166,12.042,12.042,0,0,0-1.151,2.166q-.767-.361-1.579-.812t-1.623-.993v3.385h-5.053v2.618h8.075v11.374H226.5a12.277,12.277,0,0,0,4.036,4.784,24.4,24.4,0,0,0,5.932,3.2,9.657,9.657,0,0,0-1.1,1.241q-.609.79-1.129,1.6a15.274,15.274,0,0,0-.788,1.354,27.993,27.993,0,0,1-5.481-3.295,17.414,17.414,0,0,1-4.308-4.784,15.787,15.787,0,0,1-4.264,4.829,27.846,27.846,0,0,1-5.8,3.34m-15.879-6.86q0-.812-.09-2.144t-.2-2.618a19.106,19.106,0,0,0-.248-1.963l2.661-.361q.18.812.338,2.054t.271,2.46q.113,1.219.158,2.076-.451.045-1.4.226t-1.489.271m1.714-26.629h2.932v-2.618h-2.932Zm0,6.544h2.932v-2.618h-2.932Zm0,6.906h2.932V150.3h-2.932ZM201.6,165.6q-.045-.858-.2-2.076t-.362-2.392a15.406,15.406,0,0,0-.429-1.9l2.526-.451q.226.812.451,1.986t.406,2.324q.18,1.151.227,1.963c-.151.03-.407.084-.767.158l-1.084.226c-.36.076-.617.129-.767.158m15.654-22.748h12.134a37.584,37.584,0,0,1-3.609-2.934,29.155,29.155,0,0,1-2.886-3.024,24.471,24.471,0,0,1-2.481,3,39.385,39.385,0,0,1-3.158,2.956m.225,14.127h3.338v-3.25h-3.338Zm8.075,0h3.609v-3.25h-3.609Z" transform="translate(-11.639 -7.585)" fill="#fff"/></g></g><g transform="translate(-0.219 -13.304)"><path d="M23.076,34.269v1.606a7.6,7.6,0,0,1-2.283,5.59,7.579,7.579,0,0,1-5.621,2.382h-7A7.647,7.647,0,0,0,.219,51.14H12.47V68.547H19.63V50.459l.582-.242A15.18,15.18,0,0,0,30.29,35.874V27.659a6.936,6.936,0,0,0-7.213,6.614" transform="translate(190 470.776)" fill="#fff"/><path d="M53.512,34.221V53.28a7.822,7.822,0,0,1-2.283,5.594,7.38,7.38,0,0,1-5.568,2.334h-6.9a7.7,7.7,0,0,0-8.007,7.342h14.9A14.4,14.4,0,0,0,56.32,64.075a14.8,14.8,0,0,0,4.346-10.794V27.659a6.884,6.884,0,0,0-7.159,6.565" transform="translate(199.792 470.776)" fill="#fff"/><path d="M44.284,27.659H38.769a7.9,7.9,0,0,0-8.007,7.787H44.284Z" transform="translate(199.793 470.776)" fill="#fff"/><path d="M61.223,35H84.081v4.473a7.583,7.583,0,0,1-2.334,5.638,7.711,7.711,0,0,1-5.568,2.334,14.379,14.379,0,0,0-10.607,4.521A14.824,14.824,0,0,0,61.225,62.76v5.79h7.16V62.76a7.8,7.8,0,0,1,2.334-5.641,7.412,7.412,0,0,1,5.462-2.383A7.6,7.6,0,0,1,81.8,57.119a7.692,7.692,0,0,1,2.285,5.641v5.79H91.3V62.76a14.808,14.808,0,0,0-4.62-10.985l-.635-.634.635-.63a14.976,14.976,0,0,0,4.616-11.039V27.659H69.229A7.7,7.7,0,0,0,61.223,35" transform="translate(209.048 470.776)" fill="#fff"/><path d="M91.725,34.909V47.152h7.159V34.932h15.7v8.425h-2.228a7.651,7.651,0,0,0-7.955,7.3h10.182v3.553a7.608,7.608,0,0,1-2.334,5.65A7.713,7.713,0,0,1,106.68,62.2a7.592,7.592,0,0,1-5.462-2.337,7.741,7.741,0,0,1-2.283-4.772c-4.151,0-6.991,4.133-4.9,7.423a15.835,15.835,0,0,0,2.035,2.558,14.95,14.95,0,0,0,20.146,1.1,13.815,13.815,0,0,0,1.173-1.1,14.925,14.925,0,0,0,4.4-10.86V27.578H99.708a7.679,7.679,0,0,0-7.983,7.33" transform="translate(218.574 470.751)" fill="#fff"/><path d="M143.963,34.221V53.28a7.811,7.811,0,0,1-2.283,5.594,7.378,7.378,0,0,1-5.568,2.334h-6.9a7.7,7.7,0,0,0-8.007,7.342h14.9a14.4,14.4,0,0,0,10.661-4.473,14.814,14.814,0,0,0,4.346-10.794V27.659a6.883,6.883,0,0,0-7.159,6.565" transform="translate(227.781 470.776)" fill="#fff"/><path d="M134.734,27.659h-5.515a7.9,7.9,0,0,0-8.007,7.785h13.522Z" transform="translate(227.833 470.776)" fill="#fff"/><path d="M158.873,27.659a6.883,6.883,0,0,0-7.159,6.565V68.551h7.159V51.723h17.838V44.479H158.873Z" transform="translate(237.326 470.776)" fill="#fff"/><path d="M200.592,55.24V43.025a13.013,13.013,0,0,0-3.817-9.4,12.433,12.433,0,0,0-9.281-3.878h-2.53a7.675,7.675,0,0,0-7.992,7.306v24.3h7.158V36.961h3.365a5.786,5.786,0,0,1,4.243,1.746,5.857,5.857,0,0,1,1.75,4.314V55.24a13.009,13.009,0,0,0,3.818,9.4,12.578,12.578,0,0,0,8.432,3.878V61.2a5.989,5.989,0,0,1-5.145-5.96" transform="translate(245.199 471.423)" fill="#fff"/><path d="M203.343,47.813h24.569V39.82H211.558a8.107,8.107,0,0,0-8.218,7.993" transform="translate(253.175 473.32)" fill="#fff"/><path d="M241.359,39.268h-5.568a7.794,7.794,0,0,0-7.9,7.684h13.469Z" transform="translate(261.047 473.202)" fill="#fff"/><path d="M248.407,30.648a3.163,3.163,0,0,0,2.254-.877,2.867,2.867,0,0,0,.927-2.169,2.946,2.946,0,0,0-.927-2.191,3.12,3.12,0,0,0-2.254-.9,3.039,3.039,0,0,0-3.129,3.1,2.908,2.908,0,0,0,.9,2.169,3.066,3.066,0,0,0,2.228.877" transform="translate(266.622 469.798)" fill="#fff"/><path d="M241.359,28.248H235.9a7.9,7.9,0,0,0-8.007,7.787h13.469Z" transform="translate(261.047 470.959)" fill="#fff"/><path d="M256.752,25.412a3.024,3.024,0,0,0-2.228-.9,3.069,3.069,0,0,0-2.228.877,2.981,2.981,0,0,0-.957,2.216,2.869,2.869,0,0,0,.931,2.17,3.155,3.155,0,0,0,2.254.877,3.073,3.073,0,0,0,2.228-.877,2.905,2.905,0,0,0,.9-2.167,2.989,2.989,0,0,0-.9-2.194" transform="translate(268.565 469.799)" fill="#fff"/><path d="M250.641,39.225V54.131a8.626,8.626,0,0,1-2.283,5.98,7.172,7.172,0,0,1-5.568,2.475h-14.9v7.79h14.9A13.952,13.952,0,0,0,253.4,65.632a16.3,16.3,0,0,0,4.4-11.5V32.262a7.063,7.063,0,0,0-7.16,6.963" transform="translate(261.047 469.721)" fill="#fff"/><path d="M199.947,27.578a5.88,5.88,0,0,0-4.252,1.71,5.556,5.556,0,0,0-1.755,4.13,5.43,5.43,0,0,0,1.782,4.108,6.155,6.155,0,0,0,8.453,0,5.533,5.533,0,0,0,1.73-4.108,5.632,5.632,0,0,0-1.727-4.13,5.8,5.8,0,0,0-4.23-1.71m1.474,7.279a2.045,2.045,0,0,1-1.474.612,2.116,2.116,0,0,1-1.508-.625,1.873,1.873,0,0,1-.648-1.426,1.964,1.964,0,0,1,.656-1.462,2.087,2.087,0,0,1,1.5-.641,2.168,2.168,0,0,1,2.1,2.106,1.939,1.939,0,0,1-.63,1.439" transform="translate(250.581 470.751)" fill="#fff"/></g><path d="M3.122-10.738v1.806c.406-.028,1.008-.042,1.456-.042H9.94c.5,0,1.162.014,1.54.042v-1.806a13.2,13.2,0,0,1-1.512.07H4.578A11.8,11.8,0,0,1,3.122-10.738Zm9.534,4.06-1.246-.77a2.953,2.953,0,0,1-1.022.14H3.458c-.434,0-1.036-.042-1.624-.084v1.82c.588-.056,1.288-.07,1.624-.07H10.22A6.074,6.074,0,0,1,8.778-3.22,9.443,9.443,0,0,1,3.934-.77L5.32.812a10.483,10.483,0,0,0,5-3.024A10.061,10.061,0,0,0,12.39-6.09,5.187,5.187,0,0,1,12.656-6.678Zm4.718-3.962-1.316,1.4a29.109,29.109,0,0,1,3.5,3.024l1.428-1.456A28.275,28.275,0,0,0,17.374-10.64Zm-1.75,9.324L16.8.532a15.162,15.162,0,0,0,5.194-1.974,14.887,14.887,0,0,0,5.18-5.18L26.082-8.6a13.182,13.182,0,0,1-5.1,5.446A14.43,14.43,0,0,1,15.624-1.316ZM30.632-10.57v1.806c.42-.028,1.022-.042,1.5-.042h4.578c.49,0,1.036.014,1.512.042V-10.57a10.989,10.989,0,0,1-1.512.112H32.13A10.475,10.475,0,0,1,30.632-10.57ZM29.008-6.986v1.834c.392-.028.938-.056,1.344-.056H34.2a6.016,6.016,0,0,1-.868,3.094,5.717,5.717,0,0,1-2.534,2l1.638,1.19A6.635,6.635,0,0,0,35.252-1.61a8.882,8.882,0,0,0,.9-3.6h3.374c.392,0,.924.014,1.274.042v-1.82a10.588,10.588,0,0,1-1.274.084h-9.17A10.659,10.659,0,0,1,29.008-6.986Zm10.052-4.55-1.12.462a17.825,17.825,0,0,1,1.106,1.946l1.12-.49C39.9-10.136,39.41-11.018,39.06-11.536Zm1.652-.63-1.106.462a16.517,16.517,0,0,1,1.12,1.932l1.12-.49A21.9,21.9,0,0,0,40.712-12.166ZM42.518-3.99l.826,1.652a29.207,29.207,0,0,0,4.018-1.638v3.7c0,.49-.042,1.232-.07,1.512h2.072a7.8,7.8,0,0,1-.1-1.512v-4.8A18.351,18.351,0,0,0,52.4-7.63L51.016-8.988a14.586,14.586,0,0,1-3.486,3A18.486,18.486,0,0,1,42.518-3.99Zm15.876-6.65-1.316,1.4a29.109,29.109,0,0,1,3.5,3.024l1.428-1.456A28.275,28.275,0,0,0,58.394-10.64Zm-1.75,9.324L57.82.532a15.162,15.162,0,0,0,5.194-1.974,14.887,14.887,0,0,0,5.18-5.18L67.1-8.6a13.182,13.182,0,0,1-5.1,5.446A14.43,14.43,0,0,1,56.644-1.316Zm23.282-10.15-1.106.448a16.235,16.235,0,0,1,1.022,1.806l-.1-.056a4.41,4.41,0,0,1-1.218.168h-2.8c.014-.028.028-.042.042-.07a14.524,14.524,0,0,1,.854-1.428l-2.058-.672a6.335,6.335,0,0,1-.63,1.456,12.108,12.108,0,0,1-4.368,4.508L71.134-4.13a15.73,15.73,0,0,0,3.542-3.388H78.61A9.9,9.9,0,0,1,76.622-3.71,11.2,11.2,0,0,1,70.98-.238l1.652,1.484a13.039,13.039,0,0,0,5.642-3.962,14.214,14.214,0,0,0,2.45-4.662,5.605,5.605,0,0,1,.462-1.008L80-9.114l1.036-.434A17.8,17.8,0,0,0,79.926-11.466Zm1.652-.63-1.106.448a14.843,14.843,0,0,1,1.134,1.932l1.106-.476A19.989,19.989,0,0,0,81.578-12.1ZM93.142-8.568a.89.89,0,0,1,.882-.9.9.9,0,0,1,.9.9.89.89,0,0,1-.9.882A.878.878,0,0,1,93.142-8.568Zm-.924,0a1.793,1.793,0,0,0,1.806,1.806,1.8,1.8,0,0,0,1.82-1.806,1.816,1.816,0,0,0-1.82-1.82A1.8,1.8,0,0,0,92.218-8.568ZM83.51-3.99l1.68,1.736c.252-.364.588-.854.91-1.3.56-.756,1.554-2.142,2.1-2.842.406-.5.7-.532,1.148-.084.5.518,1.75,1.876,2.562,2.842s2.016,2.408,2.954,3.57L96.4-1.722c-1.078-1.148-2.506-2.7-3.444-3.7-.84-.91-1.918-2.03-2.856-2.912-1.092-1.022-1.918-.868-2.744.112C86.394-7.07,85.3-5.7,84.672-5.054A15.754,15.754,0,0,1,83.51-3.99Zm14.8-2.492v2.2c.518-.042,1.456-.07,2.254-.07h7.518c.588,0,1.3.056,1.638.07v-2.2c-.364.028-.98.084-1.638.084h-7.518C99.834-6.4,98.812-6.44,98.308-6.482Zm22.652-4.27-1.176.49a12.646,12.646,0,0,1,1.232,2.2l1.218-.518A23.807,23.807,0,0,0,120.96-10.752Zm1.918-.672-1.19.49A13.453,13.453,0,0,1,123-8.806l1.19-.532A18,18,0,0,0,122.878-11.424Zm-8.008.406-1.008,1.54c.924.518,2.38,1.456,3.164,2l1.036-1.54C117.334-9.534,115.794-10.514,114.87-11.018Zm-2.59,9.94L113.33.756a17.607,17.607,0,0,0,4.676-1.722,16.888,16.888,0,0,0,5.558-5.04l-1.078-1.9a14.173,14.173,0,0,1-5.446,5.25A15.013,15.013,0,0,1,112.28-1.078Zm.434-6.748-1.008,1.54c.938.5,2.394,1.442,3.192,2l1.022-1.568C115.206-6.356,113.666-7.322,112.714-7.826Zm13.86.378c.154-.308.322-.658.476-1.05h1.414v1.05Zm3.472-1.05h2.506V-10.01h-2.506v-1.764h-1.582v1.764h-.9a13.045,13.045,0,0,0,.322-1.274l-1.526-.322a10.931,10.931,0,0,1-1.288,3.626,12.942,12.942,0,0,1,1.26.532h-1.05v1.5h3.178v1.022h-2.632V.1h1.484V-3.444h1.148V1.2h1.582V-3.444h1.232V-1.4c0,.14-.042.168-.168.168a6.317,6.317,0,0,1-.868-.014,5.237,5.237,0,0,1,.406,1.414,3.052,3.052,0,0,0,1.624-.252c.406-.238.5-.63.5-1.274v-3.57h-2.73V-5.95h3.066v-1.5h-3.066Zm5.25-2.212h-1.554v7.882H135.3Zm.952-.91V-.77c0,.238-.084.294-.308.308s-.966,0-1.68-.028a7.311,7.311,0,0,1,.49,1.68,5.74,5.74,0,0,0,2.408-.322c.5-.28.686-.728.686-1.624V-11.62Zm6.02-.182a14.565,14.565,0,0,1-3.192,5.236A11.375,11.375,0,0,1,140-4.788c.28-.308.574-.658.868-1.008v7h1.68v-9.59a21.808,21.808,0,0,0,1.344-2.912Zm10.038,3.808V-9.576h-5.432a16.548,16.548,0,0,0,.686-1.736l-1.61-.406a13.9,13.9,0,0,1-2.968,5.278,11.325,11.325,0,0,1,1.274,1.162,15.547,15.547,0,0,0,1.834-2.716h.532V1.218h1.708V-1.89h3.808V-3.43H148.33V-5.012h3.626V-6.524H148.33v-1.47Zm9.926,2.884a7.481,7.481,0,0,1-2.464,2.576,7.5,7.5,0,0,1-2.352-2.576ZM163.464-6.8l-.294.056h-2.618V-8.372h5.124v-1.652h-5.124v-1.82H158.83v1.82h-5.1v1.652h5.1v1.624h-4.4V-5.11h2.59l-1.232.42a10.82,10.82,0,0,0,2.352,3.024,18.452,18.452,0,0,1-4.97,1.274,6.343,6.343,0,0,1,.91,1.61A18.673,18.673,0,0,0,159.67-.56a14.924,14.924,0,0,0,5.572,1.806,8.553,8.553,0,0,1,1.064-1.624,16.228,16.228,0,0,1-4.97-1.26,9.9,9.9,0,0,0,3.29-4.508Zm8.008,1.288-1.176.308V-7.672h1.26v-1.54H170.3v-2.632H168.77v2.632H167.3v1.54h1.47V-4.8c-.616.154-1.176.294-1.652.392l.252,1.638,1.4-.42V-.546c0,.182-.07.238-.238.238a11.041,11.041,0,0,1-1.148-.014,6.193,6.193,0,0,1,.42,1.54A3.575,3.575,0,0,0,169.736.91c.42-.266.56-.686.56-1.456v-3.08c.462-.126.924-.266,1.386-.406Zm6.034,2.534a4.5,4.5,0,0,1-1.036,1.4,5.121,5.121,0,0,1-1.4-1.4Zm.952-1.246-.266.042h-3.318c.042-.182.07-.364.112-.546h5.11V-6.076h-4.942c.028-.224.042-.434.056-.658h4.48v-1.3h-1.33c.364-.546.77-1.19,1.148-1.806l-1.54-.448c.63-.084,1.2-.168,1.736-.266l-.938-1.246a45.917,45.917,0,0,1-7.042.672,4.267,4.267,0,0,1,.35,1.232,55.3,55.3,0,0,0,5.894-.392,15.154,15.154,0,0,1-1.092,2.254h-1.75l1.3-.294a14.06,14.06,0,0,0-.378-1.694l-1.3.224a13.806,13.806,0,0,1,.308,1.764h-1.61l.784-.252c-.126-.42-.42-1.092-.63-1.61l-1.26.35a14.717,14.717,0,0,1,.5,1.512h-.868v1.3h1.652c-.028.21-.042.434-.056.658H171.71v1.344h1.68a6.5,6.5,0,0,1-2.884,4.718,4.631,4.631,0,0,1,1.078,1.2,7.148,7.148,0,0,0,2.59-3.08,5.844,5.844,0,0,0,1.064,1.134,8.583,8.583,0,0,1-2.282.77,5.552,5.552,0,0,1,.9,1.232A9.738,9.738,0,0,0,176.5.154a10.677,10.677,0,0,0,2.954,1.078,5.5,5.5,0,0,1,.98-1.358,10.782,10.782,0,0,1-2.688-.756,6.937,6.937,0,0,0,1.61-2.982Zm8.9-6.678-1.75.574a35.816,35.816,0,0,1,1.456,3.794l1.764-.616A33.836,33.836,0,0,0,187.362-10.906Zm6.4,1.12-2.1-.6a12.7,12.7,0,0,1-2.156,5.88A11.231,11.231,0,0,1,183.974-.9L185.542.672a12.678,12.678,0,0,0,5.5-4.1A15.931,15.931,0,0,0,193.4-8.708,8.155,8.155,0,0,1,193.76-9.786Zm-10.29-.252-1.792.616a34.92,34.92,0,0,1,1.61,3.962l1.806-.658C184.772-7.07,183.89-9.156,183.47-10.038Zm12.558,3.556v2.2c.518-.042,1.456-.07,2.254-.07H205.8c.588,0,1.3.056,1.638.07v-2.2c-.364.028-.98.084-1.638.084h-7.518C197.554-6.4,196.532-6.44,196.028-6.482ZM215.782-.308l1.176.966a2.991,2.991,0,0,1,.6-.42,15.415,15.415,0,0,0,4.746-3.822l-1.078-1.54A8.866,8.866,0,0,1,217.77-2.17V-9.492a7.108,7.108,0,0,1,.1-1.218h-2.086a6.207,6.207,0,0,1,.112,1.2v8.162A5.327,5.327,0,0,1,215.782-.308ZM209.3-.518,211.008.616A8.209,8.209,0,0,0,213.5-3.4a30.889,30.889,0,0,0,.42-6.02,9.221,9.221,0,0,1,.1-1.274H211.96a5.313,5.313,0,0,1,.126,1.288,24.125,24.125,0,0,1-.406,5.544A6.6,6.6,0,0,1,209.3-.518Z" transform="translate(190 466)" fill="#fff"/></g></svg>