<svg xmlns="http://www.w3.org/2000/svg" width="58" height="58" viewBox="0 0 58 58"><g transform="translate(-1495 -7704)"><path d="M36.424,57.936a1.909,1.909,0,0,0-2.546-.135l-3.587,2.892a1.906,1.906,0,0,1-2.426-.027A50.06,50.06,0,0,1,16.009,48.81a1.907,1.907,0,0,1-.026-2.425L18.874,42.8a1.907,1.907,0,0,0-.135-2.546l-6.868-6.867a1.911,1.911,0,0,0-2.577-.112L.681,40.508a1.9,1.9,0,0,0-.453,2.361s1.157,2.364,2.234,4.174A85.216,85.216,0,0,0,14.5,62.177,85.186,85.186,0,0,0,29.634,74.216c1.809,1.074,4.173,2.235,4.173,2.235a1.908,1.908,0,0,0,2.36-.456L43.4,67.38a1.91,1.91,0,0,0-.112-2.576Z" transform="translate(1495 7685.325)" fill="#fff"/><path d="M70.826,52.09l2.859-.453A15.164,15.164,0,0,0,61.113,39.064l-.454,2.858A12.273,12.273,0,0,1,70.826,52.09" transform="translate(1461.696 7682.554)" fill="#fff"/><path d="M85.659,9.36A33.236,33.236,0,0,0,67.289,0L66.84,2.859A30.472,30.472,0,0,1,92.158,28.179l2.861-.451A33.246,33.246,0,0,0,85.659,9.36" transform="translate(1457.98 7704)" fill="#fff"/><path d="M64.2,19.511l-.449,2.862A21.329,21.329,0,0,1,81.5,40.121l2.86-.451A24.226,24.226,0,0,0,64.2,19.511" transform="translate(1459.874 7693.25)" fill="#fff"/></g></svg>