<svg xmlns="http://www.w3.org/2000/svg" xmlns:xlink="http://www.w3.org/1999/xlink" width="55" height="55" viewBox="0 0 55 55"><defs><clipPath id="a"><rect width="55" height="55" fill="none"/></clipPath></defs><g clip-path="url(#a)"><path d="M27.962,50.713A23.214,23.214,0,1,1,51.175,27.5,23.239,23.239,0,0,1,27.962,50.713" fill="#ffd800"/><path d="M27.962,5.3a22.2,22.2,0,1,1-22.2,22.2,22.23,22.23,0,0,1,22.2-22.2m0-2.019A24.223,24.223,0,1,0,52.185,27.5,24.223,24.223,0,0,0,27.962,3.277" fill="#231815"/><path d="M10.233,25.092a5.905,5.905,0,0,1-4.4-1.963A5.385,5.385,0,0,1,.248,19.4,5.349,5.349,0,0,1,2.734,13.14,5.421,5.421,0,0,1,10.292,7.4a4.45,4.45,0,0,1,6.382,5.291,5.162,5.162,0,0,1,2.487,3.366,5.42,5.42,0,0,1,.094.549,5.2,5.2,0,0,1-3.942,5.652,5.894,5.894,0,0,1-3.753,2.689,6.02,6.02,0,0,1-1.327.149m-3.912-4.38a1.165,1.165,0,0,1,.955.5,3.6,3.6,0,0,0,3.771,1.466h0A3.591,3.591,0,0,0,13.51,20.71a1.16,1.16,0,0,1,.915-.654,2.876,2.876,0,0,0,2.522-3.184,2.927,2.927,0,0,0-.052-.3,2.855,2.855,0,0,0-2.111-2.156,1.163,1.163,0,0,1-.645-1.834A2.125,2.125,0,0,0,11.1,9.646a1.163,1.163,0,0,1-1.357.086,3.094,3.094,0,0,0-4.667,3.3,3.168,3.168,0,0,0,.11.375,1.163,1.163,0,0,1-.743,1.509,3.022,3.022,0,0,0,1.571,5.832l.056-.014a1.172,1.172,0,0,1,.249-.027" fill="#121212"/><path d="M6.321,20.712a1.165,1.165,0,0,1,.955.5,3.6,3.6,0,0,0,3.771,1.466h0A3.591,3.591,0,0,0,13.51,20.71a1.16,1.16,0,0,1,.915-.654,2.876,2.876,0,0,0,2.522-3.184,2.927,2.927,0,0,0-.052-.3,2.855,2.855,0,0,0-2.111-2.156,1.163,1.163,0,0,1-.645-1.834A2.125,2.125,0,0,0,11.1,9.646a1.163,1.163,0,0,1-1.357.086,3.094,3.094,0,0,0-4.667,3.3,3.168,3.168,0,0,0,.11.375,1.163,1.163,0,0,1-.743,1.509,3.022,3.022,0,0,0,1.571,5.832l.056-.014a1.172,1.172,0,0,1,.249-.027" fill="#fff"/><path d="M50.761,37.145v-.053a4.13,4.13,0,0,0-4.216-4.042,4.177,4.177,0,0,0-4.13,3.234,4.591,4.591,0,0,0-.652-.047,4.124,4.124,0,1,0-.337,8.241c.113,0,.225,0,.337,0a4.426,4.426,0,0,0,1.666-.322,3.471,3.471,0,0,0,6.049.349,4.1,4.1,0,0,0,.635.051,3.723,3.723,0,0,0,.647-7.414" fill="#fff"/><path d="M46.554,47.083A4.464,4.464,0,0,1,43,45.309a5.558,5.558,0,0,1-1.216.141c-.132,0-.263,0-.4,0a5.1,5.1,0,0,1,.206-10.187c.045,0,.089,0,.133,0a5.177,5.177,0,0,1,4.817-3.186h.09a5.11,5.11,0,0,1,5.032,4.267,4.694,4.694,0,0,1-1.577,9.182c-.052,0-.105,0-.157,0a4.464,4.464,0,0,1-3.376,1.56m-3.126-3.9a.971.971,0,0,1,.874.547,2.5,2.5,0,0,0,4.357.252.971.971,0,0,1,.969-.438,5.259,5.259,0,0,0,.535.04,2.751,2.751,0,0,0,.54-5.47.972.972,0,0,1-.885-.734v0a.959.959,0,0,1-.029-.271v-.015a3.158,3.158,0,0,0-3.157-3.071h-.147A3.223,3.223,0,0,0,43.361,36.5a.974.974,0,0,1-1.086.743,4.611,4.611,0,0,0-.552-.037,3.152,3.152,0,0,0-.258,6.3,2.22,2.22,0,0,0,.258,0,.2.2,0,0,1,.042,0h.006a3.438,3.438,0,0,0,1.294-.251.969.969,0,0,1,.363-.071" fill="#121212"/><path d="M38.107,32.243a1.394,1.394,0,0,1-2.419.946l-7.726-8.376-7.727,8.376A1.394,1.394,0,1,1,18.186,31.3l8.751-9.487a1.4,1.4,0,0,1,2.049,0L37.738,31.3a1.39,1.39,0,0,1,.369.945" fill="#121212"/></g></svg>