<svg xmlns="http://www.w3.org/2000/svg" width="15" height="15" viewBox="0 0 15 15"><g transform="translate(-19206 -166)"><rect width="15" height="15" transform="translate(19206 166)" fill="none"/><g transform="translate(19207 168)"><g transform="translate(0 0)"><path d="M12.673,5.233l-1.524-.249a4.862,4.862,0,0,0-.29-.7l.9-1.255a.39.39,0,0,0-.041-.5L10.472,1.28a.39.39,0,0,0-.5-.041l-1.255.9a4.87,4.87,0,0,0-.7-.29L7.767.327A.39.39,0,0,0,7.383,0H5.617a.39.39,0,0,0-.385.327L4.983,1.851a4.868,4.868,0,0,0-.7.29l-1.255-.9a.39.39,0,0,0-.5.041L1.28,2.528a.39.39,0,0,0-.041.5l.9,1.255a4.874,4.874,0,0,0-.29.7L.327,5.233A.39.39,0,0,0,0,5.617V7.383a.39.39,0,0,0,.327.385l1.524.249a4.862,4.862,0,0,0,.29.7l-.9,1.255a.39.39,0,0,0,.041.5L2.528,11.72a.39.39,0,0,0,.5.041l1.255-.9a4.845,4.845,0,0,0,.7.29l.249,1.525A.39.39,0,0,0,5.617,13H7.383a.39.39,0,0,0,.385-.327l.249-1.524a4.862,4.862,0,0,0,.7-.29l1.255.9a.39.39,0,0,0,.5-.041l1.248-1.248a.39.39,0,0,0,.041-.5l-.9-1.255a4.87,4.87,0,0,0,.29-.7l1.524-.249A.39.39,0,0,0,13,7.383V5.617a.39.39,0,0,0-.327-.385M8.662,6.5A2.162,2.162,0,1,1,6.5,4.338,2.164,2.164,0,0,1,8.662,6.5" transform="translate(0 -1)" fill="#fff"/></g></g></g></svg>