<svg xmlns="http://www.w3.org/2000/svg" width="15" height="15" viewBox="0 0 15 15"><g transform="translate(-19196 -512)"><rect width="15" height="15" transform="translate(19196 512)" fill="none"/><path d="M11.638,9.892a4.936,4.936,0,0,0-1.96-.844,6.749,6.749,0,0,1-1.15-.494A2.247,2.247,0,0,1,8.019,8.2a1.533,1.533,0,0,1-.169-.8c.04-.114.247-.217.334-.3a3.517,3.517,0,0,0,.351-.378,3.93,3.93,0,0,0,.518-.856,4.887,4.887,0,0,0,.408-1.987C9.461,1.741,8.18,0,6.6,0S3.736,1.741,3.736,3.888a4.887,4.887,0,0,0,.408,1.987,3.922,3.922,0,0,0,.518.856,3.5,3.5,0,0,0,.351.378c.086.08.294.184.334.3a1.522,1.522,0,0,1-.165.8,2.251,2.251,0,0,1-.509.351,6.749,6.749,0,0,1-1.15.494,4.936,4.936,0,0,0-1.96.844A5.038,5.038,0,0,0,0,14H13.2a5.038,5.038,0,0,0-1.562-4.108" transform="translate(19197.006 512.5)" fill="#363b3d"/></g></svg>