<svg xmlns="http://www.w3.org/2000/svg" xmlns:xlink="http://www.w3.org/1999/xlink" width="30" height="30" viewBox="0 0 30 30"><defs><clipPath id="a"><circle cx="15" cy="15" r="15" transform="translate(3108 -146)" fill="#363b3d"/></clipPath><clipPath id="b"><rect width="25" height="25.84" fill="#c7c7c7"/></clipPath></defs><g transform="translate(-3108 146)" clip-path="url(#a)"><circle cx="15" cy="15" r="15" transform="translate(3108 -146)" fill="#363b3d"/><g transform="translate(3110.5 -141.84)"><g transform="translate(0 0)" clip-path="url(#b)"><path d="M29.48,7.233c0,3.995-2.462,7.233-5.5,7.233s-5.5-3.239-5.5-7.233S20.945,0,23.982,0s5.5,3.239,5.5,7.233" transform="translate(-11.482 0)" fill="#c7c7c7"/><path d="M29.615,41.841a.29.29,0,0,0,.26.258h1.448a.29.29,0,0,0,.26-.258l.189-1.245c.032-.216-.069-.4-.228-.4H29.654c-.159,0-.26.186-.228.4Z" transform="translate(-18.276 -24.97)" fill="#c7c7c7"/><path d="M22.042,43.521c-.9-.93-2.557-1.2-3.712-1.6a12.782,12.782,0,0,1-2.179-.935l-.428.4-2.3,4.76-.244-3.291h-1.7l-.244,3.291L8.85,40.987a12.782,12.782,0,0,1-2.179.935c-1.155.4-2.815.669-3.712,1.6C.215,45.913-.017,49.079,0,51.3H25c.018-2.223-.213-5.389-2.958-7.78" transform="translate(0 -25.462)" fill="#c7c7c7"/></g></g></g></svg>