<svg xmlns="http://www.w3.org/2000/svg" xmlns:xlink="http://www.w3.org/1999/xlink" width="20" height="20" viewBox="0 0 20 20"><defs><clipPath id="a"><rect width="17.909" height="19.619" fill="#121212"/></clipPath></defs><g transform="translate(-1058 -438)"><g transform="translate(1059 438)"><g clip-path="url(#a)"><path d="M16.955,328.425h-16A.954.954,0,0,1,0,327.471V316.445a.954.954,0,0,1,.954-.954H4.138a.954.954,0,1,1,0,1.907H1.907v9.119H16V317.4H13.771a.954.954,0,1,1,0-1.907h3.184a.954.954,0,0,1,.954.954v11.026a.954.954,0,0,1-.954.954" transform="translate(0 -308.806)" fill="#121212"/><path d="M272.293,5.768,268.973,0l-3.336,5.759,2.374,0-.006,4.447a.954.954,0,0,0,.952.955h0a.954.954,0,0,0,.954-.952l.006-4.447Z" transform="translate(-260.008)" fill="#121212"/></g></g><rect width="20" height="20" transform="translate(1058 438)" fill="none"/></g></svg>