<svg xmlns="http://www.w3.org/2000/svg" width="30" height="30" viewBox="0 0 30 30"><g transform="translate(-4 10)"><circle cx="15" cy="15" r="15" transform="translate(4 -10)" fill="#363b3d"/><path d="M.781,0V-7.7H6.017v1.177H2.046v2h3.63v1.188H2.046V0ZM7.007,0V-7.7h3.52a2.662,2.662,0,0,1,1.71.506,2.062,2.062,0,0,1,.632,1.7,2.251,2.251,0,0,1-.462,1.535,2.036,2.036,0,0,1-1.276.644L12.782,0H11.3L9.812-3.256H8.272V0ZM8.272-4.444h2.079a1.377,1.377,0,0,0,.869-.242.961.961,0,0,0,.308-.8.947.947,0,0,0-.308-.792,1.377,1.377,0,0,0-.869-.242H8.272ZM14.058,0V-7.7h5.148v1.177H15.323v2h3.542v1.188H15.323v2.156h4V0ZM20.5,0V-7.7h5.148v1.177H21.769v2h3.542v1.188H21.769v2.156h4V0Z" transform="translate(6 9)" fill="#fff"/></g></svg>