<svg xmlns="http://www.w3.org/2000/svg" width="15" height="15" viewBox="0 0 15 15"><g transform="translate(-19206 -267)"><rect width="15" height="15" transform="translate(19206 267)" fill="none"/><path d="M15.218,6H4.358A1.362,1.362,0,0,0,3,7.358V15.5A1.362,1.362,0,0,0,4.358,16.86h10.86A1.362,1.362,0,0,0,16.575,15.5V7.358A1.362,1.362,0,0,0,15.218,6ZM4.358,11.43H7.073v1.358H4.358ZM11.145,15.5H4.358V14.145h6.788Zm4.073,0H12.5V14.145h2.715Zm0-2.715H8.43V11.43h6.788Z" transform="translate(19203.713 263)" fill="#fff"/></g></svg>