<svg xmlns="http://www.w3.org/2000/svg" xmlns:xlink="http://www.w3.org/1999/xlink" width="15" height="15" viewBox="0 0 15 15"><defs><clipPath id="a"><rect width="11" height="13" transform="translate(0 0)" fill="#363b3d"/></clipPath></defs><g transform="translate(-19192 -484)"><rect width="15" height="15" transform="translate(19192 484)" fill="none"/><g transform="translate(19194 485)"><path d="M42,0v2.69H44.69Z" transform="translate(-33.932)" fill="#363b3d"/><g transform="translate(0 0)"><g clip-path="url(#a)"><path d="M7.3,3.458V0H0V13.448H10.758V3.458Zm-.768,7.3H2.305a.384.384,0,1,1,0-.768H6.532a.384.384,0,1,1,0,.768M8.453,8.453H2.305a.384.384,0,1,1,0-.768H8.453a.384.384,0,1,1,0,.768m0-2.305H2.305a.384.384,0,0,1,0-.768H8.453a.384.384,0,1,1,0,.768" fill="#363b3d"/></g></g></g></g></svg>