<svg xmlns="http://www.w3.org/2000/svg" xmlns:xlink="http://www.w3.org/1999/xlink" width="30" height="30" viewBox="0 0 30 30"><defs><clipPath id="a"><circle cx="15" cy="15" r="15" transform="translate(3049 -146)" fill="#363b3d"/></clipPath><clipPath id="b"><rect width="25" height="26" transform="translate(0 0)" fill="#c7c7c7"/></clipPath></defs><g transform="translate(-3049 146)" clip-path="url(#a)"><circle cx="15" cy="15" r="15" transform="translate(3049 -146)" fill="#363b3d"/><g transform="translate(3052 -142)"><g clip-path="url(#b)"><path d="M21.614,18.371c-.88-.911-2.508-1.177-3.64-1.568a12.534,12.534,0,0,1-2.136-.917,4.173,4.173,0,0,1-.945-.652,2.846,2.846,0,0,1-.313-1.479c.074-.211.459-.4.62-.552a6.532,6.532,0,0,0,.652-.7,7.3,7.3,0,0,0,.962-1.589A9.076,9.076,0,0,0,17.57,7.22C17.57,3.233,15.19,0,12.254,0S6.938,3.233,6.938,7.22a9.076,9.076,0,0,0,.757,3.691A7.284,7.284,0,0,0,8.657,12.5a6.5,6.5,0,0,0,.652.7c.16.149.546.341.62.552a2.827,2.827,0,0,1-.306,1.479,4.181,4.181,0,0,1-.945.652,12.534,12.534,0,0,1-2.136.917c-1.132.391-2.76.656-3.64,1.568C.211,20.716-.016,23.82,0,26H24.514c.018-2.18-.209-5.284-2.9-7.629" transform="translate(0)" fill="#c7c7c7"/></g></g></g></svg>