<svg xmlns="http://www.w3.org/2000/svg" xmlns:xlink="http://www.w3.org/1999/xlink" width="18" height="18" viewBox="0 0 18 18"><defs><clipPath id="a"><rect width="18" height="7.845" transform="translate(0 0)" fill="#6c787c"/></clipPath></defs><g transform="translate(-24 -248)"><rect width="18" height="18" transform="translate(24 248)" fill="none"/><g transform="translate(24 253.5)"><g transform="translate(0 0)" clip-path="url(#a)"><path d="M16.448,6.362a7.093,7.093,0,0,0-13.129-.67l1.3-.453a.8.8,0,0,1,.524,1.508L2.115,7.8A.8.8,0,0,1,1.1,7.309L.045,4.275a.8.8,0,0,1,1.508-.524l.39,1.123a8.687,8.687,0,0,1,16.013.964.8.8,0,1,1-1.508.524" transform="translate(0 0)" fill="#6c787c"/></g></g></g></svg>