<svg xmlns="http://www.w3.org/2000/svg" width="15" height="15" viewBox="0 0 15 15"><g transform="translate(-19206 -232)"><rect width="15" height="15" transform="translate(19206 232)" fill="none"/><path d="M21.066,96H8.792A.792.792,0,0,0,8,96.792v7.721a.792.792,0,0,0,.792.792H9.61v1.782L11.4,105.3h9.662a.792.792,0,0,0,.792-.792V96.792A.792.792,0,0,0,21.066,96m-9.3,5.394a.6.6,0,1,1,.6-.6.6.6,0,0,1-.6.6m3.165,0a.6.6,0,1,1,.6-.6.6.6,0,0,1-.6.6m3.164,0a.6.6,0,1,1,.6-.6.6.6,0,0,1-.6.6" transform="translate(19198.57 138)" fill="#fff"/></g></svg>