<svg xmlns="http://www.w3.org/2000/svg" xmlns:xlink="http://www.w3.org/1999/xlink" width="20" height="20" viewBox="0 0 20 20"><defs><clipPath id="a"><rect width="17.996" height="19.539" fill="none"/></clipPath></defs><g transform="translate(-910 -436)"><g transform="translate(911 436.23)"><g clip-path="url(#a)"><path d="M12.378,19.539A5.586,5.586,0,0,1,8.64,18.111H1.246A1.247,1.247,0,0,1,0,16.865V6.2a.879.879,0,0,1,.017-.173.736.736,0,0,1,.027-.1.6.6,0,0,1,.024-.068.762.762,0,0,1,.047-.093.585.585,0,0,1,.034-.058.852.852,0,0,1,.079-.1l.028-.031L5.58.256c.014-.014.026-.025.037-.034A.842.842,0,0,1,5.711.148.608.608,0,0,1,5.773.112.75.75,0,0,1,5.862.068.613.613,0,0,1,5.932.043.726.726,0,0,1,6.026.017.878.878,0,0,1,6.2,0h6.628a1.247,1.247,0,0,1,1.246,1.246V8.567a5.664,5.664,0,0,1,2.694,1.852,5.614,5.614,0,0,1-4.389,9.121m0-9.485a3.867,3.867,0,1,0,3.868,3.867,3.872,3.872,0,0,0-3.868-3.867M8.646,17.1h.037l-.024-.028-.011.023,0,0m-6.9-.741H7.317a5.616,5.616,0,0,1,5-8.056V1.75H7.074V5.826A1.247,1.247,0,0,1,5.828,7.071H1.75ZM.207,5.634h0m2.782-.313H5.324V2.987Z" fill="#fff"/><path d="M426.795,507.136a.876.876,0,0,1-.875-.875v-2.09h-2.09a.875.875,0,1,1,0-1.75h2.09v-2.09a.875.875,0,0,1,1.75,0v2.09h2.09a.875.875,0,1,1,0,1.75h-2.09v2.09a.876.876,0,0,1-.875.875m2.965-3.706h0Zm-2.993-.134.028.028.028-.028-.028-.028-.028.028" transform="translate(-414.417 -489.374)" fill="#fff"/></g></g><rect width="20" height="20" transform="translate(910 436)" fill="none"/></g></svg>